<svg width="180" height="108" viewBox="0 0 180 108" fill="none" xmlns="http://www.w3.org/2000/svg">
<g id="AI-for-Business-Learders-Workshop-Dark-BG">
<g id="Asset 2 2" clip-path="url(#clip0_1305_110)">
<g id="Layer 1">
<g id="Group">
<g id="Group_2">
<path id="Vector" d="M34.1135 51.2333L25 75.5175H31.5173L33.0544 71.1629H41.5538L43.0544 75.5175H49.6746L40.5611 51.23H34.1102L34.1135 51.2333ZM34.5219 66.4709L37.2875 57.9669H37.3572L40.0531 66.4709H34.5252H34.5219Z" fill="white"/>
<path id="Vector_2" d="M57.8652 51.2334H51.5173V75.5209H57.8652V51.2334Z" fill="white"/>
<path id="Vector_3" d="M76.6401 71.9439H76.5936L74.9635 63.1885H71.514L69.9734 71.9439H69.927L68.4761 63.1885H65.3055L67.9947 75.5175H71.6733L73.2138 66.7654H73.2603L74.8938 75.5175H78.5027L81.172 63.1885H78.1341L76.6401 71.9439Z" fill="white"/>
<path id="Vector_4" d="M86.8493 62.8675C83.2404 62.8675 81.9754 65.1374 81.9754 69.353C81.9754 73.5685 83.0544 75.9079 86.8493 75.8384C90.4582 75.8384 91.7231 73.5685 91.7231 69.353C91.7231 65.1374 90.6408 62.798 86.8493 62.8675ZM86.8493 73.6843C85.2855 73.6843 85.1494 71.8744 85.1494 69.353C85.1494 66.8316 85.2888 65.0216 86.8493 65.0216C88.1374 65.0216 88.5491 66.2591 88.5491 69.353C88.5491 72.4468 88.1341 73.6843 86.8493 73.6843Z" fill="white"/>
<path id="Vector_5" d="M96.504 64.8396H96.4575V63.1884H93.423V75.5174H96.5969V68.1154C96.5969 66.4642 97.8386 65.8918 98.9409 65.8918C99.2862 65.8918 99.585 65.9149 99.9303 65.9381V62.9138C99.7477 62.8906 99.5385 62.8674 99.3559 62.8674C98.0445 62.8674 97.1481 63.6483 96.504 64.8396Z" fill="white"/>
<path id="Vector_6" d="M111.106 63.1884H107.61L104.416 67.7944H104.369V59.1548H101.195V75.5174H104.369V71.9206L105.495 70.4548L108.141 75.5174H111.637L107.543 68.0492L111.106 63.1884Z" fill="white"/>
<path id="Vector_7" d="M118.463 68.4363L116.554 67.7944C115.475 67.4503 115.173 66.9705 115.173 66.3517C115.173 65.4583 115.863 65.0215 116.667 65.0215C117.703 65.0215 118.068 65.6171 118.068 66.8778H120.92V66.3749C120.92 64.1513 119.562 62.8674 116.69 62.8674C113.446 62.8674 112.138 64.5649 112.138 66.58C112.138 68.3205 113.035 69.3992 114.781 70.018L117.012 70.8188C117.633 71.0702 118.161 71.4144 118.161 72.2151C118.161 73.2012 117.54 73.681 116.55 73.681C115.471 73.681 114.894 72.9696 114.894 71.8942V71.4806H112.042V71.9173C112.042 74.2998 113.008 75.8351 116.594 75.8351C119.26 75.8351 121.192 74.5512 121.192 71.9603C121.192 70.104 120.455 69.0948 118.456 68.4297L118.463 68.4363Z" fill="white"/>
<path id="Vector_8" d="M129.017 62.8674C127.659 62.8674 126.627 63.3703 126.006 64.4491H125.959V59.1548H122.786V75.5174H125.959V67.3344C125.959 65.9811 126.511 65.2961 127.639 65.2961C128.582 65.2961 128.997 65.7561 128.997 67.0135V75.5174H132.171V66.3749C132.171 63.9229 131.023 62.8674 129.021 62.8674H129.017Z" fill="white"/>
<path id="Vector_9" d="M138.742 62.8675C135.133 62.8675 133.868 65.1374 133.868 69.353C133.868 73.5685 134.947 75.9079 138.742 75.8384C142.351 75.8384 143.616 73.5685 143.616 69.353C143.616 65.1374 142.533 62.798 138.742 62.8675ZM138.742 73.6843C137.178 73.6843 137.042 71.8744 137.042 69.353C137.042 66.8316 137.181 65.0216 138.742 65.0216C140.03 65.0216 140.442 66.2591 140.442 69.353C140.442 72.4468 140.027 73.6843 138.742 73.6843Z" fill="white"/>
<path id="Vector_10" d="M151.205 62.8674C149.94 62.8674 149.114 63.3274 148.4 64.4954H148.353V63.1884H145.319V79.551H148.493V74.3726H148.539C149.207 75.3586 150.01 75.8384 151.205 75.8384C153.805 75.8384 155 73.9358 155 69.3529C155 64.7701 153.805 62.8674 151.205 62.8674ZM150.169 73.4097C148.768 73.4097 148.489 72.0331 148.489 69.3529C148.489 66.6727 148.765 65.2962 150.169 65.2962C151.574 65.2962 151.826 66.6727 151.826 69.3529C151.826 72.0331 151.55 73.4097 150.169 73.4097Z" fill="white"/>
</g>
<g id="Group_3">
<path id="Vector_11" d="M25.3055 90.7848H27.5166V86.0431H31.2019V84.2365H27.5166V81.6654H31.4309V79.8621H25.3055V90.7848Z" fill="#CC4141"/>
<path id="Vector_12" d="M35.332 82.3405C32.9216 82.3405 32.0784 83.856 32.0784 86.6718C32.0784 89.4877 32.7988 91.0462 35.332 91.0032C37.7424 91.0032 38.5857 89.4877 38.5857 86.6718C38.5857 83.856 37.8652 82.2975 35.332 82.3405ZM35.332 89.5605C34.2895 89.5605 34.1965 88.3528 34.1965 86.6685C34.1965 84.9843 34.2895 83.7765 35.332 83.7765C36.1919 83.7765 36.4675 84.6038 36.4675 86.6685C36.4675 88.7333 36.1919 89.5605 35.332 89.5605Z" fill="#CC4141"/>
<path id="Vector_13" d="M41.7796 83.6542H41.7497V82.5523H39.7244V90.7849H41.8426V85.8447C41.8426 84.7429 42.6726 84.359 43.4097 84.359C43.6388 84.359 43.838 84.3756 44.0704 84.3888V82.3704C43.9475 82.3538 43.8081 82.3406 43.6853 82.3406C42.8088 82.3406 42.2112 82.8601 41.7829 83.6575L41.7796 83.6542Z" fill="#CC4141"/>
<path id="Vector_14" d="M53.7384 85.0471V85.0174C54.844 84.7129 55.3951 83.8096 55.3951 82.6316C55.3951 80.5338 54.0903 79.8621 52.2776 79.8621H48.579V90.7848H52.3108C54.8904 90.7848 55.7337 89.2991 55.7337 87.5884C55.7337 86.1192 54.9668 85.2159 53.7384 85.0471ZM50.7902 81.4834H51.587C52.6926 81.4834 53.1839 81.8673 53.1839 82.9063C53.1839 83.9453 52.6461 84.3456 51.4177 84.3456H50.7869V81.4834H50.7902ZM51.6501 89.1634H50.7902V85.8744H51.743C52.7092 85.8744 53.4329 86.2417 53.4329 87.5123C53.4329 88.7829 52.7125 89.1634 51.6534 89.1634H51.6501Z" fill="#CC4141"/>
<path id="Vector_15" d="M61.1985 88.0153C61.1985 88.9186 60.83 89.3785 60.0764 89.3785C59.4456 89.3785 59.17 89.0741 59.17 88.2304V82.5556H57.0518V88.6605C57.0518 90.2984 57.8187 90.9999 59.1567 90.9999C60.0631 90.9999 60.8134 90.6326 61.2583 89.8219H61.2882V90.7848H63.3134V82.5522H61.1952V88.0153H61.1985Z" fill="#CC4141"/>
<path id="Vector_16" d="M68.662 86.0564L67.3871 85.6295C66.6667 85.4012 66.4675 85.0802 66.4675 84.6666C66.4675 84.071 66.929 83.7798 67.4668 83.7798C68.1574 83.7798 68.4031 84.1769 68.4031 85.0207H70.3054V84.6832C70.3054 83.1975 69.3991 82.3438 67.4801 82.3438C65.3154 82.3438 64.4389 83.4754 64.4389 84.8221C64.4389 85.9836 65.0365 86.7049 66.2052 87.1185L67.6959 87.6546C68.1109 87.8233 68.4628 88.0516 68.4628 88.5877C68.4628 89.2462 68.0478 89.5671 67.3871 89.5671C66.6667 89.5671 66.2815 89.0939 66.2815 88.3726V88.098H64.3792V88.3892C64.3792 89.9807 65.0232 91.0065 67.4203 91.0065C69.1999 91.0065 70.4914 90.1495 70.4914 88.4222C70.4914 87.1814 70 86.5097 68.6653 86.0663L68.662 86.0564Z" fill="#CC4141"/>
<path id="Vector_17" d="M73.7417 82.5522H71.6235V90.7848H73.7417V82.5522Z" fill="#CC4141"/>
<path id="Vector_18" d="M73.7417 79.7397H71.6235V81.5464H73.7417V79.7397Z" fill="#CC4141"/>
<path id="Vector_19" d="M79.3924 82.3406C78.4861 82.3406 77.7357 82.7079 77.2875 83.5186H77.2576V82.5557H75.2324V90.7883H77.3506V85.3252C77.3506 84.4219 77.7191 83.9619 78.4728 83.9619C79.1036 83.9619 79.3791 84.2664 79.3791 85.1101V90.7849H81.4973V84.68C81.4973 83.0421 80.7304 82.3406 79.3958 82.3406H79.3924Z" fill="#CC4141"/>
<path id="Vector_20" d="M85.8865 82.3406C83.0312 82.3406 82.6029 84.3921 82.6029 86.5925C82.6029 88.6441 82.7258 91 85.7968 91C87.8221 91 88.7152 89.9279 88.7915 88.0154H86.8891C86.7663 89.0544 86.4907 89.5606 85.7669 89.5606C84.9834 89.5606 84.7244 88.6275 84.7244 87.6481V86.9896H88.9144V86.5164C88.9144 83.9917 88.3632 82.3406 85.8898 82.3406H85.8865ZM84.7178 85.7355V85.4146C84.7178 84.6337 84.9635 83.7766 85.8068 83.7766C86.6501 83.7766 86.836 84.4814 86.8825 85.7355H84.7178Z" fill="#CC4141"/>
<path id="Vector_21" d="M93.9442 86.0564L92.6693 85.6295C91.9489 85.4012 91.7497 85.0802 91.7497 84.6666C91.7497 84.071 92.2112 83.7798 92.749 83.7798C93.4396 83.7798 93.6853 84.1769 93.6853 85.0207H95.5877V84.6832C95.5877 83.1975 94.6813 82.3438 92.7623 82.3438C90.5976 82.3438 89.7211 83.4754 89.7211 84.8221C89.7211 85.9836 90.3187 86.7049 91.4874 87.1185L92.9781 87.6546C93.3931 87.8233 93.745 88.0516 93.745 88.5877C93.745 89.2462 93.33 89.5671 92.6693 89.5671C91.9489 89.5671 91.5638 89.0939 91.5638 88.3726V88.098H89.6614V88.3892C89.6614 89.9807 90.3055 91.0065 92.7025 91.0065C94.4821 91.0065 95.7736 90.1495 95.7736 88.4222C95.7736 87.1814 95.2822 86.5097 93.9476 86.0663L93.9442 86.0564Z" fill="#CC4141"/>
<path id="Vector_22" d="M100.76 86.0564L99.4854 85.6295C98.765 85.4012 98.5657 85.0802 98.5657 84.6666C98.5657 84.071 99.0272 83.7798 99.5651 83.7798C100.256 83.7798 100.501 84.1769 100.501 85.0207H102.404V84.6832C102.404 83.1975 101.497 82.3438 99.5784 82.3438C97.4137 82.3438 96.5372 83.4754 96.5372 84.8221C96.5372 85.9836 97.1348 86.7049 98.3035 87.1185L99.7942 87.6546C100.209 87.8233 100.561 88.0516 100.561 88.5877C100.561 89.2462 100.146 89.5671 99.4854 89.5671C98.765 89.5671 98.3798 89.0939 98.3798 88.3726V88.098H96.4774V88.3892C96.4774 89.9807 97.1215 91.0065 99.5186 91.0065C101.298 91.0065 102.59 90.1495 102.59 88.4222C102.59 87.1814 102.098 86.5097 100.764 86.0663L100.76 86.0564Z" fill="#CC4141"/>
<path id="Vector_23" d="M109.605 79.8621H107.394V90.7848H113.519V88.9814H109.605V79.8621Z" fill="#CC4141"/>
<path id="Vector_24" d="M117.417 82.3406C114.562 82.3406 114.133 84.3921 114.133 86.5925C114.133 88.6441 114.256 91 117.327 91C119.353 91 120.246 89.9279 120.322 88.0154H118.42C118.297 89.0544 118.021 89.5606 117.297 89.5606C116.514 89.5606 116.255 88.6275 116.255 87.6481V86.9896H120.445V86.5164C120.445 83.9917 119.894 82.3406 117.42 82.3406H117.417ZM116.252 85.7355V85.4146C116.252 84.6337 116.497 83.7766 117.341 83.7766C118.184 83.7766 118.37 84.4814 118.416 85.7355H116.252Z" fill="#CC4141"/>
<path id="Vector_25" d="M127.427 84.8653C127.427 83.3796 126.952 82.3406 124.432 82.3406C122.835 82.3406 121.531 82.9825 121.531 84.8818V85.0804H123.433V84.852C123.433 84.1936 123.755 83.78 124.416 83.78C125.136 83.78 125.398 84.1638 125.398 84.7892C125.398 85.3385 125.183 85.5833 124.555 85.7521L123.357 86.073C121.899 86.4701 121.268 87.0823 121.268 88.6441C121.268 89.7459 121.79 91 123.264 91C124.293 91 124.874 90.7849 125.365 89.9279H125.395C125.455 90.2191 125.518 90.5235 125.657 90.7849H127.683C127.483 90.2952 127.42 89.9743 127.42 89.1933V84.862L127.427 84.8653ZM125.402 88.29C125.402 89.2066 124.665 89.5606 124.097 89.5606C123.529 89.5606 123.3 89.0411 123.3 88.4124C123.3 87.6779 123.639 87.2643 124.499 87.0823C124.761 87.0227 125.113 86.9003 125.405 86.6686V88.29H125.402Z" fill="#CC4141"/>
<path id="Vector_26" d="M133.078 83.3201H133.048C132.603 82.6616 132.065 82.3407 131.268 82.3407C129.532 82.3407 128.735 83.6113 128.735 86.672C128.735 89.7328 129.532 91.0034 131.268 91.0034C132.112 91.0034 132.666 90.699 133.141 89.9181H133.171V90.7916H135.196V79.8689H133.078V83.3267V83.3201ZM131.956 89.3787C131.036 89.3787 130.85 88.4622 130.85 86.672C130.85 84.8819 131.033 83.9653 131.956 83.9653C132.878 83.9653 133.078 84.8819 133.078 86.672C133.078 88.4622 132.895 89.3787 131.956 89.3787Z" fill="#CC4141"/>
<path id="Vector_27" d="M139.585 82.3406C136.73 82.3406 136.301 84.3921 136.301 86.5925C136.301 88.6441 136.424 91 139.495 91C141.521 91 142.414 89.9279 142.49 88.0154H140.588C140.465 89.0544 140.189 89.5606 139.465 89.5606C138.682 89.5606 138.423 88.6275 138.423 87.6481V86.9896H142.613V86.5164C142.613 83.9917 142.062 82.3406 139.588 82.3406H139.585ZM138.42 85.7355V85.4146C138.42 84.6337 138.665 83.7766 139.509 83.7766C140.352 83.7766 140.538 84.4814 140.584 85.7355H138.42Z" fill="#CC4141"/>
<path id="Vector_28" d="M145.774 83.6542H145.744V82.5523H143.718V90.7849H145.837V85.8447C145.837 84.7429 146.667 84.359 147.404 84.359C147.633 84.359 147.832 84.3756 148.064 84.3888V82.3704C147.942 82.3538 147.802 82.3406 147.679 82.3406C146.803 82.3406 146.205 82.8601 145.777 83.6575L145.774 83.6542Z" fill="#CC4141"/>
<path id="Vector_29" d="M152.759 86.0564L151.484 85.6295C150.764 85.4012 150.564 85.0802 150.564 84.6666C150.564 84.071 151.026 83.7798 151.564 83.7798C152.254 83.7798 152.5 84.1769 152.5 85.0207H154.402V84.6832C154.402 83.1975 153.496 82.3438 151.577 82.3438C149.412 82.3438 148.536 83.4754 148.536 84.8221C148.536 85.9836 149.133 86.7049 150.302 87.1185L151.793 87.6546C152.208 87.8233 152.56 88.0516 152.56 88.5877C152.56 89.2462 152.145 89.5671 151.484 89.5671C150.764 89.5671 150.378 89.0939 150.378 88.3726V88.098H148.476V88.3892C148.476 89.9807 149.12 91.0065 151.517 91.0065C153.297 91.0065 154.588 90.1495 154.588 88.4222C154.588 87.1814 154.097 86.5097 152.762 86.0663L152.759 86.0564Z" fill="#CC4141"/>
</g>
<path id="Vector_30" d="M85.8466 42.0247L85.2357 31.5883C85.8533 31.3071 86.2849 30.6916 86.2849 29.9736C86.2849 28.9908 85.4847 28.1967 84.502 28.1967C84.1268 28.1967 83.7782 28.3125 83.4927 28.511L72.832 18.4354C72.9117 18.2335 72.9615 18.0151 72.9615 17.7835C72.9615 16.8008 72.1614 16.0066 71.1786 16.0066C70.4714 16.0066 69.8639 16.4202 69.575 17.0191L53.8181 16C53.8181 16 53.8081 16 53.8048 16C53.7749 16 53.745 16 53.7151 16.0033C53.6919 16.0033 53.672 16.0033 53.6487 16.0099C53.6222 16.0165 53.5956 16.0265 53.5691 16.0331C53.5491 16.0397 53.5292 16.043 53.5093 16.0496L41.5239 21.2546C41.2019 20.9369 40.7603 20.7417 40.2722 20.7417C39.2862 20.7417 38.4894 21.5391 38.4894 22.5186C38.4894 22.9785 38.6687 23.3954 38.9575 23.7098L34.4821 32.9251C34.4389 33.0145 34.4157 33.1137 34.4157 33.213V33.4579V38.0341C33.7583 38.2955 33.2968 38.9341 33.2968 39.6819C33.2968 40.6647 34.0969 41.4588 35.0797 41.4588C35.2025 41.4588 35.322 41.4456 35.4349 41.4224L38.5325 46.1112C38.506 46.2336 38.4894 46.3627 38.4894 46.495C38.4894 47.4778 39.2895 48.2719 40.2722 48.2719C41.255 48.2719 42.0551 47.4745 42.0551 46.495C42.0551 46.452 42.0452 46.4156 42.0418 46.3726L50.0166 43.7221L58.5923 45.1913C58.8712 45.7373 59.419 46.1145 60.0631 46.1542L65.7835 56.1604C65.6242 56.4251 65.5279 56.7328 65.5279 57.067C65.5279 58.0498 66.328 58.8439 67.3108 58.8439C68.2935 58.8439 69.0936 58.0465 69.0936 57.067C69.0936 56.938 69.077 56.8155 69.0538 56.6931L84.3227 45.188C84.5983 45.3601 84.9203 45.4659 85.2722 45.4659C86.2583 45.4659 87.0551 44.6685 87.0551 43.689C87.0551 42.9081 86.5438 42.2497 85.84 42.0114L85.8466 42.0247ZM83.7351 42.8221L77.3871 42.1173C77.3572 42.0379 77.324 41.9618 77.2809 41.8857L83.9475 32.3262L84.5219 42.0975C84.1899 42.253 83.9177 42.5078 83.7384 42.8221H83.7351ZM67.3141 55.3034C67.1547 55.3034 67.002 55.3298 66.8559 55.3695L61.3479 45.734C61.5139 45.5884 61.6534 45.413 61.7563 45.2145L74.658 43.4674L67.3539 55.3067C67.3539 55.3067 67.3274 55.3034 67.3141 55.3034ZM45.7935 31.7571L51.9489 28.3059L57.168 31.2475C57.1016 31.5023 57.0618 31.767 57.0618 32.045C57.0618 32.2799 57.0883 32.5049 57.1381 32.7233L51.8128 35.2083L45.7902 31.7571H45.7935ZM49.7444 35.5491L42.6992 36.4557L44.7145 32.667L49.7444 35.5491ZM53.3035 27.5481L61.7696 22.8031L60.1726 28.9412C59.2065 28.9412 58.3466 29.3813 57.7756 30.0695L53.3035 27.5514V27.5481ZM74.5186 42.1504L61.8692 43.8644C61.7032 43.3515 61.3181 42.9379 60.8167 42.746L60.7337 35.0958C61.6633 34.9303 62.4469 34.3546 62.8951 33.5638L69.1733 35.2712L74.5883 41.9783C74.5618 42.0346 74.5418 42.0908 74.5219 42.1504H74.5186ZM69.0803 33.8748L63.2802 32.2964C63.2869 32.2137 63.2935 32.1277 63.2935 32.0416C63.2935 30.7876 62.5465 29.7089 61.4708 29.2191L63.1806 22.6443L70.4216 28.7327L69.0803 33.8715V33.8748ZM70.2822 34.5333L71.6634 29.239L82.9416 30.8273C83.0047 30.9398 83.0744 31.0424 83.1607 31.1383L76.1952 41.1313C76.1189 41.118 76.0425 41.1081 75.9628 41.1081C75.8466 41.1081 75.7337 41.1246 75.6242 41.1478L70.2855 34.5333H70.2822ZM71.4509 27.8691L64.0438 21.6384L69.9236 19.0508C70.2457 19.3652 70.6839 19.5571 71.1687 19.5571C71.4343 19.5571 71.6833 19.4942 71.909 19.3916L82.5299 29.4276L71.4475 27.8691H71.4509ZM68.4197 18.2666L62.8287 20.7251L56.7962 17.5155L68.4197 18.2633V18.2666ZM54.2497 17.6644L61.421 21.4763L52.4934 26.4827L54.2497 17.6644ZM51.1487 26.4396L42.0551 22.5616C42.0551 22.5616 42.0584 22.5351 42.0584 22.5219C42.0584 22.5053 42.0551 22.4888 42.0518 22.4722L52.8752 17.7703L51.1487 26.4396ZM40.1527 24.2922C40.1926 24.2922 40.2324 24.3054 40.2722 24.3054C40.7636 24.3054 41.2118 24.1069 41.5339 23.7859L50.4947 27.6044L44.2198 31.1218L36.1089 32.6174L40.1494 24.2922H40.1527ZM43.2205 32.6505L41.0458 36.7436L36.3911 38.4907C36.2118 38.2955 35.9927 38.14 35.7437 38.0407V34.027L43.2205 32.6472V32.6505ZM39.2563 44.8108L36.5438 40.7044C36.7364 40.4265 36.8526 40.0923 36.8592 39.7316L40.6142 38.322L39.2563 44.8141V44.8108ZM49.4124 42.5409L41.4575 45.1847C41.2251 44.9762 40.9429 44.8273 40.6242 44.7611L42.0684 37.872L50.8997 36.7337L49.4124 42.5409ZM52.3506 36.4193L57.7025 33.9211C58.1209 34.4671 58.7185 34.8708 59.4057 35.0461L59.4887 42.7592C59.0173 42.9578 58.6554 43.3548 58.4927 43.8413L50.7869 42.521L52.3506 36.416V36.4193ZM69.087 55.0287L75.8101 44.1291C75.8599 44.1324 75.9064 44.1424 75.9562 44.1424C76.4973 44.1424 76.9721 43.8578 77.241 43.4343L83.5458 44.1358L69.087 55.032V55.0287Z" fill="#CC4141"/>
</g>
</g>
</g>
</g>
<defs>
<clipPath id="clip0_1305_110">
<rect width="130" height="75" fill="white" transform="translate(25 16)"/>
</clipPath>
</defs>
</svg>
