<svg width="180" height="108" viewBox="0 0 180 108" fill="none" xmlns="http://www.w3.org/2000/svg">
<g id="Angular-Workshop-Dark-BG" clip-path="url(#clip0_215_13748)">
<g id="Clip path group">
<mask id="mask0_215_13748" style="mask-type:luminance" maskUnits="userSpaceOnUse" x="6" y="22" width="175" height="67">
<g id="clippath">
<path id="Vector" d="M180.598 22H6V88.4808H180.598V22Z" fill="white"/>
</g>
</mask>
<g mask="url(#mask0_215_13748)">
<g id="Group">
<path id="Vector_2" d="M156.58 60.1232H24.9585C23.6158 60.1232 22.5273 61.2114 22.5273 62.5537V86.0551C22.5273 87.3975 23.6158 88.4857 24.9585 88.4857H156.58C157.923 88.4857 159.011 87.3975 159.011 86.0551V62.5537C159.011 61.2114 157.923 60.1232 156.58 60.1232Z" fill="white"/>
<g id="Group_2">
<path id="Vector_3" d="M30.1386 73.8256L41.8324 69.2966V72.2999L34.0189 75.3272L41.8324 78.3545V81.3578L30.1386 76.8288V73.8256Z" fill="#333333"/>
<path id="Vector_4" d="M43.1227 68.6707H46.8682L48.0717 77.8874H48.1199L49.5305 68.6707H53.5504L54.8695 77.8874H54.9176L56.2367 68.6707H59.8426L57.137 81.1698H52.9101L51.5476 71.9531H51.4995L50.0456 81.1698H45.7465L43.1371 68.6707H43.1227Z" fill="#333333"/>
<path id="Vector_5" d="M60.5213 74.9564C60.5213 71.2119 61.3542 68.3483 65.6774 68.3483C70.2317 68.3483 70.8335 71.1446 70.8335 74.889C70.8335 78.6335 70.0006 81.4971 65.6774 81.4971C61.1039 81.4971 60.5213 78.7008 60.5213 74.9612V74.9564ZM65.6967 70.798C64.5894 70.798 64.262 71.8858 64.262 74.9083C64.262 77.9308 64.5846 79.0426 65.6967 79.0426C66.8088 79.0426 67.0832 78.003 67.0832 74.9323C67.0832 71.8617 66.8521 70.798 65.6967 70.798Z" fill="#333333"/>
<path id="Vector_6" d="M72.4944 68.6707H76.1003V70.4274H76.1484C76.6347 69.3205 77.5831 68.3483 79.1525 68.3483H79.4318C79.5232 68.3483 79.6388 68.3723 79.7543 68.3964V71.9098C79.3836 71.8424 79.0851 71.8184 78.7144 71.8184C77.2124 71.8184 76.2399 72.42 76.2399 74.0804V81.1747H72.4944V68.6755V68.6707Z" fill="#333333"/>
<path id="Vector_7" d="M81.0445 64.6761H84.79V73.1565H84.8382L87.6352 68.6757H91.7466L88.1648 73.7148L92.1847 81.1748H88.0926L85.7577 76.463L84.7852 77.7817V81.1796H81.0397V64.681L81.0445 64.6761Z" fill="#333333"/>
<path id="Vector_8" d="M95.9013 77.1992C95.9253 77.7527 95.9687 78.2388 96.1564 78.6094C96.3634 78.9559 96.686 79.1869 97.3119 79.1869C98.2121 79.1869 98.6502 78.6335 98.6502 77.9163C98.6502 77.3388 98.3951 76.7853 97.2156 76.3906C94.1441 75.3511 92.6613 74.7735 92.6613 72.1168C92.6613 69.6237 94.3944 68.3483 97.4226 68.3483C100.913 68.3483 101.953 70.0809 101.953 71.8617V72.2756H98.6261V72.0446C98.6261 70.9569 98.2121 70.6585 97.4033 70.6585C96.4116 70.6585 96.1324 71.1446 96.1324 71.8136C96.1324 74.0083 102.116 72.5548 102.116 77.4062C102.116 79.9233 100.451 81.4971 97.3311 81.4971C93.9804 81.4971 92.5698 80.2506 92.5698 77.7527V77.1992H95.8965H95.9013Z" fill="#333333"/>
<path id="Vector_9" d="M103.734 64.6761H107.48V70.0377H107.528C108.154 68.8153 109.097 68.3532 110.392 68.3532C112.52 68.3532 113.651 69.4169 113.651 71.8185V81.1748H109.906V72.6511C109.906 71.7511 109.535 71.2169 108.818 71.2169C108.101 71.2169 107.48 71.7704 107.48 72.9977V81.1748H103.734V64.6761Z" fill="#333333"/>
<path id="Vector_10" d="M115.312 74.9564C115.312 71.2119 116.145 68.3483 120.468 68.3483C125.023 68.3483 125.624 71.1446 125.624 74.889C125.624 78.6335 124.792 81.4971 120.468 81.4971C115.895 81.4971 115.312 78.7008 115.312 74.9612V74.9564ZM120.488 70.798C119.38 70.798 119.053 71.8858 119.053 74.9083C119.053 77.9308 119.376 79.0426 120.488 79.0426C121.6 79.0426 121.874 78.003 121.874 74.9323C121.874 71.8617 121.643 70.798 120.488 70.798Z" fill="#333333"/>
<path id="Vector_11" d="M127.285 68.6707H130.891V70.1964H130.939C131.17 69.3638 132.003 68.3483 133.645 68.3483C136.139 68.3483 137.506 70.1483 137.506 74.8168C137.506 78.696 136.928 81.4923 133.876 81.4923C132.86 81.4923 131.705 81.1699 131.079 79.8078H131.031V85.2368H127.285V68.6707ZM132.321 78.7682C133.684 78.7682 133.756 77.2907 133.756 74.9997C133.756 72.9879 133.688 71.0724 132.302 71.0724C131.195 71.0724 130.963 72.4104 130.963 74.8361C130.963 77.0548 131.055 78.7634 132.326 78.7634L132.321 78.7682Z" fill="#333333"/>
<path id="Vector_12" d="M151.015 76.8288L139.321 81.3578V78.3545L147.13 75.3272L139.321 72.2999V69.2966L151.015 73.8256V76.8288Z" fill="#333333"/>
</g>
<path id="Vector_13" fill-rule="evenodd" clip-rule="evenodd" d="M154.183 62.9339L162.723 37.411H29.7246V62.9339H154.183Z" fill="white"/>
<path id="Vector_14" d="M167.388 41.8101H151.246V62.9387H167.388V41.8101Z" fill="white"/>
<path id="Vector_15" fill-rule="evenodd" clip-rule="evenodd" d="M29.9942 22.5295C29.1854 22.1878 28.2707 22.1878 27.4619 22.5247C23.7116 24.0744 12.6485 28.6515 7.81496 30.6489C6.45253 31.212 5.63411 32.6077 5.80261 34.066C6.47179 39.8656 8.12307 54.2273 8.67671 59.0595C8.79225 60.0798 9.37959 60.9846 10.2606 61.5093C13.8087 63.6269 23.158 69.2051 27.0046 71.5009C28.0492 72.1217 29.3491 72.1217 30.389 71.4961C34.2404 69.181 43.5993 63.5547 47.1474 61.4226C48.0284 60.8932 48.6109 59.9836 48.7216 58.968C49.2608 54.1503 50.8543 39.88 51.4994 34.119C51.6631 32.6655 50.8495 31.2842 49.5015 30.7162C44.7162 28.7093 33.7252 24.0985 29.9942 22.5295Z" fill="white"/>
<g id="Clip path group_2">
<mask id="mask1_215_13748" style="mask-type:luminance" maskUnits="userSpaceOnUse" x="10" y="29" width="37" height="38">
<g id="clippath-1">
<path id="Vector_16" d="M12.1045 55.5554L10.8431 35.3075L24.3038 29.0026L12.1045 55.5554ZM28.4922 39.0808L33.3161 50.9494H23.6635L28.4874 39.0808H28.4922ZM37.7018 61.4897L28.4922 66.8032L19.2825 61.4897L21.1553 56.8982H35.8291L37.7018 61.4897ZM46.1412 35.3075L44.8654 55.5554L32.6854 29.0074L46.146 35.3123L46.1412 35.3075Z" fill="white"/>
</g>
</mask>
<g mask="url(#mask1_215_13748)">
<g id="Group_3">
<path id="Vector_17" d="M46.146 29.0074H10.8431V66.8081H46.146V29.0074Z" fill="url(#paint0_linear_215_13748)"/>
</g>
</g>
</g>
<path id="Vector_18" fill-rule="evenodd" clip-rule="evenodd" d="M112.043 37.4687H105.496V49.3902C105.496 51.5946 105.496 54.4149 102.401 54.4149C99.305 54.4149 99.2135 51.5946 99.2135 49.3902V37.4687H92.6661V50.8919C92.6661 56.9898 95.8195 59.8728 102.372 59.8728C108.924 59.8728 112.043 56.9898 112.043 50.8919V37.4687ZM86.8601 59.3482H90.9956V47.3063H82.3059V51.994H85.1944C84.867 53.616 83.3217 54.4149 81.8004 54.4149C77.8431 54.4149 77.0102 50.8293 77.0102 48.7742C77.0102 47.2726 76.861 42.4019 81.3575 42.4019C82.9028 42.4019 84.2171 43.5377 84.453 45.1308H90.7356C89.7824 39.9521 86.3884 36.9489 80.9434 36.9489C76.1821 36.9489 70.4676 40.289 70.4676 48.625C70.4676 54.8481 74.3383 59.8728 80.6161 59.8728C82.9654 59.8728 85.1992 59.0738 86.6579 57.115L86.865 59.353L86.8601 59.3482ZM50.0119 59.3482H56.203V47.3977H56.2608L62.7793 59.3482H69.1485V37.4687H62.9574V49.1737H62.8996L56.7085 37.4687H50.0119V59.3482ZM157.673 42.6762H160.74C163.238 42.6762 163.984 43.4752 163.984 44.8517C163.984 46.8153 162.319 47.0271 161.096 47.0271H157.673V42.6762ZM138.146 51.532L140.202 44.7891H140.26L142.166 51.532H138.146ZM151.154 59.3482H157.673V51.7149H161.154C163.744 51.7149 163.951 53.8903 164.1 55.9743C164.191 57.1102 164.307 58.2412 164.634 59.3434H171.182C170.556 58.3952 170.556 55.6952 170.469 54.6556C170.233 51.9267 169.131 49.9052 167.345 49.2025C169.516 48.3747 170.532 45.9827 170.532 43.7158C170.532 39.5767 167.287 37.4638 163.594 37.4638H151.126V59.2615L151.154 59.3434V59.3482ZM129.813 59.3482H135.768L136.721 56.2246H143.481L144.371 59.3482H151.13V59.2663L143.423 37.4687H137.025L129.823 57.6011V59.3482H129.813ZM129.813 57.6011V53.7411H120.406V37.4687H113.858V59.3482H129.187L129.813 57.6011ZM59.8378 35.6638C60.4636 34.5857 61.6287 33.8638 62.9622 33.8638H69.1533C70.6506 33.8638 71.936 34.7734 72.48 36.0729C75.0508 34.1814 78.1367 33.344 80.9386 33.344C84.3856 33.344 87.202 34.3018 89.3828 35.967C89.9557 34.7253 91.2074 33.8638 92.6661 33.8638H99.2135C100.557 33.8638 101.731 34.6002 102.352 35.6927C102.973 34.6002 104.148 33.8638 105.491 33.8638H112.039C112.352 33.8638 112.655 33.9023 112.944 33.9793C113.233 33.9023 113.541 33.8638 113.854 33.8638H120.401C122.394 33.8638 124.012 35.4809 124.012 37.4735V50.1363H128.643L133.606 36.2558C134.122 34.8216 135.479 33.8638 137.005 33.8638H143.403C144.934 33.8638 146.297 34.8264 146.807 36.2702L147.5 38.2339V37.4735C147.5 35.4809 149.118 33.8638 151.111 33.8638H163.58C169.285 33.8638 174.128 37.3291 174.128 43.7254C174.128 45.6987 173.589 47.6817 172.549 49.3132C173.348 50.6849 173.883 52.3791 174.056 54.3524C174.056 54.3524 174.056 54.3524 174.056 54.3572C174.114 55.0214 174.321 57.3316 174.349 57.6444C174.922 58.708 174.927 59.9931 174.349 61.0712C173.719 62.2407 172.501 62.9675 171.172 62.9675H164.625C163.026 62.9675 161.621 61.9183 161.163 60.3829C161.158 60.3589 161.149 60.3348 161.144 60.3107C160.725 61.8413 159.324 62.9627 157.663 62.9627H144.357C142.744 62.9627 141.329 61.8942 140.886 60.3444L140.741 59.8391H139.384L139.21 60.407C138.748 61.9279 137.347 62.9627 135.758 62.9627H113.849C112.583 62.9627 111.471 62.3129 110.825 61.3263C108.751 62.7028 105.963 63.4825 102.362 63.4825C98.761 63.4825 96.0457 62.722 93.9756 61.384C93.3257 62.337 92.2328 62.9627 90.9908 62.9627H86.8553C86.2921 62.9627 85.7529 62.8327 85.2763 62.6017C83.8272 63.2033 82.2433 63.4873 80.6064 63.4873C77.3905 63.4873 74.6175 62.5295 72.4222 60.8739C71.8493 62.1108 70.5976 62.9627 69.1437 62.9627H62.7745C61.4505 62.9627 60.2374 62.2407 59.6019 61.0808L59.4767 60.8546C58.9086 62.0963 57.6521 62.9627 56.1934 62.9627H50.0023C48.0092 62.9627 46.3916 61.3455 46.3916 59.353V37.4735C46.3916 35.4809 48.0092 33.8638 50.0023 33.8638H56.6989C57.9891 33.8638 59.1782 34.552 59.8233 35.6638H59.8378Z" fill="white"/>
<g id="Group_4">
<path id="Vector_19" d="M50.0119 37.4688H56.7085L62.8996 49.1738H62.9574V37.4688H69.1485V59.3483H62.7793L56.2608 47.3978H56.203V59.3483H50.0119V37.4688Z" fill="#333333"/>
<path id="Vector_20" d="M86.682 57.1103C85.2233 59.074 82.9895 59.8681 80.6402 59.8681C74.3576 59.8681 70.4917 54.8434 70.4917 48.6203C70.4917 40.2844 76.2062 36.9442 80.9675 36.9442C86.4124 36.9442 89.8065 39.9475 90.7597 45.1262H84.4771C84.2364 43.5331 82.9317 42.3972 81.3815 42.3972C76.885 42.3972 77.0343 47.2679 77.0343 48.7695C77.0343 50.8247 77.8671 54.4103 81.8245 54.4103C83.3409 54.4103 84.8911 53.6113 85.2185 51.9894H82.33V47.3016H91.0197V59.3435H86.8842L86.6772 57.1055L86.682 57.1103Z" fill="#333333"/>
<path id="Vector_21" d="M112.101 50.892C112.101 56.9899 108.977 59.8729 102.429 59.8729C95.882 59.8729 92.7239 56.9899 92.7239 50.892V37.4688H99.2713V49.3903C99.2713 51.5946 99.2424 54.415 102.458 54.415C105.674 54.415 105.554 51.5946 105.554 49.3903V37.4688H112.101V50.892Z" fill="#333333"/>
<path id="Vector_22" d="M113.945 37.4688H120.492V53.7412H129.9V59.3483H113.945V37.4688Z" fill="#333333"/>
<path id="Vector_23" d="M137.135 37.4688H143.533L151.275 59.3483H144.487L143.591 56.2199H136.832L135.879 59.3483H129.303L137.131 37.4688H137.135ZM142.287 51.5369L140.38 44.794H140.322L138.267 51.5369H142.287Z" fill="#333333"/>
<path id="Vector_24" d="M151.27 37.4688H163.744C167.436 37.4688 170.681 39.5816 170.681 43.7207C170.681 45.9876 169.67 48.3796 167.494 49.2074C169.28 49.9101 170.383 51.9364 170.618 54.6605C170.71 55.7049 170.71 58.4001 171.331 59.3483H164.784C164.456 58.2461 164.336 57.1102 164.249 55.9792C164.1 53.8952 163.893 51.7198 161.303 51.7198H157.822V59.3531H151.275V37.4736L151.27 37.4688ZM157.817 47.032H161.24C162.463 47.032 164.129 46.8154 164.129 44.8566C164.129 43.4753 163.383 42.6811 160.884 42.6811H157.817V47.032Z" fill="#333333"/>
</g>
</g>
</g>
</g>
</g>
<defs>
<linearGradient id="paint0_linear_215_13748" x1="11.6889" y1="46.7555" x2="87" y2="22.5" gradientUnits="userSpaceOnUse">
<stop stop-color="#F0070C"/>
<stop offset="0.53" stop-color="#CC26D5"/>
<stop offset="1" stop-color="#7702FF"/>
</linearGradient>
<clipPath id="clip0_215_13748">
<rect width="180" height="108" fill="white"/>
</clipPath>
</defs>
</svg>
