<svg width="180" height="108" viewBox="0 0 180 108" fill="none" xmlns="http://www.w3.org/2000/svg">
<g id="Angular-Workshop-BW">
<g id="Group">
<path id="Vector" d="M156.799 59.8611H25.1777C23.835 59.8611 22.7466 60.9496 22.7466 62.2923V85.8002C22.7466 87.1429 23.835 88.2314 25.1777 88.2314H156.799C158.142 88.2314 159.23 87.1429 159.23 85.8002V62.2923C159.23 60.9496 158.142 59.8611 156.799 59.8611Z" fill="black"/>
<g id="Group_2">
<path id="Vector_2" d="M30.3579 73.5671L42.0517 69.0369V72.041L34.2382 75.0691L42.0517 78.0973V81.1014L30.3579 76.5712V73.5671Z" fill="white"/>
<path id="Vector_3" d="M43.3419 68.4111H47.0874L48.2909 77.6304H48.3391L49.7496 68.4111H53.7695L55.0886 77.6304H55.1368L56.4559 68.4111H60.0617L57.3561 80.9137H53.1292L51.7668 71.6944H51.7187L50.2648 80.9137H45.9656L43.3563 68.4111H43.3419Z" fill="white"/>
<path id="Vector_4" d="M60.7406 74.6985C60.7406 70.953 61.5734 68.0885 65.8966 68.0885C70.4509 68.0885 71.0527 70.8856 71.0527 74.6311C71.0527 78.3765 70.2198 81.241 65.8966 81.241C61.3231 81.241 60.7406 78.4439 60.7406 74.7033V74.6985ZM65.9159 70.5389C64.8086 70.5389 64.4812 71.627 64.4812 74.6503C64.4812 77.6737 64.8038 78.7857 65.9159 78.7857C67.028 78.7857 67.3024 77.7459 67.3024 74.6744C67.3024 71.6029 67.0713 70.5389 65.9159 70.5389Z" fill="white"/>
<path id="Vector_5" d="M72.7136 68.4111H76.3194V70.1683H76.3676C76.8538 69.061 77.8022 68.0885 79.3717 68.0885H79.6509C79.7424 68.0885 79.8579 68.1126 79.9735 68.1366V71.651C79.6028 71.5836 79.3043 71.5596 78.9336 71.5596C77.4315 71.5596 76.4591 72.1613 76.4591 73.8223V80.9185H72.7136V68.4159V68.4111Z" fill="white"/>
<path id="Vector_6" d="M81.2637 64.4153H85.0091V72.898H85.0573L87.8544 68.4159H91.9657L88.3839 73.4564L92.4038 80.9185H88.3117L85.9768 76.2054L85.0043 77.5245V80.9233H81.2589V64.4201L81.2637 64.4153Z" fill="white"/>
<path id="Vector_7" d="M96.1204 76.9419C96.1445 77.4955 96.1878 77.9818 96.3756 78.3525C96.5826 78.6991 96.9052 78.9302 97.531 78.9302C98.4313 78.9302 98.8694 78.3765 98.8694 77.6592C98.8694 77.0815 98.6142 76.5279 97.4347 76.1331C94.3632 75.0932 92.8804 74.5155 92.8804 71.8581C92.8804 69.3643 94.6136 68.0885 97.6417 68.0885C101.132 68.0885 102.172 69.8216 102.172 71.6029V72.0169H98.8453V71.7858C98.8453 70.6978 98.4313 70.3993 97.6225 70.3993C96.6307 70.3993 96.3515 70.8856 96.3515 71.5548C96.3515 73.75 102.336 72.2961 102.336 77.1489C102.336 79.6668 100.67 81.241 97.5503 81.241C94.1995 81.241 92.789 79.9941 92.789 77.4955V76.9419H96.1156H96.1204Z" fill="white"/>
<path id="Vector_8" d="M103.953 64.4153H107.699V69.7783H107.747C108.373 68.5555 109.316 68.0934 110.611 68.0934C112.739 68.0934 113.871 69.1573 113.871 71.5596V80.9185H110.125V72.3925C110.125 71.4922 109.754 70.9578 109.037 70.9578C108.32 70.9578 107.699 71.5115 107.699 72.7391V80.9185H103.953V64.4153Z" fill="white"/>
<path id="Vector_9" d="M115.531 74.6985C115.531 70.953 116.364 68.0885 120.688 68.0885C125.242 68.0885 125.844 70.8856 125.844 74.6311C125.844 78.3765 125.011 81.241 120.688 81.241C116.114 81.241 115.531 78.4439 115.531 74.7033V74.6985ZM120.707 70.5389C119.599 70.5389 119.272 71.627 119.272 74.6503C119.272 77.6737 119.595 78.7857 120.707 78.7857C121.819 78.7857 122.093 77.7459 122.093 74.6744C122.093 71.6029 121.862 70.5389 120.707 70.5389Z" fill="white"/>
<path id="Vector_10" d="M127.504 68.4111H131.11V69.9372H131.159C131.39 69.1043 132.222 68.0885 133.864 68.0885C136.358 68.0885 137.725 69.889 137.725 74.5588C137.725 78.4391 137.147 81.2362 134.095 81.2362C133.079 81.2362 131.924 80.9136 131.298 79.5512H131.25V84.9817H127.504V68.4111ZM132.54 78.5113C133.903 78.5113 133.975 77.0334 133.975 74.7418C133.975 72.7294 133.907 70.8134 132.521 70.8134C131.414 70.8134 131.183 72.1517 131.183 74.5781C131.183 76.7975 131.274 78.5065 132.545 78.5065L132.54 78.5113Z" fill="white"/>
<path id="Vector_11" d="M151.234 76.5712L139.54 81.1014V78.0973L147.349 75.0691L139.54 72.041V69.0369L151.234 73.5671V76.5712Z" fill="white"/>
</g>
<path id="Vector_12" fill-rule="evenodd" clip-rule="evenodd" d="M161.469 41.5668L162.942 37.1714H29.9438V62.7013H151.465H154.402H167.607V41.5668H161.469Z" fill="black"/>
<path id="Vector_13" fill-rule="evenodd" clip-rule="evenodd" d="M30.2134 22.257C29.4046 21.9152 28.4899 21.9152 27.6811 22.2521C23.9308 23.8023 12.8677 28.3807 8.03421 30.3786C6.67178 30.9419 5.85336 32.338 6.02186 33.7967C6.69104 39.5979 8.34233 53.9636 8.89596 58.7971C9.0115 59.8177 9.59884 60.7228 10.4798 61.2475C14.0279 63.3658 23.3772 68.9455 27.2238 71.2419C28.2685 71.8629 29.5683 71.8629 30.6082 71.2371C34.4596 68.9214 43.8185 63.2936 47.3666 61.1609C48.2476 60.6313 48.8301 59.7214 48.9408 58.7056C49.48 53.8865 51.0735 39.6123 51.7187 33.8497C51.8823 32.3958 51.0687 31.0141 49.7207 30.446C44.9354 28.4385 33.9445 23.8264 30.2134 22.257Z" fill="black"/>
<g id="Clip path group">
<mask id="mask0_215_12010" style="mask-type:luminance" maskUnits="userSpaceOnUse" x="11" y="28" width="36" height="39">
<g id="clippath-1">
<path id="Vector_14" d="M12.3237 55.2924L11.0624 35.0388L24.523 28.7322L12.3237 55.2924ZM28.7114 38.8132L33.5353 50.6851H23.8827L28.7066 38.8132H28.7114ZM37.921 61.2283L28.7114 66.5432L19.5017 61.2283L21.3745 56.6355H36.0483L37.921 61.2283ZM46.3604 35.0388L45.0846 55.2924L32.9046 28.737L46.3652 35.0437L46.3604 35.0388Z" fill="white"/>
</g>
</mask>
<g mask="url(#mask0_215_12010)">
<g id="Group_3">
<path id="Vector_15" d="M46.3652 28.7369H11.0624V66.548H46.3652V28.7369Z" fill="white"/>
</g>
</g>
</g>
<path id="Vector_16" fill-rule="evenodd" clip-rule="evenodd" d="M112.263 37.2004H105.715V49.1253C105.715 51.3302 105.715 54.1513 102.62 54.1513C99.5241 54.1513 99.4326 51.3302 99.4326 49.1253V37.2004H92.8852V50.6273C92.8852 56.727 96.0386 59.6107 102.591 59.6107C109.143 59.6107 112.263 56.727 112.263 50.6273V37.2004ZM87.0793 59.0859H91.2147V47.0407H82.525V51.7298H85.4135C85.0862 53.3522 83.5408 54.1513 82.0195 54.1513C78.0622 54.1513 77.2293 50.5647 77.2293 48.5091C77.2293 47.007 77.0801 42.135 81.5766 42.135C83.122 42.135 84.4362 43.2712 84.6721 44.8647H90.9547C90.0015 39.6845 86.6075 36.6805 81.1626 36.6805C76.4013 36.6805 70.6868 40.0215 70.6868 48.3598C70.6868 54.5846 74.5574 59.6107 80.8352 59.6107C83.1845 59.6107 85.4183 58.8115 86.8771 56.8521L87.0841 59.0908L87.0793 59.0859ZM50.231 59.0859H56.4222V47.1322H56.4799L62.9984 59.0859H69.3677V37.2004H63.1765V48.9086H63.1188L56.9277 37.2004H50.231V59.0859ZM157.892 42.4094H160.959C163.457 42.4094 164.203 43.2086 164.203 44.5854C164.203 46.5497 162.538 46.7615 161.315 46.7615H157.892V42.4094ZM138.365 51.2676L140.421 44.5229H140.479L142.385 51.2676H138.365ZM151.373 59.0859H157.892V51.4506H161.373C163.963 51.4506 164.17 53.6266 164.319 55.7112C164.41 56.8473 164.526 57.9787 164.853 59.0811H171.401C170.775 58.1327 170.775 55.4319 170.688 54.3921C170.452 51.6624 169.35 49.6404 167.564 48.9375C169.735 48.1095 170.751 45.7168 170.751 43.4493C170.751 39.309 167.506 37.1956 163.813 37.1956H151.345V58.9993L151.373 59.0811V59.0859ZM130.032 59.0859H135.987L136.94 55.9615H143.7L144.59 59.0859H151.349V59.0041L143.642 37.2004H137.244L130.042 57.3384V59.0859H130.032ZM130.032 57.3384V53.4773H120.625V37.2004H114.078V59.0859H129.406L130.032 57.3384ZM60.0569 35.3951C60.6828 34.3167 61.8478 33.5945 63.1814 33.5945H69.3725C70.8697 33.5945 72.1551 34.5044 72.6991 35.8043C75.2699 33.9123 78.3558 33.0746 81.1577 33.0746C84.6047 33.0746 87.4211 34.0326 89.6019 35.6983C90.1748 34.4563 91.4265 33.5945 92.8852 33.5945H99.4326C100.776 33.5945 101.95 34.3311 102.571 35.4239C103.193 34.3311 104.367 33.5945 105.71 33.5945H112.258C112.571 33.5945 112.874 33.633 113.163 33.7101C113.452 33.633 113.76 33.5945 114.073 33.5945H120.62C122.613 33.5945 124.231 35.2121 124.231 37.2052V49.8715H128.862L133.826 35.9872C134.341 34.5526 135.698 33.5945 137.224 33.5945H143.623C145.153 33.5945 146.516 34.5574 147.026 36.0016L147.719 37.9659V37.2052C147.719 35.2121 149.337 33.5945 151.33 33.5945H163.799C169.504 33.5945 174.347 37.0608 174.347 43.4589C174.347 45.4327 173.808 47.4162 172.768 49.0482C173.567 50.4203 174.102 52.1149 174.275 54.0888C174.275 54.0888 174.275 54.0888 174.275 54.0936C174.333 54.7579 174.54 57.0688 174.568 57.3817C175.141 58.4456 175.146 59.7311 174.568 60.8094C173.938 61.9793 172.72 62.7063 171.391 62.7063H164.844C163.245 62.7063 161.84 61.6567 161.382 60.121C161.377 60.0969 161.368 60.0729 161.363 60.0488C160.944 61.5797 159.543 62.7014 157.882 62.7014H144.576C142.963 62.7014 141.548 61.6327 141.105 60.0825L140.96 59.577H139.603L139.429 60.1451C138.967 61.6664 137.566 62.7014 135.978 62.7014H114.068C112.802 62.7014 111.69 62.0515 111.045 61.0646C108.97 62.4415 106.182 63.2214 102.581 63.2214C98.9801 63.2214 96.2648 62.4607 94.1947 61.1224C93.5448 62.0756 92.452 62.7014 91.2099 62.7014H87.0744C86.5112 62.7014 85.972 62.5715 85.4954 62.3404C84.0463 62.9422 82.4624 63.2262 80.8256 63.2262C77.6096 63.2262 74.8366 62.2682 72.6413 60.6121C72.0684 61.8493 70.8167 62.7014 69.3628 62.7014H62.9936C61.6697 62.7014 60.4565 61.9793 59.821 60.8191L59.6958 60.5928C59.1278 61.8349 57.8712 62.7014 56.4125 62.7014H50.2214C48.2283 62.7014 46.6107 61.0839 46.6107 59.0908V37.2052C46.6107 35.2121 48.2283 33.5945 50.2214 33.5945H56.918C58.2082 33.5945 59.3974 34.283 60.0425 35.3951H60.0569Z" fill="#070707"/>
<g id="Group_4">
<path id="Vector_17" d="M50.2311 37.2003H56.9277L63.1188 48.9086H63.1766V37.2003H69.3677V59.0859H62.9984L56.48 47.1321H56.4222V59.0859H50.2311V37.2003Z" fill="white"/>
<path id="Vector_18" d="M86.9011 56.8472C85.4424 58.8114 83.2086 59.6058 80.8593 59.6058C74.5767 59.6058 70.7108 54.5797 70.7108 48.3549C70.7108 40.0166 76.4253 36.6755 81.1866 36.6755C86.6315 36.6755 90.0256 39.6796 90.9788 44.8598H84.6962C84.4555 43.2662 83.1508 42.1301 81.6007 42.1301C77.1042 42.1301 77.2534 47.0021 77.2534 48.5041C77.2534 50.5598 78.0863 54.1464 82.0436 54.1464C83.5601 54.1464 85.1102 53.3473 85.4376 51.7249H82.5491V47.0358H91.2388V59.081H87.1033L86.8963 56.8424L86.9011 56.8472Z" fill="white"/>
<path id="Vector_19" d="M112.32 50.6272C112.32 56.7269 109.196 59.6106 102.649 59.6106C96.1012 59.6106 92.943 56.7269 92.943 50.6272V37.2003H99.4904V49.1252C99.4904 51.3301 99.4615 54.1513 102.677 54.1513C105.893 54.1513 105.773 51.3301 105.773 49.1252V37.2003H112.32V50.6272Z" fill="white"/>
<path id="Vector_20" d="M114.164 37.2003H120.712V53.4773H130.119V59.0859H114.164V37.2003Z" fill="white"/>
<path id="Vector_21" d="M137.354 37.2003H143.753L151.494 59.0859H144.706L143.81 55.9566H137.051L136.098 59.0859H129.522L137.35 37.2003H137.354ZM142.506 51.2723L140.599 44.5276H140.541L138.486 51.2723H142.506Z" fill="white"/>
<path id="Vector_22" d="M151.489 37.2003H163.963C167.655 37.2003 170.9 39.3138 170.9 43.454C170.9 45.7215 169.889 48.1142 167.713 48.9423C169.499 49.6451 170.602 51.6719 170.837 54.3968C170.929 55.4415 170.929 58.1375 171.55 59.0859H165.003C164.675 57.9834 164.555 56.8472 164.468 55.7159C164.319 53.6313 164.112 51.4553 161.522 51.4553H158.041V59.0907H151.494V37.2051L151.489 37.2003ZM158.036 46.7662H161.459C162.682 46.7662 164.348 46.5496 164.348 44.5902C164.348 43.2085 163.602 42.4141 161.103 42.4141H158.036V46.7662Z" fill="white"/>
</g>
</g>
</g>
</svg>
