<svg width="180" height="108" viewBox="0 0 180 108" fill="none" xmlns="http://www.w3.org/2000/svg">
<g id="Azure-Workshop-BW">
<g id="Asset 4 1" clip-path="url(#clip0_303_19830)">
<g id="Clip path group">
<g id="Group">
<path id="Vector" d="M23.93 60.5699H155.43C156.77 60.5699 157.86 61.6599 157.86 62.9999V86.4899C157.86 87.8299 156.77 88.9199 155.43 88.9199H23.93C22.59 88.9199 21.5 87.8299 21.5 86.4899V62.9999C21.5 61.6599 22.59 60.5699 23.93 60.5699Z" fill="black"/>
<g id="Group_2">
<path id="Vector_2" d="M29.11 74.26L40.79 69.74V72.74L32.99 75.76L40.79 78.78V81.78L29.11 77.26V74.26Z" fill="white"/>
<path id="Vector_3" d="M42.08 69.11H45.82L47.02 78.32H47.07L48.48 69.11H52.5L53.82 78.32H53.87L55.19 69.11H58.79L56.09 81.6H51.87L50.51 72.39H50.46L49.01 81.6H44.72L42.11 69.11H42.08Z" fill="white"/>
<path id="Vector_4" d="M59.47 75.39C59.47 71.65 60.3 68.79 64.62 68.79C69.17 68.79 69.77 71.58 69.77 75.32C69.77 79.06 68.94 81.92 64.62 81.92C60.05 81.92 59.47 79.13 59.47 75.39ZM64.64 71.23C63.53 71.23 63.21 72.31 63.21 75.34C63.21 78.37 63.53 79.47 64.64 79.47C65.75 79.47 66.03 78.43 66.03 75.36C66.03 72.29 65.8 71.23 64.64 71.23Z" fill="white"/>
<path id="Vector_5" d="M71.42 69.11H75.02V70.86H75.07C75.55 69.75 76.5 68.78 78.07 68.78H78.35C78.44 68.78 78.56 68.8 78.67 68.83V72.34C78.3 72.27 78 72.25 77.63 72.25C76.13 72.25 75.16 72.85 75.16 74.51V81.6H71.42V69.11Z" fill="white"/>
<path id="Vector_6" d="M79.96 65.12H83.7V73.59H83.75L86.54 69.11H90.65L87.07 74.14L91.09 81.6H87L84.67 76.89L83.7 78.21V81.6H79.96V65.12Z" fill="white"/>
<path id="Vector_7" d="M94.8 77.6301C94.82 78.1801 94.87 78.6701 95.05 79.0401C95.26 79.3901 95.58 79.62 96.2 79.62C97.1 79.62 97.54 79.07 97.54 78.35C97.54 77.77 97.29 77.2201 96.11 76.8301C93.04 75.7901 91.56 75.2101 91.56 72.5601C91.56 70.0701 93.29 68.8 96.32 68.8C99.81 68.8 100.84 70.5301 100.84 72.3101V72.73H97.52V72.5C97.52 71.42 97.1 71.12 96.3 71.12C95.31 71.12 95.03 71.6001 95.03 72.2701C95.03 74.4601 101.01 73.0101 101.01 77.8601C101.01 80.3801 99.35 81.9501 96.23 81.9501C92.88 81.9501 91.47 80.7 91.47 78.21V77.66H94.79L94.8 77.6301Z" fill="white"/>
<path id="Vector_8" d="M102.63 65.12H106.37V70.48H106.42C107.04 69.26 107.99 68.79 109.28 68.79C111.4 68.79 112.53 69.85 112.53 72.25V81.6H108.79V73.08C108.79 72.18 108.42 71.65 107.71 71.65C107 71.65 106.37 72.2 106.37 73.43V81.6H102.63V65.12Z" fill="white"/>
<path id="Vector_9" d="M114.19 75.39C114.19 71.65 115.02 68.79 119.34 68.79C123.89 68.79 124.49 71.58 124.49 75.32C124.49 79.06 123.66 81.92 119.34 81.92C114.77 81.92 114.19 79.13 114.19 75.39ZM119.36 71.23C118.25 71.23 117.93 72.31 117.93 75.34C117.93 78.37 118.25 79.47 119.36 79.47C120.47 79.47 120.75 78.43 120.75 75.36C120.75 72.29 120.52 71.23 119.36 71.23Z" fill="white"/>
<path id="Vector_10" d="M126.15 69.11H129.75V70.63H129.8C130.03 69.8 130.86 68.78 132.5 68.78C134.99 68.78 136.36 70.58 136.36 75.24C136.36 79.12 135.78 81.91 132.74 81.91C131.72 81.91 130.57 81.59 129.95 80.23H129.9V85.66H126.16V69.11H126.15ZM131.18 79.2C132.54 79.2 132.61 77.72 132.61 75.44C132.61 73.43 132.54 71.52 131.16 71.52C130.05 71.52 129.82 72.86 129.82 75.28C129.82 77.5 129.91 79.2 131.18 79.2Z" fill="white"/>
<path id="Vector_11" d="M149.86 77.26L138.18 81.78V78.78L145.98 75.76L138.18 72.74V69.74L149.86 74.26V77.26Z" fill="white"/>
</g>
<path id="Vector_12" fill-rule="evenodd" clip-rule="evenodd" d="M152.45 63.12L161.74 27.41H25.91V63.12H152.45Z" fill="black"/>
<path id="Vector_13" d="M49.14 68.41H35.69C35.69 68.41 35.64 68.41 35.62 68.41H35.29C33.42 68.41 31.64 67.69 30.29 66.38L28.11 64.27C26.92 66.78 24.41 68.41 21.61 68.41H12.21C8.23 68.41 5 65.15 5 61.13C5 60.36 5.12 59.59 5.36 58.86L17.03 23.01C18 20.01 20.76 18 23.88 18H37.47C40.59 18 43.34 20.01 44.32 23.01L55.99 58.86C56.23 59.59 56.35 60.36 56.35 61.13C56.35 65.14 53.12 68.41 49.14 68.41Z" fill="black"/>
<path id="Vector_14" fill-rule="evenodd" clip-rule="evenodd" d="M111.19 27.41H101.66V44.76C101.66 47.97 101.66 52.07 97.16 52.07C92.66 52.07 92.53 47.97 92.53 44.76V27.41H83V46.94C83 55.81 87.59 60.01 97.12 60.01C106.65 60.01 111.19 55.82 111.19 46.94V27.41ZM79.4 47.48C79.4 47.3 79.4 47.12 79.4 46.94V42L74.6 47.48H79.41H79.4ZM123.36 34.99H127.82C131.46 34.99 132.54 36.15 132.54 38.16C132.54 41.01 130.12 41.33 128.34 41.33H123.36V35V34.99ZM113.83 59.25H123.36V48.15H128.43C132.2 48.15 132.5 51.32 132.72 54.35C132.85 56 133.02 57.65 133.5 59.26H143.03C142.12 57.88 142.12 53.95 141.99 52.44C141.64 48.47 140.04 45.53 137.44 44.5C140.6 43.3 142.07 39.82 142.07 36.52C142.07 30.5 137.35 27.42 131.98 27.42H113.84V59.26L113.83 59.25ZM54.21 59.25H81.84V51.09H66.64L81.15 34.54V27.41H55.04V35.57H68.59L54.21 51.5801V59.25ZM143.76 59.25H169.83V51.09H153.29V47.12H167.88V39.54H153.29V35.57H169.35V27.41H143.76V59.25ZM82.07 23.93C82.37 23.85 82.68 23.81 83 23.81H92.53C94.52 23.81 96.14 25.42 96.14 27.42V44.7701C96.14 45.5901 96.13 46.48 96.23 47.33C96.26 47.6 96.31 47.87 96.38 48.12C96.41 48.21 96.36 48.34 96.45 48.39C96.63 48.48 96.87 48.48 97.16 48.48C97.34 48.48 97.58 48.44 97.68 48.42C97.74 48.25 97.91 47.68 97.96 47.33C98.06 46.49 98.05 45.6001 98.05 44.7701V27.41C98.05 25.42 99.66 23.8 101.66 23.8H111.19C111.66 23.8 112.1 23.89 112.51 24.05C112.92 23.89 113.36 23.8 113.83 23.8H131.97C135.09 23.8 138.03 24.59 140.37 26.13C140.88 24.77 142.2 23.8 143.75 23.8H169.34C171.33 23.8 172.95 25.41 172.95 27.41V35.57C172.95 36.82 172.31 37.92 171.35 38.57C171.44 38.88 171.48 39.2 171.48 39.54V47.12C171.48 47.37 171.45 47.61 171.41 47.85C172.61 48.44 173.43 49.67 173.43 51.09V59.25C173.43 61.24 171.82 62.8601 169.82 62.8601H143.75C143.63 62.8601 143.5 62.86 143.38 62.84C143.26 62.85 143.14 62.8601 143.01 62.8601H133.48C131.88 62.8601 130.48 61.81 130.02 60.28C129.47 58.43 129.25 56.5301 129.1 54.6301C129.1 54.6301 129.1 54.61 129.1 54.6C129.05 53.85 129 53.08 128.85 52.39C128.81 52.21 128.72 51.93 128.66 51.78C128.58 51.78 128.48 51.76 128.4 51.76H126.94V59.26C126.94 61.25 125.33 62.87 123.33 62.87H113.8C111.86 62.87 110.28 61.34 110.2 59.41C110.18 59.43 110.17 59.44 110.15 59.46C107.27 62.13 102.98 63.6301 97.09 63.6301C91.97 63.6301 88.05 62.5001 85.21 60.4501C84.72 61.8601 83.38 62.87 81.8 62.87H54.17C52.18 62.87 50.56 61.26 50.56 59.26V51.59C50.56 50.7 50.89 49.84 51.48 49.18L60.45 39.19H54.98C52.99 39.19 51.37 37.58 51.37 35.58V27.42C51.37 25.43 52.98 23.81 54.98 23.81H81.09C81.41 23.81 81.72 23.85 82.02 23.93H82.07Z" fill="black"/>
<g id="Group_3">
<path id="Vector_15" d="M54.21 51.58L68.59 35.57H55.04V27.41H81.15V34.54L66.64 51.08H81.84V59.24H54.21V51.57V51.58Z" fill="white"/>
<path id="Vector_16" d="M111.19 46.94C111.19 55.81 106.64 60.01 97.12 60.01C87.6 60.01 83 55.82 83 46.94V27.41H92.53V44.76C92.53 47.97 92.49 52.07 97.16 52.07C101.83 52.07 101.66 47.97 101.66 44.76V27.41H111.19V46.94Z" fill="white"/>
<path id="Vector_17" d="M113.87 27.41H132.01C137.38 27.41 142.1 30.49 142.1 36.51C142.1 39.81 140.63 43.29 137.47 44.49C140.07 45.52 141.67 48.46 142.02 52.43C142.15 53.95 142.15 57.87 143.06 59.25H133.53C133.05 57.64 132.88 55.99 132.75 54.34C132.53 51.31 132.23 48.14 128.46 48.14H123.39V59.24H113.86V27.41H113.87ZM123.4 41.32H128.38C130.16 41.32 132.58 41.01 132.58 38.15C132.58 36.14 131.5 34.98 127.86 34.98H123.4V41.31V41.32Z" fill="white"/>
<path id="Vector_18" d="M143.8 27.41H169.39V35.57H153.33V39.54H167.92V47.12H153.33V51.09H169.87V59.25H143.8V27.41Z" fill="white"/>
</g>
<g id="Group_4">
<path id="Vector_19" d="M23.58 23.35H35.83L23.12 61.99C22.85 62.8 22.11 63.35 21.27 63.35H11.73C10.65 63.35 9.78 62.45 9.78 61.35C9.78 61.13 9.81 60.92 9.88 60.71L21.73 24.72C22 23.91 22.74 23.36 23.58 23.36V23.35Z" fill="#E2E2E2"/>
<path id="Vector_20" d="M41.37 49.27H21.95C21.45 49.27 21.05 49.68 21.05 50.19C21.05 50.45 21.15 50.69 21.34 50.87L33.82 62.82C34.18 63.17 34.66 63.36 35.16 63.36H46.16L41.38 49.28L41.37 49.27Z" fill="#D1D1D1"/>
<path id="Vector_21" d="M39.22 24.71C38.95 23.9 38.21 23.35 37.37 23.35H23.72C24.56 23.35 25.3 23.9 25.57 24.71L37.42 60.71C37.76 61.76 37.22 62.89 36.2 63.24C36 63.31 35.79 63.35 35.58 63.35H49.23C50.31 63.35 51.18 62.45 51.18 61.35C51.18 61.13 51.15 60.92 51.08 60.71L39.22 24.71Z" fill="url(#paint0_linear_303_19830)"/>
</g>
</g>
</g>
</g>
</g>
<defs>
<linearGradient id="paint0_linear_303_19830" x1="33.7612" y1="24.3456" x2="47.9884" y2="62.238" gradientUnits="userSpaceOnUse">
<stop stop-color="#D1D1D1"/>
<stop offset="1" stop-color="#969696"/>
</linearGradient>
<clipPath id="clip0_303_19830">
<rect width="169" height="71" fill="white" transform="translate(5 18)"/>
</clipPath>
</defs>
</svg>
