<svg width="180" height="108" viewBox="0 0 180 108" fill="none" xmlns="http://www.w3.org/2000/svg">
<g id="CA-Workshop-Dark-BG">
<g id="Isolation_Mode" clip-path="url(#clip0_219_19628)">
<path id="Vector" d="M156.57 64.5428H25.1794C23.8388 64.5428 22.752 65.635 22.752 66.9823V90.5654C22.752 91.9127 23.8388 93.0049 25.1794 93.0049H156.57C157.911 93.0049 158.998 91.9127 158.998 90.5654V66.9823C158.998 65.635 157.911 64.5428 156.57 64.5428Z" fill="white"/>
<g id="Group">
<path id="Vector_2" d="M30.3372 78.2909L42.0131 73.7452V76.7595L34.2115 79.798L42.0131 82.8365V85.8508L30.3372 81.3052V78.2909Z" fill="#333333"/>
<path id="Vector_3" d="M43.3061 73.1221H47.0459L48.2476 82.3727H48.2957L49.7041 73.1221H53.7178L55.0349 82.3727H55.083L56.4001 73.1221H60.0004L57.2989 85.6672H53.0785L51.7182 76.4166H51.6701L50.2184 85.6672H45.9259L43.3206 73.1221H43.3061Z" fill="#333333"/>
<path id="Vector_4" d="M60.6782 79.4308C60.6782 75.6726 61.5098 72.7983 65.8263 72.7983C70.3736 72.7983 70.9745 75.6049 70.9745 79.3632C70.9745 83.1214 70.1429 85.9956 65.8263 85.9956C61.2598 85.9956 60.6782 83.189 60.6782 79.4356V79.4308ZM65.8455 75.2571C64.74 75.2571 64.4131 76.3488 64.4131 79.3825C64.4131 82.4161 64.7352 83.532 65.8455 83.532C66.9559 83.532 67.2299 82.4886 67.2299 79.4066C67.2299 76.3247 66.9992 75.2571 65.8455 75.2571Z" fill="#333333"/>
<path id="Vector_5" d="M72.6281 73.122H76.2284V74.8852H76.2765C76.762 73.7741 77.7089 72.7983 79.276 72.7983H79.5548C79.6461 72.7983 79.7615 72.8225 79.8768 72.8466V76.373C79.5067 76.3054 79.2087 76.2812 78.8385 76.2812C77.3388 76.2812 76.3678 76.885 76.3678 78.5516V85.6719H72.6281V73.1268V73.122Z" fill="#333333"/>
<path id="Vector_6" d="M81.1651 69.1078H84.9048V77.6193H84.9529L87.7457 73.122H91.8507L88.2744 78.1797L92.2882 85.6672H88.2023L85.871 80.938L84.9 82.2616V85.672H81.1602V69.1126L81.1651 69.1078Z" fill="#333333"/>
<path id="Vector_7" d="M96.0039 81.6771C96.0279 82.2326 96.0712 82.7205 96.2586 83.0925C96.4653 83.4403 96.7874 83.6721 97.4123 83.6721C98.3112 83.6721 98.7486 83.1166 98.7486 82.3969C98.7486 81.8172 98.4938 81.2617 97.3161 80.8655C94.2494 79.8221 92.7688 79.2425 92.7688 76.576C92.7688 74.0737 94.4993 72.7936 97.5228 72.7936C101.008 72.7936 102.046 74.5326 102.046 76.3199V76.7354H98.7246V76.5035C98.7246 75.4118 98.3112 75.1123 97.5036 75.1123C96.5134 75.1123 96.2346 75.6002 96.2346 76.2716C96.2346 78.4744 102.21 77.0155 102.21 81.8848C102.21 84.4112 100.546 85.9908 97.4315 85.9908C94.0859 85.9908 92.6775 84.7397 92.6775 82.2326V81.6771H95.9991H96.0039Z" fill="#333333"/>
<path id="Vector_8" d="M103.825 69.1078H107.564V74.4891H107.612C108.237 73.2621 109.179 72.7984 110.473 72.7984C112.597 72.7984 113.727 73.866 113.727 76.2764V85.6672H109.987V77.1121C109.987 76.2088 109.617 75.6726 108.901 75.6726C108.184 75.6726 107.564 76.2281 107.564 77.4599V85.6672H103.825V69.1078Z" fill="#333333"/>
<path id="Vector_9" d="M115.385 79.4308C115.385 75.6726 116.217 72.7983 120.533 72.7983C125.081 72.7983 125.681 75.6049 125.681 79.3632C125.681 83.1214 124.85 85.9956 120.533 85.9956C115.967 85.9956 115.385 83.189 115.385 79.4356V79.4308ZM120.553 75.2571C119.447 75.2571 119.12 76.3488 119.12 79.3825C119.12 82.4161 119.442 83.532 120.553 83.532C121.663 83.532 121.937 82.4886 121.937 79.4066C121.937 76.3247 121.706 75.2571 120.553 75.2571Z" fill="#333333"/>
<path id="Vector_10" d="M127.335 73.122H130.935V74.6533H130.983C131.214 73.8176 132.046 72.7983 133.685 72.7983C136.175 72.7983 137.54 74.605 137.54 79.2907C137.54 83.1842 136.963 85.9908 133.916 85.9908C132.901 85.9908 131.748 85.6671 131.123 84.3001H131.075V89.749H127.335V73.122ZM132.363 83.2566C133.723 83.2566 133.795 81.7736 133.795 79.4743C133.795 77.4551 133.728 75.5325 132.344 75.5325C131.238 75.5325 131.008 76.8754 131.008 79.31C131.008 81.5369 131.099 83.2518 132.368 83.2518L132.363 83.2566Z" fill="#333333"/>
<path id="Vector_11" d="M151.033 81.3052L139.357 85.8508V82.8365L147.154 79.798L139.357 76.7595V73.7452L151.033 78.2909V81.3052Z" fill="#333333"/>
</g>
<path id="Vector_12" fill-rule="evenodd" clip-rule="evenodd" d="M171.395 23.6758L153.749 69.1078L29.9575 69.0981V24.1637L171.395 23.6758Z" fill="white"/>
<path id="Vector_13" fill-rule="evenodd" clip-rule="evenodd" d="M162.368 24.6902L162.252 67.021L38.4608 67.0065V23.6758L162.368 24.6902Z" fill="white"/>
<path id="Vector_14" d="M63.7758 48.7171C66.7582 32.8245 56.3559 17.5114 40.5415 14.5142C24.7271 11.517 9.48923 21.9708 6.50679 37.8633C3.52435 53.7558 13.9267 69.069 29.7411 72.0662C45.5555 75.0633 60.7933 64.6096 63.7758 48.7171Z" fill="white"/>
<path id="Vector_15" d="M58.7458 43.4088C58.7458 56.5626 48.137 67.2238 35.0479 67.2238C21.9588 67.2238 11.3452 56.5626 11.3452 43.4088C11.3452 30.255 21.9588 19.589 35.0479 19.589C48.137 19.589 58.7458 30.2502 58.7458 43.404" fill="#CB4340"/>
<path id="Vector_16" d="M35.0431 67.9774C21.5646 67.9774 10.5954 56.9539 10.5954 43.4089C10.5954 29.8638 21.5646 18.8403 35.0431 18.8403C48.5216 18.8403 59.4909 29.859 59.4909 43.4089C59.4909 56.9588 48.5264 67.9774 35.0431 67.9774ZM35.0431 20.3475C22.3914 20.3475 12.0951 30.6947 12.0951 43.4089C12.0951 56.1231 22.3914 66.4703 35.0431 66.4703C47.6948 66.4703 57.9911 56.1231 57.9911 43.4089C57.9911 30.6947 47.6996 20.3427 35.0431 20.3427" fill="#231F20"/>
<path id="Vector_17" d="M35.0575 66.4267C47.7237 66.4267 57.9911 56.1085 57.9911 43.3846H12.124C12.124 56.1133 22.3914 66.4267 35.0575 66.4267Z" fill="#803A3B"/>
<path id="Vector_18" d="M50.9683 43.4089C50.9683 52.2489 43.8397 59.4127 35.0479 59.4127C26.2562 59.4127 19.1276 52.2489 19.1276 43.4089C19.1276 34.5688 26.2562 27.405 35.0479 27.405C43.8397 27.405 50.9683 34.5688 50.9683 43.4089Z" fill="#666766"/>
<path id="Vector_19" d="M35.0431 60.1614C25.8524 60.1614 18.3729 52.645 18.3729 43.4088C18.3729 34.1727 25.8524 26.6562 35.0431 26.6562C44.2339 26.6562 51.7134 34.1727 51.7134 43.4088C51.7134 52.645 44.2339 60.1614 35.0431 60.1614ZM35.0431 28.1586C26.6792 28.1586 19.8726 34.9987 19.8726 43.404C19.8726 51.8093 26.6792 58.6543 35.0431 58.6543C43.4071 58.6543 50.2184 51.8141 50.2184 43.404C50.2184 34.9939 43.4119 28.1586 35.0431 28.1586Z" fill="#231F20"/>
<path id="Vector_20" d="M44.0272 43.4089C44.0272 48.3941 40.0086 52.4325 35.0479 52.4325C30.0872 52.4325 26.0687 48.3892 26.0687 43.4089C26.0687 38.4285 30.0872 34.3853 35.0479 34.3853C40.0086 34.3853 44.0272 38.4285 44.0272 43.4089Z" fill="#CBCACA"/>
<path id="Vector_21" d="M35.0431 53.186C29.6786 53.186 25.314 48.7997 25.314 43.4088C25.314 38.0178 29.6786 33.6316 35.0431 33.6316C40.4076 33.6316 44.7722 38.0178 44.7722 43.4088C44.7722 48.7997 40.4076 53.186 35.0431 53.186ZM35.0431 35.1339C30.5054 35.1339 26.8138 38.8438 26.8138 43.4088C26.8138 47.9737 30.5054 51.6788 35.0431 51.6788C39.5808 51.6788 43.2773 47.9689 43.2773 43.4088C43.2773 38.8487 39.5856 35.1339 35.0431 35.1339Z" fill="#231F20"/>
<path id="Vector_22" d="M19.1276 43.0756H11.7682V44.5586H19.1276V43.0756Z" fill="black"/>
<path id="Vector_23" d="M58.7458 43.0756H51.3865V44.5586H58.7458V43.0756Z" fill="black"/>
<path id="Vector_24" fill-rule="evenodd" clip-rule="evenodd" d="M85.2942 33.3901C84.6645 27.2069 81.1122 23.7047 74.5796 23.6709C67.278 23.6709 62.5673 28.8204 62.5673 36.5155C62.5673 43.7615 66.9127 49.3602 74.5796 49.3602C81.516 49.3602 85.3951 44.1045 85.3951 39.1627H78.2281C77.7618 41.4959 76.8341 43.2494 74.3778 43.2494C70.9601 43.2494 69.8641 39.8149 69.8641 36.5204C69.8641 33.2259 70.9601 29.7913 74.3778 29.7913C77.3965 29.7913 78.0262 32.5061 78.1944 33.395H85.2942V33.3901ZM86.7891 48.7757H104.575V42.491H94.0907V24.2554H86.7939V48.7757H86.7891ZM135.56 40.0178L137.848 32.4627H137.915L140.04 40.0178H135.56ZM150.057 48.7757H156.96V35.3852H157.027L164.295 48.7757H171.395V24.2554H164.492V37.3754H164.425L157.522 24.2554H150.057V48.7757ZM126.004 48.7757H132.906L133.969 45.2735H141.501L142.496 48.7757H150.062L141.434 24.2554H134.3L126.004 47.5632V48.7757ZM126.004 47.5632V42.491H113.328V39.4332H124.509V33.5979H113.328V30.5401H125.638V24.2554H106.031V48.7757H125.571L126.004 47.5632ZM76.0265 36.2885C75.3247 35.7571 74.82 34.9746 74.6469 34.0568C74.6229 33.9408 74.5893 33.7524 74.5075 33.5447C74.4883 33.4964 74.4691 33.4095 74.3729 33.4095C74.0365 33.4095 73.9403 33.7331 73.8346 34.0133C73.551 34.762 73.4644 35.6509 73.4644 36.5204C73.4644 37.3899 73.551 38.2787 73.8346 39.0275C73.9355 39.298 74.0269 39.6071 74.3345 39.6265C74.3778 39.5347 74.4306 39.4139 74.4643 39.3221C74.5556 39.0516 74.6229 38.7618 74.6854 38.4526C74.8632 37.5686 75.3487 36.8102 76.0217 36.2933L76.0265 36.2885ZM83.5348 22.6903C84.1165 21.473 85.3518 20.6325 86.7843 20.6325H94.0811C96.0712 20.6325 97.6863 22.2556 97.6863 24.2554V38.8681H102.421V24.2554C102.421 22.2556 104.036 20.6325 106.026 20.6325H125.633C127.623 20.6325 129.239 22.2556 129.239 24.2554V27.6997L130.897 23.0381C131.411 21.5986 132.767 20.6325 134.291 20.6325H141.424C142.953 20.6325 144.313 21.5986 144.822 23.0478L146.447 27.6562V24.2554C146.447 22.2556 148.062 20.6325 150.052 20.6325H157.517C158.854 20.6325 160.079 21.3764 160.704 22.5647L161.036 23.1975C161.488 21.7145 162.863 20.6373 164.483 20.6373H171.385C173.375 20.6373 174.99 22.2604 174.99 24.2603V48.7805C174.99 50.7804 173.375 52.4035 171.385 52.4035H164.285C162.964 52.4035 161.752 51.6789 161.123 50.5147L160.512 49.3843C160.224 51.0944 158.743 52.4035 156.955 52.4035H142.491C140.881 52.4035 139.468 51.3311 139.025 49.7756L138.775 48.9013H136.636L136.353 49.8384C135.891 51.3649 134.488 52.4035 132.906 52.4035H106.031C105.781 52.4035 105.536 52.3793 105.3 52.331C105.065 52.3793 104.82 52.4035 104.57 52.4035H86.7843C85.2942 52.4035 84.0155 51.4953 83.4627 50.1959C81.1699 51.9059 78.1896 52.988 74.5748 52.988C64.6823 52.988 58.9573 45.8725 58.9573 36.5204C58.9573 31.6366 60.5436 27.5982 63.197 24.7433C65.9225 21.8063 69.8112 20.0576 74.5748 20.0576H74.5941C78.3146 20.0769 81.2756 21.0382 83.5348 22.6951V22.6903Z" fill="white"/>
<g id="Group_2">
<path id="Vector_25" d="M78.1896 33.3853C78.0262 32.4916 77.3917 29.7817 74.373 29.7817C70.9553 29.7817 69.8593 33.2162 69.8593 36.5107C69.8593 39.8052 70.9553 43.2398 74.373 43.2398C76.8293 43.2398 77.757 41.4863 78.2233 39.1531H85.3903C85.3903 44.0996 81.5112 49.3505 74.5748 49.3505C66.9127 49.3505 62.5673 43.7518 62.5673 36.5059C62.5673 28.8155 67.278 23.6613 74.5748 23.6613C81.1122 23.6951 84.6597 27.1973 85.2894 33.3805H78.1896V33.3853Z" fill="#333333"/>
<path id="Vector_26" d="M86.8179 24.2506H94.1148V42.4862H104.599V48.7709H86.8179V24.2506Z" fill="#333333"/>
<path id="Vector_27" d="M106.093 24.2506H125.701V30.5353H113.395V33.593H124.576V39.4284H113.395V42.4862H126.066V48.7709H106.093V24.2506Z" fill="#333333"/>
<path id="Vector_28" d="M134.363 24.2506H141.496L150.12 48.7709H142.558L141.563 45.2686H134.031L132.969 48.7709H125.638L134.363 24.2506ZM140.102 40.0129L137.977 32.4578H137.91L135.622 40.0129H140.102Z" fill="#333333"/>
<path id="Vector_29" d="M150.153 24.2506H157.618L164.516 37.3706H164.584V24.2506H171.481V48.7709H164.382L157.118 35.3755H157.051V48.7709H150.148V24.2506H150.153Z" fill="#333333"/>
</g>
<path id="Vector_30" fill-rule="evenodd" clip-rule="evenodd" d="M76.0025 56.6206H77.4013C77.5263 56.6206 77.6464 56.6206 77.7618 56.6302C77.7762 56.6158 77.7906 56.5964 77.8051 56.5819H76.0073V56.6206H76.0025ZM75.7477 55.6883H77.2042C78.3915 55.6883 78.7472 56.0699 78.7472 56.7269C78.7472 57.664 77.9541 57.7654 77.3772 57.7654H75.7525V55.6883H75.7477ZM67.2636 59.9151H66.4753L66.8214 58.7702H67.1242C67.0905 58.6301 67.0617 58.4804 67.028 58.3306L66.9031 58.4997L67.4511 56.6979H67.4799L68.3836 59.9151H67.6049L67.7202 59.7653L67.701 59.7074C67.6529 59.7895 67.6145 59.8619 67.5808 59.9199H67.4126C67.3838 59.8136 67.3405 59.6542 67.2924 59.4562L67.1578 59.8329L67.2684 59.9151H67.2636ZM72.6521 63.6443H75.7477V60.002H77.4013C78.6318 60.002 78.728 61.0406 78.8001 62.0357C78.8433 62.5767 78.901 63.1178 79.0548 63.6443H82.1649C81.8669 63.1902 81.8669 61.9053 81.8236 61.4077C81.713 60.1083 81.1891 59.1422 80.3383 58.804C81.3718 58.4079 81.8524 57.2679 81.8524 56.1858C81.8524 54.2101 80.3094 53.2005 78.5597 53.2005H72.6377V63.6057L72.6521 63.6443ZM72.6377 63.6057L68.9748 53.2005H65.9369L62.2212 63.6443H65.3456L65.7975 62.1516H69.0037L69.4267 63.6443H72.6329V63.6057H72.6377ZM102.44 63.6443H105.55V53.2005H102.44V63.6443ZM92.4179 63.6443H95.528V59.5045H98.441V63.6443H101.551V53.2005H98.441V56.8283H95.528V53.2005H92.4179V63.6443ZM91.7834 57.0892C91.5143 54.4565 90.0049 52.9638 87.2169 52.9493C84.1069 52.9493 82.1024 55.1424 82.1024 58.4176C82.1024 61.5043 83.953 63.8858 87.2169 63.8858C90.1731 63.8858 91.8267 61.6493 91.8267 59.5431H88.7743C88.5773 60.5382 88.1783 61.2821 87.1352 61.2821C85.6787 61.2821 85.2124 59.8185 85.2124 58.4176C85.2124 57.0167 85.6787 55.553 87.1352 55.553C88.4234 55.553 88.6878 56.7075 88.7599 57.0892H91.7834ZM136.795 63.6443H139.905V55.8767H142.731V53.2005H133.969V55.8767H136.795V63.6443ZM133.8 57.0892C133.531 54.4565 132.017 52.9638 129.234 52.9493C126.124 52.9493 124.119 55.1424 124.119 58.4176C124.119 61.5043 125.97 63.8858 129.234 63.8858C132.19 63.8858 133.844 61.6493 133.844 59.5431H130.791C130.594 60.5382 130.2 61.2821 129.152 61.2821C127.696 61.2821 127.229 59.8185 127.229 58.4176C127.229 57.0167 127.696 55.553 129.152 55.553C130.436 55.553 130.705 56.7075 130.777 57.0892H133.8ZM152.326 53.2005H149.216V58.891C149.216 59.9441 149.216 61.2918 147.745 61.2918C146.274 61.2918 146.231 59.9441 146.231 58.891V53.2005H143.121V59.6059C143.121 62.5188 144.621 63.8907 147.726 63.8907C150.831 63.8907 152.321 62.5139 152.321 59.6059V53.2005H152.326ZM162.954 63.6443H171.462V60.9681H166.064V59.6687H170.828V57.1809H166.064V55.8815H171.308V53.2053H162.954V63.6491V63.6443ZM156.551 56.6206H157.95C158.075 56.6206 158.195 56.6206 158.311 56.6302C158.325 56.6158 158.339 56.5964 158.354 56.5819H156.556V56.6206H156.551ZM156.296 55.6883H157.753C158.94 55.6883 159.291 56.0699 159.291 56.7269C159.291 57.664 158.498 57.7654 157.921 57.7654H156.296V55.6883ZM153.186 63.6443H156.296V60.002H157.95C159.181 60.002 159.277 61.0406 159.349 62.0357C159.392 62.5767 159.45 63.1178 159.604 63.6443H162.714C162.416 63.1902 162.416 61.9053 162.372 61.4077C162.262 60.1083 161.738 59.1422 160.887 58.804C161.921 58.4079 162.401 57.2679 162.401 56.1858C162.401 54.2101 160.863 53.2005 159.108 53.2005H153.186V63.6443ZM115.169 63.6443H123.677V60.9681H118.279V59.6687H123.043V57.1809H118.279V55.8815H123.523V53.2053H115.169V63.6491V63.6443ZM108.795 63.6443H111.905V55.8767H114.731V53.2005H105.969V55.8767H108.795V63.6443ZM70.8014 50.3649C71.3302 50.022 71.9551 49.8191 72.6329 49.8191H78.5549C80.0258 49.8191 81.3958 50.191 82.5062 50.906C83.804 50.0558 85.3903 49.5679 87.2169 49.5679C87.2217 49.5679 87.2265 49.5679 87.2361 49.5679C88.5917 49.5727 89.7597 49.8239 90.75 50.2587C91.2403 49.9785 91.8123 49.8142 92.4179 49.8142H95.528C96.0519 49.8142 96.5422 49.935 96.9845 50.1475C97.4267 49.935 97.917 49.8142 98.441 49.8142H101.551C101.7 49.8142 101.849 49.8239 101.998 49.8432C102.142 49.8239 102.291 49.8142 102.445 49.8142H105.555C105.627 49.8142 105.695 49.8142 105.767 49.8191C105.839 49.8191 105.906 49.8142 105.978 49.8142H114.741C114.813 49.8142 114.885 49.8142 114.957 49.8191C115.029 49.8191 115.102 49.8142 115.178 49.8142H123.533C124.235 49.8142 124.884 50.0316 125.422 50.3987C126.532 49.8625 127.811 49.5679 129.239 49.5679C129.243 49.5679 129.248 49.5679 129.258 49.5679C130.498 49.5727 131.575 49.7852 132.512 50.1524C132.954 49.9398 133.449 49.8191 133.973 49.8191H142.736C142.804 49.8191 142.866 49.8191 142.933 49.8239C143.001 49.8239 143.063 49.8191 143.13 49.8191H146.24C146.774 49.8191 147.284 49.9447 147.731 50.1669C148.178 49.9447 148.687 49.8191 149.221 49.8191H152.331C152.475 49.8191 152.619 49.8287 152.763 49.848C152.903 49.8287 153.047 49.8191 153.196 49.8191H159.118C159.945 49.8191 160.738 49.935 161.473 50.1669C161.921 49.9447 162.425 49.8191 162.964 49.8191H171.318C173.178 49.8191 174.683 51.3311 174.683 53.2005V55.8767C174.683 56.5143 174.505 57.1085 174.202 57.6205V58.9876C174.601 59.5431 174.837 60.2291 174.837 60.9681V63.6443C174.837 65.5138 173.332 67.0257 171.472 67.0257H162.964C162.925 67.0257 162.882 67.0257 162.843 67.0257C162.805 67.0257 162.762 67.0257 162.723 67.0257H159.613C159.017 67.0257 158.455 66.8712 157.96 66.591C157.469 66.8663 156.907 67.0257 156.306 67.0257H153.196C152.59 67.0257 152.018 66.8663 151.528 66.5813C150.49 67.0209 149.24 67.2721 147.74 67.2721C145.481 67.2721 143.775 66.6973 142.525 65.7698C141.909 66.533 140.967 67.0209 139.91 67.0209H136.8C135.723 67.0209 134.762 66.5089 134.146 65.7166C132.882 66.6683 131.238 67.2673 129.239 67.2673C127.821 67.2673 126.552 66.9968 125.46 66.5089C124.946 66.8325 124.336 67.0161 123.682 67.0161H115.174C114.582 67.0161 114.025 66.8615 113.539 66.591C113.054 66.8615 112.501 67.0161 111.905 67.0161H108.795C108.204 67.0161 107.651 66.8615 107.17 66.5958C106.69 66.8615 106.137 67.0161 105.546 67.0161H102.435C102.286 67.0161 102.137 67.0064 101.988 66.9871C101.844 67.0064 101.695 67.0161 101.541 67.0161H98.4313C97.9074 67.0161 97.4171 66.8953 96.9749 66.6828C96.5326 66.8953 96.0423 67.0161 95.5184 67.0161H92.4083C91.7834 67.0161 91.2018 66.847 90.7019 66.5475C89.6973 67.0016 88.5292 67.2624 87.2073 67.2624C85.8854 67.2624 84.7414 67.0354 83.7127 66.6248C83.2368 66.876 82.7033 67.0112 82.1457 67.0112H79.0356C78.4396 67.0112 77.8772 66.8567 77.3821 66.5765C76.8918 66.8518 76.3293 67.0112 75.7285 67.0112H69.4123C68.6528 67.0112 67.9414 66.7552 67.3693 66.3156C66.7973 66.7552 66.0859 67.0112 65.3264 67.0112H62.2019C61.106 67.0112 60.0821 66.4751 59.4524 65.5766C58.8227 64.6781 58.6641 63.5284 59.0342 62.4898L62.7499 52.046C63.2306 50.7031 64.4948 49.8046 65.9177 49.8046H68.9556C69.619 49.8046 70.2535 50.0026 70.787 50.3504L70.8014 50.3649Z" fill="white"/>
<g id="Group_3">
<path id="Vector_31" d="M65.9369 53.2004H68.9748L72.6521 63.6394H69.4315L69.0085 62.1468H65.8023L65.3504 63.6394H62.226L65.9417 53.2004H65.9369ZM68.3836 59.915L67.4799 56.6978H67.4511L66.4753 59.915H68.3836Z" fill="#333333"/>
<path id="Vector_32" d="M72.6473 53.2004H78.5693C80.3239 53.2004 81.8621 54.21 81.8621 56.1858C81.8621 57.2678 81.3814 58.4078 80.3479 58.804C81.1939 59.1421 81.7178 60.1034 81.8332 61.4077C81.8765 61.9052 81.8765 63.1902 82.1745 63.6442H79.0645C78.9106 63.1177 78.853 62.5767 78.8097 62.0356C78.7376 61.0405 78.6414 60.002 77.4109 60.002H75.7573V63.6442H72.6473V53.2053V53.2004ZM75.7573 57.7654H77.382C77.9637 57.7654 78.752 57.6639 78.752 56.7268C78.752 56.0698 78.4011 55.6882 77.209 55.6882H75.7525V57.7654H75.7573Z" fill="#333333"/>
<path id="Vector_33" d="M88.7888 57.0939C88.7167 56.7123 88.4475 55.5578 87.164 55.5578C85.7076 55.5578 85.2413 57.0215 85.2413 58.4224C85.2413 59.8232 85.7076 61.2869 87.164 61.2869C88.2119 61.2869 88.6061 60.543 88.8032 59.5479H91.8555C91.8555 61.6541 90.202 63.8906 87.2458 63.8906C83.9819 63.8906 82.1312 61.5091 82.1312 58.4224C82.1312 55.1472 84.1405 52.9541 87.2458 52.9541C90.0289 52.9686 91.5431 54.4613 91.8123 57.0939H88.7888Z" fill="#333333"/>
<path id="Vector_34" d="M92.4612 53.2004H95.5713V56.8282H98.4842V53.2004H101.594V63.6394H98.4842V59.4996H95.5713V63.6394H92.4612V53.2004Z" fill="#333333"/>
<path id="Vector_35" d="M102.498 53.2004H105.608V63.6394H102.498V53.2004Z" fill="#333333"/>
<path id="Vector_36" d="M108.872 55.8766H106.045V53.2004H114.808V55.8766H111.982V63.6394H108.872V55.8766Z" fill="#333333"/>
<path id="Vector_37" d="M115.26 53.2004H123.615V55.8766H118.37V57.176H123.134V59.6638H118.37V60.9633H123.768V63.6394H115.26V53.2004Z" fill="#333333"/>
<path id="Vector_38" d="M130.873 57.0939C130.801 56.7123 130.532 55.5578 129.248 55.5578C127.792 55.5578 127.325 57.0215 127.325 58.4224C127.325 59.8232 127.792 61.2869 129.248 61.2869C130.296 61.2869 130.69 60.543 130.887 59.5479H133.94C133.94 61.6541 132.286 63.8906 129.335 63.8906C126.071 63.8906 124.22 61.5091 124.22 58.4224C124.22 55.1472 126.229 52.9541 129.335 52.9541C132.118 52.9686 133.632 54.4613 133.901 57.0939H130.878H130.873Z" fill="#333333"/>
<path id="Vector_39" d="M136.91 55.8766H134.084V53.2004H142.847V55.8766H140.02V63.6394H136.91V55.8766Z" fill="#333333"/>
<path id="Vector_40" d="M152.441 59.6058C152.441 62.5139 150.956 63.8906 147.846 63.8906C144.736 63.8906 143.241 62.5139 143.241 59.6058V53.2004H146.351V58.8909C146.351 59.944 146.337 61.2869 147.865 61.2869C149.394 61.2869 149.336 59.9392 149.336 58.8909V53.2004H152.446V59.6058H152.441Z" fill="#333333"/>
<path id="Vector_41" d="M153.316 53.2004H159.238C160.993 53.2004 162.531 54.21 162.531 56.1858C162.531 57.2678 162.05 58.4078 161.017 58.804C161.863 59.1421 162.387 60.1034 162.502 61.4077C162.545 61.9052 162.545 63.1902 162.843 63.6442H159.733C159.58 63.1177 159.522 62.5767 159.479 62.0356C159.407 61.0405 159.31 60.002 158.08 60.002H156.426V63.6442H153.316V53.2053V53.2004ZM156.426 57.7654H158.051C158.633 57.7654 159.421 57.6639 159.421 56.7268C159.421 56.0698 159.07 55.6882 157.883 55.6882H156.426V57.7654Z" fill="#333333"/>
<path id="Vector_42" d="M163.079 53.2004H171.433V55.8766H166.189V57.176H170.953V59.6638H166.189V60.9633H171.587V63.6394H163.079V53.2004Z" fill="#333333"/>
</g>
</g>
</g>
<defs>
<clipPath id="clip0_219_19628">
<rect width="169" height="79" fill="white" transform="translate(6 14)"/>
</clipPath>
</defs>
</svg>
