<svg width="180" height="108" viewBox="0 0 180 108" fill="none" xmlns="http://www.w3.org/2000/svg">
<g id="CA-Workshop-Light-BG">
<g id="Isolation_Mode" clip-path="url(#clip0_219_19661)">
<path id="Vector" d="M156.57 66.2943H25.1794C23.8388 66.2943 22.752 67.3811 22.752 68.7218V92.1889C22.752 93.5296 23.8388 94.6164 25.1794 94.6164H156.57C157.911 94.6164 158.998 93.5296 158.998 92.1889V68.7218C158.998 67.3811 157.911 66.2943 156.57 66.2943Z" fill="black"/>
<g id="Group">
<path id="Vector_2" d="M30.3372 79.9747L42.0131 75.4514V78.4509L34.2115 81.4744L42.0131 84.4979V87.4974L30.3372 82.9742V79.9747Z" fill="white"/>
<path id="Vector_3" d="M43.3061 74.8313H47.0459L48.2476 84.0365H48.2957L49.7041 74.8313H53.7178L55.0349 84.0365H55.083L56.4 74.8313H60.0004L57.2989 87.3147H53.0785L51.7181 78.1096H51.6701L50.2184 87.3147H45.9259L43.3205 74.8313H43.3061Z" fill="white"/>
<path id="Vector_4" d="M60.6782 81.1091C60.6782 77.3694 61.5098 74.5093 65.8263 74.5093C70.3736 74.5093 70.9745 77.3021 70.9745 81.0418C70.9745 84.7816 70.1429 87.6416 65.8263 87.6416C61.2598 87.6416 60.6782 84.8489 60.6782 81.1139V81.1091ZM65.8455 76.956C64.74 76.956 64.4131 78.0423 64.4131 81.061C64.4131 84.0798 64.7352 85.1901 65.8455 85.1901C66.9559 85.1901 67.2299 84.1519 67.2299 81.0851C67.2299 78.0183 66.9992 76.956 65.8455 76.956Z" fill="white"/>
<path id="Vector_5" d="M72.6281 74.8313H76.2284V76.5858H76.2765C76.762 75.4803 77.7089 74.5093 79.276 74.5093H79.5548C79.6461 74.5093 79.7615 74.5333 79.8768 74.5573V78.0664C79.5067 77.9991 79.2087 77.975 78.8385 77.975C77.3388 77.975 76.3678 78.5759 76.3678 80.2343V87.3196H72.6281V74.8361V74.8313Z" fill="white"/>
<path id="Vector_6" d="M81.1651 70.8368H84.9048V79.3065H84.9529L87.7457 74.8313H91.8507L88.2744 79.8641L92.2882 87.3147H88.2023L85.871 82.6088L84.9 83.9259V87.3196H81.1602V70.8416L81.1651 70.8368Z" fill="white"/>
<path id="Vector_7" d="M96.0039 83.3442C96.0279 83.897 96.0712 84.3825 96.2586 84.7526C96.4653 85.0987 96.7874 85.3295 97.4123 85.3295C98.3112 85.3295 98.7486 84.7767 98.7486 84.0605C98.7486 83.4836 98.4938 82.9308 97.3161 82.5367C94.2494 81.4984 92.7688 80.9216 92.7688 78.2682C92.7688 75.7782 94.4993 74.5044 97.5228 74.5044C101.008 74.5044 102.046 76.2349 102.046 78.0134V78.4268H98.7246V78.1961C98.7246 77.1097 98.3112 76.8117 97.5036 76.8117C96.5134 76.8117 96.2346 77.2972 96.2346 77.9653C96.2346 80.1573 102.21 78.7056 102.21 83.5509C102.21 86.0649 100.546 87.6368 97.4315 87.6368C94.0859 87.6368 92.6775 86.3918 92.6775 83.897V83.3442H95.9991H96.0039Z" fill="white"/>
<path id="Vector_8" d="M103.825 70.8368H107.564V76.1916H107.612C108.237 74.9707 109.18 74.5092 110.473 74.5092C112.597 74.5092 113.727 75.5716 113.727 77.9702V87.3147H109.987V78.8018C109.987 77.9029 109.617 77.3693 108.901 77.3693C108.184 77.3693 107.564 77.9221 107.564 79.1479V87.3147H103.825V70.8368Z" fill="white"/>
<path id="Vector_9" d="M115.385 81.1091C115.385 77.3694 116.217 74.5093 120.533 74.5093C125.081 74.5093 125.681 77.3021 125.681 81.0418C125.681 84.7816 124.85 87.6416 120.533 87.6416C115.967 87.6416 115.385 84.8489 115.385 81.1139V81.1091ZM120.553 76.956C119.447 76.956 119.12 78.0423 119.12 81.061C119.12 84.0798 119.442 85.1901 120.553 85.1901C121.663 85.1901 121.937 84.1519 121.937 81.0851C121.937 78.0183 121.706 76.956 120.553 76.956Z" fill="white"/>
<path id="Vector_10" d="M127.335 74.8313H130.935V76.3551H130.983C131.214 75.5235 132.046 74.5093 133.685 74.5093C136.175 74.5093 137.54 76.307 137.54 80.9697C137.54 84.8441 136.963 87.6368 133.916 87.6368C132.901 87.6368 131.748 87.3148 131.123 85.9544H131.075V91.3766H127.335V74.8313ZM132.363 84.9162C133.723 84.9162 133.795 83.4404 133.795 81.1524C133.795 79.1431 133.728 77.23 132.344 77.23C131.238 77.23 131.008 78.5663 131.008 80.9889C131.008 83.2049 131.099 84.9113 132.368 84.9113L132.363 84.9162Z" fill="white"/>
<path id="Vector_11" d="M151.033 82.9742L139.357 87.4974V84.4979L147.154 81.4744L139.357 78.4509V75.4514L151.033 79.9747V82.9742Z" fill="white"/>
</g>
<path id="Vector_12" fill-rule="evenodd" clip-rule="evenodd" d="M171.395 25.6282L153.749 70.8368L29.9575 70.8272V26.1137L171.395 25.6282Z" fill="black"/>
<path id="Vector_13" fill-rule="evenodd" clip-rule="evenodd" d="M162.368 26.6376L162.252 68.7602L38.4608 68.7458V25.6282L162.368 26.6376Z" fill="black"/>
<path id="Vector_14" d="M63.7758 50.5464C66.7582 34.732 56.3559 19.4941 40.5415 16.5117C24.7271 13.5293 9.48923 23.9316 6.50679 39.746C3.52435 55.5604 13.9267 70.7982 29.7411 73.7807C45.5555 76.7631 60.7933 66.3608 63.7758 50.5464Z" fill="black"/>
<path id="Vector_15" d="M58.7458 45.2642C58.7458 58.3533 48.137 68.9621 35.0479 68.9621C21.9588 68.9621 11.3452 58.3533 11.3452 45.2642C11.3452 32.1751 21.9588 21.5615 35.0479 21.5615C48.137 21.5615 58.7458 32.1703 58.7458 45.2594" fill="#CB4340"/>
<path id="Vector_16" d="M35.0431 69.712C21.5646 69.712 10.5954 58.7427 10.5954 45.2643C10.5954 31.7858 21.5646 20.8165 35.0431 20.8165C48.5216 20.8165 59.4909 31.781 59.4909 45.2643C59.4909 58.7476 48.5264 69.712 35.0431 69.712ZM35.0431 22.3163C22.3914 22.3163 12.0951 32.6126 12.0951 45.2643C12.0951 57.916 22.3914 68.2123 35.0431 68.2123C47.6948 68.2123 57.9911 57.916 57.9911 45.2643C57.9911 32.6126 47.6996 22.3115 35.0431 22.3115" fill="#231F20"/>
<path id="Vector_17" d="M35.0575 68.169C47.7237 68.169 57.9911 57.9015 57.9911 45.2402H12.124C12.124 57.9063 22.3914 68.169 35.0575 68.169Z" fill="#803A3B"/>
<path id="Vector_18" d="M50.9683 45.2643C50.9683 54.0609 43.8397 61.1894 35.0479 61.1894C26.2562 61.1894 19.1276 54.0609 19.1276 45.2643C19.1276 36.4677 26.2562 29.3391 35.0479 29.3391C43.8397 29.3391 50.9683 36.4677 50.9683 45.2643Z" fill="#666766"/>
<path id="Vector_19" d="M35.0431 61.9345C25.8524 61.9345 18.3729 54.455 18.3729 45.2642C18.3729 36.0735 25.8524 28.594 35.0431 28.594C44.2339 28.594 51.7134 36.0735 51.7134 45.2642C51.7134 54.455 44.2339 61.9345 35.0431 61.9345ZM35.0431 30.0889C26.6792 30.0889 19.8726 36.8955 19.8726 45.2594C19.8726 53.6234 26.6792 60.4347 35.0431 60.4347C43.4071 60.4347 50.2184 53.6282 50.2184 45.2594C50.2184 36.8907 43.4119 30.0889 35.0431 30.0889Z" fill="#231F20"/>
<path id="Vector_20" d="M44.0272 45.2643C44.0272 50.225 40.0086 54.2435 35.0479 54.2435C30.0872 54.2435 26.0687 50.2202 26.0687 45.2643C26.0687 40.3084 30.0872 36.285 35.0479 36.285C40.0086 36.285 44.0272 40.3084 44.0272 45.2643Z" fill="#CBCACA"/>
<path id="Vector_21" d="M35.0431 54.9934C29.6787 54.9934 25.314 50.6287 25.314 45.2643C25.314 39.8998 29.6787 35.5352 35.0431 35.5352C40.4076 35.5352 44.7722 39.8998 44.7722 45.2643C44.7722 50.6287 40.4076 54.9934 35.0431 54.9934ZM35.0431 37.0301C30.5054 37.0301 26.8138 40.7218 26.8138 45.2643C26.8138 49.8068 30.5054 53.4936 35.0431 53.4936C39.5808 53.4936 43.2773 49.802 43.2773 45.2643C43.2773 40.7266 39.5856 37.0301 35.0431 37.0301Z" fill="#231F20"/>
<path id="Vector_22" d="M19.1276 44.9326H11.7682V46.4083H19.1276V44.9326Z" fill="black"/>
<path id="Vector_23" d="M58.7458 44.9326H51.3865V46.4083H58.7458V44.9326Z" fill="black"/>
<path id="Vector_24" fill-rule="evenodd" clip-rule="evenodd" d="M85.2942 35.2948C84.6645 29.142 81.1122 25.657 74.5796 25.6234C67.278 25.6234 62.5673 30.7475 62.5673 38.4048C62.5673 45.6152 66.9127 51.1863 74.5796 51.1863C81.516 51.1863 85.3951 45.9564 85.3951 41.039H78.2281C77.7618 43.3607 76.8341 45.1056 74.3778 45.1056C70.9601 45.1056 69.8641 41.6879 69.8641 38.4096C69.8641 35.1314 70.9601 31.7137 74.3778 31.7137C77.3965 31.7137 78.0262 34.4151 78.1944 35.2996H85.2942V35.2948ZM86.7891 50.6047H104.575V44.3509H94.0907V26.205H86.7939V50.6047H86.7891ZM135.56 41.8898L137.848 34.3719H137.915L140.04 41.8898H135.56ZM150.057 50.6047H156.96V37.28H157.027L164.295 50.6047H171.395V26.205H164.492V39.2605H164.425L157.522 26.205H150.057V50.6047ZM126.004 50.6047H132.906L133.969 47.1197H141.501L142.496 50.6047H150.062L141.434 26.205H134.3L126.004 49.3982V50.6047ZM126.004 49.3982V44.3509H113.328V41.3082H124.509V35.5015H113.328V32.4587H125.638V26.205H106.031V50.6047H125.571L126.004 49.3982ZM76.0265 38.1789C75.3247 37.6502 74.82 36.8715 74.6469 35.9581C74.6229 35.8428 74.5893 35.6553 74.5075 35.4486C74.4883 35.4005 74.4691 35.314 74.3729 35.314C74.0365 35.314 73.9403 35.6361 73.8346 35.9149C73.551 36.6599 73.4644 37.5444 73.4644 38.4096C73.4644 39.2749 73.551 40.1594 73.8346 40.9044C73.9355 41.1736 74.0269 41.4812 74.3345 41.5005C74.3778 41.4091 74.4306 41.289 74.4643 41.1976C74.5556 40.9285 74.6229 40.64 74.6854 40.3324C74.8632 39.4527 75.3487 38.6981 76.0217 38.1837L76.0265 38.1789ZM83.5348 24.6476C84.1165 23.4362 85.3518 22.5998 86.7843 22.5998H94.0811C96.0712 22.5998 97.6863 24.215 97.6863 26.205V40.7458H102.421V26.205C102.421 24.215 104.036 22.5998 106.026 22.5998H125.633C127.623 22.5998 129.239 24.215 129.239 26.205V29.6323L130.897 24.9937C131.411 23.5612 132.767 22.5998 134.291 22.5998H141.424C142.953 22.5998 144.313 23.5612 144.822 25.0033L146.447 29.589V26.205C146.447 24.215 148.062 22.5998 150.052 22.5998H157.517C158.854 22.5998 160.079 23.3401 160.704 24.5226L161.036 25.1523C161.488 23.6766 162.863 22.6047 164.483 22.6047H171.385C173.375 22.6047 174.99 24.2198 174.99 26.2098V50.6095C174.99 52.5995 173.375 54.2146 171.385 54.2146H164.285C162.964 54.2146 161.752 53.4936 161.123 52.3352L160.512 51.2103C160.224 52.912 158.743 54.2146 156.955 54.2146H142.491C140.881 54.2146 139.468 53.1475 139.025 51.5997L138.775 50.7297H136.636L136.353 51.6622C135.891 53.1812 134.488 54.2146 132.906 54.2146H106.031C105.781 54.2146 105.536 54.1906 105.3 54.1425C105.065 54.1906 104.82 54.2146 104.57 54.2146H86.7843C85.2942 54.2146 84.0155 53.311 83.4627 52.0179C81.1699 53.7195 78.1896 54.7963 74.5748 54.7963C64.6823 54.7963 58.9573 47.7158 58.9573 38.4096C58.9573 33.5499 60.5436 29.5314 63.197 26.6905C65.9225 23.7679 69.8112 22.0278 74.5748 22.0278H74.5941C78.3146 22.0471 81.2756 23.0036 83.5348 24.6524V24.6476Z" fill="black"/>
<g id="Group_2">
<path id="Vector_25" d="M78.1896 35.29C78.0262 34.4007 77.3917 31.7041 74.3729 31.7041C70.9553 31.7041 69.8593 35.1218 69.8593 38.4C69.8593 41.6783 70.9553 45.096 74.3729 45.096C76.8293 45.096 77.757 43.3511 78.2232 41.0294H85.3903C85.3903 45.9516 81.5111 51.1767 74.5748 51.1767C66.9127 51.1767 62.5673 45.6055 62.5673 38.3952C62.5673 30.7427 67.278 25.6138 74.5748 25.6138C81.1122 25.6474 84.6596 29.1324 85.2893 35.2852H78.1896V35.29Z" fill="white"/>
<path id="Vector_26" d="M86.8179 26.2002H94.1148V44.3461H104.599V50.5999H86.8179V26.2002Z" fill="white"/>
<path id="Vector_27" d="M106.093 26.2002H125.701V32.4539H113.395V35.4967H124.576V41.3034H113.395V44.3461H126.066V50.5999H106.093V26.2002Z" fill="white"/>
<path id="Vector_28" d="M134.363 26.2002H141.496L150.12 50.5999H142.558L141.563 47.1149H134.031L132.969 50.5999H125.638L134.363 26.2002ZM140.102 41.885L137.977 34.3671H137.91L135.622 41.885H140.102Z" fill="white"/>
<path id="Vector_29" d="M150.153 26.2002H157.618L164.516 39.2557H164.584V26.2002H171.481V50.5999H164.382L157.118 37.2704H157.051V50.5999H150.148V26.2002H150.153Z" fill="white"/>
</g>
<path id="Vector_30" fill-rule="evenodd" clip-rule="evenodd" d="M76.0025 58.411H77.4013C77.5262 58.411 77.6464 58.411 77.7618 58.4206C77.7762 58.4062 77.7906 58.3869 77.805 58.3725H76.0073V58.411H76.0025ZM75.7477 57.4833H77.2042C78.3915 57.4833 78.7472 57.863 78.7472 58.5167C78.7472 59.4493 77.9541 59.5502 77.3772 59.5502H75.7525V57.4833H75.7477ZM67.2636 61.6893H66.4752L66.8213 60.55H67.1242C67.0905 60.4106 67.0617 60.2616 67.028 60.1126L66.9031 60.2809L67.451 58.4879H67.4799L68.3836 61.6893H67.6049L67.7202 61.5403L67.701 61.4826C67.6529 61.5643 67.6145 61.6364 67.5808 61.6941H67.4126C67.3837 61.5883 67.3405 61.4297 67.2924 61.2326L67.1578 61.6075L67.2684 61.6893H67.2636ZM72.6521 65.4002H75.7477V61.7758H77.4013C78.6318 61.7758 78.728 62.8093 78.8001 63.7995C78.8433 64.3379 78.901 64.8762 79.0548 65.4002H82.1649C81.8668 64.9483 81.8669 63.6697 81.8236 63.1746C81.713 61.8815 81.1891 60.9202 80.3383 60.5837C81.3717 60.1895 81.8524 59.0551 81.8524 57.9784C81.8524 56.0124 80.3094 55.0077 78.5597 55.0077H72.6377V65.3617L72.6521 65.4002ZM72.6377 65.3617L68.9748 55.0077H65.9369L62.2212 65.4002H65.3456L65.7975 63.9148H69.0037L69.4267 65.4002H72.6328V65.3617H72.6377ZM102.44 65.4002H105.55V55.0077H102.44V65.4002ZM92.4179 65.4002H95.528V61.2807H98.4409V65.4002H101.551V55.0077H98.4409V58.6177H95.528V55.0077H92.4179V65.4002ZM91.7834 58.8772C91.5142 56.2575 90.0049 54.7722 87.2169 54.7578C84.1069 54.7578 82.1024 56.9401 82.1024 60.1991C82.1024 63.2707 83.953 65.6405 87.2169 65.6405C90.1731 65.6405 91.8267 63.4149 91.8267 61.3191H88.7743C88.5772 62.3094 88.1783 63.0496 87.1352 63.0496C85.6787 63.0496 85.2124 61.5931 85.2124 60.1991C85.2124 58.8051 85.6787 57.3487 87.1352 57.3487C88.4234 57.3487 88.6878 58.4975 88.7599 58.8772H91.7834ZM136.795 65.4002H139.905V57.6707H142.731V55.0077H133.969V57.6707H136.795V65.4002ZM133.8 58.8772C133.531 56.2575 132.017 54.7722 129.234 54.7578C126.124 54.7578 124.119 56.9401 124.119 60.1991C124.119 63.2707 125.97 65.6405 129.234 65.6405C132.19 65.6405 133.844 63.4149 133.844 61.3191H130.791C130.594 62.3094 130.2 63.0496 129.152 63.0496C127.696 63.0496 127.229 61.5931 127.229 60.1991C127.229 58.8051 127.696 57.3487 129.152 57.3487C130.435 57.3487 130.705 58.4975 130.777 58.8772H133.8ZM152.326 55.0077H149.216V60.6702C149.216 61.7181 149.216 63.0592 147.745 63.0592C146.274 63.0592 146.231 61.7181 146.231 60.6702V55.0077H143.121V61.3816C143.121 64.2802 144.621 65.6453 147.726 65.6453C150.831 65.6453 152.321 64.2754 152.321 61.3816V55.0077H152.326ZM162.954 65.4002H171.462V62.7372H166.064V61.4441H170.828V58.9686H166.064V57.6755H171.308V55.0125H162.954V65.405V65.4002ZM156.551 58.411H157.95C158.075 58.411 158.195 58.411 158.311 58.4206C158.325 58.4062 158.339 58.3869 158.354 58.3725H156.556V58.411H156.551ZM156.296 57.4833H157.753C158.94 57.4833 159.291 57.863 159.291 58.5167C159.291 59.4493 158.498 59.5502 157.921 59.5502H156.296V57.4833ZM153.186 65.4002H156.296V61.7758H157.95C159.181 61.7758 159.277 62.8093 159.349 63.7995C159.392 64.3379 159.45 64.8762 159.604 65.4002H162.714C162.416 64.9483 162.416 63.6697 162.372 63.1746C162.262 61.8815 161.738 60.9202 160.887 60.5837C161.92 60.1895 162.401 59.0551 162.401 57.9784C162.401 56.0124 160.863 55.0077 159.108 55.0077H153.186V65.4002ZM115.169 65.4002H123.677V62.7372H118.279V61.4441H123.043V58.9686H118.279V57.6755H123.523V55.0125H115.169V65.405V65.4002ZM108.795 65.4002H111.905V57.6707H114.731V55.0077H105.969V57.6707H108.795V65.4002ZM70.8014 52.1861C71.3302 51.8448 71.9551 51.6429 72.6328 51.6429H78.5549C80.0258 51.6429 81.3958 52.013 82.5062 52.7244C83.804 51.8784 85.3903 51.3929 87.2169 51.3929C87.2217 51.3929 87.2265 51.3929 87.2361 51.3929C88.5917 51.3978 89.7597 51.6477 90.7499 52.0803C91.2402 51.8015 91.8123 51.6381 92.4179 51.6381H95.528C96.0519 51.6381 96.5422 51.7583 96.9845 51.9698C97.4267 51.7583 97.917 51.6381 98.4409 51.6381H101.551C101.7 51.6381 101.849 51.6477 101.998 51.6669C102.142 51.6477 102.291 51.6381 102.445 51.6381H105.555C105.627 51.6381 105.695 51.6381 105.767 51.6429C105.839 51.6429 105.906 51.6381 105.978 51.6381H114.741C114.813 51.6381 114.885 51.6381 114.957 51.6429C115.029 51.6429 115.102 51.6381 115.178 51.6381H123.533C124.235 51.6381 124.884 51.8544 125.422 52.2197C126.532 51.6862 127.811 51.3929 129.239 51.3929C129.243 51.3929 129.248 51.3929 129.258 51.3929C130.498 51.3978 131.575 51.6093 132.512 51.9746C132.954 51.7631 133.449 51.6429 133.973 51.6429H142.736C142.804 51.6429 142.866 51.6429 142.933 51.6477C143.001 51.6477 143.063 51.6429 143.13 51.6429H146.24C146.774 51.6429 147.284 51.7679 147.731 51.989C148.178 51.7679 148.687 51.6429 149.221 51.6429H152.331C152.475 51.6429 152.619 51.6525 152.763 51.6717C152.903 51.6525 153.047 51.6429 153.196 51.6429H159.118C159.945 51.6429 160.738 51.7583 161.473 51.989C161.92 51.7679 162.425 51.6429 162.964 51.6429H171.318C173.178 51.6429 174.683 53.1475 174.683 55.0077V57.6707C174.683 58.3052 174.505 58.8965 174.202 59.406V60.7663C174.601 61.3191 174.837 62.0017 174.837 62.7372V65.4002C174.837 67.2604 173.332 68.765 171.472 68.765H162.964C162.925 68.765 162.882 68.765 162.843 68.765C162.805 68.765 162.762 68.765 162.723 68.765H159.613C159.017 68.765 158.455 68.6112 157.96 68.3324C157.469 68.6064 156.907 68.765 156.306 68.765H153.196C152.59 68.765 152.018 68.6064 151.528 68.3227C150.49 68.7602 149.24 69.0101 147.74 69.0101C145.481 69.0101 143.775 68.4381 142.525 67.5152C141.909 68.2747 140.967 68.7602 139.91 68.7602H136.8C135.723 68.7602 134.762 68.2506 134.146 67.4623C132.882 68.4093 131.238 69.0053 129.239 69.0053C127.821 69.0053 126.552 68.7361 125.46 68.2506C124.946 68.5727 124.336 68.7554 123.682 68.7554H115.174C114.582 68.7554 114.025 68.6015 113.539 68.3324C113.054 68.6015 112.501 68.7554 111.905 68.7554H108.795C108.204 68.7554 107.651 68.6015 107.17 68.3372C106.69 68.6015 106.137 68.7554 105.545 68.7554H102.435C102.286 68.7554 102.137 68.7458 101.988 68.7265C101.844 68.7458 101.695 68.7554 101.541 68.7554H98.4313C97.9074 68.7554 97.4171 68.6352 96.9748 68.4237C96.5326 68.6352 96.0423 68.7554 95.5184 68.7554H92.4083C91.7834 68.7554 91.2018 68.5871 90.7019 68.2891C89.6972 68.7409 88.5292 69.0005 87.2073 69.0005C85.8854 69.0005 84.7414 68.7746 83.7127 68.366C83.2368 68.616 82.7032 68.7506 82.1456 68.7506H79.0356C78.4395 68.7506 77.8771 68.5967 77.382 68.3179C76.8917 68.5919 76.3293 68.7506 75.7285 68.7506H69.4122C68.6528 68.7506 67.9413 68.4958 67.3693 68.0584C66.7973 68.4958 66.0859 68.7506 65.3264 68.7506H62.2019C61.106 68.7506 60.0821 68.217 59.4524 67.3229C58.8227 66.4288 58.6641 65.2848 59.0342 64.2513L62.7499 53.8589C63.2306 52.5226 64.4948 51.6285 65.9176 51.6285H68.9556C69.6189 51.6285 70.2534 51.8256 70.787 52.1717L70.8014 52.1861Z" fill="black"/>
<g id="Group_3">
<path id="Vector_31" d="M65.9369 55.0077H68.9748L72.6521 65.3953H69.4315L69.0085 63.91H65.8023L65.3504 65.3953H62.226L65.9417 55.0077H65.9369ZM68.3836 61.6892L67.4799 58.4879H67.4511L66.4753 61.6892H68.3836Z" fill="white"/>
<path id="Vector_32" d="M72.6473 55.0077H78.5693C80.3239 55.0077 81.8621 56.0123 81.8621 57.9783C81.8621 59.0551 81.3814 60.1895 80.3479 60.5837C81.1939 60.9201 81.7178 61.8767 81.8332 63.1746C81.8765 63.6697 81.8765 64.9483 82.1745 65.4001H79.0645C78.9106 64.8762 78.853 64.3378 78.8097 63.7995C78.7376 62.8092 78.6414 61.7758 77.4109 61.7758H75.7573V65.4001H72.6473V55.0125V55.0077ZM75.7573 59.5502H77.382C77.9637 59.5502 78.752 59.4492 78.752 58.5167C78.752 57.863 78.4011 57.4832 77.209 57.4832H75.7525V59.5502H75.7573Z" fill="white"/>
<path id="Vector_33" d="M88.7887 58.8821C88.7166 58.5023 88.4475 57.3535 87.164 57.3535C85.7075 57.3535 85.2413 58.81 85.2413 60.204C85.2413 61.5979 85.7075 63.0544 87.164 63.0544C88.2119 63.0544 88.6061 62.3142 88.8032 61.324H91.8555C91.8555 63.4198 90.202 65.6453 87.2457 65.6453C83.9819 65.6453 82.1312 63.2755 82.1312 60.204C82.1312 56.9449 84.1405 54.7626 87.2457 54.7626C90.0289 54.777 91.5431 56.2623 91.8123 58.8821H88.7887Z" fill="white"/>
<path id="Vector_34" d="M92.4612 55.0077H95.5713V58.6177H98.4842V55.0077H101.594V65.3953H98.4842V61.2759H95.5713V65.3953H92.4612V55.0077Z" fill="white"/>
<path id="Vector_35" d="M102.498 55.0077H105.608V65.3953H102.498V55.0077Z" fill="white"/>
<path id="Vector_36" d="M108.872 57.6707H106.045V55.0077H114.808V57.6707H111.982V65.3953H108.872V57.6707Z" fill="white"/>
<path id="Vector_37" d="M115.26 55.0077H123.615V57.6707H118.37V58.9637H123.134V61.4393H118.37V62.7323H123.768V65.3953H115.26V55.0077Z" fill="white"/>
<path id="Vector_38" d="M130.873 58.8821C130.801 58.5023 130.532 57.3535 129.248 57.3535C127.792 57.3535 127.325 58.81 127.325 60.204C127.325 61.5979 127.792 63.0544 129.248 63.0544C130.296 63.0544 130.69 62.3142 130.887 61.324H133.94C133.94 63.4198 132.286 65.6453 129.335 65.6453C126.071 65.6453 124.22 63.2755 124.22 60.204C124.22 56.9449 126.229 54.7626 129.335 54.7626C132.118 54.777 133.632 56.2623 133.901 58.8821H130.878H130.873Z" fill="white"/>
<path id="Vector_39" d="M136.91 57.6707H134.084V55.0077H142.847V57.6707H140.02V65.3953H136.91V57.6707Z" fill="white"/>
<path id="Vector_40" d="M152.441 61.3816C152.441 64.2753 150.956 65.6453 147.846 65.6453C144.736 65.6453 143.241 64.2753 143.241 61.3816V55.0077H146.351V60.6702C146.351 61.7181 146.337 63.0544 147.865 63.0544C149.394 63.0544 149.336 61.7133 149.336 60.6702V55.0077H152.446V61.3816H152.441Z" fill="white"/>
<path id="Vector_41" d="M153.316 55.0077H159.238C160.993 55.0077 162.531 56.0123 162.531 57.9783C162.531 59.0551 162.05 60.1895 161.017 60.5837C161.863 60.9201 162.387 61.8767 162.502 63.1746C162.545 63.6697 162.545 64.9483 162.843 65.4001H159.733C159.58 64.8762 159.522 64.3378 159.479 63.7995C159.407 62.8092 159.31 61.7758 158.08 61.7758H156.426V65.4001H153.316V55.0125V55.0077ZM156.426 59.5502H158.051C158.633 59.5502 159.421 59.4492 159.421 58.5167C159.421 57.863 159.07 57.4832 157.883 57.4832H156.426V59.5502Z" fill="white"/>
<path id="Vector_42" d="M163.079 55.0077H171.433V57.6707H166.189V58.9637H170.953V61.4393H166.189V62.7323H171.587V65.3953H163.079V55.0077Z" fill="white"/>
</g>
</g>
</g>
<defs>
<clipPath id="clip0_219_19661">
<rect width="169" height="78.6116" fill="white" transform="translate(6 16)"/>
</clipPath>
</defs>
</svg>
