<svg width="180" height="108" viewBox="0 0 180 108" fill="none" xmlns="http://www.w3.org/2000/svg">
<path d="M138.911 65.256V63.864H152.495V65.256H146.519V81H144.887V65.256H138.911Z" fill="white"/>
<path d="M127.274 65.256V72.264H132.89C135.17 72.264 136.706 71.136 136.706 68.76C136.706 66.384 135.17 65.256 132.89 65.256H127.274ZM125.642 81V63.864H133.25C136.322 63.864 138.338 65.664 138.338 68.76C138.338 71.856 136.322 73.656 133.25 73.656H127.274V81H125.642Z" fill="white"/>
<path d="M122.493 72.288V81H121.317L121.101 77.88H121.053C119.901 80.328 117.597 81.36 115.125 81.36C109.725 81.36 107.037 77.136 107.037 72.432C107.037 67.728 109.725 63.504 115.125 63.504C118.725 63.504 121.629 65.448 122.277 69.192H120.645C120.453 67.224 118.365 64.896 115.125 64.896C110.589 64.896 108.669 68.688 108.669 72.432C108.669 76.176 110.589 79.968 115.125 79.968C118.917 79.968 121.125 77.328 121.053 73.68H115.221V72.288H122.493Z" fill="white"/>
<path d="M96.4477 73.464H101.992C101.68 71.736 100.936 70.824 99.2797 70.824C97.0717 70.824 96.5197 72.504 96.4477 73.464ZM105.4 75.624H96.4477C96.5437 77.808 97.5757 78.768 99.4957 78.768C100.864 78.768 101.968 77.928 102.184 77.16H105.184C104.224 80.112 102.184 81.336 99.3757 81.336C95.4637 81.336 93.0397 78.648 93.0397 74.808C93.0397 71.088 95.6077 68.256 99.3757 68.256C103.6 68.256 105.664 71.808 105.4 75.624Z" fill="white"/>
<path d="M90.9562 63.864V66.672H87.5482V63.864H90.9562ZM87.5482 81V68.592H90.9562V81H87.5482Z" fill="white"/>
<path d="M73.2257 81V63.864H76.6337V70.32H76.7057C77.5697 68.904 79.0577 68.256 80.3297 68.256C83.9537 68.256 84.8657 70.296 84.8657 73.368V81H81.4577V73.992C81.4577 71.952 80.8817 70.944 79.2737 70.944C77.4257 70.944 76.6337 71.976 76.6337 74.496V81H73.2257Z" fill="white"/>
<path d="M64.8178 78.768C67.0498 78.768 67.7698 76.848 67.7698 74.832C67.7698 72.84 66.9778 70.824 64.7938 70.824C62.5618 70.824 61.8418 72.816 61.8418 74.832C61.8418 76.848 62.6098 78.768 64.8178 78.768ZM58.5538 85.368V68.592H61.7938V70.176H61.8418C62.6818 68.832 64.0018 68.256 65.5378 68.256C69.4258 68.256 71.1778 71.4 71.1778 74.928C71.1778 78.24 69.3778 81.336 65.7298 81.336C64.2178 81.336 62.8498 80.688 62.0098 79.464H61.9618V85.368H58.5538Z" fill="white"/>
<path d="M46.9059 74.808C46.9059 76.8 47.6019 78.768 49.9059 78.768C52.2339 78.768 52.9299 76.8 52.9299 74.808C52.9299 72.816 52.2339 70.824 49.9059 70.824C47.6019 70.824 46.9059 72.816 46.9059 74.808ZM43.4979 74.808C43.4979 70.848 46.0179 68.256 49.9059 68.256C53.8179 68.256 56.3379 70.848 56.3379 74.808C56.3379 78.744 53.8179 81.336 49.9059 81.336C46.0179 81.336 43.4979 78.744 43.4979 74.808Z" fill="white"/>
<path d="M27.576 75.312H31.224C31.224 77.592 33 78.48 35.016 78.48C36.336 78.48 38.352 78.096 38.352 76.344C38.352 74.472 35.76 74.208 33.264 73.512C30.72 72.888 28.152 71.808 28.152 68.64C28.152 65.112 31.464 63.456 34.56 63.456C38.136 63.456 41.424 65.016 41.424 68.976H37.776C37.656 66.936 36.216 66.384 34.392 66.384C33.192 66.384 31.8 66.888 31.8 68.328C31.8 69.648 32.616 69.84 36.912 70.92C38.184 71.208 42 72.048 42 75.912C42 79.056 39.552 81.408 34.872 81.408C31.08 81.408 27.504 79.536 27.576 75.312Z" fill="white"/>
<path d="M60.2 47.0143L40 37.7143V35.6143L60.2 26.3143V28.5143L42.5 36.7143L60.2 44.9143V47.0143Z" fill="white"/>
<path d="M136.8 36.7143L119 28.5143V26.3143L139.2 35.6143V37.8143L119 47.1143V44.9143L136.8 36.7143Z" fill="white"/>
<path fill-rule="evenodd" clip-rule="evenodd" d="M89 23C90.9659 23 92.6669 23.4422 93.4837 24.0853L94.0357 24.0857C99.0793 24.0857 103.505 26.7311 106.001 30.71L106 27.4085C105.316 27.045 104.85 26.3204 104.85 25.4857C104.85 24.2865 105.813 23.3143 107 23.3143C108.187 23.3143 109.15 24.2865 109.15 25.4857C109.15 26.32 108.684 27.0443 108.001 27.408L108.001 32.3688C109.195 33.403 110 35.3489 110 37.579C110 40.2812 108.818 42.5661 107.193 43.3175C105.145 48.5826 100.026 52.3143 94.0357 52.3143H84.2643C78.3261 52.3143 73.2444 48.6472 71.1603 43.4541C69.3561 42.8896 68 40.4737 68 37.579C68 35.3483 68.8053 33.4019 70.0004 32.368L70.0001 27.4085C69.3163 27.045 68.85 26.3204 68.85 25.4857C68.85 24.2865 69.8126 23.3143 71 23.3143C72.1874 23.3143 73.15 24.2865 73.15 25.4857C73.15 26.32 72.6842 27.0443 72.0009 27.408L72.0006 31.2083C74.4316 26.9535 79.013 24.0857 84.2643 24.0857L84.5163 24.0853C85.3331 23.4422 87.0341 23 89 23ZM94 28.3143H84C78.4772 28.3143 74 32.7914 74 38.3143C74 43.8371 78.4772 48.3143 84 48.3143H94C99.5228 48.3143 104 43.8371 104 38.3143C104 32.7914 99.5228 28.3143 94 28.3143Z" fill="white"/>
<path fill-rule="evenodd" clip-rule="evenodd" d="M89.0866 45.0125C91.5259 45.0125 93.5033 43.4632 93.5033 41.5521C93.5033 39.641 91.5259 40.049 89.0866 40.049C86.6474 40.049 84.67 39.641 84.67 41.5521C84.67 43.4632 86.6474 45.0125 89.0866 45.0125Z" fill="white"/>
<path d="M81 38.3521C82.1046 38.3521 83 37.4566 83 36.3521C83 35.2475 82.1046 34.3521 81 34.3521C79.8954 34.3521 79 35.2475 79 36.3521C79 37.4566 79.8954 38.3521 81 38.3521Z" fill="white"/>
<path d="M97 38.3521C98.1046 38.3521 99 37.4566 99 36.3521C99 35.2475 98.1046 34.3521 97 34.3521C95.8954 34.3521 95 35.2475 95 36.3521C95 37.4566 95.8954 38.3521 97 38.3521Z" fill="white"/>
</svg>
