<svg width="180" height="108" viewBox="0 0 180 108" fill="none" xmlns="http://www.w3.org/2000/svg">
<path d="M151.607 48.504V47.576H160.663V48.504H156.679V59H155.591V48.504H151.607Z" fill="#333333"/>
<path d="M143.849 48.504V53.176H147.593C149.113 53.176 150.137 52.424 150.137 50.84C150.137 49.256 149.113 48.504 147.593 48.504H143.849ZM142.761 59V47.576H147.833C149.881 47.576 151.225 48.776 151.225 50.84C151.225 52.904 149.881 54.104 147.833 54.104H143.849V59H142.761Z" fill="#333333"/>
<path d="M140.662 53.192V59H139.878L139.734 56.92H139.702C138.934 58.552 137.398 59.24 135.75 59.24C132.15 59.24 130.358 56.424 130.358 53.288C130.358 50.152 132.15 47.336 135.75 47.336C138.15 47.336 140.086 48.632 140.518 51.128H139.43C139.302 49.816 137.91 48.264 135.75 48.264C132.726 48.264 131.446 50.792 131.446 53.288C131.446 55.784 132.726 58.312 135.75 58.312C138.278 58.312 139.75 56.552 139.702 54.12H135.814V53.192H140.662Z" fill="#333333"/>
<path d="M123.299 53.976H126.995C126.787 52.824 126.291 52.216 125.187 52.216C123.715 52.216 123.347 53.336 123.299 53.976ZM129.267 55.416H123.299C123.363 56.872 124.051 57.512 125.331 57.512C126.243 57.512 126.979 56.952 127.123 56.44H129.123C128.483 58.408 127.123 59.224 125.251 59.224C122.643 59.224 121.027 57.432 121.027 54.872C121.027 52.392 122.739 50.504 125.251 50.504C128.067 50.504 129.443 52.872 129.267 55.416Z" fill="#CC4141"/>
<path d="M119.638 47.576V49.448H117.366V47.576H119.638ZM117.366 59V50.728H119.638V59H117.366Z" fill="#CC4141"/>
<path d="M107.817 59V47.576H110.089V51.88H110.137C110.713 50.936 111.705 50.504 112.553 50.504C114.969 50.504 115.577 51.864 115.577 53.912V59H113.305V54.328C113.305 52.968 112.921 52.296 111.849 52.296C110.617 52.296 110.089 52.984 110.089 54.664V59H107.817Z" fill="#CC4141"/>
<path d="M102.212 57.512C103.7 57.512 104.18 56.232 104.18 54.888C104.18 53.56 103.652 52.216 102.196 52.216C100.708 52.216 100.228 53.544 100.228 54.888C100.228 56.232 100.74 57.512 102.212 57.512ZM98.0359 61.912V50.728H100.196V51.784H100.228C100.788 50.888 101.668 50.504 102.692 50.504C105.284 50.504 106.452 52.6 106.452 54.952C106.452 57.16 105.252 59.224 102.82 59.224C101.812 59.224 100.9 58.792 100.34 57.976H100.308V61.912H98.0359Z" fill="#CC4141"/>
<path d="M90.2706 54.872C90.2706 56.2 90.7346 57.512 92.2706 57.512C93.8226 57.512 94.2866 56.2 94.2866 54.872C94.2866 53.544 93.8226 52.216 92.2706 52.216C90.7346 52.216 90.2706 53.544 90.2706 54.872ZM87.9986 54.872C87.9986 52.232 89.6786 50.504 92.2706 50.504C94.8786 50.504 96.5586 52.232 96.5586 54.872C96.5586 57.496 94.8786 59.224 92.2706 59.224C89.6786 59.224 87.9986 57.496 87.9986 54.872Z" fill="#CC4141"/>
<path d="M77.384 55.208H79.816C79.816 56.728 81 57.32 82.344 57.32C83.224 57.32 84.568 57.064 84.568 55.896C84.568 54.648 82.84 54.472 81.176 54.008C79.48 53.592 77.768 52.872 77.768 50.76C77.768 48.408 79.976 47.304 82.04 47.304C84.424 47.304 86.616 48.344 86.616 50.984H84.184C84.104 49.624 83.144 49.256 81.928 49.256C81.128 49.256 80.2 49.592 80.2 50.552C80.2 51.432 80.744 51.56 83.608 52.28C84.456 52.472 87 53.032 87 55.608C87 57.704 85.368 59.272 82.248 59.272C79.72 59.272 77.336 58.024 77.384 55.208Z" fill="#CC4141"/>
<path fill-rule="evenodd" clip-rule="evenodd" d="M45.6149 46C46.6286 46 47.5058 46.2374 47.9277 46.5828L47.9076 46.5838C50.6509 46.5838 53.0542 48.0392 54.3875 50.22L54.3869 48.3701C54.0345 48.1745 53.7943 47.7851 53.7943 47.3366C53.7943 46.6918 54.291 46.169 54.9038 46.169C55.5165 46.169 56.0133 46.6918 56.0133 47.3366C56.0133 47.7853 55.7728 48.1748 55.4202 48.3703L55.4199 51.0376C56.0364 51.5937 56.4519 52.6401 56.4519 53.8395C56.4519 55.3069 55.83 56.5455 54.9786 56.9369C53.8742 59.7614 51.1247 61.763 47.9076 61.763H43.4769C40.2865 61.763 37.5559 59.7944 36.4335 57.0058C35.4899 56.7178 34.7778 55.4096 34.7778 53.8395C34.7778 52.6401 35.1933 51.5937 35.8099 51.0376L35.8096 48.3703C35.4569 48.1748 35.2165 47.7853 35.2165 47.3366C35.2165 46.6918 35.7132 46.169 36.326 46.169C36.9387 46.169 37.4355 46.6918 37.4355 47.3366C37.4355 47.7851 37.1953 48.1745 36.8428 48.3701L36.8418 50.4859C38.1109 48.2072 40.5197 46.6503 43.2976 46.5859C43.7172 46.2393 44.5972 46 45.6149 46Z" fill="#333333"/>
<path d="M47.9784 48.8576H43.2514C40.2816 48.8576 37.8741 51.2651 37.8741 54.2348C37.8741 57.2046 40.2816 59.6121 43.2514 59.6121H47.9784C50.9481 59.6121 53.3556 57.2046 53.3556 54.2348C53.3556 51.2651 50.9481 48.8576 47.9784 48.8576Z" fill="white"/>
<path fill-rule="evenodd" clip-rule="evenodd" d="M45.6596 57.8366C46.9184 57.8366 47.9388 57.0035 47.9388 55.9759C47.9388 54.9482 46.9184 55.1676 45.6596 55.1676C44.4008 55.1676 43.3804 54.9482 43.3804 55.9759C43.3804 57.0035 44.4008 57.8366 45.6596 57.8366Z" fill="#CC4141"/>
<path d="M41.4865 54.2551C42.0565 54.2551 42.5186 53.7736 42.5186 53.1797C42.5186 52.5857 42.0565 52.1042 41.4865 52.1042C40.9165 52.1042 40.4544 52.5857 40.4544 53.1797C40.4544 53.7736 40.9165 54.2551 41.4865 54.2551Z" fill="#333333"/>
<path d="M49.7433 54.2551C50.3133 54.2551 50.7754 53.7736 50.7754 53.1797C50.7754 52.5857 50.3133 52.1042 49.7433 52.1042C49.1733 52.1042 48.7112 52.5857 48.7112 53.1797C48.7112 53.7736 49.1733 54.2551 49.7433 54.2551Z" fill="#333333"/>
<path d="M30.6325 58.7553L20 53.9099V52.8157L30.6325 47.9703V49.1166L21.3159 53.3889L30.6325 57.6611V58.7553Z" fill="#333333"/>
<path d="M70.9515 53.3889L61.5823 49.1166V47.9703L72.2147 52.8157V53.962L61.5823 58.8074V57.6611L70.9515 53.3889Z" fill="#333333"/>
</svg>
