<svg width="180" height="108" viewBox="0 0 180 108" fill="none" xmlns="http://www.w3.org/2000/svg">
<g id="SSW-Rules-Dark-BG">
<g id="Group" clip-path="url(#clip0_535_349)">
<g id="SSWLogo 2">
<g id="SSWLogo">
<path id="Path" d="M81.6662 44.3932C78.5452 40.8495 73.7319 38.5777 68.337 38.5777C63.0217 38.5777 58.2782 40.7767 55.158 44.2207C58.2676 39.5355 63.5502 36.3817 69.5927 36.162C69.7618 36.168 69.9399 36.1717 70.1325 36.1822C70.3615 36.192 70.6042 36.225 70.8718 36.249C71.398 36.306 71.9895 36.4095 72.6211 36.561C73.2444 36.7342 73.9215 36.9375 74.5925 37.2532C75.2636 37.5622 75.9392 37.9485 76.5988 38.412C77.2555 38.8747 77.8878 39.405 78.5126 39.9877C79.1291 40.554 79.6796 41.1915 80.1792 41.88C80.4279 42.2212 80.666 42.5775 80.8852 42.9337C81.1058 43.2945 81.2984 43.6462 81.4955 44.0355C81.5524 44.154 81.6078 44.2717 81.6662 44.3932" fill="#CC4141"/>
<path id="Path_2" d="M83.762 65.865C80.4538 69.5302 75.6359 71.8372 70.2751 71.8372C63.9423 71.8372 58.3753 68.622 55.1482 63.756C58.2706 67.206 63.018 69.4102 68.3317 69.4102C72.4634 69.4102 76.2463 68.0805 79.2004 65.8665H83.7627V65.865H83.762Z" fill="#CC4141"/>
<path id="Path_3" d="M88.3387 53.9947V54.0697H84.7234C84.7158 53.9249 84.7044 53.7622 84.6991 53.5769C84.6559 52.8112 84.6028 51.7169 84.4413 50.3932C84.2715 49.0784 83.9992 47.5237 83.4131 45.9434C83.1212 45.1484 82.761 44.3647 82.3144 43.5884C82.1059 43.2262 81.861 42.8347 81.6078 42.4732C81.359 42.1042 81.0914 41.7472 80.8063 41.4022C80.2482 40.7137 79.6158 40.0627 78.9365 39.5062C78.2776 38.9542 77.5807 38.4337 76.874 37.9957C76.1658 37.5539 75.4402 37.1947 74.7297 36.9164C74.0231 36.6299 73.3224 36.4589 72.6726 36.3179C72.5733 36.2999 72.4679 36.2842 72.3708 36.2684C81.3613 37.2959 88.3387 44.8379 88.3387 53.9947" fill="#CC4141"/>
<path id="Path_4" d="M36.4954 54.4538C36.0208 53.6745 35.2618 53.0243 34.2154 52.4985C33.1743 51.969 31.444 51.4515 29.0336 50.9363C28.0577 50.736 27.4405 50.5148 27.1782 50.2883C26.9143 50.0595 26.7778 49.8075 26.7778 49.5248C26.7778 49.1423 26.9393 48.8145 27.2654 48.5445C27.5899 48.276 28.0744 48.141 28.7151 48.141C29.4931 48.141 30.1042 48.3203 30.5493 48.6818C30.9898 49.044 31.2825 49.6245 31.419 50.4188L36.6243 50.1158C36.3946 48.285 35.6811 46.9493 34.4838 46.1085C33.2858 45.2678 31.5464 44.8478 29.2626 44.8478C27.4034 44.8478 25.9377 45.0833 24.8731 45.5445C23.8025 46.0043 23.0018 46.6418 22.4717 47.4473C21.9402 48.255 21.6726 49.1123 21.6726 50.0205C21.6726 51.4028 22.1942 52.5375 23.2361 53.4323C24.2642 54.324 25.9923 55.0403 28.4118 55.5758C29.8934 55.8968 30.8352 56.241 31.2393 56.6003C31.6472 56.9603 31.8482 57.369 31.8482 57.8318C31.8482 58.311 31.6366 58.7385 31.2082 59.1008C30.7836 59.4653 30.1853 59.5695 29.399 59.5695C28.3451 59.5695 27.5186 59.292 26.9514 58.5758C26.5989 58.1378 26.3714 57.4935 26.2546 56.6513L21 56.9753C21.157 58.755 21.8204 60.2258 22.9874 61.3845C24.1588 62.5418 26.2614 63.12 29.2974 63.12C31.0277 63.12 32.4639 62.8755 33.6005 62.3775C34.7355 61.8855 35.6212 61.1618 36.2543 60.2025C36.8874 59.2485 37.2067 58.2045 37.2067 57.069C37.2082 56.1053 36.9701 55.2345 36.4954 54.4538" fill="white"/>
<path id="Path_5" d="M54.2292 57.0908C54.2292 58.2008 53.9274 59.2193 53.3178 60.1628C53.3041 60.1815 53.2912 60.204 53.2783 60.2243C53.1813 60.372 53.0774 60.513 52.9629 60.6473C52.3647 61.3988 51.5799 61.983 50.6215 62.4008C49.4864 62.8943 48.0518 63.1388 46.32 63.1388C43.2786 63.1388 41.1798 62.562 40.0076 61.4018C38.8384 60.2475 38.1772 58.7768 38.021 56.994L43.2718 56.6685C43.3848 57.5108 43.6199 58.1528 43.9671 58.5968C44.5366 59.3085 45.3502 59.5868 46.4102 59.5868C47.1934 59.5868 47.7985 59.4833 48.2269 59.118C48.6493 58.752 48.8684 58.329 48.8684 57.8483C48.8684 57.3893 48.6629 56.979 48.2573 56.6175C47.8508 56.256 46.9121 55.914 45.4321 55.5908C43.0102 55.053 41.2822 54.3368 40.2533 53.4473C39.2152 52.5563 38.6928 51.4185 38.6928 50.0378C38.6928 49.1303 38.9589 48.2723 39.492 47.4645C40.025 46.656 40.8219 46.023 41.8926 45.5588C42.964 45.0938 44.4259 44.868 46.2851 44.868C48.5681 44.868 50.3113 45.2865 51.5071 46.125C52.0492 46.5038 52.4943 46.9883 52.8355 47.5748C52.9599 47.7803 53.0698 48.003 53.1638 48.2363C53.3974 48.7928 53.5574 49.4265 53.6415 50.1308L52.6179 50.1885L51.8051 50.2373L48.44 50.4308C48.2997 49.6358 48.0116 49.0583 47.5726 48.6938C47.1275 48.3368 46.5156 48.153 45.7399 48.153C45.0961 48.153 44.6154 48.288 44.2886 48.5588C43.9633 48.825 43.8011 49.1528 43.8011 49.5428C43.8011 49.8195 43.93 50.0715 44.1999 50.2973C44.46 50.532 45.0764 50.7488 46.0546 50.9475C48.4643 51.4643 50.1931 51.9855 51.2364 52.5105C51.2811 52.533 51.3243 52.5563 51.3661 52.5788C51.6807 52.7453 51.9704 52.9223 52.2304 53.112C52.7771 53.5118 53.2055 53.9618 53.5157 54.4665C53.9911 55.251 54.2292 56.1225 54.2292 57.0908" fill="white"/>
<path id="Path_6" d="M79.1579 45.1718L75.2249 62.8358H69.8042L66.672 51.7133L63.5556 62.8358H58.1417L54.2838 45.6885V45.687L54.2133 45.3683L54.1678 45.1718H59.4095L61.2968 55.059L64.0613 45.1718H69.2811L72.0532 55.0463L73.945 45.1718H79.1579Z" fill="white"/>
<rect id="Rectangle" x="84.7014" y="54.999" width="4.55097" height="4.503" fill="white"/>
<rect id="Rectangle_2" x="79.2072" y="54.999" width="4.55248" height="4.503" fill="white"/>
<rect id="Rectangle_3" x="84.7014" y="60.432" width="4.55097" height="4.5045" fill="white"/>
<rect id="Rectangle_4" x="79.2072" y="60.432" width="4.55248" height="4.5045" fill="white"/>
</g>
</g>
<path id="Rules" d="M105.832 52.6719C106.926 52.6719 107.789 52.4531 108.422 52.0156C109.062 51.5781 109.383 50.7891 109.383 49.6484C109.383 48.4219 108.938 47.5859 108.047 47.1406C107.57 46.9062 106.934 46.7891 106.137 46.7891H100.441V52.6719H105.832ZM98.1094 44.7852H106.078C107.391 44.7852 108.473 44.9766 109.324 45.3594C110.941 46.0938 111.75 47.4492 111.75 49.4258C111.75 50.457 111.535 51.3008 111.105 51.957C110.684 52.6133 110.09 53.1406 109.324 53.5391C109.996 53.8125 110.5 54.1719 110.836 54.6172C111.18 55.0625 111.371 55.7852 111.41 56.7852L111.492 59.0938C111.516 59.75 111.57 60.2383 111.656 60.5586C111.797 61.1055 112.047 61.457 112.406 61.6133V62H109.547C109.469 61.8516 109.406 61.6602 109.359 61.4258C109.312 61.1914 109.273 60.7383 109.242 60.0664L109.102 57.1953C109.047 56.0703 108.629 55.3164 107.848 54.9336C107.402 54.7227 106.703 54.6172 105.75 54.6172H100.441V62H98.1094V44.7852ZM117 49.4492V57.7812C117 58.4219 117.102 58.9453 117.305 59.3516C117.68 60.1016 118.379 60.4766 119.402 60.4766C120.871 60.4766 121.871 59.8203 122.402 58.5078C122.691 57.8047 122.836 56.8398 122.836 55.6133V49.4492H124.945V62H122.953L122.977 60.1484C122.703 60.625 122.363 61.0273 121.957 61.3555C121.152 62.0117 120.176 62.3398 119.027 62.3398C117.238 62.3398 116.02 61.7422 115.371 60.5469C115.02 59.9062 114.844 59.0508 114.844 57.9805V49.4492H117ZM128.309 44.7852H130.418V62H128.309V44.7852ZM138.82 49.168C139.711 49.168 140.574 49.3789 141.41 49.8008C142.246 50.2148 142.883 50.7539 143.32 51.418C143.742 52.0508 144.023 52.7891 144.164 53.6328C144.289 54.2109 144.352 55.1328 144.352 56.3984H135.152C135.191 57.6719 135.492 58.6953 136.055 59.4688C136.617 60.2344 137.488 60.6172 138.668 60.6172C139.77 60.6172 140.648 60.2539 141.305 59.5273C141.68 59.1055 141.945 58.6172 142.102 58.0625H144.176C144.121 58.5234 143.938 59.0391 143.625 59.6094C143.32 60.1719 142.977 60.6328 142.594 60.9922C141.953 61.6172 141.16 62.0391 140.215 62.2578C139.707 62.3828 139.133 62.4453 138.492 62.4453C136.93 62.4453 135.605 61.8789 134.52 60.7461C133.434 59.6055 132.891 58.0117 132.891 55.9648C132.891 53.9492 133.438 52.3125 134.531 51.0547C135.625 49.7969 137.055 49.168 138.82 49.168ZM142.184 54.7227C142.098 53.8086 141.898 53.0781 141.586 52.5312C141.008 51.5156 140.043 51.0078 138.691 51.0078C137.723 51.0078 136.91 51.3594 136.254 52.0625C135.598 52.7578 135.25 53.6445 135.211 54.7227H142.184ZM148.207 58.0625C148.27 58.7656 148.445 59.3047 148.734 59.6797C149.266 60.3594 150.188 60.6992 151.5 60.6992C152.281 60.6992 152.969 60.5312 153.562 60.1953C154.156 59.8516 154.453 59.3242 154.453 58.6133C154.453 58.0742 154.215 57.6641 153.738 57.3828C153.434 57.2109 152.832 57.0117 151.934 56.7852L150.258 56.3633C149.188 56.0977 148.398 55.8008 147.891 55.4727C146.984 54.9023 146.531 54.1133 146.531 53.1055C146.531 51.918 146.957 50.957 147.809 50.2227C148.668 49.4883 149.82 49.1211 151.266 49.1211C153.156 49.1211 154.52 49.6758 155.355 50.7852C155.879 51.4883 156.133 52.2461 156.117 53.0586H154.125C154.086 52.582 153.918 52.1484 153.621 51.7578C153.137 51.2031 152.297 50.9258 151.102 50.9258C150.305 50.9258 149.699 51.0781 149.285 51.3828C148.879 51.6875 148.676 52.0898 148.676 52.5898C148.676 53.1367 148.945 53.5742 149.484 53.9023C149.797 54.0977 150.258 54.2695 150.867 54.418L152.262 54.7578C153.777 55.125 154.793 55.4805 155.309 55.8242C156.129 56.3633 156.539 57.2109 156.539 58.3672C156.539 59.4844 156.113 60.4492 155.262 61.2617C154.418 62.0742 153.129 62.4805 151.395 62.4805C149.527 62.4805 148.203 62.0586 147.422 61.2148C146.648 60.3633 146.234 59.3125 146.18 58.0625H148.207Z" fill="white"/>
</g>
</g>
<defs>
<clipPath id="clip0_535_349">
<rect width="137" height="36" fill="white" transform="translate(21 36)"/>
</clipPath>
</defs>
</svg>
