<svg width="180" height="108" viewBox="0 0 180 108" fill="none" xmlns="http://www.w3.org/2000/svg">
<g id="SSW-Rewards-vertical">
<g id="SSWLogo 2">
<g id="SSWLogo">
<path id="Path" d="M116.666 29.2312C113.545 25.6875 108.732 23.4158 103.337 23.4158C98.0218 23.4158 93.2782 25.6148 90.158 29.0588C93.2676 24.3735 98.5503 21.2198 104.593 21C104.762 21.006 104.94 21.0098 105.133 21.0203C105.362 21.03 105.604 21.063 105.872 21.087C106.398 21.144 106.989 21.2475 107.621 21.399C108.244 21.5722 108.921 21.7755 109.593 22.0912C110.264 22.4002 110.939 22.7865 111.599 23.25C112.255 23.7127 112.888 24.243 113.513 24.8258C114.129 25.392 114.68 26.0295 115.179 26.718C115.428 27.0592 115.666 27.4155 115.885 27.7717C116.106 28.1325 116.298 28.4842 116.496 28.8735C116.552 28.992 116.608 29.1097 116.666 29.2312" fill="#CC4141"/>
<path id="Path_2" d="M118.762 50.703C115.454 54.3682 110.636 56.6752 105.275 56.6752C98.9423 56.6752 93.3753 53.46 90.1482 48.594C93.2706 52.044 98.018 54.2482 103.332 54.2482C107.463 54.2482 111.246 52.9185 114.2 50.7045H118.763V50.703H118.762Z" fill="#CC4141"/>
<path id="Path_3" d="M123.339 38.8327V38.9077H119.723C119.716 38.7629 119.704 38.6002 119.699 38.4149C119.656 37.6492 119.603 36.5549 119.441 35.2312C119.271 33.9164 118.999 32.3617 118.413 30.7814C118.121 29.9864 117.761 29.2027 117.314 28.4264C117.106 28.0642 116.861 27.6727 116.608 27.3112C116.359 26.9422 116.091 26.5852 115.806 26.2402C115.248 25.5517 114.616 24.9007 113.936 24.3442C113.278 23.7922 112.581 23.2717 111.874 22.8337C111.166 22.3919 110.44 22.0327 109.73 21.7544C109.023 21.4679 108.322 21.2969 107.673 21.1559C107.573 21.1379 107.468 21.1222 107.371 21.1064C116.361 22.1339 123.339 29.6759 123.339 38.8327" fill="#CC4141"/>
<path id="Path_4" d="M71.4954 39.2918C71.0208 38.5125 70.2618 37.8623 69.2154 37.3365C68.1743 36.807 66.444 36.2895 64.0336 35.7743C63.0577 35.574 62.4405 35.3528 62.1782 35.1263C61.9143 34.8975 61.7778 34.6455 61.7778 34.3628C61.7778 33.9803 61.9393 33.6525 62.2654 33.3825C62.5899 33.114 63.0744 32.979 63.7151 32.979C64.4931 32.979 65.1042 33.1583 65.5493 33.5198C65.9898 33.882 66.2825 34.4625 66.419 35.2568L71.6243 34.9538C71.3946 33.123 70.6811 31.7873 69.4838 30.9465C68.2858 30.1058 66.5464 29.6858 64.2626 29.6858C62.4034 29.6858 60.9377 29.9213 59.8731 30.3825C58.8025 30.8423 58.0018 31.4798 57.4717 32.2853C56.9402 33.093 56.6726 33.9503 56.6726 34.8585C56.6726 36.2408 57.1942 37.3755 58.2361 38.2703C59.2642 39.162 60.9923 39.8783 63.4118 40.4138C64.8934 40.7348 65.8352 41.079 66.2393 41.4383C66.6472 41.7983 66.8482 42.207 66.8482 42.6698C66.8482 43.149 66.6366 43.5765 66.2082 43.9388C65.7836 44.3033 65.1853 44.4075 64.399 44.4075C63.3451 44.4075 62.5186 44.13 61.9514 43.4138C61.5989 42.9758 61.3714 42.3315 61.2546 41.4893L56 41.8133C56.157 43.593 56.8204 45.0638 57.9874 46.2225C59.1588 47.3798 61.2614 47.958 64.2974 47.958C66.0277 47.958 67.4639 47.7135 68.6005 47.2155C69.7355 46.7235 70.6212 45.9998 71.2543 45.0405C71.8874 44.0865 72.2067 43.0425 72.2067 41.907C72.2082 40.9433 71.9701 40.0725 71.4954 39.2918" fill="#343334"/>
<path id="Path_5" d="M89.2292 41.9288C89.2292 43.0388 88.9274 44.0573 88.3178 45.0008C88.3041 45.0196 88.2912 45.0421 88.2784 45.0623C88.1813 45.2101 88.0774 45.3511 87.9629 45.4853C87.3647 46.2368 86.5799 46.8211 85.6215 47.2388C84.4864 47.7323 83.0518 47.9768 81.32 47.9768C78.2787 47.9768 76.1798 47.4001 75.0076 46.2398C73.8384 45.0856 73.1772 43.6148 73.021 41.8321L78.2718 41.5066C78.3848 42.3488 78.6199 42.9908 78.9671 43.4348C79.5366 44.1466 80.3502 44.4248 81.4102 44.4248C82.1935 44.4248 82.7985 44.3213 83.2269 43.9561C83.6493 43.5901 83.8684 43.1671 83.8684 42.6863C83.8684 42.2273 83.6629 41.8171 83.2573 41.4556C82.8509 41.0941 81.9122 40.7521 80.4321 40.4288C78.0102 39.8911 76.2822 39.1748 75.2533 38.2853C74.2152 37.3943 73.6928 36.2566 73.6928 34.8758C73.6928 33.9683 73.959 33.1103 74.492 32.3026C75.025 31.4941 75.822 30.8611 76.8926 30.3968C77.964 29.9318 79.4259 29.7061 81.2851 29.7061C83.5682 29.7061 85.3114 30.1246 86.5071 30.9631C87.0492 31.3418 87.4943 31.8263 87.8355 32.4128C87.9599 32.6183 88.0698 32.8411 88.1639 33.0743C88.3974 33.6308 88.5574 34.2646 88.6416 34.9688L87.6179 35.0266L86.8051 35.0753L83.44 35.2688C83.2997 34.4738 83.0116 33.8963 82.5726 33.5318C82.1275 33.1748 81.5156 32.9911 80.7399 32.9911C80.0962 32.9911 79.6154 33.1261 79.2886 33.3968C78.9634 33.6631 78.8011 33.9908 78.8011 34.3808C78.8011 34.6576 78.93 34.9096 79.1999 35.1353C79.46 35.3701 80.0765 35.5868 81.0546 35.7856C83.4643 36.3023 85.1931 36.8236 86.2364 37.3486C86.2811 37.3711 86.3244 37.3943 86.3661 37.4168C86.6807 37.5833 86.9704 37.7603 87.2305 37.9501C87.7772 38.3498 88.2056 38.7998 88.5157 39.3046C88.9911 40.0891 89.2292 40.9606 89.2292 41.9288" fill="#343334"/>
<path id="Path_6" d="M114.158 30.0098L110.225 47.6738H104.804L101.672 36.5513L98.5556 47.6738H93.1417L89.2838 30.5265V30.525L89.2133 30.2063L89.1678 30.0098H94.4095L96.2968 39.897L99.0613 30.0098H104.281L107.053 39.8843L108.945 30.0098H114.158Z" fill="#343334"/>
<rect id="Rectangle" x="119.701" y="39.837" width="4.55097" height="4.503" fill="#333333"/>
<rect id="Rectangle_2" x="114.207" y="39.837" width="4.55248" height="4.503" fill="#797979"/>
<rect id="Rectangle_3" x="119.701" y="45.27" width="4.55097" height="4.5045" fill="#CC4141"/>
<rect id="Rectangle_4" x="114.207" y="45.27" width="4.55248" height="4.5045" fill="#AAAAAA"/>
</g>
</g>
<path id="Rules" d="M51.9531 74.6719C53.0469 74.6719 53.9102 74.4531 54.543 74.0156C55.1836 73.5781 55.5039 72.7891 55.5039 71.6484C55.5039 70.4219 55.0586 69.5859 54.168 69.1406C53.6914 68.9062 53.0547 68.7891 52.2578 68.7891H46.5625V74.6719H51.9531ZM44.2305 66.7852H52.1992C53.5117 66.7852 54.5938 66.9766 55.4453 67.3594C57.0625 68.0938 57.8711 69.4492 57.8711 71.4258C57.8711 72.457 57.6562 73.3008 57.2266 73.957C56.8047 74.6133 56.2109 75.1406 55.4453 75.5391C56.1172 75.8125 56.6211 76.1719 56.957 76.6172C57.3008 77.0625 57.4922 77.7852 57.5312 78.7852L57.6133 81.0938C57.6367 81.75 57.6914 82.2383 57.7773 82.5586C57.918 83.1055 58.168 83.457 58.5273 83.6133V84H55.668C55.5898 83.8516 55.5273 83.6602 55.4805 83.4258C55.4336 83.1914 55.3945 82.7383 55.3633 82.0664L55.2227 79.1953C55.168 78.0703 54.75 77.3164 53.9688 76.9336C53.5234 76.7227 52.8242 76.6172 51.8711 76.6172H46.5625V84H44.2305V66.7852ZM66.2383 71.168C67.1289 71.168 67.9922 71.3789 68.8281 71.8008C69.6641 72.2148 70.3008 72.7539 70.7383 73.418C71.1602 74.0508 71.4414 74.7891 71.582 75.6328C71.707 76.2109 71.7695 77.1328 71.7695 78.3984H62.5703C62.6094 79.6719 62.9102 80.6953 63.4727 81.4688C64.0352 82.2344 64.9062 82.6172 66.0859 82.6172C67.1875 82.6172 68.0664 82.2539 68.7227 81.5273C69.0977 81.1055 69.3633 80.6172 69.5195 80.0625H71.5938C71.5391 80.5234 71.3555 81.0391 71.043 81.6094C70.7383 82.1719 70.3945 82.6328 70.0117 82.9922C69.3711 83.6172 68.5781 84.0391 67.6328 84.2578C67.125 84.3828 66.5508 84.4453 65.9102 84.4453C64.3477 84.4453 63.0234 83.8789 61.9375 82.7461C60.8516 81.6055 60.3086 80.0117 60.3086 77.9648C60.3086 75.9492 60.8555 74.3125 61.9492 73.0547C63.043 71.7969 64.4727 71.168 66.2383 71.168ZM69.6016 76.7227C69.5156 75.8086 69.3164 75.0781 69.0039 74.5312C68.4258 73.5156 67.4609 73.0078 66.1094 73.0078C65.1406 73.0078 64.3281 73.3594 63.6719 74.0625C63.0156 74.7578 62.668 75.6445 62.6289 76.7227H69.6016ZM75.3438 71.4492L77.7578 81.3398L80.207 71.4492H82.5742L85.0352 81.2812L87.6016 71.4492H89.7109L86.0664 84H83.875L81.3203 74.2852L78.8477 84H76.6562L73.0352 71.4492H75.3438ZM93.332 80.6602C93.332 81.2695 93.5547 81.75 94 82.1016C94.4453 82.4531 94.9727 82.6289 95.582 82.6289C96.3242 82.6289 97.043 82.457 97.7383 82.1133C98.9102 81.543 99.4961 80.6094 99.4961 79.3125V77.6133C99.2383 77.7773 98.9062 77.9141 98.5 78.0234C98.0938 78.1328 97.6953 78.2109 97.3047 78.2578L96.0273 78.4219C95.2617 78.5234 94.6875 78.6836 94.3047 78.9023C93.6562 79.2695 93.332 79.8555 93.332 80.6602ZM98.4414 76.3945C98.9258 76.332 99.25 76.1289 99.4141 75.7852C99.5078 75.5977 99.5547 75.3281 99.5547 74.9766C99.5547 74.2578 99.2969 73.7383 98.7812 73.418C98.2734 73.0898 97.543 72.9258 96.5898 72.9258C95.4883 72.9258 94.707 73.2227 94.2461 73.8164C93.9883 74.1445 93.8203 74.6328 93.7422 75.2812H91.7734C91.8125 73.7344 92.3125 72.6602 93.2734 72.0586C94.2422 71.4492 95.3633 71.1445 96.6367 71.1445C98.1133 71.1445 99.3125 71.4258 100.234 71.9883C101.148 72.5508 101.605 73.4258 101.605 74.6133V81.8438C101.605 82.0625 101.648 82.2383 101.734 82.3711C101.828 82.5039 102.02 82.5703 102.309 82.5703C102.402 82.5703 102.508 82.5664 102.625 82.5586C102.742 82.543 102.867 82.5234 103 82.5V84.0586C102.672 84.1523 102.422 84.2109 102.25 84.2344C102.078 84.2578 101.844 84.2695 101.547 84.2695C100.82 84.2695 100.293 84.0117 99.9648 83.4961C99.793 83.2227 99.6719 82.8359 99.6016 82.3359C99.1719 82.8984 98.5547 83.3867 97.75 83.8008C96.9453 84.2148 96.0586 84.4219 95.0898 84.4219C93.9258 84.4219 92.9727 84.0703 92.2305 83.3672C91.4961 82.6562 91.1289 81.7695 91.1289 80.707C91.1289 79.543 91.4922 78.6406 92.2188 78C92.9453 77.3594 93.8984 76.9648 95.0781 76.8164L98.4414 76.3945ZM105.133 71.4492H107.137V73.6172C107.301 73.1953 107.703 72.6836 108.344 72.082C108.984 71.4727 109.723 71.168 110.559 71.168C110.598 71.168 110.664 71.1719 110.758 71.1797C110.852 71.1875 111.012 71.2031 111.238 71.2266V73.4531C111.113 73.4297 110.996 73.4141 110.887 73.4062C110.785 73.3984 110.672 73.3945 110.547 73.3945C109.484 73.3945 108.668 73.7383 108.098 74.4258C107.527 75.1055 107.242 75.8906 107.242 76.7812V84H105.133V71.4492ZM114.402 77.8711C114.402 79.2148 114.688 80.3398 115.258 81.2461C115.828 82.1523 116.742 82.6055 118 82.6055C118.977 82.6055 119.777 82.1875 120.402 81.3516C121.035 80.5078 121.352 79.3008 121.352 77.7305C121.352 76.1445 121.027 74.9727 120.379 74.2148C119.73 73.4492 118.93 73.0664 117.977 73.0664C116.914 73.0664 116.051 73.4727 115.387 74.2852C114.73 75.0977 114.402 76.293 114.402 77.8711ZM117.578 71.2266C118.539 71.2266 119.344 71.4297 119.992 71.8359C120.367 72.0703 120.793 72.4805 121.27 73.0664V66.7266H123.297V84H121.398V82.2539C120.906 83.0273 120.324 83.5859 119.652 83.9297C118.98 84.2734 118.211 84.4453 117.344 84.4453C115.945 84.4453 114.734 83.8594 113.711 82.6875C112.688 81.5078 112.176 79.9414 112.176 77.9883C112.176 76.1602 112.641 74.5781 113.57 73.2422C114.508 71.8984 115.844 71.2266 117.578 71.2266ZM127.68 80.0625C127.742 80.7656 127.918 81.3047 128.207 81.6797C128.738 82.3594 129.66 82.6992 130.973 82.6992C131.754 82.6992 132.441 82.5312 133.035 82.1953C133.629 81.8516 133.926 81.3242 133.926 80.6133C133.926 80.0742 133.688 79.6641 133.211 79.3828C132.906 79.2109 132.305 79.0117 131.406 78.7852L129.73 78.3633C128.66 78.0977 127.871 77.8008 127.363 77.4727C126.457 76.9023 126.004 76.1133 126.004 75.1055C126.004 73.918 126.43 72.957 127.281 72.2227C128.141 71.4883 129.293 71.1211 130.738 71.1211C132.629 71.1211 133.992 71.6758 134.828 72.7852C135.352 73.4883 135.605 74.2461 135.59 75.0586H133.598C133.559 74.582 133.391 74.1484 133.094 73.7578C132.609 73.2031 131.77 72.9258 130.574 72.9258C129.777 72.9258 129.172 73.0781 128.758 73.3828C128.352 73.6875 128.148 74.0898 128.148 74.5898C128.148 75.1367 128.418 75.5742 128.957 75.9023C129.27 76.0977 129.73 76.2695 130.34 76.418L131.734 76.7578C133.25 77.125 134.266 77.4805 134.781 77.8242C135.602 78.3633 136.012 79.2109 136.012 80.3672C136.012 81.4844 135.586 82.4492 134.734 83.2617C133.891 84.0742 132.602 84.4805 130.867 84.4805C129 84.4805 127.676 84.0586 126.895 83.2148C126.121 82.3633 125.707 81.3125 125.652 80.0625H127.68Z" fill="#414141"/>
</g>
</svg>
