<svg width="180" height="108" viewBox="0 0 180 108" fill="none" xmlns="http://www.w3.org/2000/svg">
<g id="SSW-Rules-vertical-BW">
<g id="SSWLogo 2">
<g id="SSWLogo">
<path id="Path" d="M116.666 29.2312C113.545 25.6875 108.732 23.4158 103.337 23.4158C98.0217 23.4158 93.2782 25.6148 90.158 29.0588C93.2676 24.3735 98.5502 21.2198 104.593 21C104.762 21.006 104.94 21.0098 105.133 21.0203C105.362 21.03 105.604 21.063 105.872 21.087C106.398 21.144 106.989 21.2475 107.621 21.399C108.244 21.5722 108.921 21.7755 109.593 22.0912C110.264 22.4002 110.939 22.7865 111.599 23.25C112.255 23.7127 112.888 24.243 113.513 24.8258C114.129 25.392 114.68 26.0295 115.179 26.718C115.428 27.0592 115.666 27.4155 115.885 27.7717C116.106 28.1325 116.298 28.4842 116.496 28.8735C116.552 28.992 116.608 29.1097 116.666 29.2312" fill="#333333"/>
<path id="Path_2" d="M118.762 50.703C115.454 54.3682 110.636 56.6752 105.275 56.6752C98.9423 56.6752 93.3752 53.46 90.1482 48.594C93.2706 52.044 98.018 54.2482 103.332 54.2482C107.463 54.2482 111.246 52.9185 114.2 50.7045H118.763V50.703H118.762Z" fill="#333333"/>
<path id="Path_3" d="M123.339 38.8327V38.9077H119.723C119.716 38.7629 119.704 38.6002 119.699 38.4149C119.656 37.6492 119.603 36.5549 119.441 35.2312C119.271 33.9164 118.999 32.3617 118.413 30.7814C118.121 29.9864 117.761 29.2027 117.314 28.4264C117.106 28.0642 116.861 27.6727 116.608 27.3112C116.359 26.9422 116.091 26.5852 115.806 26.2402C115.248 25.5517 114.616 24.9007 113.936 24.3442C113.278 23.7922 112.581 23.2717 111.874 22.8337C111.166 22.3919 110.44 22.0327 109.73 21.7544C109.023 21.4679 108.322 21.2969 107.673 21.1559C107.573 21.1379 107.468 21.1222 107.371 21.1064C116.361 22.1339 123.339 29.6759 123.339 38.8327" fill="#333333"/>
<path id="Path_4" d="M71.4954 39.2918C71.0208 38.5125 70.2618 37.8623 69.2154 37.3365C68.1743 36.807 66.444 36.2895 64.0336 35.7743C63.0577 35.574 62.4405 35.3528 62.1782 35.1263C61.9143 34.8975 61.7778 34.6455 61.7778 34.3628C61.7778 33.9803 61.9393 33.6525 62.2654 33.3825C62.5899 33.114 63.0744 32.979 63.7151 32.979C64.4931 32.979 65.1042 33.1583 65.5493 33.5198C65.9898 33.882 66.2825 34.4625 66.419 35.2568L71.6243 34.9538C71.3946 33.123 70.6811 31.7873 69.4838 30.9465C68.2858 30.1058 66.5464 29.6858 64.2626 29.6858C62.4034 29.6858 60.9377 29.9213 59.8731 30.3825C58.8025 30.8423 58.0018 31.4798 57.4717 32.2853C56.9402 33.093 56.6726 33.9503 56.6726 34.8585C56.6726 36.2408 57.1942 37.3755 58.2361 38.2703C59.2642 39.162 60.9923 39.8783 63.4118 40.4138C64.8934 40.7348 65.8352 41.079 66.2393 41.4383C66.6472 41.7983 66.8482 42.207 66.8482 42.6698C66.8482 43.149 66.6366 43.5765 66.2082 43.9388C65.7836 44.3033 65.1853 44.4075 64.399 44.4075C63.3451 44.4075 62.5186 44.13 61.9514 43.4138C61.5989 42.9758 61.3714 42.3315 61.2546 41.4893L56 41.8133C56.157 43.593 56.8204 45.0638 57.9874 46.2225C59.1588 47.3798 61.2614 47.958 64.2974 47.958C66.0277 47.958 67.4639 47.7135 68.6005 47.2155C69.7355 46.7235 70.6212 45.9998 71.2543 45.0405C71.8874 44.0865 72.2067 43.0425 72.2067 41.907C72.2082 40.9433 71.9701 40.0725 71.4954 39.2918" fill="#333333"/>
<path id="Path_5" d="M89.2292 41.9288C89.2292 43.0388 88.9274 44.0573 88.3178 45.0008C88.3041 45.0196 88.2912 45.0421 88.2783 45.0623C88.1813 45.2101 88.0774 45.3511 87.9629 45.4853C87.3647 46.2368 86.5799 46.8211 85.6215 47.2388C84.4864 47.7323 83.0518 47.9768 81.32 47.9768C78.2786 47.9768 76.1798 47.4001 75.0076 46.2398C73.8384 45.0856 73.1772 43.6148 73.021 41.8321L78.2718 41.5066C78.3848 42.3488 78.6199 42.9908 78.9671 43.4348C79.5366 44.1466 80.3502 44.4248 81.4102 44.4248C82.1934 44.4248 82.7985 44.3213 83.2269 43.9561C83.6493 43.5901 83.8684 43.1671 83.8684 42.6863C83.8684 42.2273 83.6629 41.8171 83.2573 41.4556C82.8508 41.0941 81.9121 40.7521 80.4321 40.4288C78.0102 39.8911 76.2822 39.1748 75.2533 38.2853C74.2152 37.3943 73.6928 36.2566 73.6928 34.8758C73.6928 33.9683 73.9589 33.1103 74.492 32.3026C75.025 31.4941 75.8219 30.8611 76.8926 30.3968C77.964 29.9318 79.4259 29.7061 81.2851 29.7061C83.5681 29.7061 85.3113 30.1246 86.5071 30.9631C87.0492 31.3418 87.4943 31.8263 87.8355 32.4128C87.9599 32.6183 88.0698 32.8411 88.1638 33.0743C88.3974 33.6308 88.5574 34.2646 88.6415 34.9688L87.6179 35.0266L86.8051 35.0753L83.44 35.2688C83.2997 34.4738 83.0116 33.8963 82.5726 33.5318C82.1275 33.1748 81.5156 32.9911 80.7399 32.9911C80.0961 32.9911 79.6154 33.1261 79.2886 33.3968C78.9633 33.6631 78.8011 33.9908 78.8011 34.3808C78.8011 34.6576 78.93 34.9096 79.1999 35.1353C79.46 35.3701 80.0764 35.5868 81.0546 35.7856C83.4643 36.3023 85.1931 36.8236 86.2364 37.3486C86.2811 37.3711 86.3243 37.3943 86.3661 37.4168C86.6807 37.5833 86.9704 37.7603 87.2304 37.9501C87.7771 38.3498 88.2055 38.7998 88.5157 39.3046C88.9911 40.0891 89.2292 40.9606 89.2292 41.9288" fill="#333333"/>
<path id="Path_6" d="M114.158 30.0098L110.225 47.6738H104.804L101.672 36.5513L98.5556 47.6738H93.1417L89.2838 30.5265V30.525L89.2133 30.2063L89.1678 30.0098H94.4095L96.2968 39.897L99.0613 30.0098H104.281L107.053 39.8843L108.945 30.0098H114.158Z" fill="#333333"/>
<rect id="Rectangle" x="119.701" y="39.837" width="4.55097" height="4.503" fill="#333333"/>
<rect id="Rectangle_2" x="114.207" y="39.837" width="4.55248" height="4.503" fill="#333333"/>
<rect id="Rectangle_3" x="119.701" y="45.27" width="4.55097" height="4.5045" fill="#333333"/>
<rect id="Rectangle_4" x="114.207" y="45.27" width="4.55248" height="4.5045" fill="#333333"/>
</g>
</g>
<path id="Rules" d="M67.832 74.6719C68.9258 74.6719 69.7891 74.4531 70.4219 74.0156C71.0625 73.5781 71.3828 72.7891 71.3828 71.6484C71.3828 70.4219 70.9375 69.5859 70.0469 69.1406C69.5703 68.9062 68.9336 68.7891 68.1367 68.7891H62.4414V74.6719H67.832ZM60.1094 66.7852H68.0781C69.3906 66.7852 70.4727 66.9766 71.3242 67.3594C72.9414 68.0938 73.75 69.4492 73.75 71.4258C73.75 72.457 73.5352 73.3008 73.1055 73.957C72.6836 74.6133 72.0898 75.1406 71.3242 75.5391C71.9961 75.8125 72.5 76.1719 72.8359 76.6172C73.1797 77.0625 73.3711 77.7852 73.4102 78.7852L73.4922 81.0938C73.5156 81.75 73.5703 82.2383 73.6562 82.5586C73.7969 83.1055 74.0469 83.457 74.4062 83.6133V84H71.5469C71.4688 83.8516 71.4062 83.6602 71.3594 83.4258C71.3125 83.1914 71.2734 82.7383 71.2422 82.0664L71.1016 79.1953C71.0469 78.0703 70.6289 77.3164 69.8477 76.9336C69.4023 76.7227 68.7031 76.6172 67.75 76.6172H62.4414V84H60.1094V66.7852ZM79 71.4492V79.7812C79 80.4219 79.1016 80.9453 79.3047 81.3516C79.6797 82.1016 80.3789 82.4766 81.4023 82.4766C82.8711 82.4766 83.8711 81.8203 84.4023 80.5078C84.6914 79.8047 84.8359 78.8398 84.8359 77.6133V71.4492H86.9453V84H84.9531L84.9766 82.1484C84.7031 82.625 84.3633 83.0273 83.957 83.3555C83.1523 84.0117 82.1758 84.3398 81.0273 84.3398C79.2383 84.3398 78.0195 83.7422 77.3711 82.5469C77.0195 81.9062 76.8438 81.0508 76.8438 79.9805V71.4492H79ZM90.3086 66.7852H92.418V84H90.3086V66.7852ZM100.82 71.168C101.711 71.168 102.574 71.3789 103.41 71.8008C104.246 72.2148 104.883 72.7539 105.32 73.418C105.742 74.0508 106.023 74.7891 106.164 75.6328C106.289 76.2109 106.352 77.1328 106.352 78.3984H97.1523C97.1914 79.6719 97.4922 80.6953 98.0547 81.4688C98.6172 82.2344 99.4883 82.6172 100.668 82.6172C101.77 82.6172 102.648 82.2539 103.305 81.5273C103.68 81.1055 103.945 80.6172 104.102 80.0625H106.176C106.121 80.5234 105.938 81.0391 105.625 81.6094C105.32 82.1719 104.977 82.6328 104.594 82.9922C103.953 83.6172 103.16 84.0391 102.215 84.2578C101.707 84.3828 101.133 84.4453 100.492 84.4453C98.9297 84.4453 97.6055 83.8789 96.5195 82.7461C95.4336 81.6055 94.8906 80.0117 94.8906 77.9648C94.8906 75.9492 95.4375 74.3125 96.5312 73.0547C97.625 71.7969 99.0547 71.168 100.82 71.168ZM104.184 76.7227C104.098 75.8086 103.898 75.0781 103.586 74.5312C103.008 73.5156 102.043 73.0078 100.691 73.0078C99.7227 73.0078 98.9102 73.3594 98.2539 74.0625C97.5977 74.7578 97.25 75.6445 97.2109 76.7227H104.184ZM110.207 80.0625C110.27 80.7656 110.445 81.3047 110.734 81.6797C111.266 82.3594 112.188 82.6992 113.5 82.6992C114.281 82.6992 114.969 82.5312 115.562 82.1953C116.156 81.8516 116.453 81.3242 116.453 80.6133C116.453 80.0742 116.215 79.6641 115.738 79.3828C115.434 79.2109 114.832 79.0117 113.934 78.7852L112.258 78.3633C111.188 78.0977 110.398 77.8008 109.891 77.4727C108.984 76.9023 108.531 76.1133 108.531 75.1055C108.531 73.918 108.957 72.957 109.809 72.2227C110.668 71.4883 111.82 71.1211 113.266 71.1211C115.156 71.1211 116.52 71.6758 117.355 72.7852C117.879 73.4883 118.133 74.2461 118.117 75.0586H116.125C116.086 74.582 115.918 74.1484 115.621 73.7578C115.137 73.2031 114.297 72.9258 113.102 72.9258C112.305 72.9258 111.699 73.0781 111.285 73.3828C110.879 73.6875 110.676 74.0898 110.676 74.5898C110.676 75.1367 110.945 75.5742 111.484 75.9023C111.797 76.0977 112.258 76.2695 112.867 76.418L114.262 76.7578C115.777 77.125 116.793 77.4805 117.309 77.8242C118.129 78.3633 118.539 79.2109 118.539 80.3672C118.539 81.4844 118.113 82.4492 117.262 83.2617C116.418 84.0742 115.129 84.4805 113.395 84.4805C111.527 84.4805 110.203 84.0586 109.422 83.2148C108.648 82.3633 108.234 81.3125 108.18 80.0625H110.207Z" fill="#333333"/>
</g>
</svg>
