<svg width="180" height="108" viewBox="0 0 180 108" fill="none" xmlns="http://www.w3.org/2000/svg">
<g id="SSW-Rewards-Dark-BG">
<g id="Group" clip-path="url(#clip0_535_463)">
<g id="SSWLogo 2">
<g id="SSWLogo">
<path id="Path" d="M65.6662 44.3932C62.5452 40.8495 57.7319 38.5777 52.337 38.5777C47.0217 38.5777 42.2782 40.7767 39.158 44.2207C42.2676 39.5355 47.5502 36.3817 53.5927 36.162C53.7618 36.168 53.9399 36.1717 54.1325 36.1822C54.3615 36.192 54.6042 36.225 54.8718 36.249C55.398 36.306 55.9895 36.4095 56.6211 36.561C57.2444 36.7342 57.9215 36.9375 58.5925 37.2532C59.2636 37.5622 59.9392 37.9485 60.5988 38.412C61.2555 38.8747 61.8878 39.405 62.5126 39.9877C63.1291 40.554 63.6796 41.1915 64.1792 41.88C64.4279 42.2212 64.666 42.5775 64.8852 42.9337C65.1058 43.2945 65.2984 43.6462 65.4955 44.0355C65.5524 44.154 65.6078 44.2717 65.6662 44.3932" fill="#CC4141"/>
<path id="Path_2" d="M67.762 65.865C64.4538 69.5302 59.6359 71.8372 54.2751 71.8372C47.9423 71.8372 42.3753 68.622 39.1482 63.756C42.2706 67.206 47.018 69.4102 52.3317 69.4102C56.4634 69.4102 60.2463 68.0805 63.2004 65.8665H67.7627V65.865H67.762Z" fill="#CC4141"/>
<path id="Path_3" d="M72.3387 53.9947V54.0697H68.7234C68.7158 53.9249 68.7044 53.7622 68.6991 53.5769C68.6559 52.8112 68.6028 51.7169 68.4413 50.3932C68.2715 49.0784 67.9992 47.5237 67.4131 45.9434C67.1212 45.1484 66.761 44.3647 66.3144 43.5884C66.1059 43.2262 65.861 42.8347 65.6078 42.4732C65.359 42.1042 65.0914 41.7472 64.8063 41.4022C64.2482 40.7137 63.6158 40.0627 62.9365 39.5062C62.2776 38.9542 61.5807 38.4337 60.874 37.9957C60.1658 37.5539 59.4402 37.1947 58.7297 36.9164C58.0231 36.6299 57.3224 36.4589 56.6726 36.3179C56.5733 36.2999 56.4679 36.2842 56.3708 36.2684C65.3613 37.2959 72.3387 44.8379 72.3387 53.9947" fill="#CC4141"/>
<path id="Path_4" d="M20.4954 54.4538C20.0208 53.6745 19.2618 53.0243 18.2154 52.4985C17.1743 51.969 15.444 51.4515 13.0336 50.9363C12.0577 50.736 11.4405 50.5148 11.1782 50.2883C10.9143 50.0595 10.7778 49.8075 10.7778 49.5248C10.7778 49.1423 10.9393 48.8145 11.2654 48.5445C11.5899 48.276 12.0744 48.141 12.7151 48.141C13.4931 48.141 14.1042 48.3203 14.5493 48.6818C14.9898 49.044 15.2825 49.6245 15.419 50.4188L20.6243 50.1158C20.3946 48.285 19.6811 46.9493 18.4838 46.1085C17.2858 45.2678 15.5464 44.8478 13.2626 44.8478C11.4034 44.8478 9.93767 45.0833 8.8731 45.5445C7.80246 46.0043 7.00176 46.6418 6.47175 47.4473C5.94022 48.255 5.67256 49.1123 5.67256 50.0205C5.67256 51.4028 6.19423 52.5375 7.23605 53.4323C8.26423 54.324 9.99226 55.0403 12.4118 55.5758C13.8934 55.8968 14.8352 56.241 15.2393 56.6003C15.6472 56.9603 15.8482 57.369 15.8482 57.8318C15.8482 58.311 15.6366 58.7385 15.2082 59.1008C14.7836 59.4653 14.1853 59.5695 13.399 59.5695C12.3451 59.5695 11.5186 59.292 10.9514 58.5758C10.5989 58.1378 10.3714 57.4935 10.2546 56.6513L5 56.9753C5.15696 58.755 5.82042 60.2258 6.98735 61.3845C8.15884 62.5418 10.2614 63.12 13.2974 63.12C15.0277 63.12 16.4639 62.8755 17.6005 62.3775C18.7355 61.8855 19.6212 61.1618 20.2543 60.2025C20.8874 59.2485 21.2067 58.2045 21.2067 57.069C21.2082 56.1053 20.9701 55.2345 20.4954 54.4538" fill="white"/>
<path id="Path_5" d="M38.2292 57.0908C38.2292 58.2008 37.9274 59.2193 37.3178 60.1628C37.3041 60.1815 37.2912 60.204 37.2783 60.2243C37.1813 60.372 37.0774 60.513 36.9629 60.6473C36.3647 61.3988 35.5799 61.983 34.6215 62.4008C33.4864 62.8943 32.0518 63.1388 30.32 63.1388C27.2786 63.1388 25.1798 62.562 24.0076 61.4018C22.8384 60.2475 22.1772 58.7768 22.021 56.994L27.2718 56.6685C27.3848 57.5108 27.6199 58.1528 27.9671 58.5968C28.5366 59.3085 29.3502 59.5868 30.4102 59.5868C31.1934 59.5868 31.7985 59.4833 32.2269 59.118C32.6493 58.752 32.8684 58.329 32.8684 57.8483C32.8684 57.3893 32.6629 56.979 32.2573 56.6175C31.8508 56.256 30.9121 55.914 29.4321 55.5908C27.0102 55.053 25.2822 54.3368 24.2533 53.4473C23.2152 52.5563 22.6928 51.4185 22.6928 50.0378C22.6928 49.1303 22.9589 48.2723 23.492 47.4645C24.025 46.656 24.8219 46.023 25.8926 45.5588C26.964 45.0938 28.4259 44.868 30.2851 44.868C32.5681 44.868 34.3113 45.2865 35.5071 46.125C36.0492 46.5038 36.4943 46.9883 36.8355 47.5748C36.9599 47.7803 37.0698 48.003 37.1638 48.2363C37.3974 48.7928 37.5574 49.4265 37.6415 50.1308L36.6179 50.1885L35.8051 50.2373L32.44 50.4308C32.2997 49.6358 32.0116 49.0583 31.5726 48.6938C31.1275 48.3368 30.5156 48.153 29.7399 48.153C29.0961 48.153 28.6154 48.288 28.2886 48.5588C27.9633 48.825 27.8011 49.1528 27.8011 49.5428C27.8011 49.8195 27.93 50.0715 28.1999 50.2973C28.46 50.532 29.0764 50.7488 30.0546 50.9475C32.4643 51.4643 34.1931 51.9855 35.2364 52.5105C35.2811 52.533 35.3243 52.5563 35.3661 52.5788C35.6807 52.7453 35.9704 52.9223 36.2304 53.112C36.7771 53.5118 37.2055 53.9618 37.5157 54.4665C37.9911 55.251 38.2292 56.1225 38.2292 57.0908" fill="white"/>
<path id="Path_6" d="M63.1579 45.1718L59.2249 62.8358H53.8042L50.672 51.7133L47.5556 62.8358H42.1417L38.2838 45.6885V45.687L38.2133 45.3683L38.1678 45.1718H43.4095L45.2968 55.059L48.0613 45.1718H53.2811L56.0532 55.0463L57.945 45.1718H63.1579Z" fill="white"/>
<rect id="Rectangle" x="68.7014" y="54.999" width="4.55097" height="4.503" fill="white"/>
<rect id="Rectangle_2" x="63.2072" y="54.999" width="4.55248" height="4.503" fill="white"/>
<rect id="Rectangle_3" x="68.7014" y="60.432" width="4.55097" height="4.5045" fill="white"/>
<rect id="Rectangle_4" x="63.2072" y="60.432" width="4.55248" height="4.5045" fill="white"/>
</g>
</g>
<path id="Rewards" d="M89.832 52.6719C90.9258 52.6719 91.7891 52.4531 92.4219 52.0156C93.0625 51.5781 93.3828 50.7891 93.3828 49.6484C93.3828 48.4219 92.9375 47.5859 92.0469 47.1406C91.5703 46.9062 90.9336 46.7891 90.1367 46.7891H84.4414V52.6719H89.832ZM82.1094 44.7852H90.0781C91.3906 44.7852 92.4727 44.9766 93.3242 45.3594C94.9414 46.0938 95.75 47.4492 95.75 49.4258C95.75 50.457 95.5352 51.3008 95.1055 51.957C94.6836 52.6133 94.0898 53.1406 93.3242 53.5391C93.9961 53.8125 94.5 54.1719 94.8359 54.6172C95.1797 55.0625 95.3711 55.7852 95.4102 56.7852L95.4922 59.0938C95.5156 59.75 95.5703 60.2383 95.6562 60.5586C95.7969 61.1055 96.0469 61.457 96.4062 61.6133V62H93.5469C93.4688 61.8516 93.4062 61.6602 93.3594 61.4258C93.3125 61.1914 93.2734 60.7383 93.2422 60.0664L93.1016 57.1953C93.0469 56.0703 92.6289 55.3164 91.8477 54.9336C91.4023 54.7227 90.7031 54.6172 89.75 54.6172H84.4414V62H82.1094V44.7852ZM104.117 49.168C105.008 49.168 105.871 49.3789 106.707 49.8008C107.543 50.2148 108.18 50.7539 108.617 51.418C109.039 52.0508 109.32 52.7891 109.461 53.6328C109.586 54.2109 109.648 55.1328 109.648 56.3984H100.449C100.488 57.6719 100.789 58.6953 101.352 59.4688C101.914 60.2344 102.785 60.6172 103.965 60.6172C105.066 60.6172 105.945 60.2539 106.602 59.5273C106.977 59.1055 107.242 58.6172 107.398 58.0625H109.473C109.418 58.5234 109.234 59.0391 108.922 59.6094C108.617 60.1719 108.273 60.6328 107.891 60.9922C107.25 61.6172 106.457 62.0391 105.512 62.2578C105.004 62.3828 104.43 62.4453 103.789 62.4453C102.227 62.4453 100.902 61.8789 99.8164 60.7461C98.7305 59.6055 98.1875 58.0117 98.1875 55.9648C98.1875 53.9492 98.7344 52.3125 99.8281 51.0547C100.922 49.7969 102.352 49.168 104.117 49.168ZM107.48 54.7227C107.395 53.8086 107.195 53.0781 106.883 52.5312C106.305 51.5156 105.34 51.0078 103.988 51.0078C103.02 51.0078 102.207 51.3594 101.551 52.0625C100.895 52.7578 100.547 53.6445 100.508 54.7227H107.48ZM113.223 49.4492L115.637 59.3398L118.086 49.4492H120.453L122.914 59.2812L125.48 49.4492H127.59L123.945 62H121.754L119.199 52.2852L116.727 62H114.535L110.914 49.4492H113.223ZM131.211 58.6602C131.211 59.2695 131.434 59.75 131.879 60.1016C132.324 60.4531 132.852 60.6289 133.461 60.6289C134.203 60.6289 134.922 60.457 135.617 60.1133C136.789 59.543 137.375 58.6094 137.375 57.3125V55.6133C137.117 55.7773 136.785 55.9141 136.379 56.0234C135.973 56.1328 135.574 56.2109 135.184 56.2578L133.906 56.4219C133.141 56.5234 132.566 56.6836 132.184 56.9023C131.535 57.2695 131.211 57.8555 131.211 58.6602ZM136.32 54.3945C136.805 54.332 137.129 54.1289 137.293 53.7852C137.387 53.5977 137.434 53.3281 137.434 52.9766C137.434 52.2578 137.176 51.7383 136.66 51.418C136.152 51.0898 135.422 50.9258 134.469 50.9258C133.367 50.9258 132.586 51.2227 132.125 51.8164C131.867 52.1445 131.699 52.6328 131.621 53.2812H129.652C129.691 51.7344 130.191 50.6602 131.152 50.0586C132.121 49.4492 133.242 49.1445 134.516 49.1445C135.992 49.1445 137.191 49.4258 138.113 49.9883C139.027 50.5508 139.484 51.4258 139.484 52.6133V59.8438C139.484 60.0625 139.527 60.2383 139.613 60.3711C139.707 60.5039 139.898 60.5703 140.188 60.5703C140.281 60.5703 140.387 60.5664 140.504 60.5586C140.621 60.543 140.746 60.5234 140.879 60.5V62.0586C140.551 62.1523 140.301 62.2109 140.129 62.2344C139.957 62.2578 139.723 62.2695 139.426 62.2695C138.699 62.2695 138.172 62.0117 137.844 61.4961C137.672 61.2227 137.551 60.8359 137.48 60.3359C137.051 60.8984 136.434 61.3867 135.629 61.8008C134.824 62.2148 133.938 62.4219 132.969 62.4219C131.805 62.4219 130.852 62.0703 130.109 61.3672C129.375 60.6562 129.008 59.7695 129.008 58.707C129.008 57.543 129.371 56.6406 130.098 56C130.824 55.3594 131.777 54.9648 132.957 54.8164L136.32 54.3945ZM143.012 49.4492H145.016V51.6172C145.18 51.1953 145.582 50.6836 146.223 50.082C146.863 49.4727 147.602 49.168 148.438 49.168C148.477 49.168 148.543 49.1719 148.637 49.1797C148.73 49.1875 148.891 49.2031 149.117 49.2266V51.4531C148.992 51.4297 148.875 51.4141 148.766 51.4062C148.664 51.3984 148.551 51.3945 148.426 51.3945C147.363 51.3945 146.547 51.7383 145.977 52.4258C145.406 53.1055 145.121 53.8906 145.121 54.7812V62H143.012V49.4492ZM152.281 55.8711C152.281 57.2148 152.566 58.3398 153.137 59.2461C153.707 60.1523 154.621 60.6055 155.879 60.6055C156.855 60.6055 157.656 60.1875 158.281 59.3516C158.914 58.5078 159.23 57.3008 159.23 55.7305C159.23 54.1445 158.906 52.9727 158.258 52.2148C157.609 51.4492 156.809 51.0664 155.855 51.0664C154.793 51.0664 153.93 51.4727 153.266 52.2852C152.609 53.0977 152.281 54.293 152.281 55.8711ZM155.457 49.2266C156.418 49.2266 157.223 49.4297 157.871 49.8359C158.246 50.0703 158.672 50.4805 159.148 51.0664V44.7266H161.176V62H159.277V60.2539C158.785 61.0273 158.203 61.5859 157.531 61.9297C156.859 62.2734 156.09 62.4453 155.223 62.4453C153.824 62.4453 152.613 61.8594 151.59 60.6875C150.566 59.5078 150.055 57.9414 150.055 55.9883C150.055 54.1602 150.52 52.5781 151.449 51.2422C152.387 49.8984 153.723 49.2266 155.457 49.2266ZM165.559 58.0625C165.621 58.7656 165.797 59.3047 166.086 59.6797C166.617 60.3594 167.539 60.6992 168.852 60.6992C169.633 60.6992 170.32 60.5312 170.914 60.1953C171.508 59.8516 171.805 59.3242 171.805 58.6133C171.805 58.0742 171.566 57.6641 171.09 57.3828C170.785 57.2109 170.184 57.0117 169.285 56.7852L167.609 56.3633C166.539 56.0977 165.75 55.8008 165.242 55.4727C164.336 54.9023 163.883 54.1133 163.883 53.1055C163.883 51.918 164.309 50.957 165.16 50.2227C166.02 49.4883 167.172 49.1211 168.617 49.1211C170.508 49.1211 171.871 49.6758 172.707 50.7852C173.23 51.4883 173.484 52.2461 173.469 53.0586H171.477C171.438 52.582 171.27 52.1484 170.973 51.7578C170.488 51.2031 169.648 50.9258 168.453 50.9258C167.656 50.9258 167.051 51.0781 166.637 51.3828C166.23 51.6875 166.027 52.0898 166.027 52.5898C166.027 53.1367 166.297 53.5742 166.836 53.9023C167.148 54.0977 167.609 54.2695 168.219 54.418L169.613 54.7578C171.129 55.125 172.145 55.4805 172.66 55.8242C173.48 56.3633 173.891 57.2109 173.891 58.3672C173.891 59.4844 173.465 60.4492 172.613 61.2617C171.77 62.0742 170.48 62.4805 168.746 62.4805C166.879 62.4805 165.555 62.0586 164.773 61.2148C164 60.3633 163.586 59.3125 163.531 58.0625H165.559Z" fill="white"/>
</g>
</g>
<defs>
<clipPath id="clip0_535_463">
<rect width="170" height="36" fill="white" transform="translate(5 36)"/>
</clipPath>
</defs>
</svg>
