<svg width="180" height="108" viewBox="0 0 180 108" fill="none" xmlns="http://www.w3.org/2000/svg">
<g id="SSWTiger-Horizontal-Darkmode">
<g id="SSW-Tiger-Color-Horizontal">
<path id="Vector" d="M66.8137 56.4781H69.5356C69.5356 58.1733 70.8567 58.8418 72.3609 58.8418C73.3478 58.8418 74.8441 58.5553 74.8441 57.25C74.8441 55.8573 72.9101 55.6583 71.0557 55.141C69.1615 54.6794 67.2435 53.8676 67.2435 51.5118C67.2435 48.8855 69.7107 47.6519 72.0187 47.6519C74.6849 47.6519 77.1362 48.8138 77.1362 51.7665H74.4143C74.3267 50.2464 73.2523 49.8325 71.8914 49.8325C71 49.8325 69.9574 50.2066 69.9574 51.281C69.9574 52.2679 70.5623 52.4112 73.7696 53.215C74.7167 53.4299 77.558 54.0586 77.558 56.9317C77.558 59.2716 75.7354 61.0304 72.2495 61.0304C69.4242 61.0304 66.758 59.6377 66.8137 56.486V56.4781ZM78.4255 56.4781H81.1473C81.1473 58.1733 82.4685 58.8418 83.9727 58.8418C84.9596 58.8418 86.4558 58.5553 86.4558 57.25C86.4558 55.8573 84.5218 55.6583 82.6675 55.141C80.7733 54.6794 78.8552 53.8676 78.8552 51.5118C78.8552 48.8855 81.3224 47.6519 83.6305 47.6519C86.2966 47.6519 88.7479 48.8138 88.7479 51.7665H86.026C85.9385 50.2464 84.8641 49.8325 83.5031 49.8325C82.6117 49.8325 81.5692 50.2066 81.5692 51.281C81.5692 52.2679 82.174 52.4112 85.3814 53.215C86.3285 53.4299 89.1697 54.0586 89.1697 56.9317C89.1697 59.2716 87.3472 61.0304 83.8613 61.0304C81.0359 61.0304 78.3698 59.6377 78.4255 56.486V56.4781ZM106.432 47.9463L103.002 60.7121H100.216L98.0516 52.0212H98.0198L95.8948 60.7121H93.0536L89.6711 47.9463H92.4805L94.502 56.6372H94.5339L96.7544 47.9463H99.3807L101.561 56.7407H101.593L103.686 47.9463H106.44H106.432Z" fill="#CC4342"/>
<path id="Vector_2" d="M106.408 48.9807V47.946H116.532V48.9807H112.083V60.7118H110.865V48.9807H106.408ZM117.956 49.7527V47.946H119.086V49.7527H117.956ZM117.956 60.7118V51.4877H119.086V60.7118H117.956ZM129.035 51.4877V59.9637C129.035 62.7333 127.929 64.3967 124.936 64.3967C123.098 64.3967 121.251 63.5531 121.108 61.6111H122.238C122.469 62.9721 123.702 63.4496 124.936 63.4496C127.029 63.4496 127.905 62.2319 127.905 59.9637V58.7142H127.873C127.356 59.8602 126.281 60.6083 124.944 60.6083C121.991 60.6083 120.782 58.5152 120.782 55.8729C120.782 53.2306 122.286 51.225 124.944 51.225C126.305 51.225 127.427 52.0687 127.873 53.0874H127.905V51.4956H129.035V51.4877ZM124.944 59.6613C126.894 59.6613 127.913 57.8546 127.913 55.9923C127.913 54.13 127.093 52.1642 124.944 52.1642C122.795 52.1642 121.904 54.0742 121.904 55.9923C121.904 57.9103 122.851 59.6613 124.944 59.6613ZM131.836 55.4591H137.805C137.75 53.7639 136.675 52.1721 134.876 52.1721C133.078 52.1721 132.035 53.7798 131.836 55.4591ZM138.935 56.4061H131.836C131.836 58.0536 132.728 60.0353 134.876 60.0353C136.524 60.0353 137.415 59.0882 137.773 57.6716H138.904C138.418 59.7647 137.224 60.9824 134.876 60.9824C131.948 60.9824 130.714 58.7301 130.714 56.1037C130.714 53.6684 131.948 51.225 134.876 51.225C137.805 51.225 139.023 53.8196 138.935 56.4141V56.4061ZM140.448 60.7118V51.4877H141.482V53.6524H141.514C142.087 52.1482 143.337 51.2887 145 51.3603V52.4905C142.963 52.4029 141.57 53.8673 141.57 55.8013V60.7198H140.44L140.448 60.7118Z" fill="white"/>
<g id="Group">
<path id="Vector_3" d="M48.652 49.721C48.278 50.1985 47.6413 50.3895 47.2513 50.883C46.9091 51.3207 46.8136 51.8221 46.7021 52.3553C46.7817 52.4668 46.7897 52.3553 46.8215 52.3156C47.1717 51.8778 47.3627 51.5515 47.88 51.2491C48.5724 50.8512 48.9306 51.1058 49.4081 50.294C50.196 48.957 50.1403 47.3334 49.1614 46.1157C49.1375 46.4022 49.2648 46.6887 49.2887 46.9673C49.3683 47.9223 49.2489 48.9411 48.6441 49.7131L48.652 49.721Z" fill="#CC4241"/>
<path id="Vector_4" d="M48.0551 46.4341C48.0869 46.9753 47.6492 47.7393 47.0761 47.8109C46.3837 47.8985 45.2934 46.9355 44.4896 47.1106L45.4287 47.6836C46.145 48.2885 46.6702 49.156 46.71 50.111C46.8453 50.1349 46.7896 50.0951 46.8215 50.0394C47.0045 49.6414 46.9647 49.0445 46.9727 48.6148C48.0789 48.6307 48.6281 47.604 48.2222 46.6092C48.1824 46.5216 48.1824 46.4022 48.063 46.442H48.0551V46.4341Z" fill="#CC4241"/>
<path id="Vector_5" d="M43.8608 46.2748C44.1155 46.2589 44.4657 46.1634 44.7124 46.1714C45.1661 46.1714 45.6197 46.5772 46.0654 46.1236C46.1768 46.0122 46.2007 45.853 46.2962 45.7893C46.4474 45.6859 46.9409 45.654 47.1478 45.6063C47.2274 45.5904 47.2353 45.6381 47.2274 45.5028L45.6118 45.2561C44.991 45.5108 44.3782 45.845 43.8608 46.2828V46.2748Z" fill="#CC4241"/>
<path id="Vector_6" d="M49.0181 54.0664C49.0181 53.2466 48.5246 52.5622 47.8481 52.3393C48.8111 52.0448 49.8776 52.4667 50.6974 52.9044C50.7372 51.8936 50.6814 50.9227 50.387 49.9517L51.8912 50.676C52.0026 49.9676 51.0794 47.8347 50.7531 47.1582C52.3766 48.3281 53.1884 50.477 52.9258 52.4348C52.9019 52.5781 52.5517 51.8061 51.6285 51.6071C51.7399 52.6736 51.7002 53.7241 51.4216 54.7667C50.7769 54.1619 50.1243 53.4695 49.2489 53.2148C49.233 53.2466 49.4319 54.0186 49.0181 54.1539V54.0664Z" fill="#CC4241"/>
<path id="Vector_7" d="M35.5997 62.4152C36.2523 61.5556 37.1755 60.8155 38.1146 60.2743C40.7171 58.778 44.4657 58.7303 46.2882 56.0721C46.5907 55.6264 47.2274 54.0665 46.3599 53.9391C45.7232 53.8516 45.3093 54.5122 45.2456 55.0534C44.3781 55.2683 42.8501 54.8942 42.4362 54.0267C42.2452 53.6208 42.102 52.8886 42.3407 52.4907C42.3885 52.4111 42.4919 52.3952 42.5079 52.3394C42.5238 52.2917 42.4442 51.7425 42.4601 51.5675C42.476 51.4162 42.5397 51.273 42.5636 51.1297C42.9854 51.7107 43.256 52.5305 44.1473 52.1246C45.4207 51.5436 44.8477 49.5619 43.9563 48.8774C43.1923 48.2885 42.8262 48.8376 42.0622 49.0605C41.9905 49.5141 42.0462 49.9678 42.1418 50.4055C42.0542 50.493 41.4334 49.8484 41.3698 49.7608C41.2265 49.5778 41.131 49.2674 41.0037 49.1401C40.7967 48.9252 40.5023 48.8854 40.2635 48.5272C40.0327 48.177 39.8019 47.222 39.7621 46.8002C39.7143 46.3386 39.8735 46.3068 40.2078 46.068C40.7331 45.686 41.521 45.3278 42.1418 45.105C42.3328 45.0334 42.9774 44.906 43.057 44.8583C43.3117 44.6911 43.5345 44.1659 44.0041 43.9112C45.1581 43.2904 47.7208 43.0278 49.0101 43.171C49.4638 43.2188 50.1084 43.4416 50.5143 43.4337C50.9759 43.4337 51.6842 43.1949 52.1777 43.1233C52.3926 43.0914 53.7137 42.9482 53.7933 43.0198C53.9047 43.5292 53.9445 44.0067 53.8331 44.524C53.8013 44.6832 53.5784 45.2005 53.6102 45.288C55.966 47.031 57.4782 49.339 58.3775 52.1246C58.6561 52.9921 58.8312 53.4377 59.1893 54.2655C60.5104 57.3375 60.5343 60.4016 59.3087 63.5135C59.1973 63.8 58.4093 65.535 58.2263 65.5827H57.1917C57.1917 65.5827 57.0564 65.5191 57.0643 65.5031C58.664 62.9245 59.5315 59.8604 58.8709 56.8361L58.5844 57.815C58.1069 59.1919 56.8256 61.1259 55.5124 61.8342C55.4407 61.874 55.393 61.9217 55.2975 61.9058C55.2816 61.8103 55.2975 61.7546 55.3452 61.667C55.5362 61.3169 55.9581 60.8951 56.1968 60.4971C58.3775 56.8839 58.1626 53.0159 56.0138 49.4584L55.7671 49.1162C56.0297 50.6124 55.7671 52.1564 55.2099 53.5492L54.8916 54.1381C55.3214 51.5277 55.1383 48.0736 52.9497 46.1317C52.2891 46.6649 51.5489 46.7684 50.9043 46.1476C50.8804 46.0362 50.952 46.076 51.0157 46.06C51.3022 45.9725 51.5489 45.9247 51.8195 45.7735C52.3766 45.4552 52.886 44.715 52.8701 44.0544C51.7399 44.1102 50.6496 44.3171 49.6866 44.9379L49.9174 44.3171C49.3364 44.142 48.7554 44.0624 48.1585 44.0067C48.3575 44.3489 48.4371 44.7468 48.4132 45.1448C48.3495 45.2164 47.9834 44.6832 47.9198 44.6275C47.7765 44.4922 47.2672 44.1579 47.0841 44.1181C46.6305 44.0226 44.7442 44.4444 44.3304 44.7071C44.0518 44.8821 43.7017 45.495 43.5345 45.5666C43.2241 45.7099 42.6034 45.7894 42.2054 45.9407C41.8154 46.0919 41.314 46.3068 41.0116 46.5853H41.8393C41.8234 47.1663 40.6853 47.2857 40.8126 47.8905C40.8286 47.9622 40.9798 48.185 41.0355 48.2407C41.5767 48.7182 42.4601 47.9462 43.057 47.8746C45.174 47.6438 46.5907 51.1695 44.9034 52.5305C44.3145 53.008 43.7335 52.9443 43.0331 53.1035C42.9774 53.9869 43.8927 54.2097 44.601 54.2893C45.3491 52.7692 46.7817 52.8329 48.0471 53.6924C48.6997 54.1381 49.0579 54.7509 49.5752 55.324C51.0873 56.9953 52.9258 58.7382 52.9656 61.1736L52.2095 59.7808C51.159 58.1891 49.6309 56.9873 48.3575 55.5866C47.88 58.6666 49.8617 61.1816 51.8275 63.2747L51.7957 63.4578C51.7957 63.4578 51.7479 63.3543 51.6842 63.3065C51.3738 63.0837 50.9918 62.9006 50.6655 62.6698C48.7395 61.3009 47.1159 59.5182 46.9329 57.0351C45.2695 58.9531 45.2138 61.8023 45.6834 64.19C45.763 64.5879 45.8983 64.9699 45.9778 65.3678C45.9062 65.3678 45.8823 65.3838 45.8187 65.336C45.6754 65.2166 45.2934 64.5322 45.182 64.3253C44.3065 62.6858 44.0439 60.7598 44.4975 58.9531C43.7653 59.3988 42.8342 59.5182 42.1975 60.0673C40.7967 61.2612 39.8019 63.1394 39.3482 64.9062C39.2607 64.9222 39.3005 64.7869 39.3005 64.7232C39.2527 63.41 39.4438 62.256 39.9849 61.0622C40.0566 60.911 40.2317 60.6961 40.2794 60.5767C40.3033 60.513 40.2794 60.4892 40.2078 60.5051C40.0168 60.5528 39.6427 60.7359 39.4438 60.8314C37.4302 61.7626 35.8464 63.418 35.0903 65.5111L34 65.5827C34 65.5827 34.3024 64.1263 35.5997 62.4152Z" fill="#CC4241"/>
</g>
</g>
</g>
</svg>
