<svg width="180" height="108" viewBox="0 0 180 108" fill="none" xmlns="http://www.w3.org/2000/svg">
<g id="SSWTiger-horizontal">
<g id="SSW-Tiger-Color-Horizontal">
<path id="Vector" d="M67.8137 56.4778H70.5356C70.5356 58.173 71.8567 58.8415 73.3609 58.8415C74.3478 58.8415 75.844 58.555 75.844 57.2498C75.844 55.857 73.9101 55.6581 72.0557 55.1407C70.1615 54.6791 68.2435 53.8674 68.2435 51.5116C68.2435 48.8852 70.7107 47.6516 73.0187 47.6516C75.6849 47.6516 78.1362 48.8136 78.1362 51.7663H75.4143C75.3267 50.2461 74.2523 49.8323 72.8914 49.8323C72 49.8323 70.9574 50.2064 70.9574 51.2808C70.9574 52.2677 71.5623 52.4109 74.7696 53.2147C75.7167 53.4296 78.558 54.0584 78.558 56.9315C78.558 59.2713 76.7354 61.0302 73.2495 61.0302C70.4242 61.0302 67.758 59.6374 67.8137 56.4858V56.4778ZM79.4255 56.4778H82.1473C82.1473 58.173 83.4685 58.8415 84.9727 58.8415C85.9596 58.8415 87.4558 58.555 87.4558 57.2498C87.4558 55.857 85.5218 55.6581 83.6675 55.1407C81.7733 54.6791 79.8552 53.8674 79.8552 51.5116C79.8552 48.8852 82.3224 47.6516 84.6305 47.6516C87.2966 47.6516 89.7479 48.8136 89.7479 51.7663H87.026C86.9385 50.2461 85.8641 49.8323 84.5031 49.8323C83.6117 49.8323 82.5692 50.2064 82.5692 51.2808C82.5692 52.2677 83.174 52.4109 86.3814 53.2147C87.3285 53.4296 90.1697 54.0584 90.1697 56.9315C90.1697 59.2713 88.3472 61.0302 84.8613 61.0302C82.0359 61.0302 79.3698 59.6374 79.4255 56.4858V56.4778ZM107.432 47.9461L104.002 60.7118H101.216L99.0516 52.0209H99.0198L96.8948 60.7118H94.0536L90.6711 47.9461H93.4805L95.5021 56.637H95.5339L97.7544 47.9461H100.381L102.561 56.7404H102.593L104.686 47.9461H107.44H107.432Z" fill="#CC4342"/>
<path id="Vector_2" d="M107.408 48.9807V47.946H117.532V48.9807H113.083V60.7118H111.865V48.9807H107.408ZM118.956 49.7527V47.946H120.086V49.7527H118.956ZM118.956 60.7118V51.4877H120.086V60.7118H118.956ZM130.035 51.4877V59.9637C130.035 62.7333 128.929 64.3967 125.936 64.3967C124.098 64.3967 122.251 63.5531 122.108 61.6111H123.238C123.469 62.9721 124.702 63.4496 125.936 63.4496C128.029 63.4496 128.905 62.2319 128.905 59.9637V58.7142H128.873C128.356 59.8602 127.281 60.6083 125.944 60.6083C122.991 60.6083 121.782 58.5152 121.782 55.8729C121.782 53.2306 123.286 51.225 125.944 51.225C127.305 51.225 128.427 52.0687 128.873 53.0874H128.905V51.4956H130.035V51.4877ZM125.944 59.6613C127.894 59.6613 128.913 57.8546 128.913 55.9923C128.913 54.13 128.093 52.1642 125.944 52.1642C123.795 52.1642 122.904 54.0742 122.904 55.9923C122.904 57.9103 123.851 59.6613 125.944 59.6613ZM132.836 55.4591H138.805C138.75 53.7639 137.675 52.1721 135.877 52.1721C134.078 52.1721 133.035 53.7798 132.836 55.4591ZM139.935 56.4061H132.836C132.836 58.0536 133.728 60.0353 135.877 60.0353C137.524 60.0353 138.415 59.0882 138.773 57.6716H139.904C139.418 59.7647 138.224 60.9824 135.877 60.9824C132.948 60.9824 131.714 58.7301 131.714 56.1037C131.714 53.6683 132.948 51.225 135.877 51.225C138.805 51.225 140.023 53.8196 139.935 56.4141V56.4061ZM141.448 60.7118V51.4877H142.482V53.6524H142.514C143.087 52.1482 144.337 51.2887 146 51.3603V52.4905C143.963 52.4029 142.57 53.8673 142.57 55.8013V60.7198H141.44L141.448 60.7118Z" fill="#333333"/>
<g id="Group">
<path id="Vector_3" d="M49.652 49.721C49.2779 50.1985 48.6412 50.3895 48.2513 50.883C47.909 51.3207 47.8135 51.8221 47.7021 52.3553C47.7817 52.4668 47.7896 52.3553 47.8215 52.3156C48.1717 51.8778 48.3627 51.5515 48.88 51.2491C49.5724 50.8511 49.9305 51.1058 50.4081 50.294C51.196 48.957 51.1403 47.3334 50.1613 46.1157C50.1375 46.4022 50.2648 46.6887 50.2887 46.9673C50.3683 47.9223 50.2489 48.9411 49.644 49.7131L49.652 49.721Z" fill="#CC4241"/>
<path id="Vector_4" d="M49.0551 46.4343C49.0869 46.9755 48.6492 47.7396 48.0762 47.8112C47.3838 47.8987 46.2934 46.9357 45.4896 47.1108L46.4287 47.6838C47.145 48.2887 47.6703 49.1562 47.7101 50.1112C47.8454 50.1351 47.7896 50.0953 47.8215 50.0396C48.0045 49.6417 47.9647 49.0448 47.9727 48.615C49.079 48.6309 49.6281 47.6043 49.2222 46.6094C49.1824 46.5219 49.1824 46.4025 49.063 46.4423H49.0551V46.4343Z" fill="#CC4241"/>
<path id="Vector_5" d="M44.8608 46.2751C45.1155 46.2591 45.4657 46.1636 45.7124 46.1716C46.1661 46.1716 46.6197 46.5775 47.0654 46.1238C47.1768 46.0124 47.2007 45.8533 47.2962 45.7896C47.4474 45.6861 47.9409 45.6543 48.1478 45.6065C48.2274 45.5906 48.2353 45.6384 48.2274 45.5031L46.6118 45.2563C45.991 45.511 45.3782 45.8453 44.8608 46.283V46.2751Z" fill="#CC4241"/>
<path id="Vector_6" d="M50.0181 54.0666C50.0181 53.2469 49.5247 52.5624 48.8482 52.3396C49.8112 52.0451 50.8776 52.4669 51.6974 52.9046C51.7372 51.8939 51.6815 50.9229 51.387 49.952L52.8912 50.6762C53.0026 49.9679 52.0794 47.8349 51.7531 47.1584C53.3767 48.3284 54.1885 50.4772 53.9258 52.4351C53.9019 52.5783 53.5518 51.8063 52.6285 51.6074C52.74 52.6738 52.7002 53.7244 52.4216 54.767C51.777 54.1621 51.1244 53.4697 50.2489 53.215C50.233 53.2469 50.4319 54.0188 50.0181 54.1541V54.0666Z" fill="#CC4241"/>
<path id="Vector_7" d="M36.5997 62.4152C37.2523 61.5556 38.1755 60.8155 39.1147 60.2743C41.7171 58.778 45.4657 58.7303 47.2882 56.0721C47.5907 55.6264 48.2274 54.0665 47.3599 53.9391C46.7232 53.8516 46.3093 54.5122 46.2457 55.0534C45.3782 55.2683 43.8501 54.8942 43.4362 54.0267C43.2452 53.6208 43.102 52.8886 43.3407 52.4907C43.3885 52.4111 43.4919 52.3952 43.5079 52.3394C43.5238 52.2917 43.4442 51.7425 43.4601 51.5675C43.476 51.4162 43.5397 51.273 43.5636 51.1297C43.9854 51.7107 44.256 52.5305 45.1474 52.1246C46.4207 51.5436 45.8477 49.5619 44.9563 48.8774C44.1923 48.2885 43.8262 48.8376 43.0622 49.0605C42.9905 49.5141 43.0463 49.9678 43.1418 50.4055C43.0542 50.493 42.4334 49.8484 42.3698 49.7608C42.2265 49.5778 42.131 49.2674 42.0037 49.14C41.7967 48.9252 41.5023 48.8854 41.2635 48.5272C41.0327 48.177 40.8019 47.222 40.7621 46.8002C40.7144 46.3386 40.8735 46.3068 41.2078 46.068C41.7331 45.686 42.521 45.3278 43.1418 45.105C43.3328 45.0334 43.9774 44.906 44.057 44.8583C44.3117 44.6911 44.5345 44.1659 45.0041 43.9112C46.1581 43.2904 48.7208 43.0278 50.0101 43.171C50.4638 43.2188 51.1084 43.4416 51.5143 43.4337C51.9759 43.4337 52.6842 43.1949 53.1777 43.1233C53.3926 43.0914 54.7137 42.9482 54.7933 43.0198C54.9047 43.5292 54.9445 44.0067 54.8331 44.524C54.8013 44.6832 54.5784 45.2005 54.6103 45.288C56.966 47.031 58.4782 49.339 59.3775 52.1246C59.6561 52.9921 59.8312 53.4377 60.1893 54.2655C61.5105 57.3375 61.5343 60.4016 60.3087 63.5135C60.1973 63.8 59.4094 65.535 59.2263 65.5827H58.1917C58.1917 65.5827 58.0564 65.5191 58.0643 65.5031C59.664 62.9245 60.5315 59.8604 59.871 56.8361L59.5844 57.815C59.1069 59.1919 57.8256 61.1259 56.5124 61.8342C56.4408 61.874 56.393 61.9217 56.2975 61.9058C56.2816 61.8103 56.2975 61.7546 56.3453 61.667C56.5363 61.3169 56.9581 60.8951 57.1968 60.4971C59.3775 56.8839 59.1626 53.0159 57.0138 49.4584L56.7671 49.1162C57.0297 50.6124 56.7671 52.1564 56.21 53.5492L55.8916 54.1381C56.3214 51.5277 56.1383 48.0736 53.9497 46.1317C53.2891 46.6649 52.549 46.7684 51.9043 46.1476C51.8804 46.0362 51.952 46.076 52.0157 46.06C52.3022 45.9725 52.549 45.9247 52.8195 45.7735C53.3767 45.4552 53.886 44.715 53.8701 44.0544C52.74 44.1102 51.6496 44.3171 50.6866 44.9379L50.9174 44.3171C50.3364 44.142 49.7554 44.0624 49.1585 44.0067C49.3575 44.3489 49.4371 44.7468 49.4132 45.1448C49.3496 45.2164 48.9835 44.6832 48.9198 44.6275C48.7765 44.4922 48.2672 44.1579 48.0841 44.1181C47.6305 44.0226 45.7443 44.4444 45.3304 44.7071C45.0518 44.8821 44.7017 45.495 44.5345 45.5666C44.2241 45.7099 43.6034 45.7894 43.2054 45.9407C42.8155 46.0919 42.3141 46.3068 42.0116 46.5853H42.8393C42.8234 47.1663 41.6853 47.2857 41.8127 47.8905C41.8286 47.9622 41.9798 48.185 42.0355 48.2407C42.5767 48.7182 43.4601 47.9462 44.057 47.8746C46.174 47.6438 47.5907 51.1695 45.9034 52.5305C45.3145 53.008 44.7335 52.9443 44.0331 53.1035C43.9774 53.9869 44.8927 54.2097 45.601 54.2893C46.3491 52.7692 47.7817 52.8329 49.0471 53.6924C49.6997 54.1381 50.0579 54.7509 50.5752 55.324C52.0873 56.9953 53.9258 58.7382 53.9656 61.1736L53.2095 59.7808C52.159 58.1891 50.6309 56.9873 49.3575 55.5866C48.88 58.6666 50.8617 61.1816 52.8275 63.2747L52.7957 63.4578C52.7957 63.4578 52.7479 63.3543 52.6842 63.3065C52.3739 63.0837 51.9918 62.9006 51.6655 62.6698C49.7395 61.3009 48.116 59.5182 47.9329 57.0351C46.2695 58.9531 46.2138 61.8023 46.6834 64.19C46.763 64.5879 46.8983 64.9699 46.9779 65.3678C46.9062 65.3678 46.8824 65.3838 46.8187 65.336C46.6754 65.2166 46.2934 64.5322 46.182 64.3253C45.3065 62.6858 45.0439 60.7598 45.4975 58.9531C44.7653 59.3988 43.8342 59.5182 43.1975 60.0673C41.7967 61.2612 40.8019 63.1394 40.3483 64.9062C40.2607 64.9222 40.3005 64.7869 40.3005 64.7232C40.2527 63.41 40.4438 62.256 40.9849 61.0622C41.0566 60.911 41.2317 60.6961 41.2794 60.5767C41.3033 60.513 41.2794 60.4892 41.2078 60.5051C41.0168 60.5528 40.6427 60.7359 40.4438 60.8314C38.4302 61.7625 36.8464 63.418 36.0903 65.5111L35 65.5827C35 65.5827 35.3024 64.1263 36.5997 62.4152Z" fill="#CC4241"/>
</g>
</g>
</g>
</svg>
