<svg width="180" height="108" viewBox="0 0 180 108" fill="none" xmlns="http://www.w3.org/2000/svg">
<g id="SSWTiger-Vertical-Darkmode">
<g id="SSW-Tiger-Color-Vertical">
<g id="Group">
<path id="Vector" d="M37.0012 79.825H40.6913C40.6913 82.1232 42.4824 83.0296 44.5216 83.0296C45.8596 83.0296 47.8881 82.6411 47.8881 80.8716C47.8881 78.9834 45.2661 78.7137 42.7521 78.0123C40.1841 77.3865 37.5838 76.286 37.5838 73.0922C37.5838 69.5315 40.9286 67.8591 44.0577 67.8591C47.6723 67.8591 50.9955 69.4344 50.9955 73.4375H47.3054C47.1867 71.3766 45.7301 70.8155 43.885 70.8155C42.6766 70.8155 41.2631 71.3227 41.2631 72.7793C41.2631 74.1172 42.0832 74.3114 46.4314 75.4012C47.7154 75.6925 51.5674 76.5449 51.5674 80.44C51.5674 83.6122 49.0965 85.9968 44.3706 85.9968C40.5402 85.9752 36.9256 84.087 37.0012 79.825ZM52.7435 79.825H56.4336C56.4336 82.1232 58.2247 83.0296 60.2639 83.0296C61.6019 83.0296 63.6304 82.6411 63.6304 80.8716C63.6304 78.9834 61.0084 78.7137 58.4944 78.0123C55.9264 77.3865 53.3261 76.286 53.3261 73.0922C53.3261 69.5315 56.6709 67.8591 59.8 67.8591C63.4146 67.8591 66.7378 69.4344 66.7378 73.4375H63.0477C62.929 71.3766 61.4724 70.8155 59.6273 70.8155C58.4189 70.8155 57.0054 71.3227 57.0054 72.7793C57.0054 74.1172 57.8254 74.3114 62.1737 75.4012C63.4577 75.6925 67.3097 76.5449 67.3097 80.44C67.3097 83.6122 64.8388 85.9968 60.1129 85.9968C56.2825 85.9968 52.6679 84.1085 52.7435 79.8358V79.825ZM90.7127 68.2584L86.0623 85.5652H82.2859L79.3511 73.7827H79.3079L76.427 85.5652H72.5751L67.9894 68.2584H71.7982L74.5388 80.0408H74.582L77.5923 68.2584H81.153L84.1094 80.1811H84.1525L86.9902 68.2584H90.7235H90.7127Z" fill="#CC4342"/>
<path id="Vector_2" d="M90.6804 69.661V68.2583H104.405V69.661H98.3735V85.5651H96.7226V69.661H90.6804ZM106.336 70.7076V68.2583H107.868V70.7076H106.336ZM106.336 85.5651V73.0598H107.868V85.5651H106.336ZM121.356 73.0598V84.5509C121.356 88.3057 119.856 90.5608 115.799 90.5608C113.307 90.5608 110.803 89.4171 110.609 86.7844H112.141C112.454 88.6294 114.127 89.2768 115.799 89.2768C118.637 89.2768 119.824 87.626 119.824 84.5509V82.8569H119.78C119.079 84.4106 117.622 85.4248 115.81 85.4248C111.807 85.4248 110.167 82.5871 110.167 79.0049C110.167 75.4227 112.206 72.7037 115.81 72.7037C117.655 72.7037 119.176 73.8474 119.78 75.2285H119.824V73.0705H121.356V73.0598ZM115.81 84.1409C118.453 84.1409 119.834 81.6916 119.834 79.1668C119.834 76.642 118.723 73.9769 115.81 73.9769C112.897 73.9769 111.688 76.5664 111.688 79.1668C111.688 81.7671 112.972 84.1409 115.81 84.1409ZM125.154 78.4439H133.246C133.171 76.1456 131.714 73.9877 129.275 73.9877C126.837 73.9877 125.423 76.1672 125.154 78.4439ZM134.778 79.7278H125.154C125.154 81.9613 126.362 84.648 129.275 84.648C131.509 84.648 132.717 83.364 133.203 81.4434H134.735C134.077 84.2811 132.458 85.932 129.275 85.932C125.305 85.932 123.632 82.8785 123.632 79.3178C123.632 76.0162 125.305 72.7037 129.275 72.7037C133.246 72.7037 134.897 76.2212 134.778 79.7386V79.7278ZM136.828 85.5651V73.0598H138.231V75.9946H138.274C139.051 73.9553 140.745 72.79 143 72.8871V74.4193C140.238 74.3006 138.35 76.2859 138.35 78.9078V85.5759H136.817L136.828 85.5651Z" fill="white"/>
</g>
<g id="Group_2">
<path id="Vector_3" d="M92.7521 29.8789C92.0939 30.7313 90.961 31.055 90.2812 31.9397C89.677 32.7166 89.5043 33.6013 89.3101 34.5401C89.4504 34.7343 89.4612 34.5401 89.5259 34.4753C90.1409 33.6984 90.4754 33.1266 91.3925 32.5979C92.6226 31.8858 93.2484 32.3497 94.09 30.9039C95.4819 28.5409 95.3956 25.6708 93.6584 23.5237C93.6045 24.0308 93.8418 24.5271 93.885 25.0343C94.0253 26.7175 93.8202 28.5301 92.7521 29.8897V29.8789Z" fill="#CC4241"/>
<path id="Vector_4" d="M91.6838 24.0632C91.7378 25.0235 90.9717 26.3723 89.9467 26.5017C88.7274 26.6528 86.7961 24.948 85.3718 25.2609L87.0334 26.2751C88.2959 27.3433 89.2346 28.8863 89.2993 30.5695C89.5367 30.6126 89.4396 30.5479 89.4935 30.44C89.8172 29.7387 89.7417 28.6813 89.7633 27.9152C91.7162 27.9476 92.6873 26.1349 91.9752 24.3761C91.9104 24.2143 91.8996 24.0093 91.6838 24.074V24.0632Z" fill="#CC4241"/>
<path id="Vector_5" d="M84.2712 23.7827C84.7244 23.7611 85.3394 23.5884 85.771 23.5992C86.5695 23.61 87.3787 24.3114 88.1556 23.5129C88.3498 23.3187 88.3929 23.0382 88.5656 22.9195C88.8353 22.736 89.7093 22.6821 90.0761 22.5958C90.2164 22.5634 90.238 22.6605 90.2164 22.4124L87.3571 21.97C86.2673 22.4124 85.1668 23.0166 84.2712 23.7827Z" fill="#CC4241"/>
<path id="Vector_6" d="M93.3887 37.5612C93.3887 36.1153 92.5147 34.8961 91.317 34.5076C93.011 33.9897 94.91 34.7342 96.3558 35.5111C96.4314 33.7308 96.3343 32.0044 95.8056 30.2996L98.4599 31.5836C98.6541 30.332 97.0248 26.5664 96.453 25.3579C99.3338 27.4295 100.758 31.2276 100.294 34.6911C100.262 34.9392 99.6252 33.5797 98.0067 33.2237C98.2117 35.1119 98.1362 36.9677 97.6398 38.802C96.4961 37.7338 95.3416 36.5145 93.7987 36.0614C93.7663 36.1153 94.1116 37.4748 93.3887 37.723V37.5719V37.5612Z" fill="#CC4241"/>
<path id="Vector_7" d="M69.6727 52.3217C70.8272 50.8003 72.4564 49.484 74.1181 48.5345C78.7145 45.891 85.3502 45.8047 88.5656 41.1111C89.1051 40.3235 90.2272 37.5613 88.6951 37.3455C87.5621 37.1836 86.8392 38.3489 86.7313 39.32C85.1992 39.6977 82.4909 39.0395 81.768 37.5073C81.4335 36.7952 81.1854 35.4896 81.6062 34.7883C81.6925 34.648 81.8759 34.6265 81.8975 34.5186C81.9191 34.4322 81.7896 33.472 81.8112 33.159C81.8328 32.8893 81.9515 32.6411 81.9946 32.3822C82.7391 33.4072 83.2246 34.853 84.8 34.1409C87.055 33.1159 86.0408 29.6092 84.4655 28.4008C83.106 27.3541 82.4694 28.3252 81.1206 28.7244C81.002 29.5229 81.0883 30.3321 81.2609 31.109C81.1099 31.26 80.0201 30.1271 79.8906 29.9653C79.6424 29.6416 79.459 29.0913 79.254 28.8647C78.8979 28.4763 78.3585 28.4223 77.9484 27.7857C77.5492 27.1599 77.1392 25.4875 77.0637 24.743C76.9774 23.9338 77.2579 23.869 77.8513 23.4375C78.7793 22.7577 80.1819 22.1319 81.2717 21.7327C81.6062 21.614 82.7499 21.3766 82.8902 21.2903C83.3433 20.999 83.7426 20.071 84.5626 19.6179C86.5803 18.5065 91.112 18.0426 93.3994 18.2907C94.1979 18.377 95.3416 18.7655 96.0537 18.7547C96.8629 18.7331 98.1145 18.3231 98.9993 18.2152C99.3877 18.1612 101.718 17.9131 101.859 18.0318C102.053 18.9381 102.118 19.7797 101.934 20.6968C101.88 20.9774 101.481 21.8945 101.546 22.0456C105.711 25.1314 108.386 29.21 109.973 34.1301C110.469 35.6623 110.782 36.4499 111.408 37.9173C113.738 43.3446 113.792 48.7611 111.623 54.2639C111.418 54.771 110.026 57.8353 109.703 57.9216H107.869C107.869 57.9216 107.631 57.8137 107.642 57.7813C110.469 53.228 112.012 47.8116 110.847 42.4491L110.339 44.1862C109.487 46.6247 107.221 50.0343 104.912 51.2967C104.783 51.3614 104.696 51.4585 104.534 51.4154C104.502 51.2427 104.534 51.1456 104.621 51.0054C104.966 50.3903 105.711 49.635 106.131 48.9445C109.983 42.5569 109.606 35.7162 105.797 29.4258L105.354 28.8108C105.818 31.4543 105.354 34.1949 104.362 36.6549L103.801 37.6908C104.556 33.0727 104.232 26.9765 100.37 23.5238C99.2043 24.4625 97.8988 24.6459 96.755 23.5454C96.7119 23.3511 96.8414 23.4267 96.96 23.3835C97.4564 23.2217 97.8988 23.1461 98.3735 22.8764C99.3662 22.3045 100.262 20.999 100.229 19.8337C98.2224 19.9308 96.3127 20.2976 94.5971 21.3874L95.0071 20.2868C93.9821 19.9847 92.957 19.8337 91.8996 19.7366C92.2557 20.3408 92.396 21.0421 92.3528 21.7435C92.2449 21.8729 91.5975 20.9342 91.4788 20.8263C91.2199 20.5889 90.3243 19.9955 89.9898 19.9308C89.1806 19.7689 85.8574 20.5134 85.1236 20.9666C84.6381 21.2687 84.0123 22.3585 83.721 22.488C83.1707 22.7361 82.0701 22.8872 81.3688 23.1569C80.6783 23.4159 79.7935 23.8043 79.2648 24.3006H80.7322C80.6998 25.3365 78.6929 25.5415 78.9195 26.6096C78.9519 26.7391 79.2108 27.1383 79.3187 27.2247C80.279 28.0663 81.8328 26.696 82.8902 26.5773C86.6342 26.1673 89.1482 32.4038 86.1595 34.8099C85.1129 35.6515 84.0878 35.5328 82.847 35.8241C82.7499 37.3886 84.3684 37.7879 85.6092 37.9281C86.9363 35.2415 89.4611 35.3494 91.7054 36.8815C92.8599 37.6692 93.4965 38.7482 94.4137 39.7624C97.0787 42.7188 100.337 45.7939 100.413 50.099L99.0748 47.6389C97.219 44.8228 94.5216 42.6972 92.2665 40.2156C91.4141 45.6644 94.9316 50.099 98.4059 53.7999L98.3519 54.1236C98.3519 54.1236 98.2656 53.9294 98.1577 53.8646C97.6074 53.4762 96.9277 53.1525 96.3558 52.7425C92.9462 50.3256 90.0762 47.1642 89.7525 42.7835C86.8176 46.1715 86.7097 51.2211 87.5406 55.4292C87.6808 56.1305 87.9182 56.8103 88.0585 57.5116C87.929 57.5116 87.8858 57.544 87.7779 57.4469C87.5298 57.2311 86.8392 56.0226 86.6558 55.6665C85.1129 52.7749 84.6381 49.3545 85.4473 46.1607C84.1634 46.9484 82.5125 47.1642 81.3796 48.1245C78.8979 50.2393 77.15 53.5517 76.3516 56.6808C76.1897 56.7024 76.2652 56.4758 76.2652 56.3571C76.1789 54.0265 76.5134 51.998 77.4845 49.8832C77.6032 49.6135 77.9161 49.2358 78.0024 49.0308C78.0456 48.9121 78.0024 48.869 77.8729 48.9013C77.5276 48.9769 76.8695 49.3114 76.5242 49.4732C72.9636 51.1133 70.169 54.0373 68.8311 57.749L66.8889 57.8677C66.8889 57.8677 67.4176 55.2889 69.7158 52.2678L69.6727 52.3217Z" fill="#CC4241"/>
</g>
</g>
</g>
</svg>
