<svg width="180" height="108" viewBox="0 0 180 108" fill="none" xmlns="http://www.w3.org/2000/svg">
<g id="SSWTiger">
<g id="SSW-Tiger-Color-Vertical">
<g id="Group">
<path id="Vector" d="M37.0012 79.8256H40.6913C40.6913 82.1238 42.4824 83.0302 44.5216 83.0302C45.8596 83.0302 47.8881 82.6418 47.8881 80.8722C47.8881 78.984 45.2661 78.7142 42.7521 78.0129C40.1841 77.3871 37.5838 76.2865 37.5838 73.0927C37.5838 69.5321 40.9286 67.8596 44.0577 67.8596C47.6723 67.8596 50.9955 69.4349 50.9955 73.438H47.3054C47.1867 71.3771 45.7301 70.816 43.885 70.816C42.6766 70.816 41.2631 71.3232 41.2631 72.7798C41.2631 74.1178 42.0832 74.312 46.4314 75.4017C47.7154 75.6931 51.5674 76.5455 51.5674 80.4406C51.5674 83.6128 49.0965 85.9974 44.3706 85.9974C40.5402 85.9758 36.9256 84.0876 37.0012 79.8256ZM52.7435 79.8256H56.4336C56.4336 82.1238 58.2247 83.0302 60.2639 83.0302C61.6019 83.0302 63.6304 82.6418 63.6304 80.8722C63.6304 78.984 61.0084 78.7142 58.4944 78.0129C55.9264 77.3871 53.3261 76.2865 53.3261 73.0927C53.3261 69.5321 56.6709 67.8596 59.8 67.8596C63.4146 67.8596 66.7378 69.4349 66.7378 73.438H63.0477C62.929 71.3771 61.4724 70.816 59.6273 70.816C58.4189 70.816 57.0054 71.3232 57.0054 72.7798C57.0054 74.1178 57.8254 74.312 62.1737 75.4017C63.4577 75.6931 67.3097 76.5455 67.3097 80.4406C67.3097 83.6128 64.8388 85.9974 60.1129 85.9974C56.2825 85.9974 52.6679 84.1092 52.7435 79.8364V79.8256ZM90.7127 68.2588L86.0623 85.5658H82.2859L79.3511 73.7833H79.3079L76.427 85.5658H72.5751L67.9894 68.2588H71.7982L74.5388 80.0414H74.582L77.5923 68.2588H81.153L84.1094 80.1817H84.1525L86.9902 68.2588H90.7235H90.7127Z" fill="#CC4342"/>
<path id="Vector_2" d="M90.6803 69.6615V68.2588H104.405V69.6615H98.3734V85.5657H96.7226V69.6615H90.6803ZM106.336 70.7081V68.2588H107.868V70.7081H106.336ZM106.336 85.5657V73.0603H107.868V85.5657H106.336ZM121.356 73.0603V84.5515C121.356 88.3064 119.856 90.5615 115.799 90.5615C113.307 90.5615 110.803 89.4177 110.609 86.785H112.141C112.454 88.6301 114.127 89.2775 115.799 89.2775C118.637 89.2775 119.824 87.6266 119.824 84.5515V82.8575H119.78C119.079 84.4112 117.622 85.4255 115.81 85.4255C111.807 85.4255 110.167 82.5877 110.167 79.0055C110.167 75.4233 112.206 72.7042 115.81 72.7042C117.655 72.7042 119.176 73.8479 119.78 75.229H119.824V73.0711H121.356V73.0603ZM115.81 84.1415C118.453 84.1415 119.834 81.6922 119.834 79.1674C119.834 76.6425 118.723 73.9774 115.81 73.9774C112.896 73.9774 111.688 76.567 111.688 79.1674C111.688 81.7677 112.972 84.1415 115.81 84.1415ZM125.154 78.4444H133.246C133.17 76.1462 131.714 73.9882 129.275 73.9882C126.837 73.9882 125.423 76.1678 125.154 78.4444ZM134.778 79.7284H125.154C125.154 81.9619 126.362 84.6486 129.275 84.6486C131.509 84.6486 132.717 83.3646 133.203 81.444H134.735C134.077 84.2818 132.458 85.9326 129.275 85.9326C125.305 85.9326 123.632 82.8791 123.632 79.3184C123.632 76.0167 125.305 72.7042 129.275 72.7042C133.246 72.7042 134.897 76.2217 134.778 79.7392V79.7284ZM136.828 85.5657V73.0603H138.231V75.9951H138.274C139.051 73.9558 140.745 72.7905 143 72.8876V74.4198C140.238 74.3011 138.35 76.2865 138.35 78.9084V85.5765H136.817L136.828 85.5657Z" fill="#333333"/>
</g>
<g id="Group_2">
<path id="Vector_3" d="M92.7521 29.8787C92.0939 30.7311 90.961 31.0548 90.2812 31.9395C89.677 32.7164 89.5043 33.6012 89.3101 34.5399C89.4504 34.7341 89.4612 34.5399 89.5259 34.4752C90.1409 33.6983 90.4754 33.1264 91.3925 32.5977C92.6226 31.8856 93.2484 32.3496 94.09 30.9037C95.4819 28.5407 95.3956 25.6706 93.6584 23.5234C93.6045 24.0306 93.8418 24.5269 93.885 25.034C94.0253 26.7172 93.8202 28.5299 92.7521 29.8895V29.8787Z" fill="#CC4241"/>
<path id="Vector_4" d="M91.6838 24.063C91.7378 25.0233 90.9717 26.372 89.9467 26.5015C88.7274 26.6526 86.796 24.9478 85.3718 25.2607L87.0334 26.2749C88.2958 27.3431 89.2345 28.8861 89.2993 30.5693C89.5367 30.6124 89.4395 30.5477 89.4935 30.4398C89.8172 29.7385 89.7417 28.6811 89.7632 27.915C91.7162 27.9473 92.6873 26.1346 91.9751 24.3759C91.9104 24.2141 91.8996 24.009 91.6838 24.0738V24.063Z" fill="#CC4241"/>
<path id="Vector_5" d="M84.2712 23.7824C84.7244 23.7608 85.3394 23.5882 85.771 23.599C86.5695 23.6098 87.3787 24.3111 88.1556 23.5127C88.3498 23.3185 88.3929 23.0379 88.5656 22.9192C88.8353 22.7358 89.7093 22.6819 90.0761 22.5955C90.2164 22.5632 90.238 22.6603 90.2164 22.4121L87.3571 21.9697C86.2673 22.4121 85.1668 23.0163 84.2712 23.7824Z" fill="#CC4241"/>
<path id="Vector_6" d="M93.3886 37.561C93.3886 36.1152 92.5146 34.8959 91.3169 34.5075C93.0109 33.9896 94.9099 34.7341 96.3558 35.5109C96.4313 33.7306 96.3342 32.0042 95.8055 30.2994L98.4598 31.5834C98.654 30.3318 97.0247 26.5661 96.4529 25.3577C99.3337 27.4293 100.758 31.2274 100.294 34.6909C100.262 34.9391 99.6251 33.5796 98.0066 33.2235C98.2116 35.1117 98.1361 36.9676 97.6397 38.8019C96.496 37.7337 95.3415 36.5144 93.7986 36.0612C93.7662 36.1152 94.1115 37.4747 93.3886 37.7229V37.5718V37.561Z" fill="#CC4241"/>
<path id="Vector_7" d="M69.6727 52.322C70.8272 50.8006 72.4564 49.4843 74.1181 48.5348C78.7145 45.8912 85.3502 45.8049 88.5656 41.1113C89.1051 40.3237 90.2272 37.5615 88.6951 37.3457C87.5621 37.1838 86.8392 38.3491 86.7313 39.3202C85.1992 39.6978 82.491 39.0397 81.768 37.5075C81.4336 36.7954 81.1854 35.4898 81.6062 34.7885C81.6925 34.6482 81.8759 34.6266 81.8975 34.5187C81.9191 34.4324 81.7896 33.4721 81.8112 33.1592C81.8328 32.8894 81.9515 32.6413 81.9946 32.3823C82.7391 33.4073 83.2247 34.8532 84.8 34.1411C87.055 33.116 86.0408 29.6093 84.4655 28.4008C83.106 27.3542 82.4694 28.3253 81.1206 28.7245C81.002 29.523 81.0883 30.3322 81.2609 31.1091C81.1099 31.2602 80.0201 30.1272 79.8906 29.9654C79.6424 29.6417 79.459 29.0914 79.254 28.8648C78.8979 28.4764 78.3585 28.4224 77.9484 27.7858C77.5492 27.16 77.1392 25.4876 77.0637 24.7431C76.9774 23.9338 77.2579 23.8691 77.8513 23.4375C78.7793 22.7577 80.1819 22.1319 81.2717 21.7327C81.6062 21.614 82.7499 21.3766 82.8902 21.2903C83.3433 20.999 83.7426 20.0711 84.5626 19.6179C86.5803 18.5065 91.112 18.0426 93.3994 18.2907C94.1979 18.377 95.3416 18.7655 96.0537 18.7547C96.8629 18.7331 98.1146 18.3231 98.9993 18.2152C99.3878 18.1612 101.718 17.9131 101.859 18.0318C102.053 18.9381 102.118 19.7797 101.934 20.6969C101.88 20.9774 101.481 21.8945 101.546 22.0456C105.711 25.1315 108.386 29.2101 109.973 34.1303C110.469 35.6624 110.782 36.4501 111.408 37.9175C113.738 43.3448 113.792 48.7613 111.623 54.2642C111.418 54.7713 110.026 57.8356 109.703 57.922H107.869C107.869 57.922 107.631 57.8141 107.642 57.7817C110.469 53.2284 112.012 47.8118 110.847 42.4493L110.339 44.1864C109.487 46.6249 107.221 50.0345 104.912 51.297C104.783 51.3617 104.696 51.4588 104.534 51.4157C104.502 51.243 104.534 51.1459 104.621 51.0056C104.966 50.3906 105.711 49.6353 106.131 48.9448C109.983 42.5572 109.606 35.7164 105.797 29.4259L105.355 28.8109C105.818 31.4544 105.355 34.195 104.362 36.6551L103.801 37.6909C104.556 33.0729 104.232 26.9766 100.37 23.5238C99.2043 24.4625 97.8988 24.646 96.755 23.5454C96.7119 23.3512 96.8414 23.4267 96.9601 23.3836C97.4564 23.2217 97.8988 23.1462 98.3735 22.8764C99.3662 22.3046 100.262 20.999 100.229 19.8337C98.2225 19.9308 96.3127 20.2976 94.5971 21.3874L95.0071 20.2869C93.9821 19.9847 92.957 19.8337 91.8996 19.7366C92.2557 20.3408 92.396 21.0421 92.3528 21.7435C92.2449 21.873 91.5975 20.9342 91.4788 20.8263C91.2199 20.589 90.3243 19.9955 89.9899 19.9308C89.1806 19.7689 85.8574 20.5134 85.1237 20.9666C84.6381 21.2687 84.0123 22.3585 83.721 22.488C83.1707 22.7362 82.0701 22.8872 81.3688 23.157C80.6783 23.4159 79.7935 23.8044 79.2648 24.3007H80.7322C80.6998 25.3365 78.6929 25.5415 78.9195 26.6097C78.9519 26.7392 79.2109 27.1384 79.3188 27.2247C80.279 28.0664 81.8328 26.696 82.8902 26.5774C86.6342 26.1673 89.1482 32.4039 86.1595 34.81C85.1129 35.6516 84.0878 35.533 82.847 35.8243C82.7499 37.3888 84.3684 37.788 85.6092 37.9283C86.9363 35.2416 89.4612 35.3495 91.7054 36.8817C92.8599 37.6693 93.4965 38.7483 94.4137 39.7626C97.0787 42.719 100.337 45.7941 100.413 50.0993L99.0749 47.6392C97.219 44.823 94.5216 42.6974 92.2665 40.2158C91.4141 45.6646 94.9316 50.0993 98.4059 53.8002L98.3519 54.1239C98.3519 54.1239 98.2656 53.9297 98.1577 53.865C97.6074 53.4765 96.9277 53.1528 96.3558 52.7428C92.9463 50.3259 90.0762 47.1644 89.7525 42.7838C86.8177 46.1718 86.7098 51.2214 87.5406 55.4295C87.6808 56.1308 87.9182 56.8106 88.0585 57.5119C87.929 57.5119 87.8858 57.5443 87.7779 57.4472C87.5298 57.2314 86.8392 56.0229 86.6558 55.6669C85.1129 52.7752 84.6381 49.3548 85.4474 46.161C84.1634 46.9486 82.5125 47.1644 81.3796 48.1247C78.898 50.2396 77.15 53.5521 76.3516 56.6811C76.1897 56.7027 76.2652 56.4761 76.2652 56.3574C76.1789 54.0268 76.5134 51.9983 77.4845 49.8835C77.6032 49.6137 77.9161 49.2361 78.0024 49.0311C78.0456 48.9124 78.0024 48.8692 77.8729 48.9016C77.5276 48.9771 76.8695 49.3116 76.5242 49.4735C72.9636 51.1135 70.169 54.0376 68.8311 57.7493L66.8889 57.868C66.8889 57.868 67.4176 55.2892 69.7158 52.2681L69.6727 52.322Z" fill="#CC4241"/>
</g>
</g>
</g>
</svg>
