<svg width="180" height="108" viewBox="0 0 180 108" fill="none" xmlns="http://www.w3.org/2000/svg">
<g id="SSWTiger-BW">
<g id="SSW-Tiger-B&#38;W-Vertical">
<g id="Layer_1" clip-path="url(#clip0_1277_166)">
<g id="Group">
<path id="Vector" d="M37 79.8261H40.6902C40.6902 82.1244 42.4813 83.0307 44.5206 83.0307C45.8585 83.0307 47.887 82.6423 47.887 80.8727C47.887 78.9845 45.2651 78.7148 42.751 78.0134C40.183 77.3876 37.5827 76.287 37.5827 73.0932C37.5827 69.5325 40.9275 67.8601 44.0566 67.8601C47.6712 67.8601 50.9945 69.4354 50.9945 73.4385H47.3044C47.1857 71.3776 45.729 70.8165 43.884 70.8165C42.6755 70.8165 41.262 71.3237 41.262 72.7803C41.262 74.1183 42.082 74.3125 46.4304 75.4023C47.7144 75.6936 51.5664 76.546 51.5664 80.4411C51.5664 83.6134 49.0955 85.9979 44.3695 85.9979C40.5391 85.9764 36.9245 84.0881 37 79.8261ZM52.7425 79.8261H56.4326C56.4326 82.1244 58.2237 83.0307 60.263 83.0307C61.601 83.0307 63.6295 82.6423 63.6295 80.8727C63.6295 78.9845 61.0075 78.7148 58.4935 78.0134C55.9255 77.3876 53.3251 76.287 53.3251 73.0932C53.3251 69.5325 56.67 67.8601 59.7991 67.8601C63.4137 67.8601 66.737 69.4354 66.737 73.4385H63.0468C62.9281 71.3776 61.4715 70.8165 59.6264 70.8165C58.418 70.8165 57.0045 71.3237 57.0045 72.7803C57.0045 74.1183 57.8245 74.3125 62.1728 75.4023C63.4568 75.6936 67.3088 76.546 67.3088 80.4411C67.3088 83.6134 64.838 85.9979 60.112 85.9979C56.2816 85.9979 52.6669 84.1097 52.7425 79.8369V79.8261ZM90.7121 68.2593L86.0617 85.5663H82.2852L79.3504 73.7838H79.3072L76.4263 85.5663H72.5743L67.9886 68.2593H71.7974L74.5381 80.0419H74.5812L77.5916 68.2593H81.1523L84.1087 80.1822H84.1519L86.9896 68.2593H90.7229H90.7121Z" fill="#333333"/>
<path id="Vector_2" d="M90.6798 69.662V68.2593H104.405V69.662H98.373V85.5663H96.7221V69.662H90.6798ZM106.336 70.7086V68.2593H107.868V70.7086H106.336ZM106.336 85.5663V73.0608H107.868V85.5663H106.336ZM121.355 73.0608V84.552C121.355 88.3069 119.856 90.562 115.799 90.562C113.306 90.562 110.803 89.4183 110.609 86.7855H112.141C112.454 88.6306 114.126 89.278 115.799 89.278C118.636 89.278 119.823 87.6271 119.823 84.552V82.858H119.78C119.079 84.4118 117.622 85.426 115.809 85.426C111.806 85.426 110.166 82.5883 110.166 79.006C110.166 75.4238 112.206 72.7047 115.809 72.7047C117.655 72.7047 119.176 73.8484 119.78 75.2296H119.823V73.0716H121.355V73.0608ZM115.809 84.142C118.453 84.142 119.834 81.6927 119.834 79.1679C119.834 76.643 118.723 73.9779 115.809 73.9779C112.896 73.9779 111.688 76.5675 111.688 79.1679C111.688 81.7682 112.972 84.142 115.809 84.142ZM125.154 78.4449H133.246C133.17 76.1467 131.714 73.9887 129.275 73.9887C126.837 73.9887 125.423 76.1683 125.154 78.4449ZM134.778 79.7289H125.154C125.154 81.9625 126.362 84.6491 129.275 84.6491C131.509 84.6491 132.717 83.3651 133.203 81.4445H134.735C134.077 84.2823 132.458 85.9331 129.275 85.9331C125.305 85.9331 123.632 82.8796 123.632 79.3189C123.632 76.0172 125.305 72.7047 129.275 72.7047C133.246 72.7047 134.897 76.2222 134.778 79.7397V79.7289ZM136.828 85.5663V73.0608H138.231V75.9956H138.274C139.051 73.9563 140.745 72.791 143 72.8881V74.4203C140.238 74.3016 138.35 76.287 138.35 78.9089V85.5771H136.817L136.828 85.5663Z" fill="#333333"/>
</g>
<g id="Group_2">
<path id="Vector_3" d="M92.7514 29.8797C92.0932 30.7321 90.9603 31.0558 90.2805 31.9405C89.6763 32.7174 89.5037 33.6022 89.3094 34.5409C89.4497 34.7351 89.4605 34.5409 89.5252 34.4762C90.1403 33.6993 90.4748 33.1274 91.3919 32.5987C92.6219 31.8866 93.2478 32.3506 94.0894 30.9047C95.4813 28.5417 95.395 25.6716 93.6578 23.5244C93.6038 24.0315 93.8412 24.5279 93.8844 25.035C94.0246 26.7182 93.8196 28.5309 92.7514 29.8905V29.8797Z" fill="#333333"/>
<path id="Vector_4" d="M91.6832 24.0637C91.7372 25.024 90.9711 26.3728 89.9461 26.5022C88.7268 26.6533 86.7954 24.9485 85.3711 25.2614L87.0328 26.2757C88.2952 27.3439 89.2339 28.8868 89.2987 30.57C89.536 30.6132 89.4389 30.5485 89.4929 30.4406C89.8166 29.7392 89.741 28.6818 89.7626 27.9157C91.7156 27.9481 92.6867 26.1354 91.9746 24.3766C91.9098 24.2148 91.899 24.0098 91.6832 24.0745V24.0637Z" fill="#333333"/>
<path id="Vector_5" d="M84.2706 23.7832C84.7237 23.7616 85.3388 23.5889 85.7704 23.5997C86.5688 23.6105 87.3781 24.3119 88.1549 23.5134C88.3492 23.3192 88.3923 23.0387 88.5649 22.92C88.8347 22.7365 89.7087 22.6826 90.0755 22.5963C90.2158 22.5639 90.2374 22.661 90.2158 22.4128L87.3565 21.9705C86.2667 22.4128 85.1661 23.0171 84.2706 23.7832Z" fill="#333333"/>
<path id="Vector_6" d="M93.388 37.562C93.388 36.1162 92.514 34.8969 91.3164 34.5085C93.0104 33.9906 94.9094 34.7351 96.3553 35.5119C96.4308 33.7316 96.3337 32.0052 95.805 30.3004L98.4593 31.5844C98.6535 30.3328 97.0242 26.5671 96.4524 25.3586C99.3333 27.4303 100.758 31.2283 100.294 34.6919C100.261 34.9401 99.6246 33.5805 98.0061 33.2245C98.2111 35.1127 98.1356 36.9686 97.6393 38.8029C96.4955 37.7347 95.341 36.5154 93.798 36.0622C93.7657 36.1162 94.111 37.4757 93.388 37.7239V37.5728V37.562Z" fill="#333333"/>
<path id="Vector_7" d="M69.6718 52.3226C70.8263 50.8012 72.4556 49.4848 74.1173 48.5353C78.7138 45.8918 85.3496 45.8055 88.5649 41.1119C89.1044 40.3242 90.2266 37.562 88.6944 37.3462C87.5615 37.1843 86.8386 38.3496 86.7307 39.3207C85.1985 39.6984 82.4902 39.0402 81.7673 37.508C81.4328 36.7959 81.1847 35.4903 81.6055 34.789C81.6918 34.6487 81.8752 34.6271 81.8968 34.5192C81.9184 34.4329 81.7889 33.4726 81.8105 33.1597C81.832 32.89 81.9507 32.6418 81.9939 32.3828C82.7384 33.4079 83.2239 34.8537 84.7993 34.1416C87.0544 33.1165 86.0401 29.6098 84.4648 28.4014C83.1053 27.3547 82.4686 28.3258 81.1199 28.7251C81.0012 29.5235 81.0875 30.3327 81.2602 31.1096C81.1091 31.2607 80.0193 30.1277 79.8899 29.9659C79.6417 29.6422 79.4583 29.0919 79.2533 28.8653C78.8972 28.4769 78.3577 28.4229 77.9477 27.7863C77.5485 27.1605 77.1384 25.4881 77.0629 24.7436C76.9766 23.9343 77.2571 23.8696 77.8506 23.438C78.7785 22.7582 80.1812 22.1324 81.271 21.7332C81.6055 21.6145 82.7492 21.3771 82.8895 21.2908C83.3426 20.9995 83.7419 20.0716 84.5619 19.6184C86.5796 18.507 91.1114 18.043 93.3988 18.2912C94.1973 18.3775 95.341 18.766 96.0531 18.7552C96.8624 18.7336 98.114 18.3236 98.9988 18.2157C99.3872 18.1617 101.718 17.9136 101.858 18.0323C102.052 18.9386 102.117 19.7802 101.934 20.6974C101.88 20.9779 101.48 21.895 101.545 22.0461C105.71 25.132 108.386 29.2106 109.972 34.1308C110.468 35.663 110.781 36.4506 111.407 37.918C113.738 43.3454 113.792 48.7619 111.623 54.2648C111.418 54.7719 110.026 57.8362 109.702 57.9225H107.868C107.868 57.9225 107.631 57.8146 107.641 57.7823C110.468 53.2289 112.011 47.8124 110.846 42.4498L110.339 44.187C109.487 46.6255 107.221 50.0351 104.912 51.2975C104.782 51.3623 104.696 51.4594 104.534 51.4162C104.502 51.2436 104.534 51.1465 104.62 51.0062C104.966 50.3912 105.71 49.6359 106.131 48.9453C109.983 42.5577 109.605 35.7169 105.796 29.4264L105.354 28.8114C105.818 31.4549 105.354 34.1955 104.361 36.6556L103.8 37.6915C104.556 33.0734 104.232 26.9771 100.369 23.5243C99.2038 24.463 97.8982 24.6465 96.7545 23.5459C96.7113 23.3517 96.8408 23.4272 96.9595 23.3841C97.4558 23.2222 97.8982 23.1467 98.373 22.8769C99.3656 22.3051 100.261 20.9995 100.229 19.8342C98.2219 19.9313 96.3121 20.2981 94.5965 21.3879L95.0065 20.2873C93.9815 19.9852 92.9564 19.8342 91.899 19.7371C92.2551 20.3413 92.3954 21.0426 92.3522 21.744C92.2443 21.8735 91.5969 20.9347 91.4782 20.8268C91.2193 20.5895 90.3237 19.996 89.9892 19.9313C89.18 19.7694 85.8567 20.5139 85.123 20.9671C84.6374 21.2692 84.0116 22.359 83.7203 22.4885C83.17 22.7367 82.0694 22.8877 81.3681 23.1575C80.6775 23.4164 79.7928 23.8049 79.264 24.3012H80.7315C80.6991 25.337 78.6922 25.542 78.9188 26.6102C78.9511 26.7397 79.2101 27.1389 79.318 27.2253C80.2783 28.0669 81.832 26.6966 82.8895 26.5779C86.6336 26.1678 89.1476 32.4044 86.1588 34.8106C85.1122 35.6522 84.0871 35.5335 82.8463 35.8248C82.7492 37.3893 84.3677 37.7886 85.6085 37.9288C86.9357 35.2422 89.4605 35.3501 91.7048 36.8822C92.8593 37.6699 93.4959 38.7489 94.4131 39.7631C97.0782 42.7196 100.337 45.7947 100.412 50.0998L99.0743 47.6397C97.2184 44.8236 94.521 42.698 92.2659 40.2163C91.4135 45.6652 94.931 50.0998 98.4053 53.8008L98.3514 54.1245C98.3514 54.1245 98.2651 53.9303 98.1572 53.8655C97.6069 53.4771 96.9271 53.1534 96.3553 52.7434C92.9456 50.3264 90.0755 47.165 89.7518 42.7843C86.817 46.1723 86.7091 51.222 87.5399 55.4301C87.6802 56.1314 87.9175 56.8112 88.0578 57.5125C87.9283 57.5125 87.8852 57.5449 87.7773 57.4478C87.5291 57.232 86.8386 56.0235 86.6551 55.6674C85.1122 52.7757 84.6374 49.3553 85.4467 46.1615C84.1627 46.9492 82.5118 47.165 81.3789 48.1253C78.8972 50.2401 77.1492 53.5526 76.3508 56.6817C76.1889 56.7033 76.2645 56.4767 76.2645 56.358C76.1781 54.0274 76.5126 51.9989 77.4837 49.8841C77.6024 49.6143 77.9153 49.2367 78.0016 49.0316C78.0448 48.913 78.0016 48.8698 77.8722 48.9022C77.5269 48.9777 76.8687 49.3122 76.5234 49.474C72.9627 51.1141 70.1682 54.0382 68.8302 57.7499L66.888 57.8686C66.888 57.8686 67.4167 55.2898 69.715 52.2686L69.6718 52.3226Z" fill="#333333"/>
</g>
</g>
</g>
</g>
<defs>
<clipPath id="clip0_1277_166">
<rect width="106" height="72.5621" fill="white" transform="translate(37 18)"/>
</clipPath>
</defs>
</svg>
