<svg width="265" height="41" viewBox="0 0 265 41" fill="none" xmlns="http://www.w3.org/2000/svg">
<path d="M21.0581 32.4506L0 22.7379V20.5447L21.0581 10.832V13.1297L2.6062 21.6935L21.0581 30.2574V32.4506Z" fill="white"/>
<path d="M100.912 21.6935L82.3555 13.1297V10.832L103.414 20.5447V22.8423L82.3555 32.555V30.2574L100.912 21.6935Z" fill="white"/>
<path d="M124.971 32.4857V23.7757L116.746 10.1152H122.282L127.504 18.9506L132.696 10.1152H138.169L129.881 23.901V32.4857H124.971ZM141.767 21.2692H137.326C137.576 17.1334 141.298 15.8489 144.926 15.8489C148.147 15.8489 152.025 16.5695 152.025 20.4545V28.8826C152.025 30.3552 152.181 31.8278 152.588 32.4857H148.084C147.928 31.9844 147.803 31.4518 147.771 30.9192C146.364 32.3917 144.331 32.9244 142.33 32.9244C139.234 32.9244 136.825 31.3891 136.825 28.068C136.888 20.7052 147.771 24.6529 147.584 21.0185C147.584 19.1386 146.27 18.8253 144.707 18.8253C142.986 18.8253 141.923 19.5146 141.767 21.2692ZM147.584 26.2195V24.5589C146.833 25.2169 145.27 25.2482 143.893 25.4989C142.517 25.7495 141.266 26.2508 141.266 27.88C141.266 29.5093 142.549 29.9479 143.987 29.9479C147.459 29.9479 147.584 27.2221 147.584 26.2195ZM155.878 32.4857V10.1152H160.319V22.1151L165.917 16.2875H171.171L165.072 22.2404L171.859 32.4857H166.48L162.039 25.2482L160.319 26.9088V32.4857H155.878Z" fill="#CA4241"/>
<path d="M172.867 24.8761H174.994C174.9 29.4818 178.184 30.8917 182.28 30.8917C184.626 30.8917 188.191 29.6071 188.191 26.3486C188.191 23.8108 185.689 22.8082 183.594 22.3069L178.621 21.085C175.994 20.427 173.586 19.2051 173.586 15.696C173.586 13.5028 174.994 9.39844 181.28 9.39844C185.721 9.39844 189.536 11.7483 189.536 16.354H187.409C187.253 12.9702 184.501 11.2156 181.311 11.2156C178.402 11.2156 175.713 12.3436 175.713 15.6647C175.713 17.7639 177.245 18.6725 179.091 19.0798L184.532 20.427C187.691 21.273 190.318 22.6829 190.318 26.3173C190.318 27.8525 189.693 32.7089 181.78 32.7089C176.495 32.7089 172.617 30.3277 172.867 24.8761ZM193.285 32.2389V9.86841H195.255V18.8605H195.318C196.068 16.9179 198.195 15.602 200.478 15.602C205.013 15.602 206.389 17.9832 206.389 21.8369V32.2389H204.419V22.1503C204.419 19.3931 203.512 17.2626 200.322 17.2626C197.163 17.2626 195.349 19.6438 195.255 22.8082V32.2389H193.285ZM211.897 21.0223H209.927C210.146 17.2312 212.742 15.602 216.463 15.602C219.309 15.602 222.405 16.448 222.405 20.803V29.3878C222.405 30.1711 222.781 30.5784 223.563 30.5784C223.782 30.5784 223.969 30.547 224.188 30.453V32.1136C223.719 32.2076 223.438 32.2389 222.906 32.2389C220.904 32.2389 220.592 31.0797 220.592 29.4191H220.529C219.122 31.5183 217.777 32.7089 214.649 32.7089C211.647 32.7089 209.239 31.2363 209.239 27.9779C209.239 23.4662 213.649 23.2782 217.902 22.7769C219.528 22.6202 220.435 22.3382 220.435 20.5837C220.435 17.9205 218.559 17.2626 216.213 17.2626C213.742 17.2626 211.991 18.3905 211.897 21.0223ZM220.435 25.9727V23.4035H220.373C220.122 23.8735 219.247 24.0301 218.715 24.1241C215.369 24.7194 211.209 24.7194 211.209 27.8525C211.209 29.8264 212.929 31.0483 214.806 31.0483C217.839 31.0483 220.435 29.1371 220.435 25.9727ZM230.741 32.2389L224.518 16.072H226.707L231.773 30.265H231.836L236.84 16.072H238.872L232.837 32.2389H230.741ZM241.966 23.0275H252.411C252.317 20.0511 250.441 17.2626 247.282 17.2626C244.03 17.2626 242.31 20.0824 241.966 23.0275ZM254.381 24.6881H241.966C241.966 27.5706 243.529 31.0483 247.282 31.0483C250.159 31.0483 251.723 29.3878 252.349 26.9126H254.319C253.474 30.5784 251.379 32.7089 247.282 32.7089C242.153 32.7089 239.995 28.7611 239.995 24.1555C239.995 19.8944 242.153 15.602 247.282 15.602C252.442 15.602 254.538 20.1451 254.381 24.6881ZM257.026 32.2389V16.072H258.84V19.8631H258.903C259.903 17.2312 262.093 15.7273 265.001 15.8527V17.8265C261.436 17.6699 258.996 20.239 258.996 23.6228V32.2389H257.026Z" fill="white"/>
<path d="M77.3692 0.738927C77.4845 0.972789 77.5997 1.20637 77.6989 1.44703C78.6812 3.81345 78.9764 6.31616 78.6627 8.90247C78.5717 9.67725 78.3339 10.4434 78.0987 11.2003C78.0659 11.306 78.033 11.4117 78.0007 11.5171C77.7535 12.3334 77.306 13.0392 76.8534 13.7534L76.7837 13.8635C76.0214 15.0645 75.0869 16.0725 74.0365 16.9497C73.2528 17.602 72.3928 18.1548 71.5381 18.7043C71.4426 18.7658 71.3462 18.8279 71.2508 18.8894C70.1282 19.6171 68.9204 20.1551 67.6976 20.6511C67.5303 20.719 67.3625 20.7856 67.1947 20.8508L67.1826 28.3556L62.9774 25.1001L58.9039 38.4155C58.7944 38.773 58.5024 39.045 58.1382 39.1289L51.9828 40.5468C51.9445 40.5556 51.9046 40.5556 51.8662 40.5468L45.7109 39.1289C45.3466 39.045 45.0546 38.773 44.9452 38.4155L40.8717 25.1001L36.6665 28.3556L36.6544 20.8508C36.4865 20.7856 36.3187 20.719 36.1515 20.6511C34.9286 20.1551 33.7209 19.6172 32.5983 18.8894C32.5029 18.8279 32.4065 18.7658 32.311 18.7043C31.4563 18.1548 30.5963 17.602 29.8125 16.9497C28.7621 16.0725 27.8277 15.0645 27.0654 13.8635L26.9957 13.7534C26.543 13.0392 26.0956 12.3335 25.8484 11.5171C25.8161 11.4117 25.7832 11.306 25.7503 11.2003C25.5152 10.4434 25.2773 9.67726 25.1863 8.90247C24.8726 6.31615 25.1678 3.81347 26.1501 1.44703C26.2494 1.20635 26.3645 0.972803 26.4799 0.738927C26.5281 0.64132 26.5764 0.54361 26.6234 0.445312C26.6542 0.450194 26.685 0.455011 26.7131 0.461177C26.736 0.532376 26.7617 0.603042 26.7874 0.673456C26.8389 0.815006 26.8903 0.95615 26.9183 1.10154C27.2542 2.92533 27.9151 4.62524 28.8955 6.16299C29.4642 7.05245 30.1441 7.86856 30.9721 8.54792C31.9272 9.33011 32.9585 9.90973 34.0874 10.2998C35.3715 10.7442 36.6867 10.9442 38.0253 10.9512C38.1983 10.9519 38.3717 10.9533 38.5448 10.9548C39.1073 10.9597 39.67 10.9646 40.2311 10.9384C40.7959 10.9147 41.3579 10.8378 41.9186 10.7581L42.1284 10.7289C42.3869 10.6929 42.6458 10.6569 42.9044 10.6191L51.8572 8.21696C51.9013 8.20513 51.9477 8.20513 51.9918 8.21696L60.9447 10.6191C61.2032 10.6568 61.4622 10.6929 61.7207 10.7289L61.9304 10.7581C62.4911 10.8378 63.0532 10.9147 63.618 10.9384C64.1791 10.9646 64.7418 10.9597 65.3042 10.9548C65.4773 10.9533 65.6508 10.9519 65.8238 10.9512C67.1623 10.9442 68.4776 10.7442 69.7616 10.2998C70.8905 9.90973 71.9218 9.33009 72.8769 8.54792C73.7049 7.86857 74.3848 7.05243 74.9536 6.16299C75.9339 4.62525 76.5948 2.92531 76.9307 1.10154C76.9588 0.956156 77.0102 0.815 77.0616 0.673456C77.0874 0.603053 77.113 0.532364 77.1359 0.461177C77.164 0.455022 77.1949 0.450188 77.2256 0.445312C77.2727 0.543597 77.3209 0.641333 77.3692 0.738927Z" fill="#CC4141"/>
</svg>
