<svg width="180" height="108" viewBox="0 0 180 108" fill="none" xmlns="http://www.w3.org/2000/svg">
<g id="YakShaver-BW">
<g id="YakShaver-Icon-Black">
<g id="Group 3">
<path id="Path" d="M61.2 51.3013L41 42.0013V39.9013L61.2 30.6013V32.8013L43.5 41.0013L61.2 49.2013V51.3013Z" fill="#333333"/>
<path id="Path_2" d="M137.8 41.0013L120 32.8013V30.6013L140.2 39.9013V42.1013L120 51.4013V49.2013L137.8 41.0013Z" fill="#333333"/>
<path id="Vector" fill-rule="evenodd" clip-rule="evenodd" d="M81.9251 29.1365C81.6653 29.1741 81.4051 29.21 81.1452 29.2458L80.9345 29.2749C80.3711 29.3544 79.8064 29.431 79.2388 29.4545C78.6749 29.4807 78.1095 29.4759 77.5443 29.471C77.3703 29.4696 77.1961 29.4681 77.0223 29.4675C75.6771 29.4605 74.3555 29.2613 73.0651 28.8184C71.9306 28.4298 70.8944 27.8523 69.9346 27.0729C69.1025 26.396 68.4193 25.583 67.8478 24.6968C66.8627 23.1647 66.1987 21.471 65.8611 19.6538C65.833 19.5089 65.7813 19.3683 65.7295 19.2272C65.7037 19.1571 65.6779 19.0868 65.6549 19.0159C65.6266 19.0097 65.5956 19.0049 65.5647 19C65.5174 19.0979 65.469 19.1953 65.4206 19.2925C65.3046 19.5256 65.1888 19.7583 65.089 19.9981C64.1019 22.3559 63.8052 24.8494 64.1205 27.4263C64.212 28.1983 64.4511 28.9614 64.6874 29.7155C64.7205 29.8209 64.7535 29.9262 64.7859 30.0311C65.0344 30.8446 65.4839 31.5477 65.9387 32.2593L66.0088 32.369C66.7749 33.5657 67.7139 34.5699 68.7694 35.4439C69.557 36.0939 70.4211 36.6447 71.28 37.1922C71.3759 37.2535 71.4728 37.3152 71.5686 37.3765C72.6968 38.1017 73.9105 38.6376 75.1394 39.1319C75.3075 39.1995 75.4759 39.2659 75.6446 39.3309L75.6567 46.8081L79.8826 43.5646L83.9759 56.8312C84.0858 57.1874 84.3791 57.4585 84.7452 57.5421L91.1285 59L97.507 57.5421C97.873 57.4585 98.1662 57.1874 98.2762 56.8313L102.353 43.6167L106.509 46.8081L106.521 38.8604C107.523 38.4388 108.506 37.9714 109.431 37.3765C109.527 37.3151 109.623 37.2538 109.72 37.1925C110.578 36.645 111.443 36.0939 112.231 35.4439C113.286 34.5699 114.225 33.5657 114.991 32.369L115.061 32.2593C115.516 31.5477 115.966 30.8446 116.214 30.0311C116.246 29.9268 116.279 29.8222 116.312 29.7176L116.312 29.7155C116.549 28.9614 116.788 28.1983 116.88 27.4263C117.195 24.8494 116.898 22.3559 115.911 19.9981C115.811 19.7583 115.695 19.5256 115.579 19.2925C115.531 19.1953 115.483 19.098 115.435 19C115.404 19.0049 115.373 19.0097 115.345 19.0159C115.322 19.0868 115.296 19.157 115.271 19.2271C115.219 19.3682 115.167 19.509 115.139 19.6538C114.801 21.471 114.137 23.1647 113.152 24.6968C112.581 25.583 111.897 26.396 111.065 27.0729C110.106 27.8523 109.069 28.4298 107.935 28.8184C106.644 29.2613 105.323 29.4605 103.978 29.4675C103.804 29.4681 103.63 29.4696 103.456 29.471C102.891 29.4759 102.325 29.4807 101.761 29.4545C101.66 29.4504 101.56 29.4444 101.459 29.4372L91.1285 26.6882L81.9251 29.1365Z" fill="#333333"/>
</g>
</g>
<g id="EagleEye-Horizontal-Color">
<g id="CodeAuditor">
<path id="Vector_2" d="M142.115 86.6371V74.1532H143.518V77.0806H143.567C144.341 75.0484 146.034 73.8871 148.284 73.9839V75.5081C145.526 75.3871 143.639 77.371 143.639 79.9839V86.6371H142.115Z" fill="#333333"/>
<path id="Vector_3" d="M130.465 79.5244H138.545C138.473 77.226 137.021 75.0728 134.577 75.0728C132.061 75.0728 130.731 77.2502 130.465 79.5244ZM140.069 80.8067H130.465C130.465 83.0325 131.674 85.7179 134.577 85.7179C136.803 85.7179 138.013 84.4357 138.497 82.5244H140.021C139.368 85.355 137.747 87.0002 134.577 87.0002C130.61 87.0002 128.94 83.9518 128.94 80.3954C128.94 77.105 130.61 73.7905 134.577 73.7905C138.569 73.7905 140.19 77.2986 140.069 80.8067Z" fill="#333333"/>
<path id="Vector_4" d="M121.782 86.6369L116.967 74.1531H118.661L122.58 85.1128H122.628L126.499 74.1531H128.072L123.403 86.6369H121.782Z" fill="#333333"/>
<path id="Vector_5" d="M107.204 77.976H105.68C105.849 75.0486 107.857 73.7905 110.736 73.7905C112.938 73.7905 115.333 74.4438 115.333 77.8067V84.4357C115.333 85.0405 115.623 85.355 116.228 85.355C116.397 85.355 116.542 85.3308 116.712 85.2583V86.5405C116.349 86.6131 116.131 86.6373 115.72 86.6373C114.172 86.6373 113.93 85.7421 113.93 84.4599H113.881C112.792 86.0809 111.752 87.0002 109.333 87.0002C107.01 87.0002 105.147 85.8631 105.147 83.347C105.147 79.8631 108.559 79.7179 111.849 79.3309C113.107 79.2099 113.809 78.9921 113.809 77.6373C113.809 75.5809 112.357 75.0728 110.542 75.0728C108.631 75.0728 107.276 75.9438 107.204 77.976ZM113.809 81.7986V79.8147H113.76C113.567 80.1776 112.889 80.2986 112.478 80.3712C109.889 80.8308 106.672 80.8308 106.672 83.2502C106.672 84.7744 108.002 85.7179 109.454 85.7179C111.801 85.7179 113.809 84.2421 113.809 81.7986Z" fill="#333333"/>
<path id="Vector_6" d="M92.806 86.6372V69.363H94.3301V76.3066H94.3785C94.9592 74.8066 96.6043 73.7905 98.3705 73.7905C101.879 73.7905 102.943 75.6292 102.943 78.605V86.6372H101.419V78.8469C101.419 76.7179 100.717 75.0727 98.2495 75.0727C95.806 75.0727 94.4027 76.9114 94.3301 79.355V86.6372H92.806Z" fill="#333333"/>
<path id="Vector_7" d="M77.0104 80.9516H78.6555C78.583 84.5081 81.1233 85.5968 84.2926 85.5968C86.1072 85.5968 88.8652 84.6048 88.8652 82.0887C88.8652 80.129 86.9297 79.3548 85.3088 78.9677L81.462 78.0242C79.4297 77.5161 77.5668 76.5726 77.5668 73.8629C77.5668 72.1694 78.6555 69 83.5184 69C86.9539 69 89.9055 70.8145 89.9055 74.371H88.2604C88.1394 71.7581 86.0104 70.4032 83.5426 70.4032C81.2926 70.4032 79.212 71.2742 79.212 73.8387C79.212 75.4597 80.3975 76.1613 81.8249 76.4758L86.0346 77.5161C88.4781 78.1694 90.5104 79.2581 90.5104 82.0645C90.5104 83.25 90.0265 87 83.9055 87C79.8168 87 76.8168 85.1613 77.0104 80.9516Z" fill="#333333"/>
<path id="Vector_8" d="M63.868 86.6372V69.363H67.3035V78.6292L71.6341 74.1292H75.6986L70.9809 78.7259L76.2309 86.6372H72.0696L68.6341 81.0485L67.3035 82.3308V86.6372H63.868Z" fill="#333333"/>
<path id="Vector_9" d="M52.9514 77.976H49.516C49.7095 74.7825 52.5885 73.7905 55.395 73.7905C57.8869 73.7905 60.8869 74.347 60.8869 77.347V83.855C60.8869 84.9921 61.0079 86.1292 61.3224 86.6373H57.8385C57.7176 86.2502 57.6208 85.8389 57.5966 85.4276C56.5079 86.5647 54.9353 86.976 53.3869 86.976C50.9918 86.976 49.1289 85.7905 49.1289 83.226C49.1772 77.5405 57.5966 80.5889 57.4514 77.7825C57.4514 76.3308 56.4353 76.0889 55.2256 76.0889C53.895 76.0889 53.0724 76.6212 52.9514 77.976ZM57.4514 81.7986V80.5163C56.8708 81.0244 55.6611 81.0486 54.5966 81.2421C53.5321 81.4357 52.5643 81.8228 52.5643 83.0808C52.5643 84.3389 53.5563 84.6776 54.6692 84.6776C57.3547 84.6776 57.4514 82.5728 57.4514 81.7986Z" fill="#333333"/>
<path id="Vector_10" d="M40.3629 86.6372V79.9114L34 69.363H38.2823L42.3226 76.1856L46.3387 69.363H50.5726L44.1613 80.0082V86.6372H40.3629Z" fill="#333333"/>
</g>
</g>
</g>
</svg>
