<svg width="133" height="101" viewBox="0 0 133 101" fill="none" xmlns="http://www.w3.org/2000/svg">
<path fill-rule="evenodd" clip-rule="evenodd" d="M45.1437 25.5946C44.4965 25.6897 43.8485 25.7802 43.2013 25.8708L42.6766 25.9442C41.2732 26.1448 39.8668 26.3382 38.4532 26.3977C37.0488 26.4638 35.6408 26.4517 34.233 26.4393C33.7997 26.4356 33.3658 26.432 32.9328 26.4304C29.5826 26.4127 26.291 25.9097 23.0772 24.7915C20.2516 23.8102 17.6709 22.352 15.2805 20.3841C13.2082 18.675 11.5067 16.6221 10.0832 14.3844C7.62966 10.5158 5.97601 6.23915 5.13532 1.65092C5.06515 1.28509 4.93633 0.929975 4.80752 0.573805C4.74311 0.396654 4.67897 0.219214 4.62163 0.0400897C4.5512 0.0245594 4.47397 0.0122926 4.39699 0C4.27917 0.2473 4.15874 0.493047 4.03804 0.73861C3.74925 1.3271 3.46073 1.91462 3.21227 2.52022C0.753797 8.4737 0.0149451 14.7698 0.800137 21.2764C1.02792 23.2256 1.62356 25.1524 2.21212 27.0566C2.29433 27.3227 2.37655 27.5886 2.45745 27.8536C3.07612 29.9076 4.19565 31.683 5.32854 33.4798L5.50317 33.7567C7.41104 36.7783 9.7496 39.3139 12.3785 41.5208C14.34 43.162 16.4922 44.5529 18.6312 45.9354C18.8703 46.0901 19.1114 46.246 19.3502 46.4008C22.16 48.2317 25.1827 49.585 28.2434 50.8329C28.662 51.0038 29.0814 51.1714 29.5017 51.3354L29.5318 70.2155L40.0566 62.0256L50.2512 95.5239C50.5251 96.4233 51.2556 97.1077 52.1672 97.3188L68.0653 101L83.9514 97.3188C84.863 97.1077 85.5933 96.4233 85.8671 95.5241L96.0217 62.1572L106.37 70.2155L106.402 50.1475C108.897 49.083 111.345 47.9027 113.65 46.4008C113.889 46.2457 114.128 46.0909 114.368 45.9362C116.507 44.5537 118.66 43.162 120.622 41.5208C123.25 39.3139 125.589 36.7783 127.497 33.7567L127.671 33.4798C128.804 31.683 129.924 29.9076 130.543 27.8536C130.623 27.5901 130.704 27.3261 130.786 27.0619L130.788 27.0566C131.376 25.1524 131.972 23.2256 132.2 21.2764C132.985 14.7698 132.246 8.4737 129.788 2.52022C129.539 1.91462 129.251 1.32713 128.962 0.738663C128.841 0.493074 128.721 0.247327 128.603 0C128.526 0.0122926 128.449 0.0245594 128.378 0.0400897C128.321 0.219083 128.257 0.39639 128.193 0.573436C128.064 0.929579 127.935 1.28512 127.865 1.65092C127.024 6.23915 125.37 10.5158 122.917 14.3844C121.493 16.6221 119.792 18.675 117.72 20.3841C115.329 22.352 112.748 23.8102 109.923 24.7915C106.709 25.9097 103.417 26.4127 100.067 26.4304C99.6343 26.432 99.201 26.4356 98.7677 26.4393C97.3599 26.4517 95.951 26.4638 94.5469 26.3977C94.2958 26.3872 94.0447 26.3722 93.7942 26.354L68.0653 19.4128L45.1437 25.5946Z" fill="#CC4141"/>
</svg>
