<svg width="180" height="108" viewBox="0 0 180 108" fill="none" xmlns="http://www.w3.org/2000/svg">
<g id="YakShaver-horizontal_BW">
<g id="EagleEye-Horizontal-Color">
<g id="Group 3">
<path id="Path" d="M38.504 59.3227L28 54.6381V53.5803L38.504 48.8958V50.0039L29.3 54.1344L38.504 58.2649V59.3227Z" fill="#333333"/>
<path id="Path_2" d="M78.336 54.1344L69.08 50.0039V48.8958L79.584 53.5803V54.6885L69.08 59.3731V58.2649L78.336 54.1344Z" fill="#333333"/>
<path id="Vector" fill-rule="evenodd" clip-rule="evenodd" d="M49.4699 47.3217C49.3326 47.3414 49.1951 47.3602 49.0578 47.3791L48.9465 47.3943C48.6489 47.436 48.3505 47.4763 48.0507 47.4886C47.7528 47.5024 47.4541 47.4999 47.1555 47.4973C47.0636 47.4965 46.9715 47.4958 46.8797 47.4954C46.169 47.4918 45.4708 47.3872 44.7891 47.1547C44.1897 46.9506 43.6423 46.6474 43.1353 46.2383C42.6957 45.8829 42.3347 45.4561 42.0328 44.9908C41.5124 44.1864 41.1616 43.2972 40.9832 42.3433C40.9684 42.2672 40.941 42.1934 40.9137 42.1193C40.9001 42.0825 40.8864 42.0456 40.8743 42.0083C40.8593 42.0051 40.843 42.0026 40.8266 42C40.8016 42.0514 40.7761 42.1025 40.7505 42.1536C40.6892 42.2759 40.628 42.3981 40.5753 42.524C40.0538 43.7619 39.8971 45.0709 40.0637 46.4238C40.112 46.8291 40.2383 47.2297 40.3632 47.6256C40.3806 47.681 40.3981 47.7362 40.4152 47.7913C40.5465 48.2184 40.7839 48.5876 41.0242 48.9611L41.0613 49.0187C41.466 49.647 41.962 50.1742 42.5197 50.633C42.9358 50.9743 43.3923 51.2635 43.846 51.5509C43.8967 51.5831 43.9479 51.6155 43.9985 51.6477C44.5946 52.0284 45.2357 52.3098 45.885 52.5692C45.9738 52.6047 46.0627 52.6396 46.1519 52.6737L46.1583 56.5993L48.3908 54.8964L50.5533 61.8614C50.6114 62.0484 50.7663 62.1907 50.9597 62.2346L54.332 63L57.7018 62.2346C57.8952 62.1907 58.0501 62.0484 58.1082 61.8615L60.2622 54.9238L62.4573 56.5993L62.4641 52.4267C62.9933 52.2054 63.5125 51.96 64.0015 51.6477C64.0521 51.6154 64.103 51.5833 64.1538 51.5511C64.6075 51.2636 65.0643 50.9743 65.4803 50.633C66.0379 50.1742 66.534 49.647 66.9387 49.0187L66.9757 48.9611C67.216 48.5876 67.4535 48.2184 67.5848 47.7913C67.6019 47.7366 67.6191 47.6817 67.6365 47.6267L67.6368 47.6256C67.7616 47.2297 67.888 46.8291 67.9364 46.4238C68.1029 45.0709 67.9462 43.7619 67.4246 42.524C67.3719 42.3981 67.3108 42.2759 67.2495 42.1536C67.2239 42.1025 67.1983 42.0514 67.1733 42C67.157 42.0026 67.1407 42.0051 67.1257 42.0083C67.1136 42.0456 67.0999 42.0824 67.0863 42.1192C67.0589 42.1933 67.0316 42.2672 67.0168 42.3433C66.8384 43.2972 66.4876 44.1864 65.9672 44.9908C65.6652 45.4561 65.3043 45.8829 64.8648 46.2383C64.3577 46.6474 63.8102 46.9506 63.2109 47.1547C62.5292 47.3872 61.8309 47.4918 61.1203 47.4954C61.0285 47.4958 60.9366 47.4965 60.8447 47.4973C60.546 47.4999 60.2472 47.5024 59.9493 47.4886C59.8961 47.4864 59.8428 47.4833 59.7897 47.4796L54.332 46.0363L49.4699 47.3217Z" fill="#333333"/>
</g>
<g id="CodeAuditor">
<path id="Vector_2" d="M155.098 58.5286V50.0146H156.055V52.0111H156.088C156.616 50.6251 157.771 49.8331 159.306 49.8991V50.9386C157.425 50.8561 156.138 52.2091 156.138 53.9911V58.5286H155.098Z" fill="#333333"/>
<path id="Vector_3" d="M147.153 53.6776H152.664C152.614 52.1101 151.624 50.6416 149.958 50.6416C148.242 50.6416 147.334 52.1266 147.153 53.6776ZM153.703 54.5521H147.153C147.153 56.0701 147.978 57.9016 149.958 57.9016C151.476 57.9016 152.301 57.0271 152.631 55.7236H153.67C153.225 57.6541 152.119 58.7761 149.958 58.7761C147.252 58.7761 146.113 56.6971 146.113 54.2716C146.113 52.0276 147.252 49.7671 149.958 49.7671C152.68 49.7671 153.786 52.1596 153.703 54.5521Z" fill="#333333"/>
<path id="Vector_4" d="M141.231 58.5284L137.948 50.0144H139.103L141.776 57.4889H141.809L144.449 50.0144H145.521L142.337 58.5284H141.231Z" fill="#333333"/>
<path id="Vector_5" d="M131.289 52.6216H130.249C130.365 50.6251 131.734 49.7671 133.698 49.7671C135.199 49.7671 136.833 50.2126 136.833 52.5061V57.0271C136.833 57.4396 137.031 57.6541 137.443 57.6541C137.559 57.6541 137.658 57.6376 137.773 57.5881V58.4626C137.526 58.5121 137.377 58.5286 137.097 58.5286C136.041 58.5286 135.876 57.9181 135.876 57.0436H135.843C135.1 58.1491 134.391 58.7761 132.741 58.7761C131.157 58.7761 129.886 58.0006 129.886 56.2846C129.886 53.9086 132.213 53.8096 134.457 53.5456C135.315 53.4631 135.793 53.3146 135.793 52.3906C135.793 50.9881 134.803 50.6416 133.566 50.6416C132.262 50.6416 131.338 51.2356 131.289 52.6216ZM135.793 55.2286V53.8756H135.76C135.628 54.1231 135.166 54.2056 134.886 54.2551C133.12 54.5686 130.926 54.5686 130.926 56.2186C130.926 57.2581 131.833 57.9016 132.823 57.9016C134.424 57.9016 135.793 56.8951 135.793 55.2286Z" fill="#333333"/>
<path id="Vector_6" d="M121.47 58.5286V46.7476H122.509V51.4831H122.542C122.938 50.4601 124.06 49.7671 125.265 49.7671C127.657 49.7671 128.383 51.0211 128.383 53.0506V58.5286H127.344V53.2156C127.344 51.7636 126.865 50.6416 125.182 50.6416C123.516 50.6416 122.559 51.8956 122.509 53.5621V58.5286H121.47Z" fill="#333333"/>
<path id="Vector_7" d="M110.697 54.651H111.819C111.77 57.0765 113.502 57.819 115.664 57.819C116.901 57.819 118.782 57.1425 118.782 55.4265C118.782 54.09 117.462 53.562 116.357 53.298L113.733 52.6545C112.347 52.308 111.077 51.6645 111.077 49.8165C111.077 48.6615 111.819 46.5 115.136 46.5C117.479 46.5 119.492 47.7375 119.492 50.163H118.37C118.287 48.381 116.835 47.457 115.152 47.457C113.618 47.457 112.199 48.051 112.199 49.8C112.199 50.9055 113.007 51.384 113.981 51.5985L116.852 52.308C118.518 52.7535 119.904 53.496 119.904 55.41C119.904 56.2185 119.574 58.776 115.4 58.776C112.611 58.776 110.565 57.522 110.697 54.651Z" fill="#333333"/>
<path id="Vector_8" d="M101.734 58.5286V46.7476H104.077V53.0671L107.03 49.9981H109.802L106.585 53.1331L110.165 58.5286H107.327L104.984 54.7171L104.077 55.5916V58.5286H101.734Z" fill="#333333"/>
<path id="Vector_9" d="M94.2889 52.6216H91.9459C92.0779 50.4436 94.0414 49.7671 95.9554 49.7671C97.6549 49.7671 99.7009 50.1466 99.7009 52.1926V56.6311C99.7009 57.4066 99.7834 58.1821 99.9979 58.5286H97.6219C97.5394 58.2646 97.4734 57.9841 97.4569 57.7036C96.7144 58.4791 95.6419 58.7596 94.5859 58.7596C92.9524 58.7596 91.6819 57.9511 91.6819 56.2021C91.7149 52.3246 97.4569 54.4036 97.3579 52.4896C97.3579 51.4996 96.6649 51.3346 95.8399 51.3346C94.9324 51.3346 94.3714 51.6976 94.2889 52.6216ZM97.3579 55.2286V54.3541C96.9619 54.7006 96.1369 54.7171 95.4109 54.8491C94.6849 54.9811 94.0249 55.2451 94.0249 56.1031C94.0249 56.9611 94.7014 57.1921 95.4604 57.1921C97.2919 57.1921 97.3579 55.7566 97.3579 55.2286Z" fill="#333333"/>
<path id="Vector_10" d="M86.3395 58.781V54.194L82 47H84.9205L87.676 51.653L90.415 47H93.3025L88.93 54.26V58.781H86.3395Z" fill="#333333"/>
</g>
</g>
</g>
</svg>
