<svg width="133" height="101" viewBox="0 0 133 101" fill="none" xmlns="http://www.w3.org/2000/svg">
<path fill-rule="evenodd" clip-rule="evenodd" d="M45.1437 25.8412C44.4965 25.9353 43.8485 26.025 43.2013 26.1146L42.6766 26.1873C41.2732 26.3859 39.8668 26.5775 38.4532 26.6364C37.0488 26.7018 35.6408 26.6898 34.233 26.6775C33.7997 26.6739 33.3658 26.6703 32.9328 26.6687C29.5826 26.6512 26.291 26.1532 23.0772 25.0461C20.2516 24.0745 17.6709 22.6307 15.2805 20.6823C13.2082 18.9901 11.5067 16.9575 10.0832 14.742C7.62966 10.9117 5.97601 6.67738 5.13532 2.13458C5.06515 1.77237 4.93633 1.42077 4.80752 1.06812C4.74311 0.892727 4.67897 0.717044 4.62163 0.539693C4.5512 0.524316 4.47397 0.512171 4.39699 0.5C4.27917 0.744852 4.15874 0.988166 4.03804 1.2313C3.74925 1.81396 3.46073 2.39567 3.21227 2.99527C0.753798 8.8898 0.0149451 15.1235 0.800137 21.5658C1.02792 23.4956 1.62356 25.4034 2.21212 27.2887C2.29433 27.5522 2.37655 27.8154 2.45745 28.0779C3.07612 30.1115 4.19565 31.8693 5.32854 33.6483L5.50317 33.9225C7.41104 36.9141 9.74959 39.4247 12.3785 41.6097C14.34 43.2347 16.4922 44.6118 18.6312 45.9806C18.8703 46.1338 19.1114 46.2881 19.3502 46.4413C22.16 48.2542 25.1827 49.594 28.2434 50.8296C28.662 50.9988 29.0814 51.1648 29.5017 51.3272L29.5318 70.0203L40.0566 61.9114L50.2512 95.0781C50.5251 95.9686 51.2556 96.6462 52.1672 96.8552L68.0653 100.5L83.9514 96.8552C84.863 96.6462 85.5933 95.9686 85.8671 95.0783L96.0217 62.0417L106.37 70.0203L106.402 50.151C108.897 49.0971 111.345 47.9284 113.65 46.4413C113.889 46.2878 114.128 46.1346 114.368 45.9813C116.507 44.6126 118.66 43.2347 120.622 41.6097C123.25 39.4247 125.589 36.9141 127.497 33.9225L127.671 33.6483C128.804 31.8693 129.924 30.1115 130.543 28.0779C130.623 27.817 130.704 27.5556 130.786 27.2939L130.788 27.2887C131.376 25.4034 131.972 23.4956 132.2 21.5658C132.985 15.1235 132.246 8.8898 129.788 2.99527C129.539 2.39567 129.251 1.81399 128.962 1.23135C128.841 0.988192 128.721 0.744878 128.603 0.5C128.526 0.512171 128.449 0.524316 128.378 0.539693C128.321 0.716914 128.257 0.892466 128.193 1.06776C128.064 1.42038 127.935 1.7724 127.865 2.13458C127.024 6.67738 125.37 10.9117 122.917 14.742C121.493 16.9575 119.792 18.9901 117.72 20.6823C115.329 22.6307 112.748 24.0745 109.923 25.0461C106.709 26.1532 103.417 26.6512 100.067 26.6687C99.6343 26.6703 99.201 26.6739 98.7677 26.6775C97.3599 26.6898 95.951 26.7018 94.5469 26.6364C94.2958 26.6259 94.0447 26.6111 93.7942 26.5931L68.0653 19.7206L45.1437 25.8412Z" fill="#333333"/>
</svg>
