<?xml version="1.0" encoding="UTF-8"?>
<svg width="115px" height="68px" viewBox="0 0 115 68" version="1.1" xmlns="http://www.w3.org/2000/svg" xmlns:xlink="http://www.w3.org/1999/xlink">
    <title>YakShaver-BW-1</title>
    <g id="Page-1" stroke="none" stroke-width="1" fill="none" fill-rule="evenodd">
        <g id="YakShaver-BW-1" fill="#333333">
            <g id="Group-3" transform="translate(29.999977, 0.000000)">
                <path d="M17.925123,10.1365 C17.665323,10.1741 17.405123,10.21 17.145223,10.2458 L16.934523,10.2749 C16.371123,10.3544 15.806423,10.431 15.238823,10.4545 C14.674923,10.4807 14.109523,10.4759 13.544323,10.471 C13.370323,10.4696 13.196123,10.4681 13.022323,10.4675 C11.677123,10.4605 10.355523,10.2613 9.06512299,9.8184 C7.93062299,9.4298 6.89442299,8.8523 5.93462299,8.0729 C5.10252299,7.396 4.41932299,6.583 3.84782299,5.6968 C2.86272299,4.1647 2.19872299,2.471 1.86112299,0.6538 C1.83302299,0.5089 1.78132299,0.3683 1.72952299,0.2272 C1.70372299,0.1571 1.67792299,0.0868 1.65492299,0.0159 C1.62662299,0.0097 1.59562299,0.0049 1.56472299,0 C1.51742299,0.0979 1.46902299,0.1953 1.42062299,0.2925 C1.30462299,0.5256 1.18882299,0.7583 1.08902299,0.9981 C0.101922986,3.3559 -0.194777014,5.8494 0.120522986,8.4263 C0.212022986,9.1983 0.451122986,9.9614 0.687422986,10.7155 C0.720522986,10.8209 0.753522986,10.9262 0.785922986,11.0311 C1.03442299,11.8446 1.48392299,12.5477 1.93872299,13.2593 L2.00882299,13.369 C2.77492299,14.5657 3.71392299,15.5699 4.76942299,16.4439 C5.55702299,17.0939 6.42112299,17.6447 7.28002299,18.1922 C7.37592299,18.2535 7.47282299,18.3152 7.56862299,18.3765 C8.69682299,19.1017 9.91052299,19.6376 11.139423,20.1319 C11.307523,20.1995 11.475923,20.2659 11.644623,20.3309 L11.656723,27.8081 L15.882623,24.5646 L19.975923,37.8312 C20.085823,38.1874 20.379123,38.4585 20.745223,38.5421 L27.128523,40 L33.507023,38.5421 C33.873023,38.4585 34.166223,38.1874 34.276223,37.8313 L38.353023,24.6167 L42.509023,27.8081 L42.521023,19.8604 C43.523023,19.4388 44.506023,18.9714 45.431023,18.3765 C45.527023,18.3151 45.623023,18.2538 45.720023,18.1925 C46.578023,17.645 47.443023,17.0939 48.231023,16.4439 C49.286023,15.5699 50.225023,14.5657 50.991023,13.369 L51.061023,13.2593 C51.516023,12.5477 51.966023,11.8446 52.214023,11.0311 C52.246023,10.9268 52.279023,10.8222 52.312023,10.7176 L52.312023,10.7155 C52.549023,9.9614 52.788023,9.1983 52.880023,8.4263 C53.195023,5.8494 52.898023,3.3559 51.911023,0.9981 C51.811023,0.7583 51.695023,0.5256 51.579023,0.2925 C51.531023,0.1953 51.483023,0.098 51.435023,0 C51.404023,0.0049 51.373023,0.0097 51.345023,0.0159 C51.322023,0.0868 51.296023,0.157 51.271023,0.2271 C51.219023,0.3682 51.167023,0.509 51.139023,0.6538 C50.801023,2.471 50.137023,4.1647 49.152023,5.6968 C48.581023,6.583 47.897023,7.396 47.065023,8.0729 C46.106023,8.8523 45.069023,9.4298 43.935023,9.8184 C42.644023,10.2613 41.323023,10.4605 39.978023,10.4675 C39.804023,10.4681 39.630023,10.4696 39.456023,10.471 C38.891023,10.4759 38.325023,10.4807 37.761023,10.4545 C37.660023,10.4504 37.560023,10.4444 37.459023,10.4372 L27.128523,7.6882 L17.925123,10.1365 Z" id="Vector"></path>
            </g>
            <g id="EagleEye-Horizontal-Color" transform="translate(0.000000, 50.000000)" fill-rule="nonzero">
                <g id="CodeAuditor">
                    <path d="M108.115,17.6371 L108.115,5.1532 L109.518,5.1532 L109.518,8.0806 L109.567,8.0806 C110.341,6.0484 112.034,4.8871 114.284,4.9839 L114.284,6.5081 C111.526,6.3871 109.639,8.371 109.639,10.9839 L109.639,17.6371 L108.115,17.6371 Z" id="Vector_2"></path>
                    <path d="M96.465,10.5244 L104.545,10.5244 C104.473,8.226 103.021,6.0728 100.577,6.0728 C98.061,6.0728 96.731,8.2502 96.465,10.5244 Z M106.069,11.8067 L96.465,11.8067 C96.465,14.0325 97.674,16.7179 100.577,16.7179 C102.803,16.7179 104.013,15.4357 104.497,13.5244 L106.021,13.5244 C105.368,16.355 103.747,18.0002 100.577,18.0002 C96.61,18.0002 94.94,14.9518 94.94,11.3954 C94.94,8.105 96.61,4.7905 100.577,4.7905 C104.569,4.7905 106.19,8.2986 106.069,11.8067 Z" id="Vector_3"></path>
                    <polygon id="Vector_4" points="87.782 17.6369 82.967 5.1531 84.661 5.1531 88.58 16.1128 88.628 16.1128 92.499 5.1531 94.072 5.1531 89.403 17.6369"></polygon>
                    <path d="M73.204,8.976 L71.68,8.976 C71.849,6.0486 73.857,4.7905 76.736,4.7905 C78.938,4.7905 81.333,5.4438 81.333,8.8067 L81.333,15.4357 C81.333,16.0405 81.623,16.355 82.228,16.355 C82.397,16.355 82.542,16.3308 82.712,16.2583 L82.712,17.5405 C82.349,17.6131 82.131,17.6373 81.72,17.6373 C80.172,17.6373 79.93,16.7421 79.93,15.4599 L79.881,15.4599 C78.792,17.0809 77.752,18.0002 75.333,18.0002 C73.01,18.0002 71.147,16.8631 71.147,14.347 C71.147,10.8631 74.559,10.7179 77.849,10.3309 C79.107,10.2099 79.809,9.9921 79.809,8.6373 C79.809,6.5809 78.357,6.0728 76.542,6.0728 C74.631,6.0728 73.276,6.9438 73.204,8.976 Z M79.809,12.7986 L79.809,10.8147 L79.76,10.8147 C79.567,11.1776 78.889,11.2986 78.478,11.3712 C75.889,11.8308 72.672,11.8308 72.672,14.2502 C72.672,15.7744 74.002,16.7179 75.454,16.7179 C77.801,16.7179 79.809,15.2421 79.809,12.7986 Z" id="Vector_5"></path>
                    <path d="M58.806,17.6372 L58.806,0.363 L60.3301,0.363 L60.3301,7.3066 L60.3785,7.3066 C60.9592,5.8066 62.6043,4.7905 64.3705,4.7905 C67.879,4.7905 68.943,6.6292 68.943,9.605 L68.943,17.6372 L67.419,17.6372 L67.419,9.8469 C67.419,7.7179 66.717,6.0727 64.2495,6.0727 C61.806,6.0727 60.4027,7.9114 60.3301,10.355 L60.3301,17.6372 L58.806,17.6372 Z" id="Vector_6"></path>
                    <path d="M43.0104,11.9516 L44.6555,11.9516 C44.583,15.5081 47.1233,16.5968 50.2926,16.5968 C52.1072,16.5968 54.8652,15.6048 54.8652,13.0887 C54.8652,11.129 52.9297,10.3548 51.3088,9.9677 L47.462,9.0242 C45.4297,8.5161 43.5668,7.5726 43.5668,4.8629 C43.5668,3.1694 44.6555,0 49.5184,0 C52.9539,0 55.9055,1.8145 55.9055,5.371 L54.2604,5.371 C54.1394,2.7581 52.0104,1.4032 49.5426,1.4032 C47.2926,1.4032 45.212,2.2742 45.212,4.8387 C45.212,6.4597 46.3975,7.1613 47.8249,7.4758 L52.0346,8.5161 C54.4781,9.1694 56.5104,10.2581 56.5104,13.0645 C56.5104,14.25 56.0265,18 49.9055,18 C45.8168,18 42.8168,16.1613 43.0104,11.9516 Z" id="Vector_7"></path>
                    <polygon id="Vector_8" points="29.868 17.6372 29.868 0.363 33.3035 0.363 33.3035 9.6292 37.6341 5.1292 41.6986 5.1292 36.9809 9.7259 42.2309 17.6372 38.0696 17.6372 34.6341 12.0485 33.3035 13.3308 33.3035 17.6372"></polygon>
                    <path d="M18.9514,8.976 L15.516,8.976 C15.7095,5.7825 18.5885,4.7905 21.395,4.7905 C23.8869,4.7905 26.8869,5.347 26.8869,8.347 L26.8869,14.855 C26.8869,15.9921 27.0079,17.1292 27.3224,17.6373 L23.8385,17.6373 C23.7176,17.2502 23.6208,16.8389 23.5966,16.4276 C22.5079,17.5647 20.9353,17.976 19.3869,17.976 C16.9918,17.976 15.1289,16.7905 15.1289,14.226 C15.1772,8.5405 23.5966,11.5889 23.4514,8.7825 C23.4514,7.3308 22.4353,7.0889 21.2256,7.0889 C19.895,7.0889 19.0724,7.6212 18.9514,8.976 Z M23.4514,12.7986 L23.4514,11.5163 C22.8708,12.0244 21.6611,12.0486 20.5966,12.2421 C19.5321,12.4357 18.5643,12.8228 18.5643,14.0808 C18.5643,15.3389 19.5563,15.6776 20.6692,15.6776 C23.3547,15.6776 23.4514,13.5728 23.4514,12.7986 Z" id="Vector_9"></path>
                    <polygon id="Vector_10" points="6.3629 17.6372 6.3629 10.9114 0 0.363 4.2823 0.363 8.3226 7.1856 12.3387 0.363 16.5726 0.363 10.1613 11.0082 10.1613 17.6372"></polygon>
                </g>
            </g>
        </g>
    </g>
</svg>