<?xml version="1.0" encoding="UTF-8"?>
<svg width="199px" height="119px" viewBox="0 0 199 119" version="1.1" xmlns="http://www.w3.org/2000/svg" xmlns:xlink="http://www.w3.org/1999/xlink">
    <title>YakShaver-Vertical-White</title>
    <g id="Page-1" stroke="none" stroke-width="1" fill="none" fill-rule="evenodd">
        <g id="YakShaver-Vertical-White" transform="translate(0.121094, 0.492188)" fill="#FFFFFF" fill-rule="nonzero">
            <path d="M142.478906,0.510272 C142.678906,0.916702 142.878906,1.322642 143.050906,1.740892 C144.754906,5.853522 145.266906,10.203012 144.722906,14.697812 C144.564906,16.044212 144.151906,17.375712 143.744906,18.691112 C143.687906,18.874912 143.630906,19.058612 143.573906,19.241712 C143.145906,20.660512 142.369906,21.887112 141.584906,23.128212 L141.463906,23.319512 C140.140906,25.406712 138.520906,27.158612 136.698906,28.683112 C135.339906,29.816812 133.847906,30.777512 132.364906,31.732512 C132.199906,31.839412 132.031906,31.947212 131.866906,32.054112 C129.919906,33.318912 127.824906,34.253712 125.703906,35.115812 C125.413906,35.233712 125.122906,35.349612 124.831906,35.462812 L124.810906,48.505512 L117.516906,42.847812 L110.451906,65.988712 C110.261906,66.610012 109.754906,67.082712 109.123906,67.228512 L98.447306,69.692712 C98.380806,69.708012 98.311606,69.708012 98.245106,69.692712 L87.568906,67.228512 C86.937106,67.082712 86.430606,66.610012 86.240806,65.988712 L79.175406,42.847812 L71.881706,48.505512 L71.860606,35.462812 C71.569406,35.349512 71.278506,35.233812 70.988406,35.115812 C68.867406,34.253712 66.772706,33.318912 64.825506,32.054112 C64.660006,31.947212 64.492806,31.839412 64.327106,31.732512 C62.844706,30.777512 61.353106,29.816812 59.993706,28.683112 C58.171806,27.158512 56.551106,25.406812 55.228906,23.319512 L55.107906,23.128212 C54.322806,21.887012 53.546806,20.660512 53.118006,19.241712 C53.062006,19.058612 53.004906,18.874912 52.948006,18.691112 C52.540106,17.375712 52.127606,16.044312 51.969706,14.697812 C51.425606,10.203012 51.937606,5.853542 53.641406,1.740892 C53.813506,1.322622 54.013306,0.916732 54.213406,0.510272 C54.297006,0.340643 54.380706,0.170832 54.462306,0 C54.515606,0.008483 54.569106,0.016855 54.617906,0.02757 C54.657606,0.151307 54.702106,0.274118 54.746806,0.396491 C54.836006,0.642492 54.925206,0.887792 54.973806,1.140462 C55.556406,4.310032 56.702706,7.264332 58.403106,9.936812 C59.389606,11.482612 60.568906,12.900912 62.005006,14.081612 C63.661606,15.440912 65.450206,16.448312 67.408406,17.126212 C69.635606,17.898612 71.916706,18.246112 74.238406,18.258312 C74.538506,18.259412 74.839306,18.261912 75.139606,18.264412 C76.115206,18.273012 77.091106,18.281612 78.064306,18.236012 C79.043906,18.194912 80.018806,18.061212 80.991306,17.922612 L81.355106,17.871912 C81.803606,17.809312 82.252606,17.746712 82.701106,17.681112 L98.229506,13.506412 C98.306006,13.485812 98.386506,13.485812 98.462906,13.506412 L113.990906,17.681112 C114.439906,17.746712 114.888906,17.809312 115.336906,17.871912 L115.700906,17.922612 C116.673906,18.061212 117.648906,18.194912 118.627906,18.236012 C119.600906,18.281612 120.576906,18.273012 121.552906,18.264412 C121.852906,18.261912 122.153906,18.259412 122.453906,18.258312 C124.775906,18.246112 127.056906,17.898512 129.283906,17.126212 C131.241906,16.448312 133.030906,15.440912 134.687906,14.081612 C136.123906,12.900912 137.302906,11.482612 138.288906,9.936812 C139.989906,7.264352 141.135906,4.310002 141.718906,1.140462 C141.766906,0.887802 141.856906,0.642482 141.945906,0.396491 C141.989906,0.274137 142.034906,0.151288 142.074906,0.02757 C142.122906,0.016874 142.176906,0.008473 142.229906,0 C142.311906,0.170808 142.395906,0.340666 142.478906,0.510272 Z" id="Path"></path>
            <path d="M187.632906,117.385812 L187.632906,95.719512 L190.067906,95.719512 L190.067906,100.799812 L190.152906,100.799812 C191.495906,97.273212 194.433906,95.257712 198.338906,95.425712 L198.338906,98.071012 C193.552906,97.861012 190.277906,101.303812 190.277906,105.838812 L190.277906,117.385812 L187.632906,117.385812 Z" id="Path"></path>
            <path d="M167.415906,105.040812 L181.438906,105.040812 C181.313906,101.051812 178.793906,97.315312 174.552906,97.315312 C170.185906,97.315312 167.877906,101.093812 167.415906,105.040812 Z M184.083906,107.266812 L167.415906,107.266812 C167.415906,111.128812 169.513906,115.789812 174.552906,115.789812 C178.415906,115.789812 180.515906,113.564812 181.355906,110.247812 L184.000906,110.247812 C182.866906,115.159812 180.053906,118.014812 174.552906,118.014812 C167.667906,118.014812 164.769906,112.724812 164.769906,106.552812 C164.769906,100.841812 167.667906,95.089812 174.552906,95.089812 C181.480906,95.089812 184.293906,101.177812 184.083906,107.266812 Z" id="Shape"></path>
            <polygon id="Path" points="152.344906 117.384812 143.987906 95.718712 146.927906 95.718712 153.729906 114.738812 153.812906 114.738812 160.530906 95.718712 163.260906 95.718712 155.157906 117.384812"></polygon>
            <path d="M127.046906,102.353812 L124.401906,102.353812 C124.694906,97.273312 128.179906,95.089812 133.175906,95.089812 C136.997906,95.089812 141.153906,96.223612 141.153906,102.059812 L141.153906,113.564812 C141.153906,114.613812 141.657906,115.159812 142.707906,115.159812 C143.000906,115.159812 143.252906,115.117812 143.547906,114.991812 L143.547906,117.217812 C142.917906,117.343812 142.538906,117.385812 141.825906,117.385812 C139.139906,117.385812 138.719906,115.831812 138.719906,113.606812 L138.633906,113.606812 C136.744906,116.419812 134.939906,118.014812 130.740906,118.014812 C126.709906,118.014812 123.476906,116.041812 123.476906,111.674812 C123.476906,105.628812 129.397906,105.376812 135.107906,104.704812 C137.290906,104.494812 138.509906,104.116812 138.509906,101.765812 C138.509906,98.197112 135.989906,97.315312 132.839906,97.315312 C129.522906,97.315312 127.171906,98.826912 127.046906,102.353812 Z M138.509906,108.987812 L138.509906,105.544812 L138.423906,105.544812 C138.089906,106.174812 136.912906,106.384812 136.199906,106.510812 C131.705906,107.307812 126.122906,107.307812 126.122906,111.506812 C126.122906,114.152812 128.430906,115.789812 130.950906,115.789812 C135.024906,115.789812 138.509906,113.228812 138.509906,108.987812 Z" id="Shape"></path>
            <path d="M102.058906,117.385812 L102.058906,87.406212 L104.703906,87.406212 L104.703906,99.456812 L104.787906,99.456812 C105.795906,96.853612 108.650906,95.090112 111.715906,95.090112 C117.804906,95.090112 119.650906,98.281212 119.650906,103.445812 L119.650906,117.385812 L117.006906,117.385812 L117.006906,103.865812 C117.006906,100.170812 115.787906,97.315412 111.505906,97.315412 C107.264906,97.315412 104.829906,100.506812 104.703906,104.747812 L104.703906,117.385812 L102.058906,117.385812 Z" id="Path"></path>
            <path d="M74.644306,107.517812 L77.499406,107.517812 C77.373506,113.689812 81.782206,115.578812 87.282506,115.578812 C90.431706,115.578812 95.218206,113.857812 95.218206,109.490812 C95.218206,106.089812 91.859206,104.745812 89.046106,104.073812 L82.370006,102.436812 C78.843006,101.554812 75.609906,99.917812 75.609906,95.214912 C75.609906,92.275912 77.499406,86.775412 85.938906,86.775412 C91.901206,86.775412 97.023706,89.924412 97.023706,96.096712 L94.168606,96.096712 C93.958606,91.562112 90.263806,89.210612 85.980906,89.210612 C82.076006,89.210612 78.465106,90.722212 78.465106,95.172912 C78.465106,97.986212 80.522606,99.203812 82.999806,99.749812 L90.305706,101.554812 C94.546406,102.688812 98.073506,104.577812 98.073506,109.448812 C98.073506,111.505812 97.233706,118.014812 86.610706,118.014812 C79.514806,118.014812 74.308306,114.822812 74.644306,107.517812 Z" id="Path"></path>
            <polygon id="Path" points="51.835906 117.385812 51.835906 87.406212 57.798206 87.406212 57.798206 103.487812 65.314006 95.678012 72.368106 95.678012 64.180306 103.655812 73.291706 117.385812 66.069806 117.385812 60.107506 107.686812 57.798206 109.911812 57.798206 117.385812"></polygon>
            <path d="M32.891906,102.353812 L26.929606,102.353812 C27.265406,96.811412 32.262106,95.089812 37.132606,95.089812 C41.457306,95.089812 46.663806,96.055612 46.663806,101.261812 L46.663806,112.556812 C46.663806,114.529812 46.873806,116.503812 47.419606,117.385812 L41.373506,117.385812 C41.163506,116.713812 40.995506,115.999812 40.953506,115.285812 C39.064006,117.259812 36.334806,117.972812 33.647606,117.972812 C29.490906,117.972812 26.257806,115.915812 26.257806,111.464812 C26.341806,101.597812 40.953506,106.888812 40.701706,102.017812 C40.701706,99.498512 38.938006,99.078712 36.838606,99.078712 C34.529406,99.078712 33.101706,100.002812 32.891906,102.353812 Z M40.701706,108.987812 L40.701706,106.762812 C39.693806,107.643812 37.594406,107.685812 35.747006,108.021812 C33.899506,108.357812 32.220106,109.029812 32.220106,111.212812 C32.220106,113.396812 33.941506,113.984812 35.873006,113.984812 C40.533706,113.984812 40.701706,110.331812 40.701706,108.987812 Z" id="Shape"></path>
            <polygon id="Path" points="11.042806 117.385812 11.042806 105.712812 0 87.406212 7.431916 87.406212 14.443806 99.246812 21.413806 87.406212 28.761706 87.406212 17.634906 105.880812 17.634906 117.385812"></polygon>
        </g>
    </g>
</svg>