<svg width="180" height="108" viewBox="0 0 180 108" fill="none" xmlns="http://www.w3.org/2000/svg">
<g id="YakShaver-horizontal">
<g id="EagleEye-Horizontal-Color">
<g id="Group 3">
<path id="Path" d="M38.504 59.3227L28 54.6381V53.5803L38.504 48.8958V50.0039L29.3 54.1344L38.504 58.2649V59.3227Z" fill="#333333"/>
<path id="Path_2" d="M78.336 54.1344L69.08 50.0039V48.8958L79.584 53.5803V54.6885L69.08 59.3731V58.2649L78.336 54.1344Z" fill="#333333"/>
<path id="Vector" fill-rule="evenodd" clip-rule="evenodd" d="M49.4699 47.3217C49.3326 47.3414 49.1951 47.3602 49.0578 47.3791L48.9465 47.3943C48.6489 47.436 48.3505 47.4763 48.0507 47.4886C47.7528 47.5024 47.4541 47.4999 47.1555 47.4973C47.0636 47.4965 46.9715 47.4958 46.8797 47.4954C46.169 47.4918 45.4708 47.3872 44.7891 47.1547C44.1897 46.9506 43.6423 46.6474 43.1353 46.2383C42.6957 45.8829 42.3347 45.4561 42.0328 44.9908C41.5124 44.1864 41.1616 43.2972 40.9832 42.3433C40.9684 42.2672 40.941 42.1934 40.9137 42.1193C40.9001 42.0825 40.8864 42.0456 40.8743 42.0083C40.8593 42.0051 40.843 42.0026 40.8266 42C40.8016 42.0514 40.7761 42.1025 40.7505 42.1536C40.6892 42.2759 40.628 42.3981 40.5753 42.524C40.0538 43.7619 39.8971 45.0709 40.0637 46.4238C40.112 46.8291 40.2383 47.2297 40.3632 47.6256C40.3806 47.681 40.3981 47.7362 40.4152 47.7913C40.5465 48.2184 40.7839 48.5876 41.0242 48.9611L41.0613 49.0187C41.466 49.647 41.962 50.1742 42.5197 50.633C42.9358 50.9743 43.3923 51.2635 43.846 51.5509C43.8967 51.5831 43.9479 51.6155 43.9985 51.6477C44.5946 52.0284 45.2357 52.3098 45.885 52.5692C45.9738 52.6047 46.0627 52.6396 46.1519 52.6737L46.1583 56.5993L48.3908 54.8964L50.5533 61.8614C50.6114 62.0484 50.7663 62.1907 50.9597 62.2346L54.332 63L57.7018 62.2346C57.8952 62.1907 58.0501 62.0484 58.1082 61.8615L60.2622 54.9238L62.4573 56.5993L62.4641 52.4267C62.9933 52.2054 63.5125 51.96 64.0015 51.6477C64.0521 51.6154 64.103 51.5833 64.1538 51.5511C64.6075 51.2636 65.0643 50.9743 65.4803 50.633C66.0379 50.1742 66.534 49.647 66.9387 49.0187L66.9757 48.9611C67.216 48.5876 67.4535 48.2184 67.5848 47.7913C67.6019 47.7366 67.6191 47.6817 67.6365 47.6267L67.6368 47.6256C67.7616 47.2297 67.888 46.8291 67.9364 46.4238C68.1029 45.0709 67.9462 43.7619 67.4246 42.524C67.3719 42.3981 67.3108 42.2759 67.2495 42.1536C67.2239 42.1025 67.1983 42.0514 67.1733 42C67.157 42.0026 67.1407 42.0051 67.1257 42.0083C67.1136 42.0456 67.0999 42.0824 67.0863 42.1192C67.0589 42.1933 67.0316 42.2672 67.0168 42.3433C66.8384 43.2972 66.4876 44.1864 65.9672 44.9908C65.6652 45.4561 65.3043 45.8829 64.8648 46.2383C64.3577 46.6474 63.8102 46.9506 63.2109 47.1547C62.5292 47.3872 61.8309 47.4918 61.1203 47.4954C61.0285 47.4958 60.9366 47.4965 60.8447 47.4973C60.546 47.4999 60.2472 47.5024 59.9493 47.4886C59.8961 47.4864 59.8428 47.4833 59.7897 47.4796L54.332 46.0363L49.4699 47.3217Z" fill="#CC4141"/>
</g>
<g id="CodeAuditor">
<path id="Vector_2" d="M157.098 58.5286V50.0146H158.055V52.0111H158.088C158.616 50.6251 159.771 49.8331 161.306 49.8991V50.9386C159.425 50.8561 158.138 52.2091 158.138 53.9911V58.5286H157.098Z" fill="#333333"/>
<path id="Vector_3" d="M149.153 53.6776H154.664C154.614 52.1101 153.624 50.6416 151.958 50.6416C150.242 50.6416 149.334 52.1266 149.153 53.6776ZM155.703 54.5521H149.153C149.153 56.0701 149.978 57.9016 151.958 57.9016C153.476 57.9016 154.301 57.0271 154.631 55.7236H155.67C155.225 57.6541 154.119 58.7761 151.958 58.7761C149.252 58.7761 148.113 56.6971 148.113 54.2716C148.113 52.0276 149.252 49.7671 151.958 49.7671C154.68 49.7671 155.786 52.1596 155.703 54.5521Z" fill="#333333"/>
<path id="Vector_4" d="M143.231 58.5284L139.948 50.0144H141.103L143.776 57.4889H143.809L146.449 50.0144H147.521L144.337 58.5284H143.231Z" fill="#333333"/>
<path id="Vector_5" d="M133.289 52.6216H132.249C132.365 50.6251 133.734 49.7671 135.698 49.7671C137.199 49.7671 138.833 50.2126 138.833 52.5061V57.0271C138.833 57.4396 139.031 57.6541 139.443 57.6541C139.559 57.6541 139.658 57.6376 139.773 57.5881V58.4626C139.526 58.5121 139.377 58.5286 139.097 58.5286C138.041 58.5286 137.876 57.9181 137.876 57.0436H137.843C137.1 58.1491 136.391 58.7761 134.741 58.7761C133.157 58.7761 131.886 58.0006 131.886 56.2846C131.886 53.9086 134.213 53.8096 136.457 53.5456C137.315 53.4631 137.793 53.3146 137.793 52.3906C137.793 50.9881 136.803 50.6416 135.566 50.6416C134.262 50.6416 133.338 51.2356 133.289 52.6216ZM137.793 55.2286V53.8756H137.76C137.628 54.1231 137.166 54.2056 136.886 54.2551C135.12 54.5686 132.926 54.5686 132.926 56.2186C132.926 57.2581 133.833 57.9016 134.823 57.9016C136.424 57.9016 137.793 56.8951 137.793 55.2286Z" fill="#333333"/>
<path id="Vector_6" d="M123.47 58.5286V46.7476H124.509V51.4831H124.542C124.938 50.4601 126.06 49.7671 127.265 49.7671C129.657 49.7671 130.383 51.0211 130.383 53.0506V58.5286H129.344V53.2156C129.344 51.7636 128.865 50.6416 127.182 50.6416C125.516 50.6416 124.559 51.8956 124.509 53.5621V58.5286H123.47Z" fill="#333333"/>
<path id="Vector_7" d="M112.697 54.651H113.819C113.77 57.0765 115.502 57.819 117.664 57.819C118.901 57.819 120.782 57.1425 120.782 55.4265C120.782 54.09 119.462 53.562 118.357 53.298L115.733 52.6545C114.347 52.308 113.077 51.6645 113.077 49.8165C113.077 48.6615 113.819 46.5 117.136 46.5C119.479 46.5 121.492 47.7375 121.492 50.163H120.37C120.287 48.381 118.835 47.457 117.152 47.457C115.618 47.457 114.199 48.051 114.199 49.8C114.199 50.9055 115.007 51.384 115.981 51.5985L118.852 52.308C120.518 52.7535 121.904 53.496 121.904 55.41C121.904 56.2185 121.574 58.776 117.4 58.776C114.611 58.776 112.565 57.522 112.697 54.651Z" fill="#333333"/>
<path id="Vector_8" d="M103.734 58.5286V46.7476H106.077V53.0671L109.03 49.9981H111.802L108.585 53.1331L112.165 58.5286H109.327L106.984 54.7171L106.077 55.5916V58.5286H103.734Z" fill="#CC4141"/>
<path id="Vector_9" d="M96.2889 52.6216H93.9459C94.0779 50.4436 96.0414 49.7671 97.9554 49.7671C99.6549 49.7671 101.701 50.1466 101.701 52.1926V56.6311C101.701 57.4066 101.783 58.1821 101.998 58.5286H99.6219C99.5394 58.2646 99.4734 57.9841 99.4569 57.7036C98.7144 58.4791 97.6419 58.7596 96.5859 58.7596C94.9524 58.7596 93.6819 57.9511 93.6819 56.2021C93.7149 52.3246 99.4569 54.4036 99.3579 52.4896C99.3579 51.4996 98.6649 51.3346 97.8399 51.3346C96.9324 51.3346 96.3714 51.6976 96.2889 52.6216ZM99.3579 55.2286V54.3541C98.9619 54.7006 98.1369 54.7171 97.4109 54.8491C96.6849 54.9811 96.0249 55.2451 96.0249 56.1031C96.0249 56.9611 96.7014 57.1921 97.4604 57.1921C99.2919 57.1921 99.3579 55.7566 99.3579 55.2286Z" fill="#CC4141"/>
<path id="Vector_10" d="M88.3395 58.781V54.194L84 47H86.9205L89.676 51.653L92.415 47H95.3025L90.93 54.26V58.781H88.3395Z" fill="#CC4141"/>
</g>
</g>
</g>
</svg>
