<?xml version="1.0" encoding="UTF-8"?>
<svg width="212px" height="41px" viewBox="0 0 212 41" version="1.1" xmlns="http://www.w3.org/2000/svg" xmlns:xlink="http://www.w3.org/1999/xlink">
    <title>YakShaver-Horizontal-Color-Darkmode</title>
    <g id="Page-1" stroke="none" stroke-width="1" fill="none" fill-rule="evenodd">
        <g id="YakShaver-Horizontal-Color-Darkmode" transform="translate(0.066393, 0.445312)" fill-rule="nonzero">
            <path d="M71.9046071,31.040388 L71.9046071,22.330388 L63.6796071,8.669888 L69.2156071,8.669888 L74.4376071,17.505288 L79.6296071,8.669888 L85.1026071,8.669888 L76.8146071,22.455688 L76.8146071,31.040388 L71.9046071,31.040388 Z M88.7006071,19.823888 L84.2596071,19.823888 C84.5096071,15.688088 88.2316071,14.403588 91.8596071,14.403588 C95.0806071,14.403588 98.9586071,15.124188 98.9586071,19.009188 L98.9586071,27.437288 C98.9586071,28.909888 99.1146071,30.382488 99.5216071,31.040388 L95.0176071,31.040388 C94.8616071,30.539088 94.7366071,30.006488 94.7046071,29.473888 C93.2976071,30.946388 91.2646071,31.479088 89.2636071,31.479088 C86.1676071,31.479088 83.7586071,29.943788 83.7586071,26.622688 C83.8216071,19.259888 94.7046071,23.207588 94.5176071,19.573188 C94.5176071,17.693288 93.2036071,17.379988 91.6406071,17.379988 C89.9196071,17.379988 88.8566071,18.069288 88.7006071,19.823888 Z M94.5176071,24.774188 L94.5176071,23.113588 C93.7666071,23.771588 92.2036071,23.802888 90.8266071,24.053588 C89.4506071,24.304188 88.1996071,24.805488 88.1996071,26.434688 C88.1996071,28.063988 89.4826071,28.502588 90.9206071,28.502588 C94.3926071,28.502588 94.5176071,25.776788 94.5176071,24.774188 Z M102.811607,31.040388 L102.811607,8.669888 L107.252607,8.669888 L107.252607,20.669788 L112.850607,14.842188 L118.104607,14.842188 L112.005607,20.795088 L118.792607,31.040388 L113.413607,31.040388 L108.972607,23.802888 L107.252607,25.463488 L107.252607,31.040388 L102.811607,31.040388 Z" id="Shape" fill="#CA4241"></path>
            <path d="M119.800607,23.430788 L121.927607,23.430788 C121.833607,28.036488 125.117607,29.446388 129.213607,29.446388 C131.559607,29.446388 135.124607,28.161788 135.124607,24.903288 C135.124607,22.365488 132.622607,21.362888 130.527607,20.861588 L125.554607,19.639688 C122.927607,18.981688 120.519607,17.759788 120.519607,14.250688 C120.519607,12.057488 121.927607,7.953128 128.213607,7.953128 C132.654607,7.953128 136.469607,10.302988 136.469607,14.908688 L134.342607,14.908688 C134.186607,11.524888 131.434607,9.770288 128.244607,9.770288 C125.335607,9.770288 122.646607,10.898288 122.646607,14.219388 C122.646607,16.318588 124.178607,17.227188 126.024607,17.634488 L131.465607,18.981688 C134.624607,19.827688 137.251607,21.237588 137.251607,24.871988 C137.251607,26.407188 136.626607,31.263588 128.713607,31.263588 C123.428607,31.263588 119.550607,28.882388 119.800607,23.430788 Z M140.218607,30.793588 L140.218607,8.423098 L142.188607,8.423098 L142.188607,17.415188 L142.251607,17.415188 C143.001607,15.472588 145.128607,14.156688 147.411607,14.156688 C151.946607,14.156688 153.322607,16.537888 153.322607,20.391588 L153.322607,30.793588 L151.352607,30.793588 L151.352607,20.704988 C151.352607,17.947788 150.445607,15.817288 147.255607,15.817288 C144.096607,15.817288 142.282607,18.198488 142.188607,21.362888 L142.188607,30.793588 L140.218607,30.793588 Z M158.830607,19.576988 L156.860607,19.576988 C157.079607,15.785888 159.675607,14.156688 163.396607,14.156688 C166.242607,14.156688 169.338607,15.002688 169.338607,19.357688 L169.338607,27.942488 C169.338607,28.725788 169.714607,29.133088 170.496607,29.133088 C170.715607,29.133088 170.902607,29.101688 171.121607,29.007688 L171.121607,30.668288 C170.652607,30.762288 170.371607,30.793588 169.839607,30.793588 C167.837607,30.793588 167.525607,29.634388 167.525607,27.973788 L167.462607,27.973788 C166.055607,30.072988 164.710607,31.263588 161.582607,31.263588 C158.580607,31.263588 156.172607,29.790988 156.172607,26.532588 C156.172607,22.020888 160.582607,21.832888 164.835607,21.331588 C166.461607,21.174888 167.368607,20.892888 167.368607,19.138388 C167.368607,16.475188 165.492607,15.817288 163.146607,15.817288 C160.675607,15.817288 158.924607,16.945188 158.830607,19.576988 Z M167.368607,24.527388 L167.368607,21.958188 L167.306607,21.958188 C167.055607,22.428188 166.180607,22.584788 165.648607,22.678788 C162.302607,23.274088 158.142607,23.274088 158.142607,26.407188 C158.142607,28.381088 159.862607,29.602988 161.739607,29.602988 C164.772607,29.602988 167.368607,27.691788 167.368607,24.527388 Z M177.674607,30.793588 L171.451607,14.626688 L173.640607,14.626688 L178.706607,28.819688 L178.769607,28.819688 L183.773607,14.626688 L185.805607,14.626688 L179.770607,30.793588 L177.674607,30.793588 Z M188.899607,21.582188 L199.344607,21.582188 C199.250607,18.605788 197.374607,15.817288 194.215607,15.817288 C190.963607,15.817288 189.243607,18.637088 188.899607,21.582188 Z M201.314607,23.242788 L188.899607,23.242788 C188.899607,26.125288 190.462607,29.602988 194.215607,29.602988 C197.092607,29.602988 198.656607,27.942488 199.282607,25.467288 L201.252607,25.467288 C200.407607,29.133088 198.312607,31.263588 194.215607,31.263588 C189.086607,31.263588 186.928607,27.315788 186.928607,22.710188 C186.928607,18.449088 189.086607,14.156688 194.215607,14.156688 C199.375607,14.156688 201.471607,18.699788 201.314607,23.242788 Z M203.959607,30.793588 L203.959607,14.626688 L205.773607,14.626688 L205.773607,18.417788 L205.836607,18.417788 C206.836607,15.785888 209.026607,14.281988 211.934607,14.407388 L211.934607,16.381188 C208.369607,16.224588 205.929607,18.793688 205.929607,22.177488 L205.929607,30.793588 L203.959607,30.793588 Z" id="Shape" fill="#FFFFFF"></path>
            <path d="M52.3028071,0.293615 C52.4181071,0.527477 52.5333071,0.761058 52.6325071,1.001718 C53.6148071,3.368138 53.9100071,5.870848 53.5963071,8.457158 C53.5053071,9.231938 53.2675071,9.998088 53.0323071,10.754988 C52.9995071,10.860688 52.9666071,10.966388 52.9343071,11.071788 C52.6871071,11.888088 52.2396071,12.593888 51.7870071,13.308088 L51.7173071,13.418188 C50.9550071,14.619188 50.0205071,15.627188 48.9701071,16.504388 C48.1864071,17.156688 47.3264071,17.709488 46.4717071,18.258988 C46.3762071,18.320488 46.2798071,18.382588 46.1844071,18.444088 C45.0618071,19.171788 43.8540071,19.709788 42.6312071,20.205788 C42.4639071,20.273688 42.2961071,20.340288 42.1283071,20.405488 L42.1162071,27.910288 L37.9110071,24.654788 L33.8375071,37.970188 C33.7280071,38.327688 33.4360071,38.599688 33.0718071,38.683588 L26.9164071,40.101488 C26.8781071,40.110288 26.8382071,40.110288 26.7998071,40.101488 L20.6445071,38.683588 C20.2802071,38.599688 19.9882071,38.327688 19.8788071,37.970188 L15.8053071,24.654788 L11.6001071,27.910288 L11.5880071,20.405488 C11.4201071,20.340288 11.2523071,20.273688 11.0851071,20.205788 C9.86220708,19.709788 8.65450708,19.171888 7.53190708,18.444088 C7.43650708,18.382588 7.34010708,18.320488 7.24460708,18.258988 C6.38990708,17.709488 5.52990708,17.156688 4.74610708,16.504388 C3.69570708,15.627188 2.76130708,14.619188 1.99900708,13.418188 L1.92930708,13.308088 C1.47660708,12.593888 1.02920708,11.888188 0.782007084,11.071788 C0.749707084,10.966388 0.716807084,10.860688 0.683907084,10.754988 C0.448807084,9.998088 0.210907084,9.231948 0.119907084,8.457158 C-0.193792916,5.870838 0.101407084,3.368158 1.08370708,1.001718 C1.18300708,0.761038 1.29810708,0.527491 1.41350708,0.293615 C1.46170708,0.196008 1.51000708,0.098298 1.55700708,0 C1.58780708,0.004882 1.61860708,0.009699 1.64670708,0.015865 C1.66960708,0.087064 1.69530708,0.15773 1.72100708,0.228144 C1.77250708,0.369694 1.82390708,0.510838 1.85190708,0.656228 C2.18780708,2.480018 2.84870708,4.179928 3.82910708,5.717678 C4.39780708,6.607138 5.07770708,7.423248 5.90570708,8.102608 C6.86080708,8.884798 7.89210708,9.464418 9.02100708,9.854488 C10.3051071,10.298888 11.6203071,10.498888 12.9589071,10.505888 C13.1319071,10.506588 13.3053071,10.507988 13.4784071,10.509488 C14.0409071,10.514388 14.6036071,10.519288 15.1647071,10.493088 C15.7295071,10.469388 16.2915071,10.392488 16.8522071,10.312788 L17.0620071,10.283588 C17.3205071,10.247588 17.5794071,10.211588 17.8380071,10.173788 L26.7908071,7.771648 C26.8349071,7.759818 26.8813071,7.759818 26.9254071,7.771648 L35.8783071,10.173788 C36.1368071,10.211488 36.3958071,10.247588 36.6543071,10.283588 L36.8640071,10.312788 C37.4247071,10.392488 37.9868071,10.469388 38.5516071,10.493088 C39.1127071,10.519288 39.6754071,10.514388 40.2378071,10.509488 C40.4109071,10.507988 40.5844071,10.506588 40.7574071,10.505888 C42.0959071,10.498888 43.4112071,10.298888 44.6952071,9.854488 C45.8241071,9.464418 46.8554071,8.884778 47.8105071,8.102608 C48.6385071,7.423258 49.3184071,6.607118 49.8872071,5.717678 C50.8675071,4.179938 51.5284071,2.479998 51.8643071,0.656228 C51.8924071,0.510844 51.9438071,0.369688 51.9952071,0.228144 C52.0210071,0.157741 52.0466071,0.087052 52.0695071,0.015865 C52.0976071,0.00971 52.1285071,0.004876 52.1592071,0 C52.2063071,0.098285 52.2545071,0.196021 52.3028071,0.293615 Z" id="Path" fill="#CC4141"></path>
        </g>
    </g>
</svg>