<?xml version="1.0" encoding="UTF-8"?>
<svg width="112px" height="21px" viewBox="0 0 112 21" version="1.1" xmlns="http://www.w3.org/2000/svg" xmlns:xlink="http://www.w3.org/1999/xlink">
    <title>YakShaver-horizontal-Color</title>
    <g id="Page-1" stroke="none" stroke-width="1" fill="none" fill-rule="evenodd">
        <g id="YakShaver-horizontal-Color" transform="translate(0.000005, 0.000000)">
            <g id="Group-3" fill="#CC4141">
                <path d="M9.46989529,5.3217 C9.33259529,5.3414 9.19509529,5.3602 9.05779529,5.3791 L8.94649529,5.3943 C8.64889529,5.436 8.35049529,5.4763 8.05069529,5.4886 C7.75279529,5.5024 7.45409529,5.4999 7.15549529,5.4973 C7.06359529,5.4965 6.97149529,5.4958 6.87969529,5.4954 C6.16899529,5.4918 5.47079529,5.3872 4.78909529,5.1547 C4.18969529,4.9506 3.64229529,4.6474 3.13529529,4.2383 C2.69569529,3.8829 2.33469529,3.4561 2.03279529,2.9908 C1.51239529,2.1864 1.16159529,1.2972 0.98319529,0.3433 C0.96839529,0.2672 0.94099529,0.1934 0.91369529,0.1193 C0.90009529,0.0825 0.88639529,0.0456 0.87429529,0.0083 C0.85929529,0.0051 0.84299529,0.0026 0.82659529,0 C0.80159529,0.0514 0.77609529,0.1025 0.75049529,0.1536 C0.68919529,0.2759 0.62799529,0.3981 0.57529529,0.524 C0.0537952897,1.7619 -0.10290471,3.0709 0.0636952897,4.4238 C0.11199529,4.8291 0.23829529,5.2297 0.36319529,5.6256 C0.38059529,5.681 0.39809529,5.7362 0.41519529,5.7913 C0.54649529,6.2184 0.78389529,6.5876 1.02419529,6.9611 L1.06129529,7.0187 C1.46599529,7.647 1.96199529,8.1742 2.51969529,8.633 C2.93579529,8.9743 3.39229529,9.2635 3.84599529,9.5509 C3.89669529,9.5831 3.94789529,9.6155 3.99849529,9.6477 C4.59459529,10.0284 5.23569529,10.3098 5.88499529,10.5692 C5.97379529,10.6047 6.06269529,10.6396 6.15189529,10.6737 L6.15829529,14.5993 L8.39079529,12.8964 L10.5532953,19.8614 C10.6113953,20.0484 10.7662953,20.1907 10.9596953,20.2346 L14.3319953,21 L17.7017953,20.2346 C17.8951953,20.1907 18.0500953,20.0484 18.1081953,19.8615 L20.2621953,12.9238 L22.4572953,14.5993 L22.4640953,10.4267 C22.9932953,10.2054 23.5124953,9.96 24.0014953,9.6477 C24.0520953,9.6154 24.1029953,9.5833 24.1537953,9.5511 C24.6074953,9.2636 25.0642953,8.9743 25.4802953,8.633 C26.0378953,8.1742 26.5339953,7.647 26.9386953,7.0187 L26.9756953,6.9611 C27.2159953,6.5876 27.4534953,6.2184 27.5847953,5.7913 C27.6018953,5.7366 27.6190953,5.6817 27.6364953,5.6267 L27.6367953,5.6256 C27.7615953,5.2297 27.8879953,4.8291 27.9363953,4.4238 C28.1028953,3.0709 27.9461953,1.7619 27.4245953,0.524 C27.3718953,0.3981 27.3107953,0.2759 27.2494953,0.1536 C27.2238953,0.1025 27.1982953,0.0514 27.1732953,0 C27.1569953,0.0026 27.1406953,0.0051 27.1256953,0.0083 C27.1135953,0.0456 27.0998953,0.0824 27.0862953,0.1192 C27.0588953,0.1933 27.0315953,0.2672 27.0167953,0.3433 C26.8383953,1.2972 26.4875953,2.1864 25.9671953,2.9908 C25.6651953,3.4561 25.3042953,3.8829 24.8647953,4.2383 C24.3576953,4.6474 23.8101953,4.9506 23.2108953,5.1547 C22.5291953,5.3872 21.8308953,5.4918 21.1202953,5.4954 C21.0284953,5.4958 20.9365953,5.4965 20.8446953,5.4973 C20.5459953,5.4999 20.2471953,5.5024 19.9492953,5.4886 C19.8960953,5.4864 19.8427953,5.4833 19.7896953,5.4796 L14.3319953,4.0363 L9.46989529,5.3217 Z" id="Vector"></path>
            </g>
            <g id="CodeAuditor" transform="translate(33.999995, 4.500000)" fill-rule="nonzero">
                <path d="M73.098,12.0286 L73.098,3.5146 L74.055,3.5146 L74.055,5.5111 L74.088,5.5111 C74.616,4.1251 75.771,3.3331 77.306,3.3991 L77.306,4.4386 C75.425,4.3561 74.138,5.7091 74.138,7.4911 L74.138,12.0286 L73.098,12.0286 Z" id="Vector_2" fill="#333333"></path>
                <path d="M65.153,7.1776 L70.664,7.1776 C70.614,5.6101 69.624,4.1416 67.958,4.1416 C66.242,4.1416 65.334,5.6266 65.153,7.1776 Z M71.703,8.0521 L65.153,8.0521 C65.153,9.5701 65.978,11.4016 67.958,11.4016 C69.476,11.4016 70.301,10.5271 70.631,9.2236 L71.67,9.2236 C71.225,11.1541 70.119,12.2761 67.958,12.2761 C65.252,12.2761 64.113,10.1971 64.113,7.7716 C64.113,5.5276 65.252,3.2671 67.958,3.2671 C70.68,3.2671 71.786,5.6596 71.703,8.0521 Z" id="Vector_3" fill="#333333"></path>
                <polygon id="Vector_4" fill="#333333" points="59.231 12.0284 55.948 3.5144 57.103 3.5144 59.776 10.9889 59.809 10.9889 62.449 3.5144 63.521 3.5144 60.337 12.0284"></polygon>
                <path d="M49.289,6.1216 L48.249,6.1216 C48.365,4.1251 49.734,3.2671 51.698,3.2671 C53.199,3.2671 54.833,3.7126 54.833,6.0061 L54.833,10.5271 C54.833,10.9396 55.031,11.1541 55.443,11.1541 C55.559,11.1541 55.658,11.1376 55.773,11.0881 L55.773,11.9626 C55.526,12.0121 55.377,12.0286 55.097,12.0286 C54.041,12.0286 53.876,11.4181 53.876,10.5436 L53.843,10.5436 C53.1,11.6491 52.391,12.2761 50.741,12.2761 C49.157,12.2761 47.886,11.5006 47.886,9.7846 C47.886,7.4086 50.213,7.3096 52.457,7.0456 C53.315,6.9631 53.793,6.8146 53.793,5.8906 C53.793,4.4881 52.803,4.1416 51.566,4.1416 C50.262,4.1416 49.338,4.7356 49.289,6.1216 Z M53.793,8.7286 L53.793,7.3756 L53.76,7.3756 C53.628,7.6231 53.166,7.7056 52.886,7.7551 C51.12,8.0686 48.926,8.0686 48.926,9.7186 C48.926,10.7581 49.833,11.4016 50.823,11.4016 C52.424,11.4016 53.793,10.3951 53.793,8.7286 Z" id="Vector_5" fill="#333333"></path>
                <path d="M39.47,12.0286 L39.47,0.2476 L40.509,0.2476 L40.509,4.9831 L40.542,4.9831 C40.938,3.9601 42.06,3.2671 43.265,3.2671 C45.657,3.2671 46.383,4.5211 46.383,6.5506 L46.383,12.0286 L45.344,12.0286 L45.344,6.7156 C45.344,5.2636 44.865,4.1416 43.182,4.1416 C41.516,4.1416 40.559,5.3956 40.509,7.0621 L40.509,12.0286 L39.47,12.0286 Z" id="Vector_6" fill="#333333"></path>
                <path d="M28.697,8.151 L29.819,8.151 C29.77,10.5765 31.502,11.319 33.664,11.319 C34.901,11.319 36.782,10.6425 36.782,8.9265 C36.782,7.59 35.462,7.062 34.357,6.798 L31.733,6.1545 C30.347,5.808 29.077,5.1645 29.077,3.3165 C29.077,2.1615 29.819,0 33.136,0 C35.479,0 37.492,1.2375 37.492,3.663 L36.37,3.663 C36.287,1.881 34.835,0.957 33.152,0.957 C31.618,0.957 30.199,1.551 30.199,3.3 C30.199,4.4055 31.007,4.884 31.981,5.0985 L34.852,5.808 C36.518,6.2535 37.904,6.996 37.904,8.91 C37.904,9.7185 37.574,12.276 33.4,12.276 C30.611,12.276 28.565,11.022 28.697,8.151 Z" id="Vector_7" fill="#333333"></path>
                <polygon id="Vector_8" fill="#CC4141" points="19.734 12.0286 19.734 0.2476 22.077 0.2476 22.077 6.5671 25.03 3.4981 27.802 3.4981 24.585 6.6331 28.165 12.0286 25.327 12.0286 22.984 8.2171 22.077 9.0916 22.077 12.0286"></polygon>
                <path d="M12.2889,6.1216 L9.9459,6.1216 C10.0779,3.9436 12.0414,3.2671 13.9554,3.2671 C15.6549,3.2671 17.701,3.6466 17.701,5.6926 L17.701,10.1311 C17.701,10.9066 17.783,11.6821 17.998,12.0286 L15.6219,12.0286 C15.5394,11.7646 15.4734,11.4841 15.4569,11.2036 C14.7144,11.9791 13.6419,12.2596 12.5859,12.2596 C10.9524,12.2596 9.6819,11.4511 9.6819,9.7021 C9.7149,5.8246 15.4569,7.9036 15.3579,5.9896 C15.3579,4.9996 14.6649,4.8346 13.8399,4.8346 C12.9324,4.8346 12.3714,5.1976 12.2889,6.1216 Z M15.3579,8.7286 L15.3579,7.8541 C14.9619,8.2006 14.1369,8.2171 13.4109,8.3491 C12.6849,8.4811 12.0249,8.7451 12.0249,9.6031 C12.0249,10.4611 12.7014,10.6921 13.4604,10.6921 C15.2919,10.6921 15.3579,9.2566 15.3579,8.7286 Z" id="Vector_9" fill="#CC4141"></path>
                <polygon id="Vector_10" fill="#CC4141" points="4.3395 12.281 4.3395 7.694 0 0.5 2.9205 0.5 5.676 5.153 8.415 0.5 11.3025 0.5 6.93 7.76 6.93 12.281"></polygon>
            </g>
        </g>
    </g>
</svg>