<svg width="199" height="119" viewBox="0 0 199 119" fill="none" xmlns="http://www.w3.org/2000/svg">
<path d="M47.3266 56.5517L12.2695 40.4116V36.7671L47.3266 20.627V24.445L16.6083 38.6761L47.3266 52.9072V56.5517Z" fill="white"/>
<path d="M180.267 38.6761L149.375 24.445V20.627L184.432 36.7671V40.5852L149.375 56.7253V52.9072L180.267 38.6761Z" fill="white"/>
<path d="M142.6 1.00246C142.8 1.40889 143 1.81483 143.172 2.23308C144.876 6.34571 145.388 10.6952 144.844 15.19C144.686 16.5364 144.273 17.8679 143.866 19.1833C143.809 19.3671 143.752 19.5508 143.695 19.7339C143.267 21.1527 142.491 22.3793 141.706 23.6204L141.585 23.8117C140.262 25.8989 138.642 27.6508 136.82 29.1753C135.461 30.309 133.969 31.2697 132.486 32.2247C132.321 32.3316 132.153 32.4394 131.988 32.5463C130.041 33.8111 127.946 34.7459 125.825 35.608C125.535 35.7259 125.244 35.8418 124.953 35.955L124.932 48.9977L117.638 43.34L110.573 66.4809C110.383 67.1022 109.876 67.5749 109.245 67.7207L98.5684 70.1849C98.5019 70.2002 98.4327 70.2002 98.3662 70.1849L87.69 67.7207C87.0582 67.5749 86.5517 67.1022 86.3619 66.4809L79.2965 43.34L72.0028 48.9977L71.9817 35.955C71.6905 35.8417 71.3996 35.726 71.1095 35.608C68.9885 34.7459 66.8938 33.8111 64.9466 32.5463C64.7811 32.4394 64.6139 32.3316 64.4482 32.2247C62.9658 31.2697 61.4742 30.309 60.1148 29.1753C58.2929 27.6507 56.6722 25.899 55.35 23.8117L55.229 23.6204C54.4439 22.3792 53.6679 21.1527 53.2391 19.7339C53.1831 19.5508 53.126 19.3671 53.0691 19.1833C52.6612 17.8679 52.2487 16.5365 52.0908 15.19C51.5467 10.6952 52.0587 6.34573 53.7625 2.23308C53.9346 1.81481 54.1344 1.40892 54.3345 1.00246C54.4181 0.832831 54.5018 0.66302 54.5834 0.492188C54.6367 0.500671 54.6902 0.509043 54.739 0.519758C54.7787 0.643495 54.8232 0.766306 54.8679 0.888679C54.9571 1.13468 55.0463 1.37998 55.0949 1.63265C55.6775 4.80222 56.8238 7.75652 58.5242 10.429C59.5107 11.9748 60.69 13.3931 62.1261 14.5738C63.7827 15.9331 65.5713 16.9405 67.5295 17.6184C69.7567 18.3908 72.0378 18.7383 74.3595 18.7505C74.6596 18.7516 74.9604 18.7541 75.2607 18.7566C76.2363 18.7652 77.2122 18.7738 78.1854 18.7282C79.165 18.6871 80.1399 18.5534 81.1124 18.4148L81.4762 18.3641C81.9247 18.3015 82.3737 18.2389 82.8222 18.1733L98.3506 13.9986C98.4271 13.978 98.5076 13.978 98.584 13.9986L114.112 18.1733C114.561 18.2389 115.01 18.3015 115.458 18.3641L115.822 18.4148C116.795 18.5534 117.77 18.6871 118.749 18.7282C119.722 18.7738 120.698 18.7652 121.674 18.7566C121.974 18.7541 122.275 18.7516 122.575 18.7505C124.897 18.7383 127.178 18.3907 129.405 17.6184C131.363 16.9405 133.152 15.9331 134.809 14.5738C136.245 13.3931 137.424 11.9748 138.41 10.429C140.111 7.75654 141.257 4.80219 141.84 1.63265C141.888 1.37999 141.978 1.13467 142.067 0.888679C142.111 0.766325 142.156 0.643476 142.196 0.519758C142.244 0.509062 142.298 0.500661 142.351 0.492188C142.433 0.662996 142.517 0.832854 142.6 1.00246Z" fill="white"/>
<path d="M187.754 117.878V96.2117H190.189V101.292H190.274C191.617 97.7654 194.555 95.7499 198.46 95.9179V98.5632C193.674 98.3532 190.399 101.796 190.399 106.331V117.878H187.754Z" fill="white"/>
<path d="M167.537 105.533H181.56C181.435 101.544 178.915 97.8075 174.674 97.8075C170.307 97.8075 167.999 101.586 167.537 105.533ZM184.205 107.759H167.537C167.537 111.621 169.635 116.282 174.674 116.282C178.537 116.282 180.637 114.057 181.477 110.74H184.122C182.988 115.652 180.175 118.507 174.674 118.507C167.789 118.507 164.891 113.217 164.891 107.045C164.891 101.334 167.789 95.582 174.674 95.582C181.602 95.582 184.415 101.67 184.205 107.759Z" fill="white"/>
<path d="M152.466 117.877L144.109 96.2109H147.049L153.851 115.231H153.934L160.652 96.2109H163.382L155.279 117.877H152.466Z" fill="white"/>
<path d="M127.168 102.846H124.523C124.816 97.7655 128.301 95.582 133.297 95.582C137.119 95.582 141.275 96.7158 141.275 102.552V114.057C141.275 115.106 141.779 115.652 142.829 115.652C143.122 115.652 143.374 115.61 143.669 115.484V117.71C143.039 117.836 142.66 117.878 141.947 117.878C139.261 117.878 138.841 116.324 138.841 114.099H138.755C136.866 116.912 135.061 118.507 130.862 118.507C126.831 118.507 123.598 116.534 123.598 112.167C123.598 106.121 129.519 105.869 135.229 105.197C137.412 104.987 138.631 104.609 138.631 102.258C138.631 98.6893 136.111 97.8075 132.961 97.8075C129.644 97.8075 127.293 99.3191 127.168 102.846ZM138.631 109.48V106.037H138.545C138.211 106.667 137.034 106.877 136.321 107.003C131.827 107.8 126.244 107.8 126.244 111.999C126.244 114.645 128.552 116.282 131.072 116.282C135.146 116.282 138.631 113.721 138.631 109.48Z" fill="white"/>
<path d="M102.18 117.878V87.8984H104.825V99.949H104.909C105.917 97.3458 108.772 95.5823 111.837 95.5823C117.926 95.5823 119.772 98.7734 119.772 103.938V117.878H117.128V104.358C117.128 100.663 115.909 97.8076 111.627 97.8076C107.386 97.8076 104.951 100.999 104.825 105.24V117.878H102.18Z" fill="white"/>
<path d="M74.7654 108.01H77.6205C77.4946 114.182 81.9033 116.071 87.4036 116.071C90.5528 116.071 95.3393 114.35 95.3393 109.983C95.3393 106.582 91.9803 105.238 89.1672 104.566L82.4911 102.929C78.9641 102.047 75.731 100.41 75.731 95.7071C75.731 92.7681 77.6205 87.2676 86.06 87.2676C92.0223 87.2676 97.1448 90.4166 97.1448 96.5889H94.2897C94.0797 92.0543 90.3849 89.7028 86.102 89.7028C82.1971 89.7028 78.5862 91.2144 78.5862 95.6651C78.5862 98.4784 80.6437 99.696 83.1209 100.242L90.4268 102.047C94.6675 103.181 98.1946 105.07 98.1946 109.941C98.1946 111.998 97.3548 118.507 86.7318 118.507C79.6359 118.507 74.4294 115.315 74.7654 108.01Z" fill="white"/>
<path d="M51.957 117.878V87.8984H57.9193V103.98L65.4351 96.1702H72.4892L64.3014 104.148L73.4128 117.878H66.1909L60.2286 108.179L57.9193 110.404V117.878H51.957Z" fill="white"/>
<path d="M33.013 102.846H27.0507C27.3865 97.3036 32.3832 95.582 37.2537 95.582C41.5784 95.582 46.7849 96.5478 46.7849 101.754V113.049C46.7849 115.022 46.9949 116.996 47.5407 117.878H41.4946C41.2846 117.206 41.1166 116.492 41.0746 115.778C39.1851 117.752 36.4559 118.465 33.7687 118.465C29.612 118.465 26.3789 116.408 26.3789 111.957C26.4629 102.09 41.0746 107.381 40.8228 102.51C40.8228 99.9907 39.0591 99.5709 36.9597 99.5709C34.6505 99.5709 33.2228 100.495 33.013 102.846ZM40.8228 109.48V107.255C39.8149 108.136 37.7155 108.178 35.8681 108.514C34.0206 108.85 32.3412 109.522 32.3412 111.705C32.3412 113.889 34.0626 114.477 35.9941 114.477C40.6548 114.477 40.8228 110.824 40.8228 109.48Z" fill="white"/>
<path d="M11.1639 117.878V106.205L0.121094 87.8984H7.55301L14.5649 99.739L21.5349 87.8984H28.8828L17.756 106.373V117.878H11.1639Z" fill="white"/>
</svg>
