<svg width="332" height="98" viewBox="0 0 332 98" fill="none" xmlns="http://www.w3.org/2000/svg">
<path d="M164.439 22.5063C155.983 12.7492 142.973 6.63479 128.273 6.63479C113.832 6.63479 101.083 12.6191 92.627 22.116C101.083 9.23668 115.393 0.65047 131.785 0C132.176 0 132.696 0 133.216 0C133.867 0 134.517 0.130092 135.168 0.130092C136.599 0.260186 138.16 0.520375 139.851 1.04075C141.542 1.56113 143.364 2.0815 145.185 2.99216C147.006 3.90282 148.828 4.94357 150.649 6.11442C152.47 7.41536 154.161 8.8464 155.853 10.4075C157.544 11.9687 158.975 13.6599 160.406 15.6113C161.056 16.5219 161.707 17.5627 162.357 18.4734C163.008 19.5141 163.528 20.4248 164.049 21.4655C164.049 21.8558 164.179 22.116 164.439 22.5063Z" fill="#CC4141"/>
<path d="M170.033 81.3101C161.056 91.3273 148.047 97.7019 133.476 97.7019C116.304 97.7019 101.213 88.8555 92.4966 75.5859C100.953 85.0828 113.832 91.0671 128.272 91.0671C139.461 91.0671 149.738 87.4245 157.674 81.3101H170.033Z" fill="#CC4141"/>
<path d="M182.522 48.786V49.0462H172.765C172.765 48.6559 172.765 48.2657 172.765 47.7453C172.635 45.6638 172.505 42.6716 172.114 39.029C171.724 35.3863 170.943 31.2233 169.382 26.8001C168.602 24.5885 167.561 22.507 166.39 20.2954C165.87 19.2547 165.219 18.2139 164.439 17.3033C163.788 16.2625 163.008 15.3519 162.227 14.3111C160.666 12.4898 158.975 10.6685 157.153 9.10735C155.332 7.54622 153.511 6.11519 151.559 4.94434C149.608 3.77349 147.657 2.73274 145.705 1.95218C143.754 1.17161 141.932 0.651239 140.111 0.260956C139.851 0.260956 139.591 0.130859 139.331 0.130859C163.528 2.99293 182.522 23.6779 182.522 48.786Z" fill="#CC4141"/>
<path d="M42.0204 50.0868C40.7194 48.0053 38.6379 46.184 35.906 44.753C33.0439 43.3219 28.3605 41.8909 21.8558 40.4599C19.2539 39.9395 17.5627 39.289 16.7821 38.6385C16.0016 37.9881 15.7414 37.3376 15.7414 36.557C15.7414 35.5163 16.1317 34.6056 17.0423 33.8251C17.953 33.0445 19.2539 32.6542 20.9451 32.6542C23.0266 32.6542 24.7179 33.1746 25.8887 34.0853C27.0596 35.126 27.8401 36.6871 28.2304 38.8987L42.2806 38.1182C41.6301 33.0445 39.6787 29.4019 36.4263 27.1903C33.174 24.8486 28.4906 23.6777 22.2461 23.6777C17.1724 23.6777 13.2696 24.3282 10.4075 25.6291C7.54546 26.9301 5.33386 28.6213 3.90282 30.8329C2.47179 33.0445 1.69122 35.3862 1.69122 37.858C1.69122 41.6307 3.12226 44.753 5.98433 47.2248C8.8464 49.6965 13.5298 51.648 20.0345 53.079C24.0674 53.9896 26.5392 54.9003 27.71 55.9411C28.7508 56.9818 29.4013 58.0226 29.4013 59.3235C29.4013 60.6244 28.8809 61.7953 27.71 62.836C26.5392 63.8768 24.9781 64.137 22.7665 64.137C19.9044 64.137 17.6928 63.3564 16.1317 61.405C15.221 60.2342 14.5705 58.4128 14.1803 56.0712L0 56.9818C0.390282 61.9254 2.2116 65.8282 5.33386 69.0806C8.45611 72.2028 14.1803 73.894 22.3762 73.894C27.0596 73.894 30.9624 73.2436 34.0846 71.8125C37.2069 70.5116 39.5486 68.4301 41.2398 65.8282C42.931 63.2263 43.8417 60.3643 43.8417 57.242C43.9718 54.51 43.3213 52.1683 42.0204 50.0868Z" fill="#333333"/>
<path d="M90.025 57.242C90.025 60.2342 89.2444 63.0962 87.5532 65.6981L87.4231 65.8282C87.1629 66.2185 86.9028 66.6088 86.5125 66.999C84.9513 69.0806 82.7397 70.6417 80.1379 71.8125C77.0156 73.1135 73.2429 73.894 68.4294 73.894C60.2335 73.894 54.5093 72.3329 51.3871 69.0806C48.2648 65.9583 46.4435 61.9254 46.0532 56.9818L60.3636 56.0712C60.6238 58.4128 61.2742 60.1041 62.1849 61.405C63.746 63.3564 65.9576 64.137 68.8197 64.137C70.9012 64.137 72.5924 63.8768 73.7633 62.836C74.9341 61.7953 75.4545 60.6244 75.4545 59.3235C75.4545 58.0226 74.9341 56.9818 73.7633 55.9411C72.7225 54.9003 70.1206 53.9896 66.0877 53.079C59.583 51.648 54.8996 49.6965 52.0375 47.2248C49.1755 44.753 47.7444 41.6307 47.7444 37.858C47.7444 35.3862 48.525 33.0445 49.956 30.8329C51.3871 28.6213 53.5987 26.9301 56.4607 25.6291C59.3228 24.3282 63.3557 23.6777 68.2993 23.6777C74.5438 23.6777 79.2272 24.8486 82.4796 27.0602C83.9106 28.1009 85.2115 29.4019 86.1222 31.0931C86.5125 31.6135 86.7727 32.2639 87.0328 32.9144C87.6833 34.4755 88.0736 36.1668 88.3338 38.1182L85.6018 38.2483L83.3902 38.3784L74.2836 38.8987C73.8933 36.6871 73.1128 35.126 71.9419 34.0853C70.7711 33.0445 69.0799 32.6542 66.9984 32.6542C65.3071 32.6542 64.0062 33.0445 63.0955 33.8251C62.1849 34.6056 61.7946 35.5163 61.7946 36.557C61.7946 37.3376 62.1849 37.9881 62.8354 38.6385C63.4858 39.289 65.1771 39.8094 67.909 40.4599C74.4137 41.8909 79.0971 43.3219 81.9592 44.753C82.0893 44.753 82.2194 44.8831 82.3495 44.8831C83.2601 45.4034 84.0407 45.7937 84.6912 46.3141C86.1222 47.3549 87.293 48.6558 88.2037 49.9567C89.3745 52.1683 90.025 54.6401 90.025 57.242Z" fill="#333333"/>
<path d="M157.544 24.5879L146.876 72.9829H132.306L123.719 42.5409L115.263 72.9829H100.693L90.1552 26.0189L90.0251 25.1083L89.895 24.5879H104.075L109.149 51.6475L116.694 24.5879H130.875L138.29 51.6475L143.494 24.5879H157.544Z" fill="#333333"/>
<path d="M184.994 51.5176H172.635V63.8765H184.994V51.5176Z" fill="#333333"/>
<path d="M170.033 51.5176H157.674V63.8765H170.033V51.5176Z" fill="#797979"/>
<path d="M184.994 66.3477H172.635V78.7066H184.994V66.3477Z" fill="#CC4141"/>
<path d="M170.033 66.3477H157.674V78.7066H170.033V66.3477Z" fill="#AAAAAA"/>
<path d="M215.176 32.2634H208.021V18.6035H214.915V20.0345H209.582V24.5878H214.525V26.0189H209.582V30.8324H215.176V32.2634Z" fill="#333333"/>
<path d="M228.185 32.2634H226.234L219.209 21.4656C219.078 21.2054 218.948 20.9452 218.818 20.5549C218.818 20.8151 218.948 21.4656 218.948 22.3762V32.2634H217.387V18.6035H219.469L226.234 29.2712C226.494 29.6615 226.754 30.0518 226.754 30.1819C226.754 29.7916 226.624 29.1411 226.624 28.2305V18.6035H228.185V32.2634Z" fill="#333333"/>
<path d="M239.243 20.0345H235.34V32.2634H233.779V20.0345H229.876V18.6035H239.373V20.0345H239.243Z" fill="#333333"/>
<path d="M248.09 32.2634H240.935V18.6035H247.83V20.0345H242.496V24.5878H247.439V26.0189H242.496V30.8324H248.09V32.2634Z" fill="#333333"/>
<path d="M259.928 32.2634H258.107L255.765 28.4907C255.505 28.1004 255.375 27.8402 255.114 27.58C254.854 27.3198 254.724 27.1897 254.464 26.9295C254.204 26.7994 254.074 26.6693 253.814 26.5393C253.553 26.4092 253.293 26.4092 253.033 26.4092H251.732V32.2634H250.171V18.6035H254.204C254.854 18.6035 255.375 18.7336 255.895 18.8637C256.415 18.9938 256.806 19.254 257.196 19.5142C257.586 19.7744 257.846 20.1646 258.107 20.685C258.367 21.0753 258.367 21.7258 258.367 22.2461C258.367 22.7665 258.237 23.1568 258.107 23.5471C257.977 23.9374 257.716 24.3277 257.456 24.5878C257.196 24.848 256.936 25.1082 256.546 25.3684C256.155 25.6286 255.765 25.7587 255.245 25.8888C255.505 26.0189 255.635 26.149 255.895 26.2791C256.025 26.4092 256.285 26.5393 256.415 26.7994C256.546 26.9295 256.676 27.1897 256.806 27.4499C256.936 27.7101 257.066 27.9703 257.326 28.2305L259.928 32.2634ZM251.862 20.0345V24.9781H254.074C254.464 24.9781 254.854 24.9781 255.114 24.848C255.505 24.7179 255.765 24.5878 256.025 24.3277C256.285 24.0675 256.415 23.8073 256.546 23.5471C256.676 23.2869 256.806 22.8966 256.806 22.5063C256.806 21.7258 256.546 21.2054 256.155 20.8151C255.635 20.4248 254.984 20.1646 254.074 20.1646H251.862V20.0345Z" fill="#333333"/>
<path d="M262.92 27.0596V32.2634H261.359V18.6035H265.132C266.563 18.6035 267.733 18.9938 268.514 19.6443C269.295 20.2947 269.685 21.3355 269.685 22.6364C269.685 23.9374 269.295 24.9781 268.384 25.7587C267.473 26.5393 266.302 26.9295 264.741 26.9295H262.92V27.0596ZM262.92 20.0345V25.6286H264.611C265.652 25.6286 266.563 25.3684 267.083 24.848C267.603 24.3277 267.994 23.6772 267.994 22.7665C267.994 20.9452 266.953 20.0345 264.741 20.0345H262.92Z" fill="#333333"/>
<path d="M281.393 32.2634H279.442L277.1 28.4907C276.84 28.1004 276.71 27.8402 276.45 27.58C276.19 27.3198 276.06 27.1897 275.799 26.9295C275.539 26.7994 275.409 26.6693 275.149 26.5393C274.889 26.4092 274.629 26.4092 274.368 26.4092H273.067V32.2634H271.506V18.6035H275.539C276.19 18.6035 276.71 18.7336 277.23 18.8637C277.751 18.9938 278.141 19.254 278.531 19.5142C278.922 19.7744 279.182 20.1646 279.442 20.685C279.702 21.0753 279.702 21.7258 279.702 22.2461C279.702 22.7665 279.572 23.1568 279.442 23.5471C279.312 23.9374 279.052 24.3277 278.792 24.5878C278.531 24.848 278.271 25.1082 277.881 25.3684C277.491 25.6286 277.1 25.7587 276.58 25.8888C276.84 26.0189 276.97 26.149 277.23 26.2791C277.361 26.4092 277.621 26.5393 277.751 26.7994C277.881 26.9295 278.011 27.1897 278.141 27.4499C278.271 27.7101 278.401 27.9703 278.662 28.2305L281.393 32.2634ZM273.198 20.0345V24.9781H275.409C275.799 24.9781 276.19 24.9781 276.58 24.848C276.97 24.7179 277.23 24.5878 277.491 24.3277C277.751 24.0675 277.881 23.8073 278.011 23.5471C278.141 23.2869 278.271 22.8966 278.271 22.5063C278.271 21.7258 278.011 21.2054 277.621 20.8151C277.1 20.4248 276.45 20.1646 275.539 20.1646H273.198V20.0345Z" fill="#333333"/>
<path d="M285.687 18.6027V20.0338H284.386V30.9617H285.687V32.2626H281.394V30.8316H282.694V19.9037H281.394V18.4727H285.687V18.6027Z" fill="#333333"/>
<path d="M286.728 31.743V29.9217C286.988 30.0518 287.248 30.312 287.508 30.4421C287.768 30.5722 288.159 30.7023 288.419 30.8324C288.809 30.9625 289.069 30.9624 289.46 31.0925C289.85 31.0925 290.11 31.2226 290.37 31.2226C291.411 31.2226 292.061 31.0925 292.582 30.7023C293.102 30.312 293.362 29.7916 293.362 29.1411C293.362 28.7508 293.232 28.4907 293.102 28.2305C292.972 27.9703 292.712 27.7101 292.452 27.4499C292.191 27.1897 291.801 27.0596 291.411 26.7994C291.021 26.5393 290.63 26.4092 290.11 26.149C289.59 25.8888 289.199 25.6286 288.809 25.3684C288.419 25.1082 288.028 24.848 287.768 24.5878C287.508 24.3277 287.248 23.9374 286.988 23.5471C286.858 23.1568 286.728 22.7665 286.728 22.2461C286.728 21.5957 286.858 21.0753 287.118 20.685C287.378 20.1646 287.768 19.9045 288.159 19.5142C288.549 19.254 289.069 18.9938 289.72 18.8637C290.24 18.7336 290.891 18.6035 291.411 18.6035C292.712 18.6035 293.753 18.7336 294.403 19.1239V20.9452C293.623 20.4248 292.582 20.1646 291.281 20.1646C290.891 20.1646 290.63 20.1646 290.24 20.2947C289.85 20.4248 289.59 20.4248 289.329 20.685C289.069 20.8151 288.809 21.0753 288.679 21.3355C288.549 21.5957 288.419 21.8559 288.419 22.2461C288.419 22.6364 288.419 22.8966 288.549 23.1568C288.679 23.417 288.809 23.6772 289.069 23.8073C289.329 24.0675 289.59 24.1976 289.98 24.4577C290.37 24.7179 290.76 24.848 291.281 25.1082C291.801 25.3684 292.191 25.6286 292.712 25.8888C293.102 26.149 293.492 26.4092 293.883 26.7994C294.273 27.0596 294.533 27.4499 294.663 27.8402C294.793 28.2305 294.923 28.6208 294.923 29.1411C294.923 29.7916 294.793 30.4421 294.533 30.8324C294.273 31.3527 293.883 31.6129 293.492 32.0032C293.102 32.2634 292.582 32.5236 291.931 32.6537C291.411 32.7838 290.76 32.7838 290.11 32.7838C289.85 32.7838 289.59 32.7838 289.329 32.7838C289.069 32.7838 288.679 32.6537 288.419 32.6537C288.028 32.5236 287.768 32.5236 287.508 32.3935C287.118 31.8731 286.858 31.8731 286.728 31.743Z" fill="#333333"/>
<path d="M304.42 32.2634H297.135V18.6035H304.03V20.0345H298.696V24.5878H303.639V26.0189H298.696V30.8324H304.29V32.2634H304.42Z" fill="#333333"/>
<path d="M207.24 55.0301V53.2088C207.5 53.3389 207.76 53.5991 208.02 53.7292C208.281 53.8593 208.671 53.9894 208.931 54.1195C209.321 54.2496 209.581 54.2496 209.972 54.3797C210.362 54.3797 210.622 54.5097 210.882 54.5097C211.923 54.5097 212.574 54.3796 213.094 53.9894C213.614 53.5991 213.875 53.0787 213.875 52.4282C213.875 52.038 213.744 51.7778 213.614 51.5176C213.484 51.2574 213.224 50.9972 212.964 50.737C212.704 50.4768 212.313 50.3467 211.923 50.0865C211.533 49.8264 211.143 49.6963 210.622 49.4361C210.102 49.1759 209.712 48.9157 209.321 48.6555C208.931 48.3953 208.541 48.1351 208.281 47.8749C208.02 47.6148 207.76 47.2245 207.5 46.8342C207.37 46.4439 207.24 46.0536 207.24 45.5333C207.24 44.8828 207.37 44.3624 207.63 43.9721C207.89 43.4518 208.281 43.1916 208.671 42.8013C209.061 42.5411 209.581 42.2809 210.232 42.1508C210.752 42.0207 211.403 41.8906 211.923 41.8906C213.224 41.8906 214.265 42.0207 214.915 42.411V43.9721C214.135 43.4518 213.094 43.1916 211.793 43.1916C211.403 43.1916 211.143 43.1916 210.752 43.3217C210.362 43.4518 210.102 43.4518 209.842 43.7119C209.581 43.842 209.321 44.1022 209.191 44.3624C209.061 44.6226 208.931 44.8828 208.931 45.2731C208.931 45.6634 208.931 45.9235 209.061 46.1837C209.191 46.4439 209.321 46.7041 209.581 46.8342C209.842 47.0944 210.102 47.2245 210.492 47.4847C210.882 47.6148 211.273 47.8749 211.793 48.1351C212.313 48.3953 212.704 48.6555 213.224 48.9157C213.614 49.1759 214.005 49.4361 214.395 49.8264C214.785 50.0865 215.045 50.4768 215.175 50.8671C215.306 51.2574 215.436 51.6477 215.436 52.1681C215.436 52.8185 215.306 53.469 215.045 53.8593C214.785 54.3797 214.395 54.6398 214.005 55.0301C213.614 55.2903 213.094 55.5505 212.444 55.6806C211.923 55.8107 211.273 55.9408 210.622 55.9408C210.362 55.9408 210.102 55.9408 209.842 55.9408C209.581 55.9408 209.191 55.8107 208.931 55.8107C208.541 55.6806 208.281 55.6806 208.02 55.5505C207.76 55.2903 207.5 55.1602 207.24 55.0301Z" fill="#333333"/>
<path d="M223.241 55.8099C221.29 55.8099 219.729 55.1594 218.558 53.8585C217.387 52.5576 216.867 50.9964 216.867 48.9149C216.867 46.7033 217.517 45.0121 218.688 43.7112C219.859 42.4102 221.42 41.7598 223.501 41.7598C225.323 41.7598 226.884 42.4102 228.055 43.7112C229.226 45.0121 229.746 46.5732 229.746 48.6547C229.746 50.8663 229.096 52.6877 227.925 53.9886C226.754 55.1594 225.193 55.8099 223.241 55.8099ZM223.371 43.1908C221.94 43.1908 220.77 43.7112 219.859 44.7519C218.948 45.7927 218.558 47.0936 218.558 48.7848C218.558 50.4761 218.948 51.777 219.859 52.8178C220.77 53.8585 221.81 54.3789 223.241 54.3789C224.672 54.3789 225.973 53.8585 226.754 52.9479C227.664 51.9071 228.055 50.6062 228.055 48.9149C228.055 47.0936 227.664 45.7927 226.754 44.7519C225.973 43.7112 224.802 43.1908 223.371 43.1908Z" fill="#333333"/>
<path d="M238.723 43.4506H233.389V48.1339H238.332V49.565H233.389V55.5493H231.828V42.0195H238.723V43.4506Z" fill="#333333"/>
<path d="M249 43.4506H245.097V55.6794H243.536V43.4506H239.633V42.0195H249.13V43.4506H249Z" fill="#333333"/>
<path d="M267.083 42.0195L263.18 55.6794H261.359L258.497 45.7923C258.367 45.402 258.367 44.8816 258.237 44.3612C258.237 44.8816 258.107 45.2719 257.977 45.7923L255.114 55.8095H253.293L249.26 42.1496H250.951L253.814 52.5571C253.944 52.9474 254.074 53.4678 254.074 53.9882C254.074 53.5979 254.204 53.2076 254.334 52.5571L257.326 42.1496H258.887L261.749 52.6872C261.879 53.0775 261.879 53.4678 262.009 53.9882C262.009 53.5979 262.14 53.2076 262.27 52.6872L265.002 42.1496H267.083V42.0195Z" fill="#333333"/>
<path d="M278.401 55.5505H276.58L275.149 51.7778H269.425L268.124 55.5505H266.303L271.506 41.8906H273.198L278.401 55.5505ZM274.759 50.3467L272.677 44.4925C272.547 44.3624 272.547 43.9721 272.417 43.5818C272.417 43.9721 272.287 44.2323 272.157 44.4925L270.075 50.3467H274.759Z" fill="#333333"/>
<path d="M289.719 55.5493H287.768L285.426 51.7766C285.166 51.3863 285.036 51.1261 284.776 50.8659C284.515 50.6057 284.385 50.4756 284.125 50.2155C283.865 49.9553 283.735 49.9553 283.475 49.8252C283.214 49.6951 282.954 49.6951 282.694 49.6951H281.393V55.5493H279.832V42.0195H283.865C284.515 42.0195 285.036 42.1496 285.556 42.2797C286.077 42.4098 286.467 42.67 286.857 42.9302C287.247 43.1904 287.508 43.5807 287.768 44.101C288.028 44.4913 288.028 45.1418 288.028 45.6622C288.028 46.1825 287.898 46.5728 287.768 46.9631C287.638 47.3534 287.377 47.7437 287.117 48.0039C286.857 48.264 286.597 48.5242 286.207 48.7844C285.816 49.0446 285.426 49.1747 284.906 49.3048C285.166 49.4349 285.296 49.565 285.556 49.6951C285.686 49.8252 285.946 49.9553 286.077 50.2155C286.207 50.3456 286.337 50.6057 286.467 50.8659C286.597 51.1261 286.727 51.3863 286.987 51.6465L289.719 55.5493ZM281.523 43.4506V48.3941H283.735C284.125 48.3941 284.515 48.3941 284.776 48.264C285.166 48.134 285.426 48.0039 285.686 47.7437C285.946 47.4835 286.077 47.2233 286.207 46.9631C286.337 46.7029 286.467 46.3126 286.467 45.9224C286.467 45.1418 286.207 44.6214 285.816 44.2311C285.296 43.8408 284.646 43.5807 283.735 43.5807H281.523V43.4506Z" fill="#333333"/>
<path d="M298.176 55.5493H291.021V42.0195H297.915V43.4506H292.582V48.0039H297.525V49.4349H292.582V54.2484H298.176V55.5493Z" fill="#333333"/>
<path d="M207.89 78.9665V65.3066H211.663C216.476 65.3066 218.818 67.5182 218.818 71.9414C218.818 74.0229 218.168 75.7142 216.867 77.0151C215.566 78.316 213.744 78.9665 211.533 78.9665H207.89ZM209.581 66.7377V77.4054H211.663C213.484 77.4054 214.785 76.885 215.826 75.9743C216.867 75.0637 217.257 73.6327 217.257 71.9414C217.257 68.4289 215.436 66.7377 211.663 66.7377H209.581Z" fill="#333333"/>
<path d="M228.185 78.9665H221.03V65.3066H227.925V66.7377H222.591V71.291H227.534V72.722H222.591V77.5355H228.185V78.9665Z" fill="#333333"/>
<path d="M240.414 65.3066L235.34 78.9665H233.519L228.575 65.3066H230.397L234.169 76.1044C234.299 76.4947 234.429 76.885 234.429 77.2753C234.429 76.885 234.56 76.4947 234.69 76.1044L238.592 65.3066H240.414Z" fill="#333333"/>
<path d="M249.13 78.9665H241.975V65.3066H248.87V66.7377H243.536V71.291H248.479V72.722H243.536V77.5355H249.13V78.9665Z" fill="#333333"/>
<path d="M258.237 78.9665H251.211V65.3066H252.773V77.5355H258.237V78.9665Z" fill="#333333"/>
<path d="M264.611 79.097C262.66 79.097 261.098 78.4466 259.928 77.1456C258.757 75.8447 258.236 74.2836 258.236 72.202C258.236 69.9904 258.887 68.2992 260.058 66.9983C261.228 65.6973 262.79 65.0469 264.871 65.0469C266.692 65.0469 268.254 65.6973 269.424 66.9983C270.595 68.2992 271.116 69.8604 271.116 71.9419C271.116 74.1535 270.465 75.9748 269.294 77.2757C268.123 78.5767 266.562 79.097 264.611 79.097ZM264.741 66.4779C263.31 66.4779 262.139 66.9983 261.228 68.039C260.318 69.0798 259.928 70.3807 259.928 72.072C259.928 73.7632 260.318 75.0641 261.228 76.1049C262.139 77.1456 263.18 77.666 264.611 77.666C266.042 77.666 267.343 77.1456 268.123 76.235C269.034 75.3243 269.424 73.8933 269.424 72.202C269.424 70.3807 269.034 69.0798 268.123 68.039C267.343 66.9983 266.172 66.4779 264.741 66.4779Z" fill="#333333"/>
<path d="M274.888 73.7628V78.9665H273.327V65.3066H277.1C278.531 65.3066 279.702 65.6969 280.482 66.3474C281.263 66.9979 281.653 68.0386 281.653 69.3396C281.653 70.6405 281.263 71.6812 280.352 72.4618C279.442 73.2424 278.271 73.6327 276.71 73.6327H274.888V73.7628ZM274.888 66.7377V72.3317H276.579C277.62 72.3317 278.531 72.0715 279.051 71.5511C279.572 71.0308 279.962 70.3803 279.962 69.4696C279.962 67.6483 278.921 66.7377 276.71 66.7377H274.888Z" fill="#333333"/>
<path d="M297.525 78.9665H295.964V69.8599C295.964 69.0794 295.964 68.2988 296.094 67.2581C295.964 67.9085 295.834 68.2988 295.704 68.559L291.02 78.9665H290.24L285.556 68.559C285.426 68.2988 285.296 67.7784 285.166 67.128C285.166 67.6483 285.296 68.559 285.296 69.8599V78.9665H283.735V65.3066H285.816L289.979 74.8035C290.24 75.5841 290.5 76.1044 290.63 76.4947C290.89 75.7142 291.15 75.1938 291.28 74.8035L295.573 65.3066H297.525V78.9665Z" fill="#333333"/>
<path d="M307.802 78.9665H300.647V65.3066H307.542V66.7377H302.208V71.291H307.152V72.722H302.208V77.5355H307.802V78.9665Z" fill="#333333"/>
<path d="M320.812 78.9665H318.86L311.835 68.1687C311.705 67.9085 311.575 67.6483 311.445 67.2581C311.445 67.5182 311.575 68.1687 311.575 69.0794V78.9665H310.014V65.3066H312.095L318.86 75.9743C319.12 76.3646 319.38 76.7549 319.38 76.885C319.38 76.4947 319.25 75.8443 319.25 74.9336V65.3066H320.812V78.9665Z" fill="#333333"/>
<path d="M331.87 66.7377H327.967V78.9665H326.406V66.7377H322.503V65.3066H332V66.7377H331.87Z" fill="#333333"/>
</svg>
