<svg width="185" height="98" viewBox="0 0 185 98" fill="none" xmlns="http://www.w3.org/2000/svg">
<path d="M164.439 22.5063C155.983 12.7492 142.973 6.63479 128.273 6.63479C113.832 6.63479 101.083 12.6191 92.627 22.116C101.083 9.23668 115.393 0.65047 131.785 0C132.176 0 132.696 0 133.216 0C133.867 0 134.517 0.130092 135.168 0.130092C136.599 0.260186 138.16 0.520375 139.851 1.04075C141.542 1.56113 143.364 2.0815 145.185 2.99216C147.006 3.90282 148.828 4.94357 150.649 6.11442C152.47 7.41536 154.161 8.8464 155.853 10.4075C157.544 11.9687 158.975 13.6599 160.406 15.6113C161.056 16.5219 161.707 17.5627 162.357 18.4734C163.008 19.5141 163.528 20.4248 164.049 21.4655C164.049 21.8558 164.179 22.116 164.439 22.5063Z" fill="#CC4141"/>
<path d="M170.033 81.3101C161.056 91.3273 148.047 97.7019 133.476 97.7019C116.304 97.7019 101.213 88.8555 92.4966 75.5859C100.953 85.0828 113.832 91.0671 128.272 91.0671C139.461 91.0671 149.738 87.4245 157.674 81.3101H170.033Z" fill="#CC4141"/>
<path d="M182.522 48.786V49.0462H172.765C172.765 48.6559 172.765 48.2657 172.765 47.7453C172.635 45.6638 172.505 42.6716 172.114 39.029C171.724 35.3863 170.943 31.2233 169.382 26.8001C168.602 24.5885 167.561 22.507 166.39 20.2954C165.87 19.2547 165.219 18.2139 164.439 17.3033C163.788 16.2625 163.008 15.3519 162.227 14.3111C160.666 12.4898 158.975 10.6685 157.153 9.10735C155.332 7.54622 153.511 6.11519 151.559 4.94434C149.608 3.77349 147.657 2.73274 145.705 1.95218C143.754 1.17161 141.932 0.651239 140.111 0.260956C139.851 0.260956 139.591 0.130859 139.331 0.130859C163.528 2.99293 182.522 23.6779 182.522 48.786Z" fill="#CC4141"/>
<path d="M42.0204 50.0868C40.7194 48.0053 38.6379 46.184 35.906 44.753C33.0439 43.3219 28.3605 41.8909 21.8558 40.4599C19.2539 39.9395 17.5627 39.289 16.7821 38.6385C16.0016 37.9881 15.7414 37.3376 15.7414 36.557C15.7414 35.5163 16.1317 34.6056 17.0423 33.8251C17.953 33.0445 19.2539 32.6542 20.9451 32.6542C23.0266 32.6542 24.7179 33.1746 25.8887 34.0853C27.0596 35.126 27.8401 36.6871 28.2304 38.8987L42.2806 38.1182C41.6301 33.0445 39.6787 29.4019 36.4263 27.1903C33.174 24.8486 28.4906 23.6777 22.2461 23.6777C17.1724 23.6777 13.2696 24.3282 10.4075 25.6291C7.54546 26.9301 5.33386 28.6213 3.90282 30.8329C2.47179 33.0445 1.69122 35.3862 1.69122 37.858C1.69122 41.6307 3.12226 44.753 5.98433 47.2248C8.8464 49.6965 13.5298 51.648 20.0345 53.079C24.0674 53.9896 26.5392 54.9003 27.71 55.9411C28.7508 56.9818 29.4013 58.0226 29.4013 59.3235C29.4013 60.6244 28.8809 61.7953 27.71 62.836C26.5392 63.8768 24.9781 64.137 22.7665 64.137C19.9044 64.137 17.6928 63.3564 16.1317 61.405C15.221 60.2342 14.5705 58.4128 14.1803 56.0712L0 56.9818C0.390282 61.9254 2.2116 65.8282 5.33386 69.0806C8.45611 72.2028 14.1803 73.894 22.3762 73.894C27.0596 73.894 30.9624 73.2436 34.0846 71.8125C37.2069 70.5116 39.5486 68.4301 41.2398 65.8282C42.931 63.2263 43.8417 60.3643 43.8417 57.242C43.9718 54.51 43.3213 52.1683 42.0204 50.0868Z" fill="white"/>
<path d="M90.025 57.242C90.025 60.2342 89.2444 63.0962 87.5532 65.6981L87.4231 65.8282C87.1629 66.2185 86.9028 66.6088 86.5125 66.999C84.9513 69.0806 82.7397 70.6417 80.1379 71.8125C77.0156 73.1135 73.2429 73.894 68.4294 73.894C60.2335 73.894 54.5093 72.3329 51.3871 69.0806C48.2648 65.9583 46.4435 61.9254 46.0532 56.9818L60.3636 56.0712C60.6238 58.4128 61.2742 60.1041 62.1849 61.405C63.746 63.3564 65.9576 64.137 68.8197 64.137C70.9012 64.137 72.5924 63.8768 73.7633 62.836C74.9341 61.7953 75.4545 60.6244 75.4545 59.3235C75.4545 58.0226 74.9341 56.9818 73.7633 55.9411C72.7225 54.9003 70.1206 53.9896 66.0877 53.079C59.583 51.648 54.8996 49.6965 52.0375 47.2248C49.1755 44.753 47.7444 41.6307 47.7444 37.858C47.7444 35.3862 48.525 33.0445 49.956 30.8329C51.3871 28.6213 53.5987 26.9301 56.4607 25.6291C59.3228 24.3282 63.3557 23.6777 68.2993 23.6777C74.5438 23.6777 79.2272 24.8486 82.4796 27.0602C83.9106 28.1009 85.2115 29.4019 86.1222 31.0931C86.5125 31.6135 86.7727 32.2639 87.0328 32.9144C87.6833 34.4755 88.0736 36.1668 88.3338 38.1182L85.6018 38.2483L83.3902 38.3784L74.2836 38.8987C73.8933 36.6871 73.1128 35.126 71.9419 34.0853C70.7711 33.0445 69.0799 32.6542 66.9984 32.6542C65.3071 32.6542 64.0062 33.0445 63.0955 33.8251C62.1849 34.6056 61.7946 35.5163 61.7946 36.557C61.7946 37.3376 62.1849 37.9881 62.8354 38.6385C63.4858 39.289 65.1771 39.8094 67.909 40.4599C74.4137 41.8909 79.0971 43.3219 81.9592 44.753C82.0893 44.753 82.2194 44.8831 82.3495 44.8831C83.2601 45.4034 84.0407 45.7937 84.6912 46.3141C86.1222 47.3549 87.293 48.6558 88.2037 49.9567C89.3745 52.1683 90.025 54.6401 90.025 57.242Z" fill="white"/>
<path d="M157.544 24.5879L146.876 72.9829H132.306L123.719 42.5409L115.263 72.9829H100.693L90.1552 26.0189L90.0251 25.1083L89.895 24.5879H104.075L109.149 51.6475L116.694 24.5879H130.875L138.29 51.6475L143.494 24.5879H157.544Z" fill="white"/>
<path d="M184.994 51.5176H172.635V63.8765H184.994V51.5176Z" fill="white"/>
<path d="M170.033 51.5176H157.674V63.8765H170.033V51.5176Z" fill="white"/>
<path d="M184.994 66.3477H172.635V78.7066H184.994V66.3477Z" fill="white"/>
<path d="M170.033 66.3477H157.674V78.7066H170.033V66.3477Z" fill="white"/>
</svg>
