<?xml version="1.0" encoding="UTF-8" standalone="no"?><!DOCTYPE svg PUBLIC "-//W3C//DTD SVG 1.1//EN" "http://www.w3.org/Graphics/SVG/1.1/DTD/svg11.dtd"><svg width="100%" height="100%" viewBox="0 0 1250 667" version="1.1" xmlns="http://www.w3.org/2000/svg" xmlns:xlink="http://www.w3.org/1999/xlink" xml:space="preserve" xmlns:serif="http://www.serif.com/" style="fill-rule:evenodd;clip-rule:evenodd;stroke-linejoin:round;stroke-miterlimit:2;"><g id="light"><g><path d="M333.389,225.929c-62.826,-40.838 -123.421,-59.242 -135.232,-41.072c-11.811,18.17 29.606,66.078 92.432,106.916c62.826,40.838 123.422,59.242 135.233,41.072c11.811,-18.17 -29.607,-66.077 -92.433,-106.916Z" style="fill:#d2e2ea;"/><path d="M1119.38,208.192c-48.691,-55.884 -123.716,-91.692 -207.9,-91.692c-82.841,0 -156.841,34.671 -205.529,89c48.533,-73.887 130.908,-123.613 225.188,-127.083c2.587,0.104 5.379,0.158 8.379,0.312c3.571,0.154 7.4,0.671 11.546,1.033c8.22,0.88 17.433,2.538 27.262,4.917c9.779,2.742 20.288,5.95 30.738,10.917c10.45,4.866 21.058,10.971 31.304,18.267c10.246,7.295 20.129,15.679 29.854,24.837c9.629,8.95 18.217,18.992 26.029,29.854c3.879,5.384 7.558,10.971 10.971,16.613c3.412,5.691 6.467,11.229 9.521,17.383c0.879,1.862 1.758,3.729 2.637,5.642" style="fill:#cb4542;fill-rule:nonzero;"/><path d="M1152.09,546.75c-51.587,57.796 -126.72,94.179 -210.333,94.179c-98.729,0 -185.608,-50.708 -235.904,-127.446c48.692,54.429 122.737,89.15 205.629,89.15c64.421,0 123.463,-20.958 169.463,-55.883l71.145,0Z" style="fill:#cb4542;fill-rule:nonzero;"/><path d="M1223.49,359.594l-0,1.191l-56.4,0c-0.109,-2.279 -0.263,-4.866 -0.363,-7.762c-0.675,-12.058 -1.5,-29.338 -4.037,-50.192c-2.588,-20.75 -6.88,-45.225 -16.038,-70.169c-4.554,-12.52 -10.2,-24.887 -17.129,-37.15c-3.258,-5.691 -7.038,-11.85 -10.975,-17.591c-3.925,-5.796 -8.067,-11.438 -12.517,-16.871c-8.691,-10.867 -18.575,-21.108 -29.137,-29.908c-10.342,-8.692 -21.159,-16.917 -32.179,-23.8c-11.021,-6.988 -22.354,-12.625 -33.425,-17.025c-11.021,-4.5 -21.992,-7.192 -32.084,-9.417c-1.608,-0.308 -3.204,-0.567 -4.762,-0.775c140.179,16.142 249.046,135.1 249.046,279.469" style="fill:#cb4542;fill-rule:nonzero;"/><path d="M414.896,366.839c-7.396,-12.259 -19.246,-22.559 -35.55,-30.834c-16.246,-8.337 -43.204,-16.512 -80.821,-24.629c-15.212,-3.162 -24.838,-6.629 -28.925,-10.246c-4.137,-3.57 -6.262,-7.562 -6.262,-12.008c-0,-6.054 2.537,-11.229 7.612,-15.471c5.067,-4.246 12.621,-6.366 22.604,-6.366c12.163,-0 21.683,2.85 28.617,8.537c6.883,5.692 11.437,14.858 13.558,27.379l81.188,-4.762c-3.571,-28.871 -14.7,-49.935 -33.375,-63.185c-18.684,-13.25 -45.846,-19.867 -81.446,-19.867c-28.975,0 -51.846,3.68 -68.459,10.963c-16.712,7.246 -29.183,17.292 -37.458,30.018c-8.283,12.733 -12.471,26.237 -12.471,40.567c0,21.787 8.125,39.687 24.371,53.766c16.038,14.067 42.996,25.354 80.717,33.834c23.079,5.075 37.775,10.458 44.087,16.15c6.363,5.687 9.521,12.158 9.521,19.404c0,7.55 -3.308,14.279 -9.983,20.021c-6.625,5.75 -15.938,7.395 -28.204,7.395c-16.45,0 -29.338,-4.395 -38.184,-15.675c-5.487,-6.933 -9.058,-17.079 -10.871,-30.366l-81.908,5.112c2.433,28.104 12.783,51.279 30.992,69.55c18.271,18.213 51.075,27.367 98.421,27.367c27.008,-0 49.362,-3.879 67.108,-11.692c17.696,-7.812 31.512,-19.191 41.396,-34.3c9.883,-15.058 14.85,-31.521 14.85,-49.425c-0,-15.204 -3.721,-28.916 -11.125,-41.237" style="fill:#333;fill-rule:nonzero;"/><path d="M691.483,408.416c0,17.491 -4.716,33.571 -14.2,48.429c-0.2,0.3 -0.404,0.654 -0.608,0.962c-1.521,2.334 -3.142,4.559 -4.917,6.696c-9.333,11.813 -21.554,21.042 -36.512,27.584c-17.7,7.812 -40.063,11.666 -67.092,11.666c-47.412,0 -80.171,-9.083 -98.429,-27.387c-18.254,-18.209 -28.55,-41.379 -30.983,-69.521l81.9,-5.125c1.775,13.287 5.425,23.429 10.85,30.425c8.875,11.258 21.554,15.617 38.083,15.617c12.221,-0 21.654,-1.617 28.346,-7.4c6.596,-5.73 9.991,-12.421 9.991,-20.034c0,-7.25 -3.195,-13.691 -9.533,-19.366c-6.337,-5.73 -20.996,-11.105 -44.067,-16.18c-37.779,-8.466 -64.708,-19.775 -80.783,-33.825c-16.175,-14.041 -24.342,-31.995 -24.342,-53.75c0,-14.304 4.159,-27.845 12.475,-40.566c8.317,-12.729 20.742,-22.72 37.425,-30.02c16.684,-7.304 39.505,-10.909 68.509,-10.909c35.6,0 62.783,6.592 81.441,19.834c8.471,5.983 15.417,13.641 20.742,22.87c1.925,3.246 3.65,6.741 5.121,10.446c3.654,8.77 6.137,18.762 7.454,29.866l-15.971,0.913l-12.679,0.762l-52.483,3.042c-2.184,-12.525 -6.696,-21.604 -13.542,-27.388c-6.946,-5.625 -16.479,-8.52 -28.6,-8.52c-10.042,-0 -17.546,2.133 -22.616,6.395c-5.071,4.205 -7.609,9.38 -7.609,15.517c0,4.363 2.029,8.367 6.238,11.917c4.058,3.704 13.641,7.1 28.904,10.241c37.579,8.167 64.554,16.384 80.833,24.646c0.713,0.359 1.371,0.713 2.029,1.067c4.917,2.637 9.434,5.425 13.488,8.417c8.521,6.287 15.212,13.383 20.033,21.35c7.404,12.32 11.104,26.066 11.104,41.329" style="fill:#333;fill-rule:nonzero;"/><path d="M1080.28,220.479l-61.358,278.501l-84.484,0l-48.837,-175.354l-48.629,175.354l-84.43,0l-60.195,-270.338l-0,-0.05l-1.117,-5.021l-0.708,-3.092l81.8,0l29.404,155.885l43.104,-155.885l81.442,0l43.204,155.681l29.516,-155.681l81.288,0Z" style="fill:#333;fill-rule:nonzero;"/><rect x="1166.73" y="375.428" width="70.992" height="70.992" style="fill:#333;"/><rect x="1081.05" y="375.428" width="70.987" height="70.992" style="fill:#797979;"/><rect x="1166.73" y="461.115" width="70.992" height="70.992" style="fill:#cb4542;"/><rect x="1081.05" y="461.115" width="70.987" height="70.992" style="fill:#aaa;"/><path d="M446.208,214.883c9.184,11.929 12.121,27.788 7.3,42.449c-1.725,5.273 -3.158,10.884 -3.187,18.408l-0.009,0c-0.637,-1.787 -1.4,-3.555 -2.27,-5.273c-1.35,-2.695 -2.992,-5.303 -4.913,-7.795c-3.217,-4.152 -6.046,-8.412 -8.375,-12.768c12.254,-0.008 16.942,-15.221 11.446,-35.012l0.008,-0.009Z" style="fill:#aecedd;fill-rule:nonzero;"/><path d="M423.279,336.915c-0.579,-4.057 -0.004,-91.973 -214.159,-118.178c3.419,-3.225 6.742,-6.55 9.967,-10.004c4.105,-0.525 8.143,-1.2 12.102,-2.021c16.091,0 32.017,1.005 47.615,3.18c59.871,8.287 114.883,33.62 155.304,84.459c2.934,3.699 8.759,3.419 11.088,-0.686c3.812,-6.703 4.741,-17.191 2.846,-23.198c0.87,1.719 1.633,3.486 2.27,5.273c8.384,23.199 -26.82,61.078 -27.033,61.175Z" style="fill:#aecedd;fill-rule:nonzero;"/><path d="M434.754,249.904c2.329,4.356 5.158,8.616 8.375,12.768c1.921,2.492 3.563,5.1 4.913,7.795c1.895,6.007 0.966,16.495 -2.846,23.198c-2.329,4.105 -8.154,4.385 -11.088,0.686c-40.421,-50.839 -95.433,-76.172 -155.304,-84.459l0,-0.013c28.636,-9.829 42.235,-42.65 40.487,-62.796c42.931,4.259 83.707,28.617 120.813,61.292c1.642,1.45 3.167,2.992 4.567,4.625l-0,0.008c0.533,0.613 1.037,1.238 1.537,1.875l-0.008,0.009c5.496,19.791 0.808,35.004 -11.446,35.012" style="fill:#f3fafc;fill-rule:nonzero;"/><path d="M315.408,139.821c-10.971,10.354 -22.146,19.391 -33.668,26.133c-7.446,4.358 -16.37,-2.529 -14.304,-10.904c2.791,-11.338 4.095,-23.15 3.912,-35.425c-2.618,7.542 -5.457,14.796 -8.528,21.771c-26.358,40.912 -68.496,79.583 -124.929,97.325c-8.441,2.654 -17.645,0.029 -23.498,-6.596c-6.075,-6.888 -13.521,-11.196 -21.914,-13.725c22.677,-27.254 36.614,-64.392 45.161,-107.642c10.402,-52.666 58.538,-89.579 111.987,-84.566c109.436,10.258 195.256,82.683 195.048,186.808c-1.404,-1.633 -2.929,-3.175 -4.571,-4.625c-37.106,-32.675 -77.882,-57.033 -120.813,-61.292c-2.125,-0.212 -4.249,-0.375 -6.384,-0.483l-0.01,-0c0.927,-2.213 1.768,-4.471 2.511,-6.779" style="fill:#cb4542;fill-rule:nonzero;"/><path d="M319.291,147.083c1.748,20.146 -11.851,52.967 -40.487,62.796l-0,0.013c-15.598,-2.175 -31.524,-3.18 -47.615,-3.18c37.667,-7.791 68.612,-28.779 81.708,-60.112l0.01,-0c2.135,0.108 4.259,0.271 6.384,0.483" style="fill:#aecedd;fill-rule:nonzero;"/><path d="M262.82,141.396c3.071,-6.975 5.91,-14.229 8.528,-21.771c0.183,12.275 -1.121,24.087 -3.912,35.425c-2.066,8.375 6.858,15.262 14.304,10.904c11.522,-6.742 22.697,-15.779 33.668,-26.133c-0.743,2.308 -1.584,4.566 -2.511,6.779c-13.097,31.333 -44.041,52.321 -81.707,60.112c-3.961,0.821 -7.998,1.496 -12.102,2.021c17.529,-18.766 32.219,-41.079 43.732,-67.337" style="fill:#a81d2b;fill-rule:nonzero;"/><path d="M262.82,141.396c-11.513,26.258 -26.203,48.571 -43.732,67.337c-3.226,3.455 -6.548,6.779 -9.968,10.004c-28.81,27.109 -64.342,45.867 -105.418,57.698c-1.362,-2.298 -1.14,-5.177 0.367,-7.379c10.943,-15.974 -2.27,-37.039 -18.93,-42.493c2.54,-2.609 4.983,-5.334 7.34,-8.163c8.393,2.529 15.839,6.837 21.914,13.725c5.853,6.625 15.057,9.25 23.499,6.596c56.432,-17.742 98.57,-56.413 124.928,-97.325" style="fill:#a81d2b;fill-rule:nonzero;"/><path d="M85.139,226.563c16.66,5.454 29.873,26.519 18.93,42.494c-1.507,2.201 -1.729,5.08 -0.367,7.378c1.4,2.367 2.153,4.935 2.337,7.592c0.435,6.278 -2.231,13.048 -6.606,18.91c-8.693,11.667 -24.146,19.742 -35.32,13.193c-2.241,-1.313 -5.061,-1.323 -7.263,0.048c-17.201,10.74 -43.307,-11.367 -42.515,-30.538c10.17,16.505 23.112,24.966 39.994,21.991c3.593,-0.637 6.8,-2.907 8.306,-6.229c1.575,-3.458 1.256,-7.427 -1.4,-12.044c-0.57,-0.976 -1.719,-1.42 -2.83,-1.178c-2.376,0.531 -4.916,0.482 -7.369,0.183c-1.034,-0.126 -1.226,-1.555 -0.261,-1.941c8.934,-3.602 14.902,-11.358 11.097,-22.504c-0.26,-0.763 0.638,-1.429 1.285,-0.946c3.129,2.327 5.235,5.901 5.833,11.3c0.145,1.246 1.188,2.212 2.444,2.183c29.476,-0.57 29.921,-35.213 9.6,-50.888c1.381,0.22 2.762,0.558 4.105,0.996" style="fill:#aecedd;fill-rule:nonzero;"/><path d="M81.034,225.567c20.321,15.675 19.877,50.318 -9.6,50.888c-1.256,0.029 -2.299,-0.937 -2.444,-2.183c-0.598,-5.399 -2.704,-8.972 -5.833,-11.3c-0.647,-0.483 -1.545,0.183 -1.285,0.946c3.806,11.146 -2.163,18.902 -11.097,22.504c-0.966,0.386 -0.773,1.815 0.261,1.941c2.453,0.299 4.993,0.348 7.369,-0.183c1.111,-0.242 2.26,0.202 2.83,1.178c2.656,4.617 2.975,8.586 1.4,12.044c-1.506,3.322 -4.713,5.592 -8.305,6.229c-16.883,2.975 -29.825,-5.486 -39.995,-21.991c0.126,-3.13 0.966,-6.182 2.685,-9.002c1.43,-2.347 1.352,-5.37 -0.242,-7.611c-14.718,-20.852 9.514,-49.11 31.583,-43.673c4.539,13.396 1.622,28.703 -9.552,38.13c-1.14,0.966 -0.02,2.772 1.333,2.144c13.763,-6.481 23.768,-22.657 20.03,-35.282l0,-0.009c1.488,0.059 3.004,-0.379 4.298,-1.245c5.225,-3.496 10.991,-4.434 16.564,-3.525" style="fill:#f3fafc;fill-rule:nonzero;"/><path d="M60.172,230.346c3.738,12.625 -6.268,28.801 -20.03,35.282c-1.353,0.627 -2.473,-1.179 -1.333,-2.144c11.174,-9.427 14.091,-24.734 9.551,-38.13c2.821,0.683 5.612,1.929 8.278,3.813c1.062,0.754 2.288,1.133 3.534,1.17l0,0.009Z" style="fill:#aecedd;fill-rule:nonzero;"/></g></g></svg>