<svg width="184" height="45" viewBox="0 0 184 45" fill="none" xmlns="http://www.w3.org/2000/svg">
<g clip-path="url(#clip0_321_1395)">
<mask id="mask0_321_1395" style="mask-type:luminance" maskUnits="userSpaceOnUse" x="129" y="1" width="55" height="43">
<path d="M141.558 1.20972L139.704 7.65119L175.698 7.6515L175.82 7.65605C176.666 7.71738 177.333 8.41293 177.333 9.26179V35.0286L177.329 35.1488C177.266 35.9819 176.56 36.6389 175.698 36.6389H131.362L129.508 43.0807H177.46C181.072 43.0807 184 40.1965 184 36.6389V7.6515C184 4.09361 181.072 1.20972 177.46 1.20972H141.558Z" fill="white"/>
</mask>
<g mask="url(#mask0_321_1395)">
<path fill-rule="evenodd" clip-rule="evenodd" d="M129.2 43.384H184.308V0.906128H129.2V43.384Z" fill="white"/>
</g>
<path fill-rule="evenodd" clip-rule="evenodd" d="M165.96 12.5646L162.739 24.2708H162.685L159.2 12.5646H138.075L136.585 17.7234H141.924L141.972 31.7259H147.921L147.933 17.7234H154.83L159.278 31.7259H165.93L171.969 12.5646H165.96Z" fill="#CB3F40"/>
<mask id="mask1_321_1395" style="mask-type:luminance" maskUnits="userSpaceOnUse" x="0" y="0" width="38" height="45">
<path d="M14.4059 0.817975L13.887 0.909219C7.16699 2.1719 1.63096 6.41341 1.63096 14.3824C1.63096 19.5115 4.3856 22.2034 8.01982 23.9472L8.46037 24.1518L8.90831 24.3481L9.36332 24.5361L9.82448 24.7171L10.2915 24.8913L10.7631 25.059L11.2387 25.2212L11.718 25.3782L12.4417 25.6056L12.9262 25.7524L13.4049 25.894L17.0413 26.9389L18.2344 27.29L19.3052 27.6154L20.0314 27.8452L20.4803 27.9924L20.9018 28.1358L21.484 28.3454L21.8404 28.4815C21.8976 28.5039 21.9538 28.5266 22.0088 28.549L22.3277 28.683L22.6231 28.8157L22.8952 28.9481C22.9388 28.9699 22.9813 28.9921 23.0228 29.0142L23.262 29.1472C24.326 29.7693 24.6946 30.4256 24.6946 31.3822C24.6946 33.7703 22.8153 34.7432 20.9934 35.068L20.6905 35.1162L20.3905 35.1534L20.096 35.1798L19.8085 35.1967L19.53 35.205L19.3947 35.2059C17.0065 35.2059 14.211 34.6763 13.2792 32.1469C13.0203 31.4151 12.8537 30.5899 12.8195 29.7134L12.8131 29.3825H0L0.00399669 29.7813C0.151259 36.9568 4.27215 40.692 8.71832 42.5998L9.20437 42.8011L9.69228 42.9882L10.1805 43.1614C10.5872 43.3006 10.9934 43.426 11.3961 43.5387L11.8775 43.6683L12.355 43.7863L12.8269 43.8938L13.2927 43.9906C13.3695 44.0057 13.4464 44.0204 13.5229 44.0346L13.9767 44.1166L14.4222 44.1891L14.8569 44.2524L15.2809 44.3074L15.6928 44.3544L16.0913 44.394L16.4756 44.4263L16.8448 44.4524L17.3675 44.48L17.8498 44.4951L18.2879 44.5L18.5677 44.4991C18.9372 44.4963 19.3074 44.4877 19.6775 44.4736L20.2328 44.4475L20.788 44.4131L21.3426 44.3691C21.9882 44.3126 22.6317 44.237 23.2684 44.1415L23.8132 44.0542L24.354 43.9571C24.4441 43.9399 24.5335 43.9224 24.623 43.9046L25.1579 43.7919C25.2465 43.7722 25.3353 43.7522 25.4236 43.7316L25.9511 43.6032C32.3363 41.9725 37.5077 37.9365 37.5077 30.0295C37.5077 26.9865 36.613 24.7297 35.1715 23.0071L35.0485 22.8633C32.8826 20.3733 29.5527 19.0252 26.1645 18.0184L25.8011 17.9118L24.9409 17.6909L23.7963 17.4089L21.2805 16.803L20.476 16.6027L19.9527 16.4679L19.4417 16.3314L18.9437 16.1926L18.4607 16.051L17.9937 15.9056C17.8406 15.8568 17.6906 15.807 17.5436 15.7563L17.1123 15.6024C15.1447 14.8715 13.8252 13.9677 13.7449 12.6177C13.7449 10.8386 15.3768 10.1357 16.9275 9.89853L17.2263 9.85828C17.3253 9.84661 17.4237 9.83708 17.5206 9.82879L17.8068 9.80882L18.0829 9.79776L18.346 9.79407L18.6141 9.79807C19.7799 9.83278 20.9343 10.0998 21.9228 10.7157L22.1318 10.8528C23.1925 11.5296 23.8249 12.5302 23.6709 14.0101L23.6463 14.2061H35.7605L35.7491 13.8933C35.41 6.33752 30.7235 2.52859 24.5689 1.13687L24.0598 1.02811C23.9743 1.0106 23.8888 0.994013 23.8027 0.977423L23.2847 0.884334C23.024 0.840709 22.7611 0.80077 22.4964 0.764825L21.9646 0.697851L21.4278 0.640708L20.8861 0.593703C20.7957 0.586637 20.705 0.579878 20.614 0.573733L20.0668 0.541168L19.5158 0.518126C19.2394 0.508909 18.9618 0.503379 18.6833 0.501229L18.4044 0.5C17.0526 0.5 15.7094 0.604148 14.4059 0.817975Z" fill="white"/>
</mask>
<g mask="url(#mask1_321_1395)">
<path fill-rule="evenodd" clip-rule="evenodd" d="M-0.307434 44.8072H37.8151V0.192749H-0.307434V44.8072Z" fill="white"/>
</g>
<mask id="mask2_321_1395" style="mask-type:luminance" maskUnits="userSpaceOnUse" x="38" y="0" width="38" height="45">
<path d="M52.6213 0.817975L52.102 0.909219C45.3818 2.1719 39.846 6.41341 39.846 14.3824C39.846 17.0494 40.591 19.0577 41.817 20.616L41.9034 20.7244C43.7988 23.0587 46.7889 24.3674 49.9515 25.384L50.6568 25.6056L51.1416 25.7524L51.6203 25.894L52.0864 26.0295L54.9277 26.8437L56.6927 27.3632L57.4754 27.6016L57.9615 27.754L58.6391 27.9736L59.0575 28.1152L59.4498 28.2538L59.8169 28.3896L60.1597 28.5232L60.4782 28.6547L60.7739 28.7859L61.0466 28.9159C61.0903 28.9377 61.1333 28.9595 61.1751 28.981L61.4156 29.1119C61.454 29.1334 61.4912 29.1552 61.5278 29.1773L61.7374 29.3091C62.5027 29.8185 62.8313 30.365 62.8971 31.0895L62.9085 31.2827C62.9094 31.3156 62.91 31.3488 62.91 31.3822C62.91 33.7703 61.0303 34.7432 59.2085 35.068L58.9056 35.1162L58.6059 35.1534L58.3114 35.1798L58.0239 35.1967L57.7451 35.205L57.6098 35.2059C55.2219 35.2059 52.4264 34.6763 51.4942 32.1469C51.2357 31.4151 51.0687 30.5899 51.0346 29.7134L51.0285 29.3825H38.2154L38.2194 29.7813C38.3076 34.0852 39.8254 37.1513 41.9855 39.3279C45.0734 42.4392 49.4738 43.7329 52.8875 44.2263L53.4179 44.2975L53.9301 44.3565C54.0137 44.3654 54.0967 44.374 54.1785 44.3817L54.6593 44.4238L55.1165 44.4558L55.5481 44.4782L56.1439 44.4966L56.503 44.5L56.7828 44.4991C57.1523 44.4963 57.5225 44.4877 57.8929 44.4736L58.4482 44.4475L59.0031 44.4131L59.5574 44.3691C60.2036 44.3126 60.8468 44.237 61.4838 44.1415L62.0283 44.0542L62.5694 43.9571C62.6591 43.9399 62.7489 43.9224 62.8384 43.9046L63.373 43.7919C63.4619 43.7722 63.5504 43.7522 63.6386 43.7316L64.1662 43.6032C70.5517 41.9725 75.7231 37.9365 75.7231 30.0295C75.7231 24.2584 72.5058 21.3143 68.4384 19.4826L67.9913 19.2872C67.9163 19.255 67.841 19.2236 67.7657 19.1926L67.3094 19.0092L66.8489 18.8338L66.3837 18.6654L65.9149 18.5032L65.443 18.3474L64.731 18.1241L64.0165 17.9118L63.1563 17.6909L62.0114 17.4089L59.4956 16.803L58.691 16.6027L58.1678 16.4679L57.6568 16.3314L57.1591 16.1926L56.6761 16.051L56.2088 15.9056C56.056 15.8568 55.906 15.807 55.759 15.7563L55.3277 15.6024C53.3601 14.8715 52.0406 13.9677 51.9603 12.6177C51.9603 10.8386 53.5916 10.1357 55.1429 9.89853L55.4417 9.85828C55.5407 9.84661 55.6385 9.83708 55.7356 9.82879L56.0222 9.80882L56.2983 9.79776L56.5614 9.79407C57.8115 9.79407 59.0618 10.0503 60.1228 10.7062L60.3472 10.8528C61.4076 11.5296 62.0403 12.5302 61.8862 14.0101L61.8616 14.2061H73.9756L73.9642 13.8933C73.6254 6.33752 68.9389 2.52859 62.7843 1.13687L62.2752 1.02811C62.1897 1.0106 62.1042 0.994013 62.0181 0.977423L61.4998 0.884334C61.2391 0.840709 60.9762 0.80077 60.7115 0.764825L60.1797 0.697851L59.6426 0.640708L59.1015 0.593703C59.0111 0.586637 58.9201 0.579878 58.8291 0.573733L58.2818 0.541168L57.7309 0.518126C57.4545 0.508909 57.1772 0.503379 56.8984 0.501229L56.6195 0.5C55.2677 0.5 53.9248 0.604148 52.6213 0.817975Z" fill="white"/>
</mask>
<g mask="url(#mask2_321_1395)">
<path fill-rule="evenodd" clip-rule="evenodd" d="M37.9077 44.8072H76.0302V0.192749H37.9077V44.8072Z" fill="white"/>
</g>
<path fill-rule="evenodd" clip-rule="evenodd" d="M122.123 1.20972L116.772 27.4231H116.652L111.602 1.20972H99.9384L94.7677 27.0713H94.6474L89.417 1.20972H76.4308L88.0943 43.0807H101.021L105.529 17.571H105.65L110.279 43.0807H123.145L135.169 1.20972H122.123Z" fill="white"/>
</g>
<defs>
<clipPath id="clip0_321_1395">
<rect width="184" height="44" fill="white" transform="translate(0 0.5)"/>
</clipPath>
</defs>
</svg>
