<svg width="480" height="427" viewBox="0 0 480 427" fill="none" xmlns="http://www.w3.org/2000/svg">
<path d="M173.45 79C181.473 79 189.167 82.1936 194.84 87.8783C200.513 93.563 203.7 101.273 203.7 109.312C203.7 117.352 200.513 125.062 194.84 130.747C189.167 136.431 181.473 139.625 173.45 139.625C165.427 139.625 157.733 136.431 152.06 130.747C146.387 125.062 143.2 117.352 143.2 109.312C143.2 101.273 146.387 93.563 152.06 87.8783C157.733 82.1936 165.427 79 173.45 79ZM312.6 79C320.623 79 328.317 82.1936 333.99 87.8783C339.663 93.563 342.85 101.273 342.85 109.312C342.85 117.352 339.663 125.062 333.99 130.747C328.317 136.431 320.623 139.625 312.6 139.625C304.577 139.625 296.883 136.431 291.21 130.747C285.537 125.062 282.35 117.352 282.35 109.312C282.35 101.273 285.537 93.563 291.21 87.8783C296.883 82.1936 304.577 79 312.6 79ZM119 192.179C119 169.862 137.074 151.75 159.346 151.75H175.492C181.504 151.75 187.214 153.076 192.356 155.425C191.865 158.154 191.638 160.995 191.638 163.875C191.638 178.349 197.99 191.346 208.011 200.25C207.935 200.25 207.859 200.25 207.746 200.25H127.054C122.63 200.25 119 196.613 119 192.179ZM272.254 200.25C272.178 200.25 272.103 200.25 271.989 200.25C282.048 191.346 288.362 178.349 288.362 163.875C288.362 160.995 288.098 158.191 287.644 155.425C292.786 153.038 298.496 151.75 304.508 151.75H320.654C342.926 151.75 361 169.862 361 192.179C361 196.65 357.37 200.25 352.946 200.25H272.292H272.254ZM203.7 163.875C203.7 154.228 207.524 144.976 214.332 138.154C221.14 131.332 230.373 127.5 240 127.5C249.627 127.5 258.86 131.332 265.668 138.154C272.476 144.976 276.3 154.228 276.3 163.875C276.3 173.522 272.476 182.774 265.668 189.596C258.86 196.418 249.627 200.25 240 200.25C230.373 200.25 221.14 196.418 214.332 189.596C207.524 182.774 203.7 173.522 203.7 163.875ZM167.4 262.883C167.4 234.996 189.974 212.375 217.804 212.375H262.158C290.026 212.375 312.6 234.996 312.6 262.883C312.6 268.453 308.1 273 302.504 273H177.458C171.9 273 167.362 268.491 167.362 262.883H167.4Z" fill="#CC4141"/>
<path d="M53.3333 0C23.9167 0 0 23.9354 0 53.375V293.562C0 323.002 23.9167 346.938 53.3333 346.938H200L191.083 373.625H133.333C118.583 373.625 106.667 385.551 106.667 400.312C106.667 415.074 118.583 427 133.333 427H346.667C361.417 427 373.333 415.074 373.333 400.312C373.333 385.551 361.417 373.625 346.667 373.625H288.917L280 346.938H426.667C456.083 346.938 480 323.002 480 293.562V53.375C480 23.9354 456.083 0 426.667 0H53.3333ZM426.667 53.375V293.562H53.3333V53.375H426.667Z" fill="black"/>
</svg>
