<svg width="478" height="480" viewBox="0 0 478 480" fill="none" xmlns="http://www.w3.org/2000/svg">
<path d="M464.473 379.932C479.245 369.058 482.398 348.306 471.527 333.53C460.656 318.755 439.909 315.601 425.138 326.475L325.803 399.688H225.722C218.419 399.688 212.444 393.711 212.444 386.406C212.444 379.102 218.419 373.125 225.722 373.125H239H292.111C306.8 373.125 318.667 361.255 318.667 346.562C318.667 331.87 306.8 320 292.111 320H239H225.722H160.744C136.595 320 113.193 328.218 94.3552 343.242L57.0944 373.125H26.5556C11.867 373.125 0 384.995 0 399.688V452.812C0 467.505 11.867 479.375 26.5556 479.375H159.333H292.526C316.592 479.375 340.077 471.655 359.496 457.378L464.556 379.932H464.473Z" fill="black"/>
<path fill-rule="evenodd" clip-rule="evenodd" d="M380.03 97.6363C381.906 102.735 380.323 108.42 376.28 112.053L350.904 135.144C351.548 140.008 351.9 144.989 351.9 150.029C351.9 155.069 351.548 160.051 350.904 164.915L376.28 188.005C380.323 191.639 381.906 197.324 380.03 202.422C377.452 209.396 374.346 216.077 370.771 222.524L368.016 227.271C364.148 233.718 359.812 239.812 355.065 245.556C351.607 249.775 345.863 251.182 340.706 249.541L308.063 239.168C300.21 245.204 291.536 250.244 282.277 254.054L274.951 287.517C273.779 292.85 269.677 297.07 264.285 297.949C256.198 299.297 247.876 300 239.378 300C230.88 300 222.558 299.297 214.471 297.949C209.079 297.07 204.977 292.85 203.804 287.517L196.479 254.054C187.219 250.244 178.546 245.204 170.693 239.168L138.108 249.6C132.951 251.24 127.208 249.775 123.75 245.614C119.003 239.871 114.666 233.776 110.798 227.33L108.044 222.583C104.469 216.136 101.363 209.455 98.784 202.481C96.9086 197.382 98.491 191.698 102.535 188.064L127.911 164.974C127.266 160.051 126.914 155.069 126.914 150.029C126.914 144.989 127.266 140.008 127.911 135.144L102.535 112.053C98.491 108.42 96.9086 102.735 98.784 97.6363C101.363 90.6622 104.469 83.9812 108.044 77.5347L110.798 72.7877C114.666 66.3411 119.003 60.2461 123.75 54.5028C127.208 50.2833 132.951 48.8767 138.108 50.5177L170.751 60.8908C178.604 54.8545 187.278 49.8144 196.537 46.0051L203.863 12.5415C205.035 7.20844 209.138 2.98886 214.529 2.10979C222.617 0.703262 230.939 0 239.436 0C247.934 0 256.256 0.703262 264.344 2.05118C269.735 2.93026 273.838 7.14983 275.01 12.4829L282.335 45.9465C291.595 49.7558 300.269 54.7959 308.122 60.8322L340.765 50.4591C345.922 48.8181 351.665 50.2833 355.123 54.4442C359.87 60.1875 364.207 66.2825 368.075 72.729L370.829 77.4761C374.404 83.9226 377.51 90.6036 380.089 97.5777L380.03 97.6363ZM232.914 181.249L283.237 130.926L283.197 130.887C286.893 127.231 286.853 121.255 283.197 117.56C279.541 113.864 273.565 113.864 269.87 117.56L226.231 161.238L207.753 142.76C204.097 139.065 198.121 139.104 194.425 142.76C190.73 146.416 190.73 152.392 194.425 156.088L219.587 181.249C223.243 184.944 229.219 184.944 232.914 181.249Z" fill="#CC4141"/>
</svg>
