<svg width="480" height="447" viewBox="0 0 480 447" fill="none" xmlns="http://www.w3.org/2000/svg">
<g clip-path="url(#clip0_162_28)">
<path d="M334.806 167.442H458.791C470.504 167.442 480 176.937 480 188.651V301.585C480 344.636 445.101 379.535 402.05 379.535H401.682C358.631 379.541 323.727 344.647 323.721 301.596C323.721 301.592 323.721 301.589 323.721 301.585V178.527C323.721 172.405 328.684 167.442 334.806 167.442Z" fill="#5059C9"/>
<path d="M418.605 145.116C446.347 145.116 468.837 122.626 468.837 94.8837C468.837 67.141 446.347 44.6511 418.605 44.6511C390.862 44.6511 368.372 67.141 368.372 94.8837C368.372 122.626 390.862 145.116 418.605 145.116Z" fill="#5059C9"/>
<path d="M262.326 145.116C302.398 145.116 334.884 112.631 334.884 72.5582C334.884 32.4854 302.398 0 262.326 0C222.253 0 189.767 32.4854 189.767 72.5582C189.767 112.631 222.253 145.116 262.326 145.116Z" fill="#7B83EB"/>
<path d="M359.074 167.442H154.415C142.841 167.728 133.685 177.334 133.954 188.908V317.716C132.337 387.173 187.289 444.812 256.744 446.512C326.2 444.812 381.151 387.173 379.535 317.716V188.908C379.803 177.334 370.648 167.728 359.074 167.442Z" fill="#7B83EB"/>
<path opacity="0.1" d="M267.907 167.442V347.944C267.851 356.222 262.836 363.658 255.181 366.809C252.744 367.84 250.125 368.372 247.479 368.372H143.777C142.326 364.688 140.986 361.005 139.87 357.209C135.962 344.4 133.968 331.085 133.953 317.693V188.874C133.685 177.318 142.826 167.728 154.381 167.442H267.907Z" fill="black"/>
<path opacity="0.2" d="M256.744 167.442V359.107C256.744 361.753 256.212 364.372 255.181 366.809C252.03 374.463 244.594 379.48 236.316 379.535H149.023C147.126 375.851 145.34 372.167 143.777 368.372C142.214 364.577 140.986 361.005 139.87 357.209C135.962 344.401 133.968 331.085 133.953 317.693V188.874C133.685 177.318 142.826 167.728 154.381 167.442H256.744Z" fill="black"/>
<path opacity="0.2" d="M256.744 167.442V336.782C256.659 348.028 247.563 357.124 236.316 357.209H139.87C135.962 344.401 133.969 331.085 133.954 317.693V188.874C133.685 177.318 142.826 167.728 154.381 167.442H256.744Z" fill="black"/>
<path opacity="0.2" d="M245.581 167.442V336.782C245.496 348.028 236.4 357.124 225.153 357.209H139.87C135.962 344.401 133.969 331.085 133.954 317.693V188.874C133.685 177.318 142.826 167.728 154.381 167.442H245.581Z" fill="black"/>
<path opacity="0.1" d="M267.907 109.73V144.893C266.009 145.005 264.223 145.116 262.326 145.116C260.428 145.116 258.642 145.005 256.744 144.893C252.976 144.643 249.239 144.045 245.581 143.107C222.977 137.754 204.302 121.901 195.349 100.465C193.808 96.8656 192.612 93.1278 191.777 89.3026H247.479C258.743 89.3453 267.864 98.466 267.907 109.73Z" fill="black"/>
<path opacity="0.2" d="M256.744 120.893V144.893C252.976 144.643 249.239 144.045 245.582 143.107C222.977 137.754 204.302 121.901 195.349 100.465H236.316C247.581 100.508 256.701 109.629 256.744 120.893Z" fill="black"/>
<path opacity="0.2" d="M256.744 120.893V144.893C252.976 144.643 249.239 144.045 245.582 143.107C222.977 137.754 204.302 121.901 195.349 100.465H236.316C247.581 100.508 256.701 109.629 256.744 120.893Z" fill="black"/>
<path opacity="0.2" d="M245.581 120.893V143.107C222.977 137.754 204.302 121.901 195.349 100.465H225.153C236.418 100.508 245.539 109.629 245.581 120.893Z" fill="black"/>
<path d="M20.4613 100.465H225.12C236.42 100.465 245.581 109.626 245.581 120.926V325.585C245.581 336.886 236.42 346.046 225.12 346.046H20.4613C9.16074 346.046 0 336.885 0 325.585V120.926C0 109.626 9.16096 100.465 20.4613 100.465Z" fill="url(#paint0_linear_162_28)"/>
<path d="M176.64 178.359H135.728V289.764H109.663V178.359H68.9415V156.748H176.64V178.359Z" fill="white"/>
</g>
<defs>
<linearGradient id="paint0_linear_162_28" x1="42.6625" y1="84.477" x2="202.919" y2="362.035" gradientUnits="userSpaceOnUse">
<stop stop-color="#5A62C3"/>
<stop offset="0.5" stop-color="#4D55BD"/>
<stop offset="1" stop-color="#3940AB"/>
</linearGradient>
<clipPath id="clip0_162_28">
<rect width="480" height="446.512" fill="white"/>
</clipPath>
</defs>
</svg>
