<svg width="479" height="479" viewBox="0 0 479 479" fill="none" xmlns="http://www.w3.org/2000/svg">
<path d="M134.719 194.594H149.688C166.247 194.594 179.625 207.972 179.625 224.531V329.312C179.625 345.872 166.247 359.25 149.688 359.25H134.719C101.694 359.25 74.8438 332.4 74.8438 299.375V254.469C74.8438 221.444 101.694 194.594 134.719 194.594ZM344.281 194.594C377.306 194.594 404.156 221.444 404.156 254.469V299.375C404.156 332.4 377.306 359.25 344.281 359.25H329.312C312.753 359.25 299.375 345.872 299.375 329.312V224.531C299.375 207.972 312.753 194.594 329.312 194.594H344.281Z" fill="#CC4141"/>
<path d="M239.5 44.9062C132.006 44.9062 44.9062 132.006 44.9062 239.5V276.922C44.9062 289.365 34.8959 299.375 22.4531 299.375C10.0104 299.375 0 289.365 0 276.922V239.5C0 107.214 107.214 0 239.5 0C371.786 0 479 107.214 479 239.5V374.312C479 419.78 442.139 456.64 396.578 456.64L293.388 456.547C285.622 469.925 271.121 479 254.469 479H224.531C199.739 479 179.625 458.886 179.625 434.094C179.625 409.302 199.739 389.188 224.531 389.188H254.469C271.121 389.188 285.622 398.262 293.388 411.641L396.672 411.734C417.347 411.734 434.094 394.988 434.094 374.312V239.5C434.094 132.006 346.994 44.9062 239.5 44.9062Z" fill="black"/>
</svg>
