<svg width="600" height="600" viewBox="0 0 600 600" fill="none" xmlns="http://www.w3.org/2000/svg">
<rect width="600" height="600" fill="#1E1E1E"/>
<rect width="600" height="600" fill="white"/>
<path d="M416.455 97.8431C528.078 154.933 572.102 292.118 515.013 403.741C457.923 515.364 321.022 559.388 209.115 502.299C156.001 475.032 118.226 429.588 99.4799 377.326L146.06 348.072C158.842 392.664 189.233 431.86 233.541 454.866C319.033 498.606 423.556 464.807 467.296 379.315C511.32 293.822 477.521 189.3 392.029 145.276C306.536 101.535 202.014 135.335 158.274 220.827L211.671 248.378L71.0771 335.858L60 170.554L110.557 196.401C167.931 84.2097 305.684 41.3215 416.455 97.8431Z" fill="black"/>
<path fill-rule="evenodd" clip-rule="evenodd" d="M281 198L281 318L365.853 402.853L394.137 374.569L321 301.431L321 198H281Z" fill="#CC4141"/>
<path d="M281 318L276 318L276 320.071L277.464 321.536L281 318ZM281 198V193H276L276 198L281 198ZM365.853 402.853L362.317 406.388L365.853 409.924L369.388 406.388L365.853 402.853ZM394.137 374.569L397.673 378.104L401.208 374.569L397.673 371.033L394.137 374.569ZM321 301.431L316 301.431L316 303.503L317.464 304.967L321 301.431ZM321 198L326 198L326 193H321V198ZM286 318L286 198L276 198L276 318L286 318ZM369.388 399.317L284.536 314.464L277.464 321.536L362.317 406.388L369.388 399.317ZM390.602 371.033L362.317 399.317L369.388 406.388L397.673 378.104L390.602 371.033ZM317.464 304.967L390.602 378.104L397.673 371.033L324.536 297.896L317.464 304.967ZM316 198L316 301.431L326 301.431L326 198L316 198ZM281 203H321V193H281V203Z" fill="#CC4141"/>
</svg>
