<svg width="348" height="482" viewBox="0 0 348 482" fill="none" xmlns="http://www.w3.org/2000/svg">
<g clip-path="url(#clip0_228_2)">
<path d="M223.247 213.971C246.675 194.609 257.055 80.1897 267.196 39.0606C277.338 -2.06833 319.28 0.0176931 319.28 0.0176931C319.28 0.0176931 308.391 18.9521 312.833 33.082C317.273 47.2117 347.699 59.842 347.699 59.842L341.137 77.1281C341.137 77.1281 327.434 75.3767 319.28 91.6747C311.126 107.972 329.495 267.689 329.495 267.689C329.495 267.689 275.513 365.932 275.513 406.712C275.513 447.491 294.831 481.668 294.831 481.668H267.723C267.723 481.668 227.957 434.382 219.802 410.75C211.646 387.119 214.907 363.487 214.907 363.487C214.907 363.487 171.683 361.043 133.354 363.487C95.025 365.932 69.4632 398.854 64.8499 417.27C60.2365 435.685 58.3257 481.668 58.3257 481.668H36.892C23.8463 441.441 13.4852 427.023 19.1061 406.712C34.6752 350.449 31.617 318.538 28.0121 304.326C24.4073 290.113 0 277.708 0 277.708C11.956 253.369 24.1601 241.674 76.6562 240.454C129.152 239.234 199.82 233.331 223.247 213.971Z" fill="#EC4815"/>
<path d="M82.8939 404.355C82.8939 404.355 88.4324 455.57 117.857 481.669H143.073C117.857 453.125 115.107 378.724 115.107 378.724C102.282 382.897 84.5252 397.836 82.8939 404.355Z" fill="#EC4815"/>
</g>
<defs>
<clipPath id="clip0_228_2">
<rect width="348" height="482" fill="white"/>
</clipPath>
</defs>
</svg>
