<svg width="479" height="479" viewBox="0 0 479 479" fill="none" xmlns="http://www.w3.org/2000/svg">
<g clip-path="url(#clip0_228_5)">
<path d="M34.0445 239.494C34.0445 320.819 81.3072 391.099 149.842 424.404L51.833 155.878C40.4327 181.431 34.0445 209.708 34.0445 239.494Z" fill="#464342"/>
<path d="M378.211 229.126C378.211 203.734 369.09 186.149 361.267 172.462C350.852 155.538 341.09 141.206 341.09 124.282C341.09 105.395 355.415 87.8145 375.592 87.8145C376.503 87.8145 377.367 87.9279 378.254 87.9787C341.7 54.4902 292.998 34.0437 239.508 34.0437C167.728 34.0437 104.577 70.8709 67.8388 126.651C72.6593 126.796 77.2022 126.897 81.0609 126.897C102.552 126.897 135.818 124.29 135.818 124.29C146.894 123.637 148.2 139.904 137.136 141.214C137.136 141.214 126.005 142.524 113.62 143.173L188.441 365.719L233.405 230.87L201.393 143.165C190.329 142.516 179.848 141.206 179.848 141.206C168.776 140.557 170.074 123.629 181.146 124.282C181.146 124.282 215.077 126.89 235.266 126.89C256.753 126.89 290.023 124.282 290.023 124.282C301.107 123.629 302.409 139.896 291.341 141.206C291.341 141.206 280.187 142.516 267.825 143.165L342.075 364.026L362.569 295.544C371.452 267.126 378.211 246.715 378.211 229.126Z" fill="#464342"/>
<path d="M243.112 257.466L181.466 436.594C199.873 442.005 219.338 444.964 239.508 444.964C263.434 444.964 286.38 440.828 307.738 433.318C307.186 432.438 306.686 431.504 306.275 430.487L243.112 257.466Z" fill="#464342"/>
<path d="M419.794 140.921C420.677 147.465 421.178 154.491 421.178 162.048C421.178 182.897 417.284 206.334 405.555 235.639L342.795 417.09C403.878 381.47 444.963 315.295 444.963 239.498C444.967 203.777 435.842 170.187 419.794 140.921Z" fill="#464342"/>
<path d="M239.508 0C107.447 0 0 107.436 0 239.494C0 371.568 107.447 479 239.508 479C371.565 479 479.027 371.568 479.027 239.494C479.023 107.436 371.565 0 239.508 0ZM239.508 468.022C113.503 468.022 10.982 365.504 10.982 239.494C10.982 113.492 113.499 10.9817 239.508 10.9817C365.509 10.9817 468.022 113.492 468.022 239.494C468.022 365.504 365.509 468.022 239.508 468.022Z" fill="#464342"/>
</g>
<defs>
<clipPath id="clip0_228_5">
<rect width="479" height="479" fill="white"/>
</clipPath>
</defs>
</svg>
