<svg width="480" height="190" viewBox="0 0 480 190" fill="none" xmlns="http://www.w3.org/2000/svg">
<path d="M266.684 115.459H252.442V87.2945H266.684C274.526 87.2945 280.927 93.6156 280.927 101.537C280.847 109.458 274.206 115.459 266.684 115.459ZM266.684 63.0505H227.478V139.783H266.684C287.808 139.783 304.931 122.82 304.931 101.297C304.851 80.0933 287.808 63.0505 266.684 63.0505Z" fill="#472A2B"/>
<path d="M391.265 100.897C390.945 79.7733 373.902 63.0505 353.019 63.0505H314.772V139.783H339.737V88.0147H353.019C360.62 88.0147 366.541 93.9357 366.541 101.537V140.023H391.505L391.265 100.897Z" fill="#472A2B"/>
<path d="M479.76 100.897C479.44 79.7733 462.397 63.0505 441.514 63.0505H403.027V139.783H427.991V88.0147H441.514C448.795 88.0147 455.036 93.9357 455.036 101.537V140.023H480L479.76 100.897Z" fill="#472A2B"/>
<path d="M126.261 63.0505V5.36089C116.499 1.8403 105.698 0 94.6558 0H0V126.261H63.1305V63.0505H126.261Z" fill="#EF3E42"/>
<path d="M126.261 63.0505H63.0505V126.181H94.6558C112.019 126.181 126.261 111.939 126.261 94.5758V63.0505Z" fill="white"/>
<path d="M126.261 5.3609V63.0505H183.951C174.189 36.2461 153.066 14.7225 126.261 5.3609ZM0 189.312H63.1305V126.181H0V189.312Z" fill="#472A2B"/>
<path d="M183.951 63.0505H126.261V94.6558C126.261 112.019 112.019 126.261 94.6558 126.261H63.0505V189.392H94.6558C147.065 189.392 189.312 147.145 189.312 94.7358C189.312 83.6139 187.391 72.8921 183.951 63.0505Z" fill="#00A4E4"/>
</svg>
