<svg width="481" height="475" viewBox="0 0 481 475" fill="none" xmlns="http://www.w3.org/2000/svg">
<path fill-rule="evenodd" clip-rule="evenodd" d="M105.617 95.4L385.029 369.224L369.383 385.188L89.9715 111.365L105.617 95.4Z" fill="#CC4141"/>
<path fill-rule="evenodd" clip-rule="evenodd" d="M205.402 259.73L375.843 114.436L390.345 131.447L219.903 276.741L205.402 259.73Z" fill="#CC4141"/>
<path fill-rule="evenodd" clip-rule="evenodd" d="M166.069 374.93L240.391 228.924L260.311 239.064L185.99 385.07L166.069 374.93Z" fill="#CC4141"/>
<path fill-rule="evenodd" clip-rule="evenodd" d="M240.294 251.471H108.971V229.118H240.294V251.471Z" fill="#CC4141"/>
<path d="M285 237.5C285 260.647 266.235 279.412 243.088 279.412C219.941 279.412 201.176 260.647 201.176 237.5C201.176 214.353 219.941 195.588 243.088 195.588C266.235 195.588 285 214.353 285 237.5Z" fill="white"/>
<path d="M458.235 410.735C458.235 433.883 439.471 452.647 416.324 452.647C393.176 452.647 374.412 433.883 374.412 410.735C374.412 387.588 393.176 368.824 416.324 368.824C439.471 368.824 458.235 387.588 458.235 410.735Z" fill="white"/>
<path d="M106.176 69.8529C106.176 93.0002 87.4119 111.765 64.2647 111.765C41.1175 111.765 22.3529 93.0002 22.3529 69.8529C22.3529 46.7057 41.1175 27.9412 64.2647 27.9412C87.4119 27.9412 106.176 46.7057 106.176 69.8529Z" fill="white"/>
<path fill-rule="evenodd" clip-rule="evenodd" d="M480.588 410.735C480.588 446.228 451.816 475 416.324 475C380.831 475 352.059 446.228 352.059 410.735C352.059 375.243 380.831 346.471 416.324 346.471C451.816 346.471 480.588 375.243 480.588 410.735ZM416.324 452.647C439.471 452.647 458.235 433.883 458.235 410.735C458.235 387.588 439.471 368.824 416.324 368.824C393.176 368.824 374.412 387.588 374.412 410.735C374.412 433.883 393.176 452.647 416.324 452.647Z" fill="#CC4141"/>
<path fill-rule="evenodd" clip-rule="evenodd" d="M447.059 97.7941C447.059 120.941 428.294 139.706 405.147 139.706C382 139.706 363.235 120.941 363.235 97.7941C363.235 74.6469 382 55.8824 405.147 55.8824C428.294 55.8824 447.059 74.6469 447.059 97.7941ZM405.147 125.128C420.243 125.128 432.481 112.89 432.481 97.7941C432.481 82.6981 420.243 70.4604 405.147 70.4604C390.051 70.4604 377.813 82.6981 377.813 97.7941C377.813 112.89 390.051 125.128 405.147 125.128Z" fill="#CC4141"/>
<path fill-rule="evenodd" clip-rule="evenodd" d="M117.353 237.5C117.353 260.647 98.5884 279.412 75.4412 279.412C52.2939 279.412 33.5294 260.647 33.5294 237.5C33.5294 214.353 52.2939 195.588 75.4412 195.588C98.5884 195.588 117.353 214.353 117.353 237.5ZM75.4412 264.834C90.5372 264.834 102.775 252.596 102.775 237.5C102.775 222.404 90.5372 210.166 75.4412 210.166C60.3452 210.166 48.1074 222.404 48.1074 237.5C48.1074 252.596 60.3452 264.834 75.4412 264.834Z" fill="#CC4141"/>
<path fill-rule="evenodd" clip-rule="evenodd" d="M201.176 410.735C201.176 433.883 182.412 452.647 159.265 452.647C136.117 452.647 117.353 433.883 117.353 410.735C117.353 387.588 136.117 368.824 159.265 368.824C182.412 368.824 201.176 387.588 201.176 410.735ZM159.265 438.069C174.361 438.069 186.598 425.831 186.598 410.735C186.598 395.639 174.361 383.402 159.265 383.402C144.169 383.402 131.931 395.639 131.931 410.735C131.931 425.831 144.169 438.069 159.265 438.069Z" fill="#CC4141"/>
<path fill-rule="evenodd" clip-rule="evenodd" d="M307.353 237.5C307.353 272.992 278.581 301.765 243.088 301.765C207.596 301.765 178.824 272.992 178.824 237.5C178.824 202.008 207.596 173.235 243.088 173.235C278.581 173.235 307.353 202.008 307.353 237.5ZM243.088 279.412C266.235 279.412 285 260.647 285 237.5C285 214.353 266.235 195.588 243.088 195.588C219.941 195.588 201.176 214.353 201.176 237.5C201.176 260.647 219.941 279.412 243.088 279.412Z" fill="#666666"/>
<path fill-rule="evenodd" clip-rule="evenodd" d="M128.529 64.2647C128.529 99.7571 99.7571 128.529 64.2647 128.529C28.7723 128.529 0 99.7571 0 64.2647C0 28.7723 28.7723 0 64.2647 0C99.7571 0 128.529 28.7723 128.529 64.2647ZM64.2647 106.176C87.4119 106.176 106.176 87.4119 106.176 64.2647C106.176 41.1175 87.4119 22.3529 64.2647 22.3529C41.1175 22.3529 22.3529 41.1175 22.3529 64.2647C22.3529 87.4119 41.1175 106.176 64.2647 106.176Z" fill="#CC4141"/>
</svg>
