<svg width="480" height="480" viewBox="0 0 480 480" fill="none" xmlns="http://www.w3.org/2000/svg">
<path d="M240.543 475.443C111.015 475.443 5.63354 370.068 5.63354 240.54C5.63354 111.011 111.015 5.63354 240.543 5.63354C370.072 5.63354 475.446 111.015 475.446 240.543C475.446 370.072 370.068 475.443 240.543 475.443Z" fill="#696F57"/>
<path d="M240 10.1873C366.921 10.1873 469.813 113.079 469.813 240C469.813 366.921 366.921 469.813 240 469.813C113.079 469.813 10.1873 366.921 10.1873 240C10.1873 113.079 113.079 10.1873 240 10.1873ZM240 0C107.663 0 0 107.663 0 240C0 372.337 107.663 480 240 480C372.337 480 480 372.337 480 240C480 107.663 372.333 0 240 0Z" fill="#F0F5F0"/>
<path d="M239.86 37.557C128.133 37.557 37.557 128.133 37.557 239.86C37.557 351.588 128.129 442.164 239.86 442.164C258.615 442.16 277.278 439.549 295.314 434.405C297.871 440.334 303.137 445.838 314.092 443.183C331.373 438.996 340.359 425.165 345.024 412.706C403.272 377.192 442.164 313.07 442.164 239.86C442.161 128.133 351.588 37.557 239.86 37.557ZM351.096 354.95C344.722 302.224 301.667 266.524 254.16 259.872C278.837 284.518 321.899 321.39 319.4 365.888C319.11 371.299 317.738 376.596 315.366 381.468C290.276 395.399 262.045 402.693 233.347 402.657C139.841 402.657 64.0406 326.857 64.0406 233.351C64.0406 139.848 139.841 64.0474 233.347 64.0474C326.857 64.0474 402.654 139.848 402.654 233.351C402.657 281.085 382.874 324.171 351.096 354.95ZM113.487 310.839C170.203 344.834 238.054 316.041 246.007 263.947C195.206 222.82 126.771 257.705 113.487 310.839ZM241.929 235.405C250.123 156.531 215.75 120.231 144.066 121.232C130.089 197.821 177.395 230.553 241.929 235.405ZM352.023 141.621C289.772 145.971 249.552 172.352 258.238 247.637C326.789 249.589 359.864 216.063 352.023 141.621Z" fill="#F0F5F0"/>
</svg>
