<svg width="480" height="480" viewBox="0 0 480 480" fill="none" xmlns="http://www.w3.org/2000/svg">
<path d="M240 480C372.548 480 480 372.548 480 240C480 107.452 372.548 0 240 0C107.452 0 0 107.452 0 240C0 372.548 107.452 480 240 480Z" fill="#F05A22"/>
<path d="M240 208C247.455 207.947 254.698 210.481 260.494 215.17C266.29 219.859 270.281 226.412 271.787 233.713C273.293 241.015 272.221 248.613 268.753 255.212C265.285 261.812 259.637 267.005 252.769 269.906C245.902 272.808 238.241 273.239 231.092 271.125C223.943 269.012 217.748 264.485 213.562 258.316C209.376 252.146 207.459 244.717 208.137 237.293C208.815 229.868 212.046 222.909 217.28 217.6C220.244 214.576 223.778 212.171 227.678 210.523C231.578 208.875 235.766 208.018 240 208Z" fill="white"/>
<path d="M322.624 217.92H391.744C392.362 217.927 392.959 218.141 393.44 218.528C393.919 218.911 394.239 219.458 394.336 220.064C396.032 228.768 400.448 262.08 372.448 262.08H323.072C295.872 262.08 295.264 217.92 322.752 217.92" fill="white"/>
<path d="M157.376 262.08H88.2561C87.6385 262.073 87.0412 261.859 86.5601 261.472C86.1015 261.072 85.7868 260.532 85.6641 259.936C83.9681 251.232 79.5201 217.92 107.552 217.92H157.056C184.256 217.92 184.864 262.08 157.376 262.08Z" fill="white"/>
<path d="M282.816 165.952L331.712 117.056C332.15 116.642 332.712 116.383 333.312 116.32C333.923 116.257 334.536 116.416 335.04 116.768C342.464 121.792 369.088 142.112 349.248 161.952L314.272 196.928C295.072 216.128 263.392 185.312 282.816 165.952Z" fill="white"/>
<path d="M197.184 314.048L148.288 362.912C147.865 363.353 147.297 363.626 146.688 363.68C146.077 363.743 145.464 363.584 144.96 363.232C137.536 358.176 110.912 337.856 130.752 318.048L165.728 283.04C184.992 263.808 216.608 294.656 197.184 314.048Z" fill="white"/>
<path d="M217.856 157.376V88.224C217.862 87.6161 218.077 87.0287 218.464 86.56C218.847 86.0805 219.394 85.761 220 85.664C228.704 84 262.016 79.52 262.016 107.584V156.8C262.016 184 217.856 184.608 217.856 157.12" fill="white"/>
<path d="M262.08 322.624V391.776C262.074 392.384 261.859 392.971 261.472 393.44C261.072 393.899 260.532 394.213 259.936 394.336C251.232 396 217.92 400.448 217.92 372.416V322.912C217.856 295.744 262.08 295.104 262.08 322.624Z" fill="white"/>
<path d="M165.984 197.184L117.088 148.288C116.652 147.862 116.38 147.295 116.32 146.688C116.257 146.077 116.416 145.464 116.768 144.96C121.824 137.536 142.144 110.944 161.952 130.752L196.96 165.76C216.16 184.96 185.344 216.64 165.984 197.184Z" fill="white"/>
<path d="M314.016 282.816L362.912 331.68C363.348 332.119 363.62 332.696 363.68 333.312C363.743 333.923 363.584 334.536 363.232 335.04C358.176 342.464 337.856 369.056 318.016 349.248L283.04 314.24C263.84 295.04 294.656 263.36 314.016 282.816Z" fill="white"/>
</svg>
