<svg width="482" height="390" viewBox="0 0 482 390" fill="none" xmlns="http://www.w3.org/2000/svg">
<path d="M384.229 240.833H17.5625C8.075 240.833 0.375 233.133 0.375 223.646V17.3958C0.375 7.89688 8.075 0.208336 17.5625 0.208336H338.396C347.883 0.208336 355.583 7.89688 355.583 17.3958V80.4167H321.208V34.5833H34.75V206.458H384.229V240.833Z" fill="#1976D2"/>
<path d="M189.437 160.625C211.586 160.625 229.542 142.67 229.542 120.521C229.542 98.3719 211.586 80.4167 189.437 80.4167C167.289 80.4167 149.333 98.3719 149.333 120.521C149.333 142.67 167.289 160.625 189.437 160.625Z" fill="#1976D2"/>
<path d="M367.042 183.542V263.75L424.333 223.646L367.042 183.542Z" fill="#1976D2"/>
<path d="M218.083 252.292H160.792C160.792 271.278 145.403 286.667 126.417 286.667H92.0417V321.042H286.833V286.667H252.458C233.472 286.667 218.083 271.278 218.083 252.292Z" fill="#1976D2"/>
<path d="M218.083 229.375H160.792V252.292H218.083V229.375Z" fill="#1976D2"/>
<path d="M309.75 332.5V372.604C309.75 382.092 317.45 389.792 326.938 389.792H464.438C473.925 389.792 481.625 382.092 481.625 372.604V332.5H309.75ZM412.875 366.875H378.5V355.417H412.875V366.875Z" fill="#1976D2"/>
<path d="M464.437 103.333H200.896V137.708H447.25V332.5H344.125V263.75H309.75V349.687C309.75 359.175 317.45 366.875 326.937 366.875H378.5V355.417H412.875V366.875H464.437C473.925 366.875 481.625 359.175 481.625 349.687V120.521C481.625 111.022 473.925 103.333 464.437 103.333Z" fill="#1976D2"/>
</svg>
