<svg width="550" height="550" viewBox="0 0 550 550" fill="none" xmlns="http://www.w3.org/2000/svg">
<path d="M418.229 320.833H51.5625C42.075 320.833 34.375 313.133 34.375 303.646V97.3958C34.375 87.8969 42.075 80.2083 51.5625 80.2083H372.396C381.883 80.2083 389.583 87.8969 389.583 97.3958V160.417H355.208V114.583H68.75V286.458H418.229V320.833Z" fill="#1976D2"/>
<path d="M223.437 240.625C245.586 240.625 263.542 222.67 263.542 200.521C263.542 178.372 245.586 160.417 223.437 160.417C201.289 160.417 183.333 178.372 183.333 200.521C183.333 222.67 201.289 240.625 223.437 240.625Z" fill="#1976D2"/>
<path d="M401.042 263.542V343.75L458.333 303.646L401.042 263.542Z" fill="#1976D2"/>
<path d="M252.083 332.292H194.792C194.792 351.278 179.403 366.667 160.417 366.667H126.042V401.042H320.833V366.667H286.458C267.472 366.667 252.083 351.278 252.083 332.292Z" fill="#1976D2"/>
<path d="M252.083 309.375H194.792V332.292H252.083V309.375Z" fill="#1976D2"/>
<path d="M343.75 412.5V452.604C343.75 462.092 351.45 469.792 360.937 469.792H498.437C507.925 469.792 515.625 462.092 515.625 452.604V412.5H343.75ZM446.875 446.875H412.5V435.417H446.875V446.875Z" fill="#1976D2"/>
<path d="M498.437 183.333H234.896V217.708H481.25V412.5H378.125V343.75H343.75V429.687C343.75 439.175 351.45 446.875 360.937 446.875H412.5V435.417H446.875V446.875H498.437C507.925 446.875 515.625 439.175 515.625 429.687V200.521C515.625 191.022 507.925 183.333 498.437 183.333Z" fill="#1976D2"/>
</svg>
