<svg width="600" height="600" viewBox="0 0 600 600" fill="none" xmlns="http://www.w3.org/2000/svg">
<rect width="600" height="600" fill="#1E1E1E"/>
<rect width="600" height="600" fill="white"/>
<path d="M78.675 350.725C67.125 357.1 60 369.175 60 382.3V451C60 470.875 76.125 487 96 487H156V308.2L78.675 350.725ZM504 487C523.875 487 540 470.875 540 451V382.3C540 369.175 532.875 357.1 521.325 350.725L444 308.2V487H504Z" fill="#CC4141"/>
<g clip-path="url(#clip0_0_1)">
<path d="M301.5 105.5C285.5 105.5 300 98 300 98C280 98 299.5 98 280 98L205.5 122C188.5 122 280 103 280 144C263 144 280 185 280 144V180L280 209.8L195.475 260.5C184.6 267.025 178 278.725 178 291.4V487H250V415C250 388.525 271.525 367 298 367C324.475 367 346 388.525 346 415V487H418V291.4C418 278.725 411.4 267.025 400.525 260.5L316 209.8V180L468.5 150C490 150 521 181.5 521 140C521 98.5 501 113 480 113L301.5 105.5Z" fill="#333333"/>
</g>
<rect x="60" y="80" width="480" height="100" rx="36" fill="#333333"/>
<path d="M112.99 151V107.364H141.882V114.97H122.216V125.368H139.964V132.974H122.216V151H112.99ZM200.187 129.182C200.187 133.94 199.285 137.989 197.481 141.327C195.691 144.665 193.248 147.214 190.151 148.976C187.069 150.723 183.603 151.597 179.754 151.597C175.876 151.597 172.396 150.716 169.313 148.955C166.231 147.193 163.795 144.643 162.005 141.305C160.215 137.967 159.32 133.926 159.32 129.182C159.32 124.423 160.215 120.375 162.005 117.037C163.795 113.699 166.231 111.156 169.313 109.409C172.396 107.648 175.876 106.767 179.754 106.767C183.603 106.767 187.069 107.648 190.151 109.409C193.248 111.156 195.691 113.699 197.481 117.037C199.285 120.375 200.187 124.423 200.187 129.182ZM190.833 129.182C190.833 126.099 190.372 123.5 189.448 121.384C188.539 119.267 187.254 117.662 185.592 116.568C183.93 115.474 181.984 114.928 179.754 114.928C177.524 114.928 175.578 115.474 173.916 116.568C172.254 117.662 170.961 119.267 170.038 121.384C169.129 123.5 168.674 126.099 168.674 129.182C168.674 132.264 169.129 134.864 170.038 136.98C170.961 139.097 172.254 140.702 173.916 141.795C175.578 142.889 177.524 143.436 179.754 143.436C181.984 143.436 183.93 142.889 185.592 141.795C187.254 140.702 188.539 139.097 189.448 136.98C190.372 134.864 190.833 132.264 190.833 129.182ZM219.021 151V107.364H236.237C239.532 107.364 242.345 107.953 244.675 109.132C247.018 110.297 248.801 111.952 250.023 114.097C251.258 116.227 251.876 118.734 251.876 121.618C251.876 124.516 251.251 127.009 250.001 129.097C248.751 131.17 246.94 132.761 244.568 133.869C242.21 134.977 239.355 135.531 236.003 135.531H224.476V128.116H234.511C236.273 128.116 237.736 127.875 238.9 127.392C240.065 126.909 240.932 126.185 241.5 125.219C242.082 124.253 242.373 123.053 242.373 121.618C242.373 120.169 242.082 118.947 241.5 117.953C240.932 116.959 240.058 116.206 238.879 115.695C237.714 115.169 236.244 114.906 234.469 114.906H228.247V151H219.021ZM242.586 131.142L253.432 151H243.247L232.636 131.142H242.586ZM296.283 151V107.364H313.499C316.794 107.364 319.607 107.953 321.936 109.132C324.28 110.297 326.063 111.952 327.284 114.097C328.52 116.227 329.138 118.734 329.138 121.618C329.138 124.516 328.513 127.009 327.263 129.097C326.013 131.17 324.202 132.761 321.83 133.869C319.472 134.977 316.617 135.531 313.264 135.531H301.737V128.116H311.773C313.534 128.116 314.997 127.875 316.162 127.392C317.327 126.909 318.193 126.185 318.762 125.219C319.344 124.253 319.635 123.053 319.635 121.618C319.635 120.169 319.344 118.947 318.762 117.953C318.193 116.959 317.32 116.206 316.141 115.695C314.976 115.169 313.506 114.906 311.73 114.906H305.509V151H296.283ZM319.848 131.142L330.693 151H320.509L309.898 131.142H319.848ZM347.658 151V107.364H377.061V114.97H356.884V125.368H375.548V132.974H356.884V143.393H377.146V151H347.658ZM432.895 107.364V151H424.926L405.942 123.536H405.622V151H396.396V107.364H404.493L423.328 134.807H423.711V107.364H432.895ZM450.855 114.97V107.364H486.693V114.97H473.334V151H464.215V114.97H450.855Z" fill="white"/>
<defs>
<clipPath id="clip0_0_1">
<rect width="480" height="384" fill="white" transform="translate(60 103)"/>
</clipPath>
</defs>
</svg>
