<svg width="293" height="480" viewBox="0 0 293 480" fill="none" xmlns="http://www.w3.org/2000/svg">
<path d="M89.9634 0C89.9634 0 161.421 62.4793 151.711 117.859C147.388 142.5 114.666 183.22 132.291 221.852C151.376 263.553 161.254 343.887 75.4298 323.088C-9.22464 302.624 -2.62603 198.944 60.2696 144.233C124.042 88.749 102.513 27.7106 89.9634 0Z" fill="#D30035"/>
<path d="M155.219 187.354C150.479 229.536 197.128 271.551 160.105 328.643C134.421 368.194 173.803 423.761 224.379 413.633C279.841 402.545 293.56 367.484 292.077 326.763C290.135 275.059 269.567 260.692 223.794 221.873C174.305 179.858 212.56 100.568 212.56 100.568C212.56 100.568 160.523 140.954 155.219 187.354Z" fill="#D30035"/>
<path d="M4.55728 310.768C20.2186 330.021 50.497 352.699 108.465 353.994C126.005 354.328 112.307 387.05 147.388 416.494C177.729 442.033 218.595 442.597 240.458 434.348C253.196 429.629 265.161 425.056 255.952 436.896C214.752 489.665 143.212 486.324 92.156 467.237C31.4738 444.56 16.2093 399.934 6.26958 372.119C-4.42185 341.945 1.04915 306.445 4.55728 310.768Z" fill="#D30035"/>
</svg>
