<svg width="480" height="363" viewBox="0 0 480 363" fill="none" xmlns="http://www.w3.org/2000/svg">
<g clip-path="url(#clip0_56_33)">
<path d="M281.3 1.07465C335.18 1.05593 389.062 0.8921 442.941 1.11911C474.972 1.25018 484.003 11.948 477.098 43.5662C456.877 136.165 436.202 228.67 415.249 321.107C408.622 350.324 393.398 362.293 362.648 362.384C254.886 362.705 147.125 362.74 39.3664 362.37C4.14375 362.246 -5.12141 350.322 2.46727 316.958C23.0581 226.346 43.759 135.762 64.6261 45.2138C72.5754 10.7076 84.5215 1.23379 119.655 1.13316C173.537 0.981034 227.419 1.09337 281.3 1.07465Z" fill="#E0EAF5"/>
<path d="M199.876 351.616C145.99 351.597 92.1009 351.845 38.2168 351.492C10.8919 351.314 5.92329 344.869 12.0743 318.156C32.9274 227.561 54.4525 137.117 74.8419 46.4191C80.3092 22.0934 92.1032 11.3418 118.178 11.5829C225.941 12.5822 333.724 11.9035 441.494 12.0135C468.522 12.0392 473.059 17.8176 466.993 45.2162C447.294 134.166 427.471 223.091 407.299 311.935C399.75 345.185 391.054 351.529 356.056 351.607C303.996 351.717 251.934 351.635 199.876 351.616Z" fill="#2671BE"/>
<path d="M245.729 174.072C242.116 169.836 238.15 164.958 233.949 160.296C210.129 133.85 186.52 107.208 162.277 81.1571C151.183 69.2353 147.647 57.6575 160.97 45.8902C174.136 34.2586 187.073 35.2884 199.15 48.6706C232.785 85.9267 266.381 123.225 300.573 159.969C313.339 173.693 310.365 183.024 296.305 193.192C242.336 232.237 188.672 271.704 135.067 311.247C123.018 320.138 111.53 322.364 101.797 309.232C91.0589 294.748 100.994 286.13 112.132 278.023C151.967 249.022 191.725 219.912 231.313 190.574C236.827 186.487 244.743 184.105 245.729 174.072Z" fill="#FDFDFE"/>
<path d="M262.791 314.184C248.283 314.184 233.755 314.683 219.28 314.025C207.732 313.503 200.782 307.053 200.927 294.895C201.068 283.399 206.865 274.756 218.402 274.445C250.11 273.596 281.865 273.778 313.585 274.398C323.665 274.595 331.106 281.16 331.045 291.658C330.972 303.702 324.632 313.033 311.728 313.81C295.469 314.793 279.109 314.053 262.794 314.053C262.791 314.093 262.791 314.14 262.791 314.184Z" fill="#FCFDFD"/>
</g>
<defs>
<clipPath id="clip0_56_33">
<rect width="480" height="362.756" fill="white"/>
</clipPath>
</defs>
</svg>
