<svg width="480" height="480" viewBox="0 0 480 480" fill="none" xmlns="http://www.w3.org/2000/svg">
<path d="M3.31259e-05 239.695C0.137851 107.144 107.764 -0.167155 240.335 0.00019547C372.905 0.167546 480.177 107.764 480 240.315C479.823 372.866 372.433 480 240 480C107.38 479.931 -0.0688758 372.354 3.31259e-05 239.734V239.695ZM235.137 321.874C216.518 322.418 197.9 320.749 179.675 316.902C173.048 315.552 166.839 312.636 161.568 308.397C156.297 304.159 152.117 298.721 149.375 292.538C143.947 280.023 141.322 260.722 141.5 234.635C141.599 221.003 142.453 207.388 144.059 193.851C145.621 180.666 147.183 169.802 148.745 161.257L150.389 152.761C150.409 152.512 150.409 152.262 150.389 152.013C150.385 150.866 149.981 149.756 149.245 148.875C148.51 147.995 147.491 147.398 146.363 147.19L115.403 142.366H114.733C113.638 142.377 112.578 142.752 111.72 143.433C110.863 144.115 110.257 145.062 109.998 146.126C109.467 148.095 109.162 149.582 108.236 154.307C106.464 163.423 104.83 172.312 103.009 185.277C101.1 199.358 99.9366 213.53 99.5242 227.734C98.8449 237.629 98.8449 247.559 99.5242 257.454C100.253 283.705 104.761 304.686 113.05 320.397C121.339 336.108 135.377 347.403 155.163 354.281C174.95 361.178 202.513 364.555 237.854 364.41H242.303C277.683 364.555 305.247 361.178 324.994 354.281C344.741 347.383 358.779 336.089 367.107 320.397C375.396 304.686 379.908 283.705 380.643 257.454C381.312 247.559 381.312 237.629 380.643 227.734C380.227 213.53 379.061 199.358 377.148 185.277C375.337 172.479 373.693 163.619 371.931 154.307C370.947 149.582 370.691 148.115 370.159 146.126C369.91 145.057 369.307 144.104 368.447 143.421C367.587 142.738 366.522 142.366 365.424 142.366H364.627L333.667 147.19C332.526 147.379 331.491 147.969 330.746 148.853C330.001 149.737 329.595 150.857 329.601 152.013C329.581 152.262 329.581 152.512 329.601 152.761L331.235 161.257C332.797 169.828 334.376 180.692 335.97 193.851C337.553 207.389 338.394 221.004 338.49 234.635C338.753 260.676 336.128 279.961 330.615 292.489C327.896 298.663 323.742 304.099 318.499 308.345C313.257 312.591 307.077 315.525 300.472 316.902C282.262 320.759 263.657 322.437 245.05 321.903L235.137 321.874Z" fill="#3544B1"/>
</svg>
