<svg width="480" height="453" viewBox="0 0 480 453" fill="none" xmlns="http://www.w3.org/2000/svg">
<path d="M160.019 0.00545457H302.055L154.607 436.877C153.092 441.366 150.207 445.267 146.358 448.031C142.509 450.794 137.891 452.281 133.153 452.282H22.6135C19.0236 452.282 15.4852 451.428 12.291 449.79C9.09688 448.151 6.33875 445.776 4.24482 442.86C2.1509 439.944 0.781362 436.571 0.249519 433.021C-0.282324 429.471 0.0388131 425.845 1.18636 422.443L138.559 15.4103C140.074 10.9192 142.959 7.01656 146.809 4.25199C150.659 1.48742 155.279 0.00571847 160.019 0.00545457Z" fill="url(#paint0_linear_26_118)"/>
<path d="M366.418 293.03H141.183C139.089 293.027 137.042 293.656 135.311 294.833C133.579 296.01 132.242 297.682 131.473 299.63C130.705 301.578 130.541 303.712 131.004 305.754C131.466 307.797 132.532 309.653 134.064 311.08L278.795 446.167C283.009 450.098 288.557 452.283 294.32 452.282H421.857L366.418 293.03Z" fill="#0078D4"/>
<path d="M160.019 0.0054603C155.227 -0.0129267 150.555 1.5012 146.686 4.32666C142.816 7.15213 139.951 11.1409 138.51 15.7103L1.35546 422.072C0.130709 425.486 -0.253799 429.145 0.234464 432.739C0.722728 436.333 2.0694 439.756 4.16055 442.719C6.25171 445.683 9.02583 448.099 12.2482 449.763C15.4707 451.428 19.0466 452.292 22.6735 452.282H136.066C140.289 451.527 144.236 449.665 147.504 446.886C150.772 444.107 153.244 440.51 154.667 436.463L182.018 355.855L279.717 446.98C283.811 450.366 288.947 452.239 294.26 452.282H421.322L365.594 293.03L203.14 293.068L302.568 0.0054603H160.019Z" fill="url(#paint1_linear_26_118)"/>
<path d="M341.434 15.3885C339.922 10.9047 337.04 7.00846 333.196 4.24875C329.352 1.48904 324.739 0.00491288 320.007 0.0054628H161.71C166.441 0.00573243 171.054 1.49017 174.898 4.24977C178.742 7.00937 181.623 10.9051 183.137 15.3885L320.514 422.438C321.663 425.84 321.985 429.467 321.453 433.018C320.922 436.569 319.553 439.943 317.459 442.86C315.365 445.777 312.607 448.153 309.412 449.793C306.217 451.432 302.678 452.287 299.087 452.287H457.39C460.981 452.286 464.519 451.431 467.713 449.791C470.907 448.151 473.665 445.774 475.758 442.858C477.851 439.941 479.22 436.567 479.751 433.017C480.282 429.466 479.96 425.84 478.812 422.438L341.434 15.3885Z" fill="url(#paint2_linear_26_118)"/>
<defs>
<linearGradient id="paint0_linear_26_118" x1="211.786" y1="33.5208" x2="64.2785" y2="469.296" gradientUnits="userSpaceOnUse">
<stop stop-color="#114A8B"/>
<stop offset="1" stop-color="#0669BC"/>
</linearGradient>
<linearGradient id="paint1_linear_26_118" x1="257.864" y1="236.604" x2="223.743" y2="248.141" gradientUnits="userSpaceOnUse">
<stop stop-opacity="0.3"/>
<stop offset="0.071" stop-opacity="0.2"/>
<stop offset="0.321" stop-opacity="0.1"/>
<stop offset="0.623" stop-opacity="0.05"/>
<stop offset="1" stop-opacity="0"/>
</linearGradient>
<linearGradient id="paint2_linear_26_118" x1="239.099" y1="20.8107" x2="401.019" y2="452.195" gradientUnits="userSpaceOnUse">
<stop stop-color="#3CCBF4"/>
<stop offset="1" stop-color="#2892DF"/>
</linearGradient>
</defs>
</svg>
