<svg width="477" height="480" viewBox="0 0 477 480" fill="none" xmlns="http://www.w3.org/2000/svg">
<path fill-rule="evenodd" clip-rule="evenodd" d="M226.991 350.153C245.631 347.724 263.629 342.023 279.94 332.888C320.231 310.294 343.498 271.458 345.476 223.528L345.646 219.383H401.405C397.975 191.671 387.6 165.275 371.242 142.645L314.198 179.543C331.563 206.956 333.792 237.34 320.622 267.694C305.004 303.649 268.216 335.147 226.991 350.153Z" fill="#EE3524"/>
<path fill-rule="evenodd" clip-rule="evenodd" d="M402.248 228.035H353.827C350.565 276.517 325.32 317.34 284.115 340.447C260.597 353.626 233.827 360.191 206.494 360.191C184.851 360.133 163.399 356.136 143.187 348.397C167.96 363.975 195.804 372.497 224.652 372.587H225.094C277.179 372.587 323.935 344.813 350.233 298.238L352.462 294.304L384.863 315.001C396.625 291.755 402.743 266.063 402.72 240.01C402.72 235.975 402.519 231.99 402.248 228.035Z" fill="#EE3524"/>
<path fill-rule="evenodd" clip-rule="evenodd" d="M225.094 381.23H224.632C172.738 381.079 123.975 355.192 89.2748 310.615C115.644 366.846 172.447 405.862 238.153 405.862C299.061 405.862 352.301 372.316 380.758 322.62L355.423 306.439C327.197 353.385 278.836 381.23 225.094 381.23Z" fill="#EE3524"/>
<path fill-rule="evenodd" clip-rule="evenodd" d="M238.153 0C106.62 0 0 107.453 0 240C0 372.547 106.62 480 238.153 480C369.676 480 476.296 372.557 476.296 240C476.296 107.443 369.686 0 238.153 0ZM238.153 414.514C142.514 414.514 64.9837 336.381 64.9837 240C64.9837 143.629 142.514 65.4956 238.153 65.4956C333.782 65.4956 411.302 143.629 411.302 240C411.302 336.381 333.782 414.514 238.153 414.514Z" fill="#EE3524"/>
</svg>
