<svg width="448" height="479" viewBox="0 0 448 479" fill="none" xmlns="http://www.w3.org/2000/svg">
<path d="M448 135.668V375.519C447.6 381.535 444.397 386.75 439.593 389.958L431.585 394.771L371.932 429.265L331.496 452.929L323.088 457.742V198.639L98.8883 69.0875L205.383 7.72093L214.992 2.10571C220.197 -0.701905 226.602 -0.701905 231.807 2.10571L379.139 87.5376L447.199 126.844L448 135.668ZM273.845 226.715L227.803 200.243L120.508 138.075C115.303 135.267 108.897 135.267 103.693 138.075L8.40751 193.425L0 198.238L161.744 291.692V479L257.029 424.051L265.437 419.238C270.241 416.029 273.444 410.815 273.845 404.799V226.715ZM0 385.145L112.1 449.72V320.169L0 385.145Z" fill="#5CE500"/>
</svg>
