<svg width="769" height="170" viewBox="0 0 769 170" fill="none" xmlns="http://www.w3.org/2000/svg">
<path d="M-3.78906 90.1795C0.161537 99.3449 22.4745 117.865 80.1217 118.624C152.181 119.572 201.01 90.1795 255.054 96.8166C309.098 103.454 372.15 157.972 502.994 144.698C633.838 131.424 674.71 42.3924 707.793 26.6539C732.208 15.0391 759.941 28.5502 768 32.8168" stroke="#F5F5F5" stroke-width="4"/>
<path d="M-3.78906 110.902C0.161537 120.068 22.4745 138.588 80.1217 139.347C152.181 140.295 201.01 110.902 255.054 117.539C309.098 124.176 372.15 178.695 502.994 165.421C633.838 152.146 674.71 63.115 707.793 47.3766C732.208 35.7618 759.941 49.2728 768 53.5395" stroke="#F5F5F5" stroke-width="4"/>
<path d="M-3.78906 70.6063C0.161537 79.7717 22.4745 98.2921 80.1217 99.0506C152.181 99.9988 201.01 70.6063 255.054 77.2433C309.098 83.8803 372.15 138.399 502.994 125.125C633.838 111.851 674.71 22.8191 707.793 7.08066C732.208 -4.53414 759.941 8.97695 768 13.2436" stroke="#F5F5F5" stroke-width="4"/>
</svg>
