<?xml version="1.0" encoding="utf-8"?>
<!-- Generator: Adobe Illustrator 22.0.0, SVG Export Plug-In . SVG Version: 6.00 Build 0)  -->
<svg version="1.1" id="Layer_1" xmlns="http://www.w3.org/2000/svg" xmlns:xlink="http://www.w3.org/1999/xlink" x="0px" y="0px"
	 viewBox="0 0 321.2 320.9" style="enable-background:new 0 0 321.2 320.9;" xml:space="preserve">
<style type="text/css">
	.st0{fill:#FFFFFF;}
</style>
<title>content pack and dashboard built in</title>
<path class="st0" d="M214.4,171.1V193c7.8,1,15.6,1.5,23.2,2.9c15.4,2.9,26.8,11.5,34.3,25.2c2.8,5,0.4,8.8-5.4,8.8H130.1
	c-6.2,0-8.5-3.8-5.4-9.3c8.6-15.1,21.6-23.6,38.8-25.5c6.1-0.7,12.1-1.4,18.4-2.1v-21.5c-1-0.8-2.3-0.4-3.4-0.4
	c-25.1,0-50.1,0-75.2,0c-16.6,0-28.2-11.5-28.2-28.1c0-38.3,0-76.7,0-115C75.1,11.4,86.6,0,103.3,0h189.2
	c17.5,0,28.7,11.1,28.7,28.5c0,38.3,0,76.7,0,115c0,16-11.6,27.6-27.6,27.6c-24.9,0-49.7,0-74.5,0L214.4,171.1z M310.5,138.9v-3.2
	c0-36.2,0-72.4,0-108.6c0-9.6-7-16.4-16.8-16.4c-63.5,0-127,0-190.4,0c-1.4,0-2.9,0.1-4.3,0.3c-7.8,1.6-13,8-13,16.3
	c0,36.4,0,72.8,0,109.3c0,0.7-0.2,1.6,0.5,2.4L310.5,138.9z M87.1,149.9c2.6,7,8.1,10.6,15.8,10.6h128.7c20.8,0,41.7,0,62.5,0
	c7.3,0,13.6-4.5,14.8-10.5L87.1,149.9z M138.7,219.1h118.5c-4.5-5.8-10.9-10-18-11.7c-11-2.6-22.2-3.4-33.4-4
	c-14.4-0.9-28.7,0.9-42.9,2.8C153.4,207.2,145.5,211.4,138.7,219.1L138.7,219.1z M203.4,171.4H193v20.9h10.4V171.4z"/>
<path class="st0" d="M89.8,246.8c6.3,1.6,11.9,3.7,16.9,7.1c14.1,9.7,21.6,23,21.9,40.2c0.1,6.8,0,13.6,0,20.4
	c0,4.4-1.9,6.4-6.3,6.4c-38.7,0-77.3,0-116,0c-3.4,0-6-1.6-6-4.5c0-10.7-1.4-21.5,1-32c4.3-19,16.3-31.2,34.9-36.8
	c0.7-0.2,1.5-0.4,2.8-0.7c-9.9-10.1-14-21.8-11.1-35.5c1.8-8.8,6.9-16.7,14.1-22c14.5-11,34.9-9.8,48.1,2.7c7.7,7,12,17,11.8,27.4
	C101.9,230.1,97.6,239.1,89.8,246.8z M10.9,310h107c0-5.3,0-10.5,0-15.5c0.1-20.7-16.5-37.5-37.1-37.7c-0.1,0-0.2,0-0.3,0
	c-10.8-0.1-21.6-0.1-32.4,0c-18.2,0.1-33.7,13.4-36.6,31.4C10.4,295.3,11.3,302.5,10.9,310z M64.4,246c14.8,0,26.8-11.9,26.8-26.7
	c0-14.8-11.9-26.8-26.7-26.8c-14.7,0-26.7,11.9-26.8,26.6C37.7,234,49.6,246,64.4,246C64.4,246,64.4,246,64.4,246L64.4,246z"/>
<path class="st0" d="M16.1,90.8H5.9V80.4h10.2V90.8z"/>
<path class="st0" d="M37.5,90.8H27.3V80.4h10.3V90.8z"/>
<path class="st0" d="M48.7,80.3h10.2v10.4H48.7V80.3z"/>
<path class="st0" d="M16.2,101.8v10.3H5.8c-0.3-3.4-0.4-6.8-0.1-10.3H16.2z"/>
<path class="st0" d="M16.2,123.2v10.3H5.8v-10.3H16.2z"/>
<path class="st0" d="M16.2,144.6v10.3H5.8v-10.3H16.2z"/>
<path class="st0" d="M16.1,176.3H5.9V166h10.3V176.3z"/>
<path class="st0" d="M299.7,182.1v10.2h-10.4v-10.2H299.7z"/>
<path class="st0" d="M5.8,197.7v-10.3h10.3v10.3L5.8,197.7z"/>
<path class="st0" d="M299.5,213.9h-10.2v-10.4h10.2V213.9z"/>
<path class="st0" d="M16.2,208.7V219c-3.4,0.6-6.8,0.1-10.4,0.3v-10.6H16.2z"/>
<path class="st0" d="M289.3,224.8h10.3v10.3h-10.3V224.8z"/>
<path class="st0" d="M289.2,256.5v-10.2h10.4v10.2H289.2z"/>
<path class="st0" d="M299.7,267.7v10.2h-10.4v-10.2H299.7z"/>
<path class="st0" d="M149.9,299.3h-10.3V289h10.3L149.9,299.3z"/>
<path class="st0" d="M161,288.9h10.3v10.4H161V288.9z"/>
<path class="st0" d="M192.7,299.5h-10.3V289h10.2C192.9,292.5,192.9,296,192.7,299.5z"/>
<path class="st0" d="M214,299.4h-10.3V289H214V299.4z"/>
<path class="st0" d="M225,299.3V289h10.4v10.3H225z"/>
<path class="st0" d="M256.9,289v10.3h-10.4V289H256.9z"/>
<path class="st0" d="M278.2,289v10.3h-10.3V289H278.2z"/>
<path class="st0" d="M289.2,299.3V289h10.4v10.3H289.2z"/>
<path class="st0" d="M176.6,122.8h-74.5v-10.4h10.5V85.7h10.6v26.4h10.7V69.8h10.7v42.4h10.6V80.4H166v31.7h10.6V122.8z"/>
<path class="st0" d="M268.4,77.1l-22.1,26.5c-3.2,3.8-4.8,4.2-9.2,2c-5.1-2.5-10.1-5-15.5-7.7l-13.5,22.5l-9.1-5.5
	c1.9-3.1,3.6-6.2,5.5-9.2c3.3-5.4,6.5-10.9,9.8-16.3c2.5-4.2,4.6-4.8,9.1-2.6c5.3,2.6,10.6,5.3,15.9,7.9c1.4-0.6,2.1-1.9,3-3
	c6.9-8.3,13.8-16.6,20.8-24.9c2.6-3.2,5.4-3.6,8.4-1.2c10.6,8.7,21,17.5,31.9,26.5c-2.3,2.7-4.4,5.3-6.8,8.2L268.4,77.1z"/>
<path class="st0" d="M173.8,52.6c-5.7-3.8-11.2-7.3-16.5-11.1c-3-2.2-2.6-6.3,0.6-8.5c5.1-3.6,10.3-6.9,15.6-10.5
	c2.5,2.6,4,5.7,6.2,8.6l-9.3,6.3l9.2,6.2L173.8,52.6z"/>
<path class="st0" d="M222.5,52.6c-2.1-3.2-4-5.9-5.9-8.9l9.3-6.3l-9.3-6.3l5.9-8.9c5.7,3.9,11.4,7.5,16.8,11.5
	c2.6,1.9,2.2,5.9-0.5,7.8C233.6,45.3,228.2,48.8,222.5,52.6z"/>
<path class="st0" d="M204.7,23.4l8.3,6.7l-21.4,26.7l-8.4-6.6C190.4,41.3,197.4,32.4,204.7,23.4z"/>
</svg>
