<?xml version="1.0" encoding="utf-8"?>
<!-- Generator: Adobe Illustrator 22.0.0, SVG Export Plug-In . SVG Version: 6.00 Build 0)  -->
<svg version="1.1" id="Layer_1" xmlns="http://www.w3.org/2000/svg" xmlns:xlink="http://www.w3.org/1999/xlink" x="0px" y="0px"
	 viewBox="0 0 93.1 89.5" style="enable-background:new 0 0 93.1 89.5;" xml:space="preserve">
<style type="text/css">
	.st0{fill:#FFFFFF;stroke:#FFFFFF;stroke-width:5;stroke-miterlimit:10;}
	.st1{fill:#326DE6;}
	.st2{fill:#FFFFFF;}
</style>
<title>Kubernetes_Logo_Hrz_lockup_REV</title>
<g id="Layer_2_1_">
	<g id="Layer_1-2">
		<path class="st0" d="M82.3,21.3c-0.5-1.6-1.7-2.9-3.2-3.7L48.6,3c-0.8-0.4-1.7-0.5-2.5-0.5s-1.7,0-2.5,0.2L13.1,17.4
			c-1.5,0.7-2.6,2-3,3.7L2.6,54c-0.3,1.7,0.1,3.4,1.1,4.8l21.1,26.1c1.2,1.2,2.9,2,4.6,2.1H63c1.8,0.2,3.5-0.6,4.6-2.1l21.1-26.1
			c1-1.4,1.4-3.1,1.2-4.8L82.3,21.3z"/>
		<path class="st1" d="M82.3,21.3c-0.5-1.6-1.7-2.9-3.2-3.7L48.6,3c-0.8-0.4-1.7-0.5-2.5-0.5s-1.7,0-2.5,0.2L13.1,17.4
			c-1.5,0.7-2.6,2-3,3.7L2.6,54c-0.3,1.7,0.1,3.4,1.1,4.8l21.1,26.1c1.2,1.2,2.9,2,4.6,2.1H63c1.8,0.2,3.5-0.6,4.6-2.1l21.1-26.1
			c1-1.4,1.4-3.1,1.2-4.8L82.3,21.3z"/>
		<path class="st2" d="M77.6,52.7L77.6,52.7c-0.1,0-0.2,0-0.2-0.1s-0.2-0.1-0.4-0.1c-0.4-0.1-0.8-0.1-1.2-0.1c-0.2,0-0.4,0-0.6-0.1
			h-0.1c-1.1-0.1-2.3-0.3-3.4-0.6c-0.3-0.1-0.6-0.4-0.7-0.7c0.1,0,0,0,0,0l0,0l-0.8-0.2c0.4-2.9,0.2-5.9-0.4-8.8
			c-0.7-2.9-1.9-5.7-3.5-8.2l0.6-0.6l0,0v-0.1c0-0.3,0.1-0.7,0.3-0.9c0.9-0.8,1.8-1.4,2.8-2l0,0c0.2-0.1,0.4-0.2,0.6-0.3
			c0.4-0.2,0.7-0.4,1.1-0.6c0.1-0.1,0.2-0.1,0.3-0.2s0-0.1,0-0.2l0,0c0.9-0.7,1.1-1.9,0.4-2.8c-0.3-0.4-0.9-0.7-1.4-0.7
			s-1,0.2-1.4,0.5l0,0L69.5,26c-0.1,0.1-0.2,0.2-0.3,0.2c-0.3,0.3-0.6,0.6-0.8,0.9c-0.1,0.2-0.3,0.3-0.4,0.4l0,0
			c-0.7,0.8-1.6,1.6-2.5,2.2c-0.2,0.1-0.4,0.2-0.6,0.2c-0.1,0-0.3,0-0.4-0.1h-0.1l-0.8,0.5c-0.8-0.8-1.7-1.6-2.5-2.4
			c-3.7-2.9-8.3-4.7-13-5.2L48,21.9l0,0l0,0.1c-0.3-0.2-0.4-0.5-0.5-0.8c0-1.1,0-2.2,0.2-3.4v-0.1c0-0.2,0.1-0.4,0.1-0.6
			c0.1-0.4,0.1-0.8,0.2-1.2v-0.6l0,0c0.1-1-0.7-2-1.7-2.1c-0.6-0.1-1.2,0.2-1.7,0.7c-0.4,0.4-0.6,0.9-0.6,1.4l0,0v0.5
			c0,0.4,0.1,0.8,0.2,1.2c0.1,0.2,0.1,0.4,0.1,0.6v0.1c0.2,1.1,0.2,2.2,0.2,3.4c-0.1,0.3-0.2,0.6-0.5,0.8v0.2l0,0l-0.1,0.8
			c-1.1,0.1-2.2,0.3-3.4,0.5c-4.7,1-9,3.5-12.3,7L27.6,30h-0.1c-0.1,0-0.2,0.1-0.4,0.1c-0.2,0-0.4-0.1-0.6-0.2
			c-0.9-0.7-1.8-1.5-2.5-2.3l0,0c-0.1-0.2-0.3-0.3-0.4-0.4c-0.3-0.3-0.5-0.6-0.8-0.9c-0.1-0.1-0.2-0.1-0.3-0.2S22.4,26,22.4,26l0,0
			c-0.4-0.3-0.9-0.5-1.4-0.5c-0.6,0-1.1,0.2-1.4,0.7C19,27.1,19.2,28.3,20,29l0,0c0.1,0,0.1,0.1,0.1,0.1s0.2,0.2,0.3,0.2
			c0.3,0.2,0.7,0.4,1.1,0.6c0.2,0.1,0.4,0.2,0.6,0.3l0,0c1,0.6,2,1.2,2.8,2c0.2,0.2,0.4,0.6,0.3,0.9V33l0,0l0.6,0.6
			c-0.1,0.2-0.2,0.3-0.3,0.5C22.4,39,21.1,44.8,22,50.5l-0.8,0.2l0,0c0,0.1-0.1,0.1-0.1,0.1c-0.1,0.3-0.4,0.5-0.7,0.7
			c-1.1,0.3-2.2,0.5-3.4,0.6l0,0c-0.2,0-0.4,0-0.6,0.1c-0.4,0-0.8,0.1-1.2,0.1c-0.1,0-0.2,0.1-0.4,0.1c-0.1,0-0.1,0-0.2,0.1l0,0
			c-1.1,0.2-1.8,1.2-1.6,2.3l0,0c0.2,0.9,1.1,1.5,2,1.4c0.2,0,0.3,0,0.5-0.1l0,0c0.1,0,0.1,0,0.1-0.1s0.3,0,0.4,0
			c0.4-0.1,0.8-0.3,1.1-0.4c0.2-0.1,0.4-0.2,0.6-0.2h0.1c1.1-0.4,2.1-0.7,3.3-0.9h0.1c0.3,0,0.6,0.1,0.8,0.3c0.1,0,0.1,0.1,0.1,0.1
			l0,0l0.9-0.1c1.5,4.6,4.3,8.7,8.2,11.7c0.9,0.7,1.7,1.3,2.7,1.8L33.4,69l0,0c0,0.1,0.1,0.1,0.1,0.1c0.2,0.3,0.2,0.7,0.1,1
			c-0.4,1-1,2-1.6,2.9v0.1c-0.1,0.2-0.2,0.3-0.4,0.5s-0.4,0.6-0.7,1c-0.1,0.1-0.1,0.2-0.2,0.3c0,0,0,0.1-0.1,0.1l0,0
			c-0.5,1-0.1,2.2,0.8,2.7c0.2,0.1,0.5,0.2,0.7,0.2c0.8,0,1.5-0.5,1.9-1.2l0,0c0,0,0-0.1,0.1-0.1c0-0.1,0.1-0.2,0.2-0.3
			c0.1-0.4,0.3-0.7,0.4-1.1l0.2-0.6l0,0c0.3-1.1,0.8-2.1,1.3-3.1c0.2-0.3,0.5-0.5,0.8-0.6c0.1,0,0.1,0,0.1-0.1l0,0l0.4-0.8
			c2.8,1.1,5.7,1.6,8.7,1.6c1.8,0,3.6-0.2,5.4-0.7c1.1-0.2,2.2-0.6,3.2-0.9l0.4,0.7l0,0c0.1,0,0.1,0,0.1,0.1
			c0.3,0.1,0.6,0.3,0.8,0.6c0.5,1,1,2,1.3,3.1v0.1l0.2,0.6c0.1,0.4,0.2,0.8,0.4,1.1c0.1,0.1,0.1,0.2,0.2,0.3c0,0,0,0.1,0.1,0.1l0,0
			c0.4,0.7,1.1,1.2,1.9,1.2c0.3,0,0.5-0.1,0.8-0.2c0.4-0.2,0.8-0.6,0.9-1.1c0.1-0.5,0.1-1-0.1-1.5l0,0c0-0.1-0.1-0.1-0.1-0.1
			c0-0.1-0.1-0.2-0.2-0.3c-0.2-0.4-0.4-0.7-0.7-1c-0.1-0.2-0.2-0.3-0.4-0.5V73c-0.7-0.9-1.2-1.9-1.6-2.9c-0.1-0.3-0.1-0.7,0.1-1
			C58.9,69,59,69,59,69l0,0l-0.3-0.8c5.1-3.1,9-7.9,10.8-13.6l0.8,0.1l0,0c0.1,0,0.1-0.1,0.1-0.1c0.2-0.2,0.5-0.3,0.8-0.3h0.1
			c1.1,0.2,2.2,0.5,3.2,0.9h0.1c0.2,0.1,0.4,0.2,0.6,0.2c0.4,0.2,0.7,0.4,1.1,0.5c0.1,0,0.2,0.1,0.4,0.1c0.1,0,0.1,0,0.2,0.1l0,0
			c0.2,0.1,0.3,0.1,0.5,0.1c0.9,0,1.7-0.6,2-1.4C79.3,53.7,78.5,52.9,77.6,52.7z M48.7,49.6L46,50.9l-2.7-1.3l-0.7-2.9l1.9-2.4h3
			l1.9,2.4L48.7,49.6z M65,43.1c0.5,2.1,0.6,4.2,0.4,6.3l-9.5-2.7l0,0c-0.9-0.2-1.4-1.1-1.2-2c0.1-0.3,0.2-0.5,0.4-0.7l7.5-6.8
			C63.7,39,64.5,41,65,43.1z M59.6,33.5l-8.2,5.8c-0.7,0.4-1.7,0.3-2.2-0.4c-0.2-0.2-0.3-0.4-0.3-0.7l-0.6-10.1
			C52.7,28.6,56.6,30.5,59.6,33.5L59.6,33.5z M41.5,28.4l2-0.4L43,38l0,0c0,0.9-0.8,1.6-1.7,1.6c-0.3,0-0.5-0.1-0.8-0.2l-8.3-5.9
			C34.8,31,38,29.2,41.5,28.4z M29.3,37.2l7.4,6.6l0,0c0.7,0.6,0.8,1.6,0.2,2.3c-0.2,0.3-0.4,0.4-0.8,0.5l-9.7,2.8
			C26.1,45.2,27.1,40.9,29.3,37.2z M27.6,54.1l9.9-1.7c0.8,0,1.6,0.5,1.7,1.3c0.1,0.3,0.1,0.7-0.1,1l0,0l-3.8,9.2
			C31.8,61.6,29,58.1,27.6,54.1z M50.3,66.5C48.9,66.8,47.5,67,46,67c-2.1,0-4.3-0.4-6.3-1l4.9-8.9c0.5-0.6,1.3-0.8,2-0.4
			c0.3,0.2,0.5,0.4,0.8,0.7l0,0l4.8,8.7C51.6,66.2,51,66.3,50.3,66.5z M62.5,57.8c-1.5,2.4-3.6,4.5-6,6l-3.9-9.4
			c-0.2-0.8,0.2-1.6,0.9-1.9c0.3-0.1,0.6-0.2,0.9-0.2l10,1.7C63.9,55.4,63.3,56.7,62.5,57.8z"/>
	</g>
</g>
</svg>
