<?xml version="1.0" encoding="utf-8"?>
<!-- Generator: Adobe Illustrator 22.0.0, SVG Export Plug-In . SVG Version: 6.00 Build 0)  -->
<svg version="1.1" id="Layer_1" xmlns="http://www.w3.org/2000/svg" xmlns:xlink="http://www.w3.org/1999/xlink" x="0px" y="0px"
	 viewBox="0 0 149 330.2" style="enable-background:new 0 0 149 330.2;" xml:space="preserve">
<style type="text/css">
	.st0{fill:#FFFFFF;}
</style>
<title>low startup cost</title>
<path class="st0" d="M10.3,130.2l-4-7.5l-0.6-1.6l-2.2-6.4l-0.8-3.3c-0.5-2.6-0.9-5.2-1.4-7.8L1,100.5c0.2-3.4,0.5-6.9,0.7-10.3
	c0.6-1.2,0.8-2.5,0.7-3.9C3.9,81.1,5.9,76,8.1,70.9l4.6-7.7c4.7-6.4,10.3-12,16.7-16.7l8.3-4.9c3.3-1.6,6.6-3.1,9.8-4.8
	c2.7-1.4,6.8-1.5,7.9-4.1s0.2-6.3,0.2-9.5V20v-9.7V7.1C56,4,57.9,1.8,60.2,0h27.1c2.6,1.9,4.6,4.3,4.6,7.7V11c0,3.2,0,6.4,0,9.7v3.2
	l-0.1,7.9c0,1-0.1,2,1.2,2.1l2.7,0.9l7,2.3l2.7,0.9l7,2.8c0.5,0.6,1.2,1,2,1.1l4.9,2.8c0.8,0.8,1.7,1.5,2.8,1.9l5.1,3.9l2.1,1.9
	c1.5,1.5,3,3.1,4.5,4.6l1.1,1.3l4.6,6.8c0,0.6,0.3,1.1,0.8,1.5l2.6,6.4c-0.1,0.9,0.2,1.8,0.7,2.6l0.7,9c-0.1,1-0.3,2.1-0.4,3.1
	c-2,8.1-6.7,13.7-15.1,15.6l-3.9,0.1c-2.6-0.3-5.2-0.8-7.7-1.5l-2-1.1c-1.7-1.4-3.3-2.8-5-4.3l-1.3-1.8c-0.9-1.9-1.8-3.8-2.8-5.6
	c-0.1-1-0.6-1.9-1.2-2.6c-2.2-4.8-6-8-10.2-11.7v20.7c0,1.1,0,2.2,0,3.2v9.7v3.2v9.7c0,1.1,0,2.2,0,3.2c-0.5,4.3,3.5,3.3,5.5,4.6
	l3.3,1.5l5.7,2.3l3.3,1.6l5.3,2.9l2.6,1.8l4.4,3.4l2.5,2.2l4.5,4.2l2,2l4.4,5.4l0.7,0.9l3.8,6.5l1.4,2.8l2.2,6.1l0.8,2.7l1.6,7.6
	l0.2,3.2c0.1,3,0.1,6,0.2,9.1c-0.3,1.2-0.4,2.6-0.3,3.8l-2.1,11.6c-0.7,1.4-1.2,2.9-1.4,4.4c-3.1,8.2-7.5,15.8-13.1,22.5l-5.5,5.5
	c-6,5.3-13.3,8.4-20.5,11.5c-1.8,0.6-3.6,1.2-5.4,1.9c-6.5,2.5-6.5,2.5-6.1,9.6c0,1-0.1,1.9-0.1,2.9c0,4.3,0,4.3,4.5,4.1h3.2h9.7
	h3.2c2.4-0.1,4.1,1.1,5.7,2.7c0.3,0.7,0.7,1.3,1,2c1,3.1,0,5.6-2.2,7.9c-13.3,13.8-26.6,27.5-39.9,41.4c-1.2,1.2-2.7,1.9-4,2.9h-4.5
	c-4.8-4-8.7-8.8-13.2-13l-2.3-2.3c-1.1-1.5-2.4-2.9-3.9-4c-0.6-1.1-1.5-2-2.6-2.6l-3.8-3.9c-0.4-0.8-1.1-1.5-1.9-1.9
	c-1.5-2-3.3-3.8-5.2-5.4l-1.5-1.5c-1.3-1.7-2.8-3.3-4.5-4.6c-0.4-0.8-1.1-1.5-1.9-2l-4.1-4.4l-1.1-2c-0.1-6.5,2.1-8.8,9-9.1h3.2h9.7
	c5.8,0.4,5.8,0.4,6.3-5.4c0-0.3,0-0.6,0-0.9c0.1-3.1,1.3-6.5-2.9-8l-2.7-0.9l-7.7-2.3l-2-1l-5.6-2.8l-2.7-1.7
	c-1.7-1.1-3.4-2.2-5.1-3.4l-2.6-2l-4.5-3.8l-2-1.9l-4-4.5l-1.6-2l-3.8-5.8c-0.2-1-0.7-1.9-1.4-2.6c-0.8-1.9-1.6-3.9-2.4-5.8
	c0-0.9-0.3-1.8-0.9-2.5l-1.4-8.4L0,204.4c0.1-3.5,0.5-7.1,1.4-10.5l2.4-5.5l4.2-4.5l5.8-2.3c3-0.4,6-0.4,9,0.1l1.4,0.4
	c2.2,0.9,4.3,2.2,6.3,3.7l1.2,1.3c1.2,2.1,2.4,4.2,3.6,6.4l0.9,2c0.7,2.4,1.6,4.8,2.8,7c0.1,1,0.6,1.9,1.3,2.6
	c0.7,2.2,2.1,4.3,3.9,5.8c0.3,0.7,0.9,1.2,1.6,1.5c1.5,1.7,3.5,2.7,5.4,3.9c1.6,1,2.1,0.4,2-1.2c0-2.9-0.1-5.8-0.1-8.6
	c0-1.1,0-2.2,0-3.2c0-3.2,0-6.4,0-9.7c0-1.1,0-2.2,0-3.2c0-3.2,0-6.4,0-9.7v-3.2c0-3.2,0-6.4,0-9.7c0-1.1,0-2.2,0-3.2
	c0.3-5.1,0.3-5.1-5-6.5c-0.5-0.6-1.2-0.6-1.9-0.7l-7.1-2.8l-1.3-0.5l-7.1-3.8c-0.5-0.6-1.2-1.1-1.9-1.3l-5.2-3.7l-1.7-1.4l-4.6-4.5
	l-1.7-2c-1.6-2.1-3.1-4.1-4.7-6.2L10.3,130.2z M65.8,20.6c-0.4,1.1-0.3,2.3,0.2,3.3c-0.5,3.2-0.6,6.4-0.2,9.6l-0.2,3.9
	c-0.9,4-3.7,6-7.3,7.1c-1.6,0.1-3.1,0.5-4.5,1.3c-19,6.4-32.5,18.3-38.5,37.9c-0.6,1.5-0.9,3-0.9,4.6c-1.1,3.6-1.5,7.3-1.2,11v3.2
	c-0.2,3,0.2,6.1,1.2,9c-0.2,0.9,0,1.8,0.6,2.6c0.3,2.5,1.2,5,2.4,7.2c0.2,1,0.6,2,1.4,2.7c0.7,1.9,1.8,3.6,3.3,5
	c0.4,0.8,1,1.5,1.7,2c1.3,1.8,2.9,3.3,4.7,4.4c0.7,0.9,1.6,1.5,2.6,1.9c1.9,1.7,4.1,3,6.4,3.9c0.5,0.6,1.2,1,2,1.1
	c2,1.3,4.1,2.2,6.4,2.8c0.7,0.6,1.7,1,2.6,1.1c2.2,1,4.6,1.8,7,2.3c1,0.6,2.1,0.9,3.3,1c1.7,0.6,3.3,1.5,4.6,2.7l1.7,2.7l0.5,7.6
	c-0.4,1.3-0.4,2.6,0,3.9c-0.4,7.3-0.3,14.6,0,21.9c-0.4,1.3-0.4,2.6,0,3.9c-0.4,3-0.4,6,0,9c-0.4,1.3-0.4,2.6,0,3.9
	c-0.4,3-0.4,6,0,9c-0.4,1.3-0.4,2.6,0,3.9c-0.1,1.6-0.2,3.2-0.3,4.8c-0.2,4.6-2.1,6.8-6.8,7.1c-1.7,0-3.4,0-5.1-0.2l-2.6-0.7
	l-5.8-2.6l-2.6-1.8l-4.4-4l-1.1-1.3l-4.5-6.9c-0.1-0.5-0.1-1.1-0.7-1.5c-0.8-2.6-1.8-5.2-3.1-7.6c-0.1-0.5-0.1-1.1-0.7-1.5
	c-0.7-2.1-1.8-4.1-3.4-5.8c-0.5-1.2-1.4-2.1-2.6-2.7c-2.7-2.5-5.5-2-8.2-0.2c-4.7,3.2-6.2,7.7-5.2,13.2c0,1.2,0.3,2.3,0.9,3.3
	c0.6,2.7,1.7,5.2,3.3,7.4l0.6,1c1.1,2.3,2.5,4.5,4.2,6.4c0.1,0.6,0.5,1.1,1,1.4c1.2,2.2,2.8,4.1,4.7,5.8c0.4,0.8,1.1,1.5,1.9,1.9
	c1.4,1.6,3,3,4.9,4c0.5,0.7,1.1,1.1,1.9,1.3c2,1.7,4.3,2.9,6.7,3.8c0.7,0.7,1.6,1.1,2.6,1.2c2.2,1.3,4.6,2.2,7.1,2.7
	c0.5,0.7,1.2,0.6,1.9,0.7c2.5,1.1,5.1,1.9,7.8,2.3l2.6,0.8c1.6,1,2.9,2.3,4,3.9l0.8,2.6c0.1,3,0.1,6,0.2,9c-0.4,1.3-0.4,2.7,0,4
	l-0.2,9.1c-0.4,1.9-1.6,3.2-3,4.4c-6.6,1.6-13.4,0.2-20.6,0.9l15.6,16.6c0.4,0.8,1.1,1.5,1.9,2l4,4.4c0.6,1.1,1.5,2,2.5,2.6
	c1.3,1.8,2.8,3.4,4.4,4.8c3.1,4.1,3.1,4.1,6.6,0.3c8.8-9.6,17.6-19.2,26.5-28.7c0.6-0.6,1.6-1.1,1.6-2.3h-5.5h-9.7l-3.2-0.2
	c-1.7-0.6-3.2-1.7-4.3-3.2l-0.7-3.1c0.3-3,0.4-6,0-9c0.3-1.3,0.3-2.6,0-3.9c0.6-3.2-0.2-6.5,0.6-9.7c1.1-2.1,2.8-3.7,4.9-4.8
	c5.1-1.5,10.1-3.4,14.9-5.6c7-2.5,13.4-6.2,19.1-11c6.5-5.5,11.1-12.9,13.2-21.2c1.8-4,2.5-8.2,3.1-12.5c0.1-1.2,0.1-2.4,0.2-3.6
	c0.7-3.2,0.7-6.5,0-9.7c-0.1-1.1-0.2-2.1-0.3-3.2c-0.1-2.7-0.7-5.3-1.7-7.8c0.1-0.9-0.2-1.8-0.8-2.5c-0.6-2.6-1.6-5-3.2-7.1
	c-0.1-0.8-0.5-1.5-1.2-2c-0.9-2-2.2-3.7-3.9-5.2c-0.4-0.8-1-1.6-1.8-2c-1.4-1.8-3.1-3.4-5.1-4.6l-1.8-1.4c-2-1.8-4.4-3.3-6.9-4.3
	c-0.5-0.6-1.2-1-2-1.1c-2-1.3-4.1-2.3-6.4-3.1l-1.4-0.5c-2.6-1.4-5.4-2.5-8.4-3.2c-0.5-0.6-1.1-0.5-1.7-0.6l-6.1-2.4l-2.5-2.8
	c-0.9-2-0.8-4.1-1.1-6.2c0.3-1.3,0.3-2.6,0-3.9c0.3-3,0.4-6,0-9c0.3-1.3,0.3-2.6,0-3.9c0.3-3,0.4-6,0-9c0.3-1.3,0.3-2.6,0-3.9
	c0.3-3,0.4-6,0-9c0.3-1.3,0.3-2.7-0.1-3.9c0.4-3,0.5-6,0.1-9c0.3-1.3,0.3-2.6,0-3.9c1.1-5.8,2.6-7.2,8.2-7.7l2.6,0.6l5.5,2.1
	l2.9,1.8l4.5,3.9l2.5,2.6l3.8,4.5c0.4,1.1,1.1,2,2,2.7c1,2,2.3,3.7,3.8,5.3c0.2,0.7,0.8,1.3,1.4,1.6c1.7,2.1,3.6,3.7,6.5,3.8
	c4.3-0.1,6.8-2.7,7.7-7.7c0.7-3,0.4-6.1-0.7-9c-0.3-0.9-0.6-1.8-0.9-2.7c-0.6-2.4-1.8-4.5-3.4-6.4c-0.4-1.1-1.1-2-2-2.6
	c-1.2-1.8-2.7-3.4-4.5-4.6c-0.5-0.8-1.2-1.4-2-1.7c-1.4-1.4-3.1-2.6-4.9-3.4c-0.8-0.8-1.7-1.4-2.8-1.7c-1.7-1.2-3.7-2.2-5.7-2.8
	c-0.9-0.8-2.1-1.2-3.3-1.3c-2.5-1-5.1-1.7-7.7-2.1l-1.9-0.5l-6.3-2.3L85,41.8c-1.5-1.6-2.8-3.4-3.1-5.7c0.2-1.3,0.2-2.6-0.1-3.9
	c0.3-3,0.4-6,0-9c0.3-1.3,0.3-2.6,0-3.9c0.1-2.1,0-4.2,0.3-6.3c0.3-2.6-0.9-3.1-3.1-2.6h-2.6h-9.7c-1-0.1-1.2,0.3-0.8,1.2
	C65.5,14.6,65.5,17.6,65.8,20.6z"/>
<path class="st0" d="M75,164.5c0,0.6-0.2,1-0.8,1.2C73.8,164.9,73.9,164.4,75,164.5z"/>
<path class="st0" d="M37.8,118.7l-1.9-2l-3.5-5.7l-0.8-2.7c-0.4-2.8-0.8-5.5-1.1-8.3v-3.2c0.4-4,1.2-7.9,2.4-11.6l3.6-7
	c2.6-3.3,5.6-6.3,8.9-9l7-3.6c2.9-1.3,5.8-2.1,9-0.9l2.6,1.5c1.6,1.5,2.8,3.2,2.8,5.5v3.2c0,3.2,0,6.4,0,9.7v3.2v9.7v12.9
	c0,1.1,0,2.1,0,3.2c-0.5,3.2,0.4,6.5-0.5,9.7c-0.9,1.4-2.1,2.7-3.5,3.7c-3,1.6-6.5,1.7-9.6,0.4l-1.5-0.5l-6.9-3l-2.7-1.7L37.8,118.7
	z M45.4,111c1.7,1.8,4,2.9,6.4,3.3c1.4,0.8,2.9,1.4,4.4,1.7v-6.3c0-3.2,0-6.4,0-9.7V76.9C47.3,78.7,41.1,87.2,41,97.4v3.2
	c-0.2,2.7,0.5,5.4,2,7.7C43.6,109.5,44.4,110.4,45.4,111L45.4,111z"/>
<path class="st0" d="M96.4,158.2l1.5,0.8c2,1.3,4,2.5,6,3.8l2.2,1.8l5.1,4.8l0.9,1.1l4.2,5.8c0.3,0.6,0.6,1.3,0.9,1.9l2,7.3l0.5,3.1
	c-0.2,3.3-0.4,6.5-0.6,9.7c-0.3,1.5-0.6,3-0.9,4.4c-4.3,12.1-12.6,20.1-24.5,24.6l-5.1,1.4c-2,0.1-4-0.7-5.3-2.2l-1.1-2
	c-0.1-3-0.3-6-0.4-9v-42.6c0-2.8,0.2-5.5,0.1-8.3c-0.3-3,1-6,3.5-7.7l3.8-0.7L96.4,158.2z M94.6,184.5v3.2v9.7v3.2v9.7v6.1
	c6.3-5.3,12.4-10.1,14.1-18.3c1.2-3.4,2-6.8,0.6-10.3l-0.8-2.7c-0.4-2.5-1.7-4.7-3.5-6.4c-0.5-1-1.2-1.9-2.1-2.5
	c-2.1-3-4.9-5.4-8.3-7C94.6,169.2,94.6,184.5,94.6,184.5z"/>
</svg>
