<?xml version="1.0" encoding="utf-8"?>
<!-- Generator: Adobe Illustrator 22.0.0, SVG Export Plug-In . SVG Version: 6.00 Build 0)  -->
<svg version="1.1" id="Layer_1" xmlns="http://www.w3.org/2000/svg" xmlns:xlink="http://www.w3.org/1999/xlink" x="0px" y="0px"
	 viewBox="0 0 311.1 262.5" style="enable-background:new 0 0 311.1 262.5;" xml:space="preserve">
<style type="text/css">
	.st0{fill:#FFFFFF;}
</style>
<title>self service</title>
<g id="Layer_1-2">
	<path class="st0" d="M4.9,0h301.4c2.7,0,4.8,2.2,4.9,4.9v252.8c0,2.7-2.2,4.8-4.9,4.9H4.9c-2.7,0-4.8-2.2-4.9-4.9V4.9
		C0,2.2,2.2,0,4.9,0z M219.1,238.2c-2.7-0.1-4.8-2.4-4.6-5.1c0.1-2.5,2.1-4.5,4.6-4.6h48.2c2.7,0.1,4.8,2.4,4.6,5.1
		c-0.1,2.5-2.1,4.5-4.6,4.6H219.1z M238.6,213.9c-2.7-0.1-4.8-2.4-4.6-5.1c0.1-2.5,2.1-4.5,4.6-4.6h48.2c2.7,0.1,4.8,2.4,4.6,5.1
		c-0.1,2.5-2.1,4.5-4.6,4.6H238.6z M24.3,72.9c-2.7-0.1-4.8-2.4-4.6-5.1c0.1-2.5,2.1-4.5,4.6-4.6h48.2c2.7,0.1,4.8,2.4,4.6,5.1
		c-0.1,2.5-2.1,4.5-4.6,4.6H24.3z M43.8,97.2c-2.7,0-4.9-2.2-4.9-4.9s2.2-4.9,4.9-4.9H92c2.7,0,4.9,2.2,4.9,4.9s-2.2,4.9-4.9,4.9
		H43.8z M203.4,116.3l-9.8,16.9c-1.4,2.3-4.4,3-6.7,1.5c-2.2-1.4-2.9-4.1-1.7-6.4l9.8-16.9c-10.8-5.5-22.6-8.6-34.6-9.3v19.5
		c0,2.7-2.2,4.9-4.9,4.9c-2.7,0-4.9-2.2-4.9-4.9v-19.5c-12.1,0.6-23.9,3.8-34.6,9.3l9.8,16.9c1.2,2.4,0.3,5.3-2,6.5
		c-2.2,1.2-5,0.4-6.3-1.7l-9.7-16.9c-5,3.3-9.7,7.1-14,11.4c-4.2,4.3-8.1,9-11.4,14l16.9,9.8c2.3,1.3,3.1,4.3,1.8,6.6
		c-1.3,2.3-4.3,3.1-6.6,1.8l-16.8-9.8c-5.5,10.8-8.6,22.6-9.3,34.6h63.2v-0.1v-0.1v-0.2l0,0l0.1-0.2l0,0v-0.2v-0.1v-0.1v-0.2v-0.1
		l0.1-0.2l0,0l0.1-0.2v-0.1v-0.1l0.1-0.2v-0.1l0.1-0.2l0,0l0.1-0.2V182v-0.1l0.1-0.2v-0.1l0.1-0.2l0,0l0.1-0.2v-0.1V181l0.1-0.1
		v-0.1l0.1-0.2l0.1-0.2v-0.1l0.1-0.1l0.1-0.1V180l0.1-0.2l0,0l0.1-0.2v-0.1l0.1-0.1l0.1-0.1v-0.1l0.1-0.2l0,0l0.1-0.2v-0.1l0.1-0.2
		l0.1-0.1v-0.1l0.1-0.2l0,0l0.1-0.2l0,0l0.1-0.2l0.1-0.1v-0.1l0.1-0.2l0,0l0.1-0.2l0,0l0.1-0.2l0.1-0.1l0.1-0.1l0.1-0.2l0,0l0.1-0.2
		l0,0l0.1-0.2l0.1-0.1l0.1-0.1l0.1-0.2l0,0l0.1-0.2l0,0l0.1-0.2l0.1-0.1l0.1-0.1l0.1-0.1l0,0l0.1-0.2l0,0l0.1-0.2l0.1-0.1l0.1-0.1
		l0.1-0.1l0,0l0.1-0.2l0,0l0.1-0.2l0.1-0.1l0.1-0.1l0.1-0.1l0,0l0.1-0.2l0,0l0.3-0.3l0.1-0.1l0,0l0.2-0.2l0,0l0.2-0.2l0.1-0.1
		l0.1-0.1l0.1-0.1l0.1-0.1l0.2-0.2l0.2-0.2l0.2-0.2l0.2-0.2l0.2-0.2l0.2-0.2l0.2-0.2l0.2-0.2l0.2-0.2l0.2-0.2l0.2-0.2l0.2-0.2
		l0.2-0.2l0.2-0.2l0.2-0.2l0,0l0.2-0.2l0.2-0.2l0,0l0.2-0.2l0,0l0.3-0.2l0.3-0.2l0,0l0.3-0.2l0.3-0.2l0.3-0.2l0.3-0.1l0.3-0.1l0,0
		l0.3-0.1l0,0l0.3-0.1l0,0l0.3-0.1l0.3-0.1l0,0l0.3-0.1l0.3-0.1l0,0l0.3-0.1l0.3-0.1l0.3-0.1l0,0l0.3-0.1l0.3-0.1l0,0l0.3-0.1
		l0.3-0.1l0,0l0.3-0.1l0,0l0.3-0.1l0,0l0.3-0.1l0,0l0.3-0.1l0,0l0.3-0.1l0,0l0.3-0.1l0,0l0.3-0.1l0,0l0.3-0.1l0,0l0.3-0.1l0,0
		l0.3-0.1l0,0l0.3-0.1l0.3-0.1l0,0l0.3-0.1l0,0l0.3-0.1l0,0h0.3l0,0h0.3l0,0h0.3l0,0h0.3h0.3h0.3l0,0h0.3h0.3l0,0h0.3h0.3h1.9h0.3
		h0.3l13.2-49.4c0.7-2.6,3.3-4.2,5.9-3.5c2.6,0.7,4.2,3.3,3.5,5.9c0,0,0,0.1,0,0.1l-13.2,49.4l0,0l0.3,0.1l0,0l0.3,0.1l0,0l0.3,0.1
		l0,0l0.3,0.1l0.3,0.1l0.3,0.2l0.3,0.2l0.3,0.2l0,0l0.3,0.2l0.3,0.2l0,0l0.2,0.2l0,0l0.2,0.2l0.2,0.2l0,0l0.2,0.2l0.2,0.2l0.2,0.2
		l0.2,0.2l0.2,0.2l0.2,0.2l0.2,0.2l0.2,0.2l0.2,0.2l0.2,0.2l0.2,0.2l0.2,0.2l0.2,0.2l0.2,0.2l0.2,0.2l0.1,0.1l0.1,0.1l0.1,0.1
		l0.1,0.1l0.2,0.2l0,0l0.2,0.2l0,0l0.1,0.1l0.3,0.3l0,0l0.1,0.2l0,0l0.1,0.1l0.1,0.1l0.1,0.1l0.1,0.2l0,0l0.1,0.2l0,0l0.1,0.1
		l0.1,0.1l0.1,0.1l0.1,0.2l0,0l0.1,0.2l0,0l0.1,0.1l0.1,0.1l0.1,0.1l0.1,0.2l0,0l0.1,0.2l0,0l0.1,0.2l0.1,0.1l0.1,0.1l0.1,0.2l0,0
		l0.1,0.2l0,0l0.1,0.2l0.1,0.1l0.1,0.1l0.1,0.2l0,0l0.1,0.2l0,0l0.1,0.2v0.1l0.1,0.1l0.1,0.2l0,0l0.1,0.2l0,0l0.1,0.2v0.1l0.1,0.1
		l0.1,0.2v0.1l0.1,0.2l0,0l0.1,0.2v0.1l0.1,0.1l0.1,0.1v0.1l0.1,0.2l0,0l0.1,0.2v0.1l0.1,0.1l0.1,0.1v0.1l0.1,0.2l0.1,0.2v0.1
		l0.1,0.1v0.1v0.1l0.1,0.2l0,0l0.1,0.2v0.1l0.1,0.2v0.1v0.1l0.1,0.2l0,0l0.1,0.2v0.1l0.1,0.2v0.1v0.1l0.1,0.2l0,0l0.1,0.2v0.1v0.2
		v0.1v0.1v0.2l0,0l0.1,0.2l0,0v0.2v0.1v0.1h63.2c0.1-12-2.4-23.9-7.1-34.9l-16.9,9.8c-2.3,1.3-5.3,0.5-6.6-1.8
		c-1.3-2.3-0.5-5.3,1.8-6.6l16.9-9.7c-3.3-5-7.1-9.7-11.4-14c-4.3-4.3-9-8.1-14-11.4L203.4,116.3z M163.9,177.2l-3.6,13.6
		c-0.7,2.6-3.4,4.1-6,3.4c-2.6-0.7-4.1-3.4-3.4-6l3.7-13.6c-3.6,0.2-7,1.8-9.5,4.3c-2.8,2.8-4.4,6.6-4.4,10.6v0.2
		c0,8.3,6.7,14.9,14.9,14.9s14.9-6.7,14.9-14.9v-2.2v-0.1v-0.1v-0.1v-0.1V187v-0.1v-0.1v-0.1v-0.1v-0.1v-0.1v-0.1v-0.1v-0.1v-0.1
		V186v-0.1v-0.1v-0.1v-0.1v-0.1v-0.1v-0.1v-0.1v-0.1v-0.1v-0.1V185v-0.1v-0.1v-0.1v-0.1v-0.1v-0.1v-0.1v-0.1v-0.1v-0.1v-0.1V184V184
		v-0.1v-0.1v-0.1v-0.1l-0.1-0.1v-0.1l-0.1-0.1v-0.1l-0.1-0.1l0,0l-0.1-0.1l0,0l-0.1-0.1l0,0l-0.1-0.1l0,0l-0.1-0.1l0,0l-0.1-0.1l0,0
		l-0.1-0.1l0,0l-0.1-0.1l0,0l-0.1-0.1l0,0l-0.1-0.1l0,0l-0.1-0.1l0,0l-0.1-0.1l0,0l-0.1-0.1l0,0l-0.1-0.1l0,0l-0.1-0.1l0,0l-0.1-0.1
		l0,0l-0.1-0.1l0,0l-0.1-0.1l0,0l-0.1-0.1l0,0l0,0l-0.2-0.2l0,0l0,0l-0.1-0.1l0,0l-0.1-0.1l0,0l-0.1-0.1l0,0l-0.1-0.1l0,0l-0.1-0.1
		l0,0l-0.1-0.1l0,0l-0.1-0.1l-0.1-0.1c-0.7-0.7-1.4-1.3-2.2-1.8L163.9,177.2z M179.7,194.4c-2.7,13.3-15.7,22-29,19.3
		c-9.7-2-17.4-9.6-19.3-19.3H63.3c-2.7,0-4.8-2.2-4.9-4.9v-0.1c0.1-53.6,43.4-97,97-97.1h0.5c53.6,0.1,97,43.6,97,97.2
		c0,2.7-2.2,4.8-4.9,4.9L179.7,194.4L179.7,194.4z M72.9,19.4h9.7v9.7h-9.7V19.4z M48.6,19.4h9.7v9.7h-9.7V19.4z M24.3,19.4H34v9.7
		h-9.7V19.4z M301.4,48.6H9.8v204.2h291.6L301.4,48.6z M9.7,38.9h291.7V9.8H9.8L9.7,38.9z"/>
</g>
</svg>
