<svg width="59" height="59" viewBox="0 0 59 59" fill="none" xmlns="http://www.w3.org/2000/svg">
<path d="M29.0213 5C42.2905 5 53.0427 15.8139 53.0427 29.1479C53.0427 34.451 51.342 39.3554 48.4587 43.3395L53.7959 48.7212C55.2303 50.1678 55.2276 52.5011 53.7899 53.9444C52.3637 55.3762 50.0467 55.3808 48.6148 53.9545L48.5989 53.9385L43.2852 48.5797C39.2966 51.5435 34.3629 53.2959 29.0213 53.2959C15.7522 53.2959 5 42.4819 5 29.1479C5 15.8139 15.7522 5 29.0213 5ZM29.0213 8.98544C17.9584 8.98544 8.98544 18.01 8.98544 29.1479C8.98544 40.2859 17.9584 49.3104 29.0213 49.3104C40.0843 49.3104 49.0572 40.2859 49.0572 29.1479C49.0572 18.01 40.0843 8.98544 29.0213 8.98544Z" fill="#CC4141"/>
<path d="M28.2581 36.8843L28.1389 36.862C27.4905 36.7405 27.0558 36.0736 27.1682 35.3727L29.2058 22.6742C29.3182 21.9734 29.9353 21.5036 30.5838 21.6251L30.703 21.6474C31.3515 21.769 31.7862 22.4359 31.6737 23.1367L29.6361 35.8352C29.5241 36.5365 28.907 37.0063 28.2581 36.8843ZM36.4573 35.8606C36.1363 35.8609 35.8288 35.7211 35.6046 35.4728C35.1445 34.9639 35.1528 34.1484 35.6237 33.6511L39.3802 29.6827L35.882 26.1522C35.4008 25.6665 35.375 24.8515 35.8244 24.3314C36.2738 23.8114 37.0279 23.7835 37.5091 24.2692L41.9197 28.7199C42.1576 28.9599 42.2943 29.2948 42.2979 29.6466C42.3015 29.9983 42.172 30.3367 41.9391 30.5828L37.2902 35.4938C37.0589 35.7386 36.7581 35.8606 36.4573 35.8606ZM22.1331 35.8606C21.8327 35.8606 21.5319 35.7386 21.2998 35.4934L16.6509 30.5823C16.418 30.3363 16.2884 29.9981 16.2921 29.6462C16.2957 29.2944 16.4323 28.9595 16.6703 28.7194L21.0809 24.2687C21.5621 23.783 22.3162 23.8109 22.7656 24.331C23.215 24.851 23.1892 25.6661 22.708 26.1518L19.2098 29.6822L22.9663 33.6507C23.4371 34.148 23.4455 34.9639 22.9854 35.4723C22.7521 35.7309 22.4426 35.8606 22.1331 35.8606Z" fill="white"/>
</svg>
