<svg width="59" height="59" viewBox="0 0 59 59" fill="none" xmlns="http://www.w3.org/2000/svg">
<path d="M7.21757 43.9223C6.80914 41.0697 6.98849 38.3004 7.64856 35.5522C8.34394 32.6367 9.21867 29.7651 10.6956 27.0956C11.5723 25.5174 12.5447 23.9861 13.5668 22.4887C14.3591 21.326 15.245 20.2236 16.186 19.1628C16.9133 18.3425 17.7566 17.6129 18.5729 16.8798C19.258 16.2672 19.9758 15.6658 20.7195 15.1158C21.5977 14.4664 22.5175 13.8568 23.4609 13.3122C24.4812 12.7225 25.5318 12.1575 26.6071 11.6919C28.2708 10.9795 29.9715 10.4163 31.7183 9.94859C34.4146 9.22592 37.1371 9.00189 39.8771 9.00026C40.6321 8.99519 41.3813 9.06503 42.1507 9.17876C36.0897 10.2002 30.874 12.8448 26.4845 17.1031C26.525 17.1909 26.5733 17.2728 26.6138 17.3606C27.2701 17.0401 27.9287 16.7061 28.5963 16.4007C29.1599 16.1369 29.7269 15.8942 30.2996 15.6591C30.9309 15.4041 31.5623 15.1491 32.2049 14.9093C33.3275 14.4911 34.4355 14.0367 35.585 13.7045C36.9163 13.3204 38.2745 13.0223 39.6416 12.7528C41.0088 12.4834 42.3883 12.2637 43.7699 12.113C46.2103 11.8386 48.6239 12.0078 50.9939 12.5152C53.1631 12.9828 55.2302 13.726 57.1895 14.7372C57.2606 14.7671 57.327 14.8239 57.38 14.8789C57.4329 14.9339 57.47 15.0007 57.5826 15.1529C57.0194 15.1691 56.5318 15.1883 56.0522 15.2016C52.9373 15.2921 49.841 15.6395 46.7691 16.2515C44.5925 16.684 42.4246 17.2277 40.2657 17.8001C38.8103 18.1819 37.366 18.6615 35.9464 19.158C34.8792 19.5352 33.8366 20.0119 32.7907 20.4675C31.7289 20.9349 30.6728 21.4098 29.6257 21.9134C29.1659 22.1357 28.7208 22.3943 28.2835 22.647C27.5841 23.0582 26.8791 23.4619 26.2135 23.9188C24.5704 25.0397 22.9194 26.1665 21.3156 27.3406C20.3979 28.0193 19.5173 28.7647 18.6671 29.5346C17.6439 30.4678 16.6455 31.418 15.7057 32.4308C14.6437 33.5929 13.6402 34.8175 12.6559 36.0516C11.7622 37.1598 10.8797 38.2832 10.0851 39.4594C9.15918 40.8386 8.34037 42.2798 7.47759 43.6947C7.4289 43.7778 7.33853 43.8211 7.21757 43.9223Z" fill="#CC4141"/>
<path d="M12.6904 42.4661C15.2215 47.5847 20.4961 51.1048 26.5929 51.1048C35.1534 51.1048 42.0929 44.1652 42.0929 35.6048C42.0929 30.4447 39.5714 25.8735 35.6933 23.0562C35.6836 23.0604 35.6738 23.0646 35.6641 23.0688C34.6024 23.5362 33.5463 24.0111 32.4991 24.5148C32.0521 24.7309 31.6189 24.9813 31.1934 25.2273L31.157 25.2483C31.0695 25.2997 30.982 25.351 30.8945 25.4023C30.282 25.7613 29.6694 26.1203 29.087 26.5201C28.3156 27.0463 27.5425 27.5738 26.7733 28.1069C30.8321 28.2027 34.0929 31.523 34.0929 35.6048C34.0929 39.7469 30.7351 43.1048 26.5929 43.1048C22.4508 43.1048 19.0929 39.7469 19.0929 35.6048C19.0929 35.191 19.1265 34.785 19.1909 34.3894C18.9845 34.6011 18.7805 34.8152 18.5791 35.0322C17.5171 36.1942 16.5137 37.4188 15.5294 38.6529C14.6356 39.7611 13.7531 40.8846 12.9585 42.0607C12.8682 42.1953 12.7789 42.3304 12.6904 42.4661Z" fill="white"/>
</svg>
