<svg width="59" height="59" viewBox="0 0 59 59" fill="none" xmlns="http://www.w3.org/2000/svg">
<path fill-rule="evenodd" clip-rule="evenodd" d="M29.3419 10C31.9574 10 34.2204 10.5883 35.3071 11.4439L36.0415 11.4444C42.7515 11.4444 48.6394 14.9639 51.9601 20.2575L51.959 15.8651C51.0492 15.3816 50.4289 14.4175 50.4289 13.307C50.4289 11.7115 51.7095 10.4181 53.2893 10.4181C54.869 10.4181 56.1497 11.7115 56.1497 13.307C56.1497 14.4169 55.5299 15.3806 54.6209 15.8644L54.6205 22.4644C56.2097 23.8403 57.2805 26.4291 57.2805 29.396C57.2805 32.991 55.7084 36.031 53.5467 37.0306C50.8209 44.0353 44.011 49 36.0415 49H23.0415C15.1413 49 8.38058 44.1213 5.60785 37.2123C3.20749 36.4614 1.40332 33.2472 1.40332 29.396C1.40332 26.4283 2.4747 23.8388 4.06469 22.4632L4.06427 15.8651C3.15451 15.3816 2.53417 14.4175 2.53417 13.307C2.53417 11.7115 3.8148 10.4181 5.39455 10.4181C6.97429 10.4181 8.25493 11.7115 8.25493 13.307C8.25493 14.4169 7.63519 15.3806 6.72614 15.8644L6.72574 20.9205C9.95993 15.2598 16.0551 11.4444 23.0415 11.4444L23.3767 11.4439C24.4635 10.5883 26.7264 10 29.3419 10ZM35.994 17.0702H22.6899C15.3422 17.0702 9.38578 23.0266 9.38578 30.3743C9.38578 37.7219 15.3422 43.6784 22.6899 43.6784H35.994C43.3416 43.6784 49.2981 37.7219 49.2981 30.3743C49.2981 23.0266 43.3416 17.0702 35.994 17.0702Z" fill="white"/>
<path fill-rule="evenodd" clip-rule="evenodd" d="M29.4561 39.2858C32.7013 39.2858 35.332 37.2247 35.332 34.6822C35.332 32.1396 32.7013 32.6824 29.4561 32.6824C26.2108 32.6824 23.5801 32.1396 23.5801 34.6822C23.5801 37.2247 26.2108 39.2858 29.4561 39.2858Z" fill="#CC4141"/>
<path d="M18.6979 30.4249C20.1675 30.4249 21.3587 29.2336 21.3587 27.7641C21.3587 26.2946 20.1675 25.1033 18.6979 25.1033C17.2284 25.1033 16.0371 26.2946 16.0371 27.7641C16.0371 29.2336 17.2284 30.4249 18.6979 30.4249Z" fill="white"/>
<path d="M39.9841 30.4249C41.4536 30.4249 42.6449 29.2336 42.6449 27.7641C42.6449 26.2946 41.4536 25.1033 39.9841 25.1033C38.5145 25.1033 37.3232 26.2946 37.3232 27.7641C37.3232 29.2336 38.5145 30.4249 39.9841 30.4249Z" fill="white"/>
</svg>
