<svg width="59" height="59" viewBox="0 0 59 59" fill="none" xmlns="http://www.w3.org/2000/svg">
<path d="M44.6667 2.16675C47.6122 2.16675 50 4.55456 50 7.50008V51.5001C50 54.4456 47.6122 56.8334 44.6667 56.8334H15.3333C12.3878 56.8334 10 54.4456 10 51.5001V7.50008C10 4.55456 12.3878 2.16675 15.3333 2.16675H44.6667ZM46 48.8334H14V51.5001C14 52.1839 14.5147 52.7474 15.1778 52.8244L15.3333 52.8334H44.6667C45.3504 52.8334 45.914 52.3187 45.991 51.6556L46 51.5001V48.8334ZM44.6667 6.16675H15.3333C14.6496 6.16675 14.086 6.68147 14.009 7.34459L14 7.50008V44.8334H46V7.50008C46 6.8163 45.4853 6.25274 44.8222 6.17572L44.6667 6.16675Z" fill="white"/>
<path fill-rule="evenodd" clip-rule="evenodd" d="M29.9987 18.1665C30.9981 18.1665 31.8626 18.394 32.2772 18.7248L32.4751 18.7242C35.0755 18.7242 37.3561 20.0931 38.6357 22.1495L38.6333 20.431C38.2862 20.2442 38.0495 19.8721 38.0495 19.4434C38.0495 18.8274 38.5384 18.328 39.1416 18.328C39.7447 18.328 40.2336 18.8274 40.2336 19.4434C40.2336 19.8721 39.9969 20.2442 39.6498 20.431L39.6502 22.9797C40.2567 23.511 40.6654 24.5104 40.6654 25.6558C40.6654 27.0478 40.0618 28.2242 39.2329 28.6069C38.1794 31.3101 35.5509 33.2253 32.4751 33.2253H27.6746C24.6242 33.2253 22.0137 31.3415 20.9431 28.6738C20.0245 28.3904 19.332 27.1467 19.332 25.6558C19.332 24.5104 19.7407 23.511 20.3472 22.9797L20.3476 20.431C20.0005 20.2442 19.7638 19.8721 19.7638 19.4434C19.7638 18.8274 20.2527 18.328 20.8558 18.328C21.459 18.328 21.9479 18.8274 21.9479 19.4434C21.9479 19.8721 21.7112 20.2442 21.3641 20.431L21.3629 22.404C22.6086 20.2068 24.9685 18.7242 27.6746 18.7242L27.7202 18.7248C28.1347 18.394 28.9993 18.1665 29.9987 18.1665ZM32.4807 20.8965H27.5167C24.6796 20.8965 22.3797 23.1964 22.3797 26.0335C22.3797 28.8706 24.6796 31.1705 27.5167 31.1705H32.4807C35.3178 31.1705 37.6177 28.8706 37.6177 26.0335C37.6177 23.1964 35.3178 20.8965 32.4807 20.8965Z" fill="white"/>
<path fill-rule="evenodd" clip-rule="evenodd" d="M30.0451 29.4743C31.2841 29.4743 32.2885 28.6784 32.2885 27.6967C32.2885 26.7149 31.2841 26.9245 30.0451 26.9245C28.8062 26.9245 27.8018 26.7149 27.8018 27.6967C27.8018 28.6784 28.8062 29.4743 30.0451 29.4743Z" fill="#CC4141"/>
<path d="M25.9359 26.3588C26.6723 26.3588 27.2692 25.7619 27.2692 25.0255C27.2692 24.2891 26.6723 23.6921 25.9359 23.6921C25.1995 23.6921 24.6025 24.2891 24.6025 25.0255C24.6025 25.7619 25.1995 26.3588 25.9359 26.3588Z" fill="white"/>
<path d="M34.0628 26.3588C34.7992 26.3588 35.3962 25.7619 35.3962 25.0255C35.3962 24.2891 34.7992 23.6921 34.0628 23.6921C33.3264 23.6921 32.7295 24.2891 32.7295 25.0255C32.7295 25.7619 33.3264 26.3588 34.0628 26.3588Z" fill="white"/>
</svg>
