<svg width="59" height="59" viewBox="0 0 59 59" fill="none" xmlns="http://www.w3.org/2000/svg">
<path d="M50.5398 21.947C48.1197 19.1666 44.3964 17.3821 40.2181 17.3821C36.1018 17.3821 32.4406 19.1043 30.0205 21.8225C32.4199 18.1499 36.5155 15.6599 41.1903 15.4939C41.3144 15.4939 41.4592 15.4939 41.604 15.5146C41.7901 15.5146 41.9763 15.5561 42.1831 15.5561C42.5968 15.5976 43.0519 15.6806 43.5276 15.8051C44.0034 15.9504 44.5412 16.0956 45.0583 16.3446C45.5754 16.5936 46.1132 16.8841 46.6097 17.2576C47.1268 17.6311 47.6025 18.0461 48.099 18.5026C48.5747 18.9383 49.0091 19.4571 49.3814 19.9966C49.5676 20.2663 49.7537 20.5361 49.9192 20.8266C50.0847 21.1171 50.2502 21.3868 50.395 21.698C50.457 21.7603 50.4984 21.864 50.5398 21.947Z" fill="#CC4141"/>
<path d="M52.1731 30.2883H51.8008V33.8158H52.1731V30.2883Z" fill="#CC4141"/>
<path d="M52.1525 34.542V38.0694H49.5049C50.3943 37.2602 51.1803 36.3265 51.7802 35.289V34.542H52.1525Z" fill="#CC4141"/>
<path d="M52.1739 38.8165C49.609 41.7007 45.8857 43.5059 41.7281 43.5059C36.8258 43.5059 32.5234 40.9744 30.0205 37.1565C32.4406 39.8747 36.1225 41.5969 40.2388 41.5969C43.4449 41.5969 46.3614 40.5594 48.6575 38.8165H52.1739Z" fill="#CC4141"/>
<path d="M54.7798 34.542C54.6557 34.874 54.5109 35.1852 54.3661 35.4965C53.9524 36.3472 53.4559 37.1565 52.8975 37.9242V34.542H54.7798Z" fill="#CC4141"/>
<path d="M55.6899 30.2883C55.6278 31.5126 55.4003 32.6953 55.028 33.8158H52.8975V30.2883H55.6899Z" fill="#CC4141"/>
<path d="M55.7109 29.4999V29.5622H52.9185C52.9185 29.4584 52.8978 29.3132 52.8978 29.1679C52.8564 28.5662 52.8151 27.7155 52.6909 26.678C52.5668 25.6405 52.3393 24.4163 51.9049 23.192C51.6774 22.5695 51.4085 21.9471 51.0569 21.3453C50.8914 21.0548 50.7052 20.7643 50.519 20.4738C50.3329 20.1833 50.126 19.9136 49.8985 19.6438C49.4641 19.1043 48.9677 18.5856 48.4506 18.1499C47.9335 17.7141 47.3957 17.2991 46.8578 16.9671C46.32 16.6144 45.7409 16.3446 45.2031 16.1164C44.6653 15.8882 44.1068 15.7637 43.6103 15.6392C43.5276 15.6184 43.4449 15.6184 43.3828 15.5977C50.3122 16.3861 55.7109 22.2998 55.7109 29.4999Z" fill="#CC4141"/>
<path d="M28.2206 24.4578C28.324 24.6238 28.4068 24.7898 28.4688 24.9765C28.3033 25.4745 28.1585 25.9932 28.0551 26.512L27.4346 26.5535C27.6207 25.8272 27.8896 25.1218 28.2206 24.4578Z" fill="white"/>
<path d="M29.565 22.5696C29.4822 22.6941 29.4202 22.8393 29.3374 22.9638L29.2754 22.7148C29.3168 22.6733 29.3581 22.6111 29.3788 22.5696H29.565Z" fill="white"/>
<path d="M28.5933 34.3345C28.5933 34.3553 28.5727 34.376 28.5727 34.376C28.4899 34.5005 28.4072 34.6043 28.3244 34.708C27.4971 33.1311 27.042 31.3466 27.042 29.4791C27.042 29.1056 27.0627 28.7321 27.104 28.3794C27.3523 28.5039 27.5798 28.6491 27.766 28.7944C27.7453 29.0226 27.7453 29.2509 27.7453 29.4791C27.7246 31.2013 28.0349 32.8406 28.5933 34.3345Z" fill="white"/>
<path d="M52.1531 34.542H48.6367V38.0694H52.1531V34.542Z" fill="white"/>
<path d="M52.1531 30.2883H48.6367V33.8158H52.1531V30.2883Z" fill="white"/>
<path d="M56.4139 34.542V38.0694H52.9181C52.9181 38.0902 52.8975 38.0902 52.8975 38.1109V34.542H56.4139Z" fill="white"/>
<path d="M56.4139 30.2883H52.8975V33.8158H56.4139V30.2883Z" fill="white"/>
<path d="M54.697 34.6665C54.5936 34.957 54.4902 35.2267 54.3661 35.5172C53.9938 36.4095 53.518 37.281 52.9181 38.0902C52.9181 38.1109 52.8975 38.1109 52.8975 38.1317V34.6665H54.697Z" fill="#CC4141"/>
<path d="M15.5616 29.8527C15.1893 29.2509 14.6101 28.7322 13.8034 28.3172C12.9967 27.9022 11.6522 27.4872 9.79056 27.093C9.02522 26.927 8.54947 26.761 8.36331 26.5742C8.15646 26.3875 8.05304 26.2007 8.05304 25.9725C8.05304 25.6613 8.17715 25.4123 8.42537 25.2048C8.67358 24.9973 9.04591 24.8935 9.54234 24.8935C10.1422 24.8935 10.6179 25.0388 10.9696 25.3085C11.3212 25.599 11.5281 26.0555 11.6522 26.678L15.665 26.4497C15.4789 25.018 14.9411 23.9598 14.0102 23.2958C13.0794 22.6318 11.7349 22.2998 9.97672 22.2998C8.52879 22.2998 7.41181 22.4866 6.58442 22.8393C5.75704 23.192 5.13649 23.7108 4.7228 24.3333C4.3091 24.9765 4.10226 25.6405 4.10226 26.346C4.10226 27.425 4.51595 28.3172 5.30197 29.0227C6.08799 29.7282 7.4325 30.2884 9.31481 30.7034C10.4525 30.9524 11.1971 31.2222 11.5074 31.5127C11.8177 31.8032 11.9831 32.1144 11.9831 32.4879C11.9831 32.8614 11.8177 33.1934 11.4867 33.4839C11.1558 33.7744 10.7007 33.8574 10.0801 33.8574C9.27344 33.8574 8.63221 33.6291 8.17715 33.0689C7.90825 32.7161 7.72208 32.2181 7.63935 31.5542L3.56445 31.8447C3.68856 33.2349 4.20568 34.3969 5.09512 35.3098C6.00525 36.2228 7.63935 36.6793 9.97672 36.6793C11.3212 36.6793 12.4175 36.4926 13.307 36.0983C14.1757 35.7041 14.879 35.1438 15.3548 34.3969C15.8512 33.6499 16.0994 32.8199 16.0994 31.9276C16.1201 31.1599 15.9339 30.4752 15.5616 29.8527Z" fill="white"/>
<path d="M29.2967 31.9277C29.2967 32.7991 29.0691 33.6084 28.5934 34.3346C28.5934 34.3554 28.5727 34.3761 28.5727 34.3761C28.49 34.5006 28.4072 34.6044 28.3245 34.7081C27.8694 35.2891 27.2489 35.7663 26.5042 36.0776C25.6355 36.4718 24.5185 36.6586 23.174 36.6586C20.8159 36.6586 19.2025 36.2021 18.2924 35.2891C17.3823 34.3761 16.8651 33.2349 16.7617 31.8239L20.8366 31.5749C20.9194 32.2389 21.1055 32.7369 21.3744 33.0896C21.8088 33.6499 22.45 33.8574 23.2567 33.8574C23.8566 33.8574 24.3323 33.7744 24.6633 33.4839C24.9942 33.1934 25.1597 32.8614 25.1597 32.4879C25.1597 32.1351 24.9942 31.8032 24.684 31.5334C24.3737 31.2429 23.6497 30.9732 22.4914 30.7242C20.6091 30.3092 19.2853 29.7489 18.4786 29.0434C17.6718 28.338 17.2788 27.4457 17.2788 26.3667C17.2788 25.6613 17.4857 24.9765 17.8994 24.354C18.3131 23.7108 18.9336 23.2128 19.761 22.86C20.5884 22.4866 21.7261 22.3206 23.1533 22.3206C24.9115 22.3206 26.2767 22.6526 27.1868 23.3165C27.6005 23.607 27.9522 24.0013 28.2211 24.4578C28.3245 24.6238 28.4072 24.7898 28.4693 24.9765C28.6554 25.4123 28.7796 25.9102 28.8416 26.4705L28.0556 26.512L27.435 26.5535L24.8288 26.6987C24.7253 26.0762 24.4978 25.6198 24.1669 25.3293C23.8152 25.0388 23.3395 24.9143 22.7396 24.9143C22.2432 24.9143 21.8708 25.018 21.6226 25.2255C21.3744 25.433 21.2503 25.7028 21.2503 25.9932C21.2503 26.2007 21.3537 26.4082 21.5606 26.595C21.7674 26.7817 22.2432 26.9477 22.9878 27.1137C24.8495 27.5287 26.194 27.923 27.0007 28.338C27.042 28.3587 27.0627 28.3795 27.1041 28.4002C27.3523 28.5247 27.5798 28.67 27.766 28.8152C28.1797 29.1264 28.5313 29.4792 28.7589 29.8734C29.1105 30.4752 29.2967 31.1599 29.2967 31.9277Z" fill="white"/>
<path d="M48.5951 22.5696L45.5545 36.4304H41.3555L38.9353 27.7155L36.5152 36.4304H32.3369L29.3376 22.9846V22.9638L29.2963 22.7148L29.2549 22.5696H33.3091L34.7777 30.33L36.9082 22.5696H40.9624L43.093 30.33L44.5616 22.5696H48.5951Z" fill="white"/>
<path d="M56.4139 30.2883H52.8975V33.8158H56.4139V30.2883Z" fill="white"/>
<path d="M52.1531 30.2883H48.6367V33.8158H52.1531V30.2883Z" fill="white"/>
<path d="M56.4139 34.542H52.8975V38.0694H56.4139V34.542Z" fill="white"/>
<path d="M52.1531 34.542H48.6367V38.0694H52.1531V34.542Z" fill="white"/>
</svg>
