<svg width="59" height="59" viewBox="0 0 59 59" fill="none" xmlns="http://www.w3.org/2000/svg">
<path d="M29.9876 30.9385C29.8642 30.9385 29.8642 30.9385 29.7409 30.9385C29.6175 30.9385 29.6175 30.9385 29.4941 30.9385L1.4934 22.2071C1.12335 22.0841 1 21.8382 1 21.4692C1 21.1003 1.2467 20.8544 1.4934 20.7314L29.3708 12C29.4942 12 29.4942 12 29.6175 12C29.7409 12 29.7409 12 29.8642 12L57.7416 20.7314C58.1117 20.8544 58.235 21.1003 58.235 21.4692C58.235 21.8382 57.9883 22.0841 57.7416 22.2071L29.9876 30.9385ZM14.1986 29.4628L28.5073 34.0129C28.8774 34.1359 29.2474 34.1359 29.7409 34.1359C30.1109 34.1359 30.481 34.1359 30.9744 34.0129L45.2831 29.4628L45.7765 37.3333C46.0232 40.8996 38.6221 43.7281 29.8642 43.7281C21.1063 43.7281 13.7052 40.8996 13.9519 37.3333L14.1986 29.4628Z" fill="white"/>
<path d="M46.2703 25.8962L27.7676 19.7473L30.728 18.8865L49.6008 24.7894L46.2703 25.8962Z" fill="#CC4141"/>
<path d="M49.3532 24.6667C50.9568 26.8803 51.6969 29.9548 51.8203 32.9062C52.8071 33.3981 53.4238 34.5049 53.4238 35.6117C53.4238 36.7185 52.8071 37.7023 51.9436 38.3172L53.4238 49.1392C53.4238 49.3852 53.4238 49.6311 53.1771 49.7541C53.0538 49.8771 52.8071 50 52.5604 50H47.7497C47.503 50 47.2563 49.8771 47.1329 49.7541C47.0096 49.6311 46.8862 49.3852 46.8862 49.1392L48.3664 38.3172C47.503 37.7023 46.8862 36.7185 46.8862 35.6117C46.8862 34.5049 47.503 33.3981 48.4898 32.9062C48.2431 29.5858 47.2563 26.7574 45.8994 25.6506L49.3532 24.6667Z" fill="#CC4141"/>
<path d="M30.8505 22.0842C29.617 22.0842 28.3835 21.5923 27.8901 20.7315C27.15 19.3787 28.3835 17.78 30.8505 17.78C33.3175 17.78 34.551 19.3787 33.8109 20.7315C33.3175 21.5923 32.084 22.0842 30.8505 22.0842Z" fill="#CC4141"/>
</svg>
