<svg width="59" height="59" viewBox="0 0 59 59" fill="none" xmlns="http://www.w3.org/2000/svg">
<path d="M12.8906 29.8171H10.1865V32.5196H12.8906V29.8171Z" fill="white"/>
<path d="M43.1897 29.8171H40.4893V32.5196H43.1897V29.8171Z" fill="white"/>
<path d="M27.8985 45.5906H25.4863V48.0049H27.8985V45.5906Z" fill="white"/>
<path d="M28.0486 14.3357H25.3408V17.0381H28.0486V14.3357Z" fill="white"/>
<path d="M55.0096 7.28596L51.7252 4L26.7133 28.9967L19.7177 22.0017L16.4297 25.2913L26.7133 35.5686L55.0096 7.28596Z" fill="#CC4141"/>
<path d="M44.2949 23.0885C45.4262 25.5503 46.0794 28.2782 46.0794 31.1667C46.0794 41.8634 37.4015 50.5396 26.6909 50.5396C15.9877 50.5396 7.30611 41.8634 7.30611 31.1667C7.30611 20.4663 15.9877 11.7937 26.6909 11.7937C30.1869 11.7937 33.4566 12.731 36.2812 14.3466L39.4159 11.2138C35.7374 8.86516 31.3802 7.49023 26.6982 7.49023C13.612 7.49023 3 18.0921 3 31.1667C3 44.2412 13.612 54.8431 26.6982 54.8431C39.7771 54.8431 50.3855 44.2449 50.3855 31.1667C50.3855 27.0747 49.3455 23.2271 47.5172 19.8682L44.2949 23.0885Z" fill="white"/>
</svg>
