<svg height="22" viewBox="0 0 52 22" width="52" xmlns="http://www.w3.org/2000/svg"><g fill="none" fill-rule="evenodd"><path d="m21.4664 5.4007c-.1362.0198-.2725.0388-.4086.0577l-.1113.0155c-.2976.0423-.596.0831-.8958.0957-.2979.0139-.5967.0113-.8953.0088-.0919-.0008-.1838-.0016-.2757-.0019-.7107-.0038-1.4089-.1099-2.0906-.3458-.5994-.207-1.1468-.5147-1.6539-.9299-.4395-.3606-.8005-.7937-1.1024-1.2659-.5204-.8162-.8712-1.7185-1.0496-2.6866-.0148-.0772-.0421-.1521-.0695-.2272-.0136-.0374-.0273-.0749-.0394-.1126-.015-.0033-.0313-.0059-.0476-.0085-.025.0522-.0506.104-.0762.1558-.0613.1242-.1225.2482-.1752.3759-.5215 1.2561-.6782 2.5845-.5117 3.9574.0484.4112.1747.8177.2996 1.2195.0174.0561.0348.1122.052.1681.1313.4334.3687.808.609 1.1871l.0371.0585c.4047.6375.9007 1.1724 1.4584 1.6381.4161.3462.8726.6397 1.3263.9314l.1525.0981c.5961.3864 1.2372.6719 1.8865.9352.0888.036.1777.0714.2669.106l.0064 3.9832 2.2325-1.728 2.0874 6.822c.1045.3417.3835.6017.7318.6819l3.1221.7191 3.1195-.719c.3482-.0803.6271-.3402.7317-.6819l2.0789-6.7943 2.1951 1.7002.0068-4.2338c.5292-.2246 1.0485-.4737 1.5374-.7906l.1525-.0981c.4537-.2917.9102-.5852 1.3263-.9314.5577-.4657 1.0537-1.0006 1.4584-1.6381l.037-.0585c.2404-.3791.4778-.7537.6091-1.1871.0172-.0559.0346-.112.052-.1681v-.0001c.1249-.4017.2512-.8082.2995-1.2194.1666-1.3729.0099-2.7013-.5116-3.9574-.0527-.1277-.1139-.2517-.1752-.3758l-.0001-.0003-.0001-.0002c-.0255-.0517-.051-.1034-.076-.1554-.0163.0026-.0326.0052-.0476.0085-.0121.0377-.0257.0751-.0393.1124l-.0001.0001v.0001c-.0274.0751-.0547.15-.0695.2272-.1784.9681-.5292 1.8704-1.0496 2.6866-.3019.4722-.6629.9053-1.1024 1.2659-.5071.4152-1.0545.7229-1.6539.9299-.6817.2359-1.3799.342-2.0906.3458-.0919.0003-.1838.0011-.2757.0019-.2987.0025-.5974.0051-.8953-.0088-.0525-.0022-.105-.0053-.1574-.0091l-5.4598-1.4651z" fill="#cc4141"/><g fill="#333" fill-rule="nonzero"><path d="m10.504 17.3227-10.504-4.6846v-1.0578l10.504-4.6845v1.1081l-9.204 4.1305 9.204 4.1305z"/><path d="m50.336 12.1344-9.256-4.1305v-1.1081l10.504 4.6845v1.1082l-10.504 4.6846v-1.1082z"/></g></g></svg>