<?xml version="1.0" encoding="UTF-8" standalone="no"?>
<!DOCTYPE svg PUBLIC "-//W3C//DTD SVG 1.1//EN" "http://www.w3.org/Graphics/SVG/1.1/DTD/svg11.dtd">
<svg width="100%" height="100%" viewBox="0 0 150 21" version="1.1" xmlns="http://www.w3.org/2000/svg" xmlns:xlink="http://www.w3.org/1999/xlink" xml:space="preserve" xmlns:serif="http://www.serif.com/" style="fill-rule:evenodd;clip-rule:evenodd;stroke-linejoin:round;stroke-miterlimit:2;">
    <g id="Artboard3" transform="matrix(1.10878,0,0,1,0,0)">
        <rect x="0" y="0" width="135" height="21" style="fill:none;"/>
        <clipPath id="_clip1">
            <rect x="0" y="0" width="135" height="21"/>
        </clipPath>
        <g clip-path="url(#_clip1)">
            <g id="Artboard2" transform="matrix(0.869679,0,0,1,0,0)">
                <rect x="0" y="0" width="140" height="21" style="fill:none;"/>
                <g transform="matrix(0.593896,0,0,0.609804,-8.69603,1.26129)">
                    <g transform="matrix(0.856879,0,0,0.804721,-19.6328,-14.8873)">
                        <path d="M60.2,48.7L40,39.4L40,37.3L60.2,28L60.2,30.2L42.5,38.4L60.2,46.6L60.2,48.7Z" style="fill:rgb(69,69,71);"/>
                    </g>
                    <g transform="matrix(0.856879,0,0,0.804721,-19.6328,-14.8873)">
                        <path d="M136.8,38.4L119,30.2L119,28L139.2,37.3L139.2,39.5L119,48.8L119,46.6L136.8,38.4Z" style="fill:rgb(69,69,71);"/>
                    </g>
                    <g transform="matrix(0.856879,0,0,0.804721,-19.6328,-14.8873)">
                        <path d="M89.581,18.5C99.57,18.5 107.663,26.641 107.663,36.678C107.663,40.669 106.383,44.361 104.213,47.36L108.23,51.411C109.31,52.5 109.308,54.256 108.226,55.343C107.152,56.421 105.408,56.424 104.33,55.35L104.318,55.338L100.318,51.305C97.316,53.536 93.602,54.855 89.581,54.855C79.593,54.855 71.5,46.715 71.5,36.678C71.5,26.641 79.593,18.5 89.581,18.5ZM89.581,21.5C81.254,21.5 74.5,28.294 74.5,36.678C74.5,45.062 81.254,51.855 89.581,51.855C97.909,51.855 104.663,45.062 104.663,36.678C104.663,28.294 97.909,21.5 89.581,21.5Z" style="fill:rgb(201,67,67);"/>
                    </g>
                    <g transform="matrix(0.856879,0,0,0.804721,-19.6328,-14.8873)">
                        <path d="M89.007,42.501L88.917,42.484C88.429,42.393 88.102,41.891 88.186,41.363L89.72,31.805C89.805,31.277 90.269,30.923 90.758,31.015L90.847,31.032C91.335,31.123 91.663,31.625 91.578,32.153L90.044,41.711C89.96,42.239 89.495,42.593 89.007,42.501ZM95.179,41.731C94.937,41.731 94.706,41.626 94.537,41.439C94.191,41.056 94.197,40.442 94.551,40.067L97.379,37.08L94.746,34.423C94.383,34.057 94.364,33.444 94.702,33.052C95.041,32.661 95.608,32.64 95.97,33.005L99.29,36.355C99.47,36.536 99.573,36.788 99.575,37.053C99.578,37.318 99.48,37.572 99.305,37.758L95.806,41.454C95.632,41.639 95.405,41.731 95.179,41.731ZM84.396,41.731C84.17,41.731 83.944,41.639 83.769,41.454L80.27,37.757C80.094,37.572 79.997,37.318 80,37.053C80.002,36.788 80.105,36.536 80.284,36.355L83.604,33.005C83.966,32.639 84.534,32.66 84.872,33.052C85.211,33.443 85.191,34.057 84.829,34.422L82.196,37.08L85.024,40.067C85.378,40.441 85.384,41.056 85.038,41.438C84.862,41.633 84.629,41.731 84.396,41.731Z" style="fill:rgb(69,69,71);"/>
                    </g>
                </g>
                <g transform="matrix(0.831766,0,0,0.854046,59.5765,-27.9403)">
                    <g transform="matrix(0.856879,0,0,0.804721,-19.6328,-14.8873)">
                        <path d="M31.336,83.408C35.56,83.408 38.488,80.696 38.872,76.4L35.224,76.4C34.936,78.68 33.64,80.24 31.336,80.24C27.952,80.24 26.68,77.36 26.68,74.504C26.68,71.504 27.952,68.624 31.336,68.624C33.184,68.624 34.816,69.92 35.08,71.624L38.728,71.624C38.272,67.664 35.08,65.456 31.336,65.456C26.056,65.456 22.912,69.416 22.912,74.504C22.912,79.448 26.056,83.408 31.336,83.408ZM47.104,83.336C51.016,83.336 53.536,80.744 53.536,76.808C53.536,72.848 51.016,70.256 47.104,70.256C43.216,70.256 40.696,72.848 40.696,76.808C40.696,80.744 43.216,83.336 47.104,83.336ZM47.104,80.768C44.8,80.768 44.104,78.8 44.104,76.808C44.104,74.816 44.8,72.824 47.104,72.824C49.432,72.824 50.128,74.816 50.128,76.808C50.128,78.8 49.432,80.768 47.104,80.768ZM60.784,83.336C62.392,83.336 63.76,82.76 64.552,81.416L64.6,81.416L64.6,83L67.84,83L67.84,65.864L64.432,65.864L64.432,72.104L64.384,72.104C63.616,70.88 62.176,70.256 60.712,70.256C57.064,70.256 55.216,73.352 55.216,76.688C55.216,80.144 57.04,83.336 60.784,83.336ZM61.624,80.768C59.512,80.768 58.624,78.728 58.624,76.784C58.624,74.768 59.392,72.824 61.624,72.824C63.832,72.824 64.552,74.744 64.552,76.76C64.552,78.8 63.856,80.768 61.624,80.768ZM76.144,83.336C78.952,83.336 80.992,82.112 81.952,79.16L78.952,79.16C78.736,79.928 77.632,80.768 76.264,80.768C74.344,80.768 73.312,79.808 73.216,77.624L82.168,77.624C82.432,73.808 80.368,70.256 76.144,70.256C72.376,70.256 69.808,73.088 69.808,76.808C69.808,80.648 72.232,83.336 76.144,83.336ZM78.76,75.464L73.216,75.464C73.288,74.504 73.84,72.824 76.048,72.824C77.704,72.824 78.448,73.736 78.76,75.464Z" style="fill:rgb(201,67,67);"/>
                    </g>
                    <g transform="matrix(0.856879,0,0,0.804721,-19.6328,-14.8873)">
                        <path d="M84.472,83L86.536,77.672L94.336,77.672L96.424,83L98.176,83L91.456,65.864L89.632,65.864L82.72,83L84.472,83ZM93.784,76.28L87.04,76.28L90.472,67.496L93.784,76.28ZM103.768,83.36C105.616,83.36 107.248,82.424 108.04,80.768L108.088,80.768L108.088,83L109.48,83L109.48,70.616L107.968,70.616L107.968,77.12C107.968,79.64 106.84,82.088 104.248,82.088C101.848,82.088 101.008,80.912 100.936,78.68L100.936,70.616L99.424,70.616L99.424,78.656C99.424,81.56 100.624,83.36 103.768,83.36ZM117.376,83.36C119.176,83.36 121.144,82.28 121.792,80.648L121.84,80.648L121.84,83L123.232,83L123.232,65.864L121.72,65.864L121.72,72.968L121.672,72.968C121.048,71.192 119.2,70.256 117.376,70.256C113.608,70.256 111.808,73.28 111.808,76.808C111.808,80.336 113.608,83.36 117.376,83.36ZM117.376,82.088C114.496,82.088 113.32,79.376 113.32,76.808C113.32,74.24 114.496,71.528 117.376,71.528C120.568,71.528 121.72,74.24 121.72,76.808C121.72,79.376 120.568,82.088 117.376,82.088ZM127.648,68.288L127.648,65.864L126.136,65.864L126.136,68.288L127.648,68.288ZM127.648,83L127.648,70.616L126.136,70.616L126.136,83L127.648,83ZM134.128,83.144C134.584,83.144 135.016,83.096 135.472,83.096L135.472,81.8C135.04,81.848 134.608,81.872 134.176,81.872C133.096,81.8 132.952,81.224 132.952,80.24L132.952,71.888L135.472,71.888L135.472,70.616L132.952,70.616L132.952,66.896L131.44,66.896L131.44,70.616L129.28,70.616L129.28,71.888L131.44,71.888L131.44,80.36C131.416,82.472 132.112,83.144 134.128,83.144ZM142.888,83.36C146.656,83.36 148.744,80.36 148.744,76.808C148.744,73.256 146.656,70.256 142.888,70.256C139.12,70.256 137.032,73.256 137.032,76.808C137.032,80.36 139.12,83.36 142.888,83.36ZM142.888,82.088C140.008,82.088 138.544,79.424 138.544,76.808C138.544,74.192 140.008,71.528 142.888,71.528C145.768,71.528 147.232,74.192 147.232,76.808C147.232,79.424 145.768,82.088 142.888,82.088ZM152.512,83L152.512,76.4C152.512,73.808 154.384,71.84 157.12,71.96L157.12,70.448C154.888,70.352 153.208,71.504 152.44,73.52L152.392,73.52L152.392,70.616L151,70.616L151,83L152.512,83Z" style="fill:rgb(69,69,71);"/>
                    </g>
                </g>
            </g>
        </g>
    </g>
</svg>
