<svg width="125" height="22" viewBox="0 0 125 22" fill="none" xmlns="http://www.w3.org/2000/svg">
<g clip-path="url(#clip0_169_227)">
<path d="M15.145 18.3821C14.9327 16.9451 15.0259 15.5502 15.3692 14.1659C15.7308 12.6973 16.1856 11.2508 16.9536 9.90611C17.4095 9.11115 17.9152 8.33978 18.4466 7.58552C18.8586 6.99986 19.3193 6.44457 19.8086 5.91022C20.1868 5.497 20.6254 5.12949 21.0498 4.76022C21.4061 4.45165 21.7793 4.14869 22.1661 3.87167C22.6227 3.54456 23.101 3.2375 23.5916 2.96316C24.1221 2.66613 24.6685 2.38149 25.2276 2.14697C26.0927 1.78812 26.9771 1.50445 27.8854 1.26884C29.2875 0.904817 30.7032 0.791968 32.128 0.791146C32.5206 0.788591 32.9102 0.82377 33.3103 0.881062C30.1585 1.39558 27.4464 2.7277 25.1639 4.87268C25.1849 4.91691 25.21 4.95819 25.2311 5.00241C25.5724 4.84095 25.9148 4.6727 26.262 4.5189C26.5551 4.38602 26.8499 4.26375 27.1477 4.14532C27.476 4.01687 27.8043 3.88842 28.1384 3.76763C28.7222 3.55699 29.2983 3.32808 29.8961 3.16078C30.5884 2.96727 31.2946 2.8171 32.0056 2.68138C32.7165 2.54565 33.4338 2.43499 34.1523 2.35911C35.4213 2.22087 36.6763 2.30609 37.9087 2.56169C39.0367 2.79723 40.1116 3.1716 41.1305 3.68098C41.1674 3.69602 41.202 3.72462 41.2295 3.75234C41.257 3.78006 41.2763 3.81367 41.3348 3.89034C41.042 3.89852 40.7885 3.90818 40.539 3.9149C38.9193 3.96048 37.3093 4.13548 35.7118 4.44374C34.58 4.66161 33.4527 4.93549 32.3301 5.22382C31.5733 5.41613 30.8222 5.65768 30.084 5.90778C29.5291 6.09779 28.9869 6.33791 28.4431 6.56743C27.891 6.80284 27.3418 7.04208 26.7973 7.29576C26.5582 7.40773 26.3267 7.53797 26.0993 7.66527C25.7357 7.87242 25.3691 8.07574 25.0229 8.30589C24.1685 8.87052 23.31 9.43809 22.476 10.0295C21.9988 10.3714 21.5409 10.7469 21.0988 11.1347C20.5667 11.6048 20.0476 12.0834 19.5589 12.5936C19.0066 13.1789 18.4848 13.7958 17.973 14.4174C17.5082 14.9756 17.0493 15.5415 16.6361 16.134C16.1547 16.8287 15.7289 17.5547 15.2803 18.2674C15.2549 18.3093 15.2079 18.3311 15.145 18.3821Z" fill="#CC4141"/>
<path d="M17.9907 17.6485C19.3068 20.2268 22.0497 22 25.22 22C29.6714 22 33.28 18.5044 33.28 14.1923C33.28 11.5931 31.9688 9.29047 29.9522 7.87134C29.9471 7.87347 29.9421 7.8756 29.937 7.87773C29.3849 8.11314 28.8357 8.35238 28.2912 8.60607C28.0588 8.71492 27.8335 8.84106 27.6122 8.96497L27.5933 8.97557C27.5478 9.00146 27.5023 9.02729 27.4568 9.05313C27.1383 9.23397 26.8197 9.41481 26.5169 9.6162C26.1158 9.88126 25.7138 10.147 25.3138 10.4155C27.4244 10.4638 29.12 12.1362 29.12 14.1923C29.12 16.2788 27.3739 17.9702 25.22 17.9702C23.0661 17.9702 21.32 16.2788 21.32 14.1923C21.32 13.9839 21.3374 13.7794 21.3709 13.5801C21.2636 13.6867 21.1575 13.7946 21.0528 13.9039C20.5006 14.4892 19.9788 15.1061 19.4669 15.7277C19.0022 16.2859 18.5433 16.8518 18.1301 17.4443C18.0831 17.5121 18.0367 17.5802 17.9907 17.6485Z" fill="#333333"/>
<path d="M10.504 18.3229L0 13.6383V12.5805L10.504 7.89587V9.00406L1.3 13.1346L10.504 17.265V18.3229Z" fill="#333333"/>
<path d="M50.336 13.1346L41.08 9.00406V7.89587L51.584 12.5805V13.6886L41.08 18.3732V17.265L50.336 13.1346Z" fill="#333333"/>
</g>
<path d="M117.808 12.9231H123.313C123.264 11.3571 122.275 9.89011 120.61 9.89011C118.896 9.89011 117.989 11.3736 117.808 12.9231ZM124.352 13.7967H117.808C117.808 15.3132 118.632 17.1429 120.61 17.1429C122.127 17.1429 122.951 16.2692 123.28 14.967H124.319C123.874 16.8956 122.769 18.0165 120.61 18.0165C117.907 18.0165 116.769 15.9396 116.769 13.5165C116.769 11.2747 117.907 9.01648 120.61 9.01648C123.33 9.01648 124.434 11.4066 124.352 13.7967Z" fill="#333333"/>
<path d="M112.008 17.7363L108.612 9.26379H109.716L112.519 16.5165L115.139 9.26379H116.178L112.486 19.0715C111.876 20.5056 111.546 20.9176 110.244 20.9176C109.832 20.9012 109.634 20.9012 109.453 20.8352V19.9616C109.7 20.0111 109.914 20.044 110.161 20.044C111.084 20.044 111.299 19.5001 111.645 18.7089L112.008 17.7363Z" fill="#333333"/>
<path d="M99.9948 17.7692V6H108.121V6.95604H101.116V11.2088H107.676V12.1648H101.116V16.8132H108.204V17.7692H99.9948Z" fill="#333333"/>
<path d="M92.1615 12.5934H95.9692C95.7549 11.4066 95.2439 10.7802 94.1065 10.7802C92.5901 10.7802 92.2109 11.9341 92.1615 12.5934ZM98.3098 14.0769H92.1615C92.2274 15.5769 92.9362 16.2363 94.2549 16.2363C95.1945 16.2363 95.9527 15.6593 96.1011 15.1319H98.1615C97.5022 17.1593 96.1011 18 94.1725 18C91.4857 18 89.8208 16.1538 89.8208 13.5165C89.8208 10.9615 91.5846 9.01648 94.1725 9.01648C97.0736 9.01648 98.4912 11.456 98.3098 14.0769Z" fill="#CC4141"/>
<path d="M86.0492 17.7692V6H88.3899V17.7692H86.0492Z" fill="#CC4141"/>
<path d="M79.879 15.7582C81.2141 15.7582 81.8735 14.6209 81.8735 13.4011C81.8735 12.0165 81.3955 10.7802 79.879 10.7802C78.5603 10.7802 77.9834 11.9341 77.9834 13.2033C77.9834 14.4231 78.4284 15.7582 79.879 15.7582ZM84.0987 9.24725V17.2253C84.0987 18.6264 83.5878 21 79.6812 21C77.9998 21 76.0548 20.1923 75.9229 18.2637H78.2471C78.4614 19.1374 79.1537 19.4341 79.9944 19.4341C81.2965 19.4341 81.89 18.5604 81.8735 17.3242V16.2033H81.8405C81.3295 17.1099 80.324 17.522 79.2856 17.522C76.7141 17.522 75.6427 15.5769 75.6427 13.2363C75.6427 11.0275 76.9284 9.01648 79.302 9.01648C80.4229 9.01648 81.2636 9.3956 81.8405 10.3846H81.8735V9.24725H84.0987Z" fill="#CC4141"/>
<path d="M68.683 11.8681H66.3424C66.4742 9.6923 68.4358 9.01648 70.3479 9.01648C72.0457 9.01648 74.0896 9.3956 74.0896 11.4396V15.8736C74.0896 16.6483 74.1721 17.4231 74.3863 17.7692H72.0127C71.9303 17.5055 71.8644 17.2253 71.8479 16.9451C71.1061 17.7198 70.0347 18 68.9797 18C67.3479 18 66.0786 17.1923 66.0786 15.4451C66.1116 11.5714 71.8479 13.6483 71.749 11.7363C71.749 10.7472 71.0567 10.5824 70.2325 10.5824C69.3259 10.5824 68.7655 10.9451 68.683 11.8681ZM71.749 14.4725V13.5989C71.3534 13.9451 70.5292 13.9615 69.8039 14.0934C69.0786 14.2253 68.4193 14.489 68.4193 15.3462C68.4193 16.2033 69.0951 16.4341 69.8534 16.4341C71.683 16.4341 71.749 15 71.749 14.4725Z" fill="#CC4141"/>
<path d="M56 17.7692V6H64.8022V8.17583H58.5879V10.6978H64.2912V12.7088H58.5879V15.5934H64.9341V17.7692H56Z" fill="#CC4141"/>
<defs>
<clipPath id="clip0_169_227">
<rect width="52" height="22" fill="white"/>
</clipPath>
</defs>
</svg>
