<svg width="100" height="75" viewBox="0 0 100 75" fill="none" xmlns="http://www.w3.org/2000/svg">
<g clip-path="url(#clip0_169_226)">
<path d="M29.1251 35.4189C28.7167 32.5663 28.896 29.797 29.5561 27.0488C30.2515 24.1333 31.1262 21.2617 32.6031 18.5922C33.4798 17.014 34.4523 15.4826 35.4743 13.9853C36.2666 12.8226 37.1525 11.7202 38.0935 10.6594C38.8208 9.83906 39.6642 9.10947 40.4804 8.37637C41.1655 7.76379 41.8834 7.16234 42.627 6.6124C43.5052 5.96301 44.425 5.35342 45.3684 4.80879C46.3887 4.21913 47.4393 3.65405 48.5146 3.18847C50.1784 2.47607 51.879 1.91292 53.6258 1.44517C56.3222 0.722504 59.0446 0.498472 61.7847 0.496841C62.5396 0.491769 63.2888 0.561607 64.0583 0.675345C57.9972 1.69679 52.7815 4.34134 48.392 8.59964C48.4325 8.68744 48.4808 8.76939 48.5213 8.85719C49.1776 8.53664 49.8362 8.20263 50.5038 7.89731C51.0674 7.63351 51.6344 7.39078 52.2071 7.15565C52.8384 6.90065 53.4698 6.64564 54.1124 6.40586C55.235 5.9877 56.343 5.53325 57.4925 5.20112C58.8238 4.81696 60.182 4.51883 61.5492 4.24939C62.9163 3.97994 64.2958 3.76025 65.6774 3.60961C68.1179 3.33518 70.5314 3.50435 72.9014 4.01179C75.0706 4.47938 77.1377 5.22259 79.097 6.23383C79.1681 6.26369 79.2345 6.32048 79.2875 6.3755C79.3404 6.43053 79.3775 6.49726 79.4901 6.64945C78.9269 6.66569 78.4393 6.68488 77.9597 6.69822C74.8448 6.78871 71.7486 7.13613 68.6766 7.74809C66.5 8.18061 64.3321 8.72433 62.1732 9.29673C60.7178 9.67852 59.2735 10.158 57.8539 10.6546C56.7867 11.0318 55.7441 11.5085 54.6982 11.9641C53.6365 12.4314 52.5803 12.9064 51.5332 13.41C51.0734 13.6323 50.6283 13.8909 50.191 14.1436C49.4917 14.5548 48.7866 14.9585 48.121 15.4154C46.4779 16.5363 44.8269 17.663 43.2232 18.8372C42.3054 19.5159 41.4248 20.2612 40.5746 21.0312C39.5514 21.9644 38.553 22.9146 37.6132 23.9274C36.5512 25.0894 35.5477 26.3141 34.5634 27.5481C33.6697 28.6564 32.7872 29.7798 31.9926 30.956C31.0667 32.3352 30.2479 33.7764 29.3851 35.1913C29.3364 35.2744 29.246 35.3177 29.1251 35.4189Z" fill="#333333"/>
<path d="M34.5975 33.9626C37.1285 39.0812 42.4032 42.6013 48.5 42.6013C57.0604 42.6013 64 35.6617 64 27.1013C64 21.9412 61.4785 17.37 57.6003 14.5527C57.5906 14.5569 57.5809 14.5611 57.5712 14.5654C56.5094 15.0327 55.4533 15.5077 54.4062 16.0113C53.9592 16.2274 53.526 16.4778 53.1004 16.7238L53.064 16.7448C52.9766 16.7962 52.8891 16.8475 52.8016 16.8988C52.189 17.2578 51.5764 17.6168 50.994 18.0166C50.2226 18.5428 49.4495 19.0703 48.6804 19.6034C52.7392 19.6992 56 23.0195 56 27.1013C56 31.2434 52.6421 34.6013 48.5 34.6013C44.3579 34.6013 41 31.2434 41 27.1013C41 26.6875 41.0335 26.2815 41.098 25.8859C40.8916 26.0976 40.6875 26.3117 40.4862 26.5287C39.4242 27.6907 38.4207 28.9154 37.4364 30.1494C36.5427 31.2576 35.6602 32.3811 34.8656 33.5572C34.7752 33.6918 34.6859 33.8269 34.5975 33.9626Z" fill="#333333"/>
<path d="M20.2 35.3013L0 26.0013V23.9013L20.2 14.6013V16.8013L2.5 25.0013L20.2 33.2013V35.3013Z" fill="#333333"/>
<path d="M96.8 25.0013L79 16.8013V14.6013L99.2 23.9013V26.1013L79 35.4013V33.2013L96.8 25.0013Z" fill="#333333"/>
</g>
<path d="M90.5162 63.0267H98.4898C98.4182 60.7587 96.9858 58.634 94.5746 58.634C92.0918 58.634 90.7788 60.7826 90.5162 63.0267ZM99.9938 64.292H90.5162C90.5162 66.4883 91.7099 69.1382 94.5746 69.1382C96.7709 69.1382 97.9646 67.8729 98.4421 65.9869H99.9461C99.3015 68.7801 97.702 70.4035 94.5746 70.4035C90.6595 70.4035 89.0122 67.3954 89.0122 63.8861C89.0122 60.6394 90.6595 57.3688 94.5746 57.3688C98.5137 57.3688 100.113 60.8304 99.9938 64.292Z" fill="#333333"/>
<path d="M82.1155 69.9977L77.1977 57.7269H78.7972L82.8556 68.2311L86.6514 57.7269H88.1554L82.8078 71.9314C81.9245 74.0083 81.4471 74.6052 79.5611 74.6052C78.9643 74.5813 78.6778 74.5813 78.4152 74.4858V73.2205C78.7733 73.2921 79.0836 73.3399 79.4417 73.3399C80.7786 73.3399 81.089 72.5521 81.5903 71.4062L82.1155 69.9977Z" fill="#333333"/>
<path d="M64.7175 70.0453V53H76.4869V54.3846H66.3409V60.5439H75.8423V61.9285H66.3409V68.6607H76.6063V70.0453H64.7175Z" fill="#333333"/>
<path d="M53.3726 62.5492H58.8872C58.5769 60.8304 57.8368 59.9232 56.1896 59.9232C53.9933 59.9232 53.4442 61.5943 53.3726 62.5492ZM62.2772 64.6978H53.3726C53.4681 66.8702 54.4946 67.8252 56.4045 67.8252C57.7652 67.8252 58.8634 66.9896 59.0782 66.2257H62.0624C61.1074 69.1621 59.0782 70.3796 56.2851 70.3796C52.3938 70.3796 49.9826 67.7058 49.9826 63.8861C49.9826 60.1858 52.537 57.3688 56.2851 57.3688C60.4867 57.3688 62.5398 60.902 62.2772 64.6978Z" fill="#333333"/>
<path d="M44.5202 70.0453V53H47.9101V70.0453H44.5202Z" fill="#333333"/>
<path d="M35.5838 67.1328C37.5175 67.1328 38.4725 65.4856 38.4725 63.719C38.4725 61.7137 37.7801 59.9232 35.5838 59.9232C33.674 59.9232 32.8384 61.5943 32.8384 63.4325C32.8384 65.1991 33.483 67.1328 35.5838 67.1328ZM41.6953 57.703V69.2575C41.6953 71.2868 40.9553 74.7245 35.2974 74.7245C32.8623 74.7245 30.0453 73.5547 29.8543 70.7615H33.2204C33.5307 72.0268 34.5334 72.4565 35.7509 72.4565C37.6369 72.4565 38.4963 71.1913 38.4725 69.4008V67.7774H38.4247C37.6847 69.0904 36.2284 69.6873 34.7244 69.6873C31.0002 69.6873 29.4485 66.8702 29.4485 63.4803C29.4485 60.2813 31.3106 57.3688 34.7483 57.3688C36.3716 57.3688 37.5892 57.9179 38.4247 59.3502H38.4725V57.703H41.6953Z" fill="#333333"/>
<path d="M19.3688 61.4988H15.9788C16.1698 58.3476 19.0107 57.3688 21.78 57.3688C24.2389 57.3688 27.1992 57.9179 27.1992 60.8781V67.3C27.1992 68.422 27.3185 69.544 27.6289 70.0454H24.1912C24.0718 69.6634 23.9763 69.2575 23.9524 68.8517C22.8781 69.9737 21.3264 70.3796 19.7985 70.3796C17.4351 70.3796 15.5969 69.2098 15.5969 66.6793C15.6446 61.0691 23.9524 64.0771 23.8092 61.3078C23.8092 59.8754 22.8065 59.6367 21.6129 59.6367C20.2999 59.6367 19.4882 60.1619 19.3688 61.4988ZM23.8092 65.2707V64.0055C23.2362 64.5068 22.0426 64.5307 20.9922 64.7217C19.9418 64.9127 18.9868 65.2946 18.9868 66.536C18.9868 67.7774 19.9656 68.1116 21.0638 68.1116C23.7137 68.1116 23.8092 66.0347 23.8092 65.2707Z" fill="#333333"/>
<path d="M1 70.0453V53H13.7482V56.1512H4.74807V59.8038H13.0081V62.7163H4.74807V66.8941H13.9392V70.0453H1Z" fill="#333333"/>
<defs>
<clipPath id="clip0_169_226">
<rect width="100" height="43" fill="white"/>
</clipPath>
</defs>
</svg>
