<?xml version="1.0" encoding="UTF-8"?>
<svg width="180px" height="108px" viewBox="0 0 180 108" version="1.1" xmlns="http://www.w3.org/2000/svg" xmlns:xlink="http://www.w3.org/1999/xlink">
    <title>LinkAuditor_BW</title>
    <g id="LinkAuditor_BW" stroke="none" stroke-width="1" fill="none" fill-rule="evenodd">
        <g id="Group-3" transform="translate(28.000000, 22.000000)" fill="#000000" fill-rule="nonzero">
            <g id="Group-4" transform="translate(11.000000, 0.000000)">
                <g id="Group-2">
                    <polygon id="Path" points="20.2 29.7 0 20.4 0 18.3 20.2 9 20.2 11.2 2.5 19.4 20.2 27.6"></polygon>
                    <polygon id="Path" points="96.8 19.4 79 11.2 79 9 99.2 18.3 99.2 20.5 79 29.8 79 27.6"></polygon>
                    <g id="Group" transform="translate(29.000000, 0.000000)">
                        <path d="M23.0105921,15.0054586 C23.5253816,14.9658895 24.0064333,15.1438588 24.3604814,15.4608654 C24.651124,15.6861969 24.9281208,15.9287915 25.1904951,16.1863083 C28.7781495,19.719005 28.9514237,25.390724 25.5859099,29.1292685 C25.5338898,29.1945202 25.4781412,29.2568062 25.4189342,29.3158246 L25.4189342,29.3158246 L25.1904951,29.5407003 L16.4473221,38.1484999 C16.4424288,38.1589614 16.4362351,38.1687845 16.4288831,38.1777438 C16.4121848,38.1975083 16.3944022,38.21636 16.3756148,38.2342149 C12.6294664,41.9219284 6.55575974,41.9219284 2.80961132,38.2342149 C-0.936537106,34.5465013 -0.936537106,28.5675364 2.80961132,24.8798229 L2.80961132,24.8798229 L2.86185523,24.8273855 L2.89258695,24.7971332 L7.05320699,20.6998285 C7.35270784,20.3370931 7.79676185,20.0910954 8.30751517,20.0515492 C9.03244023,19.9954203 9.72032837,20.3747024 10.0504038,21.0125288 C10.3804793,21.6503553 10.2877358,22.4211099 9.81542129,22.9653748 C9.79657734,22.9870894 9.77727727,23.0082728 9.75754354,23.0289188 L9.76829604,23.0394721 L5.54780714,27.194127 C5.47507542,27.2536233 5.40849004,27.3151364 5.34292904,27.3796747 C3.82887194,28.8701146 3.23756533,31.0424779 3.79174869,33.0784566 C4.34593206,35.1144353 5.96141175,36.7047157 8.02965222,37.2502545 C10.0978927,37.7957934 12.304679,37.2137104 13.8187361,35.7232705 C13.8699556,35.6678079 13.9242483,35.6194041 13.9723947,35.5669668 L13.9723947,35.5669668 L22.6899579,26.9863943 C24.9877398,24.6769596 24.9680917,20.9768635 22.6459091,18.6912022 C22.4504384,18.4956332 22.2401764,18.3149452 22.0169333,18.1506937 L22.0169333,18.1506937 C21.6496643,17.8509165 21.3984596,17.4126332 21.3582502,16.9083309 C21.320931,16.4402765 21.4740709,15.9768052 21.7839643,15.6199254 C22.0938577,15.2630455 22.535106,15.0420066 23.0105921,15.0054586 Z" id="Combined-Shape"></path>
                        <path d="M25.0538966,2.36879047 C28.8502472,-0.935429387 34.606204,-0.763137707 38.191141,2.76202447 C41.7760779,6.28718664 41.9512911,11.9471694 38.5910429,15.6802202 C38.5390953,15.7454097 38.4833703,15.8076013 38.4241452,15.8664856 L38.4241452,15.8664856 L38.1958127,16.0910108 L33.8961511,20.3205116 C33.4213506,20.8095869 32.7006165,20.9912983 32.0411357,20.7804946 C31.3499153,20.5595452 30.8621177,19.950904 30.8052127,19.2383922 C30.7620621,18.6981004 30.9708117,18.1955119 31.334448,17.842297 L35.6974663,13.5487402 C37.9424771,11.242332 37.9091844,7.59677242 35.6224131,5.33038161 C33.3356418,3.06399081 29.6286422,3.00259292 27.2655474,5.19196942 L27.2655474,5.19196942 L18.5571722,13.7551424 C18.4844744,13.8165596 18.4179201,13.87697 18.3523897,13.9414078 C16.0143079,16.2423894 16.0143079,19.9710191 18.3523897,22.2720007 C18.5763088,22.4884669 18.8097293,22.6818506 18.9874088,22.8257591 C19.0170557,22.8455519 19.0457873,22.8683115 19.0738158,22.8919533 L19.1520653,22.9586655 C19.2921973,23.0948448 19.412429,23.2527471 19.5046914,23.430837 C19.8346128,24.0676695 19.7419125,24.837223 19.2698185,25.3806397 C18.7977245,25.9240563 18.0392127,26.1343135 17.3479923,25.9133642 C17.1187303,25.8400803 16.9118469,25.7241467 16.7356417,25.5759191 C16.4099457,25.3268708 16.1001419,25.0578747 15.8079673,24.7709772 C12.0640109,21.08883 12.0640109,15.1195443 15.8079673,11.437397 L15.8079673,11.437397 L15.8612107,11.3860482 L15.8919281,11.355843 L24.8644728,2.53290537 C24.9222852,2.47252564 24.9857013,2.41758249 25.0538966,2.36879047 Z" id="Combined-Shape"></path>
                    </g>
                </g>
            </g>
            <g id="LinkAuditor" transform="translate(0.656000, 45.864000)">
                <path d="M12.12,17.136 L12.12,13.968 L3.768,13.968 L3.768,-1.42108547e-14 L3.55271368e-14,-1.42108547e-14 L3.55271368e-14,17.136 L12.12,17.136 Z M17.376,2.808 L17.376,-1.42108547e-14 L13.968,-1.42108547e-14 L13.968,2.808 L17.376,2.808 Z M17.376,17.136 L17.376,4.728 L13.968,4.728 L13.968,17.136 L17.376,17.136 Z M23.472,17.136 L23.472,10.632 C23.472,8.112 24.264,7.08 26.112,7.08 C27.72,7.08 28.296,8.088 28.296,10.128 L28.296,17.136 L31.704,17.136 L31.704,9.504 C31.704,6.432 30.792,4.392 27.168,4.392 C25.728,4.392 24.24,5.04 23.376,6.456 L23.304,6.456 L23.304,4.728 L20.064,4.728 L20.064,17.136 L23.472,17.136 Z M38.016,17.136 L38.016,12.864 L39.336,11.592 L42.744,17.136 L46.872,17.136 L41.664,9.288 L46.344,4.728 L42.312,4.728 L38.016,9.192 L38.016,-1.42108547e-14 L34.608,-1.42108547e-14 L34.608,17.136 L38.016,17.136 Z" id="Link"></path>
                <path d="M48.36,17.136 L50.424,11.808 L58.224,11.808 L60.312,17.136 L62.064,17.136 L55.344,-6.39488462e-14 L53.52,-6.39488462e-14 L46.608,17.136 L48.36,17.136 Z M57.672,10.416 L50.928,10.416 L54.36,1.632 L57.672,10.416 Z M67.656,17.496 C69.504,17.496 71.136,16.56 71.928,14.904 L71.976,14.904 L71.976,17.136 L73.368,17.136 L73.368,4.752 L71.856,4.752 L71.856,11.256 C71.856,13.776 70.728,16.224 68.136,16.224 C65.736,16.224 64.896,15.048 64.824,12.816 L64.824,4.752 L63.312,4.752 L63.312,12.792 C63.312,15.696 64.512,17.496 67.656,17.496 Z M81.264,17.496 C83.064,17.496 85.032,16.416 85.68,14.784 L85.728,14.784 L85.728,17.136 L87.12,17.136 L87.12,-6.39488462e-14 L85.608,-6.39488462e-14 L85.608,7.104 L85.56,7.104 C84.936,5.328 83.088,4.392 81.264,4.392 C77.496,4.392 75.696,7.416 75.696,10.944 C75.696,14.472 77.496,17.496 81.264,17.496 Z M81.264,16.224 C78.384,16.224 77.208,13.512 77.208,10.944 C77.208,8.376 78.384,5.664 81.264,5.664 C84.456,5.664 85.608,8.376 85.608,10.944 C85.608,13.512 84.456,16.224 81.264,16.224 Z M91.536,2.424 L91.536,-6.39488462e-14 L90.024,-6.39488462e-14 L90.024,2.424 L91.536,2.424 Z M91.536,17.136 L91.536,4.752 L90.024,4.752 L90.024,17.136 L91.536,17.136 Z M98.016,17.28 C98.472,17.28 98.904,17.232 99.36,17.232 L99.36,15.936 C98.928,15.984 98.496,16.008 98.064,16.008 C96.984,15.936 96.84,15.36 96.84,14.376 L96.84,6.024 L99.36,6.024 L99.36,4.752 L96.84,4.752 L96.84,1.032 L95.328,1.032 L95.328,4.752 L93.168,4.752 L93.168,6.024 L95.328,6.024 L95.328,14.496 C95.304,16.608 96,17.28 98.016,17.28 Z M106.776,17.496 C110.544,17.496 112.632,14.496 112.632,10.944 C112.632,7.392 110.544,4.392 106.776,4.392 C103.008,4.392 100.92,7.392 100.92,10.944 C100.92,14.496 103.008,17.496 106.776,17.496 Z M106.776,16.224 C103.896,16.224 102.432,13.56 102.432,10.944 C102.432,8.328 103.896,5.664 106.776,5.664 C109.656,5.664 111.12,8.328 111.12,10.944 C111.12,13.56 109.656,16.224 106.776,16.224 Z M116.4,17.136 L116.4,10.536 C116.4,7.944 118.272,5.976 121.008,6.096 L121.008,4.584 C118.776,4.488 117.096,5.64 116.328,7.656 L116.28,7.656 L116.28,4.752 L114.888,4.752 L114.888,17.136 L116.4,17.136 Z" id="Auditor"></path>
            </g>
        </g>
    </g>
</svg>