<?xml version="1.0" encoding="UTF-8"?>
<svg width="180px" height="108px" viewBox="0 0 180 108" version="1.1" xmlns="http://www.w3.org/2000/svg" xmlns:xlink="http://www.w3.org/1999/xlink">
    <title>LinkAuditor_horizontal</title>
    <g id="LinkAuditor_horizontal" stroke="none" stroke-width="1" fill="none" fill-rule="evenodd">
        <g id="Group-3" transform="translate(20.000000, 43.000000)" fill-rule="nonzero">
            <g id="Group-2">
                <polygon id="Path" fill="#333333" points="10.706 16.4731707 0 11.4829268 0 10.3560976 10.706 5.36585366 10.706 6.54634146 1.325 10.9463415 10.706 15.3463415"></polygon>
                <polygon id="Path" fill="#333333" points="51.304 10.9463415 41.87 6.54634146 41.87 5.36585366 52.576 10.3560976 52.576 11.5365854 41.87 16.5268293 41.87 15.3463415"></polygon>
                <g id="Group" transform="translate(15.370000, 0.000000)">
                    <path d="M12.1956138,8.0517095 C12.4679012,8.0305202 12.7223797,8.12558775 12.9099174,8.29504437 C13.0643507,8.41632321 13.2115512,8.54680586 13.3509624,8.68533618 C15.2524192,10.5809295 15.3442545,13.6242909 13.5605322,15.6303392 C13.5329616,15.6653523 13.5034148,15.6987741 13.4720351,15.7304425 L13.4720351,15.7304425 L13.3509624,15.8511075 L8.71708074,20.4699268 C8.71448727,20.4755403 8.7112046,20.4808112 8.70730805,20.4856186 C8.69845796,20.496224 8.68903318,20.5063395 8.67907585,20.5159202 C6.69361719,22.4946933 3.47455266,22.4946933 1.489094,20.5159202 C-0.496364666,18.5371471 -0.496364666,15.328922 1.489094,13.3501489 L1.489094,13.3501489 L1.51678327,13.3220117 L1.53307108,13.3057788 L3.74029743,11.1046619 C3.8990049,10.9114282 4.13347371,10.7804945 4.40298304,10.7593679 C4.78719332,10.7292499 5.15177403,10.9327671 5.32671404,11.2750155 C5.50165404,11.6172638 5.45249995,12.0308395 5.20217328,12.322884 C5.19228384,12.3344216 5.18215735,12.3456797 5.1718054,12.3566551 L5.1771969,12.3626436 L2.94033779,14.5919706 C2.90178997,14.6238954 2.86649972,14.6569025 2.83175239,14.6915328 C2.02930213,15.491281 1.71590962,16.6569394 2.00962681,17.7494158 C2.30334399,18.8418921 3.15954823,19.6952133 4.25571568,19.9879415 C5.35188313,20.2806696 6.52147987,19.9683324 7.32393014,19.1685842 C7.35107648,19.1388237 7.37985161,19.112851 7.40536918,19.0847139 L7.40536918,19.0847139 L12.0256777,14.4805042 C13.2435021,13.2412954 13.2330886,11.255878 12.0023318,10.0294256 C11.8987323,9.92448613 11.7872935,9.82753156 11.6689747,9.73939663 L11.6689747,9.73939663 C11.474569,9.57897643 11.3412033,9.34361496 11.3198726,9.07276292 C11.3000934,8.82161178 11.3812576,8.57291988 11.5455011,8.38142337 C11.7097446,8.18992685 11.9436062,8.07132063 12.1956138,8.0517095 Z" id="Combined-Shape" fill="#333333"></path>
                    <path d="M17.9116014,10.9551604 C17.6612645,11.1784613 17.3074436,11.2558943 16.9818019,11.1505093 C16.6154551,11.0319511 16.3569224,10.7053631 16.3267627,10.3230397 C16.3040169,10.0346989 16.4133344,9.76637032 16.6041299,9.57700526 L16.6046116,9.57694684 L18.9196572,7.27005572 C20.1095128,6.03247084 20.0918677,4.07631691 18.8798789,2.86020477 C17.6678902,1.64409263 15.7031804,1.61114742 14.4507401,2.78593481 L14.4507401,2.78593481 L9.83530124,7.38080811 C9.79677142,7.41376369 9.76149763,7.44617902 9.72676652,7.48075538 C8.48758316,8.71542844 8.48758316,10.7161566 9.72676652,11.9508296 C9.88739791,12.108044 10.0572547,12.2425676 10.1505946,12.3192839 L10.1057378,12.2806104 C10.1103202,12.2844868 10.1148675,12.2884079 10.1193792,12.2923735 L10.1505946,12.3192839 C10.2248642,12.3923553 10.2885872,12.4770835 10.3374864,12.5726443 C10.5123448,12.9143592 10.4632136,13.3272904 10.2130038,13.6188798 C9.96279396,13.9104692 9.56078276,14.0232902 9.1944359,13.904732 C9.07232028,13.8652126 8.96218402,13.8025788 8.86849225,13.7224711 L8.70011139,13.5865853 C8.58884535,13.4927347 8.48145767,13.3943738 8.37822265,13.2917439 C6.39392578,11.3159575 6.39392578,8.1129262 8.37822265,6.13713987 L8.37822265,6.13713987 L8.42272188,6.09337917 L13.1781706,1.35911995 C13.2088111,1.32672107 13.2424217,1.29723939 13.2785652,1.2710583 C15.290631,-0.50193772 18.3412881,-0.409488526 20.2413047,1.48206191 C22.1413213,3.37361234 22.2341843,6.41067629 20.4532527,8.41377668 C20.4257205,8.44875642 20.3961863,8.48212751 20.3647969,8.51372395 L20.3647969,8.51372395 L20.2437807,8.63420094 L17.9498995,10.9178611 Z" id="Combined-Shape" fill="#CC4141"></path>
                </g>
            </g>
            <g id="LinkAuditor" transform="translate(60.000000, 5.000000)">
                <path d="M8.07335526,11.6836364 L8.07335526,9.52363636 L2.50993421,9.52363636 L2.50993421,-4.16636422e-14 L7.57288968e-15,-4.16636422e-14 L7.57288968e-15,11.6836364 L8.07335526,11.6836364 Z M11.5744737,1.91454545 L11.5744737,-4.16636422e-14 L9.30434211,-4.16636422e-14 L9.30434211,1.91454545 L11.5744737,1.91454545 Z M11.5744737,11.6836364 L11.5744737,3.22363636 L9.30434211,3.22363636 L9.30434211,11.6836364 L11.5744737,11.6836364 Z M15.6351316,11.6836364 L15.6351316,7.24909091 C15.6351316,5.53090909 16.1626974,4.82727273 17.3936842,4.82727273 C18.4648026,4.82727273 18.8484868,5.51454545 18.8484868,6.90545455 L18.8484868,11.6836364 L21.1186184,11.6836364 L21.1186184,6.48 C21.1186184,4.38545455 20.5111184,2.99454545 18.0971053,2.99454545 C17.1378947,2.99454545 16.1467105,3.43636364 15.5711842,4.40181818 L15.5232237,4.40181818 L15.5232237,3.22363636 L13.365,3.22363636 L13.365,11.6836364 L15.6351316,11.6836364 Z M25.3231579,11.6836364 L25.3231579,8.77090909 L26.2024342,7.90363636 L28.4725658,11.6836364 L31.2223026,11.6836364 L27.7531579,6.33272727 L30.8705921,3.22363636 L28.1848026,3.22363636 L25.3231579,6.26727273 L25.3231579,-4.16636422e-14 L23.0530263,-4.16636422e-14 L23.0530263,11.6836364 L25.3231579,11.6836364 Z" id="Link" fill="#CC4141"></path>
                <path d="M32.2134868,11.6836364 L33.5883553,8.05090909 L38.7840789,8.05090909 L40.1749342,11.6836364 L41.3419737,11.6836364 L36.8656579,-2.90676574e-14 L35.6506579,-2.90676574e-14 L31.0464474,11.6836364 L32.2134868,11.6836364 Z M38.4163816,7.10181818 L33.9240789,7.10181818 L36.2101974,1.11272727 L38.4163816,7.10181818 Z M45.0669079,11.9290909 C46.2978947,11.9290909 47.385,11.2909091 47.9125658,10.1618182 L47.9445395,10.1618182 L47.9445395,11.6836364 L48.8717763,11.6836364 L48.8717763,3.24 L47.8646053,3.24 L47.8646053,7.67454545 C47.8646053,9.39272727 47.1132237,11.0618182 45.3866447,11.0618182 C43.7879605,11.0618182 43.2284211,10.26 43.1804605,8.73818182 L43.1804605,3.24 L42.1732895,3.24 L42.1732895,8.72181818 C42.1732895,10.7018182 42.9726316,11.9290909 45.0669079,11.9290909 Z M54.1314474,11.9290909 C55.3304605,11.9290909 56.6413816,11.1927273 57.0730263,10.08 L57.105,10.08 L57.105,11.6836364 L58.0322368,11.6836364 L58.0322368,-2.90676574e-14 L57.0250658,-2.90676574e-14 L57.0250658,4.84363636 L56.9930921,4.84363636 C56.5774342,3.63272727 55.3464474,2.99454545 54.1314474,2.99454545 C51.6215132,2.99454545 50.4225,5.05636364 50.4225,7.46181818 C50.4225,9.86727273 51.6215132,11.9290909 54.1314474,11.9290909 Z M54.1314474,11.0618182 C52.2130263,11.0618182 51.4296711,9.21272727 51.4296711,7.46181818 C51.4296711,5.71090909 52.2130263,3.86181818 54.1314474,3.86181818 C56.2576974,3.86181818 57.0250658,5.71090909 57.0250658,7.46181818 C57.0250658,9.21272727 56.2576974,11.0618182 54.1314474,11.0618182 Z M60.9738158,1.65272727 L60.9738158,-2.90676574e-14 L59.9666447,-2.90676574e-14 L59.9666447,1.65272727 L60.9738158,1.65272727 Z M60.9738158,11.6836364 L60.9738158,3.24 L59.9666447,3.24 L59.9666447,11.6836364 L60.9738158,11.6836364 Z M65.2902632,11.7818182 C65.5940132,11.7818182 65.8817763,11.7490909 66.1855263,11.7490909 L66.1855263,10.8654545 C65.8977632,10.8981818 65.61,10.9145455 65.3222368,10.9145455 C64.6028289,10.8654545 64.5069079,10.4727273 64.5069079,9.80181818 L64.5069079,4.10727273 L66.1855263,4.10727273 L66.1855263,3.24 L64.5069079,3.24 L64.5069079,0.703636364 L63.4997368,0.703636364 L63.4997368,3.24 L62.0609211,3.24 L62.0609211,4.10727273 L63.4997368,4.10727273 L63.4997368,9.88363636 C63.48375,11.3236364 63.9473684,11.7818182 65.2902632,11.7818182 Z M71.1254605,11.9290909 C73.6353947,11.9290909 75.02625,9.88363636 75.02625,7.46181818 C75.02625,5.04 73.6353947,2.99454545 71.1254605,2.99454545 C68.6155263,2.99454545 67.2246711,5.04 67.2246711,7.46181818 C67.2246711,9.88363636 68.6155263,11.9290909 71.1254605,11.9290909 Z M71.1254605,11.0618182 C69.2070395,11.0618182 68.2318421,9.24545455 68.2318421,7.46181818 C68.2318421,5.67818182 69.2070395,3.86181818 71.1254605,3.86181818 C73.0438816,3.86181818 74.0190789,5.67818182 74.0190789,7.46181818 C74.0190789,9.24545455 73.0438816,11.0618182 71.1254605,11.0618182 Z M77.5361842,11.6836364 L77.5361842,7.18363636 C77.5361842,5.41636364 78.7831579,4.07454545 80.6056579,4.15636364 L80.6056579,3.12545455 C79.1188816,3.06 77.9998026,3.84545455 77.4882237,5.22 L77.45625,5.22 L77.45625,3.24 L76.5290132,3.24 L76.5290132,11.6836364 L77.5361842,11.6836364 Z" id="Auditor" fill="#333333"></path>
            </g>
        </g>
    </g>
</svg>