<?xml version="1.0" encoding="UTF-8"?>
<svg width="180px" height="108px" viewBox="0 0 180 108" version="1.1" xmlns="http://www.w3.org/2000/svg" xmlns:xlink="http://www.w3.org/1999/xlink">
    <title>SmashingBarrier</title>
    <g id="SmashingBarrier" stroke="none" stroke-width="1" fill="none" fill-rule="evenodd">
        <g id="Group-19" transform="translate(1.000000, 17.000000)" fill-rule="nonzero">
            <g id="Group-3" transform="translate(0.000000, 49.000000)">
                <g id="SmashingBarrier" transform="translate(0.029144, 0.675300)">
                    <path d="M7.20585575,17.7276 C11.8273557,17.7276 14.2447557,15.405 14.2447557,12.3003 C14.2447557,8.4846 10.4764557,7.6551 9.22035575,7.3707 C4.97805575,6.3042 4.17225575,6.1146 4.17225575,4.8111 C4.17225575,3.3891 5.54685575,2.8914 6.73185575,2.8914 C8.53305575,2.8914 9.95505575,3.4365 10.0735557,5.451 L13.6759557,5.451 C13.6759557,1.5405 10.4290557,-1.77635684e-15 6.89775575,-1.77635684e-15 C3.84045575,-1.77635684e-15 0.569855747,1.6353 0.569855747,5.1192 C0.569855747,8.2476 3.10575575,9.3141 5.61795575,9.9303 C8.08275575,10.6176 10.6423557,10.8783 10.6423557,12.7269 C10.6423557,14.457 8.65155575,14.8362 7.34805575,14.8362 C5.35725575,14.8362 3.60345575,13.9593 3.60345575,11.7078 L0.00105574707,11.7078 C-0.0700442529,15.879 3.46125575,17.7276 7.20585575,17.7276 Z M19.5535557,17.3247 L19.5535557,10.2147 C19.5535557,7.821 21.1651557,7.3944 21.8287557,7.3944 C23.6951307,7.3944 23.8558464,8.64642656 23.8668632,9.91206211 L23.8669557,17.3247 L27.2323557,17.3247 L27.2323557,10.4991 C27.2323557,8.9823 27.5878557,7.3944 29.4838557,7.3944 C31.3395657,7.3944 31.5343007,8.656741 31.5452212,10.2180575 L31.5457557,17.3247 L34.9111557,17.3247 L34.9111557,9.1245 C34.9111557,5.9487 33.0388557,4.74 30.4318557,4.74 C28.7254557,4.74 27.4693557,5.7117 26.7346557,6.7782 C26.0710557,5.2851 24.6964557,4.74 23.1559557,4.74 C21.5443557,4.74 20.2882557,5.4747 19.4113557,6.7308 L19.3639557,6.7308 L19.3639557,5.0718 L16.1881557,5.0718 L16.1881557,17.3247 L19.5535557,17.3247 Z M41.2153557,17.6565 C42.7321557,17.6565 44.2726557,17.2536 45.3391557,16.1397 C45.3628557,16.5426 45.4576557,16.9455 45.5761557,17.3247 L48.9889557,17.3247 C48.6808557,16.827 48.5623557,15.7131 48.5623557,14.5992 L48.5623557,8.2239 C48.5623557,5.2851 45.6235557,4.74 43.1824557,4.74 C40.4332557,4.74 37.6129557,5.7117 37.4233557,8.8401 L40.7887557,8.8401 C40.9072557,7.5129 41.7130557,6.9915 43.0165557,6.9915 C44.2015557,6.9915 45.1969557,7.2285 45.1969557,8.6505 C45.3391557,11.3997 37.0915557,8.4135 37.0441557,13.983 C37.0441557,16.4952 38.8690557,17.6565 41.2153557,17.6565 Z M42.4714557,15.405 C41.3812557,15.405 40.4095557,15.0732 40.4095557,13.8408 C40.4095557,12.6084 41.3575557,12.2292 42.4003557,12.0396 C43.4431557,11.85 44.6281557,11.8263 45.1969557,11.3286 L45.1969557,12.5847 C45.1969557,13.3431 45.1021557,15.405 42.4714557,15.405 Z M56.3359557,17.6565 C59.1088557,17.6565 61.9291557,16.6137 61.9291557,13.3905 C61.9291557,11.1153 60.0094557,10.4043 58.0423557,9.954 C56.1463557,9.5037 54.2266557,9.3378 54.2266557,8.1291 C54.2266557,7.11 55.3405557,6.9915 56.0989557,6.9915 C57.3076557,6.9915 58.3030557,7.347 58.3978557,8.6505 L61.5973557,8.6505 C61.3366557,5.6406 58.8481557,4.74 56.1937557,4.74 C53.5630557,4.74 50.8612557,5.5458 50.8612557,8.6742 C50.8612557,10.8546 52.7809557,11.4945 54.7480557,11.9448 C57.1417557,12.4425 58.5637557,12.8217 58.5637557,13.8408 C58.5637557,15.0258 57.3076557,15.405 56.3596557,15.405 C55.0561557,15.405 53.7763557,14.7888 53.7763557,13.3431 L50.5768557,13.3431 C50.6953557,16.59 53.4919557,17.6565 56.3359557,17.6565 Z M67.2616557,17.3247 L67.2616557,10.902 C67.2616557,8.4135 68.0437557,7.3944 69.8686557,7.3944 C71.4565557,7.3944 72.0253557,8.3898 72.0253557,10.4043 L72.0253557,17.3247 L75.3907557,17.3247 L75.3907557,9.7881 C75.3907557,6.7545 74.4901557,4.74 70.9114557,4.74 C69.6553557,4.74 68.1859557,5.3799 67.3327557,6.7782 L67.2616557,6.7782 L67.2616557,0.4029 L63.8962557,0.4029 L63.8962557,17.3247 L67.2616557,17.3247 Z M81.4105557,3.1758 L81.4105557,0.4029 L78.0451557,0.4029 L78.0451557,3.1758 L81.4105557,3.1758 Z M81.4105557,17.3247 L81.4105557,5.0718 L78.0451557,5.0718 L78.0451557,17.3247 L81.4105557,17.3247 Z M87.4303557,17.3247 L87.4303557,10.902 C87.4303557,8.4135 88.2124557,7.3944 90.0373557,7.3944 C91.6252557,7.3944 92.1940557,8.3898 92.1940557,10.4043 L92.1940557,17.3247 L95.5594557,17.3247 L95.5594557,9.7881 C95.5594557,6.7545 94.6588557,4.74 91.0801557,4.74 C89.6581557,4.74 88.1887557,5.3799 87.3355557,6.7782 L87.2644557,6.7782 L87.2644557,5.0718 L84.0649557,5.0718 L84.0649557,17.3247 L87.4303557,17.3247 Z M103.546356,21.9699 C109.163256,21.9699 109.897956,18.5571 109.897956,16.5426 L109.897956,5.0718 L106.698456,5.0718 L106.698456,6.7071 L106.651056,6.7071 C105.821556,5.2851 104.612856,4.74 103.001256,4.74 C99.5884557,4.74 97.7398557,7.6314 97.7398557,10.8072 C97.7398557,14.1726 99.2803557,16.9692 102.977556,16.9692 C104.470656,16.9692 105.916356,16.3767 106.651056,15.0732 L106.698456,15.0732 L106.698456,16.6848 C106.722156,18.4623 105.868956,19.7184 103.996656,19.7184 C102.787956,19.7184 101.792556,19.2918 101.484456,18.0357 L98.1427557,18.0357 C98.3323557,20.8086 101.128956,21.9699 103.546356,21.9699 Z M103.830756,14.4333 C101.745156,14.4333 101.105256,12.5136 101.105256,10.7598 C101.105256,8.9349 101.934756,7.2759 103.830756,7.2759 C106.011156,7.2759 106.698456,9.0534 106.698456,11.0442 C106.698456,12.798 105.750456,14.4333 103.830756,14.4333 Z" id="Smashing" fill="#CC4141"></path>
                    <path d="M120.183756,17.3247 C125.682156,17.3247 126.250956,14.1252 126.250956,12.5136 C126.250956,10.3095 124.852656,8.6742 122.672256,8.3898 L122.672256,8.3424 C124.426056,7.9632 125.611056,6.3279 125.611056,4.5504 C125.611056,1.3983 123.027756,0.4029 120.183756,0.4029 L113.026356,0.4029 L113.026356,17.3247 L120.183756,17.3247 Z M120.183756,7.821 L114.637956,7.821 L114.637956,1.7775 L120.183756,1.7775 C122.719656,1.7775 123.999456,2.844 123.999456,4.9533 C123.999456,6.5412 122.743356,7.821 120.183756,7.821 Z M120.183756,15.9501 L114.637956,15.9501 L114.637956,9.1956 L120.183756,9.1956 C123.027756,9.1956 124.639356,10.2858 124.639356,12.4662 C124.639356,15.2154 122.577456,15.9501 120.183756,15.9501 Z M131.986356,17.6802 C134.356356,17.6802 135.375456,16.7796 136.441956,15.1917 L136.489356,15.1917 C136.489356,16.4478 136.726356,17.3247 138.243156,17.3247 C138.646056,17.3247 138.859356,17.301 139.214856,17.2299 L139.214856,15.9738 C139.048956,16.0449 138.906756,16.0686 138.740856,16.0686 C138.148356,16.0686 137.863956,15.7605 137.863956,15.168 L137.863956,8.6742 C137.863956,5.3799 135.517656,4.74 133.360956,4.74 C130.540656,4.74 128.573556,5.9724 128.407656,8.8401 L129.900756,8.8401 C129.971856,6.8493 131.299056,5.9961 133.171356,5.9961 C134.948856,5.9961 136.370856,6.4938 136.370856,8.5083 C136.370856,9.8355 135.683556,10.0488 134.451156,10.1673 C131.227956,10.5465 127.886256,10.6887 127.886256,14.1015 C127.886256,16.5663 129.711156,17.6802 131.986356,17.6802 Z M132.104856,16.4241 C130.682856,16.4241 129.379356,15.4998 129.379356,14.0067 C129.379356,11.6367 132.531456,11.6367 135.067356,11.1864 C135.470256,11.1153 136.133856,10.9968 136.323456,10.6413 L136.370856,10.6413 L136.370856,12.5847 C136.370856,14.9784 134.403756,16.4241 132.104856,16.4241 Z M142.343256,17.3247 L142.343256,10.8072 C142.343256,8.2476 144.191856,6.3042 146.893656,6.4227 L146.893656,4.9296 C144.689556,4.8348 143.030556,5.9724 142.272156,7.9632 L142.224756,7.9632 L142.224756,5.0955 L140.850156,5.0955 L140.850156,17.3247 L142.343256,17.3247 Z M149.808756,17.3247 L149.808756,10.8072 C149.808756,8.2476 151.657356,6.3042 154.359156,6.4227 L154.359156,4.9296 C152.155056,4.8348 150.496056,5.9724 149.737656,7.9632 L149.690256,7.9632 L149.690256,5.0955 L148.315656,5.0955 L148.315656,17.3247 L149.808756,17.3247 Z M157.297956,2.7966 L157.297956,0.4029 L155.804856,0.4029 L155.804856,2.7966 L157.297956,2.7966 Z M157.297956,17.3247 L157.297956,5.0955 L155.804856,5.0955 L155.804856,17.3247 L157.297956,17.3247 Z M165.071556,17.6802 C168.176256,17.6802 169.764156,16.0686 170.404056,13.2957 L168.910956,13.2957 C168.436956,15.168 167.251956,16.4241 165.071556,16.4241 C162.227556,16.4241 161.042556,13.7934 161.042556,11.613 L170.451456,11.613 C170.569956,8.1765 168.982056,4.74 165.071556,4.74 C161.184756,4.74 159.549456,7.9869 159.549456,11.2101 C159.549456,14.694 161.184756,17.6802 165.071556,17.6802 Z M168.958356,10.3569 L161.042556,10.3569 C161.303256,8.1291 162.606756,5.9961 165.071556,5.9961 C167.465256,5.9961 168.887256,8.1054 168.958356,10.3569 Z M173.959056,17.3247 L173.959056,10.8072 C173.959056,8.2476 175.807656,6.3042 178.509456,6.4227 L178.509456,4.9296 C176.305356,4.8348 174.646356,5.9724 173.887956,7.9632 L173.840556,7.9632 L173.840556,5.0955 L172.465956,5.0955 L172.465956,17.3247 L173.959056,17.3247 Z" id="Barrier" fill="#333333"></path>
                </g>
            </g>
            <g id="Group-2" transform="translate(39.000000, 0.000000)">
                <g id="Ttotke.tif" transform="translate(30.000000, 0.000000)">
                    <g id="Group">
                        <path d="M18.2812062,0.44 C19.171108,0.586666667 19.9126928,0.733333333 20.8025947,0.88 C24.065568,1.46666667 26.7352735,3.22666667 29.256662,5.28 C31.7780505,7.33333333 34.002805,9.68 36.2275596,11.88 C36.9691445,12.6133333 36.9691445,13.4933333 36.2275596,14.2266667 C35.9309257,14.6666667 35.4859748,14.96 35.0410238,15.4 C35.7826087,16.1333333 36.5241935,16.8666667 37.4140954,17.7466667 C37.5624123,17.6 37.7107293,17.3066667 37.8590463,17.16 C38.6006311,16.5733333 39.342216,16.4266667 40.0838008,17.16 C41.1220196,18.1866667 42.3085554,19.2133333 43.3467742,20.3866667 C43.9400421,20.9733333 43.9400421,21.8533333 43.3467742,22.44 C41.7152875,24.0533333 40.0838008,25.8133333 38.3039972,27.4266667 C37.7107293,28.0133333 36.8208275,28.0133333 36.0792426,27.4266667 C35.0410238,26.4 34.002805,25.3733333 32.8162693,24.3466667 C32.2230014,23.76 32.2230014,23.0266667 32.6679523,22.2933333 C32.8162693,22 33.1129032,21.8533333 33.2612202,21.7066667 C32.5196353,20.9733333 31.7780505,20.24 30.8881487,19.36 C30.7398317,19.5066667 30.4431978,19.9466667 30.2948808,20.0933333 C29.5532959,20.8266667 28.6633941,20.8266667 27.7734923,20.0933333 C26.1420056,18.6266667 24.6588359,17.0133333 23.1756662,15.5466667 C23.0273492,15.4 23.0273492,15.2533333 23.0273492,15.1066667 C23.6206171,12.6133333 23.0273492,10.2666667 21.8408135,7.92 C20.9509116,6.01333333 19.4677419,4.69333333 17.5396213,3.66666667 C15.6115007,2.64 13.5350631,1.90666667 11.3103086,1.32 C11.9035764,1.17333333 12.4968443,1.02666667 13.0901122,0.88 C13.6833801,0.733333333 14.276648,0.733333333 15.0182328,0.586666667 C16.2047686,0.44 17.2429874,0.44 18.2812062,0.44 Z" id="Path" fill="#CC4141"></path>
                        <path d="M27,25 C28.1045695,25 29,25.8954305 29,27 L29,32 C29,33.1045695 28.1045695,34 27,34 L1,34 C-0.1045695,34 -1,33.1045695 -1,32 L-1,27 C-1,25.8954305 -0.1045695,25 1,25 L27,25 Z M27,27 L1,27 L1,32 L27,32 L27,27 Z" id="Rectangle" fill="#333333" transform="translate(14.000000, 29.500000) rotate(-45.000000) translate(-14.000000, -29.500000) "></path>
                    </g>
                </g>
                <polygon id="Path" fill="#444445" points="20.2 32.7 0 23.4 0 21.3 20.2 12 20.2 14.2 2.5 22.4 20.2 30.6"></polygon>
                <polygon id="Path" fill="#444445" points="96.8 22.4 79 14.2 79 12 99.2 21.3 99.2 23.5 79 32.8 79 30.6"></polygon>
            </g>
        </g>
    </g>
</svg>