<?xml version="1.0" encoding="UTF-8"?>
<svg width="180px" height="108px" viewBox="0 0 180 108" version="1.1" xmlns="http://www.w3.org/2000/svg" xmlns:xlink="http://www.w3.org/1999/xlink">
    <title>SmashingBarrier_horizontal_BW</title>
    <g id="SmashingBarrier_horizontal_BW" stroke="none" stroke-width="1" fill="none" fill-rule="evenodd">
        <g id="Group-3" transform="translate(2.000000, 43.000000)" fill="#000000" fill-rule="nonzero">
            <g id="Group-2">
                <g id="Ttotke.tif" transform="translate(15.600000, 0.000000)">
                    <g id="Group">
                        <path d="M9.50622721,0.23 C9.96897616,0.306666667 10.3546003,0.383333333 10.8173492,0.46 C12.5140954,0.766666667 13.9023422,1.68666667 15.2134642,2.76 C16.5245863,3.83333333 17.6814586,5.06 18.838331,6.21 C19.2239551,6.59333333 19.2239551,7.05333333 18.838331,7.43666667 C18.6840813,7.66666667 18.4527069,7.82 18.2213324,8.05 C18.6069565,8.43333333 18.9925806,8.81666667 19.4553296,9.27666667 C19.5324544,9.2 19.6095792,9.04666667 19.6867041,8.97 C20.0723282,8.66333333 20.4579523,8.58666667 20.8435764,8.97 C21.3834502,9.50666667 22.0004488,10.0433333 22.5403226,10.6566667 C22.8488219,10.9633333 22.8488219,11.4233333 22.5403226,11.73 C21.6919495,12.5733333 20.8435764,13.4933333 19.9180785,14.3366667 C19.6095792,14.6433333 19.1468303,14.6433333 18.7612062,14.3366667 C18.2213324,13.8 17.6814586,13.2633333 17.06446,12.7266667 C16.7559607,12.42 16.7559607,12.0366667 16.9873352,11.6533333 C17.06446,11.5 17.2187097,11.4233333 17.2958345,11.3466667 C16.9102104,10.9633333 16.5245863,10.58 16.0618373,10.12 C15.9847125,10.1966667 15.8304628,10.4266667 15.753338,10.5033333 C15.3677139,10.8866667 14.9049649,10.8866667 14.442216,10.5033333 C13.5938429,9.73666667 12.8225947,8.89333333 12.0513464,8.12666667 C11.9742216,8.05 11.9742216,7.97333333 11.9742216,7.89666667 C12.2827209,6.59333333 11.9742216,5.36666667 11.357223,4.14 C10.8944741,3.14333333 10.1232258,2.45333333 9.12060309,1.91666667 C8.11798036,1.38 7.03823282,0.996666667 5.88136045,0.69 C6.18985975,0.613333333 6.49835905,0.536666667 6.80685835,0.46 C7.11535764,0.383333333 7.42385694,0.383333333 7.80948107,0.306666667 C8.42647966,0.23 8.96635344,0.23 9.50622721,0.23 Z" id="Path"></path>
                        <path d="M14.04,13.0681818 C14.6143761,13.0681818 15.08,13.5362478 15.08,14.1136364 L15.08,16.7272727 C15.08,17.3046613 14.6143761,17.7727273 14.04,17.7727273 L0.52,17.7727273 C-0.0543761398,17.7727273 -0.52,17.3046613 -0.52,16.7272727 L-0.52,14.1136364 C-0.52,13.5362478 -0.0543761398,13.0681818 0.52,13.0681818 L14.04,13.0681818 Z M13.52,14.6363636 L1.04,14.6363636 L1.04,16.2045455 L13.52,16.2045455 L13.52,14.6363636 Z" id="Rectangle" transform="translate(7.280000, 15.420455) rotate(-45.000000) translate(-7.280000, -15.420455) "></path>
                    </g>
                </g>
                <polygon id="Path" points="10.504 17.0931818 0 12.2318182 0 11.1340909 10.504 6.27272727 10.504 7.42272727 1.3 11.7090909 10.504 15.9954545"></polygon>
                <polygon id="Path" points="50.336 11.7090909 41.08 7.42272727 41.08 6.27272727 51.584 11.1340909 51.584 12.2840909 41.08 17.1454545 41.08 15.9954545"></polygon>
            </g>
            <g id="SmashingBarrier" transform="translate(59.000000, 5.000000)">
                <path d="M4.76246767,12.0214286 C7.81689245,12.0214286 9.41459157,10.4464286 9.41459157,8.34107143 C9.41459157,5.75357143 6.92406059,5.19107143 6.0938836,4.99821429 C3.29007829,4.275 2.75751192,4.14642857 2.75751192,3.2625 C2.75751192,2.29821429 3.66600749,1.96071429 4.44919334,1.96071429 C5.63963581,1.96071429 6.57945882,2.33035714 6.65777741,3.69642857 L9.03866236,3.69642857 C9.03866236,1.04464286 6.89273316,1.71291552e-14 4.55883935,1.71291552e-14 C2.53821988,1.71291552e-14 0.376626964,1.10892857 0.376626964,3.47142857 C0.376626964,5.59285714 2.05264466,6.31607143 3.71299865,6.73392857 C5.34202519,7.2 7.03370661,7.37678571 7.03370661,8.63035714 C7.03370661,9.80357143 5.7179544,10.0607143 4.85644997,10.0607143 C3.54069776,10.0607143 2.38158272,9.46607143 2.38158272,7.93928571 L0.000697760469,7.93928571 C-0.04629339,10.7678571 2.28760042,12.0214286 4.76246767,12.0214286 Z M12.9232641,11.7482143 L12.9232641,6.92678571 C12.9232641,5.30357143 13.9883969,5.01428571 14.4269809,5.01428571 C15.6843117,5.01428571 15.7703992,5.8964064 15.7743179,6.77127109 L15.7740606,11.7482143 L17.9983084,11.7482143 L17.9983084,7.11964286 C17.9983084,6.09107143 18.2332641,5.01428571 19.4863615,5.01428571 C20.7551225,5.01428571 20.8491048,5.93035714 20.8491048,7.03928571 L20.8491048,11.7482143 L23.0733526,11.7482143 L23.0733526,6.1875 C23.0733526,4.03392857 21.835919,3.21428571 20.1129101,3.21428571 C18.9851225,3.21428571 18.1549455,3.87321429 17.6693703,4.59642857 C17.2307863,3.58392857 16.3222907,3.21428571 15.3041491,3.21428571 C14.2390163,3.21428571 13.4088394,3.7125 12.8292818,4.56428571 L12.7979544,4.56428571 L12.7979544,3.43928571 L10.6990163,3.43928571 L10.6990163,11.7482143 L12.9232641,11.7482143 Z M27.2399013,11.9732143 C28.2423792,11.9732143 29.2605208,11.7 29.965388,10.9446429 C29.9810517,11.2178571 30.0437066,11.4910714 30.1220252,11.7482143 L32.3776004,11.7482143 C32.1739721,11.4107143 32.0956535,10.6553571 32.0956535,9.9 L32.0956535,5.57678571 C32.0956535,3.58392857 30.1533526,3.21428571 28.5399898,3.21428571 C26.7229986,3.21428571 24.8590163,3.87321429 24.7337066,5.99464286 L26.9579544,5.99464286 C27.036273,5.09464286 27.5688394,4.74107143 28.4303438,4.74107143 C29.2135296,4.74107143 29.8714057,4.90178571 29.8714057,5.86607143 C29.965388,7.73035714 24.5144146,5.70535714 24.4830871,9.48214286 C24.4830871,11.1857143 25.6891933,11.9732143 27.2399013,11.9732143 Z M28.0700783,10.4464286 C27.3495473,10.4464286 26.7073349,10.2214286 26.7073349,9.38571429 C26.7073349,8.55 27.3338836,8.29285714 28.0230871,8.16428571 C28.7122907,8.03571429 29.4954765,8.01964286 29.8714057,7.68214286 L29.8714057,8.53392857 C29.8714057,9.04821429 29.8087509,10.4464286 28.0700783,10.4464286 Z M37.2333526,11.9732143 C39.0660075,11.9732143 40.9299898,11.2660714 40.9299898,9.08035714 C40.9299898,7.5375 39.6612287,7.05535714 38.3611402,6.75 C37.1080429,6.44464286 35.8392818,6.33214286 35.8392818,5.5125 C35.8392818,4.82142857 36.5754765,4.74107143 37.0767155,4.74107143 C37.875565,4.74107143 38.5334411,4.98214286 38.596096,5.86607143 L40.7106978,5.86607143 C40.5383969,3.825 38.8937066,3.21428571 37.1393703,3.21428571 C35.4006978,3.21428571 33.615034,3.76071429 33.615034,5.88214286 C33.615034,7.36071429 34.8837951,7.79464286 36.1838836,8.1 C37.765919,8.4375 38.705742,8.69464286 38.705742,9.38571429 C38.705742,10.1892857 37.875565,10.4464286 37.2490163,10.4464286 C36.3875119,10.4464286 35.5416712,10.0285714 35.5416712,9.04821429 L33.4270694,9.04821429 C33.505388,11.25 35.3537066,11.9732143 37.2333526,11.9732143 Z M44.4543261,11.7482143 L44.4543261,7.39285714 C44.4543261,5.70535714 44.9712287,5.01428571 46.1773349,5.01428571 C47.226804,5.01428571 47.6027332,5.68928571 47.6027332,7.05535714 L47.6027332,11.7482143 L49.8269809,11.7482143 L49.8269809,6.6375 C49.8269809,4.58035714 49.2317597,3.21428571 46.8665385,3.21428571 C46.0363615,3.21428571 45.065211,3.64821429 44.5013172,4.59642857 L44.4543261,4.59642857 L44.4543261,0.273214286 L42.2300783,0.273214286 L42.2300783,11.7482143 L44.4543261,11.7482143 Z M53.805565,2.15357143 L53.805565,0.273214286 L51.5813172,0.273214286 L51.5813172,2.15357143 L53.805565,2.15357143 Z M53.805565,11.7482143 L53.805565,3.43928571 L51.5813172,3.43928571 L51.5813172,11.7482143 L53.805565,11.7482143 Z M57.7841491,11.7482143 L57.7841491,7.39285714 C57.7841491,5.70535714 58.3010517,5.01428571 59.5071579,5.01428571 C60.556627,5.01428571 60.9325562,5.68928571 60.9325562,7.05535714 L60.9325562,11.7482143 L63.156804,11.7482143 L63.156804,6.6375 C63.156804,4.58035714 62.5615827,3.21428571 60.1963615,3.21428571 C59.2565385,3.21428571 58.285388,3.64821429 57.7214942,4.59642857 L57.6745031,4.59642857 L57.6745031,3.43928571 L55.5599013,3.43928571 L55.5599013,11.7482143 L57.7841491,11.7482143 Z M68.4354765,14.8982143 C72.08692,14.8982143 72.616565,12.6591848 72.6329491,11.2857911 L72.6333526,3.43928571 L70.5187509,3.43928571 L70.5187509,4.54821429 L70.4874234,4.54821429 C69.9391933,3.58392857 69.1403438,3.21428571 68.075211,3.21428571 C65.8196358,3.21428571 64.5978659,5.175 64.5978659,7.32857143 C64.5978659,9.61071429 65.6160075,11.5071429 68.0595473,11.5071429 C69.0463615,11.5071429 70.0018482,11.1053571 70.4874234,10.2214286 L70.5187509,10.2214286 L70.5187509,11.3142857 C70.5344146,12.5196429 69.9705208,13.3714286 68.7330871,13.3714286 C67.9342376,13.3714286 67.2763615,13.0821429 67.0727332,12.2303571 L64.8641491,12.2303571 C64.9894588,14.1107143 66.8377774,14.8982143 68.4354765,14.8982143 Z M68.6234411,9.7875 C67.245034,9.7875 66.8221137,8.48571429 66.8221137,7.29642857 C66.8221137,6.05892857 67.3703438,4.93392857 68.6234411,4.93392857 C70.0645031,4.93392857 70.5187509,6.13928571 70.5187509,7.48928571 C70.5187509,8.67857143 69.8922022,9.7875 68.6234411,9.7875 Z" id="Smashing"></path>
                <path d="M79.4314057,11.7482143 C83.065388,11.7482143 83.4413172,9.57857143 83.4413172,8.48571429 C83.4413172,6.99107143 82.5171579,5.88214286 81.076096,5.68928571 L81.076096,5.65714286 C82.235211,5.4 83.0183969,4.29107143 83.0183969,3.08571429 C83.0183969,0.948214286 81.3110517,0.273214286 79.4314057,0.273214286 L74.7009632,0.273214286 L74.7009632,11.7482143 L79.4314057,11.7482143 Z M79.4314057,5.30357143 L75.766096,5.30357143 L75.766096,1.20535714 L79.4314057,1.20535714 C81.1074234,1.20535714 81.9532641,1.92857143 81.9532641,3.35892857 C81.9532641,4.43571429 81.1230871,5.30357143 79.4314057,5.30357143 Z M79.4314057,10.8160714 L75.766096,10.8160714 L75.766096,6.23571429 L79.4314057,6.23571429 C81.3110517,6.23571429 82.3761845,6.975 82.3761845,8.45357143 C82.3761845,10.3178571 81.0134411,10.8160714 79.4314057,10.8160714 Z M87.2319367,11.9892857 C88.7983084,11.9892857 89.4718482,11.3785714 90.1767155,10.3017857 L90.2080429,10.3017857 C90.2080429,11.1535714 90.3646801,11.7482143 91.3671579,11.7482143 C91.6334411,11.7482143 91.7744146,11.7321429 92.0093703,11.6839286 L92.0093703,10.8321429 C91.8997243,10.8803571 91.805742,10.8964286 91.696096,10.8964286 C91.3045031,10.8964286 91.1165385,10.6875 91.1165385,10.2857143 L91.1165385,5.88214286 C91.1165385,3.64821429 89.5658305,3.21428571 88.1404323,3.21428571 C86.27645,3.21428571 84.9763615,4.05 84.8667155,5.99464286 L85.8535296,5.99464286 C85.9005208,4.64464286 86.7776889,4.06607143 88.0151225,4.06607143 C89.1899013,4.06607143 90.1297243,4.40357143 90.1297243,5.76964286 C90.1297243,6.66964286 89.6754765,6.81428571 88.8609632,6.89464286 C86.7306978,7.15178571 84.5221137,7.24821429 84.5221137,9.5625 C84.5221137,11.2339286 85.7282199,11.9892857 87.2319367,11.9892857 Z M87.3102553,11.1375 C86.3704323,11.1375 85.5089278,10.5107143 85.5089278,9.49821429 C85.5089278,7.89107143 87.5922022,7.89107143 89.2682199,7.58571429 C89.5345031,7.5375 89.9730871,7.45714286 90.0983969,7.21607143 L90.1297243,7.21607143 L90.1297243,8.53392857 C90.1297243,10.1571429 88.8296358,11.1375 87.3102553,11.1375 Z M94.0769809,11.7482143 L94.0769809,7.32857143 C94.0769809,5.59285714 95.2987509,4.275 97.0844146,4.35535714 L97.0844146,3.34285714 C95.6276889,3.27857143 94.5312287,4.05 94.0299898,5.4 L93.9986624,5.4 L93.9986624,3.45535714 L93.0901668,3.45535714 L93.0901668,11.7482143 L94.0769809,11.7482143 Z M99.0110517,11.7482143 L99.0110517,7.32857143 C99.0110517,5.59285714 100.232822,4.275 102.018485,4.35535714 L102.018485,3.34285714 C100.56176,3.27857143 99.4652995,4.05 98.9640606,5.4 L98.9327332,5.4 L98.9327332,3.45535714 L98.0242376,3.45535714 L98.0242376,11.7482143 L99.0110517,11.7482143 Z M103.960786,1.89642857 L103.960786,0.273214286 L102.973972,0.273214286 L102.973972,1.89642857 L103.960786,1.89642857 Z M103.960786,11.7482143 L103.960786,3.45535714 L102.973972,3.45535714 L102.973972,11.7482143 L103.960786,11.7482143 Z M109.098485,11.9892857 C111.150432,11.9892857 112.199901,10.8964286 112.622822,9.01607143 L111.636007,9.01607143 C111.322733,10.2857143 110.539547,11.1375 109.098485,11.1375 C107.218839,11.1375 106.435654,9.35357143 106.435654,7.875 L112.654149,7.875 C112.732468,5.54464286 111.682999,3.21428571 109.098485,3.21428571 C106.529636,3.21428571 105.448839,5.41607143 105.448839,7.60178571 C105.448839,9.96428571 106.529636,11.9892857 109.098485,11.9892857 Z M111.667335,7.02321429 L106.435654,7.02321429 C106.607954,5.5125 107.469459,4.06607143 109.098485,4.06607143 C110.680521,4.06607143 111.620344,5.49642857 111.667335,7.02321429 Z M114.972379,11.7482143 L114.972379,7.32857143 C114.972379,5.59285714 116.194149,4.275 117.979813,4.35535714 L117.979813,3.34285714 C116.523087,3.27857143 115.426627,4.05 114.925388,5.4 L114.894061,5.4 L114.894061,3.45535714 L113.985565,3.45535714 L113.985565,11.7482143 L114.972379,11.7482143 Z" id="Barrier"></path>
            </g>
        </g>
    </g>
</svg>