<?xml version="1.0" encoding="UTF-8" standalone="no"?>
<!DOCTYPE svg PUBLIC "-//W3C//DTD SVG 1.1//EN" "http://www.w3.org/Graphics/SVG/1.1/DTD/svg11.dtd">
<svg width="100%" height="100%" viewBox="0 0 180 108" version="1.1" xmlns="http://www.w3.org/2000/svg" xmlns:xlink="http://www.w3.org/1999/xlink" xml:space="preserve" xmlns:serif="http://www.serif.com/" style="fill-rule:evenodd;clip-rule:evenodd;stroke-linejoin:round;stroke-miterlimit:2;">
    <g>
        <g>
            <clipPath id="_clip1">
                <path d="M60.2,50.7L40,41.4L40,39.3L60.2,30L60.2,32.2L42.5,40.4L60.2,48.6L60.2,50.7Z"/>
            </clipPath>
            <g clip-path="url(#_clip1)">
                <rect x="39" y="29" width="22.2" height="22.7" style="fill:rgb(69,69,71);fill-rule:nonzero;"/>
            </g>
            <clipPath id="_clip2">
                <path d="M136.8,40.4L119,32.2L119,30L139.2,39.3L139.2,41.5L119,50.8L119,48.6L136.8,40.4Z"/>
            </clipPath>
            <g clip-path="url(#_clip2)">
                <rect x="118" y="29" width="22.2" height="22.8" style="fill:rgb(69,69,71);fill-rule:nonzero;"/>
            </g>
            <clipPath id="_clip3">
                <path d="M101,19C103.209,19 105,20.791 105,23L105,56C105,58.21 103.209,60 101,60L79,60C76.79,60 75,58.21 75,56L75,23C75,20.791 76.79,19 79,19L101,19ZM102,54L78,54L78,56C78,56.513 78.386,56.936 78.883,56.994L79,57L101,57C101.512,57 101.935,56.614 101.993,56.117L102,56L102,54ZM101,22L79,22C78.487,22 78.064,22.387 78.006,22.884L78,23L78,51L102,51L102,23C102,22.488 101.613,22.065 101.116,22.007L101,22Z"/>
            </clipPath>
            <g clip-path="url(#_clip3)">
                <rect x="74" y="18" width="32" height="43" style="fill:rgb(69,69,71);fill-rule:nonzero;"/>
            </g>
            <clipPath id="_clip4">
                <path d="M90,31C90.749,31 91.397,31.171 91.708,31.419L91.857,31.419C93.807,31.419 95.518,32.445 96.477,33.988L96.475,32.699C96.215,32.559 96.038,32.28 96.038,31.958C96.038,31.496 96.404,31.122 96.857,31.122C97.309,31.122 97.676,31.496 97.676,31.958C97.676,32.28 97.498,32.559 97.238,32.699L97.238,34.61C97.693,35.009 98,35.758 98,36.617C98,37.661 97.547,38.544 96.925,38.831C96.135,40.858 94.164,42.295 91.857,42.295L88.256,42.295C85.969,42.295 84.011,40.882 83.208,38.881C82.519,38.668 82,37.736 82,36.617C82,35.758 82.306,35.009 82.761,34.61L82.761,32.699C82.501,32.559 82.323,32.28 82.323,31.958C82.323,31.496 82.69,31.122 83.142,31.122C83.595,31.122 83.961,31.496 83.961,31.958C83.961,32.28 83.784,32.559 83.524,32.699L83.523,34.179C84.457,32.531 86.227,31.419 88.256,31.419L88.291,31.419C88.602,31.171 89.25,31 90,31ZM91.861,33.048L88.138,33.048C86.01,33.048 84.285,34.773 84.285,36.901C84.285,39.029 86.01,40.754 88.138,40.754L91.861,40.754C93.989,40.754 95.714,39.029 95.714,36.901C95.714,34.773 93.989,33.048 91.861,33.048Z"/>
            </clipPath>
            <g clip-path="url(#_clip4)">
                <rect x="81" y="30" width="18" height="13.295" style="fill:rgb(69,69,71);fill-rule:nonzero;"/>
            </g>
            <g transform="matrix(0.75468,0,0,1,21.674,0)">
                <clipPath id="_clip5">
                    <path d="M90.033,39.481C90.962,39.481 91.715,38.884 91.715,38.148C91.715,37.412 90.962,37.569 90.033,37.569C89.103,37.569 88.35,37.412 88.35,38.148C88.35,38.884 89.103,39.481 90.033,39.481Z"/>
                </clipPath>
                <g clip-path="url(#_clip5)">
                    <rect x="87.35" y="36.412" width="5.365" height="4.069" style="fill:rgb(204,65,65);fill-rule:nonzero;"/>
                </g>
            </g>
            <clipPath id="_clip6">
                <path d="M86.952,36.915C87.373,36.915 87.714,36.57 87.714,36.145C87.714,35.719 87.373,35.374 86.952,35.374C86.531,35.374 86.19,35.719 86.19,36.145C86.19,36.57 86.531,36.915 86.952,36.915Z"/>
            </clipPath>
            <g clip-path="url(#_clip6)">
                <rect x="85.19" y="34.374" width="3.524" height="3.541" style="fill:rgb(54,54,54);fill-rule:nonzero;"/>
            </g>
            <clipPath id="_clip7">
                <path d="M93.047,36.915C93.468,36.915 93.809,36.57 93.809,36.145C93.809,35.719 93.468,35.374 93.047,35.374C92.626,35.374 92.285,35.719 92.285,36.145C92.285,36.57 92.626,36.915 93.047,36.915Z"/>
            </clipPath>
            <g clip-path="url(#_clip7)">
                <rect x="91.285" y="34.374" width="3.524" height="3.541" style="fill:rgb(54,54,54);fill-rule:nonzero;"/>
            </g>
            <path d="M36.297,85.952C40.977,85.952 43.425,83.6 43.425,80.456C43.425,76.592 39.609,75.752 38.337,75.464C34.041,74.384 33.225,74.192 33.225,72.872C33.225,71.432 34.617,70.928 35.817,70.928C37.641,70.928 39.081,71.48 39.201,73.52L42.849,73.52C42.849,69.56 39.561,68 35.985,68C32.889,68 29.577,69.656 29.577,73.184C29.577,76.352 32.145,77.432 34.689,78.056C37.185,78.752 39.777,79.016 39.777,80.888C39.777,82.64 37.761,83.024 36.441,83.024C34.425,83.024 32.649,82.136 32.649,79.856L29.001,79.856C28.929,84.08 32.505,85.952 36.297,85.952ZM51.321,85.88C55.233,85.88 57.753,83.288 57.753,79.352C57.753,75.392 55.233,72.8 51.321,72.8C47.433,72.8 44.913,75.392 44.913,79.352C44.913,83.288 47.433,85.88 51.321,85.88ZM51.321,83.312C49.017,83.312 48.321,81.344 48.321,79.352C48.321,77.36 49.017,75.368 51.321,75.368C53.649,75.368 54.345,77.36 54.345,79.352C54.345,81.344 53.649,83.312 51.321,83.312ZM63.369,89.912L63.369,84.008L63.417,84.008C64.257,85.232 65.625,85.88 67.137,85.88C70.785,85.88 72.585,82.784 72.585,79.472C72.585,75.944 70.833,72.8 66.945,72.8C65.409,72.8 64.089,73.376 63.249,74.72L63.201,74.72L63.201,73.136L59.961,73.136L59.961,89.912L63.369,89.912ZM66.225,83.312C64.017,83.312 63.249,81.392 63.249,79.376C63.249,77.36 63.969,75.368 66.201,75.368C68.385,75.368 69.177,77.384 69.177,79.376C69.177,81.392 68.457,83.312 66.225,83.312ZM78.033,85.544L78.033,79.04C78.033,76.52 78.825,75.488 80.673,75.488C82.281,75.488 82.857,76.496 82.857,78.536L82.857,85.544L86.265,85.544L86.265,77.912C86.265,74.84 85.353,72.8 81.729,72.8C80.457,72.8 78.969,73.448 78.105,74.864L78.033,74.864L78.033,68.408L74.625,68.408L74.625,85.544L78.033,85.544ZM92.361,71.216L92.361,68.408L88.953,68.408L88.953,71.216L92.361,71.216ZM92.361,85.544L92.361,73.136L88.953,73.136L88.953,85.544L92.361,85.544ZM100.785,85.88C103.593,85.88 105.633,84.656 106.593,81.704L103.593,81.704C103.377,82.472 102.273,83.312 100.905,83.312C98.985,83.312 97.953,82.352 97.857,80.168L106.809,80.168C107.073,76.352 105.009,72.8 100.785,72.8C97.017,72.8 94.449,75.632 94.449,79.352C94.449,83.192 96.873,85.88 100.785,85.88ZM103.401,78.008L97.857,78.008C97.929,77.048 98.481,75.368 100.689,75.368C102.345,75.368 103.089,76.28 103.401,78.008Z" style="fill:rgb(204,65,65);"/>
            <path d="M110.889,85.544L110.889,77.24L121.065,77.24L121.065,85.544L122.697,85.544L122.697,68.408L121.065,68.408L121.065,75.848L110.889,75.848L110.889,68.408L109.257,68.408L109.257,85.544L110.889,85.544ZM130.185,85.904C132.033,85.904 133.665,84.968 134.457,83.312L134.505,83.312L134.505,85.544L135.897,85.544L135.897,73.16L134.385,73.16L134.385,79.664C134.385,82.184 133.257,84.632 130.665,84.632C128.265,84.632 127.425,83.456 127.353,81.224L127.353,73.16L125.841,73.16L125.841,81.2C125.841,84.104 127.041,85.904 130.185,85.904ZM144.609,85.904C148.377,85.904 150.177,82.88 150.177,79.352C150.177,75.825 148.377,72.8 144.609,72.8C142.785,72.8 140.937,73.736 140.313,75.513L140.265,75.513L140.265,68.408L138.753,68.408L138.753,85.544L140.145,85.544L140.145,83.192L140.193,83.192C140.889,84.896 142.593,85.904 144.609,85.904ZM144.609,84.632C141.417,84.632 140.265,81.92 140.265,79.352C140.265,76.784 141.417,74.072 144.609,74.072C147.489,74.072 148.665,76.784 148.665,79.352C148.665,81.92 147.489,84.632 144.609,84.632Z" style="fill:rgb(69,69,71);"/>
        </g>
    </g>
</svg>
