<?xml version="1.0" encoding="UTF-8" standalone="no"?>
<!DOCTYPE svg PUBLIC "-//W3C//DTD SVG 1.1//EN" "http://www.w3.org/Graphics/SVG/1.1/DTD/svg11.dtd">
<svg width="100%" height="100%" viewBox="0 0 180 109" version="1.1" xmlns="http://www.w3.org/2000/svg" xmlns:xlink="http://www.w3.org/1999/xlink" xml:space="preserve" xmlns:serif="http://www.serif.com/" style="fill-rule:evenodd;clip-rule:evenodd;stroke-linejoin:round;stroke-miterlimit:2;">
    <g transform="matrix(1,0,0,1,0.279999,0)">
        <g>
            <clipPath id="_clip1">
                <path d="M29.302,60.843L19,55.972L19,54.872L29.302,50L29.302,51.153L20.275,55.448L29.302,59.743L29.302,60.843Z"/>
            </clipPath>
            <g clip-path="url(#_clip1)">
                <rect x="18" y="49" width="12.302" height="12.843" style="fill:rgb(69,69,71);fill-rule:nonzero;"/>
            </g>
            <clipPath id="_clip2">
                <path d="M68.368,55.448L59.29,51.153L59.29,50L69.592,54.872L69.592,56.024L59.29,60.896L59.29,59.743L68.368,55.448Z"/>
            </clipPath>
            <g clip-path="url(#_clip2)">
                <rect x="58.29" y="49" width="12.302" height="12.896" style="fill:rgb(69,69,71);fill-rule:nonzero;"/>
            </g>
            <path d="M82.964,59.24C86.148,59.24 87.813,57.637 87.813,55.493C87.813,52.859 85.217,52.286 84.352,52.09C81.429,51.353 80.874,51.222 80.874,50.322C80.874,49.34 81.821,48.997 82.637,48.997C83.878,48.997 84.858,49.373 84.94,50.764L87.421,50.764C87.421,48.064 85.184,47 82.752,47C80.645,47 78.392,48.13 78.392,50.535C78.392,52.695 80.139,53.431 81.87,53.857C83.568,54.331 85.331,54.511 85.331,55.788C85.331,56.982 83.96,57.244 83.062,57.244C81.69,57.244 80.482,56.639 80.482,55.084L78,55.084C77.951,57.964 80.384,59.24 82.964,59.24ZM93.185,59.191C95.847,59.191 97.561,57.424 97.561,54.74C97.561,52.04 95.847,50.273 93.185,50.273C90.54,50.273 88.826,52.04 88.826,54.74C88.826,57.424 90.54,59.191 93.185,59.191ZM93.185,57.44C91.618,57.44 91.144,56.099 91.144,54.74C91.144,53.382 91.618,52.024 93.185,52.024C94.769,52.024 95.242,53.382 95.242,54.74C95.242,56.099 94.769,57.44 93.185,57.44ZM101.382,61.94L101.382,57.915L101.414,57.915C101.986,58.75 102.917,59.191 103.945,59.191C106.427,59.191 107.652,57.08 107.652,54.822C107.652,52.417 106.46,50.273 103.815,50.273C102.77,50.273 101.872,50.666 101.3,51.582L101.267,51.582L101.267,50.502L99.063,50.502L99.063,61.94L101.382,61.94ZM103.325,57.44C101.823,57.44 101.3,56.131 101.3,54.757C101.3,53.382 101.79,52.024 103.308,52.024C104.794,52.024 105.333,53.399 105.333,54.757C105.333,56.131 104.843,57.44 103.325,57.44ZM111.358,58.962L111.358,54.528C111.358,52.81 111.897,52.106 113.154,52.106C114.248,52.106 114.64,52.793 114.64,54.184L114.64,58.962L116.959,58.962L116.959,53.759C116.959,51.664 116.338,50.273 113.873,50.273C113.007,50.273 111.995,50.715 111.407,51.68L111.358,51.68L111.358,47.279L109.04,47.279L109.04,58.962L111.358,58.962ZM121.106,49.193L121.106,47.279L118.787,47.279L118.787,49.193L121.106,49.193ZM121.106,58.962L121.106,50.502L118.787,50.502L118.787,58.962L121.106,58.962ZM126.837,59.191C128.747,59.191 130.135,58.357 130.788,56.344L128.747,56.344C128.6,56.868 127.849,57.44 126.919,57.44C125.612,57.44 124.91,56.786 124.845,55.297L130.935,55.297C131.115,52.695 129.711,50.273 126.837,50.273C124.273,50.273 122.526,52.204 122.526,54.74C122.526,57.359 124.175,59.191 126.837,59.191ZM128.617,53.824L124.845,53.824C124.894,53.17 125.269,52.024 126.772,52.024C127.898,52.024 128.404,52.646 128.617,53.824Z" style="fill:rgb(204,65,65);"/>
            <path d="M133.711,58.962L133.711,53.3L140.634,53.3L140.634,58.962L141.744,58.962L141.744,47.279L140.634,47.279L140.634,52.351L133.711,52.351L133.711,47.279L132.601,47.279L132.601,58.962L133.711,58.962ZM146.839,59.208C148.096,59.208 149.206,58.57 149.745,57.44L149.778,57.44L149.778,58.962L150.725,58.962L150.725,50.519L149.696,50.519L149.696,54.953C149.696,56.671 148.928,58.34 147.165,58.34C145.532,58.34 144.961,57.539 144.912,56.017L144.912,50.519L143.883,50.519L143.883,56C143.883,57.98 144.7,59.208 146.839,59.208ZM156.652,59.208C159.215,59.208 160.44,57.146 160.44,54.74C160.44,52.335 159.215,50.273 156.652,50.273C155.411,50.273 154.153,50.911 153.729,52.122L153.696,52.122L153.696,47.279L152.668,47.279L152.668,58.962L153.615,58.962L153.615,57.359L153.647,57.359C154.121,58.52 155.28,59.208 156.652,59.208ZM156.652,58.34C154.48,58.34 153.696,56.491 153.696,54.74C153.696,52.99 154.48,51.14 156.652,51.14C158.611,51.14 159.411,52.99 159.411,54.74C159.411,56.491 158.611,58.34 156.652,58.34Z" style="fill:rgb(69,69,71);"/>
            <clipPath id="_clip3">
                <path d="M50,44C51.104,44 52,44.918 52,46.049L52,62.952C52,64.083 51.104,65 50,65L39,65C37.895,65 37,64.083 37,62.952L37,46.049C37,44.918 37.895,44 39,44L50,44ZM50.5,61.926L38.5,61.926L38.5,62.952C38.5,63.214 38.693,63.431 38.941,63.46L39,63.464L50,63.464C50.256,63.464 50.467,63.266 50.496,63.011L50.5,62.952L50.5,61.926ZM50,45.537L39,45.537C38.743,45.537 38.532,45.735 38.503,45.99L38.5,46.049L38.5,60.39L50.5,60.39L50.5,46.049C50.5,45.787 50.306,45.57 50.058,45.541L50,45.537Z"/>
            </clipPath>
            <g clip-path="url(#_clip3)">
                <rect x="36" y="43" width="17" height="23" style="fill:rgb(69,69,71);fill-rule:nonzero;"/>
            </g>
            <clipPath id="_clip4">
                <path d="M44.5,50.147C44.874,50.147 45.198,50.234 45.354,50.361L45.362,50.361C46.368,50.361 47.249,50.894 47.738,51.693L47.738,51.017C47.607,50.945 47.519,50.802 47.519,50.637C47.519,50.401 47.702,50.209 47.928,50.209C48.154,50.209 48.338,50.401 48.338,50.637C48.338,50.802 48.249,50.944 48.119,51.016L48.119,51.996C48.347,52.201 48.5,52.584 48.5,53.024C48.5,53.561 48.271,54.015 47.958,54.16C47.553,55.196 46.543,55.932 45.362,55.932L43.694,55.932C42.523,55.932 41.521,55.209 41.109,54.185C40.762,54.08 40.5,53.6 40.5,53.024C40.5,52.584 40.652,52.201 40.88,51.996L40.88,51.016C40.75,50.944 40.661,50.802 40.661,50.637C40.661,50.401 40.845,50.209 41.071,50.209C41.297,50.209 41.48,50.401 41.48,50.637C41.48,50.802 41.392,50.945 41.261,51.017L41.26,51.792C41.728,50.952 42.619,50.379 43.645,50.362C43.798,50.235 44.123,50.147 44.5,50.147ZM45.383,51.196L43.616,51.196C42.526,51.196 41.642,52.079 41.642,53.169C41.642,54.259 42.526,55.142 43.616,55.142L45.383,55.142C46.473,55.142 47.357,54.259 47.357,53.169C47.357,52.079 46.473,51.196 45.383,51.196Z"/>
            </clipPath>
            <g clip-path="url(#_clip4)">
                <rect x="39.5" y="49.147" width="10" height="7.785" style="fill:rgb(69,69,71);fill-rule:nonzero;"/>
            </g>
            <clipPath id="_clip5">
                <path d="M44.516,54.491C44.981,54.491 45.357,54.185 45.357,53.808C45.357,53.431 44.981,53.511 44.516,53.511C44.051,53.511 43.675,53.431 43.675,53.808C43.675,54.185 44.051,54.491 44.516,54.491Z"/>
            </clipPath>
            <g clip-path="url(#_clip5)">
                <rect x="42.675" y="52.431" width="3.682" height="3.06" style="fill:rgb(204,65,65);fill-rule:nonzero;"/>
            </g>
            <clipPath id="_clip6">
                <path d="M42.976,53.176C43.186,53.176 43.357,53 43.357,52.782C43.357,52.564 43.186,52.387 42.976,52.387C42.765,52.387 42.595,52.564 42.595,52.782C42.595,53 42.765,53.176 42.976,53.176Z"/>
            </clipPath>
            <g clip-path="url(#_clip6)">
                <rect x="41.595" y="51.387" width="2.762" height="2.789" style="fill:rgb(54,54,54);fill-rule:nonzero;"/>
            </g>
            <clipPath id="_clip7">
                <path d="M46.023,53.176C46.234,53.176 46.404,53 46.404,52.782C46.404,52.564 46.234,52.387 46.023,52.387C45.813,52.387 45.642,52.564 45.642,52.782C45.642,53 45.813,53.176 46.023,53.176Z"/>
            </clipPath>
            <g clip-path="url(#_clip7)">
                <rect x="44.642" y="51.387" width="2.762" height="2.789" style="fill:rgb(54,54,54);fill-rule:nonzero;"/>
            </g>
        </g>
    </g>
</svg>
