<?xml version="1.0" encoding="UTF-8" standalone="no"?>
<!DOCTYPE svg PUBLIC "-//W3C//DTD SVG 1.1//EN" "http://www.w3.org/Graphics/SVG/1.1/DTD/svg11.dtd">
<svg width="100%" height="100%" viewBox="0 0 180 109" version="1.1" xmlns="http://www.w3.org/2000/svg" xmlns:xlink="http://www.w3.org/1999/xlink" xml:space="preserve" xmlns:serif="http://www.serif.com/" style="fill-rule:evenodd;clip-rule:evenodd;stroke-linejoin:round;stroke-miterlimit:2;">
    <g>
        <g transform="matrix(1,0,0,1,0.779999,-1)">
            <path d="M81.964,59.24C85.148,59.24 86.813,57.637 86.813,55.493C86.813,52.859 84.217,52.286 83.352,52.09C80.429,51.353 79.874,51.222 79.874,50.322C79.874,49.34 80.821,48.997 81.637,48.997C82.878,48.997 83.858,49.373 83.94,50.764L86.421,50.764C86.421,48.064 84.184,47 81.752,47C79.645,47 77.392,48.13 77.392,50.535C77.392,52.695 79.139,53.431 80.87,53.857C82.568,54.331 84.331,54.511 84.331,55.788C84.331,56.982 82.96,57.244 82.062,57.244C80.69,57.244 79.482,56.639 79.482,55.084L77,55.084C76.951,57.964 79.384,59.24 81.964,59.24ZM92.185,59.191C94.847,59.191 96.561,57.424 96.561,54.74C96.561,52.04 94.847,50.273 92.185,50.273C89.54,50.273 87.826,52.04 87.826,54.74C87.826,57.424 89.54,59.191 92.185,59.191ZM92.185,57.44C90.618,57.44 90.144,56.099 90.144,54.74C90.144,53.382 90.618,52.024 92.185,52.024C93.769,52.024 94.242,53.382 94.242,54.74C94.242,56.099 93.769,57.44 92.185,57.44ZM100.382,61.94L100.382,57.915L100.414,57.915C100.986,58.75 101.917,59.191 102.945,59.191C105.427,59.191 106.652,57.08 106.652,54.822C106.652,52.417 105.46,50.273 102.815,50.273C101.77,50.273 100.872,50.666 100.3,51.582L100.267,51.582L100.267,50.502L98.063,50.502L98.063,61.94L100.382,61.94ZM102.325,57.44C100.823,57.44 100.3,56.131 100.3,54.757C100.3,53.382 100.79,52.024 102.308,52.024C103.794,52.024 104.333,53.399 104.333,54.757C104.333,56.131 103.843,57.44 102.325,57.44ZM110.358,58.962L110.358,54.528C110.358,52.81 110.897,52.106 112.154,52.106C113.248,52.106 113.64,52.793 113.64,54.184L113.64,58.962L115.959,58.962L115.959,53.759C115.959,51.664 115.338,50.273 112.873,50.273C112.007,50.273 110.995,50.715 110.407,51.68L110.358,51.68L110.358,47.279L108.04,47.279L108.04,58.962L110.358,58.962ZM120.106,49.193L120.106,47.279L117.787,47.279L117.787,49.193L120.106,49.193ZM120.106,58.962L120.106,50.502L117.787,50.502L117.787,58.962L120.106,58.962ZM125.837,59.191C127.747,59.191 129.135,58.357 129.788,56.344L127.747,56.344C127.6,56.868 126.849,57.44 125.919,57.44C124.612,57.44 123.91,56.786 123.845,55.297L129.935,55.297C130.115,52.695 128.711,50.273 125.837,50.273C123.273,50.273 121.526,52.204 121.526,54.74C121.526,57.359 123.175,59.191 125.837,59.191ZM127.617,53.824L123.845,53.824C123.894,53.17 124.269,52.024 125.772,52.024C126.898,52.024 127.404,52.646 127.617,53.824Z"/>
        </g>
        <g transform="matrix(1,0,0,1,0.779999,-1)">
            <path d="M132.711,58.962L132.711,53.3L139.634,53.3L139.634,58.962L140.744,58.962L140.744,47.279L139.634,47.279L139.634,52.351L132.711,52.351L132.711,47.279L131.601,47.279L131.601,58.962L132.711,58.962ZM145.839,59.208C147.096,59.208 148.206,58.57 148.745,57.44L148.778,57.44L148.778,58.962L149.725,58.962L149.725,50.519L148.696,50.519L148.696,54.953C148.696,56.671 147.928,58.34 146.165,58.34C144.532,58.34 143.961,57.539 143.912,56.017L143.912,50.519L142.883,50.519L142.883,56C142.883,57.98 143.7,59.208 145.839,59.208ZM155.652,59.208C158.215,59.208 159.44,57.146 159.44,54.74C159.44,52.335 158.215,50.273 155.652,50.273C154.411,50.273 153.153,50.911 152.729,52.122L152.696,52.122L152.696,47.279L151.668,47.279L151.668,58.962L152.615,58.962L152.615,57.359L152.647,57.359C153.121,58.52 154.28,59.208 155.652,59.208ZM155.652,58.34C153.48,58.34 152.696,56.491 152.696,54.74C152.696,52.99 153.48,51.14 155.652,51.14C157.611,51.14 158.411,52.99 158.411,54.74C158.411,56.491 157.611,58.34 155.652,58.34Z"/>
        </g>
        <g transform="matrix(1,0,0,1,0.779999,-1)">
            <clipPath id="_clip1">
                <path d="M29.302,60.237L19,55.474L19,54.398L29.302,49.635L29.302,50.761L20.275,54.961L29.302,59.161L29.302,60.237Z"/>
            </clipPath>
            <g clip-path="url(#_clip1)">
                <rect x="18" y="48.635" width="12.302" height="12.602" style="fill-rule:nonzero;"/>
            </g>
        </g>
        <g transform="matrix(1,0,0,1,0.779999,-1)">
            <clipPath id="_clip2">
                <path d="M68.368,54.961L59.29,50.761L59.29,49.635L69.592,54.398L69.592,55.525L59.29,60.288L59.29,59.161L68.368,54.961Z"/>
            </clipPath>
            <g clip-path="url(#_clip2)">
                <rect x="58.29" y="48.635" width="12.302" height="12.653" style="fill-rule:nonzero;"/>
            </g>
        </g>
        <g transform="matrix(1,0,0,1,0.779999,-1)">
            <clipPath id="_clip3">
                <path d="M50,45C51.104,45 52,45.918 52,47.049L52,63.952C52,65.083 51.104,66 50,66L39,66C37.895,66 37,65.083 37,63.952L37,47.049C37,45.918 37.895,45 39,45L50,45ZM50.5,62.926L38.5,62.926L38.5,63.952C38.5,64.214 38.693,64.431 38.941,64.46L39,64.464L50,64.464C50.256,64.464 50.467,64.266 50.496,64.011L50.5,63.952L50.5,62.926ZM50,46.537L39,46.537C38.743,46.537 38.532,46.735 38.503,46.99L38.5,47.049L38.5,61.39L50.5,61.39L50.5,47.049C50.5,46.787 50.306,46.57 50.058,46.541L50,46.537Z"/>
            </clipPath>
            <g clip-path="url(#_clip3)">
                <rect x="36" y="44" width="17" height="23" style="fill-rule:nonzero;"/>
            </g>
        </g>
        <g transform="matrix(1,0,0,1,0.779999,-1)">
            <clipPath id="_clip4">
                <path d="M44.5,51.147C44.874,51.147 45.198,51.234 45.354,51.361L45.362,51.361C46.368,51.361 47.249,51.894 47.738,52.693L47.738,52.017C47.607,51.945 47.519,51.802 47.519,51.637C47.519,51.401 47.702,51.209 47.928,51.209C48.154,51.209 48.338,51.401 48.338,51.637C48.338,51.802 48.249,51.944 48.119,52.016L48.119,52.996C48.347,53.201 48.5,53.584 48.5,54.024C48.5,54.561 48.271,55.015 47.958,55.16C47.553,56.196 46.543,56.932 45.362,56.932L43.694,56.932C42.523,56.932 41.521,56.209 41.109,55.185C40.762,55.08 40.5,54.6 40.5,54.024C40.5,53.584 40.652,53.201 40.88,52.996L40.88,52.016C40.75,51.944 40.661,51.802 40.661,51.637C40.661,51.401 40.845,51.209 41.071,51.209C41.297,51.209 41.48,51.401 41.48,51.637C41.48,51.802 41.392,51.945 41.261,52.017L41.26,52.792C41.728,51.952 42.619,51.379 43.645,51.362C43.798,51.235 44.123,51.147 44.5,51.147ZM45.383,52.196L43.616,52.196C42.526,52.196 41.642,53.079 41.642,54.169C41.642,55.259 42.526,56.142 43.616,56.142L45.383,56.142C46.473,56.142 47.357,55.259 47.357,54.169C47.357,53.079 46.473,52.196 45.383,52.196Z"/>
            </clipPath>
            <g clip-path="url(#_clip4)">
                <rect x="39.5" y="50.147" width="10" height="7.785" style="fill-rule:nonzero;"/>
            </g>
        </g>
        <g transform="matrix(1,0,0,1,0.779999,-1)">
            <clipPath id="_clip5">
                <path d="M44.516,55.491C44.981,55.491 45.357,55.185 45.357,54.808C45.357,54.431 44.981,54.511 44.516,54.511C44.051,54.511 43.675,54.431 43.675,54.808C43.675,55.185 44.051,55.491 44.516,55.491Z"/>
            </clipPath>
            <g clip-path="url(#_clip5)">
                <rect x="42.675" y="53.431" width="3.682" height="3.06" style="fill-rule:nonzero;"/>
            </g>
        </g>
        <g transform="matrix(1,0,0,1,0.779999,-1)">
            <clipPath id="_clip6">
                <path d="M42.976,54.176C43.186,54.176 43.357,54 43.357,53.782C43.357,53.564 43.186,53.387 42.976,53.387C42.765,53.387 42.595,53.564 42.595,53.782C42.595,54 42.765,54.176 42.976,54.176Z"/>
            </clipPath>
            <g clip-path="url(#_clip6)">
                <rect x="41.595" y="52.387" width="2.762" height="2.789" style="fill-rule:nonzero;"/>
            </g>
        </g>
        <g transform="matrix(1,0,0,1,0.779999,-1)">
            <clipPath id="_clip7">
                <path d="M46.023,54.176C46.234,54.176 46.404,54 46.404,53.782C46.404,53.564 46.234,53.387 46.023,53.387C45.813,53.387 45.642,53.564 45.642,53.782C45.642,54 45.813,54.176 46.023,54.176Z"/>
            </clipPath>
            <g clip-path="url(#_clip7)">
                <rect x="44.642" y="52.387" width="2.762" height="2.789" style="fill-rule:nonzero;"/>
            </g>
        </g>
    </g>
</svg>
