<?xml version="1.0" encoding="UTF-8"?>
<svg width="180px" height="109px" viewBox="0 0 180 109" version="1.1" xmlns="http://www.w3.org/2000/svg" xmlns:xlink="http://www.w3.org/1999/xlink">
    <title>SophieBot_horizontal_BW</title>
    <g id="SophieBot_horizontal_BW" stroke="none" stroke-width="1" fill="none" fill-rule="evenodd" transform="translate(0.000000, 0.000000)">
        <g id="Group-11" transform="translate(24.000000, 45.000000)" fill="#000000" fill-rule="nonzero">
            <g id="SophieBot" transform="translate(59.000000, 3.000000)">
                <path d="M4.72013212,11.22 C7.74740485,11.22 9.33090135,9.75 9.33090135,7.785 C9.33090135,5.37 6.86250975,4.845 6.03971254,4.665 C3.26083142,3.99 2.73299925,3.87 2.73299925,3.045 C2.73299925,2.145 3.63341883,1.83 4.40964261,1.83 C5.58950275,1.83 6.52097128,2.175 6.59859366,3.45 L8.95831394,3.45 C8.95831394,0.975 6.83146079,8.17124145e-14 4.51831394,8.17124145e-14 C2.51565659,8.17124145e-14 0.373278971,1.035 0.373278971,3.24 C0.373278971,5.22 2.03439785,5.895 3.67999226,6.285 C5.29453772,6.72 6.97118107,6.885 6.97118107,8.055 C6.97118107,9.15 5.66712513,9.39 4.81327897,9.39 C3.50922303,9.39 2.36041184,8.835 2.36041184,7.41 L0.000691557789,7.41 C-0.0458818688,10.05 2.26726499,11.22 4.72013212,11.22 Z M14.4384538,11.175 C16.9689433,11.175 18.5990132,9.555 18.5990132,7.095 C18.5990132,4.62 16.9689433,3 14.4384538,3 C11.9234888,3 10.2934188,4.62 10.2934188,7.095 C10.2934188,9.555 11.9234888,11.175 14.4384538,11.175 Z M14.4384538,9.57 C12.9481042,9.57 12.4978944,8.34 12.4978944,7.095 C12.4978944,5.85 12.9481042,4.605 14.4384538,4.605 C15.9443279,4.605 16.3945377,5.85 16.3945377,7.095 C16.3945377,8.34 15.9443279,9.57 14.4384538,9.57 Z M22.2317405,13.695 L22.2317405,10.005 L22.2627895,10.005 C22.8061461,10.77 23.6910412,11.175 24.6690832,11.175 C27.0288035,11.175 28.1931391,9.24 28.1931391,7.17 C28.1931391,4.965 27.0598524,3 24.5448874,3 C23.5513209,3 22.6974748,3.36 22.1541181,4.2 L22.1230692,4.2 L22.1230692,3.21 L20.027265,3.21 L20.027265,13.695 L22.2317405,13.695 Z M24.0791531,9.57 C22.6509014,9.57 22.1541181,8.37 22.1541181,7.11 C22.1541181,5.85 22.6198524,4.605 24.0636286,4.605 C25.4763559,4.605 25.9886636,5.865 25.9886636,7.11 C25.9886636,8.37 25.5229293,9.57 24.0791531,9.57 Z M31.7171951,10.965 L31.7171951,6.9 C31.7171951,5.325 32.2295028,4.68 33.4248874,4.68 C34.4650272,4.68 34.8376146,5.31 34.8376146,6.585 L34.8376146,10.965 L37.0420902,10.965 L37.0420902,6.195 C37.0420902,4.275 36.4521601,3 34.1079643,3 C33.2851671,3 32.3226496,3.405 31.7637685,4.29 L31.7171951,4.29 L31.7171951,0.255 L29.5127195,0.255 L29.5127195,10.965 L31.7171951,10.965 Z M40.9853069,2.01 L40.9853069,0.255 L38.7808314,0.255 L38.7808314,2.01 L40.9853069,2.01 Z M40.9853069,10.965 L40.9853069,3.21 L38.7808314,3.21 L38.7808314,10.965 L40.9853069,10.965 Z M46.4343979,11.175 C48.2507615,11.175 49.5703419,10.41 50.1913209,8.565 L48.2507615,8.565 C48.1110412,9.045 47.3969153,9.57 46.5120202,9.57 C45.2700622,9.57 44.6025097,8.97 44.5404118,7.605 L50.3310412,7.605 C50.5018104,5.22 49.1667055,3 46.4343979,3 C43.9970552,3 42.3359363,4.77 42.3359363,7.095 C42.3359363,9.495 43.9039083,11.175 46.4343979,11.175 Z M48.1265657,6.255 L44.5404118,6.255 C44.5869853,5.655 44.9440482,4.605 46.3723,4.605 C47.4434888,4.605 47.9247475,5.175 48.1265657,6.255 Z" id="Sophie"></path>
                <path d="M56.6029291,10.965 C60.2046074,10.965 60.5771949,8.94 60.5771949,7.92 C60.5771949,6.525 59.6612508,5.49 58.232999,5.31 L58.232999,5.28 C59.3818102,5.04 60.158034,4.005 60.158034,2.88 C60.158034,0.885 58.4658662,0.255 56.6029291,0.255 L51.9145375,0.255 L51.9145375,10.965 L56.6029291,10.965 Z M56.6029291,4.95 L52.9702018,4.95 L52.9702018,1.125 L56.6029291,1.125 C58.264048,1.125 59.1023697,1.8 59.1023697,3.135 C59.1023697,4.14 58.2795725,4.95 56.6029291,4.95 Z M56.6029291,10.095 L52.9702018,10.095 L52.9702018,5.82 L56.6029291,5.82 C58.4658662,5.82 59.5215305,6.51 59.5215305,7.89 C59.5215305,9.63 58.1709011,10.095 56.6029291,10.095 Z M65.4674046,11.19 C67.9047473,11.19 69.2553767,9.315 69.2553767,7.095 C69.2553767,4.875 67.9047473,3 65.4674046,3 C63.030062,3 61.6794326,4.875 61.6794326,7.095 C61.6794326,9.315 63.030062,11.19 65.4674046,11.19 Z M65.4674046,10.395 C63.6044676,10.395 62.6574746,8.73 62.6574746,7.095 C62.6574746,5.46 63.6044676,3.795 65.4674046,3.795 C67.3303417,3.795 68.2773347,5.46 68.2773347,7.095 C68.2773347,8.73 67.3303417,10.395 65.4674046,10.395 Z M73.0278242,11.055 C73.3227893,11.055 73.6022298,11.025 73.8971949,11.025 L73.8971949,10.215 C73.6177543,10.245 73.3383137,10.26 73.0588732,10.26 C72.3602718,10.215 72.2671249,9.855 72.2671249,9.24 L72.2671249,4.02 L73.8971949,4.02 L73.8971949,3.225 L72.2671249,3.225 L72.2671249,0.9 L71.289083,0.9 L71.289083,3.225 L69.8918802,3.225 L69.8918802,4.02 L71.289083,4.02 L71.289083,9.315 C71.2735585,10.635 71.7237683,11.055 73.0278242,11.055 Z" id="Bot"></path>
            </g>
            <g id="Combined-Shape-Clipped">
                <polygon id="Path" points="10.504 14.8428571 0 9.97142857 0 8.87142857 10.504 4 10.504 5.15238095 1.3 9.44761905 10.504 13.7428571"></polygon>
                <polygon id="Path" points="50.336 9.44761905 41.08 5.15238095 41.08 4 51.584 8.87142857 51.584 10.0238095 41.08 14.8952381 41.08 13.7428571"></polygon>
                <path d="M30.9923938,0 C31.914317,0 32.6611428,0.731599174 32.6611428,1.63390482 C32.6611428,2.53621047 31.914317,3.26758794 30.9923938,3.26758794 C30.8952936,3.26758794 30.8004083,3.25872007 30.7082076,3.24262653 L30.5719787,3.21327224 L28.8457846,6.32715393 C29.7003976,6.93940315 30.2759628,7.91735498 30.3444768,9.03266301 L32.7744012,9.33387526 C33.015415,8.72177061 33.6206678,8.28680163 34.3307979,8.28680163 C35.2527212,8.28680163 36,9.01840083 36,9.92070648 C36,10.8227904 35.2527212,11.5543896 34.3307979,11.5543896 C33.5251444,11.5543896 32.8529241,10.9952904 32.6967442,10.2517425 L32.6736012,10.1102572 L30.3079517,9.81822194 C30.1118417,11.0732207 29.2683557,12.1132731 28.1304083,12.5849336 L28.6173655,14.7344073 C29.5213939,14.7554685 30.2473802,15.477313 30.2473802,16.3663169 C30.2473802,17.2686225 29.4996483,18 28.5777251,18 C27.6560283,18 26.9082965,17.2686225 26.9082965,16.3663169 C26.9082965,15.7742843 27.2310065,15.2570567 27.7128741,14.9706956 L27.8365622,14.9040053 L27.3614735,12.8064193 C27.1648717,12.8397744 26.9628395,12.8571429 26.7567568,12.8571429 C25.2094603,12.8571429 23.8905007,11.8780463 23.3838745,10.5047278 L20.3331942,11.4497487 C20.3354594,11.4845551 20.3386306,11.5191398 20.3386306,11.5543896 C20.3386306,12.4569169 19.5911253,13.1880727 18.6694286,13.1880727 C17.7475053,13.1880727 17,12.4569169 17,11.5543896 C17,10.6523056 17.7475053,9.92070648 18.6694286,9.92070648 C19.2173932,9.92070648 19.7022702,10.1799634 20.0064613,10.5792174 L20.0921804,10.7030742 L23.1945617,9.74256917 C23.1731954,9.58380871 23.1621622,9.42176618 23.1621622,9.25714286 C23.1621622,8.30721307 23.5295322,7.44321621 24.1297461,6.79988057 L22.8593092,5.53709726 C22.6096878,5.68230861 22.3192933,5.76721846 22.0078327,5.76721846 C21.086136,5.76721846 20.3386306,5.03584097 20.3386306,4.13353533 C20.3386306,3.23100798 21.086136,2.49963051 22.0078327,2.49963051 C22.929756,2.49963051 23.6772613,3.23100798 23.6772613,4.13353533 C23.6772613,4.39476796 23.6135535,4.6409129 23.501737,4.85965366 L23.4289989,4.98751108 L24.7319419,6.28219985 C25.3085783,5.88778529 26.0057733,5.65714286 26.7567568,5.65714286 C27.2513026,5.65714286 27.7225223,5.75716392 28.1513477,5.93810923 L29.8690972,2.83993497 C29.5340788,2.54108779 29.3227387,2.11188295 29.3227387,1.63390482 C29.3227387,0.731599174 30.069791,0 30.9923938,0 Z M26.7567568,6.68571429 C25.3387283,6.68571429 24.1891892,7.83698207 24.1891892,9.25714286 C24.1891892,10.6773036 25.3387283,11.8285714 26.7567568,11.8285714 C28.1747852,11.8285714 29.3243243,10.6773036 29.3243243,9.25714286 C29.3243243,7.83698207 28.1747852,6.68571429 26.7567568,6.68571429 Z" id="Combined-Shape"></path>
            </g>
        </g>
    </g>
</svg>