<?xml version="1.0" encoding="UTF-8"?>
<svg width="180px" height="108px" viewBox="0 0 180 108" version="1.1" xmlns="http://www.w3.org/2000/svg" xmlns:xlink="http://www.w3.org/1999/xlink">
    <title>SophieBot</title>
    <g id="SophieBot" stroke="none" stroke-width="1" fill="none" fill-rule="evenodd">
        <g id="Group-11" transform="translate(32.000000, 21.000000)" fill-rule="nonzero">
            <g id="Group-31" transform="translate(7.000000, 0.000000)">
                <g id="Group-2" transform="translate(0.000000, 7.000000)" fill="#444445">
                    <polygon id="Path" points="20.2 20.7 0 11.4 0 9.3 20.2 0 20.2 2.2 2.5 10.4 20.2 18.6"></polygon>
                    <polygon id="Path" points="96.8 10.4 79 2.2 79 0 99.2 9.3 99.2 11.5 79 20.8 79 18.6"></polygon>
                </g>
                <g id="Group-5" transform="translate(32.000000, -0.000000)">
                    <g id="Group-4" fill="#CC4141">
                        <path d="M30.7185708,18.1492019 L25.7966476,17.5409523 C25.7966476,17.5284511 25.7975298,17.5172431 25.7975298,17.5051729 C25.7975298,15.3666002 24.7146008,13.4758966 23.0569034,12.324059 L26.4296427,6.24802936 C26.6907808,6.31484629 26.9647111,6.35364322 27.2483458,6.35364322 C29.04367,6.35364322 30.498015,4.93152035 30.498015,3.17703715 C30.498015,1.42255395 29.04367,0 27.2483458,0 C25.4516983,0 23.9969122,1.42255395 23.9969122,3.17703715 C23.9969122,4.10643906 24.4084693,4.94100404 25.0608734,5.52209577 L21.687693,11.5972633 C20.9479488,11.3105971 20.1402735,11.1510986 19.2951037,11.1510986 C17.7979709,11.1510986 16.4203794,11.6472682 15.3215704,12.4779535 L12.5196295,9.69793822 C12.8244376,9.21426988 13.0030878,8.64697261 13.0030878,8.0374298 C13.0030878,6.28251552 11.5474195,4.86039265 9.75209528,4.86039265 C7.95721217,4.86039265 6.50154389,6.28251552 6.50154389,8.0374298 C6.50154389,9.791913 7.95721217,11.2140359 9.75209528,11.2140359 C10.3586237,11.2140359 10.9241288,11.0489334 11.4102338,10.766578 L14.2117336,13.5461622 C13.3255404,14.632045 12.7940009,16.0076116 12.7940009,17.5051729 C12.7940009,17.9073677 12.8337009,18.3005099 12.9069255,18.6824441 L6.02161447,20.8115332 C5.44993383,19.9002365 4.42479047,19.2902626 3.2509925,19.2902626 C1.45566828,19.2902626 0,20.7128165 0,22.4668687 C0,24.2217829 1.45566828,25.6434747 3.2509925,25.6434747 C5.04587561,25.6434747 6.50154389,24.2217829 6.50154389,22.4668687 C6.50154389,22.3983274 6.49536833,22.3310794 6.49095721,22.2634003 L13.3767093,20.1338802 C14.4000882,22.3302173 16.6647552,23.8583851 19.2951037,23.8583851 C19.5108072,23.8583851 19.723423,23.8476081 19.9338333,23.8277786 L21.102779,28.9800103 C20.0326423,29.4998892 19.2951037,30.5762883 19.2951037,31.8233939 C19.2951037,33.5778771 20.7512131,35 22.5460962,35 C24.3414204,35 25.7975298,33.5778771 25.7975298,31.8233939 C25.7975298,30.0947753 24.3837671,28.6911888 22.6232907,28.6502365 L21.4543449,23.4984358 C23.4962506,22.7957804 25.071019,21.1257883 25.6016762,19.0510149 L30.5222761,19.6588334 C30.7088663,21.2395926 32.0824879,22.4668687 33.7494486,22.4668687 C35.5447728,22.4668687 37,21.0443147 37,19.2902626 C37,17.5357794 35.5447728,16.1132254 33.7494486,16.1132254 C32.3665637,16.1132254 31.1879135,16.9589984 30.7185708,18.1492019 Z" id="Fill-1"></path>
                        <circle id="Oval" cx="19" cy="18" r="7"></circle>
                    </g>
                    <circle id="Oval" fill="#333333" cx="19" cy="18" r="5"></circle>
                </g>
            </g>
            <g id="SophieBot" transform="translate(0.000000, 44.000000)">
                <path d="M7.29706911,17.952 C11.9770691,17.952 14.4250691,15.6 14.4250691,12.456 C14.4250691,8.592 10.6090691,7.752 9.33706911,7.464 C5.04106911,6.384 4.22506911,6.192 4.22506911,4.872 C4.22506911,3.432 5.61706911,2.928 6.81706911,2.928 C8.64106911,2.928 10.0810691,3.48 10.2010691,5.52 L13.8490691,5.52 C13.8490691,1.56 10.5610691,-9.23705556e-14 6.98506911,-9.23705556e-14 C3.88906911,-9.23705556e-14 0.577069111,1.656 0.577069111,5.184 C0.577069111,8.352 3.14506911,9.432 5.68906911,10.056 C8.18506911,10.752 10.7770691,11.016 10.7770691,12.888 C10.7770691,14.64 8.76106911,15.024 7.44106911,15.024 C5.42506911,15.024 3.64906911,14.136 3.64906911,11.856 L0.00106911096,11.856 C-0.070930889,16.08 3.50506911,17.952 7.29706911,17.952 Z M22.3210691,17.88 C26.2330691,17.88 28.7530691,15.288 28.7530691,11.352 C28.7530691,7.392 26.2330691,4.8 22.3210691,4.8 C18.4330691,4.8 15.9130691,7.392 15.9130691,11.352 C15.9130691,15.288 18.4330691,17.88 22.3210691,17.88 Z M22.3210691,15.312 C20.0170691,15.312 19.3210691,13.344 19.3210691,11.352 C19.3210691,9.36 20.0170691,7.368 22.3210691,7.368 C24.6490691,7.368 25.3450691,9.36 25.3450691,11.352 C25.3450691,13.344 24.6490691,15.312 22.3210691,15.312 Z M34.3690691,21.912 L34.3690691,16.008 L34.4170691,16.008 C35.2570691,17.232 36.6250691,17.88 38.1370691,17.88 C41.7850691,17.88 43.5850691,14.784 43.5850691,11.472 C43.5850691,7.944 41.8330691,4.8 37.9450691,4.8 C36.4090691,4.8 35.0890691,5.376 34.2490691,6.72 L34.2010691,6.72 L34.2010691,5.136 L30.9610691,5.136 L30.9610691,21.912 L34.3690691,21.912 Z M37.2250691,15.312 C35.0170691,15.312 34.2490691,13.392 34.2490691,11.376 C34.2490691,9.36 34.9690691,7.368 37.2010691,7.368 C39.3850691,7.368 40.1770691,9.384 40.1770691,11.376 C40.1770691,13.392 39.4570691,15.312 37.2250691,15.312 Z M49.0330691,17.544 L49.0330691,11.04 C49.0330691,8.52 49.8250691,7.488 51.6730691,7.488 C53.2810691,7.488 53.8570691,8.496 53.8570691,10.536 L53.8570691,17.544 L57.2650691,17.544 L57.2650691,9.912 C57.2650691,6.84 56.3530691,4.8 52.7290691,4.8 C51.4570691,4.8 49.9690691,5.448 49.1050691,6.864 L49.0330691,6.864 L49.0330691,0.408 L45.6250691,0.408 L45.6250691,17.544 L49.0330691,17.544 Z M63.3610691,3.216 L63.3610691,0.408 L59.9530691,0.408 L59.9530691,3.216 L63.3610691,3.216 Z M63.3610691,17.544 L63.3610691,5.136 L59.9530691,5.136 L59.9530691,17.544 L63.3610691,17.544 Z M71.7850691,17.88 C74.5930691,17.88 76.6330691,16.656 77.5930691,13.704 L74.5930691,13.704 C74.3770691,14.472 73.2730691,15.312 71.9050691,15.312 C69.9850691,15.312 68.9530691,14.352 68.8570691,12.168 L77.8090691,12.168 C78.0730691,8.352 76.0090691,4.8 71.7850691,4.8 C68.0170691,4.8 65.4490691,7.632 65.4490691,11.352 C65.4490691,15.192 67.8730691,17.88 71.7850691,17.88 Z M74.4010691,10.008 L68.8570691,10.008 C68.9290691,9.048 69.4810691,7.368 71.6890691,7.368 C73.3450691,7.368 74.0890691,8.28 74.4010691,10.008 Z" id="Sophie" fill="#CA4241"></path>
                <path d="M87.5050691,17.544 C93.0730691,17.544 93.6490691,14.304 93.6490691,12.672 C93.6490691,10.44 92.2330691,8.784 90.0250691,8.496 L90.0250691,8.448 C91.8010691,8.064 93.0010691,6.408 93.0010691,4.608 C93.0010691,1.416 90.3850691,0.408 87.5050691,0.408 L80.2570691,0.408 L80.2570691,17.544 L87.5050691,17.544 Z M87.5050691,7.92 L81.8890691,7.92 L81.8890691,1.8 L87.5050691,1.8 C90.0730691,1.8 91.3690691,2.88 91.3690691,5.016 C91.3690691,6.624 90.0970691,7.92 87.5050691,7.92 Z M87.5050691,16.152 L81.8890691,16.152 L81.8890691,9.312 L87.5050691,9.312 C90.3850691,9.312 92.0170691,10.416 92.0170691,12.624 C92.0170691,15.408 89.9290691,16.152 87.5050691,16.152 Z M101.209069,17.904 C104.977069,17.904 107.065069,14.904 107.065069,11.352 C107.065069,7.8 104.977069,4.8 101.209069,4.8 C97.4410691,4.8 95.3530691,7.8 95.3530691,11.352 C95.3530691,14.904 97.4410691,17.904 101.209069,17.904 Z M101.209069,16.632 C98.3290691,16.632 96.8650691,13.968 96.8650691,11.352 C96.8650691,8.736 98.3290691,6.072 101.209069,6.072 C104.089069,6.072 105.553069,8.736 105.553069,11.352 C105.553069,13.968 104.089069,16.632 101.209069,16.632 Z M112.897069,17.688 C113.353069,17.688 113.785069,17.64 114.241069,17.64 L114.241069,16.344 C113.809069,16.392 113.377069,16.416 112.945069,16.416 C111.865069,16.344 111.721069,15.768 111.721069,14.784 L111.721069,6.432 L114.241069,6.432 L114.241069,5.16 L111.721069,5.16 L111.721069,1.44 L110.209069,1.44 L110.209069,5.16 L108.049069,5.16 L108.049069,6.432 L110.209069,6.432 L110.209069,14.904 C110.185069,17.016 110.881069,17.688 112.897069,17.688 Z" id="Bot" fill="#444445"></path>
            </g>
        </g>
    </g>
</svg>