<?xml version="1.0" encoding="UTF-8" standalone="no"?>
<!DOCTYPE svg PUBLIC "-//W3C//DTD SVG 1.1//EN" "http://www.w3.org/Graphics/SVG/1.1/DTD/svg11.dtd">
<svg width="100%" height="100%" viewBox="0 0 135 21" version="1.1" xmlns="http://www.w3.org/2000/svg" xmlns:xlink="http://www.w3.org/1999/xlink" xml:space="preserve" xmlns:serif="http://www.serif.com/" style="fill-rule:evenodd;clip-rule:evenodd;stroke-linejoin:round;stroke-miterlimit:2;">
    <g id="Artboard2" transform="matrix(0.964286,0,0,1,0,0)">
        <rect x="0" y="0" width="140" height="21" style="fill:none;"/>
        <clipPath id="_clip1">
            <rect x="0" y="0" width="140" height="21"/>
        </clipPath>
        <g clip-path="url(#_clip1)">
            <g id="Artboard1" transform="matrix(0.806585,0,0,0.192661,0,0)">
                <rect x="0" y="0" width="180" height="109" style="fill:none;"/>
                <g>
                    <g transform="matrix(0.341756,0,0,0.766873,-221.43,-352.463)">
                        <g>
                            <path d="M862.605,534.834C862.42,554.338 871.598,562.982 881.33,562.982C893.341,562.982 899.624,552.122 899.624,537.605C899.624,519.763 889.83,515.885 886.565,514.555C875.54,509.568 873.445,508.682 873.445,502.587C873.445,495.938 877.018,493.611 880.098,493.611C884.779,493.611 888.475,496.159 888.783,505.579L898.145,505.579C898.145,487.294 889.707,480.091 880.529,480.091C872.583,480.091 864.083,487.737 864.083,504.027C864.083,518.655 870.674,523.642 877.203,526.523C883.609,529.737 890.261,530.956 890.261,539.599C890.261,547.689 885.087,549.462 881.699,549.462C876.525,549.462 871.967,545.362 871.967,534.834L862.605,534.834Z" style="fill:rgb(202,66,65);fill-rule:nonzero;"/>
                            <path d="M912.189,532.507C912.189,523.309 913.975,514.112 919.888,514.112C925.863,514.112 927.65,523.309 927.65,532.507C927.65,541.705 925.863,550.792 919.888,550.792C913.975,550.792 912.189,541.705 912.189,532.507ZM903.442,532.507C903.442,550.681 909.91,562.649 919.888,562.649C929.929,562.649 936.396,550.681 936.396,532.507C936.396,514.222 929.929,502.254 919.888,502.254C909.91,502.254 903.442,514.222 903.442,532.507Z" style="fill:rgb(202,66,65);fill-rule:nonzero;"/>
                            <path d="M958.139,550.792C952.473,550.792 950.501,541.926 950.501,532.618C950.501,523.309 952.349,514.112 958.078,514.112C963.683,514.112 965.716,523.42 965.716,532.618C965.716,541.926 963.868,550.792 958.139,550.792ZM942.063,581.266L950.809,581.266L950.809,554.005L950.933,554.005C953.088,559.657 956.599,562.649 960.48,562.649C969.842,562.649 974.462,548.354 974.462,533.061C974.462,516.771 969.966,502.254 959.987,502.254C956.045,502.254 952.657,504.914 950.501,511.12L950.378,511.12L950.378,503.806L942.063,503.806L942.063,581.266Z" style="fill:rgb(202,66,65);fill-rule:nonzero;"/>
                            <path d="M979.698,561.098L988.444,561.098L988.444,531.066C988.444,519.431 990.477,514.666 995.22,514.666C999.347,514.666 1000.83,519.32 1000.83,528.739L1000.83,561.098L1009.57,561.098L1009.57,525.858C1009.57,511.674 1007.23,502.254 997.93,502.254C994.665,502.254 990.847,505.246 988.629,511.784L988.444,511.784L988.444,481.975L979.698,481.975L979.698,561.098Z" style="fill:rgb(202,66,65);fill-rule:nonzero;"/>
                            <path d="M1025.22,481.975L1016.47,481.975L1016.47,494.94L1025.22,494.94L1025.22,481.975ZM1016.47,561.098L1025.22,561.098L1025.22,503.806L1016.47,503.806L1016.47,561.098Z" style="fill:rgb(202,66,65);fill-rule:nonzero;"/>
                            <path d="M1039.32,526.301C1039.51,521.869 1040.92,514.112 1046.59,514.112C1050.84,514.112 1052.75,518.323 1053.55,526.301L1039.32,526.301ZM1062.3,536.275C1062.97,518.655 1057.68,502.254 1046.84,502.254C1037.17,502.254 1030.58,515.331 1030.58,532.507C1030.58,550.238 1036.8,562.649 1046.84,562.649C1054.04,562.649 1059.28,556.998 1061.74,543.367L1054.04,543.367C1053.49,546.913 1050.66,550.792 1047.14,550.792C1042.22,550.792 1039.57,546.359 1039.32,536.275L1062.3,536.275Z" style="fill:rgb(202,66,65);fill-rule:nonzero;"/>
                        </g>
                        <g>
                            <path d="M1072.77,488.402L1087.18,488.402C1093.77,488.402 1097.1,493.389 1097.1,503.252C1097.1,510.676 1093.83,516.66 1087.18,516.66L1072.77,516.66L1072.77,488.402ZM1068.58,561.098L1087.18,561.098C1101.47,561.098 1102.95,546.138 1102.95,538.602C1102.95,528.296 1099.32,520.65 1093.65,519.32L1093.65,519.098C1098.21,517.325 1101.29,509.679 1101.29,501.368C1101.29,486.629 1094.57,481.975 1087.18,481.975L1068.58,481.975L1068.58,561.098ZM1072.77,523.088L1087.18,523.088C1094.57,523.088 1098.76,528.185 1098.76,538.38C1098.76,551.235 1093.4,554.67 1087.18,554.67L1072.77,554.67L1072.77,523.088Z" style="fill:rgb(69,69,71);fill-rule:nonzero;"/>
                            <path d="M1122.35,508.128C1129.74,508.128 1133.5,520.428 1133.5,532.507C1133.5,544.586 1129.74,556.887 1122.35,556.887C1114.96,556.887 1111.2,544.586 1111.2,532.507C1111.2,520.428 1114.96,508.128 1122.35,508.128ZM1122.35,502.254C1112.68,502.254 1107.32,516.106 1107.32,532.507C1107.32,548.908 1112.68,562.76 1122.35,562.76C1132.02,562.76 1137.38,548.908 1137.38,532.507C1137.38,516.106 1132.02,502.254 1122.35,502.254Z" style="fill:rgb(69,69,71);fill-rule:nonzero;"/>
                            <path d="M1149.33,486.74L1145.45,486.74L1145.45,503.916L1139.91,503.916L1139.91,509.79L1145.45,509.79L1145.45,548.908C1145.39,558.66 1147.18,561.763 1152.35,561.763C1153.52,561.763 1154.63,561.541 1155.8,561.541L1155.8,555.557C1154.69,555.779 1153.58,555.889 1152.47,555.889C1149.7,555.557 1149.33,552.897 1149.33,548.354L1149.33,509.79L1155.8,509.79L1155.8,503.916L1149.33,503.916L1149.33,486.74Z" style="fill:rgb(69,69,71);fill-rule:nonzero;"/>
                        </g>
                    </g>
                    <g transform="matrix(0.100803,0,0,0.406944,-24.7513,-220.188)">
                        <g transform="matrix(12.3704,0,0,12.3704,10.503,-4.58095)">
                            <path d="M29.302,60.237L19,55.474L19,54.398L29.302,49.635L29.302,50.761L20.275,54.961L29.302,59.161L29.302,60.237Z" style="fill:rgb(69,69,71);"/>
                        </g>
                        <g transform="matrix(-12.3704,0,0,12.3704,1121.46,-4.58095)">
                            <path d="M29.302,60.237L19,55.474L19,54.398L29.302,49.635L29.302,50.761L20.275,54.961L29.302,59.161L29.302,60.237Z" style="fill:rgb(69,69,71);"/>
                        </g>
                        <g transform="matrix(26.6421,0,0,6.59944,-305.11,366.328)">
                            <g transform="matrix(1.28169,0,0,5.17421,-24.3142,-232.839)">
                                <g>
                                    <g>
                                        <clipPath id="_clip2">
                                            <path d="M44.5,51.147C44.874,51.147 45.198,51.234 45.354,51.361L45.362,51.361C46.368,51.361 47.249,51.894 47.738,52.693L47.738,52.017C47.607,51.945 47.519,51.802 47.519,51.637C47.519,51.401 47.702,51.209 47.928,51.209C48.154,51.209 48.338,51.401 48.338,51.637C48.338,51.802 48.249,51.944 48.119,52.016L48.119,52.996C48.347,53.201 48.5,53.584 48.5,54.024C48.5,54.561 48.271,55.015 47.958,55.16C47.553,56.196 46.543,56.932 45.362,56.932L43.694,56.932C42.523,56.932 41.521,56.209 41.109,55.185C40.762,55.08 40.5,54.6 40.5,54.024C40.5,53.584 40.652,53.201 40.88,52.996L40.88,52.016C40.75,51.944 40.661,51.802 40.661,51.637C40.661,51.401 40.845,51.209 41.071,51.209C41.297,51.209 41.48,51.401 41.48,51.637C41.48,51.802 41.392,51.945 41.261,52.017L41.26,52.792C41.728,51.952 42.619,51.379 43.645,51.362C43.798,51.235 44.123,51.147 44.5,51.147ZM45.383,52.196L43.616,52.196C42.526,52.196 41.642,53.079 41.642,54.169C41.642,55.259 42.526,56.142 43.616,56.142L45.383,56.142C46.473,56.142 47.357,55.259 47.357,54.169C47.357,53.079 46.473,52.196 45.383,52.196Z"/>
                                        </clipPath>
                                        <g clip-path="url(#_clip2)">
                                            <rect x="39.5" y="50.147" width="10" height="7.785" style="fill:rgb(69,69,71);"/>
                                        </g>
                                    </g>
                                </g>
                            </g>
                            <g transform="matrix(1.28169,0,0,5.17421,-24.3444,-232.839)">
                                <g>
                                    <g>
                                        <clipPath id="_clip3">
                                            <path d="M44.516,55.491C44.981,55.491 45.357,55.185 45.357,54.808C45.357,54.431 44.981,54.511 44.516,54.511C44.051,54.511 43.675,54.431 43.675,54.808C43.675,55.185 44.051,55.491 44.516,55.491Z"/>
                                        </clipPath>
                                        <g clip-path="url(#_clip3)">
                                            <rect x="42.675" y="53.431" width="3.682" height="3.06" style="fill:rgb(204,65,65);"/>
                                        </g>
                                    </g>
                                </g>
                            </g>
                            <g transform="matrix(1.28169,0,0,5.17421,-24.3444,-232.839)">
                                <g>
                                    <g>
                                        <clipPath id="_clip4">
                                            <path d="M42.976,54.176C43.186,54.176 43.357,54 43.357,53.782C43.357,53.564 43.186,53.387 42.976,53.387C42.765,53.387 42.595,53.564 42.595,53.782C42.595,54 42.765,54.176 42.976,54.176Z"/>
                                        </clipPath>
                                        <g clip-path="url(#_clip4)">
                                            <rect x="41.595" y="52.387" width="2.762" height="2.789" style="fill:rgb(69,69,71);"/>
                                        </g>
                                    </g>
                                </g>
                            </g>
                            <g transform="matrix(1.28169,0,0,5.17421,-24.3444,-232.839)">
                                <g>
                                    <g>
                                        <clipPath id="_clip5">
                                            <path d="M46.023,54.176C46.234,54.176 46.404,54 46.404,53.782C46.404,53.564 46.234,53.387 46.023,53.387C45.813,53.387 45.642,53.564 45.642,53.782C45.642,54 45.813,54.176 46.023,54.176Z"/>
                                        </clipPath>
                                        <g clip-path="url(#_clip5)">
                                            <rect x="44.642" y="52.387" width="2.762" height="2.789" style="fill:rgb(69,69,71);"/>
                                        </g>
                                    </g>
                                </g>
                            </g>
                        </g>
                    </g>
                </g>
            </g>
        </g>
    </g>
</svg>
