<?xml version="1.0" encoding="UTF-8"?>
<svg width="180px" height="108px" viewBox="0 0 180 108" version="1.1" xmlns="http://www.w3.org/2000/svg" xmlns:xlink="http://www.w3.org/1999/xlink">
    <title>SophieBot_BW</title>
    <g id="SophieBot_BW" stroke="none" stroke-width="1" fill="none" fill-rule="evenodd">
        <g id="Group-11" transform="translate(32.000000, 21.000000)" fill-rule="nonzero">
            <polygon id="Path" fill="#444445" points="27.2 27.7 7 18.4 7 16.3 27.2 7 27.2 9.2 9.5 17.4 27.2 25.6"></polygon>
            <polygon id="Path" fill="#444445" points="103.8 17.4 86 9.2 86 7 106.2 16.3 106.2 18.5 86 27.8 86 25.6"></polygon>
            <path d="M66.2483458,0 C68.04367,0 69.498015,1.42255395 69.498015,3.17703715 C69.498015,4.93152035 68.04367,6.35364322 66.2483458,6.35364322 C65.9647111,6.35364322 65.6907808,6.31484629 65.4296427,6.24802936 L65.4296427,6.24802936 L62.0681069,12.3027993 C63.7323532,13.4932839 64.8531907,15.3948569 64.9866127,17.5635114 L69.7185708,18.1492019 C70.1879135,16.9589984 71.3665637,16.1132254 72.7494486,16.1132254 C74.5447728,16.1132254 76,17.5357794 76,19.2902626 C76,21.0443147 74.5447728,22.4668687 72.7494486,22.4668687 C71.0824879,22.4668687 69.7088663,21.2395926 69.5222761,19.6588334 L69.5222761,19.6588334 L64.9154849,19.0909871 C64.5335865,21.5312625 62.8910085,23.5535866 60.6750057,24.4707043 L61.6232907,28.6502365 C63.3837671,28.6911888 64.7975298,30.0947753 64.7975298,31.8233939 C64.7975298,33.5778771 63.3414204,35 61.5460962,35 C59.7512131,35 58.2951037,33.5778771 58.2951037,31.8233939 C58.2951037,30.5762883 59.0326423,29.4998892 60.102779,28.9800103 L60.102779,28.9800103 L59.1776063,24.9013709 C58.7947501,24.966228 58.401319,25 58,25 C54.9868437,25 52.4183434,23.0962011 51.4317556,20.4258596 L45.4909572,22.2634003 C45.4953683,22.3310794 45.5015439,22.3983274 45.5015439,22.4668687 C45.5015439,24.2217829 44.0458756,25.6434747 42.2509925,25.6434747 C40.4556683,25.6434747 39,24.2217829 39,22.4668687 C39,20.7128165 40.4556683,19.2902626 42.2509925,19.2902626 C43.4247905,19.2902626 44.4499338,19.9002365 45.0216145,20.8115332 L45.0216145,20.8115332 L51.0630939,18.9438845 C51.0214858,18.6351836 51,18.3201009 51,18 C51,16.1529143 51.7154048,14.4729204 52.8842425,13.22199 L50.4102338,10.766578 C49.9241288,11.0489334 49.3586237,11.2140359 48.7520953,11.2140359 C46.9572122,11.2140359 45.5015439,9.791913 45.5015439,8.0374298 C45.5015439,6.28251552 46.9572122,4.86039265 48.7520953,4.86039265 C50.5474195,4.86039265 52.0030878,6.28251552 52.0030878,8.0374298 C52.0030878,8.64697261 51.8244376,9.21426988 51.5196295,9.69793822 L51.5196295,9.69793822 L54.0569394,12.2153886 C55.1798631,11.4484714 56.5375585,11 58,11 C58.9630629,11 59.8807013,11.1944854 60.7157824,11.5463235 L64.0608734,5.52209577 C63.4084693,4.94100404 62.9969122,4.10643906 62.9969122,3.17703715 C62.9969122,1.42255395 64.4516983,0 66.2483458,0 Z M58,13 C55.2385763,13 53,15.2385763 53,18 C53,20.7614237 55.2385763,23 58,23 C60.7614237,23 63,20.7614237 63,18 C63,15.2385763 60.7614237,13 58,13 Z" id="Combined-Shape" fill="#000000"></path>
            <path d="M7.29706911,62.952 C11.9770691,62.952 14.4250691,60.6 14.4250691,57.456 C14.4250691,53.592 10.6090691,52.752 9.33706911,52.464 C5.04106911,51.384 4.22506911,51.192 4.22506911,49.872 C4.22506911,48.432 5.61706911,47.928 6.81706911,47.928 C8.64106911,47.928 10.0810691,48.48 10.2010691,50.52 L13.8490691,50.52 C13.8490691,46.56 10.5610691,45 6.98506911,45 C3.88906911,45 0.577069111,46.656 0.577069111,50.184 C0.577069111,53.352 3.14506911,54.432 5.68906911,55.056 C8.18506911,55.752 10.7770691,56.016 10.7770691,57.888 C10.7770691,59.64 8.76106911,60.024 7.44106911,60.024 C5.42506911,60.024 3.64906911,59.136 3.64906911,56.856 L0.00106911096,56.856 C-0.070930889,61.08 3.50506911,62.952 7.29706911,62.952 Z M22.3210691,62.88 C26.2330691,62.88 28.7530691,60.288 28.7530691,56.352 C28.7530691,52.392 26.2330691,49.8 22.3210691,49.8 C18.4330691,49.8 15.9130691,52.392 15.9130691,56.352 C15.9130691,60.288 18.4330691,62.88 22.3210691,62.88 Z M22.3210691,60.312 C20.0170691,60.312 19.3210691,58.344 19.3210691,56.352 C19.3210691,54.36 20.0170691,52.368 22.3210691,52.368 C24.6490691,52.368 25.3450691,54.36 25.3450691,56.352 C25.3450691,58.344 24.6490691,60.312 22.3210691,60.312 Z M34.3690691,66.912 L34.3690691,61.008 L34.4170691,61.008 C35.2570691,62.232 36.6250691,62.88 38.1370691,62.88 C41.7850691,62.88 43.5850691,59.784 43.5850691,56.472 C43.5850691,52.944 41.8330691,49.8 37.9450691,49.8 C36.4090691,49.8 35.0890691,50.376 34.2490691,51.72 L34.2010691,51.72 L34.2010691,50.136 L30.9610691,50.136 L30.9610691,66.912 L34.3690691,66.912 Z M37.2250691,60.312 C35.0170691,60.312 34.2490691,58.392 34.2490691,56.376 C34.2490691,54.36 34.9690691,52.368 37.2010691,52.368 C39.3850691,52.368 40.1770691,54.384 40.1770691,56.376 C40.1770691,58.392 39.4570691,60.312 37.2250691,60.312 Z M49.0330691,62.544 L49.0330691,56.04 C49.0330691,53.52 49.8250691,52.488 51.6730691,52.488 C53.2810691,52.488 53.8570691,53.496 53.8570691,55.536 L53.8570691,62.544 L57.2650691,62.544 L57.2650691,54.912 C57.2650691,51.84 56.3530691,49.8 52.7290691,49.8 C51.4570691,49.8 49.9690691,50.448 49.1050691,51.864 L49.0330691,51.864 L49.0330691,45.408 L45.6250691,45.408 L45.6250691,62.544 L49.0330691,62.544 Z M63.3610691,48.216 L63.3610691,45.408 L59.9530691,45.408 L59.9530691,48.216 L63.3610691,48.216 Z M63.3610691,62.544 L63.3610691,50.136 L59.9530691,50.136 L59.9530691,62.544 L63.3610691,62.544 Z M71.7850691,62.88 C74.5930691,62.88 76.6330691,61.656 77.5930691,58.704 L74.5930691,58.704 C74.3770691,59.472 73.2730691,60.312 71.9050691,60.312 C69.9850691,60.312 68.9530691,59.352 68.8570691,57.168 L77.8090691,57.168 C78.0730691,53.352 76.0090691,49.8 71.7850691,49.8 C68.0170691,49.8 65.4490691,52.632 65.4490691,56.352 C65.4490691,60.192 67.8730691,62.88 71.7850691,62.88 Z M74.4010691,55.008 L68.8570691,55.008 C68.9290691,54.048 69.4810691,52.368 71.6890691,52.368 C73.3450691,52.368 74.0890691,53.28 74.4010691,55.008 Z M87.5050691,62.544 C93.0730691,62.544 93.6490691,59.304 93.6490691,57.672 C93.6490691,55.44 92.2330691,53.784 90.0250691,53.496 L90.0250691,53.448 C91.8010691,53.064 93.0010691,51.408 93.0010691,49.608 C93.0010691,46.416 90.3850691,45.408 87.5050691,45.408 L80.2570691,45.408 L80.2570691,62.544 L87.5050691,62.544 Z M87.5050691,52.92 L81.8890691,52.92 L81.8890691,46.8 L87.5050691,46.8 C90.0730691,46.8 91.3690691,47.88 91.3690691,50.016 C91.3690691,51.624 90.0970691,52.92 87.5050691,52.92 Z M87.5050691,61.152 L81.8890691,61.152 L81.8890691,54.312 L87.5050691,54.312 C90.3850691,54.312 92.0170691,55.416 92.0170691,57.624 C92.0170691,60.408 89.9290691,61.152 87.5050691,61.152 Z M101.209069,62.904 C104.977069,62.904 107.065069,59.904 107.065069,56.352 C107.065069,52.8 104.977069,49.8 101.209069,49.8 C97.4410691,49.8 95.3530691,52.8 95.3530691,56.352 C95.3530691,59.904 97.4410691,62.904 101.209069,62.904 Z M101.209069,61.632 C98.3290691,61.632 96.8650691,58.968 96.8650691,56.352 C96.8650691,53.736 98.3290691,51.072 101.209069,51.072 C104.089069,51.072 105.553069,53.736 105.553069,56.352 C105.553069,58.968 104.089069,61.632 101.209069,61.632 Z M112.897069,62.688 C113.353069,62.688 113.785069,62.64 114.241069,62.64 L114.241069,61.344 C113.809069,61.392 113.377069,61.416 112.945069,61.416 C111.865069,61.344 111.721069,60.768 111.721069,59.784 L111.721069,51.432 L114.241069,51.432 L114.241069,50.16 L111.721069,50.16 L111.721069,46.44 L110.209069,46.44 L110.209069,50.16 L108.049069,50.16 L108.049069,51.432 L110.209069,51.432 L110.209069,59.904 C110.185069,62.016 110.881069,62.688 112.897069,62.688 Z" id="SophieBot" fill="#000000"></path>
        </g>
    </g>
</svg>