<svg width="180" height="108" viewBox="0 0 180 108" fill="none" xmlns="http://www.w3.org/2000/svg">
<g id="SSWDory_horizontal_BW">
<g id="Group">
<g id="Group_2">
<path id="Vector" d="M36.5 58.643L26 54.033V53.353L36.5 48.103V49.153L27.38 53.643L36.5 57.583V58.643Z" fill="black"/>
<path id="Vector_2" d="M67.09 57.523L76.3 53.583L67.09 49.133V48.083L77.6 53.333V54.013L67.09 58.623V57.523Z" fill="black"/>
<path id="Vector_3" d="M51.29 45.2531C50.88 44.9431 50.33 44.9231 49.89 45.1931C49.45 45.4631 49.24 45.9831 49.34 46.4831L49.71 48.3531C48.96 48.7031 48.29 49.1231 47.69 49.5631C47.1 50.0031 46.57 50.4831 46.12 50.9631L42.53 48.8731C42.05 48.5931 41.43 48.6731 41.04 49.0631C40.65 49.4531 40.56 50.0631 40.84 50.5531L42.61 53.6431L40.84 56.7331C40.56 57.2231 40.65 57.8331 41.04 58.2231C41.44 58.6131 42.05 58.6931 42.53 58.4131L46.12 56.3231C46.58 56.7931 47.1 57.2831 47.69 57.7231C48.29 58.1731 48.96 58.5931 49.71 58.9331L49.34 60.8031C49.24 61.3031 49.46 61.8131 49.89 62.0831C50.32 62.3531 50.88 62.3331 51.29 62.0231L54.28 59.7831C56.4 59.6331 58.19 58.7431 59.57 57.7131C61.08 56.5831 62.16 55.2231 62.72 54.2631C62.94 53.8831 62.94 53.4031 62.72 53.0231C62.16 52.0631 61.08 50.7031 59.57 49.5731C58.19 48.5431 56.4 47.6531 54.28 47.5031L51.29 45.2531ZM55.49 53.6431C55.49 52.9631 56.04 52.4131 56.72 52.4131C57.4 52.4131 57.95 52.9631 57.95 53.6431C57.95 54.3231 57.4 54.8731 56.72 54.8731C56.04 54.8731 55.49 54.3231 55.49 53.6431Z" fill="black"/>
</g>
<g id="CodeAuditor">
<path d="M85.384 55.208H87.816C87.816 56.728 89 57.32 90.344 57.32C91.224 57.32 92.568 57.064 92.568 55.896C92.568 54.648 90.84 54.472 89.176 54.008C87.48 53.592 85.768 52.872 85.768 50.76C85.768 48.408 87.976 47.304 90.04 47.304C92.424 47.304 94.616 48.344 94.616 50.984H92.184C92.104 49.624 91.144 49.256 89.928 49.256C89.128 49.256 88.2 49.592 88.2 50.552C88.2 51.432 88.744 51.56 91.608 52.28C92.456 52.472 95 53.032 95 55.608C95 57.704 93.368 59.272 90.248 59.272C87.72 59.272 85.336 58.024 85.384 55.208ZM95.7746 55.208H98.2066C98.2066 56.728 99.3906 57.32 100.735 57.32C101.615 57.32 102.959 57.064 102.959 55.896C102.959 54.648 101.231 54.472 99.5666 54.008C97.8706 53.592 96.1586 52.872 96.1586 50.76C96.1586 48.408 98.3666 47.304 100.431 47.304C102.815 47.304 105.007 48.344 105.007 50.984H102.575C102.495 49.624 101.535 49.256 100.319 49.256C99.5186 49.256 98.5906 49.592 98.5906 50.552C98.5906 51.432 99.1346 51.56 101.999 52.28C102.847 52.472 105.391 53.032 105.391 55.608C105.391 57.704 103.759 59.272 100.639 59.272C98.1106 59.272 95.7266 58.024 95.7746 55.208ZM120.837 47.576L117.765 59H115.269L113.333 51.224H113.301L111.397 59H108.853L105.829 47.576H108.341L110.149 55.352H110.181L112.165 47.576H114.517L116.469 55.448H116.501L118.373 47.576H120.837ZM122.043 59V47.576H125.995C129.451 47.656 131.243 49.512 131.243 53.288C131.243 57.064 129.451 58.92 125.995 59H122.043ZM123.131 48.504V58.072H125.451C128.731 58.072 130.155 56.712 130.155 53.288C130.155 49.864 128.731 48.504 125.451 48.504H123.131ZM136.292 51.352C134.372 51.352 133.396 53.128 133.396 54.872C133.396 56.616 134.372 58.392 136.292 58.392C138.212 58.392 139.188 56.616 139.188 54.872C139.188 53.128 138.212 51.352 136.292 51.352ZM136.292 50.504C138.804 50.504 140.196 52.504 140.196 54.872C140.196 57.24 138.804 59.24 136.292 59.24C133.78 59.24 132.388 57.24 132.388 54.872C132.388 52.504 133.78 50.504 136.292 50.504ZM141.694 59V50.744H142.622V52.68H142.654C143.166 51.336 144.286 50.568 145.774 50.632V51.64C143.95 51.56 142.702 52.872 142.702 54.6V59H141.694ZM149.109 58.968L145.813 50.744H146.885L149.605 57.784L152.149 50.744H153.157L149.573 60.264C148.981 61.656 148.661 62.056 147.397 62.056C146.997 62.04 146.805 62.04 146.629 61.976V61.128C146.869 61.176 147.077 61.208 147.317 61.208C148.213 61.208 148.421 60.68 148.757 59.912L149.109 58.968Z" fill="#333333"/>
</g>
</g>
</g>
</svg>
