<?xml version="1.0" encoding="utf-8"?>
<!-- Generator: Adobe Illustrator 27.9.1, SVG Export Plug-In . SVG Version: 6.00 Build 0)  -->
<svg version="1.1" id="Layer_1" xmlns="http://www.w3.org/2000/svg" xmlns:xlink="http://www.w3.org/1999/xlink" x="0px" y="0px"
	 viewBox="0 0 180 108" style="enable-background:new 0 0 180 108;" xml:space="preserve">
<style type="text/css">
	.st0{display:none;}
	.st1{display:inline;}
	.st2{font-family:'OpenSans-Bold';}
	.st3{font-size:16.7555px;}
	.st4{font-family:'OpenSans-Light';}
</style>
<g id="SmashingBarrier_horizontal_BW" class="st0">
	<g id="Group-3" transform="translate(2.000000, 43.000000)" class="st1">
		<g id="Group-2">
			<g id="Ttotke.tif" transform="translate(15.600000, 0.000000)">
				<g id="Group">
					<path id="Path" d="M9.51,0.23c0.46,0.08,0.85,0.15,1.31,0.23c1.7,0.31,3.08,1.23,4.4,2.3s2.47,2.3,3.62,3.45
						c0.39,0.38,0.39,0.84,0,1.23c-0.15,0.23-0.39,0.38-0.62,0.61c0.39,0.38,0.77,0.77,1.23,1.23c0.08-0.08,0.15-0.23,0.23-0.31
						c0.39-0.31,0.77-0.38,1.16,0c0.54,0.54,1.16,1.07,1.7,1.69c0.31,0.31,0.31,0.77,0,1.07c-0.85,0.84-1.7,1.76-2.62,2.61
						c-0.31,0.31-0.77,0.31-1.16,0c-0.54-0.54-1.08-1.07-1.7-1.61c-0.31-0.31-0.31-0.69-0.08-1.07c0.08-0.15,0.23-0.23,0.31-0.31
						c-0.39-0.38-0.77-0.77-1.23-1.23c-0.08,0.08-0.23,0.31-0.31,0.38c-0.39,0.38-0.85,0.38-1.31,0c-0.85-0.77-1.62-1.61-2.39-2.38
						c-0.08-0.08-0.08-0.15-0.08-0.23c0.31-1.3,0-2.53-0.62-3.76c-0.46-1-1.23-1.69-2.24-2.22S7.04,1,5.88,0.69
						C6.19,0.61,6.5,0.54,6.81,0.46s0.62-0.08,1-0.15C8.43,0.23,8.97,0.23,9.51,0.23z"/>
					<path id="Rectangle" d="M10.4,8.98c0.41-0.41,1.07-0.4,1.47,0l1.85,1.85c0.41,0.41,0.41,1.07,0,1.47l-9.56,9.56
						c-0.41,0.41-1.07,0.4-1.47,0l-1.85-1.85c-0.41-0.41-0.41-1.07,0-1.47L10.4,8.98z M11.14,10.45l-8.82,8.82l1.11,1.11l8.82-8.82
						L11.14,10.45z"/>
				</g>
			</g>
			<polygon id="Path_00000132061129456094317410000004706386224364067480_" points="10.5,17.09 0,12.23 0,11.13 10.5,6.27 
				10.5,7.42 1.3,11.71 10.5,16 			"/>
			<polygon id="Path_00000116203894735876000980000014726798172662566072_" points="50.34,11.71 41.08,7.42 41.08,6.27 51.58,11.13 
				51.58,12.28 41.08,17.15 41.08,16 			"/>
		</g>
		<g id="SmashingBarrier" transform="translate(59.000000, 5.000000)">
			<path id="Smashing" d="M4.76,12.02c3.05,0,4.65-1.58,4.65-3.68c0-2.59-2.49-3.15-3.32-3.34c-2.8-0.72-3.34-0.85-3.34-1.74
				c0-0.96,0.91-1.3,1.69-1.3c1.19,0,2.13,0.37,2.21,1.74h2.38C9.04,1.04,6.89,0,4.56,0C2.54,0,0.38,1.11,0.38,3.47
				c0,2.12,1.68,2.84,3.34,3.26c1.63,0.47,3.32,0.64,3.32,1.9c0,1.17-1.32,1.43-2.18,1.43c-1.32,0-2.47-0.59-2.47-2.12H0
				C-0.05,10.77,2.29,12.02,4.76,12.02z M12.92,11.75V6.93c0-1.62,1.07-1.91,1.5-1.91c1.26,0,1.34,0.88,1.35,1.76l0,4.98H18V7.12
				c0-1.03,0.23-2.11,1.49-2.11c1.27,0,1.36,0.92,1.36,2.03v4.71h2.22V6.19c0-2.15-1.24-2.97-2.96-2.97c-1.13,0-1.96,0.66-2.44,1.38
				c-0.44-1.01-1.35-1.38-2.37-1.38c-1.07,0-1.9,0.5-2.47,1.35H12.8V3.44h-2.1v8.31H12.92z M27.24,11.97c1,0,2.02-0.27,2.73-1.03
				c0.02,0.27,0.08,0.55,0.16,0.8h2.26c-0.2-0.34-0.28-1.09-0.28-1.85V5.58c0-1.99-1.94-2.36-3.56-2.36c-1.82,0-3.68,0.66-3.81,2.78
				h2.22c0.08-0.9,0.61-1.25,1.47-1.25c0.78,0,1.44,0.16,1.44,1.12c0.09,1.86-5.36-0.16-5.39,3.62
				C24.48,11.19,25.69,11.97,27.24,11.97z M28.07,10.45c-0.72,0-1.36-0.22-1.36-1.06s0.63-1.09,1.32-1.22s1.47-0.14,1.85-0.48v0.85
				C29.87,9.05,29.81,10.45,28.07,10.45z M37.23,11.97c1.83,0,3.7-0.71,3.7-2.89c0-1.54-1.27-2.03-2.57-2.33
				c-1.25-0.31-2.52-0.42-2.52-1.24c0-0.69,0.74-0.77,1.24-0.77c0.8,0,1.46,0.24,1.52,1.12h2.11c-0.17-2.04-1.82-2.65-3.57-2.65
				c-1.74,0-3.52,0.55-3.52,2.67c0,1.48,1.27,1.91,2.57,2.22c1.58,0.34,2.52,0.59,2.52,1.29c0,0.8-0.83,1.06-1.46,1.06
				c-0.86,0-1.71-0.42-1.71-1.4h-2.11C33.51,11.25,35.35,11.97,37.23,11.97z M44.45,11.75V7.39c0-1.69,0.52-2.38,1.72-2.38
				c1.05,0,1.43,0.68,1.43,2.04v4.69h2.22V6.64c0-2.06-0.6-3.42-2.96-3.42c-0.83,0-1.8,0.43-2.37,1.38h-0.05V0.27h-2.22v11.48H44.45
				z M53.81,2.15V0.27h-2.22v1.88H53.81z M53.81,11.75V3.44h-2.22v8.31H53.81z M57.78,11.75V7.39c0-1.69,0.52-2.38,1.72-2.38
				c1.05,0,1.43,0.68,1.43,2.04v4.69h2.22V6.64c0-2.06-0.6-3.42-2.96-3.42c-0.94,0-1.91,0.43-2.47,1.38h-0.05V3.44h-2.11v8.31H57.78
				z M68.44,14.9c3.65,0,4.18-2.24,4.2-3.61l0-7.85h-2.11v1.11h-0.03c-0.55-0.96-1.35-1.33-2.41-1.33c-2.26,0-3.48,1.96-3.48,4.11
				c0,2.28,1.02,4.18,3.46,4.18c0.99,0,1.94-0.4,2.43-1.29h0.03v1.09c0.02,1.21-0.55,2.06-1.79,2.06c-0.8,0-1.46-0.29-1.66-1.14
				h-2.21C64.99,14.11,66.84,14.9,68.44,14.9z M68.62,9.79c-1.38,0-1.8-1.3-1.8-2.49c0-1.24,0.55-2.36,1.8-2.36
				c1.44,0,1.9,1.21,1.9,2.56C70.52,8.68,69.89,9.79,68.62,9.79z"/>
			<path id="Barrier" d="M79.43,11.75c3.63,0,4.01-2.17,4.01-3.26c0-1.49-0.92-2.6-2.37-2.8V5.66c1.16-0.26,1.94-1.37,1.94-2.57
				c0-2.14-1.71-2.81-3.59-2.81H74.7v11.48H79.43z M79.43,5.3h-3.67v-4.1h3.67c1.68,0,2.52,0.72,2.52,2.15
				C81.95,4.44,81.12,5.3,79.43,5.3z M79.43,10.82h-3.67V6.24h3.67c1.88,0,2.94,0.74,2.94,2.22C82.38,10.32,81.01,10.82,79.43,10.82
				z M87.23,11.99c1.57,0,2.24-0.61,2.94-1.69h0.03c0,0.85,0.16,1.45,1.16,1.45c0.27,0,0.41-0.02,0.64-0.06v-0.85
				c-0.11,0.05-0.2,0.06-0.31,0.06c-0.39,0-0.58-0.21-0.58-0.61v-4.4c0-2.23-1.55-2.67-2.98-2.67c-1.86,0-3.16,0.84-3.27,2.78h0.99
				c0.05-1.35,0.92-1.93,2.16-1.93c1.17,0,2.11,0.34,2.11,1.7c0,0.9-0.45,1.04-1.27,1.12c-2.13,0.26-4.34,0.35-4.34,2.67
				C84.52,11.23,85.73,11.99,87.23,11.99z M87.31,11.14c-0.94,0-1.8-0.63-1.8-1.64c0-1.61,2.08-1.61,3.76-1.91
				c0.27-0.05,0.7-0.13,0.83-0.37h0.03v1.32C90.13,10.16,88.83,11.14,87.31,11.14z M94.08,11.75V7.33c0-1.74,1.22-3.05,3.01-2.97
				V3.34c-1.46-0.06-2.55,0.71-3.05,2.06H94V3.46h-0.91v8.29H94.08z M99.01,11.75V7.33c0-1.74,1.22-3.05,3.01-2.97V3.34
				c-1.46-0.06-2.55,0.71-3.05,2.06h-0.03V3.46h-0.91v8.29H99.01z M103.96,1.9V0.27h-0.99V1.9H103.96z M103.96,11.75V3.46h-0.99
				v8.29H103.96z M109.1,11.99c2.05,0,3.1-1.09,3.52-2.97h-0.99c-0.31,1.27-1.1,2.12-2.54,2.12c-1.88,0-2.66-1.78-2.66-3.26h6.22
				c0.08-2.33-0.97-4.66-3.56-4.66c-2.57,0-3.65,2.2-3.65,4.39C105.45,9.96,106.53,11.99,109.1,11.99z M111.67,7.02h-5.23
				c0.17-1.51,1.03-2.96,2.66-2.96C110.68,4.07,111.62,5.5,111.67,7.02z M114.97,11.75V7.33c0-1.74,1.22-3.05,3.01-2.97V3.34
				c-1.46-0.06-2.55,0.71-3.05,2.06h-0.03V3.46h-0.91v8.29H114.97z"/>
		</g>
	</g>
</g>
<g>
	<g>
		<text transform="matrix(1 0 0 1 85.8233 59.8254)" class="st2 st3">SSW</text>
		<text transform="matrix(1 0 0 1 118.5894 59.8254)" class="st4 st3">Dory</text>
	</g>
	<g>
		<polygon points="37.31,59.71 26.81,55.1 26.81,54.43 37.31,49.17 37.31,50.23 28.19,54.72 37.31,58.65 		"/>
		<polygon points="67.9,58.59 77.11,54.66 67.9,50.21 67.9,49.15 78.41,54.41 78.41,55.08 67.9,59.69 		"/>
		<path d="M52.1,46.32c-0.41-0.31-0.96-0.33-1.4-0.06c-0.44,0.27-0.65,0.79-0.55,1.29l0.37,1.87c-0.75,0.35-1.42,0.77-2.02,1.21
			c-0.59,0.44-1.12,0.92-1.57,1.4l-3.59-2.09c-0.48-0.28-1.1-0.2-1.49,0.19s-0.48,1-0.2,1.49l1.77,3.09l-1.77,3.09
			c-0.28,0.49-0.19,1.1,0.2,1.49c0.4,0.39,1.01,0.47,1.49,0.19l3.59-2.09c0.46,0.47,0.98,0.96,1.57,1.4
			c0.6,0.45,1.27,0.87,2.02,1.21l-0.37,1.87c-0.1,0.5,0.12,1.01,0.55,1.28c0.43,0.27,0.99,0.25,1.4-0.06l2.99-2.24
			c2.12-0.15,3.91-1.04,5.29-2.07c1.51-1.13,2.59-2.49,3.15-3.45c0.22-0.38,0.22-0.86,0-1.24c-0.56-0.96-1.64-2.32-3.15-3.45
			c-1.38-1.03-3.17-1.92-5.29-2.07L52.1,46.32z M56.3,54.71c0-0.68,0.55-1.23,1.23-1.23c0.68,0,1.23,0.55,1.23,1.23
			s-0.55,1.23-1.23,1.23C56.85,55.95,56.3,55.4,56.3,54.71z"/>
	</g>
</g>
</svg>
