<svg width="180" height="108" viewBox="0 0 180 108" fill="none" xmlns="http://www.w3.org/2000/svg">
<g id="SSWDory">
<g id="Group">
<g id="CodeAuditor">
<path d="M37.576 76.312H41.224C41.224 78.592 43 79.48 45.016 79.48C46.336 79.48 48.352 79.096 48.352 77.344C48.352 75.472 45.76 75.208 43.264 74.512C40.72 73.888 38.152 72.808 38.152 69.64C38.152 66.112 41.464 64.456 44.56 64.456C48.136 64.456 51.424 66.016 51.424 69.976H47.776C47.656 67.936 46.216 67.384 44.392 67.384C43.192 67.384 41.8 67.888 41.8 69.328C41.8 70.648 42.616 70.84 46.912 71.92C48.184 72.208 52 73.048 52 76.912C52 80.056 49.552 82.408 44.872 82.408C41.08 82.408 37.504 80.536 37.576 76.312ZM53.1619 76.312H56.8099C56.8099 78.592 58.5859 79.48 60.6019 79.48C61.9219 79.48 63.9379 79.096 63.9379 77.344C63.9379 75.472 61.3459 75.208 58.8499 74.512C56.3059 73.888 53.7379 72.808 53.7379 69.64C53.7379 66.112 57.0499 64.456 60.1459 64.456C63.7219 64.456 67.0099 66.016 67.0099 69.976H63.3619C63.2419 67.936 61.8019 67.384 59.9779 67.384C58.7779 67.384 57.3859 67.888 57.3859 69.328C57.3859 70.648 58.2019 70.84 62.4979 71.92C63.7699 72.208 67.5859 73.048 67.5859 76.912C67.5859 80.056 65.1379 82.408 60.4579 82.408C56.6659 82.408 53.0899 80.536 53.1619 76.312ZM90.7559 64.864L86.1479 82H82.4039L79.4999 70.336H79.4519L76.5959 82H72.7799L68.2439 64.864H72.0119L74.7239 76.528H74.7719L77.7479 64.864H81.2759L84.2039 76.672H84.2519L87.0599 64.864H90.7559Z" fill="#CA4241"/>
<path d="M92.5639 82V64.864H98.4919C103.676 64.984 106.364 67.768 106.364 73.432C106.364 79.096 103.676 81.88 98.4919 82H92.5639ZM94.1959 66.256V80.608H97.6759C102.596 80.608 104.732 78.568 104.732 73.432C104.732 68.296 102.596 66.256 97.6759 66.256H94.1959ZM113.938 70.528C111.058 70.528 109.594 73.192 109.594 75.808C109.594 78.424 111.058 81.088 113.938 81.088C116.818 81.088 118.282 78.424 118.282 75.808C118.282 73.192 116.818 70.528 113.938 70.528ZM113.938 69.256C117.706 69.256 119.794 72.256 119.794 75.808C119.794 79.36 117.706 82.36 113.938 82.36C110.17 82.36 108.082 79.36 108.082 75.808C108.082 72.256 110.17 69.256 113.938 69.256ZM122.042 82V69.616H123.434V72.52H123.482C124.25 70.504 125.93 69.352 128.162 69.448V70.96C125.426 70.84 123.554 72.808 123.554 75.4V82H122.042ZM133.164 81.952L128.22 69.616H129.828L133.908 80.176L137.724 69.616H139.236L133.86 83.896C132.972 85.984 132.492 86.584 130.596 86.584C129.996 86.56 129.708 86.56 129.444 86.464V85.192C129.804 85.264 130.116 85.312 130.476 85.312C131.82 85.312 132.132 84.52 132.636 83.368L133.164 81.952Z" fill="#444445"/>
</g>
<g id="Group_2">
<path id="Vector" d="M59.44 44.8007L39 35.8307V34.5107L59.44 24.2906V26.3407L41.69 35.0807L59.44 42.7307V44.8007Z" fill="#333333"/>
<path id="Vector_2" d="M117.81 42.9207L135.73 35.2707L117.81 26.6107V24.5607L138.26 34.7807V36.1007L117.81 45.0707V42.9207Z" fill="#333333"/>
<path id="Vector_3" d="M87.7 18.4806C86.9 17.8806 85.82 17.8406 84.98 18.3706C84.13 18.9006 83.71 19.9006 83.91 20.8806L84.64 24.5306C83.18 25.2106 81.87 26.0206 80.71 26.8906C79.56 27.7506 78.53 28.6806 77.66 29.6106L70.67 25.5406C69.73 24.9906 68.54 25.1406 67.77 25.9106C67 26.6806 66.84 27.8606 67.38 28.8106L70.82 34.8206L67.38 40.8306C66.84 41.7806 67 42.9606 67.78 43.7306C68.55 44.5006 69.74 44.6506 70.68 44.1006L77.67 40.0306C78.56 40.9506 79.58 41.8906 80.72 42.7506C81.88 43.6206 83.2 44.4406 84.65 45.1106L83.92 48.7606C83.72 49.7406 84.15 50.7306 84.99 51.2606C85.83 51.7906 86.91 51.7506 87.71 51.1506L93.53 46.7806C97.65 46.4806 101.15 44.7506 103.83 42.7406C106.77 40.5306 108.87 37.8806 109.95 36.0206C110.39 35.2806 110.39 34.3506 109.95 33.6106C108.87 31.7506 106.76 29.1006 103.83 26.8906C101.14 24.8806 97.65 23.1506 93.53 22.8506L87.7 18.4806ZM95.86 34.8106C95.86 33.4806 96.94 32.4106 98.26 32.4106C99.58 32.4106 100.66 33.4906 100.66 34.8106C100.66 36.1406 99.58 37.2106 98.26 37.2106C96.94 37.2106 95.86 36.1406 95.86 34.8106Z" fill="#CB4241"/>
</g>
</g>
</g>
</svg>
