<?xml version="1.0" encoding="utf-8"?>
<!-- Generator: Adobe Illustrator 27.9.1, SVG Export Plug-In . SVG Version: 6.00 Build 0)  -->
<svg version="1.1" id="Layer_1" xmlns="http://www.w3.org/2000/svg" xmlns:xlink="http://www.w3.org/1999/xlink" x="0px" y="0px"
	 viewBox="0 0 180 108" style="enable-background:new 0 0 180 108;" xml:space="preserve">
<style type="text/css">
	.st0{display:none;}
	.st1{display:inline;}
	.st2{fill:#CC4141;}
	.st3{fill:#333333;}
	.st4{fill:#444445;}
	.st5{fill:#CB4241;}
	.st6{font-family:'OpenSans-Bold';}
	.st7{font-size:25.1889px;}
	.st8{font-family:'OpenSans-Light';}
</style>
<g id="SmashingBarrier_00000122712539984185144940000013694487022165251509_" class="st0">
	<g id="Group-19" transform="translate(1.000000, 17.000000)" class="st1">
		<g id="Group-3" transform="translate(0.000000, 49.000000)">
			<g id="SmashingBarrier" transform="translate(0.029144, 0.675300)">
				<path id="Smashing" class="st2" d="M7.21,17.73c4.62,0,7.04-2.32,7.04-5.43c0-3.82-3.77-4.65-5.02-4.93
					C4.98,6.3,4.17,6.11,4.17,4.81c0-1.42,1.37-1.92,2.56-1.92c1.8,0,3.22,0.55,3.34,2.56h3.6C13.68,1.54,10.43,0,6.9,0
					C3.84,0,0.57,1.64,0.57,5.12c0,3.13,2.54,4.19,5.05,4.81c2.46,0.69,5.02,0.95,5.02,2.8c0,1.73-1.99,2.11-3.29,2.11
					c-1.99,0-3.74-0.88-3.74-3.13H0C-0.07,15.88,3.46,17.73,7.21,17.73z M19.55,17.32v-7.11c0-2.39,1.61-2.82,2.28-2.82
					c1.87,0,2.03,1.25,2.04,2.52l0,7.41h3.37V10.5c0-1.52,0.36-3.1,2.25-3.1c1.86,0,2.05,1.26,2.06,2.82l0,7.11h3.37v-8.2
					c0-3.18-1.87-4.38-4.48-4.38c-1.71,0-2.96,0.97-3.7,2.04c-0.66-1.49-2.04-2.04-3.58-2.04c-1.61,0-2.87,0.73-3.74,1.99h-0.05
					V5.07h-3.18v12.25H19.55z M41.22,17.66c1.52,0,3.06-0.4,4.12-1.52c0.02,0.4,0.12,0.81,0.24,1.18h3.41
					c-0.31-0.5-0.43-1.61-0.43-2.73V8.22c0-2.94-2.94-3.48-5.38-3.48c-2.75,0-5.57,0.97-5.76,4.1h3.37
					c0.12-1.33,0.92-1.85,2.23-1.85c1.19,0,2.18,0.24,2.18,1.66c0.14,2.75-8.11-0.24-8.15,5.33C37.04,16.5,38.87,17.66,41.22,17.66z
					 M42.47,15.4c-1.09,0-2.06-0.33-2.06-1.56s0.95-1.61,1.99-1.8s2.23-0.21,2.8-0.71v1.26C45.2,13.34,45.1,15.4,42.47,15.4z
					 M56.34,17.66c2.77,0,5.59-1.04,5.59-4.27c0-2.28-1.92-2.99-3.89-3.44c-1.9-0.45-3.82-0.62-3.82-1.82
					c0-1.02,1.11-1.14,1.87-1.14c1.21,0,2.2,0.36,2.3,1.66h3.2c-0.26-3.01-2.75-3.91-5.4-3.91c-2.63,0-5.33,0.81-5.33,3.93
					c0,2.18,1.92,2.82,3.89,3.27c2.39,0.5,3.82,0.88,3.82,1.9c0,1.18-1.26,1.56-2.2,1.56c-1.3,0-2.58-0.62-2.58-2.06h-3.2
					C50.7,16.59,53.49,17.66,56.34,17.66z M67.26,17.32V10.9c0-2.49,0.78-3.51,2.61-3.51c1.59,0,2.16,1,2.16,3.01v6.92h3.37V9.79
					c0-3.03-0.9-5.05-4.48-5.05c-1.26,0-2.73,0.64-3.58,2.04h-0.07V0.4H63.9v16.92H67.26z M81.41,3.18V0.4h-3.37v2.77H81.41z
					 M81.41,17.32V5.07h-3.37v12.25H81.41z M87.43,17.32V10.9c0-2.49,0.78-3.51,2.61-3.51c1.59,0,2.16,1,2.16,3.01v6.92h3.37V9.79
					c0-3.03-0.9-5.05-4.48-5.05c-1.42,0-2.89,0.64-3.74,2.04h-0.07V5.07h-3.2v12.25H87.43z M103.55,21.97
					c5.62,0,6.35-3.41,6.35-5.43V5.07h-3.2v1.64h-0.05c-0.83-1.42-2.04-1.97-3.65-1.97c-3.41,0-5.26,2.89-5.26,6.07
					c0,3.37,1.54,6.16,5.24,6.16c1.49,0,2.94-0.59,3.67-1.9h0.05v1.61c0.02,1.78-0.83,3.03-2.7,3.03c-1.21,0-2.2-0.43-2.51-1.68
					h-3.34C98.33,20.81,101.13,21.97,103.55,21.97z M103.83,14.43c-2.09,0-2.73-1.92-2.73-3.67c0-1.82,0.83-3.48,2.73-3.48
					c2.18,0,2.87,1.78,2.87,3.77C106.7,12.8,105.75,14.43,103.83,14.43z"/>
				<path id="Barrier" class="st3" d="M120.18,17.32c5.5,0,6.07-3.2,6.07-4.81c0-2.2-1.4-3.84-3.58-4.12V8.34
					c1.75-0.38,2.94-2.01,2.94-3.79c0-3.15-2.58-4.15-5.43-4.15h-7.16v16.92H120.18z M120.18,7.82h-5.55V1.78h5.55
					c2.54,0,3.82,1.07,3.82,3.18C124,6.54,122.74,7.82,120.18,7.82z M120.18,15.95h-5.55V9.2h5.55c2.84,0,4.46,1.09,4.46,3.27
					C124.64,15.22,122.58,15.95,120.18,15.95z M131.99,17.68c2.37,0,3.39-0.9,4.46-2.49h0.05c0,1.26,0.24,2.13,1.75,2.13
					c0.4,0,0.62-0.02,0.97-0.09v-1.26c-0.17,0.07-0.31,0.09-0.47,0.09c-0.59,0-0.88-0.31-0.88-0.9V8.67c0-3.29-2.35-3.93-4.5-3.93
					c-2.82,0-4.79,1.23-4.95,4.1h1.49c0.07-1.99,1.4-2.84,3.27-2.84c1.78,0,3.2,0.5,3.2,2.51c0,1.33-0.69,1.54-1.92,1.66
					c-3.22,0.38-6.56,0.52-6.56,3.93C127.89,16.57,129.71,17.68,131.99,17.68z M132.1,16.42c-1.42,0-2.73-0.92-2.73-2.42
					c0-2.37,3.15-2.37,5.69-2.82c0.4-0.07,1.07-0.19,1.26-0.55h0.05v1.94C136.37,14.98,134.4,16.42,132.1,16.42z M142.34,17.32
					v-6.52c0-2.56,1.85-4.5,4.55-4.38V4.93c-2.2-0.09-3.86,1.04-4.62,3.03h-0.05V5.1h-1.37v12.23H142.34z M149.81,17.32v-6.52
					c0-2.56,1.85-4.5,4.55-4.38V4.93c-2.2-0.09-3.86,1.04-4.62,3.03h-0.05V5.1h-1.37v12.23H149.81z M157.3,2.8V0.4h-1.49V2.8H157.3z
					 M157.3,17.32V5.1h-1.49v12.23H157.3z M165.07,17.68c3.1,0,4.69-1.61,5.33-4.38h-1.49c-0.47,1.87-1.66,3.13-3.84,3.13
					c-2.84,0-4.03-2.63-4.03-4.81h9.41c0.12-3.44-1.47-6.87-5.38-6.87c-3.89,0-5.52,3.25-5.52,6.47
					C159.55,14.69,161.18,17.68,165.07,17.68z M168.96,10.36h-7.92C161.3,8.13,162.61,6,165.07,6C167.47,6,168.89,8.11,168.96,10.36
					z M173.96,17.32v-6.52c0-2.56,1.85-4.5,4.55-4.38V4.93c-2.2-0.09-3.86,1.04-4.62,3.03h-0.05V5.1h-1.37v12.23H173.96z"/>
			</g>
		</g>
		<g id="Group-2" transform="translate(39.000000, 0.000000)">
			<g id="Ttotke.tif" transform="translate(30.000000, 0.000000)">
				<g id="Group">
					<path id="Path" class="st2" d="M18.28,0.44c0.89,0.15,1.63,0.29,2.52,0.44c3.26,0.59,5.93,2.35,8.45,4.4s4.75,4.4,6.97,6.6
						c0.74,0.73,0.74,1.61,0,2.35c-0.3,0.44-0.74,0.73-1.19,1.17c0.74,0.73,1.48,1.47,2.37,2.35c0.15-0.15,0.3-0.44,0.44-0.59
						c0.74-0.59,1.48-0.73,2.22,0c1.04,1.03,2.22,2.05,3.26,3.23c0.59,0.59,0.59,1.47,0,2.05c-1.63,1.61-3.26,3.37-5.04,4.99
						c-0.59,0.59-1.48,0.59-2.22,0c-1.04-1.03-2.08-2.05-3.26-3.08c-0.59-0.59-0.59-1.32-0.15-2.05c0.15-0.29,0.44-0.44,0.59-0.59
						c-0.74-0.73-1.48-1.47-2.37-2.35c-0.15,0.15-0.44,0.59-0.59,0.73c-0.74,0.73-1.63,0.73-2.52,0c-1.63-1.47-3.11-3.08-4.6-4.55
						c-0.15-0.15-0.15-0.29-0.15-0.44c0.59-2.49,0-4.84-1.19-7.19c-0.89-1.91-2.37-3.23-4.3-4.25s-4-1.76-6.23-2.35
						c0.59-0.15,1.19-0.29,1.78-0.44c0.59-0.15,1.19-0.15,1.93-0.29C16.2,0.44,17.24,0.44,18.28,0.44z"/>
					<path id="Rectangle" class="st3" d="M20.01,17.13c0.78-0.78,2.05-0.78,2.83,0l3.54,3.54c0.78,0.78,0.78,2.05,0,2.83L7.99,41.87
						c-0.78,0.78-2.05,0.78-2.83,0l-3.54-3.54c-0.78-0.78-0.78-2.05,0-2.83L20.01,17.13z M21.42,18.54L3.04,36.92l3.54,3.54
						l18.38-18.38L21.42,18.54z"/>
				</g>
			</g>
			<polygon id="Path_00000166671295269228649810000002425338461745149833_" class="st4" points="20.2,32.7 0,23.4 0,21.3 20.2,12 
				20.2,14.2 2.5,22.4 20.2,30.6 			"/>
			<polygon id="Path_00000091713971267161470500000007555895427391401377_" class="st4" points="96.8,22.4 79,14.2 79,12 99.2,21.3 
				99.2,23.5 79,32.8 79,30.6 			"/>
		</g>
	</g>
</g>
<g>
	<g>
		<text transform="matrix(1 0 0 1 39.3622 84.8916)" class="st5 st6 st7">SSW</text>
		<text transform="matrix(1 0 0 1 88.6191 84.8916)" class="st3 st8 st7">Dory</text>
	</g>
	<g>
		<polygon class="st3" points="60.32,48.97 39.88,40 39.88,38.68 60.32,28.46 60.32,30.51 42.57,39.25 60.32,46.9 		"/>
		<polygon class="st3" points="118.69,47.09 136.61,39.44 118.69,30.78 118.69,28.73 139.14,38.95 139.14,40.27 118.69,49.24 		"/>
		<path class="st5" d="M88.58,22.65c-0.8-0.6-1.88-0.64-2.72-0.11c-0.85,0.53-1.27,1.53-1.07,2.51l0.73,3.65
			c-1.46,0.68-2.77,1.49-3.93,2.36c-1.15,0.86-2.18,1.79-3.05,2.72l-6.99-4.07c-0.94-0.55-2.13-0.4-2.9,0.37
			c-0.77,0.77-0.93,1.95-0.39,2.9l3.44,6.01l-3.44,6.01c-0.54,0.95-0.38,2.13,0.4,2.9c0.77,0.77,1.96,0.92,2.9,0.37l6.99-4.07
			c0.89,0.92,1.91,1.86,3.05,2.72c1.16,0.87,2.48,1.69,3.93,2.36l-0.73,3.65c-0.2,0.98,0.23,1.97,1.07,2.5s1.92,0.49,2.72-0.11
			l5.82-4.37c4.12-0.3,7.62-2.03,10.3-4.04c2.94-2.21,5.04-4.86,6.12-6.72c0.44-0.74,0.44-1.67,0-2.41
			c-1.08-1.86-3.19-4.51-6.12-6.72c-2.69-2.01-6.18-3.74-10.3-4.04L88.58,22.65z M96.74,38.98c0-1.33,1.08-2.4,2.4-2.4
			s2.4,1.08,2.4,2.4c0,1.33-1.08,2.4-2.4,2.4S96.74,40.31,96.74,38.98z"/>
	</g>
</g>
</svg>
