<?xml version="1.0" encoding="UTF-8" standalone="no"?>
<!DOCTYPE svg PUBLIC "-//W3C//DTD SVG 1.1//EN" "http://www.w3.org/Graphics/SVG/1.1/DTD/svg11.dtd">
<svg width="100%" height="100%" viewBox="0 0 171 35" version="1.1" xmlns="http://www.w3.org/2000/svg" xmlns:xlink="http://www.w3.org/1999/xlink" xml:space="preserve" xmlns:serif="http://www.serif.com/" style="fill-rule:evenodd;clip-rule:evenodd;stroke-linejoin:round;stroke-miterlimit:2;">
    <g id="Artboard1" transform="matrix(0.95,0,0,0.324074,0,0)">
        <rect x="0" y="0" width="180" height="108" style="fill:none;"/>
        <g transform="matrix(1.03269,0,0,3.02725,-21.6864,-109.471)">
            <g>
                <path d="M81.666,44.394C78.545,40.85 73.731,38.578 68.337,38.578C63.021,38.578 58.278,40.777 55.158,44.221C58.267,39.536 63.55,36.382 69.592,36.162C69.761,36.168 69.939,36.172 70.132,36.183C70.361,36.192 70.604,36.225 70.871,36.249C71.398,36.306 71.989,36.41 72.621,36.561C73.244,36.735 73.921,36.938 74.592,37.254C75.263,37.563 75.939,37.949 76.598,38.412C77.255,38.875 77.887,39.405 78.512,39.988C79.129,40.554 79.679,41.192 80.179,41.88C80.427,42.222 80.666,42.578 80.885,42.934C81.105,43.295 81.298,43.647 81.495,44.036C81.552,44.154 81.607,44.272 81.666,44.394Z" style="fill:rgb(202,71,67);"/>
                <path d="M83.761,65.865C80.453,69.531 75.635,71.838 70.275,71.838C63.942,71.838 58.375,68.622 55.148,63.756C58.27,67.206 63.017,69.411 68.331,69.411C72.463,69.411 76.246,68.081 79.2,65.867L83.762,65.867L83.762,65.865L83.761,65.865Z" style="fill:rgb(202,71,67);"/>
                <path d="M88.338,53.995L88.338,54.07L84.723,54.07C84.715,53.925 84.704,53.763 84.699,53.577C84.655,52.812 84.602,51.717 84.441,50.394C84.271,49.079 83.999,47.524 83.413,45.944C83.121,45.149 82.761,44.365 82.314,43.589C82.105,43.227 81.861,42.835 81.607,42.474C81.359,42.105 81.091,41.748 80.806,41.403C80.248,40.714 79.615,40.063 78.936,39.507C78.277,38.955 77.58,38.434 76.874,37.996C76.165,37.554 75.44,37.195 74.729,36.917C74.023,36.63 73.322,36.459 72.672,36.318C72.573,36.3 72.467,36.285 72.37,36.269C81.361,37.296 88.338,44.838 88.338,53.995Z" style="fill:rgb(202,71,67);"/>
                <path d="M36.495,54.454C36.02,53.675 35.261,53.025 34.215,52.499C33.174,51.969 31.444,51.452 29.033,50.937C28.057,50.736 27.44,50.515 27.178,50.289C26.914,50.06 26.777,49.808 26.777,49.525C26.777,49.143 26.939,48.815 27.265,48.545C27.589,48.276 28.074,48.141 28.715,48.141C29.493,48.141 30.104,48.321 30.549,48.682C30.989,49.044 31.282,49.625 31.419,50.419L36.624,50.116C36.394,48.285 35.681,46.95 34.483,46.109C33.285,45.268 31.546,44.848 29.262,44.848C27.403,44.848 25.937,45.084 24.873,45.545C23.802,46.005 23.001,46.642 22.471,47.448C21.94,48.255 21.672,49.113 21.672,50.021C21.672,51.403 22.194,52.538 23.236,53.433C24.264,54.324 25.992,55.041 28.411,55.576C29.893,55.897 30.835,56.241 31.239,56.601C31.647,56.961 31.848,57.369 31.848,57.832C31.848,58.311 31.636,58.739 31.208,59.101C30.783,59.466 30.185,59.57 29.399,59.57C28.345,59.57 27.518,59.292 26.951,58.576C26.598,58.138 26.371,57.494 26.254,56.652L21,56.976C21.156,58.755 21.82,60.226 22.987,61.385C24.158,62.542 26.261,63.12 29.297,63.12C31.027,63.12 32.463,62.876 33.6,62.378C34.735,61.886 35.621,61.162 36.254,60.203C36.887,59.249 37.206,58.205 37.206,57.069C37.208,56.106 36.97,55.235 36.495,54.454Z" style="fill:rgb(54,54,54);"/>
                <path d="M54.229,57.091C54.229,58.201 53.927,59.22 53.317,60.163C53.304,60.182 53.291,60.204 53.278,60.225C53.181,60.372 53.077,60.513 52.962,60.648C52.364,61.399 51.579,61.983 50.621,62.401C49.486,62.895 48.051,63.139 46.319,63.139C43.278,63.139 41.179,62.562 40.007,61.402C38.838,60.248 38.177,58.777 38.021,56.994L43.271,56.669C43.384,57.511 43.619,58.153 43.967,58.597C44.536,59.309 45.35,59.587 46.41,59.587C47.193,59.587 47.798,59.484 48.226,59.118C48.649,58.752 48.868,58.329 48.868,57.849C48.868,57.39 48.662,56.979 48.257,56.618C47.85,56.256 46.912,55.914 45.432,55.591C43.01,55.053 41.282,54.337 40.253,53.448C39.215,52.557 38.692,51.419 38.692,50.038C38.692,49.131 38.958,48.273 39.492,47.465C40.025,46.656 40.821,46.023 41.892,45.559C42.963,45.094 44.425,44.868 46.285,44.868C48.568,44.868 50.311,45.287 51.507,46.125C52.049,46.504 52.494,46.989 52.835,47.575C52.959,47.781 53.069,48.003 53.163,48.237C53.397,48.793 53.557,49.427 53.641,50.131L52.617,50.189L51.805,50.238L48.44,50.431C48.299,49.636 48.011,49.059 47.572,48.694C47.127,48.337 46.515,48.153 45.739,48.153C45.096,48.153 44.615,48.288 44.288,48.559C43.963,48.825 43.801,49.153 43.801,49.543C43.801,49.82 43.929,50.072 44.199,50.298C44.46,50.532 45.076,50.749 46.054,50.948C48.464,51.465 50.193,51.986 51.236,52.511C51.281,52.533 51.324,52.557 51.366,52.579C51.68,52.746 51.97,52.923 52.23,53.112C52.777,53.512 53.205,53.962 53.515,54.467C53.991,55.251 54.229,56.123 54.229,57.091Z" style="fill:rgb(54,54,54);"/>
                <path d="M79.157,45.172L75.224,62.836L69.804,62.836L66.671,51.714L63.555,62.836L58.141,62.836L54.283,45.689L54.283,45.687L54.213,45.369L54.167,45.172L59.409,45.172L61.296,55.059L64.061,45.172L69.281,45.172L72.053,55.047L73.944,45.172L79.157,45.172Z" style="fill:rgb(54,54,54);"/>
                <rect x="84.701" y="54.999" width="4.551" height="4.503" style="fill:rgb(54,54,54);"/>
                <rect x="79.207" y="54.999" width="4.552" height="4.503" style="fill:rgb(121,121,121);"/>
                <rect x="84.701" y="60.432" width="4.551" height="4.505" style="fill:rgb(202,71,67);"/>
                <rect x="79.207" y="60.432" width="4.552" height="4.505" style="fill:rgb(170,170,170);"/>
            </g>
        </g>
        <g transform="matrix(2.64411,0,0,4.09563,-112.557,50.5958)">
            <path d="M72.857,7.16L74.051,7.16L74.051,1.844L75.809,1.844C76.908,1.844 77.166,2.893 77.166,5.261C77.166,5.894 77.166,6.599 77.347,7.16L78.628,7.16C78.37,6.635 78.255,5.279 78.255,3.76C78.255,1.735 77.653,1.12 77.242,1.03L77.242,0.994C77.472,0.849 78.37,0.216 78.37,-2.261C78.37,-4.449 77.615,-5.751 76.115,-5.751L72.857,-5.751L72.857,7.16ZM74.051,-3.906L75.991,-3.906C76.612,-3.906 77.175,-3.599 77.175,-1.935C77.175,-0.561 76.774,0.126 76.01,0.126L74.051,0.126L74.051,-3.906Z" style="fill:rgb(67,67,67);fill-rule:nonzero;"/>
            <path d="M80.281,1.663C80.309,0.271 80.825,-0.814 81.58,-0.814C82.325,-0.814 82.774,0.361 82.822,1.663L80.281,1.663ZM83.911,3.019C84.093,0.216 83.137,-2.442 81.58,-2.442C80.109,-2.442 79.191,-0.163 79.191,2.495C79.191,5.388 80.051,7.413 81.609,7.413C82.679,7.413 83.615,6.274 83.844,4.231L82.812,4.231C82.621,5.261 82.249,5.786 81.609,5.786C80.701,5.786 80.281,4.484 80.281,3.019L83.911,3.019Z" style="fill:rgb(67,67,67);fill-rule:nonzero;"/>
            <path d="M85.822,7.16L86.969,7.16L87.876,0.216L87.895,0.216L88.813,7.16L89.931,7.16L91.478,-2.189L90.37,-2.189L89.367,4.791L89.348,4.791L88.459,-2.189L87.36,-2.189L86.434,4.791L86.415,4.791L85.45,-2.189L84.293,-2.189L85.822,7.16Z" style="fill:rgb(67,67,67);fill-rule:nonzero;"/>
            <path d="M96.313,0.271C96.313,-1.7 95.3,-2.442 94.335,-2.442C93.236,-2.442 92.166,-1.736 92.09,0.668L93.179,0.668C93.227,-0.344 93.657,-0.814 94.268,-0.814C94.698,-0.814 95.291,-0.633 95.291,0.451C95.291,1.681 94.603,1.482 93.81,1.771C92.892,1.97 91.908,2.35 91.908,4.683C91.908,6.509 92.711,7.413 93.6,7.413C94.182,7.413 94.88,7.069 95.31,6.274C95.396,7.124 95.702,7.413 96.151,7.413C96.332,7.413 96.676,7.286 96.838,7.178L96.838,5.749C96.781,5.768 96.733,5.786 96.686,5.786L96.571,5.786C96.37,5.786 96.313,5.587 96.313,5.08L96.313,0.271ZM95.224,4.014C95.224,5.316 94.479,5.786 94.001,5.786C93.619,5.786 92.998,5.532 92.998,4.592C92.998,3.507 93.418,3.182 93.886,3.037C94.373,2.874 94.889,2.893 95.224,2.477L95.224,4.014Z" style="fill:rgb(67,67,67);fill-rule:nonzero;"/>
            <path d="M97.488,7.16L98.577,7.16L98.577,2.712C98.577,0.632 99.179,-0.489 99.915,-0.489C100.068,-0.489 100.23,-0.453 100.383,-0.398L100.383,-2.387C100.278,-2.405 100.23,-2.442 99.972,-2.442C99.313,-2.442 98.654,-1.375 98.53,-0.38L98.511,-0.38L98.511,-2.189L97.488,-2.189L97.488,7.16Z" style="fill:rgb(67,67,67);fill-rule:nonzero;"/>
            <path d="M105.332,-5.751L104.243,-5.751L104.243,-0.977L104.224,-0.977C103.89,-2.008 103.192,-2.442 102.581,-2.442C101.501,-2.442 100.441,-0.977 100.441,2.422C100.441,5.225 101.195,7.413 102.753,7.413C103.374,7.413 103.985,6.979 104.281,5.894L104.301,5.894L104.301,7.16L105.332,7.16L105.332,-5.751ZM101.53,2.585C101.53,0.922 101.893,-0.814 102.915,-0.814C103.756,-0.814 104.281,0.397 104.281,2.477C104.281,4.104 103.861,5.786 102.896,5.786C101.95,5.786 101.53,4.194 101.53,2.585Z" style="fill:rgb(67,67,67);fill-rule:nonzero;"/>
            <path d="M106.25,4.158C106.278,6.364 107.186,7.413 108.438,7.413C109.46,7.413 110.645,6.599 110.645,4.375C110.645,2.531 109.842,1.988 109.049,1.645C108.247,1.319 107.444,1.157 107.444,0.144C107.444,-0.67 108.027,-0.814 108.342,-0.814C108.829,-0.814 109.24,-0.561 109.345,0.433L110.482,0.433C110.358,-1.664 109.431,-2.442 108.419,-2.442C107.52,-2.442 106.355,-1.809 106.355,0.234C106.355,2.133 107.138,2.676 107.941,3.001C108.734,3.345 109.527,3.471 109.556,4.556C109.584,5.623 108.877,5.786 108.457,5.786C107.874,5.786 107.406,5.37 107.339,4.158L106.25,4.158Z" style="fill:rgb(67,67,67);fill-rule:nonzero;"/>
        </g>
    </g>
</svg>
