<?xml version="1.0" encoding="UTF-8" standalone="no"?>
<!DOCTYPE svg PUBLIC "-//W3C//DTD SVG 1.1//EN" "http://www.w3.org/Graphics/SVG/1.1/DTD/svg11.dtd">
<svg width="100%" height="100%" viewBox="0 0 133 35" version="1.1" xmlns="http://www.w3.org/2000/svg" xmlns:xlink="http://www.w3.org/1999/xlink" xml:space="preserve" xmlns:serif="http://www.serif.com/" style="fill-rule:evenodd;clip-rule:evenodd;stroke-linejoin:round;stroke-miterlimit:2;">
    <g id="Artboard1" transform="matrix(0.738889,0,0,0.324074,0,0)">
        <rect x="0" y="0" width="180" height="108" style="fill:none;"/>
        <g transform="matrix(1.35338,0,0,3.08571,0,0)">
            <g>
                <g transform="matrix(0.981052,0,0,0.981052,-20.6021,-35.4768)">
                    <path d="M81.666,44.394C78.545,40.85 73.731,38.578 68.337,38.578C63.021,38.578 58.278,40.777 55.158,44.221C58.267,39.536 63.55,36.382 69.592,36.162C69.761,36.168 69.939,36.172 70.132,36.183C70.361,36.192 70.604,36.225 70.871,36.249C71.398,36.306 71.989,36.41 72.621,36.561C73.244,36.735 73.921,36.938 74.592,37.254C75.263,37.563 75.939,37.949 76.598,38.412C77.255,38.875 77.887,39.405 78.512,39.988C79.129,40.554 79.679,41.192 80.179,41.88C80.427,42.222 80.666,42.578 80.885,42.934C81.105,43.295 81.298,43.647 81.495,44.036C81.552,44.154 81.607,44.272 81.666,44.394Z"/>
                    <path d="M83.761,65.865C80.453,69.531 75.635,71.838 70.275,71.838C63.942,71.838 58.375,68.622 55.148,63.756C58.27,67.206 63.017,69.411 68.331,69.411C72.463,69.411 76.246,68.081 79.2,65.867L83.762,65.867L83.762,65.865L83.761,65.865Z"/>
                    <path d="M88.338,53.995L88.338,54.07L84.723,54.07C84.715,53.925 84.704,53.763 84.699,53.577C84.655,52.812 84.602,51.717 84.441,50.394C84.271,49.079 83.999,47.524 83.413,45.944C83.121,45.149 82.761,44.365 82.314,43.589C82.105,43.227 81.861,42.835 81.607,42.474C81.359,42.105 81.091,41.748 80.806,41.403C80.248,40.714 79.615,40.063 78.936,39.507C78.277,38.955 77.58,38.434 76.874,37.996C76.165,37.554 75.44,37.195 74.729,36.917C74.023,36.63 73.322,36.459 72.672,36.318C72.573,36.3 72.467,36.285 72.37,36.269C81.361,37.296 88.338,44.838 88.338,53.995Z"/>
                    <path d="M36.495,54.454C36.02,53.675 35.261,53.025 34.215,52.499C33.174,51.969 31.444,51.452 29.033,50.937C28.057,50.736 27.44,50.515 27.178,50.289C26.914,50.06 26.777,49.808 26.777,49.525C26.777,49.143 26.939,48.815 27.265,48.545C27.589,48.276 28.074,48.141 28.715,48.141C29.493,48.141 30.104,48.321 30.549,48.682C30.989,49.044 31.282,49.625 31.419,50.419L36.624,50.116C36.394,48.285 35.681,46.95 34.483,46.109C33.285,45.268 31.546,44.848 29.262,44.848C27.403,44.848 25.937,45.084 24.873,45.545C23.802,46.005 23.001,46.642 22.471,47.448C21.94,48.255 21.672,49.113 21.672,50.021C21.672,51.403 22.194,52.538 23.236,53.433C24.264,54.324 25.992,55.041 28.411,55.576C29.893,55.897 30.835,56.241 31.239,56.601C31.647,56.961 31.848,57.369 31.848,57.832C31.848,58.311 31.636,58.739 31.208,59.101C30.783,59.466 30.185,59.57 29.399,59.57C28.345,59.57 27.518,59.292 26.951,58.576C26.598,58.138 26.371,57.494 26.254,56.652L21,56.976C21.156,58.755 21.82,60.226 22.987,61.385C24.158,62.542 26.261,63.12 29.297,63.12C31.027,63.12 32.463,62.876 33.6,62.378C34.735,61.886 35.621,61.162 36.254,60.203C36.887,59.249 37.206,58.205 37.206,57.069C37.208,56.106 36.97,55.235 36.495,54.454Z"/>
                    <path d="M54.229,57.091C54.229,58.201 53.927,59.22 53.317,60.163C53.304,60.182 53.291,60.204 53.278,60.225C53.181,60.372 53.077,60.513 52.962,60.648C52.364,61.399 51.579,61.983 50.621,62.401C49.486,62.895 48.051,63.139 46.319,63.139C43.278,63.139 41.179,62.562 40.007,61.402C38.838,60.248 38.177,58.777 38.021,56.994L43.271,56.669C43.384,57.511 43.619,58.153 43.967,58.597C44.536,59.309 45.35,59.587 46.41,59.587C47.193,59.587 47.798,59.484 48.226,59.118C48.649,58.752 48.868,58.329 48.868,57.849C48.868,57.39 48.662,56.979 48.257,56.618C47.85,56.256 46.912,55.914 45.432,55.591C43.01,55.053 41.282,54.337 40.253,53.448C39.215,52.557 38.692,51.419 38.692,50.038C38.692,49.131 38.958,48.273 39.492,47.465C40.025,46.656 40.821,46.023 41.892,45.559C42.963,45.094 44.425,44.868 46.285,44.868C48.568,44.868 50.311,45.287 51.507,46.125C52.049,46.504 52.494,46.989 52.835,47.575C52.959,47.781 53.069,48.003 53.163,48.237C53.397,48.793 53.557,49.427 53.641,50.131L52.617,50.189L51.805,50.238L48.44,50.431C48.299,49.636 48.011,49.059 47.572,48.694C47.127,48.337 46.515,48.153 45.739,48.153C45.096,48.153 44.615,48.288 44.288,48.559C43.963,48.825 43.801,49.153 43.801,49.543C43.801,49.82 43.929,50.072 44.199,50.298C44.46,50.532 45.076,50.749 46.054,50.948C48.464,51.465 50.193,51.986 51.236,52.511C51.281,52.533 51.324,52.557 51.366,52.579C51.68,52.746 51.97,52.923 52.23,53.112C52.777,53.512 53.205,53.962 53.515,54.467C53.991,55.251 54.229,56.123 54.229,57.091Z"/>
                    <path d="M79.157,45.172L75.224,62.836L69.804,62.836L66.671,51.714L63.555,62.836L58.141,62.836L54.283,45.689L54.283,45.687L54.213,45.369L54.167,45.172L59.409,45.172L61.296,55.059L64.061,45.172L69.281,45.172L72.053,55.047L73.944,45.172L79.157,45.172Z"/>
                    <rect x="84.701" y="54.999" width="4.551" height="4.503"/>
                    <rect x="79.207" y="54.999" width="4.552" height="4.503"/>
                    <rect x="84.701" y="60.432" width="4.551" height="4.505"/>
                    <rect x="79.207" y="60.432" width="4.552" height="4.505"/>
                </g>
                <g transform="matrix(1.83411,0,0,1.32729,-60.9032,16.3968)">
                    <path d="M73.125,7.16L74.761,7.16L74.761,1.844L77.168,1.844C78.673,1.844 79.027,2.893 79.027,5.261C79.027,5.894 79.027,6.599 79.275,7.16L81.029,7.16C80.675,6.635 80.518,5.279 80.518,3.76C80.518,1.735 79.694,1.12 79.131,1.03L79.131,0.994C79.445,0.849 80.675,0.216 80.675,-2.261C80.675,-4.449 79.642,-5.751 77.587,-5.751L73.125,-5.751L73.125,7.16ZM74.761,-3.906L77.417,-3.906C78.268,-3.906 79.04,-3.599 79.04,-1.935C79.04,-0.561 78.49,0.126 77.443,0.126L74.761,0.126L74.761,-3.906Z" style="fill-rule:nonzero;"/>
                    <path d="M88.069,-2.189L86.577,-2.189L86.577,3.236C86.577,4.683 86.158,5.786 84.915,5.786C84.091,5.786 83.62,5.189 83.62,3.543L83.62,-2.189L82.128,-2.189L82.128,3.742C82.128,6.202 82.874,7.413 84.653,7.413C85.399,7.413 86.21,6.798 86.577,5.858L86.603,5.858L86.603,7.16L88.069,7.16L88.069,-2.189Z" style="fill-rule:nonzero;"/>
                    <rect x="89.678" y="-5.751" width="1.492" height="12.911" style="fill-rule:nonzero;"/>
                    <path d="M93.957,1.663C93.996,0.271 94.703,-0.814 95.737,-0.814C96.757,-0.814 97.372,0.361 97.438,1.663L93.957,1.663ZM98.929,3.019C99.178,0.216 97.87,-2.442 95.737,-2.442C93.721,-2.442 92.465,-0.163 92.465,2.495C92.465,5.388 93.643,7.413 95.776,7.413C97.241,7.413 98.524,6.274 98.838,4.231L97.425,4.231C97.163,5.261 96.653,5.786 95.776,5.786C94.533,5.786 93.957,4.484 93.957,3.019L98.929,3.019Z" style="fill-rule:nonzero;"/>
                    <path d="M99.701,4.158C99.741,6.364 100.984,7.413 102.698,7.413C104.098,7.413 105.721,6.599 105.721,4.375C105.721,2.531 104.622,1.988 103.535,1.645C102.436,1.319 101.337,1.157 101.337,0.144C101.337,-0.67 102.135,-0.814 102.567,-0.814C103.235,-0.814 103.797,-0.561 103.941,0.433L105.498,0.433C105.328,-1.664 104.059,-2.442 102.672,-2.442C101.442,-2.442 99.845,-1.809 99.845,0.234C99.845,2.133 100.918,2.676 102.018,3.001C103.104,3.345 104.19,3.471 104.229,4.556C104.268,5.623 103.3,5.786 102.724,5.786C101.926,5.786 101.285,5.37 101.193,4.158L99.701,4.158Z" style="fill-rule:nonzero;"/>
                </g>
            </g>
        </g>
    </g>
</svg>
