<svg width="180" height="108" viewBox="0 0 180 108" fill="none" xmlns="http://www.w3.org/2000/svg">
<g id="SSWDory_BW">
<g id="Group">
<g id="Group_2">
<path id="Vector" d="M60.44 44.8007L40 35.8307V34.5107L60.44 24.2906V26.3407L42.69 35.0807L60.44 42.7307V44.8007Z" fill="black"/>
<path id="Vector_2" d="M118.81 42.9207L136.73 35.2707L118.81 26.6107V24.5607L139.26 34.7807V36.1007L118.81 45.0707V42.9207Z" fill="black"/>
<path id="Vector_3" d="M88.7 18.4806C87.9 17.8806 86.82 17.8406 85.98 18.3706C85.13 18.9006 84.71 19.9006 84.91 20.8806L85.64 24.5306C84.18 25.2106 82.87 26.0206 81.71 26.8906C80.56 27.7506 79.53 28.6806 78.66 29.6106L71.67 25.5406C70.73 24.9906 69.54 25.1406 68.77 25.9106C68 26.6806 67.84 27.8606 68.38 28.8106L71.82 34.8206L68.38 40.8306C67.84 41.7806 68 42.9606 68.78 43.7306C69.55 44.5006 70.74 44.6506 71.68 44.1006L78.67 40.0306C79.56 40.9506 80.58 41.8906 81.72 42.7506C82.88 43.6206 84.2 44.4406 85.65 45.1106L84.92 48.7606C84.72 49.7406 85.15 50.7306 85.99 51.2606C86.83 51.7906 87.91 51.7506 88.71 51.1506L94.53 46.7806C98.65 46.4806 102.15 44.7506 104.83 42.7406C107.77 40.5306 109.87 37.8806 110.95 36.0206C111.39 35.2806 111.39 34.3506 110.95 33.6106C109.87 31.7506 107.76 29.1006 104.83 26.8906C102.14 24.8806 98.65 23.1506 94.53 22.8506L88.7 18.4806ZM96.86 34.8106C96.86 33.4806 97.94 32.4106 99.26 32.4106C100.58 32.4106 101.66 33.4906 101.66 34.8106C101.66 36.1406 100.58 37.2106 99.26 37.2106C97.94 37.2106 96.86 36.1406 96.86 34.8106Z" fill="black"/>
</g>
<g id="CodeAuditor">
<path d="M38.576 76.312H42.224C42.224 78.592 44 79.48 46.016 79.48C47.336 79.48 49.352 79.096 49.352 77.344C49.352 75.472 46.76 75.208 44.264 74.512C41.72 73.888 39.152 72.808 39.152 69.64C39.152 66.112 42.464 64.456 45.56 64.456C49.136 64.456 52.424 66.016 52.424 69.976H48.776C48.656 67.936 47.216 67.384 45.392 67.384C44.192 67.384 42.8 67.888 42.8 69.328C42.8 70.648 43.616 70.84 47.912 71.92C49.184 72.208 53 73.048 53 76.912C53 80.056 50.552 82.408 45.872 82.408C42.08 82.408 38.504 80.536 38.576 76.312ZM54.1619 76.312H57.8099C57.8099 78.592 59.5859 79.48 61.6019 79.48C62.9219 79.48 64.9379 79.096 64.9379 77.344C64.9379 75.472 62.3459 75.208 59.8499 74.512C57.3059 73.888 54.7379 72.808 54.7379 69.64C54.7379 66.112 58.0499 64.456 61.1459 64.456C64.7219 64.456 68.0099 66.016 68.0099 69.976H64.3619C64.2419 67.936 62.8019 67.384 60.9779 67.384C59.7779 67.384 58.3859 67.888 58.3859 69.328C58.3859 70.648 59.2019 70.84 63.4979 71.92C64.7699 72.208 68.5859 73.048 68.5859 76.912C68.5859 80.056 66.1379 82.408 61.4579 82.408C57.6659 82.408 54.0899 80.536 54.1619 76.312ZM91.7559 64.864L87.1479 82H83.4039L80.4999 70.336H80.4519L77.5959 82H73.7799L69.2439 64.864H73.0119L75.7239 76.528H75.7719L78.7479 64.864H82.2759L85.2039 76.672H85.2519L88.0599 64.864H91.7559ZM93.5639 82V64.864H99.4919C104.676 64.984 107.364 67.768 107.364 73.432C107.364 79.096 104.676 81.88 99.4919 82H93.5639ZM95.1959 66.256V80.608H98.6759C103.596 80.608 105.732 78.568 105.732 73.432C105.732 68.296 103.596 66.256 98.6759 66.256H95.1959ZM114.938 70.528C112.058 70.528 110.594 73.192 110.594 75.808C110.594 78.424 112.058 81.088 114.938 81.088C117.818 81.088 119.282 78.424 119.282 75.808C119.282 73.192 117.818 70.528 114.938 70.528ZM114.938 69.256C118.706 69.256 120.794 72.256 120.794 75.808C120.794 79.36 118.706 82.36 114.938 82.36C111.17 82.36 109.082 79.36 109.082 75.808C109.082 72.256 111.17 69.256 114.938 69.256ZM123.042 82V69.616H124.434V72.52H124.482C125.25 70.504 126.93 69.352 129.162 69.448V70.96C126.426 70.84 124.554 72.808 124.554 75.4V82H123.042ZM134.164 81.952L129.22 69.616H130.828L134.908 80.176L138.724 69.616H140.236L134.86 83.896C133.972 85.984 133.492 86.584 131.596 86.584C130.996 86.56 130.708 86.56 130.444 86.464V85.192C130.804 85.264 131.116 85.312 131.476 85.312C132.82 85.312 133.132 84.52 133.636 83.368L134.164 81.952Z" fill="#333333"/>
</g>
</g>
</g>
</svg>
