<svg width="180" height="108" viewBox="0 0 180 108" fill="none" xmlns="http://www.w3.org/2000/svg">
<g id="CSSWDory_horizontal">
<g id="Group">
<g id="CodeAuditor">
<path d="M85.384 56.208H87.816C87.816 57.728 89 58.32 90.344 58.32C91.224 58.32 92.568 58.064 92.568 56.896C92.568 55.648 90.84 55.472 89.176 55.008C87.48 54.592 85.768 53.872 85.768 51.76C85.768 49.408 87.976 48.304 90.04 48.304C92.424 48.304 94.616 49.344 94.616 51.984H92.184C92.104 50.624 91.144 50.256 89.928 50.256C89.128 50.256 88.2 50.592 88.2 51.552C88.2 52.432 88.744 52.56 91.608 53.28C92.456 53.472 95 54.032 95 56.608C95 58.704 93.368 60.272 90.248 60.272C87.72 60.272 85.336 59.024 85.384 56.208ZM95.7746 56.208H98.2066C98.2066 57.728 99.3906 58.32 100.735 58.32C101.615 58.32 102.959 58.064 102.959 56.896C102.959 55.648 101.231 55.472 99.5666 55.008C97.8706 54.592 96.1586 53.872 96.1586 51.76C96.1586 49.408 98.3666 48.304 100.431 48.304C102.815 48.304 105.007 49.344 105.007 51.984H102.575C102.495 50.624 101.535 50.256 100.319 50.256C99.5186 50.256 98.5906 50.592 98.5906 51.552C98.5906 52.432 99.1346 52.56 101.999 53.28C102.847 53.472 105.391 54.032 105.391 56.608C105.391 58.704 103.759 60.272 100.639 60.272C98.1106 60.272 95.7266 59.024 95.7746 56.208ZM120.837 48.576L117.765 60H115.269L113.333 52.224H113.301L111.397 60H108.853L105.829 48.576H108.341L110.149 56.352H110.181L112.165 48.576H114.517L116.469 56.448H116.501L118.373 48.576H120.837Z" fill="#CA4241"/>
<path d="M122.043 60V48.576H125.995C129.451 48.656 131.243 50.512 131.243 54.288C131.243 58.064 129.451 59.92 125.995 60H122.043ZM123.131 49.504V59.072H125.451C128.731 59.072 130.155 57.712 130.155 54.288C130.155 50.864 128.731 49.504 125.451 49.504H123.131ZM136.292 52.352C134.372 52.352 133.396 54.128 133.396 55.872C133.396 57.616 134.372 59.392 136.292 59.392C138.212 59.392 139.188 57.616 139.188 55.872C139.188 54.128 138.212 52.352 136.292 52.352ZM136.292 51.504C138.804 51.504 140.196 53.504 140.196 55.872C140.196 58.24 138.804 60.24 136.292 60.24C133.78 60.24 132.388 58.24 132.388 55.872C132.388 53.504 133.78 51.504 136.292 51.504ZM141.694 60V51.744H142.622V53.68H142.654C143.166 52.336 144.286 51.568 145.774 51.632V52.64C143.95 52.56 142.702 53.872 142.702 55.6V60H141.694ZM149.109 59.968L145.813 51.744H146.885L149.605 58.784L152.149 51.744H153.157L149.573 61.264C148.981 62.656 148.661 63.056 147.397 63.056C146.997 63.04 146.805 63.04 146.629 62.976V62.128C146.869 62.176 147.077 62.208 147.317 62.208C148.213 62.208 148.421 61.68 148.757 60.912L149.109 59.968Z" fill="#444445"/>
</g>
<g id="Group_2">
<path id="Vector" d="M36.5 58.6429L26 54.0329V53.3529L36.5 48.1029V49.1529L27.38 53.6429L36.5 57.5829V58.6429Z" fill="#333333"/>
<path id="Vector_2" d="M67.09 57.5229L76.3 53.5829L67.09 49.1329V48.0829L77.6 53.3329V54.0129L67.09 58.6229V57.5229Z" fill="#333333"/>
<path id="Vector_3" d="M51.29 45.2529C50.88 44.9429 50.33 44.9229 49.89 45.1929C49.45 45.4629 49.24 45.9829 49.34 46.4829L49.71 48.3529C48.96 48.7029 48.29 49.1229 47.69 49.5629C47.1 50.0029 46.57 50.4829 46.12 50.9629L42.53 48.8729C42.05 48.5929 41.43 48.6729 41.04 49.0629C40.65 49.4529 40.56 50.0629 40.84 50.5529L42.61 53.6429L40.84 56.7329C40.56 57.2229 40.65 57.8329 41.04 58.2229C41.44 58.6129 42.05 58.6929 42.53 58.4129L46.12 56.3229C46.58 56.7929 47.1 57.2829 47.69 57.7229C48.29 58.1729 48.96 58.5929 49.71 58.9329L49.34 60.8029C49.24 61.3029 49.46 61.8129 49.89 62.0829C50.32 62.3529 50.88 62.3329 51.29 62.0229L54.28 59.7829C56.4 59.6329 58.19 58.7429 59.57 57.7129C61.08 56.5829 62.16 55.2229 62.72 54.2629C62.94 53.8829 62.94 53.4029 62.72 53.0229C62.16 52.0629 61.08 50.7029 59.57 49.5729C58.19 48.5429 56.4 47.6529 54.28 47.5029L51.29 45.2529ZM55.49 53.6429C55.49 52.9629 56.04 52.4129 56.72 52.4129C57.4 52.4129 57.95 52.9629 57.95 53.6429C57.95 54.3229 57.4 54.8729 56.72 54.8729C56.04 54.8729 55.49 54.3229 55.49 53.6429Z" fill="#CB4241"/>
</g>
</g>
</g>
</svg>
