<svg width="180" height="44" viewBox="0 0 180 44" fill="none" xmlns="http://www.w3.org/2000/svg">
<mask id="mask0_959_7403" style="mask-type:luminance" maskUnits="userSpaceOnUse" x="126" y="0" width="54" height="43">
<path d="M173.64 0.929993C177.15 0.929993 180 3.77999 180 7.28999V35.94C180 39.45 177.15 42.3 173.64 42.3H126.96L128.76 35.94H171.9C172.74 35.94 173.43 35.28 173.49 34.47V34.35V8.87999C173.49 8.03999 172.83 7.34999 172.02 7.28999H171.9H136.86L138.66 0.929993H173.64Z" fill="white"/>
</mask>
<g mask="url(#mask0_959_7403)">
<mask id="mask1_959_7403" style="mask-type:luminance" maskUnits="userSpaceOnUse" x="-30" y="-99" width="240" height="241">
<path d="M210 -98.28H-30V141.72H210V-98.28Z" fill="white"/>
</mask>
<g mask="url(#mask1_959_7403)">
<path d="M180.3 0.630005H126.66V42.6H180.3V0.630005Z" fill="white"/>
</g>
</g>
<mask id="mask2_959_7403" style="mask-type:luminance" maskUnits="userSpaceOnUse" x="134" y="12" width="35" height="20">
<path d="M156.18 12.06L159.6 23.73H159.66L162.81 12.06H168.69L162.78 31.14H156.27L151.92 17.19H145.17V31.14H139.35L139.29 17.19H134.07L135.54 12.06H156.18Z" fill="white"/>
</mask>
<g mask="url(#mask2_959_7403)">
<mask id="mask3_959_7403" style="mask-type:luminance" maskUnits="userSpaceOnUse" x="-30" y="-99" width="240" height="241">
<path d="M210 -98.28H-30V141.72H210V-98.28Z" fill="white"/>
</mask>
<g mask="url(#mask3_959_7403)">
<path d="M168.96 11.76H133.77V31.47H168.96V11.76Z" fill="#CC4141"/>
</g>
</g>
<mask id="mask4_959_7403" style="mask-type:luminance" maskUnits="userSpaceOnUse" x="0" y="0" width="37" height="44">
<path d="M0 28.32V28.71C0.15 35.73 4.17 39.36 8.49 41.22L8.97 41.43L9.45 41.61L9.93 41.79C10.32 41.94 10.71 42.06 11.13 42.15L11.61 42.27L12.09 42.39L12.54 42.48L12.99 42.57C13.08 42.57 13.14 42.6 13.2 42.6L13.65 42.69L14.07 42.75L14.49 42.81L14.91 42.87L15.3 42.93L15.69 42.96L16.08 42.99L16.44 43.02L16.95 43.05L17.43 43.08H17.85H18.12C18.48 43.08 18.84 43.08 19.2 43.05L19.74 43.02L20.28 42.99L20.82 42.96C21.45 42.9 22.08 42.84 22.71 42.75L23.25 42.66L23.79 42.57C23.88 42.54 23.97 42.54 24.06 42.51L24.57 42.39C24.66 42.36 24.75 42.36 24.84 42.33L25.35 42.21C31.59 40.62 36.63 36.69 36.63 28.95C36.63 25.98 35.76 23.76 34.35 22.08L34.23 21.93C32.13 19.5 28.86 18.18 25.56 17.19L25.2 17.1L24.36 16.89L23.25 16.62L20.79 16.02L20.01 15.81L19.5 15.69L18.99 15.57L18.51 15.42L18.03 15.27L17.58 15.12C17.43 15.06 17.28 15.03 17.13 14.97L16.71 14.82C14.79 14.1 13.5 13.23 13.41 11.91C13.41 10.17 15 9.48 16.53 9.24L16.83 9.21C16.92 9.21 17.01 9.18 17.13 9.18L17.4 9.15H17.67H17.94H18.21C19.35 9.18 20.46 9.45 21.45 10.05L21.66 10.17C22.68 10.83 23.31 11.82 23.16 13.26L23.13 13.44H34.95V13.14C34.62 5.76 30.06 2.04 24.03 0.689996L23.52 0.569998C23.43 0.539998 23.34 0.539995 23.28 0.509995L22.77 0.419998C22.53 0.389998 22.26 0.33 21.99 0.3L21.48 0.239996L20.97 0.180002L20.43 0.119998C20.34 0.119998 20.25 0.119996 20.16 0.0899963L19.62 0.0599945L19.08 0.0300018C18.81 0.0300018 18.54 0.03 18.27 0H18C16.68 0 15.36 0.09 14.1 0.3L13.59 0.389996C7.02 1.62 1.62 5.75999 1.62 13.56C1.62 18.57 4.32 21.21 7.86 22.89L8.28 23.1L8.73 23.28L9.18 23.46L9.63 23.64L10.08 23.82L10.53 23.97L10.98 24.12L11.46 24.27L12.18 24.48L12.66 24.63L13.14 24.78L16.68 25.8L17.85 26.13L18.9 26.46L19.62 26.67L20.07 26.82L20.49 26.97L21.06 27.18L21.42 27.3C21.48 27.33 21.54 27.33 21.57 27.36L21.87 27.48L22.17 27.6L22.44 27.72C22.47 27.75 22.53 27.75 22.56 27.78L22.8 27.9C23.85 28.5 24.21 29.16 24.21 30.09C24.21 32.43 22.38 33.36 20.61 33.69L20.31 33.75L20.01 33.78L19.71 33.81L19.44 33.84H19.17H19.05C16.71 33.84 13.98 33.33 13.08 30.84C12.84 30.12 12.66 29.31 12.63 28.47V28.14H0V28.32Z" fill="white"/>
</mask>
<g mask="url(#mask4_959_7403)">
<mask id="mask5_959_7403" style="mask-type:luminance" maskUnits="userSpaceOnUse" x="-30" y="-99" width="240" height="241">
<path d="M210 -98.28H-30V141.72H210V-98.28Z" fill="white"/>
</mask>
<g mask="url(#mask5_959_7403)">
<path d="M36.9 -0.180054H-0.299988V43.38H36.9V-0.180054Z" fill="white"/>
</g>
</g>
<mask id="mask6_959_7403" style="mask-type:luminance" maskUnits="userSpaceOnUse" x="37" y="0" width="38" height="44">
<path d="M55.35 0.120001C54.03 0.120001 52.71 0.210001 51.45 0.420001L50.94 0.509998C44.37 1.74 38.97 5.88 38.97 13.68C38.97 16.29 39.69 18.24 40.89 19.77L40.98 19.89C42.84 22.17 45.75 23.46 48.84 24.45L49.53 24.66L50.01 24.81L50.49 24.96L50.94 25.08L53.7 25.86L55.41 26.37L56.16 26.61L56.64 26.76L57.3 26.97L57.72 27.12L58.11 27.27L58.47 27.39L58.8 27.51L59.1 27.63L59.4 27.75L59.67 27.87C59.7 27.9 59.76 27.9 59.79 27.93L60.03 28.05C60.06 28.08 60.09 28.08 60.15 28.11L60.36 28.23C61.11 28.74 61.44 29.25 61.5 29.97V30.15C61.5 30.18 61.5 30.21 61.5 30.24C61.5 32.58 59.67 33.51 57.9 33.84L57.6 33.9L57.3 33.93L57 33.96L56.73 33.99H56.46H56.34C54 33.99 51.27 33.48 50.37 30.99C50.13 30.27 49.95 29.46 49.92 28.62V28.29H37.41V28.68C37.5 32.88 38.97 35.88 41.1 38.01C44.1 41.04 48.42 42.3 51.75 42.78L52.26 42.84L52.77 42.9C52.86 42.9 52.92 42.93 53.01 42.93L53.49 42.96L53.94 42.99L54.36 43.02L54.93 43.05H55.29H55.56C55.92 43.05 56.28 43.05 56.64 43.02L57.18 42.99L57.72 42.96L58.26 42.93C58.89 42.87 59.52 42.81 60.15 42.72L60.69 42.63L61.23 42.54C61.32 42.51 61.41 42.51 61.5 42.48L62.01 42.36C62.1 42.33 62.19 42.33 62.28 42.3L62.79 42.18C69.03 40.59 74.07 36.66 74.07 28.92C74.07 23.28 70.92 20.4 66.96 18.63L66.51 18.45C66.45 18.42 66.36 18.39 66.3 18.36L65.85 18.18L65.4 18L64.95 17.85L64.5 17.7L64.05 17.55L63.36 17.34L62.67 17.13L61.83 16.92L60.72 16.65L58.26 16.05L57.48 15.84L56.97 15.72L56.46 15.6L55.98 15.45L55.5 15.3L55.05 15.15C54.9 15.09 54.75 15.06 54.6 15L54.18 14.85C52.26 14.13 50.97 13.26 50.88 11.94C50.88 10.2 52.47 9.51 54 9.27L54.3 9.24C54.39 9.24 54.48 9.21 54.6 9.21L54.87 9.18001H55.14H55.41C56.64 9.18001 57.84 9.42 58.89 10.08L59.1 10.23C60.12 10.89 60.75 11.88 60.6 13.32L60.57 13.5H72.3V13.2C71.97 5.82 67.41 2.1 61.38 0.750003L60.87 0.630005C60.78 0.600005 60.69 0.600001 60.63 0.570001L60.12 0.480005C59.88 0.450005 59.61 0.389998 59.34 0.359998L58.83 0.300003L58.32 0.239999L57.78 0.180005C57.69 0.180005 57.6 0.180003 57.51 0.150003L56.97 0.120001L56.43 0.0899994C56.16 0.0899994 55.89 0.0899976 55.62 0.0599976L55.35 0.120001Z" fill="white"/>
</mask>
<g mask="url(#mask6_959_7403)">
<mask id="mask7_959_7403" style="mask-type:luminance" maskUnits="userSpaceOnUse" x="-30" y="-99" width="240" height="241">
<path d="M210 -98.28H-30V141.72H210V-98.28Z" fill="white"/>
</mask>
<g mask="url(#mask7_959_7403)">
<path d="M74.31 -0.180054H37.11V43.38H74.31V-0.180054Z" fill="white"/>
</g>
</g>
<mask id="mask8_959_7403" style="mask-type:luminance" maskUnits="userSpaceOnUse" x="74" y="0" width="59" height="43">
<path d="M119.37 0.929993L114.15 26.82H114.03L109.08 0.929993H97.71L92.67 26.46H92.55L87.45 0.929993H74.79L86.16 42.3H98.76L103.17 17.07H103.29L107.79 42.3H120.36L132.09 0.929993H119.37Z" fill="white"/>
</mask>
<g mask="url(#mask8_959_7403)">
<mask id="mask9_959_7403" style="mask-type:luminance" maskUnits="userSpaceOnUse" x="-30" y="-99" width="240" height="241">
<path d="M210 -98.28H-30V141.72H210V-98.28Z" fill="white"/>
</mask>
<g mask="url(#mask9_959_7403)">
<path d="M132.39 0.630005H74.49V42.6H132.39V0.630005Z" fill="white"/>
</g>
</g>
</svg>
