<svg width="166" height="40" viewBox="0 0 166 40" fill="none" xmlns="http://www.w3.org/2000/svg">
<path d="M163.402 1.54902C164.849 1.62203 166 2.81356 166 4.27274V36.0909C166 37.5501 164.849 38.7416 163.402 38.8146L163.261 38.8182H120.021L121.323 33.0911H160.248V7.27257H127.191L128.492 1.54547H163.261L163.402 1.54902Z" fill="white"/>
<path d="M147.957 22.0755H148.005L150.814 11.5455H156.334L150.888 28.9088H144.879L141.01 15.9959H135.171V28.9088H129.798V15.9959H125.208L126.22 11.5455H145.099L147.957 22.0755Z" fill="#CC4141"/>
<path d="M70.8886 26.829C70.8886 29.205 70.2588 31.4113 68.942 33.3913C68.942 33.4478 68.8847 33.5044 68.8847 33.5044C68.6557 33.8438 68.4267 34.1267 68.1977 34.4095C66.9381 35.9935 65.2205 37.2947 63.1594 38.1433C60.7547 39.2181 57.663 39.7273 53.9415 39.7273C47.4146 39.7273 42.9489 38.4827 40.4297 35.9935C37.9106 33.5044 36.4792 30.393 36.1929 26.5461L47.4719 25.8672C47.7009 27.6775 48.2162 29.0352 48.9605 29.997C50.1628 31.5244 51.9377 32.0901 54.1706 32.0901C55.8309 32.0901 57.1477 31.8638 58.0638 31.0718C58.9799 30.2798 59.4379 29.3747 59.4379 28.3564C59.4379 27.3947 58.9799 26.4895 58.1211 25.7541C57.2623 24.9621 55.2584 24.2267 52.0522 23.5478C46.8421 22.4164 43.1779 20.889 40.945 18.9655C38.7121 17.0421 37.6243 14.6095 37.6243 11.6678C37.6243 9.74436 38.1968 7.87751 39.3419 6.18036C40.487 4.42664 42.2046 3.06893 44.4947 2.10721C46.7849 1.08893 49.9338 0.636353 53.8843 0.636353C58.7508 0.636353 62.5296 1.5415 65.0487 3.35179C66.1938 4.14379 67.1671 5.21865 67.9114 6.46322C68.1977 6.91579 68.4267 7.36836 68.5985 7.87751C69.1137 9.06551 69.4573 10.4232 69.629 11.9507L67.4534 12.0638L65.7358 12.1769L58.5218 12.5729C58.2356 10.8758 57.6058 9.63122 56.6897 8.83922C55.7164 8.04722 54.3996 7.70779 52.7392 7.70779C51.3651 7.70779 50.3346 7.99065 49.6475 8.55636C48.9605 9.12208 48.617 9.85751 48.617 10.6495C48.617 11.2152 48.9032 11.7809 49.4758 12.2901C50.0483 12.7992 51.3651 13.2518 53.4263 13.7044C58.5791 14.8358 62.3006 15.9107 64.5335 17.0421C64.648 17.0987 64.7052 17.1552 64.8197 17.2118C65.5068 17.5512 66.1366 17.9472 66.6518 18.3432C67.7969 19.1918 68.7702 20.1535 69.4 21.2284C70.3733 22.869 70.8886 24.7358 70.8886 26.829Z" fill="white"/>
<path d="M34.6957 26.829C34.6957 29.205 34.0659 31.4113 32.749 33.3913C32.749 33.4478 32.6918 33.5044 32.6918 33.5044C32.4628 33.8438 32.2338 34.1267 32.0047 34.4095C30.7452 35.9935 29.0276 37.2947 26.9664 38.1433C24.5618 39.2181 21.4701 39.7273 17.7486 39.7273C11.2217 39.7273 6.75592 38.4827 4.23676 35.9935C1.71761 33.5044 0.286268 30.393 0 26.5461L11.279 25.8672C11.508 27.6775 12.0232 29.0352 12.7675 29.997C13.9699 31.5244 15.7447 32.0901 17.9776 32.0901C19.638 32.0901 20.9548 31.8638 21.8709 31.0718C22.7869 30.2798 23.2449 29.3747 23.2449 28.3564C23.2449 27.3947 22.7869 26.4895 21.9281 25.7541C21.0693 24.9621 19.0654 24.2267 15.8592 23.5478C10.6492 22.4164 6.98493 20.889 4.75205 18.9655C2.51916 17.0421 1.43134 14.6095 1.43134 11.6678C1.43134 9.74436 2.00387 7.87751 3.14895 6.18036C4.29402 4.42664 6.01162 3.06893 8.30176 2.10721C10.5919 1.08893 13.7409 0.636353 17.6913 0.636353C22.5579 0.636353 26.3366 1.5415 28.8558 3.35179C30.0009 4.14379 30.9742 5.21865 31.7185 6.46322C32.0047 6.91579 32.2337 7.36836 32.4055 7.87751C32.9208 9.06551 33.2643 10.4232 33.4361 11.9507L31.2604 12.0638L29.5428 12.1769L22.3289 12.5729C22.0426 10.8758 21.4128 9.63122 20.4968 8.83922C19.5235 8.04722 18.2066 7.70779 16.5463 7.70779C15.1722 7.70779 14.1416 7.99065 13.4546 8.55636C12.7675 9.12208 12.424 9.85751 12.424 10.6495C12.424 11.2152 12.7103 11.7809 13.2828 12.2901C13.8554 12.7992 15.1722 13.2518 17.2333 13.7044C22.3861 14.8358 26.1076 15.9107 28.3405 17.0421C28.455 17.0987 28.5123 17.1552 28.6268 17.2118C29.3138 17.5512 29.9436 17.9472 30.4589 18.3432C31.604 19.1918 32.5773 20.1535 33.2071 21.2284C34.1804 22.869 34.6957 24.7358 34.6957 26.829Z" fill="white"/>
<path d="M124.758 1.54547L116.289 38.8182H104.593L97.8522 15.3832L91.1113 38.8182H79.4732L71.1191 2.66142V2.60562L71.0038 1.93605L70.8886 1.54547H82.181L86.2717 22.4137L92.206 1.54547H103.498L109.433 22.4137L113.523 1.54547H124.758Z" fill="white"/>
</svg>
