<?xml version="1.0" encoding="utf-8"?>
<!-- Generator: Adobe Illustrator 26.0.2, SVG Export Plug-In . SVG Version: 6.00 Build 0)  -->
<svg version="1.1" id="Layer_1" xmlns="http://www.w3.org/2000/svg" xmlns:xlink="http://www.w3.org/1999/xlink" x="0px" y="0px"
	 viewBox="0 0 800 800" style="enable-background:new 0 0 800 800;" xml:space="preserve">
<style type="text/css">
	.st0{clip-path:url(#SVGID_00000053546815522657681220000016436652541963798180_);}
	.st1{clip-path:url(#SVGID_00000054268085425713521120000000999415343172562049_);fill:#333333;}
	.st2{clip-path:url(#SVGID_00000030468143788215039100000009298330676400441732_);}
	.st3{clip-path:url(#SVGID_00000073700478091804300120000009416205104981968537_);fill:#CC4141;}
	.st4{clip-path:url(#SVGID_00000162350167494601626140000009990962957135291273_);}
	.st5{clip-path:url(#SVGID_00000166660689965781449320000012493968808232222113_);fill:#333333;}
	.st6{clip-path:url(#SVGID_00000084515836925216871910000018222673862823931016_);}
	.st7{clip-path:url(#SVGID_00000150791187567985998550000003448671135947271596_);fill:#333333;}
	.st8{clip-path:url(#SVGID_00000179614022835109193420000009715593340081855883_);}
	.st9{clip-path:url(#SVGID_00000181769419648343102430000009487618101019173809_);fill:#333333;}
</style>
<g>
	<g>
		<defs>
			<path id="SVGID_1_" d="M678.8,330.7c11.7,0,21.2,9.5,21.2,21.2v95.5c0,11.7-9.5,21.2-21.2,21.2H523.2l6-21.2H673
				c2.8,0,5.1-2.2,5.3-4.9v-0.4v-84.9c0-2.8-2.2-5.1-4.9-5.3H673H556.2l6-21.2L678.8,330.7L678.8,330.7z"/>
		</defs>
		<clipPath id="SVGID_00000151514758358581782970000015987112727178994567_">
			<use xlink:href="#SVGID_1_"  style="overflow:visible;"/>
		</clipPath>
		<g style="clip-path:url(#SVGID_00000151514758358581782970000015987112727178994567_);">
			<g>
				<defs>
					<rect id="SVGID_00000045582080211414198580000004028687645802582665_" width="800" height="800"/>
				</defs>
				<clipPath id="SVGID_00000066515677162656839380000016017348495997382789_">
					<use xlink:href="#SVGID_00000045582080211414198580000004028687645802582665_"  style="overflow:visible;"/>
				</clipPath>
				
					<rect x="522.2" y="329.7" style="clip-path:url(#SVGID_00000066515677162656839380000016017348495997382789_);fill:#333333;" width="178.8" height="139.9"/>
			</g>
		</g>
	</g>
</g>
<g>
	<g>
		<defs>
			<polygon id="SVGID_00000127745665477285901000000009191192487140668035_" points="620.6,367.8 632,406.7 632.2,406.7 
				642.7,367.8 662.3,367.8 642.6,431.4 620.9,431.4 606.4,384.9 583.9,384.9 583.9,431.4 564.5,431.4 564.3,384.9 546.9,384.9 
				551.8,367.8 			"/>
		</defs>
		<clipPath id="SVGID_00000120548975558301451770000001507218746676824492_">
			<use xlink:href="#SVGID_00000127745665477285901000000009191192487140668035_"  style="overflow:visible;"/>
		</clipPath>
		<g style="clip-path:url(#SVGID_00000120548975558301451770000001507218746676824492_);">
			<g>
				<defs>
					<rect id="SVGID_00000152944544930970992250000006960154050665171844_" width="800" height="800"/>
				</defs>
				<clipPath id="SVGID_00000172401768935417877160000015932211194732939154_">
					<use xlink:href="#SVGID_00000152944544930970992250000006960154050665171844_"  style="overflow:visible;"/>
				</clipPath>
				
					<rect x="545.9" y="366.8" style="clip-path:url(#SVGID_00000172401768935417877160000015932211194732939154_);fill:#CC4141;" width="117.3" height="65.7"/>
			</g>
		</g>
	</g>
</g>
<g>
	<g>
		<defs>
			<path id="SVGID_00000125597059218411632260000017798612500789262992_" d="M100,422v1.3c0.5,23.4,13.9,35.5,28.3,41.7l1.6,0.7
				l1.6,0.6l1.6,0.6c1.3,0.5,2.6,0.9,4,1.2l1.6,0.4l1.6,0.4l1.5,0.3l1.5,0.3c0.3,0,0.5,0.1,0.7,0.1l1.5,0.3l1.4,0.2l1.4,0.2l1.4,0.2
				l1.3,0.2l1.3,0.1l1.3,0.1l1.2,0.1l1.7,0.1l1.6,0.1h1.4h0.9c1.2,0,2.4,0,3.6-0.1l1.8-0.1l1.8-0.1l1.8-0.1c2.1-0.2,4.2-0.4,6.3-0.7
				l1.8-0.3l1.8-0.3c0.3-0.1,0.6-0.1,0.9-0.2l1.7-0.4c0.3-0.1,0.6-0.1,0.9-0.2l1.7-0.4c20.8-5.3,37.6-18.4,37.6-44.2
				c0-9.9-2.9-17.3-7.6-22.9l-0.4-0.5c-7-8.1-17.9-12.5-28.9-15.8l-1.2-0.3l-2.8-0.7l-3.7-0.9l-8.2-2l-2.6-0.7l-1.7-0.4l-1.7-0.4
				l-1.6-0.5l-1.6-0.5l-1.5-0.5c-0.5-0.2-1-0.3-1.5-0.5l-1.4-0.5c-6.4-2.4-10.7-5.3-11-9.7c0-5.8,5.3-8.1,10.4-8.9l1-0.1
				c0.3,0,0.6-0.1,1-0.1l0.9-0.1h0.9h0.9h0.9c3.8,0.1,7.5,1,10.8,3l0.7,0.4c3.4,2.2,5.5,5.5,5,10.3l-0.1,0.6h39.4v-1
				c-1.1-24.6-16.3-37-36.4-41.5l-1.7-0.4c-0.3-0.1-0.6-0.1-0.8-0.2l-1.7-0.3c-0.8-0.1-1.7-0.3-2.6-0.4l-1.7-0.2l-1.7-0.2l-1.8-0.2
				c-0.3,0-0.6,0-0.9-0.1l-1.8-0.1l-1.8-0.1c-0.9,0-1.8,0-2.7-0.1H160c-4.4,0-8.8,0.3-13,1l-1.7,0.3c-21.9,4.1-39.9,17.9-39.9,43.9
				c0,16.7,9,25.5,20.8,31.1l1.4,0.7l1.5,0.6l1.5,0.6l1.5,0.6l1.5,0.6l1.5,0.5l1.5,0.5l1.6,0.5l2.4,0.7l1.6,0.5l1.6,0.5l11.8,3.4
				l3.9,1.1l3.5,1.1l2.4,0.7l1.5,0.5l1.4,0.5l1.9,0.7l1.2,0.4c0.2,0.1,0.4,0.1,0.5,0.2l1,0.4l1,0.4l0.9,0.4c0.1,0.1,0.3,0.1,0.4,0.2
				l0.8,0.4c3.5,2,4.7,4.2,4.7,7.3c0,7.8-6.1,10.9-12,12l-1,0.2l-1,0.1l-1,0.1l-0.9,0.1h-0.9h-0.4c-7.8,0-16.9-1.7-19.9-10
				c-0.8-2.4-1.4-5.1-1.5-7.9v-1.1H100V422z"/>
		</defs>
		<clipPath id="SVGID_00000083090241165427800080000012406120578961762959_">
			<use xlink:href="#SVGID_00000125597059218411632260000017798612500789262992_"  style="overflow:visible;"/>
		</clipPath>
		<g style="clip-path:url(#SVGID_00000083090241165427800080000012406120578961762959_);">
			<g>
				<defs>
					<rect id="SVGID_00000041977699171590411770000011310325836501380246_" width="800" height="800"/>
				</defs>
				<clipPath id="SVGID_00000086656887435922082700000014457488576156587935_">
					<use xlink:href="#SVGID_00000041977699171590411770000011310325836501380246_"  style="overflow:visible;"/>
				</clipPath>
				
					<rect x="99" y="327" style="clip-path:url(#SVGID_00000086656887435922082700000014457488576156587935_);fill:#333333;" width="124" height="145.2"/>
			</g>
		</g>
	</g>
</g>
<g>
	<g>
		<defs>
			<path id="SVGID_00000109020034310767488600000005087768200010593707_" d="M284.5,328c-4.4,0-8.8,0.3-13,1l-1.7,0.3
				c-21.9,4.1-39.9,17.9-39.9,43.9c0,8.7,2.4,15.2,6.4,20.3l0.3,0.4c6.2,7.6,15.9,11.9,26.2,15.2l2.3,0.7l1.6,0.5l1.6,0.5l1.5,0.4
				l9.2,2.6l5.7,1.7l2.5,0.8l1.6,0.5l2.2,0.7l1.4,0.5l1.3,0.5l1.2,0.4l1.1,0.4l1,0.4l1,0.4l0.9,0.4c0.1,0.1,0.3,0.1,0.4,0.2l0.8,0.4
				c0.1,0.1,0.2,0.1,0.4,0.2l0.7,0.4c2.5,1.7,3.6,3.4,3.8,5.8v0.6c0,0.1,0,0.2,0,0.3c0,7.8-6.1,10.9-12,12l-1,0.2l-1,0.1l-1,0.1
				l-0.9,0.1h-0.9h-0.4c-7.8,0-16.9-1.7-19.9-10c-0.8-2.4-1.4-5.1-1.5-7.9v-1.1h-41.7v1.3c0.3,14,5.2,24,12.3,31.1
				c10,10.1,24.4,14.3,35.5,15.9l1.7,0.2l1.7,0.2c0.3,0,0.5,0.1,0.8,0.1l1.6,0.1l1.5,0.1l1.4,0.1l1.9,0.1h1.2h0.9
				c1.2,0,2.4,0,3.6-0.1l1.8-0.1l1.8-0.1l1.8-0.1c2.1-0.2,4.2-0.4,6.3-0.7l1.8-0.3l1.8-0.3c0.3-0.1,0.6-0.1,0.9-0.2l1.7-0.4
				c0.3-0.1,0.6-0.1,0.9-0.2l1.7-0.4c20.8-5.3,37.6-18.4,37.6-44.2c0-18.8-10.5-28.4-23.7-34.3l-1.5-0.6c-0.2-0.1-0.5-0.2-0.7-0.3
				l-1.5-0.6l-1.5-0.6l-1.5-0.5l-1.5-0.5l-1.5-0.5l-2.3-0.7l-2.3-0.7l-2.8-0.7l-3.7-0.9l-8.2-2l-2.6-0.7l-1.7-0.4l-1.7-0.4l-1.6-0.5
				l-1.6-0.5l-1.5-0.5c-0.5-0.2-1-0.3-1.5-0.5l-1.4-0.5c-6.4-2.4-10.7-5.3-11-9.7c0-5.8,5.3-8.1,10.4-8.9l1-0.1c0.3,0,0.6-0.1,1-0.1
				l0.9-0.1h0.9h0.9c4.1,0,8.1,0.8,11.6,3l0.7,0.5c3.4,2.2,5.5,5.5,5,10.3l-0.1,0.6H341v-1c-1.1-24.6-16.3-37-36.4-41.5l-1.7-0.4
				c-0.3-0.1-0.6-0.1-0.8-0.2l-1.7-0.3c-0.8-0.1-1.7-0.3-2.6-0.4l-1.7-0.2l-1.7-0.2l-1.8-0.2c-0.3,0-0.6,0-0.9-0.1l-1.8-0.1
				l-1.8-0.1c-0.9,0-1.8,0-2.7-0.1L284.5,328z"/>
		</defs>
		<clipPath id="SVGID_00000165931758410164847170000008012878168561726399_">
			<use xlink:href="#SVGID_00000109020034310767488600000005087768200010593707_"  style="overflow:visible;"/>
		</clipPath>
		<g style="clip-path:url(#SVGID_00000165931758410164847170000008012878168561726399_);">
			<g>
				<defs>
					<rect id="SVGID_00000175319815580129602140000008076600980480850313_" width="800" height="800"/>
				</defs>
				<clipPath id="SVGID_00000109030672549780717080000008970015871169082259_">
					<use xlink:href="#SVGID_00000175319815580129602140000008076600980480850313_"  style="overflow:visible;"/>
				</clipPath>
				
					<rect x="223.7" y="327" style="clip-path:url(#SVGID_00000109030672549780717080000008970015871169082259_);fill:#333333;" width="124" height="145.2"/>
			</g>
		</g>
	</g>
</g>
<g>
	<g>
		<defs>
			<polygon id="SVGID_00000092415547341573529330000014049824838322830468_" points="497.9,330.7 480.5,417 480.1,417 463.6,330.7 
				425.7,330.7 408.9,415.8 408.5,415.8 391.5,330.7 349.3,330.7 387.2,468.6 429.2,468.6 443.9,384.5 444.3,384.5 459.3,468.6 
				501.2,468.6 540.3,330.7 			"/>
		</defs>
		<clipPath id="SVGID_00000098926770028989535310000011533809862877931963_">
			<use xlink:href="#SVGID_00000092415547341573529330000014049824838322830468_"  style="overflow:visible;"/>
		</clipPath>
		<g style="clip-path:url(#SVGID_00000098926770028989535310000011533809862877931963_);">
			<g>
				<defs>
					<rect id="SVGID_00000096746187515506922820000012173744669173307554_" width="800" height="800"/>
				</defs>
				<clipPath id="SVGID_00000042008752250363084180000010284071534256507018_">
					<use xlink:href="#SVGID_00000096746187515506922820000012173744669173307554_"  style="overflow:visible;"/>
				</clipPath>
				
					<rect x="348.3" y="329.7" style="clip-path:url(#SVGID_00000042008752250363084180000010284071534256507018_);fill:#333333;" width="193" height="139.9"/>
			</g>
		</g>
	</g>
</g>
</svg>
