<?xml version="1.0" encoding="UTF-8"?>
<svg width="180px" height="108px" viewBox="0 0 180 108" version="1.1" xmlns="http://www.w3.org/2000/svg" xmlns:xlink="http://www.w3.org/1999/xlink">
    <title>SugarLearing_horizontal</title>
    <g id="SugarLearing_horizontal" stroke="none" stroke-width="1" fill="none" fill-rule="evenodd">
        <g id="Group-15" transform="translate(10.000000, 45.000000)" fill-rule="nonzero">
            <g id="logo">
                <g id="Group">
                    <g fill="#333333">
                        <polygon id="Path" points="11.030303 16.15 0.42020202 11.209375 0.42020202 10.09375 11.030303 5.153125 11.030303 6.321875 1.73333333 10.678125 11.030303 15.034375"></polygon>
                        <path d="M26.1575758,8.5 C26.1050505,8.5 26.1050505,8.5 26.0525253,8.5 C26,8.5 26,8.5 25.9474747,8.5 L14.0242424,4.728125 C13.8666667,4.675 13.8141414,4.56875 13.8141414,4.409375 C13.8141414,4.25 13.9191919,4.14375 14.0242424,4.090625 L25.8949495,0.31875 C25.9474747,0.31875 25.9474747,0.31875 26,0.31875 C26.0525253,0.31875 26.0525253,0.31875 26.1050505,0.31875 L37.9757576,4.090625 C38.1333333,4.14375 38.1858586,4.25 38.1858586,4.409375 C38.1858586,4.56875 38.0808081,4.675 37.9757576,4.728125 L26.1575758,8.5 Z M19.4343434,7.8625 L25.5272727,9.828125 C25.6848485,9.88125 25.8424242,9.88125 26.0525253,9.88125 C26.210101,9.88125 26.3676768,9.88125 26.5777778,9.828125 L32.6707071,7.8625 L32.8808081,11.2625 C32.9858586,12.803125 29.8343434,14.025 26.1050505,14.025 C22.3757576,14.025 19.2242424,12.803125 19.3292929,11.2625 L19.4343434,7.8625 Z" id="Shape"></path>
                        <polygon id="Path" points="50.4767677 10.678125 41.1272727 6.321875 41.1272727 5.153125 51.7373737 10.09375 51.7373737 11.2625 41.1272727 16.203125 41.1272727 15.034375"></polygon>
                    </g>
                    <polygon id="Path" fill="#CC4141" points="33.0909091 6.321875 25.2121212 3.665625 26.4727273 3.29375 34.5090909 5.84375"></polygon>
                    <path d="M34.4040404,5.790625 C35.0868687,6.746875 35.4020202,8.075 35.4545455,9.35 C35.8747475,9.5625 36.1373737,10.040625 36.1373737,10.51875 C36.1373737,10.996875 35.8747475,11.421875 35.5070707,11.6875 L36.1373737,16.3625 C36.1373737,16.46875 36.1373737,16.575 36.0323232,16.628125 C35.979798,16.68125 35.8747475,16.734375 35.769697,16.734375 L33.7212121,16.734375 C33.6161616,16.734375 33.5111111,16.68125 33.4585859,16.628125 C33.4060606,16.575 33.3535354,16.46875 33.3535354,16.3625 L33.9838384,11.6875 C33.6161616,11.421875 33.3535354,10.996875 33.3535354,10.51875 C33.3535354,10.040625 33.6161616,9.5625 34.0363636,9.35 C33.9313131,7.915625 33.5111111,6.69375 32.9333333,6.215625 L34.4040404,5.790625 Z" id="Path" fill="#CC4141"></path>
                    <path d="M26.5252525,4.675 L26.5252525,4.675 C26,4.675 25.4747475,4.4625 25.2646465,4.090625 L25.2646465,4.090625 C24.9494949,3.50625 25.4747475,2.815625 26.5252525,2.815625 L26.5252525,2.815625 C27.5757576,2.815625 28.1010101,3.50625 27.7858586,4.090625 L27.7858586,4.090625 C27.5757576,4.4625 27.0505051,4.675 26.5252525,4.675 Z" id="Path" fill="#CC4141"></path>
                </g>
            </g>
            <g id="SugarLearning" transform="translate(59.000000, 3.000000)">
                <path d="M4.79575418,11.6068966 C7.87152738,11.6068966 9.48039336,10.0862069 9.48039336,8.05344828 C9.48039336,5.55517241 6.97245521,5.01206897 6.13647583,4.82586207 C3.31307377,4.12758621 2.77678511,4.00344828 2.77678511,3.15 C2.77678511,2.21896552 3.69163047,1.89310345 4.48029027,1.89310345 C5.67905315,1.89310345 6.62544491,2.25 6.70431088,3.56896552 L9.10183666,3.56896552 C9.10183666,1.00862069 6.94090882,-1.83761052e-15 4.59070264,-1.83761052e-15 C2.55596037,-1.83761052e-15 0.379259338,1.07068966 0.379259338,3.35172414 C0.379259338,5.4 2.0669913,6.09827586 3.73895006,6.50172414 C5.37936243,6.95172414 7.08286759,7.12241379 7.08286759,8.33275862 C7.08286759,9.46551724 5.75791913,9.7137931 4.89039336,9.7137931 C3.56544491,9.7137931 2.39822841,9.13965517 2.39822841,7.66551724 L0.000702637356,7.66551724 C-0.0466169503,10.3965517 2.30358924,11.6068966 4.79575418,11.6068966 Z M13.6918367,11.5603448 C14.6382284,11.5603448 15.6161666,11.1413793 16.1840016,10.2258621 L16.2313212,10.2258621 L16.2313212,11.3431034 L18.3607026,11.3431034 L18.3607026,3.32068966 L16.1209088,3.32068966 L16.1209088,7.52586207 C16.1209088,9.15517241 15.6003934,9.82241379 14.3858573,9.82241379 C13.3290532,9.82241379 12.9504965,9.17068966 12.9504965,7.85172414 L12.9504965,3.32068966 L10.7107026,3.32068966 L10.7107026,8.25517241 C10.7107026,10.2413793 11.3100841,11.5603448 13.6918367,11.5603448 Z M23.6762696,14.3844828 C27.4145171,14.3844828 27.9034861,12.15 27.9034861,10.8310345 L27.9034861,3.32068966 L25.7741047,3.32068966 L25.7741047,4.39137931 L25.7425583,4.39137931 C25.1904965,3.46034483 24.3860635,3.10344828 23.3134861,3.10344828 C21.0421459,3.10344828 19.8118367,4.99655172 19.8118367,7.07586207 C19.8118367,9.27931034 20.8370944,11.1103448 23.2977129,11.1103448 C24.2914243,11.1103448 25.2535892,10.7224138 25.7425583,9.86896552 L25.7741047,9.86896552 L25.7741047,10.9241379 C25.7898779,12.087931 25.2220428,12.9103448 23.9759604,12.9103448 C23.1715274,12.9103448 22.5090532,12.6310345 22.3040016,11.8086207 L20.079981,11.8086207 C20.2061666,13.6241379 22.0674037,14.3844828 23.6762696,14.3844828 Z M23.865548,9.45 C22.4775068,9.45 22.0516305,8.19310345 22.0516305,7.04482759 C22.0516305,5.85 22.6036923,4.7637931 23.865548,4.7637931 C25.316682,4.7637931 25.7741047,5.92758621 25.7741047,7.23103448 C25.7741047,8.37931034 25.1431769,9.45 23.865548,9.45 Z M32.1307026,11.5603448 C33.1401872,11.5603448 34.1654449,11.2965517 34.8752387,10.5672414 C34.8910119,10.8310345 34.9541047,11.0948276 35.0329707,11.3431034 L37.3043109,11.3431034 C37.0992593,11.0172414 37.0203934,10.287931 37.0203934,9.55862069 L37.0203934,5.38448276 C37.0203934,3.46034483 35.0645171,3.10344828 33.4398779,3.10344828 C31.6101872,3.10344828 29.7331769,3.73965517 29.6069913,5.78793103 L31.8467851,5.78793103 C31.9256511,4.91896552 32.4619398,4.57758621 33.3294655,4.57758621 C34.1181253,4.57758621 34.7805995,4.73275862 34.7805995,5.6637931 C34.8752387,7.4637931 29.3861666,5.50862069 29.3546202,9.15517241 C29.3546202,10.8 30.5691562,11.5603448 32.1307026,11.5603448 Z M32.966682,10.0862069 C32.241115,10.0862069 31.594414,9.86896552 31.594414,9.06206897 C31.594414,8.25517241 32.2253418,8.00689655 32.9193624,7.88275862 C33.613383,7.75862069 34.4020428,7.74310345 34.7805995,7.41724138 L34.7805995,8.23965517 C34.7805995,8.7362069 34.7175068,10.0862069 32.966682,10.0862069 Z M40.9952387,11.3431034 L40.9952387,7.72758621 C40.9952387,6.3 41.5473006,5.15172414 43.2034861,5.15172414 C43.4716305,5.15172414 43.8028676,5.18275862 44.0079191,5.22931034 L44.0079191,3.18103448 C43.8501872,3.13448276 43.6924552,3.10344828 43.5189501,3.10344828 C42.3990532,3.10344828 41.342249,3.80172414 40.9163727,4.81034483 L40.8848263,4.81034483 L40.8848263,3.32068966 L38.7554449,3.32068966 L38.7554449,11.3431034 L40.9952387,11.3431034 Z" id="Sugar" fill="#CC4141"></path>
                <path d="M52.5569913,11.3431034 L52.5569913,10.4431034 L46.2477129,10.4431034 L46.2477129,0.263793103 L45.1751356,0.263793103 L45.1751356,11.3431034 L52.5569913,11.3431034 Z M56.721115,11.5758621 C58.7874037,11.5758621 59.8442078,10.5206897 60.2700841,8.70517241 L59.2763727,8.70517241 C58.9609088,9.93103448 58.172249,10.7534483 56.721115,10.7534483 C54.8283315,10.7534483 54.0396717,9.03103448 54.0396717,7.60344828 L60.3016305,7.60344828 C60.3804965,5.35344828 59.3236923,3.10344828 56.721115,3.10344828 C54.1343109,3.10344828 53.0459604,5.22931034 53.0459604,7.33965517 C53.0459604,9.62068966 54.1343109,11.5758621 56.721115,11.5758621 Z M59.3079191,6.78103448 L54.0396717,6.78103448 C54.2131769,5.32241379 55.0807026,3.92586207 56.721115,3.92586207 C58.3142078,3.92586207 59.2605995,5.30689655 59.3079191,6.78103448 Z M63.9294655,11.5758621 C65.5067851,11.5758621 66.1850325,10.9862069 66.8948263,9.94655172 L66.9263727,9.94655172 C66.9263727,10.7689655 67.0841047,11.3431034 68.0935892,11.3431034 C68.3617336,11.3431034 68.5036923,11.3275862 68.7402903,11.2810345 L68.7402903,10.4586207 C68.6298779,10.5051724 68.5352387,10.5206897 68.4248263,10.5206897 C68.0304965,10.5206897 67.8412181,10.3189655 67.8412181,9.93103448 L67.8412181,5.67931034 C67.8412181,3.52241379 66.2796717,3.10344828 64.8443109,3.10344828 C62.9673006,3.10344828 61.6581253,3.91034483 61.5477129,5.78793103 L62.5414243,5.78793103 C62.5887439,4.48448276 63.4720428,3.92586207 64.7181253,3.92586207 C65.901115,3.92586207 66.8475068,4.25172414 66.8475068,5.57068966 C66.8475068,6.43965517 66.3900841,6.57931034 65.5698779,6.65689655 C63.4247233,6.90517241 61.2007026,6.99827586 61.2007026,9.23275862 C61.2007026,10.8465517 62.4152387,11.5758621 63.9294655,11.5758621 Z M64.0083315,10.7534483 C63.0619398,10.7534483 62.194414,10.1482759 62.194414,9.17068966 C62.194414,7.61896552 64.292249,7.61896552 65.979981,7.32413793 C66.2481253,7.27758621 66.6897748,7.2 66.8159604,6.96724138 L66.8475068,6.96724138 L66.8475068,8.23965517 C66.8475068,9.80689655 65.5383315,10.7534483 64.0083315,10.7534483 Z M70.8223521,11.3431034 L70.8223521,7.07586207 C70.8223521,5.4 72.0526614,4.12758621 73.8508057,4.20517241 L73.8508057,3.22758621 C72.3838985,3.16551724 71.2797748,3.91034483 70.7750325,5.2137931 L70.7434861,5.2137931 L70.7434861,3.3362069 L69.8286408,3.3362069 L69.8286408,11.3431034 L70.8223521,11.3431034 Z M75.7751356,11.3431034 L75.7751356,6.67241379 C75.8224552,5.10517241 76.7373006,3.92586207 78.3303934,3.92586207 C79.9392593,3.92586207 80.396682,4.98103448 80.396682,6.34655172 L80.396682,11.3431034 L81.3903934,11.3431034 L81.3903934,6.19137931 C81.3903934,4.28275862 80.6963727,3.10344828 78.4092593,3.10344828 C77.257816,3.10344828 76.1852387,3.75517241 75.806682,4.71724138 L75.7751356,4.71724138 L75.7751356,3.3362069 L74.7814243,3.3362069 L74.7814243,11.3431034 L75.7751356,11.3431034 Z M84.2768882,1.83103448 L84.2768882,0.263793103 L83.2831769,0.263793103 L83.2831769,1.83103448 L84.2768882,1.83103448 Z M84.2768882,11.3431034 L84.2768882,3.3362069 L83.2831769,3.3362069 L83.2831769,11.3431034 L84.2768882,11.3431034 Z M87.163383,11.3431034 L87.163383,6.67241379 C87.2107026,5.10517241 88.125548,3.92586207 89.7186408,3.92586207 C91.3275068,3.92586207 91.7849294,4.98103448 91.7849294,6.34655172 L91.7849294,11.3431034 L92.7786408,11.3431034 L92.7786408,6.19137931 C92.7786408,4.28275862 92.0846202,3.10344828 89.7975068,3.10344828 C88.6460635,3.10344828 87.5734861,3.75517241 87.1949294,4.71724138 L87.163383,4.71724138 L87.163383,3.3362069 L86.1696717,3.3362069 L86.1696717,11.3431034 L87.163383,11.3431034 Z M97.9207026,14.5396552 C100.554826,14.5396552 101.532764,13.0965517 101.532764,10.6913793 L101.532764,3.3362069 L100.539053,3.3362069 L100.539053,4.71724138 L100.507507,4.71724138 C100.113177,3.83275862 99.1194655,3.10344828 97.9207026,3.10344828 C95.5704965,3.10344828 94.245548,4.93448276 94.245548,7.13793103 C94.245548,9.43448276 95.3181253,11.25 97.9207026,11.25 C99.1036923,11.25 100.050084,10.5982759 100.507507,9.60517241 L100.539053,9.60517241 L100.539053,10.6913793 C100.539053,12.662069 99.7661666,13.7172414 97.9207026,13.7172414 C96.8323521,13.7172414 95.7440016,13.2982759 95.5389501,12.1189655 L94.5452387,12.1189655 C94.6714243,13.8103448 96.2960635,14.5396552 97.9207026,14.5396552 Z M97.9207026,10.4275862 C96.0752387,10.4275862 95.2392593,8.86034483 95.2392593,7.24655172 C95.2392593,5.5862069 96.0279191,3.92586207 97.9207026,3.92586207 C99.8134861,3.92586207 100.539053,5.67931034 100.539053,7.24655172 C100.539053,8.86034483 99.639981,10.4275862 97.9207026,10.4275862 Z" id="Learning" fill="#333333"></path>
            </g>
        </g>
    </g>
</svg>