<?xml version="1.0" encoding="UTF-8"?>
<svg width="180px" height="108px" viewBox="0 0 180 108" version="1.1" xmlns="http://www.w3.org/2000/svg" xmlns:xlink="http://www.w3.org/1999/xlink">
    <title>SugarLearning</title>
    <g id="SugarLearning" stroke="none" stroke-width="1" fill="none" fill-rule="evenodd">
        <g id="Group-16" transform="translate(12.000000, 19.000000)" fill-rule="nonzero">
            <g id="logo" transform="translate(29.000000, 0.000000)">
                <g id="Group">
                    <g fill="#333333">
                        <polygon id="Path" points="21 30.4 0.8 21.1 0.8 19 21 9.7 21 11.9 3.3 20.1 21 28.3"></polygon>
                        <path d="M49.8,16 C49.7,16 49.7,16 49.6,16 C49.5,16 49.5,16 49.4,16 L26.7,8.9 C26.4,8.8 26.3,8.6 26.3,8.3 C26.3,8 26.5,7.8 26.7,7.7 L49.3,0.6 C49.4,0.6 49.4,0.6 49.5,0.6 C49.6,0.6 49.6,0.6 49.7,0.6 L72.3,7.7 C72.6,7.8 72.7,8 72.7,8.3 C72.7,8.6 72.5,8.8 72.3,8.9 L49.8,16 Z M37,14.8 L48.6,18.5 C48.9,18.6 49.2,18.6 49.6,18.6 C49.9,18.6 50.2,18.6 50.6,18.5 L62.2,14.8 L62.6,21.2 C62.8,24.1 56.8,26.4 49.7,26.4 C42.6,26.4 36.6,24.1 36.8,21.2 L37,14.8 Z" id="Shape"></path>
                        <polygon id="Path" points="96.1 20.1 78.3 11.9 78.3 9.7 98.5 19 98.5 21.2 78.3 30.5 78.3 28.3"></polygon>
                    </g>
                    <polygon id="Path" fill="#CC4141" points="63 11.9 48 6.9 50.4 6.2 65.7 11"></polygon>
                    <path d="M65.5,10.9 C66.8,12.7 67.4,15.2 67.5,17.6 C68.3,18 68.8,18.9 68.8,19.8 C68.8,20.7 68.3,21.5 67.6,22 L68.8,30.8 C68.8,31 68.8,31.2 68.6,31.3 C68.5,31.4 68.3,31.5 68.1,31.5 L64.2,31.5 C64,31.5 63.8,31.4 63.7,31.3 C63.6,31.2 63.5,31 63.5,30.8 L64.7,22 C64,21.5 63.5,20.7 63.5,19.8 C63.5,18.9 64,18 64.8,17.6 C64.6,14.9 63.8,12.6 62.7,11.7 L65.5,10.9 Z" id="Path" fill="#CC4141"></path>
                    <path d="M50.5,8.8 L50.5,8.8 C49.5,8.8 48.5,8.4 48.1,7.7 L48.1,7.7 C47.5,6.6 48.5,5.3 50.5,5.3 L50.5,5.3 C52.5,5.3 53.5,6.6 52.9,7.7 L52.9,7.7 C52.5,8.4 51.5,8.8 50.5,8.8 Z" id="Path" fill="#CC4141"></path>
                </g>
            </g>
            <g id="SugarLearning" transform="translate(0.574931, 46.456000)">
                <path d="M7.29706911,17.952 C11.9770691,17.952 14.4250691,15.6 14.4250691,12.456 C14.4250691,8.592 10.6090691,7.752 9.33706911,7.464 C5.04106911,6.384 4.22506911,6.192 4.22506911,4.872 C4.22506911,3.432 5.61706911,2.928 6.81706911,2.928 C8.64106911,2.928 10.0810691,3.48 10.2010691,5.52 L13.8490691,5.52 C13.8490691,1.56 10.5610691,-3.55271368e-14 6.98506911,-3.55271368e-14 C3.88906911,-3.55271368e-14 0.577069111,1.656 0.577069111,5.184 C0.577069111,8.352 3.14506911,9.432 5.68906911,10.056 C8.18506911,10.752 10.7770691,11.016 10.7770691,12.888 C10.7770691,14.64 8.76106911,15.024 7.44106911,15.024 C5.42506911,15.024 3.64906911,14.136 3.64906911,11.856 L0.00106911096,11.856 C-0.070930889,16.08 3.50506911,17.952 7.29706911,17.952 Z M20.8330691,17.88 C22.2730691,17.88 23.7610691,17.232 24.6250691,15.816 L24.6970691,15.816 L24.6970691,17.544 L27.9370691,17.544 L27.9370691,5.136 L24.5290691,5.136 L24.5290691,11.64 C24.5290691,14.16 23.7370691,15.192 21.8890691,15.192 C20.2810691,15.192 19.7050691,14.184 19.7050691,12.144 L19.7050691,5.136 L16.2970691,5.136 L16.2970691,12.768 C16.2970691,15.84 17.2090691,17.88 20.8330691,17.88 Z M36.0250691,22.248 C41.7130691,22.248 42.4570691,18.792 42.4570691,16.752 L42.4570691,5.136 L39.2170691,5.136 L39.2170691,6.792 L39.1690691,6.792 C38.3290691,5.352 37.1050691,4.8 35.4730691,4.8 C32.0170691,4.8 30.1450691,7.728 30.1450691,10.944 C30.1450691,14.352 31.7050691,17.184 35.4490691,17.184 C36.9610691,17.184 38.4250691,16.584 39.1690691,15.264 L39.2170691,15.264 L39.2170691,16.896 C39.2410691,18.696 38.3770691,19.968 36.4810691,19.968 C35.2570691,19.968 34.2490691,19.536 33.9370691,18.264 L30.5530691,18.264 C30.7450691,21.072 33.5770691,22.248 36.0250691,22.248 Z M36.3130691,14.616 C34.2010691,14.616 33.5530691,12.672 33.5530691,10.896 C33.5530691,9.048 34.3930691,7.368 36.3130691,7.368 C38.5210691,7.368 39.2170691,9.168 39.2170691,11.184 C39.2170691,12.96 38.2570691,14.616 36.3130691,14.616 Z M48.8890691,17.88 C50.4250691,17.88 51.9850691,17.472 53.0650691,16.344 C53.0890691,16.752 53.1850691,17.16 53.3050691,17.544 L56.7610691,17.544 C56.4490691,17.04 56.3290691,15.912 56.3290691,14.784 L56.3290691,8.328 C56.3290691,5.352 53.3530691,4.8 50.8810691,4.8 C48.0970691,4.8 45.2410691,5.784 45.0490691,8.952 L48.4570691,8.952 C48.5770691,7.608 49.3930691,7.08 50.7130691,7.08 C51.9130691,7.08 52.9210691,7.32 52.9210691,8.76 C53.0650691,11.544 44.7130691,8.52 44.6650691,14.16 C44.6650691,16.704 46.5130691,17.88 48.8890691,17.88 Z M50.1610691,15.6 C49.0570691,15.6 48.0730691,15.264 48.0730691,14.016 C48.0730691,12.768 49.0330691,12.384 50.0890691,12.192 C51.1450691,12 52.3450691,11.976 52.9210691,11.472 L52.9210691,12.744 C52.9210691,13.512 52.8250691,15.6 50.1610691,15.6 Z M62.3770691,17.544 L62.3770691,11.952 C62.3770691,9.744 63.2170691,7.968 65.7370691,7.968 C66.1450691,7.968 66.6490691,8.016 66.9610691,8.088 L66.9610691,4.92 C66.7210691,4.848 66.4810691,4.8 66.2170691,4.8 C64.5130691,4.8 62.9050691,5.88 62.2570691,7.44 L62.2090691,7.44 L62.2090691,5.136 L58.9690691,5.136 L58.9690691,17.544 L62.3770691,17.544 Z" id="Sugar" fill="#CC4141"></path>
                <path d="M79.9690691,17.544 L79.9690691,16.152 L70.3690691,16.152 L70.3690691,0.408 L68.7370691,0.408 L68.7370691,17.544 L79.9690691,17.544 Z M86.3050691,17.904 C89.4490691,17.904 91.0570691,16.272 91.7050691,13.464 L90.1930691,13.464 C89.7130691,15.36 88.5130691,16.632 86.3050691,16.632 C83.4250691,16.632 82.2250691,13.968 82.2250691,11.76 L91.7530691,11.76 C91.8730691,8.28 90.2650691,4.8 86.3050691,4.8 C82.3690691,4.8 80.7130691,8.088 80.7130691,11.352 C80.7130691,14.88 82.3690691,17.904 86.3050691,17.904 Z M90.2410691,10.488 L82.2250691,10.488 C82.4890691,8.232 83.8090691,6.072 86.3050691,6.072 C88.7290691,6.072 90.1690691,8.208 90.2410691,10.488 Z M97.2730691,17.904 C99.6730691,17.904 100.705069,16.992 101.785069,15.384 L101.833069,15.384 C101.833069,16.656 102.073069,17.544 103.609069,17.544 C104.017069,17.544 104.233069,17.52 104.593069,17.448 L104.593069,16.176 C104.425069,16.248 104.281069,16.272 104.113069,16.272 C103.513069,16.272 103.225069,15.96 103.225069,15.36 L103.225069,8.784 C103.225069,5.448 100.849069,4.8 98.6650691,4.8 C95.8090691,4.8 93.8170691,6.048 93.6490691,8.952 L95.1610691,8.952 C95.2330691,6.936 96.5770691,6.072 98.4730691,6.072 C100.273069,6.072 101.713069,6.576 101.713069,8.616 C101.713069,9.96 101.017069,10.176 99.7690691,10.296 C96.5050691,10.68 93.1210691,10.824 93.1210691,14.28 C93.1210691,16.776 94.9690691,17.904 97.2730691,17.904 Z M97.3930691,16.632 C95.9530691,16.632 94.6330691,15.696 94.6330691,14.184 C94.6330691,11.784 97.8250691,11.784 100.393069,11.328 C100.801069,11.256 101.473069,11.136 101.665069,10.776 L101.713069,10.776 L101.713069,12.744 C101.713069,15.168 99.7210691,16.632 97.3930691,16.632 Z M107.761069,17.544 L107.761069,10.944 C107.761069,8.352 109.633069,6.384 112.369069,6.504 L112.369069,4.992 C110.137069,4.896 108.457069,6.048 107.689069,8.064 L107.641069,8.064 L107.641069,5.16 L106.249069,5.16 L106.249069,17.544 L107.761069,17.544 Z M115.297069,17.544 L115.297069,10.32 C115.369069,7.896 116.761069,6.072 119.185069,6.072 C121.633069,6.072 122.329069,7.704 122.329069,9.816 L122.329069,17.544 L123.841069,17.544 L123.841069,9.576 C123.841069,6.624 122.785069,4.8 119.305069,4.8 C117.553069,4.8 115.921069,5.808 115.345069,7.296 L115.297069,7.296 L115.297069,5.16 L113.785069,5.16 L113.785069,17.544 L115.297069,17.544 Z M128.233069,2.832 L128.233069,0.408 L126.721069,0.408 L126.721069,2.832 L128.233069,2.832 Z M128.233069,17.544 L128.233069,5.16 L126.721069,5.16 L126.721069,17.544 L128.233069,17.544 Z M132.625069,17.544 L132.625069,10.32 C132.697069,7.896 134.089069,6.072 136.513069,6.072 C138.961069,6.072 139.657069,7.704 139.657069,9.816 L139.657069,17.544 L141.169069,17.544 L141.169069,9.576 C141.169069,6.624 140.113069,4.8 136.633069,4.8 C134.881069,4.8 133.249069,5.808 132.673069,7.296 L132.625069,7.296 L132.625069,5.16 L131.113069,5.16 L131.113069,17.544 L132.625069,17.544 Z M148.993069,22.488 C153.001069,22.488 154.489069,20.256 154.489069,16.536 L154.489069,5.16 L152.977069,5.16 L152.977069,7.296 L152.929069,7.296 C152.329069,5.928 150.817069,4.8 148.993069,4.8 C145.417069,4.8 143.401069,7.632 143.401069,11.04 C143.401069,14.592 145.033069,17.4 148.993069,17.4 C150.793069,17.4 152.233069,16.392 152.929069,14.856 L152.977069,14.856 L152.977069,16.536 C152.977069,19.584 151.801069,21.216 148.993069,21.216 C147.337069,21.216 145.681069,20.568 145.369069,18.744 L143.857069,18.744 C144.049069,21.36 146.521069,22.488 148.993069,22.488 Z M148.993069,16.128 C146.185069,16.128 144.913069,13.704 144.913069,11.208 C144.913069,8.64 146.113069,6.072 148.993069,6.072 C151.873069,6.072 152.977069,8.784 152.977069,11.208 C152.977069,13.704 151.609069,16.128 148.993069,16.128 Z" id="Learning" fill="#333333"></path>
            </g>
        </g>
    </g>
</svg>