<?xml version="1.0" encoding="UTF-8"?>
<svg width="180px" height="108px" viewBox="0 0 180 108" version="1.1" xmlns="http://www.w3.org/2000/svg" xmlns:xlink="http://www.w3.org/1999/xlink">
    <title>TimePro</title>
    <g id="TimePro" stroke="none" stroke-width="1" fill="none" fill-rule="evenodd">
        <g id="Group-18" transform="translate(40.000000, 21.000000)">
            <g id="TimePro" transform="translate(3.612000, 47.864000)" fill-rule="nonzero">
                <path d="M8.904,17.136 L8.904,3.168 L14.04,3.168 L14.04,-7.10542736e-15 L2.84217094e-14,-7.10542736e-15 L2.84217094e-14,3.168 L5.136,3.168 L5.136,17.136 L8.904,17.136 Z M19.152,2.808 L19.152,-7.10542736e-15 L15.744,-7.10542736e-15 L15.744,2.808 L19.152,2.808 Z M19.152,17.136 L19.152,4.728 L15.744,4.728 L15.744,17.136 L19.152,17.136 Z M25.344,17.136 L25.344,9.936 C25.344,7.512 26.976,7.08 27.648,7.08 C29.808,7.08 29.712,8.736 29.712,10.176 L29.712,17.136 L33.12,17.136 L33.12,10.224 C33.12,8.688 33.48,7.08 35.4,7.08 C37.2792,7.08 37.4764,8.35832 37.4874587,9.9394 L37.488,17.136 L40.896,17.136 L40.896,8.832 C40.896,5.616 39,4.392 36.36,4.392 C34.632,4.392 33.36,5.376 32.616,6.456 C31.944,4.944 30.552,4.392 28.992,4.392 C27.36,4.392 26.088,5.136 25.2,6.408 L25.152,6.408 L25.152,4.728 L21.936,4.728 L21.936,17.136 L25.344,17.136 Z M49.32,17.472 C52.128,17.472 54.168,16.248 55.128,13.296 L52.128,13.296 C51.912,14.064 50.808,14.904 49.44,14.904 C47.52,14.904 46.488,13.944 46.392,11.76 L55.344,11.76 C55.608,7.944 53.544,4.392 49.32,4.392 C45.552,4.392 42.984,7.224 42.984,10.944 C42.984,14.784 45.408,17.472 49.32,17.472 Z M51.936,9.6 L46.392,9.6 C46.464,8.64 47.016,6.96 49.224,6.96 C50.88,6.96 51.624,7.872 51.936,9.6 Z" id="Time" fill="#CC4141"></path>
                <path d="M59.424,17.136 L59.424,9.792 L65.4,9.792 C68.472,9.792 70.488,7.992 70.488,4.896 C70.488,1.8 68.472,-7.10542736e-15 65.4,-7.10542736e-15 L57.792,-7.10542736e-15 L57.792,17.136 L59.424,17.136 Z M65.04,8.4 L59.424,8.4 L59.424,1.392 L65.04,1.392 C67.32,1.392 68.856,2.52 68.856,4.896 C68.856,7.272 67.32,8.4 65.04,8.4 Z M74.136,17.136 L74.136,10.536 C74.136,7.944 76.008,5.976 78.744,6.096 L78.744,4.584 C76.512,4.488 74.832,5.64 74.064,7.656 L74.016,7.656 L74.016,4.752 L72.624,4.752 L72.624,17.136 L74.136,17.136 Z M85.416,17.496 C89.184,17.496 91.272,14.496 91.272,10.944 C91.272,7.392 89.184,4.392 85.416,4.392 C81.648,4.392 79.56,7.392 79.56,10.944 C79.56,14.496 81.648,17.496 85.416,17.496 Z M85.416,16.224 C82.536,16.224 81.072,13.56 81.072,10.944 C81.072,8.328 82.536,5.664 85.416,5.664 C88.296,5.664 89.76,8.328 89.76,10.944 C89.76,13.56 88.296,16.224 85.416,16.224 Z" id="Pro" fill="#333333"></path>
            </g>
            <g id="timepro-logo">
                <g id="Group" transform="translate(29.000000, 0.000000)">
                    <g transform="translate(1.157895, 1.600000)" fill-rule="nonzero">
                        <g transform="translate(0.473684, 0.000000)">
                            <rect id="Rectangle" fill="#333333" x="5" y="17" width="3" height="3" rx="1.5"></rect>
                            <rect id="Rectangle" fill="#333333" x="29" y="17" width="3" height="3" rx="1.5"></rect>
                            <rect id="Rectangle" fill="#333333" x="17" y="29" width="3" height="3" rx="1.5"></rect>
                            <rect id="Rectangle" fill="#333333" x="17" y="5" width="3" height="3" rx="1.5"></rect>
                            <polygon id="Path" fill="#CC4141" points="36.8649413 3.68997345 34.2833623 1.10710678 18.1587384 17.2197062 12.6599752 11.7214395 10.0755278 14.3071729 18.1587384 22.3854395"></polygon>
                            <path d="M32.4590526,12.2607333 C33.3482632,14.1957333 33.8617105,16.34 33.8617105,18.6104 C33.8617105,27.0183333 27.0406053,33.8381333 18.6217895,33.8381333 C10.2087105,33.8381333 3.38473684,27.0183333 3.38473684,18.6104 C3.38473684,10.1996 10.2087105,3.38266667 18.6217895,3.38266667 C21.3697368,3.38266667 23.9398421,4.1194 26.16,5.38933333 L28.6239737,2.92686667 C25.7326053,1.08073333 22.3077105,0 18.6275263,0 C8.34136842,0 0,8.3334 0,18.6104 C0,28.8874 8.34136842,37.2208 18.6275263,37.2208 C28.9079474,37.2208 37.2464474,28.8902667 37.2464474,18.6104 C37.2464474,15.394 36.4289474,12.3696667 34.9918684,9.72946667 L32.4590526,12.2607333 Z" id="Path" fill="#333333"></path>
                        </g>
                    </g>
                    <g transform="translate(0.421053, 0.866667)"></g>
                </g>
                <polygon id="Path" fill="#333333" fill-rule="nonzero" points="21 30.4 0.8 21.1 0.8 19 21 9.7 21 11.9 3.3 20.1 21 28.3"></polygon>
                <polygon id="Path" fill="#333333" fill-rule="nonzero" points="96.1 20.1 78.3 11.9 78.3 9.7 98.5 19 98.5 21.2 78.3 30.5 78.3 28.3"></polygon>
            </g>
        </g>
    </g>
</svg>