<?xml version="1.0" encoding="UTF-8"?>
<svg width="180px" height="108px" viewBox="0 0 180 108" version="1.1" xmlns="http://www.w3.org/2000/svg" xmlns:xlink="http://www.w3.org/1999/xlink">
    <title>TimePro_horizontal_BW</title>
    <g id="TimePro_horizontal_BW" stroke="none" stroke-width="1" fill="none" fill-rule="evenodd">
        <g id="Group-30" transform="translate(31.000000, 43.000000)">
            <g id="timepro-logo">
                <g id="Group" transform="translate(15.232323, 0.000000)">
                    <g transform="translate(0.608187, 0.840000)" fill="#000000" fill-rule="nonzero">
                        <g transform="translate(0.248804, 0.000000)">
                            <rect id="Rectangle" x="2.62626263" y="8.925" width="1.57575758" height="1.575" rx="0.7875"></rect>
                            <rect id="Rectangle" x="15.2323232" y="8.925" width="1.57575758" height="1.575" rx="0.7875"></rect>
                            <rect id="Rectangle" x="8.92929293" y="15.225" width="1.57575758" height="1.575" rx="0.7875"></rect>
                            <rect id="Rectangle" x="8.92929293" y="2.625" width="1.57575758" height="1.575" rx="0.7875"></rect>
                            <polygon id="Path" points="19.3634035 1.93723606 18.0074226 0.58123106 9.53792318 9.04034576 6.64968394 6.15375576 5.29219644 7.51126576 9.53792318 11.7523558"></polygon>
                            <path d="M17.0491994,6.436885 C17.5162594,7.45276 17.785949,8.5785 17.785949,9.77046 C17.785949,14.184625 14.2031462,17.76502 9.78114195,17.76502 C5.36215098,17.76502 1.77784157,14.184625 1.77784157,9.77046 C1.77784157,5.35479 5.36215098,1.7759 9.78114195,1.7759 C11.2245082,1.7759 12.5744625,2.162685 13.7406061,2.8294 L15.0348145,1.536605 C13.5161159,0.567385 11.7171813,0 9.78415524,0 C4.38132483,0 0,4.375035 0,9.77046 C0,15.165885 4.38132483,19.54092 9.78415524,19.54092 C15.1839724,19.54092 19.5637905,15.16739 19.5637905,9.77046 C19.5637905,8.08185 19.1343966,6.494075 18.3795673,5.10797 L17.0491994,6.436885 Z" id="Path"></path>
                        </g>
                    </g>
                    <g transform="translate(0.221159, 0.455000)"></g>
                </g>
                <polygon id="Path" fill="#000000" fill-rule="nonzero" points="11.030303 15.96 0.42020202 11.0775 0.42020202 9.975 11.030303 5.0925 11.030303 6.2475 1.73333333 10.5525 11.030303 14.8575"></polygon>
                <polygon id="Path" fill="#000000" fill-rule="nonzero" points="50.4767677 10.5525 41.1272727 6.2475 41.1272727 5.0925 51.7373737 9.975 51.7373737 11.13 41.1272727 16.0125 41.1272727 14.8575"></polygon>
            </g>
            <g id="TimePro" transform="translate(57.000000, 4.000000)" fill="#000000" fill-rule="nonzero">
                <path d="M5.90373913,11.6836364 L5.90373913,2.16 L9.30913043,2.16 L9.30913043,9.68921912e-16 L1.13068974e-14,9.68921912e-16 L1.13068974e-14,2.16 L3.4053913,2.16 L3.4053913,11.6836364 L5.90373913,11.6836364 Z M12.6986087,1.91454545 L12.6986087,9.68921912e-16 L10.4389565,9.68921912e-16 L10.4389565,1.91454545 L12.6986087,1.91454545 Z M12.6986087,11.6836364 L12.6986087,3.22363636 L10.4389565,3.22363636 L10.4389565,11.6836364 L12.6986087,11.6836364 Z M16.8041739,11.6836364 L16.8041739,6.77454545 C16.8041739,5.12181818 17.8862609,4.82727273 18.3318261,4.82727273 C19.764,4.82727273 19.7003478,5.95636364 19.7003478,6.93818182 L19.7003478,11.6836364 L21.96,11.6836364 L21.96,6.97090909 C21.96,5.92363636 22.1986957,4.82727273 23.4717391,4.82727273 C24.7606957,4.82727273 24.8561739,5.76 24.8561739,6.88909091 L24.8561739,11.6836364 L27.1158261,11.6836364 L27.1158261,6.02181818 C27.1158261,3.82909091 25.8586957,2.99454545 24.1082609,2.99454545 C22.9625217,2.99454545 22.1191304,3.66545455 21.6258261,4.40181818 C21.1802609,3.37090909 20.2573043,2.99454545 19.2229565,2.99454545 C18.1408696,2.99454545 17.2974783,3.50181818 16.7086957,4.36909091 L16.6768696,4.36909091 L16.6768696,3.22363636 L14.5445217,3.22363636 L14.5445217,11.6836364 L16.8041739,11.6836364 Z M32.7013043,11.9127273 C34.5631304,11.9127273 35.9157391,11.0781818 36.5522609,9.06545455 L34.5631304,9.06545455 C34.419913,9.58909091 33.687913,10.1618182 32.7808696,10.1618182 C31.5078261,10.1618182 30.8235652,9.50727273 30.759913,8.01818182 L36.6954783,8.01818182 C36.8705217,5.41636364 35.502,2.99454545 32.7013043,2.99454545 C30.2029565,2.99454545 28.5002609,4.92545455 28.5002609,7.46181818 C28.5002609,10.08 30.1074783,11.9127273 32.7013043,11.9127273 Z M34.4358261,6.54545455 L30.759913,6.54545455 C30.8076522,5.89090909 31.1736522,4.74545455 32.6376522,4.74545455 C33.7356522,4.74545455 34.2289565,5.36727273 34.4358261,6.54545455 Z" id="Time"></path>
                <path d="M39.4006957,11.6836364 L39.4006957,6.67636364 L43.3630435,6.67636364 C45.399913,6.67636364 46.7366087,5.44909091 46.7366087,3.33818182 C46.7366087,1.22727273 45.399913,1.93784382e-15 43.3630435,1.93784382e-15 L38.3186087,1.93784382e-15 L38.3186087,11.6836364 L39.4006957,11.6836364 Z M43.1243478,5.72727273 L39.4006957,5.72727273 L39.4006957,0.949090909 L43.1243478,0.949090909 C44.636087,0.949090909 45.6545217,1.71818182 45.6545217,3.33818182 C45.6545217,4.95818182 44.636087,5.72727273 43.1243478,5.72727273 Z M49.1553913,11.6836364 L49.1553913,7.18363636 C49.1553913,5.41636364 50.3966087,4.07454545 52.2106957,4.15636364 L52.2106957,3.12545455 C50.7307826,3.06 49.6168696,3.84545455 49.1076522,5.22 L49.0758261,5.22 L49.0758261,3.24 L48.1528696,3.24 L48.1528696,11.6836364 L49.1553913,11.6836364 Z M56.6345217,11.9290909 C59.1328696,11.9290909 60.5173043,9.88363636 60.5173043,7.46181818 C60.5173043,5.04 59.1328696,2.99454545 56.6345217,2.99454545 C54.1361739,2.99454545 52.7517391,5.04 52.7517391,7.46181818 C52.7517391,9.88363636 54.1361739,11.9290909 56.6345217,11.9290909 Z M56.6345217,11.0618182 C54.7249565,11.0618182 53.7542609,9.24545455 53.7542609,7.46181818 C53.7542609,5.67818182 54.7249565,3.86181818 56.6345217,3.86181818 C58.544087,3.86181818 59.5147826,5.67818182 59.5147826,7.46181818 C59.5147826,9.24545455 58.544087,11.0618182 56.6345217,11.0618182 Z" id="Pro"></path>
            </g>
        </g>
    </g>
</svg>