<svg width="200" height="204" viewBox="0 0 200 204" fill="none" xmlns="http://www.w3.org/2000/svg">
<path d="M56.4018 98.3954C57.8989 98.2894 60.1528 98.3522 61.706 98.355L71.3148 98.3726L101.906 98.3433L148.004 98.4892L167.013 98.4992C169.233 98.5082 171.448 98.5325 173.668 98.476C174.858 98.4456 175.074 99.0722 176.554 99.0708C179.455 99.0792 182.363 99.0181 185.265 99.0653C186.172 99.0792 187.882 98.8154 188.558 99.3124L188.568 99.9775C188.152 100.577 186.118 100.19 185.429 100.268C183.995 100.43 175.961 99.9455 175.281 100.454L175.23 101.112C175.164 101.17 175.099 101.228 175.032 101.287C166.639 101.463 151.538 101.369 143.686 101.401C133.22 101.403 25.7253 101.694 24.8028 101.144C24.7778 100.827 24.7656 100.674 24.7014 100.366C22.7378 99.6734 12.5275 101.045 11.336 99.7831C11.3136 99.3846 11.2515 99.5609 11.4706 99.2319C12.7762 98.7029 22.657 99.336 24.6556 99.0375C24.7875 98.7848 24.7546 98.857 24.8378 98.6654L24.8876 98.5477C26.3938 98.373 30.458 98.4794 32.206 98.4782L48.0124 98.4881C50.2474 98.4869 54.0614 98.5927 56.2147 98.4119L56.4018 98.3954Z" fill="#FEFEFE"/>
<path d="M56.4931 104.922C58.9931 104.806 62.0123 104.901 64.5461 104.899L79.2635 104.885L122.938 104.898L156.976 105.01L168.907 105.008C170.805 105.006 172.724 104.997 174.644 104.997C175.921 104.997 174.311 105.673 176.173 105.7C180.203 105.762 184.309 105.65 188.345 105.731C188.41 105.788 188.474 105.846 188.539 105.903C188.546 106.41 188.635 106.531 188.416 106.896C185.394 107.157 182.028 106.835 178.976 106.946C177.965 106.983 176.91 106.849 175.899 106.924C175.508 106.954 175.373 107.24 175.166 107.532C174.38 107.773 170.438 107.708 169.318 107.714L152.413 107.732C150.154 107.728 145.848 107.486 143.8 107.89C113.851 108.069 83.9006 108.021 53.9523 107.744C47.0673 107.64 40.0894 107.8 33.1975 107.714C30.8426 107.68 28.4869 107.712 26.1328 107.729C25.4583 107.733 25.0369 107.601 24.6304 107.069C21.445 106.427 15.8898 107.369 12.5256 106.939C11.9185 106.861 11.6855 106.821 11.312 106.353L11.3834 106.014C12.1678 105.269 23.7125 106.07 24.7339 105.598L24.7962 105.234C25.2031 104.801 26.9932 105.002 27.6577 105.003C29.3919 105.006 31.1295 105.003 32.8629 105.005L48.7119 105.012C51.0373 105.012 54.2325 105.094 56.4931 104.922Z" fill="#FEFEFE"/>
<path d="M95.4441 91.7402L143.392 91.9135C144.604 91.9274 143.481 92.5018 145.107 92.5018C150.87 92.4568 156.633 92.4472 162.397 92.4729C164.154 92.4726 165.911 92.4565 167.667 92.4628C168.297 92.4651 168.858 92.4435 169.203 93.0148L169.053 93.319C168.285 93.8134 167.842 93.7011 166.959 93.6847C165.087 93.6503 163.21 93.66 161.337 93.6588L144.417 93.6601C143.828 94.0196 144.483 94.1984 143.945 94.792C131.107 95.0072 117.789 94.8533 104.915 94.8515C93.0656 94.856 69.2218 94.8706 56.1561 94.7918C56.0708 94.718 55.9856 94.6442 55.9005 94.5704L55.8605 93.8434C55.808 93.7911 55.7555 93.7387 55.703 93.6864C48.8188 93.6029 41.9264 93.6692 35.041 93.6524C34.1016 93.65 31.8007 93.8681 31.1206 93.4555C30.8098 93.0029 30.8659 93.2394 30.8839 92.7396C31.9792 91.9785 52.7414 92.9066 55.7486 92.4279L55.9247 92.0619C56.3328 91.8648 91.4462 91.7559 95.4441 91.7402Z" fill="#FEFEFE"/>
<path d="M55.9153 111.395L113.173 111.382L133.071 111.395C134.251 111.393 143.589 111.28 144.103 111.543L144.153 112.076C144.206 112.151 144.259 112.225 144.31 112.299C149.686 112.381 157.261 112.294 162.383 112.336C165.161 112.36 167.826 112.153 168.977 112.425C169.154 112.829 169.096 112.878 169.084 113.347C168.37 113.868 147.277 113.139 144.271 113.55C144.156 113.822 144.116 113.911 143.961 114.162L71.5775 114.197C69.6951 114.18 56.8089 114.381 55.9569 114.07C55.9261 113.983 55.7916 113.533 55.7023 113.532C49.4104 113.444 41.5443 113.544 35.4304 113.494C31.7656 113.465 31.8701 113.69 31.0221 113.42C30.8366 113.114 30.9027 112.941 30.9339 112.572C31.4537 112.118 36.4111 112.321 37.4418 112.321L49.9555 112.343C51.6373 112.351 54.0579 112.437 55.6934 112.307C55.9583 112.046 55.8742 111.885 55.9153 111.395Z" fill="#FEFEFE"/>
<path d="M85.3878 85.0663C86.27 84.962 88.0866 85.0054 89.0404 85.0066L95.4816 85.014C105.008 84.9477 114.534 85.0261 124.057 85.2489C124.233 85.2528 125.396 85.2828 125.398 85.2855C125.92 85.7919 125.701 85.7115 126.628 85.7144C133.344 85.7361 140.067 85.681 146.781 85.7233C148.633 85.7351 150.49 85.629 152.321 85.6785C152.739 85.6897 153.085 85.8426 153.347 86.1791C153.412 86.6727 153.483 86.4788 153.268 86.8228C151.452 87.0766 147.01 86.8965 144.929 86.9197C138.59 86.9905 132.14 86.8135 125.806 86.9536C125.262 87.4302 125.87 87.4741 125.382 88.0209C122.213 88.2743 117.812 88.035 114.427 88.1261C111.328 88.217 75.0567 88.219 74.5065 87.9864C74.4293 87.7 74.4212 87.6386 74.4122 87.351L74.4057 87.1046C73.6315 86.5193 47.2067 87.3024 46.6712 86.7226C46.638 86.2916 46.5902 86.2174 46.7841 85.832C47.1673 85.5993 50.1413 85.715 50.812 85.715C58.023 85.7147 65.2392 85.7239 72.4504 85.7118C72.6363 85.7115 74.2749 85.6989 74.2989 85.6554C74.7213 84.8853 76.1033 85.3623 76.8486 85.23C79.595 85.1367 82.6486 85.4329 85.3878 85.0663Z" fill="#FEFEFE"/>
<path d="M74.4909 118.051L111.682 118.067C115.814 118.07 119.974 118.103 124.094 118.019C125.2 117.997 125.4 118.284 125.863 118.971C125.873 118.986 127.135 119.038 127.336 119.039L145.843 119.049C147.181 119.049 152.456 118.931 153.34 119.181C153.458 119.507 153.396 119.681 153.348 120.032C152.793 120.489 146.912 120.292 145.819 120.29L131.699 120.264C130.613 120.26 126.437 120.156 125.648 120.419L125.462 120.858C122.728 120.886 119.983 120.862 117.251 120.914C115.872 120.94 114.484 121.145 113.084 121.148C104.59 121.162 96.09 121.162 87.5963 121.152C86.6346 121.151 83.9167 120.982 82.9254 120.915C81.3465 120.807 75.5108 121.08 74.5306 120.785C74.4679 120.598 74.4194 120.404 74.2407 120.286C73.6973 119.931 47.8638 120.771 46.6626 120.065C46.628 119.581 46.6022 119.604 46.8347 119.185C47.6052 118.71 70.6099 119.243 74.2107 119.013C74.5226 118.695 74.4266 118.614 74.4909 118.051Z" fill="#FEFEFE"/>
<path d="M85.1515 124.789C92.6248 124.927 106.785 124.674 114.99 124.853C115.061 124.907 115.132 124.961 115.203 125.016L115.26 125.603C115.33 125.657 115.4 125.71 115.471 125.764C121.944 125.79 128.911 125.753 135.331 125.771C137.138 125.775 141.286 125.608 142.052 125.94C142.149 126.373 142.131 126.35 142.021 126.786C141.583 127.094 138.142 126.958 137.306 126.958L120.89 126.952C120.058 126.951 115.873 126.869 115.3 127.088C115.221 127.406 115.225 127.413 115.068 127.699C112.93 127.691 110.849 127.865 108.734 127.896C102.21 127.977 95.6848 127.951 89.1617 127.822C88.4625 127.801 85.5016 127.772 85.0688 127.617C85.0501 127.517 84.9949 126.988 84.8482 126.987C76.1402 126.907 67.4212 126.98 58.7137 126.966C58.4421 126.966 58.1754 126.851 57.9474 126.711C57.7746 126.294 57.7883 126.507 57.9423 126.053C58.4745 125.567 64.6492 125.761 65.7185 125.762L79.5036 125.776C80.8502 125.782 83.5067 125.89 84.8432 125.667C84.9835 125.643 85.0914 125.017 85.1515 124.789Z" fill="#FEFEFE"/>
<path d="M85.2354 78.3962C85.6482 78.2631 87.7791 78.3165 88.3091 78.315L95.717 78.3096C101.417 78.3083 107.128 78.3021 112.829 78.339C114.493 78.3497 115.7 78.8758 117.188 78.8995C121.712 78.9713 126.507 78.8773 130.996 78.9185C132.367 78.9312 141.604 78.7912 142.113 79.0686C142.141 79.501 142.191 79.6722 141.998 80.0616C141.309 80.2239 137.039 80.1549 136.122 80.1544L122.548 80.1415C120.661 80.137 117.187 80.0142 115.41 80.1777C115.121 80.4818 115.215 80.7203 115.179 81.2675L93.5909 81.2875C91.4445 81.285 87.6472 81.4582 85.4607 81.165C85.1473 81.1229 85.0024 80.6496 84.8799 80.3504C84.3411 79.9122 61.1846 80.2799 58.1416 80.0859C57.8519 79.7122 57.952 79.7583 57.9442 79.1618C58.7949 78.5013 81.6187 79.2791 84.8958 78.8551L85.2354 78.3962Z" fill="#FEFEFE"/>
<path d="M91.0734 131.589C97.6244 131.511 104.203 131.586 110.755 131.617C111.525 131.621 110.96 131.958 111.429 132.509C112.986 132.655 116.573 132.547 118.244 132.544L131.881 132.522C132.392 132.522 133.018 132.469 133.343 132.794C133.366 133.147 133.423 133.306 133.254 133.606C131.613 134.263 120.09 133.366 117.643 133.73C116.179 133.946 112.887 133.458 111.316 133.816C111.246 134.024 111.198 134.232 111.156 134.448C110.67 134.652 109.469 134.556 108.879 134.543C102.387 134.573 95.8855 134.575 89.3933 134.534C88.203 134.455 89.7384 133.734 87.9067 133.74C81.0872 133.758 74.2705 133.694 67.4525 133.774C67.1351 133.777 66.9477 133.622 66.7266 133.427C66.5542 132.941 66.5499 133.17 66.6789 132.719C67.6621 132.126 84.6035 132.786 86.9957 132.55C87.4756 132.502 88.3179 132.668 88.8443 132.451C88.8744 132.194 88.9052 131.971 88.948 131.717C89.4406 131.524 90.4962 131.587 91.0734 131.589Z" fill="#FEFEFE"/>
<path d="M89.118 71.4544C89.4868 71.3352 110.383 71.2586 111.128 71.4158C111.23 71.6929 111.275 71.9164 111.432 71.9205C116.411 72.0487 123.06 71.9156 127.874 71.9567C130.756 71.9813 132.01 71.7933 133.287 72.1146C133.361 72.3995 133.444 72.9909 133.022 73.0429C131.599 73.2178 130.077 73.1505 128.638 73.1471L117.452 73.1285C116.465 73.1266 111.763 72.9441 111.253 73.3451L111.184 74.1961C104.092 74.3918 96.9691 74.1282 89.8741 74.3051C88.4163 74.3414 89.213 73.7146 88.7226 73.1449C81.7626 73.0569 74.7592 73.1606 67.7974 73.182C67.2698 73.1835 66.4887 72.9064 66.6164 72.2484C67.6918 71.446 85.3059 72.3399 88.4199 71.9252C88.8521 71.8677 88.8596 71.7856 89.118 71.4544Z" fill="#FEFEFE"/>
<path d="M91.2667 138.34C93.0335 138.331 108.341 138.221 108.83 138.485C108.854 139.004 108.774 138.844 109.009 139.244C110.675 139.393 113.569 139.287 115.331 139.297C118.779 139.316 122.287 139.322 125.733 139.253C126.312 139.24 126.492 139.212 126.874 139.572C126.882 140.112 126.974 140.062 126.709 140.391C125.285 140.565 123.69 140.412 122.246 140.456C118.064 140.588 113.201 140.204 109.109 140.479C108.801 140.703 108.895 140.699 108.801 141.205C107.06 141.231 91.8197 141.355 91.3005 141.132C91.2654 140.933 91.2417 140.531 91.0876 140.506C88.9647 140.162 73.9913 140.784 73.1874 140.347C73.1659 139.916 73.1165 139.787 73.2955 139.398C74.0746 139.19 76.4947 139.273 77.4603 139.276L86.2033 139.309C87.5354 139.315 89.8326 139.396 91.0905 139.253C91.3148 138.985 91.2409 138.779 91.2667 138.34Z" fill="#FEFEFE"/>
<path d="M91.4751 64.3715C91.8889 64.2506 105.856 64.1185 107.05 64.3279C112.271 65.2434 117.273 64.8104 122.627 64.8942C123.422 64.9066 126.287 64.8004 126.788 64.9402C126.932 65.3527 126.878 65.308 126.821 65.7862C126.162 66.3619 111.378 65.8163 109.113 66.0752C108.787 66.3896 108.891 66.4952 108.833 67.0892C104.747 67.097 100.659 67.104 96.5732 67.1086C94.8647 67.1107 93.157 67.1207 91.449 67.0714C91.3815 67.0087 91.3139 66.9459 91.2464 66.8831L91.2248 66.2809C90.6931 65.546 74.2109 66.5269 73.1623 65.7789C73.1131 65.3459 73.0779 65.3496 73.2515 64.9613C73.8032 64.8154 76.1585 64.8788 76.8691 64.8804L86.0997 64.8958C87.6231 64.8974 89.267 64.9274 90.7871 64.8404C91.25 64.814 91.1891 64.7329 91.4751 64.3715Z" fill="#FEFEFE"/>
<path d="M93.094 145.263L102.406 145.258C103.662 145.255 105.248 145.159 106.484 145.292C107.006 145.349 107.167 145.721 107.397 146.089C110.317 146.393 114.591 145.989 117.638 146.141C118.784 146.199 119.878 146.032 121.055 146.259C121.2 146.593 121.115 146.717 121.069 147.139C120.162 147.847 108.557 146.917 107.275 147.526L107.128 148.034C105.637 148.041 93.7412 148.194 93.046 147.948L92.941 147.575C92.4679 147.101 83.1928 147.475 81.8391 147.36C81.1104 147.297 79.7984 147.554 79.0509 147.289C78.81 146.878 78.8916 146.972 78.9155 146.407C79.6042 145.794 90.4191 146.328 91.9496 146.195C92.9814 146.105 92.8594 146.4 93.094 145.263Z" fill="#FEFEFE"/>
<path d="M93.2836 57.1551C97.105 57.0944 103.293 56.9791 107.022 57.1941C107.078 57.3496 107.183 57.6608 107.338 57.6677C107.951 57.6951 108.895 57.7091 109.479 57.7106L117.118 57.7105C118.001 57.7084 120.53 57.5005 121.114 57.9261C121.13 58.2929 121.187 58.5049 120.983 58.802C118.856 59.1555 116.09 58.7555 113.888 58.8824C111.769 59.0043 109.479 58.6903 107.364 58.9331C107.042 59.1947 107.135 59.3269 107.054 59.8827C102.996 59.8967 97.4576 59.953 93.2588 59.8647C92.7761 59.8546 93.1685 58.9841 92.8281 58.933C91.0099 58.6599 79.52 59.2086 78.9071 58.6353C78.896 58.0995 78.8196 58.1698 79.0387 57.7579C80.1828 57.608 81.9389 57.6838 83.1285 57.693L89.53 57.7241C90.5097 57.7275 91.6225 57.7577 92.5963 57.686C93.0363 57.6537 92.9982 57.5339 93.2836 57.1551Z" fill="#FEFEFE"/>
<path d="M94.1915 152.139C95.5564 152.105 105.294 152.014 105.888 152.275C105.899 152.355 105.933 152.682 105.963 152.748C106.31 153.529 114.778 152.622 116.15 153.162C116.455 153.538 116.372 153.322 116.355 153.851C116.304 153.937 116.253 154.024 116.201 154.112C113.008 154.518 109.305 153.845 106.131 154.31C105.948 154.337 105.895 154.617 105.791 154.854C103.81 154.86 95.5698 155.118 94.2432 154.775L94.1241 154.366C93.5747 153.838 84.3671 154.598 83.7641 153.946C83.72 153.567 83.6565 153.445 83.8416 153.123C84.8426 152.895 85.9293 153.05 86.9541 153.025C89.1323 152.973 91.8096 153.179 93.9415 152.99C94.2213 152.743 94.1349 152.637 94.1915 152.139Z" fill="#FEFEFE"/>
<path d="M94.529 50.0726C95.1494 49.85 104.244 50.018 105.576 50.0468C105.791 50.2569 105.742 50.1823 105.879 50.3949C106.195 50.8868 114.884 50.2884 116.267 50.647C116.455 50.9594 116.371 51.1863 116.318 51.5577C115.817 51.8226 107.4 51.6129 106.042 51.7329C105.737 51.992 105.82 52.1177 105.736 52.6373C104.376 52.6409 94.8288 52.7666 94.3292 52.4959C94.3163 52.2857 94.3126 51.7584 94.1374 51.7282C92.5884 51.461 84.4494 52.0565 83.7849 51.4355C83.693 51.026 83.6831 51.0545 83.8389 50.6674C84.4268 50.3343 90.3597 50.7106 91.4574 50.584C92.4644 50.4677 93.7893 50.9323 94.529 50.0726Z" fill="#FEFEFE"/>
<path d="M95.2432 159.004C96.5567 159.003 104.155 158.848 104.905 159.102C104.922 159.192 105.036 159.768 105.079 159.779C106.117 160.051 112.053 159.619 112.612 160.029C112.822 160.515 112.786 160.264 112.689 160.815C112.607 160.883 112.523 160.951 112.441 161.02C110.167 161.015 107.865 160.936 105.594 161.026C105.083 161.047 105.055 161.184 104.819 161.472L104.757 161.71C102.707 161.745 100.658 161.763 98.6086 161.765C97.9116 161.767 96.5567 161.824 95.9117 161.766C94.7957 161.413 95.7282 161.068 94.3463 161.034C92.9869 161.001 91.6236 161.03 90.276 161.023C89.4336 161.019 87.7141 161.305 87.3828 160.504C87.43 160.35 87.5669 159.951 87.7439 159.911C88.9202 159.653 94.4468 160.115 95.1414 159.701L95.2432 159.004Z" fill="#FEFEFE"/>
<path d="M95.3807 42.8136C96.3391 42.718 104.162 42.7205 104.827 42.8881L105.009 43.2953C106.503 43.5589 111.211 43.1483 112.257 43.3932C112.587 43.7342 112.484 43.6032 112.49 44.2348C111.882 45.014 106.048 43.9932 104.976 44.6794L104.888 45.3482C102.529 45.3432 97.3797 45.5434 95.3342 45.2412C94.5693 43.8465 89.4866 44.6958 87.7216 44.4428C87.5329 44.0417 87.5917 44.0518 87.6216 43.5741C88.2734 43.0411 93.5695 43.5291 95.0334 43.2978L95.3807 42.8136Z" fill="#FEFEFE"/>
<path d="M96.0462 165.965C96.4039 165.886 102.972 165.918 103.819 165.968C104.652 166.018 103.907 166.651 104.89 166.738C106.218 166.856 108.122 166.494 109.356 166.83C109.645 166.908 109.773 167.274 109.856 167.502C108.969 168.72 104.973 166.845 104.058 168.565C103.285 168.736 96.9286 168.651 96.0323 168.557C95.7996 168.302 95.8275 168.318 95.7269 167.995C94.5108 167.417 91.2439 168.588 90.1875 167.356L90.2133 167.091C91.0532 166.209 94.4025 167.058 95.6222 166.626C95.8674 166.54 95.9079 166.268 96.0462 165.965Z" fill="#FEFEFE"/>
<path d="M96.1064 35.5977C97.7617 35.5881 102.852 35.4715 104.161 35.6624L104.309 35.9919C104.87 36.3612 108.164 35.9852 109.234 36.2044C109.441 36.7001 109.416 36.4544 109.34 36.9656C108.493 37.8135 105.566 36.8925 104.464 37.4512C104.276 37.5459 104.286 37.8607 104.236 38.1289C103.108 38.1114 96.3941 38.2495 95.8726 38.0248L95.8 37.5415C95.0508 36.8719 91.6347 37.7225 90.7374 37.1239C90.6852 36.6113 90.6441 36.8496 90.8683 36.383C91.8725 35.7291 93.9929 36.3769 95.2724 36.1531C95.9005 36.0431 95.7187 36.1185 96.1064 35.5977Z" fill="#FEFEFE"/>
<path d="M96.4798 173.082C98.581 173.072 100.858 172.984 102.96 173.082C104.286 173.141 103.117 173.706 104.164 173.802C105.348 173.909 106.434 173.436 107.329 174.158L107.359 174.512C106.723 175.123 104.75 174.841 103.94 175.063C103.67 175.138 103.736 175.198 103.542 175.565C102.655 175.715 98.7199 175.514 97.5522 175.578C97.2995 175.592 95.8243 175.03 95.2708 174.973C94.6513 174.909 93.4921 175.043 93.0537 174.835C92.9653 174.435 92.9858 174.445 93.0562 174.034C93.8858 173.255 95.0974 174.112 96.1948 173.698C96.4039 173.619 96.3809 173.413 96.4798 173.082Z" fill="#FEFEFE"/>
<path d="M96.8288 28.553C98.2103 28.2728 106.076 28.398 106.703 29.6927L106.538 30.0004C105.683 30.423 104.347 29.2854 103.553 30.8232C102.306 30.8387 98.2144 30.941 96.6658 30.7614C96.4266 30.7336 96.8066 30.23 96.128 30.1112C95.3737 29.979 93.8319 30.3378 93.3493 29.9358C93.2925 27.797 95.412 29.7537 96.8288 28.553Z" fill="#FEFEFE"/>
<path d="M97.1038 180.277C98.9031 180.27 103.932 180.071 105.27 181.357C105.341 181.765 105.37 181.572 105.145 181.951C104.33 182.409 103.85 181.571 102.932 182.468C101.606 182.672 95.5197 182.83 94.9189 181.374L95.0708 181.028C96.0836 180.428 96.4658 181.635 97.1038 180.277Z" fill="#FEFEFE"/>
<path d="M100.176 21.3453C101.316 21.3152 103.874 21.228 104.575 22.2056C104.258 23.54 101.259 23.5271 100.194 23.4968C98.9808 23.5347 96.0743 23.5281 95.3823 22.3117L95.4841 22.064C96.5126 21.2766 98.8864 21.3525 100.176 21.3453Z" fill="#FEFEFE"/>
<path d="M97.7823 187.666C98.9347 187.352 103.051 187.488 103.839 188.466C103.87 188.892 103.909 188.684 103.643 189.091C103.022 189.182 102.789 189.191 102.249 189.495C101.341 189.793 96.3744 189.882 96.353 188.331C96.8131 187.744 96.9353 188.406 97.7823 187.666Z" fill="#FEFEFE"/>
<path d="M97.8657 14.2588C99.0209 14.0182 102.628 13.9684 103.343 14.9722C103.26 16.1499 103.121 15.136 102.231 16.0239C101.489 16.4316 97.4992 16.2994 96.8424 15.3069C96.8202 14.7913 96.7602 15.0262 97.0382 14.5801C97.2853 14.5011 97.4089 14.4558 97.6533 14.3516L97.8657 14.2588Z" fill="#FEFEFE"/>
<path d="M99.3471 194.898C100.295 194.864 102.74 194.776 102.817 196.095C102.457 196.42 101.619 196.571 101.131 196.624C99.9358 196.666 98.1212 196.813 97.2798 195.767L97.4172 195.406C97.9004 195.098 98.7737 194.947 99.3471 194.898Z" fill="#FEFEFE"/>
<path d="M0 102.357C1.28498 102.35 3.98893 102.26 5.13701 102.425C5.37332 102.743 5.30501 103.123 5.30279 103.544C4.07529 103.562 1.29345 103.686 0.198547 103.537C-0.0671963 103.107 0.0248527 102.948 0 102.357Z" fill="#FEFEFE"/>
<path d="M194.73 102.375C195.961 102.354 198.789 102.25 199.84 102.41C200.058 102.801 199.987 103.082 199.995 103.579C198.761 103.577 196.031 103.672 194.944 103.511C194.683 103.165 194.74 102.826 194.73 102.375Z" fill="#FEFEFE"/>
<path d="M99.1486 7.03598C100.133 7.00987 101.517 6.80231 102.199 7.57302C102.305 8.06382 102.361 7.86778 102.181 8.22502C101.801 8.41621 101.551 8.56602 101.131 8.66418C100.087 8.68986 98.8862 8.86397 98.074 8.24862C97.8352 7.77434 97.8824 8.01676 97.9157 7.49693C98.2059 7.16149 98.6821 7.13705 99.1486 7.03598Z" fill="#FEFEFE"/>
<path d="M98.6626 0.0819591C99.5623 0.0816814 100.477 -0.147548 101.238 0.16193C101.588 0.577623 101.464 0.55319 101.476 1.26059C100.655 1.28586 99.622 1.44053 98.932 1.16951C98.571 0.739515 98.6918 0.795745 98.6626 0.0819591Z" fill="#FEFEFE"/>
<path d="M98.6489 202.311C99.5611 202.311 100.457 202.092 101.254 202.41C101.603 202.793 101.484 202.765 101.516 203.443C100.609 203.44 99.7263 203.655 98.9308 203.355C98.5656 202.972 98.6878 203.008 98.6489 202.311Z" fill="#FEFEFE"/>
<g opacity="0.5">
<path d="M60.035 98.6754C61.4074 98.5783 63.4734 98.6358 64.8972 98.6384L73.7052 98.6545L101.747 98.6277L144.003 98.7614L161.428 98.7706C163.463 98.7789 165.493 98.8011 167.528 98.7493C168.619 98.7215 168.817 99.2958 170.174 99.2946C172.833 99.3022 175.499 99.2462 178.159 99.2895C178.99 99.3022 180.558 99.0604 181.178 99.516L181.187 100.126C180.805 100.675 178.94 100.32 178.309 100.392C176.994 100.541 169.631 100.096 169.007 100.562L168.96 101.165C168.9 101.219 168.84 101.272 168.779 101.326C161.086 101.487 147.242 101.401 140.045 101.43C130.451 101.433 31.9151 101.699 31.0695 101.195C31.0466 100.905 31.0354 100.765 30.9766 100.482C29.1766 99.8469 19.8172 101.104 18.725 99.9475C18.7045 99.5822 18.6476 99.7438 18.8484 99.4422C20.0451 98.9573 29.1025 99.5377 30.9346 99.264C31.0555 99.0324 31.0253 99.0986 31.1015 98.9229L31.1472 98.815C32.5279 98.6549 36.2533 98.7524 37.8557 98.7514L52.3448 98.7604C54.3935 98.7593 57.8896 98.8563 59.8635 98.6905L60.035 98.6754Z" fill="#FEFEFE"/>
<path d="M60.1188 104.658C62.4105 104.552 65.1781 104.639 67.5007 104.638L80.9915 104.625L121.026 104.636L152.228 104.739L163.164 104.737C164.904 104.736 166.663 104.727 168.423 104.727C169.594 104.727 168.118 105.347 169.824 105.372C173.519 105.428 177.282 105.326 180.982 105.4C181.042 105.452 181.1 105.506 181.16 105.558C181.167 106.022 181.248 106.133 181.047 106.468C178.278 106.707 175.191 106.412 172.394 106.514C171.467 106.548 170.5 106.425 169.574 106.493C169.215 106.521 169.091 106.783 168.902 107.051C168.181 107.272 164.568 107.212 163.541 107.217L148.044 107.234C145.974 107.23 142.027 107.009 140.15 107.379C112.696 107.543 85.2422 107.499 57.7898 107.245C51.4785 107.15 45.0822 107.296 38.7647 107.217C36.6061 107.187 34.4467 107.216 32.2888 107.231C31.6705 107.235 31.2842 107.114 30.9116 106.627C27.9916 106.038 22.8994 106.902 19.8156 106.507C19.259 106.436 19.0455 106.399 18.7031 105.97L18.7685 105.66C19.4876 104.976 30.0702 105.711 31.0064 105.278L31.0635 104.944C31.4366 104.547 33.0775 104.732 33.6866 104.733C35.2762 104.736 36.869 104.733 38.458 104.734L52.9861 104.741C55.1177 104.741 58.0466 104.816 60.1188 104.658Z" fill="#FEFEFE"/>
<path d="M95.8236 92.5752L139.775 92.734C140.887 92.7468 139.857 93.2733 141.347 93.2733C146.63 93.232 151.913 93.2233 157.196 93.2468C158.808 93.2465 160.418 93.2318 162.028 93.2375C162.605 93.2397 163.12 93.2198 163.435 93.7435L163.298 94.0224C162.594 94.4756 162.188 94.3726 161.378 94.3576C159.663 94.3261 157.942 94.335 156.225 94.3338L140.715 94.3351C140.175 94.6646 140.776 94.8285 140.282 95.3726C128.515 95.5699 116.307 95.4289 104.505 95.4272C93.6434 95.4313 71.7866 95.4446 59.8098 95.3725C59.7317 95.3048 59.6535 95.2372 59.5755 95.1695L59.5388 94.5031C59.4907 94.4551 59.4426 94.4071 59.3945 94.3591C53.0841 94.2827 46.7661 94.3434 40.4545 94.328C39.5933 94.3258 37.4842 94.5257 36.8608 94.1475C36.5759 93.7326 36.6273 93.9495 36.6438 93.4913C37.6479 92.7936 56.6797 93.6444 59.4363 93.2056L59.5978 92.8701C59.9718 92.6894 92.1589 92.5896 95.8236 92.5752Z" fill="#FEFEFE"/>
<path d="M59.5895 110.592L112.076 110.58L130.315 110.592C131.397 110.591 139.957 110.486 140.428 110.728L140.474 111.217C140.522 111.285 140.57 111.353 140.617 111.42C145.545 111.495 152.489 111.417 157.184 111.455C159.731 111.476 162.173 111.287 163.228 111.536C163.391 111.907 163.338 111.951 163.326 112.381C162.672 112.859 143.337 112.19 140.582 112.567C140.476 112.817 140.439 112.898 140.298 113.128L73.9464 113.16C72.2209 113.145 60.4086 113.329 59.6277 113.044C59.5994 112.964 59.4761 112.552 59.3943 112.551C53.6268 112.47 46.4162 112.562 40.8118 112.516C37.4524 112.489 37.5482 112.696 36.7709 112.449C36.6008 112.167 36.6614 112.01 36.6901 111.671C37.1666 111.255 41.7108 111.441 42.6556 111.441L54.1264 111.461C55.6681 111.469 57.8869 111.548 59.3861 111.428C59.629 111.189 59.5518 111.041 59.5895 110.592Z" fill="#FEFEFE"/>
<path d="M86.6054 86.4575C87.4141 86.3619 89.0793 86.4016 89.9536 86.4028L95.858 86.4095C104.59 86.3488 113.322 86.4206 122.052 86.6249C122.214 86.6284 123.279 86.6559 123.281 86.6585C123.76 87.1226 123.559 87.0489 124.409 87.0516C130.565 87.0715 136.728 87.0209 142.882 87.0598C144.58 87.0706 146.282 86.9733 147.961 87.0187C148.344 87.029 148.66 87.1691 148.901 87.4776C148.961 87.93 149.026 87.7522 148.829 88.0676C147.164 88.3003 143.092 88.1352 141.185 88.1565C135.373 88.2214 129.462 88.0591 123.656 88.1875C123.157 88.6244 123.714 88.6646 123.266 89.1658C120.362 89.3981 116.327 89.1788 113.224 89.2623C110.384 89.3457 77.1353 89.3475 76.6309 89.1343C76.5602 88.8717 76.5528 88.8155 76.5445 88.5518L76.5385 88.326C75.8289 87.7894 51.6063 88.5072 51.1154 87.9757C51.085 87.5807 51.0412 87.5127 51.2189 87.1594C51.5701 86.9461 54.2963 87.0521 54.9111 87.0521C61.5212 87.0519 68.136 87.0603 74.7462 87.0492C74.9166 87.0489 76.4186 87.0374 76.4407 86.9975C76.8278 86.2916 78.0947 86.7289 78.7779 86.6076C81.2954 86.522 84.0945 86.7935 86.6054 86.4575Z" fill="#FEFEFE"/>
<path d="M76.6166 116.692L110.708 116.708C114.496 116.71 118.309 116.741 122.086 116.663C123.099 116.643 123.283 116.906 123.708 117.536C123.717 117.55 124.873 117.597 125.058 117.599L142.022 117.608C143.249 117.608 148.084 117.499 148.895 117.728C149.003 118.028 148.945 118.187 148.902 118.509C148.393 118.927 143.002 118.747 142 118.745L129.057 118.721C128.062 118.717 124.233 118.622 123.51 118.864L123.34 119.266C120.834 119.291 118.318 119.27 115.813 119.317C114.549 119.341 113.276 119.529 111.994 119.532C104.207 119.545 96.4156 119.545 88.6298 119.536C87.7482 119.534 85.2569 119.379 84.3482 119.318C82.9009 119.219 77.5515 119.47 76.653 119.198C76.5955 119.028 76.5511 118.85 76.3873 118.742C75.8891 118.416 52.2086 119.186 51.1075 118.539C51.0758 118.095 51.0521 118.117 51.2653 117.732C51.9715 117.297 73.059 117.786 76.3598 117.574C76.6456 117.283 76.5577 117.209 76.6166 116.692Z" fill="#FEFEFE"/>
<path d="M86.3891 122.87C93.2396 122.996 106.219 122.764 113.741 122.929C113.806 122.978 113.871 123.028 113.936 123.077L113.988 123.616C114.053 123.665 114.117 123.714 114.181 123.763C120.115 123.788 126.501 123.753 132.386 123.77C134.043 123.774 137.845 123.621 138.547 123.925C138.637 124.322 138.62 124.301 138.519 124.7C138.117 124.983 134.964 124.858 134.197 124.858L119.149 124.853C118.386 124.852 114.551 124.777 114.025 124.978C113.952 125.269 113.956 125.275 113.812 125.538C111.852 125.53 109.945 125.689 108.006 125.718C102.026 125.792 96.0445 125.768 90.065 125.65C89.4241 125.631 86.7099 125.604 86.3132 125.463C86.296 125.371 86.2455 124.886 86.111 124.885C78.1287 124.811 70.1363 124.878 62.1545 124.866C61.9056 124.866 61.6611 124.76 61.4521 124.631C61.2937 124.25 61.3063 124.444 61.4474 124.028C61.9352 123.583 67.5954 123.761 68.5756 123.762L81.2118 123.775C82.4462 123.78 84.8813 123.879 86.1064 123.674C86.2351 123.653 86.334 123.079 86.3891 122.87Z" fill="#FEFEFE"/>
<path d="M86.4659 80.3428C86.8443 80.2207 88.7976 80.2697 89.2834 80.2683L96.074 80.2634C101.299 80.2622 106.534 80.2565 111.76 80.2903C113.286 80.3001 114.392 80.7824 115.756 80.8041C119.902 80.8699 124.298 80.7838 128.413 80.8216C129.669 80.8332 138.136 80.7049 138.604 80.9592C138.629 81.3555 138.675 81.5124 138.498 81.8694C137.867 82.0182 133.952 81.9549 133.112 81.9544L120.669 81.9426C118.939 81.9385 115.755 81.8259 114.126 81.9758C113.861 82.2545 113.947 82.4732 113.914 82.9747L94.1251 82.9931C92.1576 82.9908 88.6767 83.1496 86.6725 82.8808C86.3852 82.8423 86.2524 82.4084 86.1401 82.1341C85.6462 81.7325 64.4196 82.0695 61.6302 81.8917C61.3645 81.5491 61.4563 81.5913 61.4492 81.0445C62.229 80.4391 83.1506 81.1521 86.1546 80.7634L86.4659 80.3428Z" fill="#FEFEFE"/>
<path d="M91.8175 129.103C97.8225 129.031 103.853 129.1 109.859 129.128C110.565 129.132 110.047 129.441 110.477 129.946C111.904 130.08 115.192 129.981 116.724 129.978L129.224 129.958C129.692 129.958 130.266 129.91 130.564 130.207C130.586 130.531 130.638 130.677 130.483 130.952C128.978 131.554 118.416 130.732 116.172 131.065C114.831 131.264 111.813 130.816 110.373 131.144C110.309 131.335 110.265 131.526 110.226 131.723C109.781 131.91 108.68 131.822 108.139 131.811C102.188 131.838 96.2286 131.84 90.2774 131.802C89.1863 131.729 90.5938 131.069 88.9147 131.074C82.6636 131.091 76.415 131.032 70.1652 131.106C69.8742 131.108 69.7024 130.966 69.4998 130.788C69.3417 130.342 69.3378 130.552 69.456 130.139C70.3574 129.595 85.8868 130.2 88.0797 129.983C88.5196 129.94 89.2917 130.092 89.7742 129.893C89.8018 129.658 89.8301 129.453 89.8693 129.22C90.3208 129.043 91.2885 129.101 91.8175 129.103Z" fill="#FEFEFE"/>
<path d="M90.0248 73.9799C90.3628 73.8707 109.517 73.8004 110.201 73.9445C110.294 74.1986 110.336 74.4035 110.479 74.4071C115.043 74.5247 121.138 74.4027 125.551 74.4404C128.193 74.4629 129.342 74.2906 130.513 74.5851C130.581 74.8462 130.657 75.3884 130.27 75.436C128.965 75.5964 127.571 75.5346 126.251 75.5316L115.998 75.5145C115.093 75.5128 110.782 75.3455 110.315 75.7131L110.252 76.4931C103.751 76.6726 97.2215 76.4309 90.7179 76.593C89.3815 76.6264 90.1118 76.0517 89.6623 75.5295C83.2823 75.4489 76.8627 75.5439 70.4811 75.5635C69.9974 75.5649 69.2814 75.3109 69.3985 74.7078C70.3842 73.9723 86.5304 74.7916 89.3848 74.4115C89.781 74.3588 89.7879 74.2836 90.0248 73.9799Z" fill="#FEFEFE"/>
<path d="M91.9944 135.292C93.614 135.283 107.646 135.182 108.094 135.424C108.116 135.9 108.043 135.754 108.258 136.12C109.785 136.257 112.438 136.16 114.053 136.169C117.214 136.187 120.429 136.192 123.588 136.128C124.119 136.117 124.284 136.091 124.634 136.421C124.642 136.916 124.726 136.87 124.483 137.172C123.178 137.331 121.716 137.191 120.392 137.232C116.559 137.352 112.1 137 108.35 137.252C108.067 137.458 108.154 137.454 108.067 137.918C106.471 137.942 92.5014 138.055 92.0254 137.851C91.9932 137.668 91.9715 137.3 91.8303 137.277C89.8843 136.962 76.1588 137.532 75.4219 137.131C75.4021 136.736 75.3568 136.618 75.5209 136.262C76.2351 136.071 78.4535 136.147 79.3386 136.15L87.353 136.18C88.574 136.185 90.6799 136.259 91.8329 136.128C92.0385 135.882 91.9708 135.694 91.9944 135.292Z" fill="#FEFEFE"/>
<path d="M92.1858 67.4876C92.5651 67.3767 105.368 67.2557 106.463 67.4476C111.248 68.2869 115.834 67.8899 120.741 67.9668C121.471 67.9781 124.096 67.8807 124.556 68.0089C124.688 68.387 124.638 68.346 124.586 68.7844C123.982 69.3121 110.43 68.812 108.354 69.0493C108.055 69.3375 108.15 69.4343 108.097 69.9788C104.351 69.9859 100.605 69.9924 96.8591 69.9966C95.2929 69.9985 93.7276 70.0077 92.1619 69.9625C92.1 69.905 92.038 69.8475 91.9762 69.7899L91.9563 69.2378C91.469 68.5642 76.3604 69.4633 75.3992 68.7777C75.3541 68.3808 75.3218 68.3842 75.481 68.0282C75.9866 67.8945 78.1457 67.9526 78.797 67.954L87.2584 67.9682C88.6548 67.9697 90.1617 67.9972 91.5552 67.9174C91.9795 67.8932 91.9236 67.8189 92.1858 67.4876Z" fill="#FEFEFE"/>
<path d="M93.6694 141.638L102.205 141.633C103.357 141.63 104.81 141.542 105.943 141.664C106.422 141.717 106.569 142.058 106.781 142.395C109.457 142.674 113.375 142.303 116.168 142.442C117.218 142.495 118.221 142.343 119.3 142.55C119.433 142.857 119.355 142.97 119.313 143.357C118.482 144.006 107.843 143.153 106.669 143.712L106.534 144.178C105.167 144.184 94.2626 144.324 93.6254 144.099L93.5292 143.757C93.0954 143.323 84.5934 143.665 83.3525 143.559C82.6846 143.502 81.4819 143.738 80.7966 143.494C80.5758 143.118 80.6506 143.204 80.6725 142.686C81.3038 142.124 91.2174 142.614 92.6203 142.492C93.5662 142.409 93.4543 142.68 93.6694 141.638Z" fill="#FEFEFE"/>
<path d="M93.8434 60.8726C97.3463 60.8169 103.019 60.7112 106.437 60.9083C106.488 61.0509 106.585 61.3361 106.726 61.3424C107.289 61.3675 108.154 61.3804 108.689 61.3818L115.691 61.3816C116.501 61.3797 118.819 61.1892 119.354 61.5793C119.369 61.9155 119.421 62.1099 119.234 62.3822C117.285 62.7063 114.749 62.3396 112.731 62.4559C110.789 62.5677 108.689 62.2798 106.75 62.5024C106.455 62.7422 106.54 62.8633 106.467 63.3728C102.746 63.3857 97.6696 63.4373 93.8206 63.3564C93.3783 63.3471 93.7379 62.5491 93.4259 62.5023C91.7592 62.2519 81.2268 62.7549 80.665 62.2294C80.6549 61.7383 80.5849 61.8027 80.7857 61.4252C81.8344 61.2877 83.4441 61.3572 84.5346 61.3656L90.4027 61.3941C91.3007 61.3973 92.3208 61.4249 93.2134 61.3592C93.6168 61.3296 93.5818 61.2198 93.8434 60.8726Z" fill="#FEFEFE"/>
<path d="M94.6755 147.94C95.9266 147.909 104.853 147.825 105.397 148.065C105.408 148.138 105.438 148.437 105.466 148.499C105.784 149.214 113.546 148.383 114.804 148.878C115.084 149.223 115.008 149.024 114.992 149.509C114.945 149.588 114.898 149.668 114.851 149.748C111.924 150.121 108.529 149.504 105.62 149.93C105.452 149.955 105.404 150.212 105.308 150.429C103.492 150.434 95.9389 150.671 94.7229 150.357L94.6137 149.981C94.1101 149.498 85.6698 150.194 85.1171 149.597C85.0766 149.249 85.0185 149.137 85.1881 148.842C86.1057 148.633 87.1019 148.775 88.0413 148.752C90.0379 148.705 92.4921 148.893 94.4463 148.72C94.7028 148.493 94.6236 148.397 94.6755 147.94Z" fill="#FEFEFE"/>
<path d="M94.985 54.3795C95.5536 54.1755 103.891 54.3295 105.111 54.3559C105.308 54.5484 105.264 54.4801 105.389 54.6749C105.679 55.1259 113.643 54.5773 114.911 54.9061C115.084 55.1924 115.006 55.4004 114.958 55.7408C114.499 55.9837 106.784 55.7915 105.539 55.9014C105.259 56.1389 105.335 56.2542 105.258 56.7305C104.012 56.7338 95.2598 56.849 94.8019 56.6009C94.79 56.4082 94.7866 55.9249 94.626 55.8971C93.2061 55.6523 85.7454 56.1981 85.1363 55.6288C85.052 55.2535 85.043 55.2796 85.1858 54.9248C85.7246 54.6194 91.1632 54.9644 92.1694 54.8483C93.0925 54.7418 94.3069 55.1676 94.985 54.3795Z" fill="#FEFEFE"/>
<path d="M95.6394 154.234C96.8434 154.233 103.809 154.09 104.496 154.323C104.511 154.406 104.616 154.934 104.655 154.944C105.607 155.193 111.048 154.798 111.561 155.173C111.753 155.618 111.72 155.388 111.631 155.893C111.556 155.956 111.479 156.018 111.404 156.082C109.32 156.077 107.209 156.004 105.127 156.087C104.659 156.106 104.634 156.232 104.417 156.495L104.36 156.714C102.481 156.746 100.603 156.763 98.7243 156.764C98.0854 156.766 96.8434 156.819 96.2522 156.765C95.2292 156.442 96.084 156.125 94.8172 156.094C93.5711 156.064 92.3214 156.091 91.0862 156.084C90.314 156.08 88.7378 156.343 88.4341 155.608C88.4774 155.467 88.6028 155.102 88.7651 155.065C89.8434 154.828 94.9094 155.252 95.5461 154.873L95.6394 154.234Z" fill="#FEFEFE"/>
<path d="M95.7655 47.7263C96.644 47.6386 103.815 47.6409 104.425 47.7945L104.591 48.1678C105.961 48.4095 110.277 48.033 111.235 48.2575C111.538 48.5701 111.444 48.4501 111.449 49.029C110.891 49.7433 105.543 48.8076 104.561 49.4366L104.481 50.0496C102.318 50.0451 97.5979 50.2286 95.7229 49.9515C95.0217 48.6731 90.3626 49.4516 88.7447 49.2197C88.5718 48.852 88.6256 48.8613 88.6531 48.4234C89.2505 47.9348 94.1052 48.3821 95.4472 48.1701L95.7655 47.7263Z" fill="#FEFEFE"/>
<path d="M96.3758 160.614C96.7037 160.542 102.725 160.571 103.501 160.617C104.265 160.663 103.581 161.243 104.482 161.323C105.7 161.431 107.445 161.099 108.577 161.407C108.841 161.478 108.958 161.814 109.035 162.023C108.222 163.139 104.559 161.421 103.72 162.998C103.011 163.155 97.1846 163.077 96.3631 162.99C96.1498 162.756 96.1754 162.771 96.0831 162.475C94.9683 161.945 91.9738 163.018 91.0054 161.889L91.029 161.646C91.7989 160.838 94.8691 161.616 95.9871 161.22C96.2119 161.141 96.2491 160.892 96.3758 160.614Z" fill="#FEFEFE"/>
<path d="M96.4309 41.1116C97.9482 41.1028 102.614 40.9959 103.814 41.1709L103.95 41.4729C104.465 41.8115 107.483 41.4668 108.465 41.6678C108.654 42.1222 108.631 41.8969 108.561 42.3655C107.785 43.1427 105.102 42.2985 104.092 42.8107C103.92 42.8975 103.929 43.186 103.883 43.4319C102.849 43.4159 96.6946 43.5424 96.2166 43.3364L96.15 42.8934C95.4633 42.2796 92.3319 43.0594 91.5093 42.5106C91.4615 42.0407 91.4238 42.2592 91.6294 41.8315C92.5499 41.232 94.4936 41.8259 95.6664 41.6207C96.2422 41.5199 96.0756 41.589 96.4309 41.1116Z" fill="#FEFEFE"/>
<path d="M96.7734 167.137C98.6995 167.128 100.787 167.048 102.714 167.137C103.929 167.192 102.857 167.71 103.817 167.798C104.903 167.896 105.898 167.462 106.719 168.124L106.746 168.448C106.163 169.008 104.354 168.75 103.612 168.954C103.364 169.022 103.425 169.077 103.247 169.414C102.434 169.552 98.8268 169.367 97.7564 169.426C97.5248 169.438 96.1725 168.923 95.6651 168.871C95.0972 168.812 94.0346 168.936 93.6328 168.745C93.5518 168.378 93.5706 168.387 93.6351 168.01C94.3956 167.296 95.5061 168.082 96.5121 167.702C96.7038 167.63 96.6828 167.442 96.7734 167.137Z" fill="#FEFEFE"/>
<path d="M97.0929 34.654C98.3593 34.3972 105.569 34.512 106.144 35.6988L105.993 35.9808C105.209 36.3682 103.985 35.3254 103.257 36.735C102.114 36.7493 98.3631 36.8431 96.9435 36.6784C96.7242 36.6529 97.0725 36.1913 96.4506 36.0824C95.7591 35.9612 94.3458 36.2901 93.9034 35.9216C93.8513 33.961 95.7942 35.7547 97.0929 34.654Z" fill="#FEFEFE"/>
<path d="M97.345 173.732C98.9944 173.726 103.604 173.544 104.831 174.723C104.896 175.097 104.923 174.92 104.717 175.267C103.969 175.687 103.529 174.919 102.688 175.741C101.472 175.928 95.893 176.073 95.3423 174.738L95.4815 174.421C96.4098 173.871 96.7602 174.977 97.345 173.732Z" fill="#FEFEFE"/>
<path d="M100.161 28.0471C101.206 28.0195 103.551 27.9396 104.193 28.8357C103.903 30.0589 101.154 30.047 100.178 30.0193C99.0657 30.054 96.4014 30.0479 95.7671 28.9329L95.8604 28.7059C96.8032 27.9841 98.9792 28.0537 100.161 28.0471Z" fill="#FEFEFE"/>
<path d="M97.9669 180.506C99.0232 180.218 102.797 180.343 103.518 181.239C103.548 181.63 103.583 181.439 103.339 181.812C102.77 181.896 102.556 181.904 102.061 182.182C101.229 182.456 96.6763 182.537 96.6567 181.116C97.0785 180.577 97.1905 181.184 97.9669 180.506Z" fill="#FEFEFE"/>
<path d="M98.0438 21.5514C99.1027 21.3308 102.409 21.2851 103.065 22.2053C102.988 23.2848 102.861 22.3555 102.045 23.1694C101.366 23.543 97.7078 23.4219 97.1058 22.5121C97.0854 22.0395 97.0305 22.2548 97.2853 21.8459C97.5118 21.7735 97.6251 21.732 97.8491 21.6364L98.0438 21.5514Z" fill="#FEFEFE"/>
<path d="M99.4014 187.136C100.271 187.104 102.512 187.024 102.582 188.233C102.252 188.531 101.484 188.67 101.037 188.718C99.941 188.756 98.2776 188.891 97.5063 187.933L97.6323 187.602C98.0752 187.32 98.8758 187.181 99.4014 187.136Z" fill="#FEFEFE"/>
<path d="M8.33398 102.307C9.51188 102.3 11.9905 102.217 13.0429 102.369C13.2595 102.66 13.1969 103.009 13.1948 103.395C12.0696 103.411 9.51964 103.525 8.51598 103.388C8.27239 102.994 8.35677 102.849 8.33398 102.307Z" fill="#FEFEFE"/>
<path d="M186.835 102.324C187.963 102.305 190.556 102.209 191.519 102.355C191.719 102.714 191.654 102.971 191.662 103.427C190.53 103.426 188.028 103.512 187.031 103.365C186.792 103.048 186.844 102.737 186.835 102.324Z" fill="#FEFEFE"/>
<path d="M99.2194 14.9297C100.122 14.9058 101.391 14.7155 102.016 15.422C102.112 15.8719 102.164 15.6922 101.999 16.0197C101.65 16.1949 101.421 16.3322 101.037 16.4222C100.08 16.4458 98.9788 16.6054 98.2343 16.0413C98.0154 15.6065 98.0587 15.8287 98.0892 15.3522C98.3552 15.0448 98.7917 15.0224 99.2194 14.9297Z" fill="#FEFEFE"/>
<path d="M98.7739 8.5556C99.5986 8.55534 100.437 8.34522 101.135 8.6289C101.456 9.00995 101.342 8.98756 101.352 9.636C100.6 9.65916 99.6534 9.80094 99.0208 9.55251C98.6899 9.15835 98.8007 9.2099 98.7739 8.5556Z" fill="#FEFEFE"/>
<path d="M98.7617 193.931C99.5979 193.931 100.419 193.73 101.149 194.021C101.47 194.373 101.361 194.347 101.39 194.968C100.559 194.966 99.7493 195.163 99.0201 194.888C98.6854 194.537 98.7974 194.57 98.7617 193.931Z" fill="#FEFEFE"/>
</g>
</svg>
