<svg width="200" height="189" viewBox="0 0 200 189" fill="none" xmlns="http://www.w3.org/2000/svg">
<path d="M141.66 7.58753C140.392 3.80202 136.885 1.25 132.912 1.25H68.25C72.2227 1.25 75.7305 3.80202 76.9984 7.58753L133.123 174.958C133.461 175.936 133.588 176.914 133.588 177.935C133.588 183.039 129.404 187.25 124.333 187.25H188.994C194.066 187.25 198.25 183.039 198.25 177.935C198.25 172.831 198.081 175.936 197.785 174.958L141.66 7.58753Z" stroke="white" stroke-width="2.5" stroke-miterlimit="10"/>
<path d="M56.5535 129.178C55.7 128.37 55.1879 127.221 55.1879 126.03C55.1879 123.69 57.1082 121.733 59.4978 121.733H85.0586L100.25 76.8497L76.7802 7.58897C75.5 3.80261 71.9582 1.25 67.947 1.25H67.2642C63.253 1.25 59.7112 3.80261 58.431 7.58897L1.7194 174.955C1.37802 175.933 1.25 176.912 1.25 177.933C1.25 183.038 5.47457 187.25 10.5953 187.25H56.2121C60.2233 187.25 63.7651 184.697 65.0453 180.911L76.3534 147.557L56.5961 129.178H56.5535Z" stroke="white" stroke-width="2.5" stroke-miterlimit="10"/>
<path d="M133.25 178.006C133.25 176.993 133.081 176.023 132.785 175.052L114.944 122.25H59.5199C57.1947 122.25 55.25 124.149 55.25 126.513C55.25 128.877 55.7573 128.834 56.6028 129.636L115.748 184.76C117.481 186.364 119.722 187.25 122.089 187.25H124.118C129.149 187.208 133.25 183.071 133.25 178.006Z" stroke="white" stroke-width="2.5" stroke-miterlimit="10"/>
</svg>
