<svg width="244" height="158" viewBox="0 0 244 158" fill="none" xmlns="http://www.w3.org/2000/svg">
<path d="M17.9251 113.166L135.503 113.326L167.683 113.328C173.438 113.33 179.204 113.343 184.959 113.32C186.481 113.314 188.04 113.18 189.574 113.165L212.437 113.155C216.573 113.158 220.746 113.193 224.882 113.131C225.16 113.127 225.527 113.172 225.769 113.318C225.957 113.433 225.919 113.568 225.971 113.846C226.617 114.397 239.857 113.66 240.664 114.213C240.868 114.699 240.837 114.488 240.754 114.999C239.867 115.641 226.98 114.564 224.982 115.624C224.574 115.841 223.528 115.822 223.026 115.821L156.382 115.408L137.035 115.373C135.045 115.369 132.585 115.386 130.569 115.369C129.991 115.363 130.439 114.87 129.961 114.564C128.245 114.583 114.17 114.473 113.706 114.665C113.621 114.981 113.62 115.103 113.376 115.323C112.323 115.47 110.369 115.426 109.255 115.426L102.158 115.412L80.6564 115.382C73.6261 115.377 66.5842 115.402 59.5532 115.405C57.8286 115.405 56.1136 115.734 54.2836 115.756C42.758 115.837 31.232 115.845 19.7063 115.779C17.9778 115.765 18.5515 115.284 17.6798 115.176C16.0129 114.968 3.54644 115.492 2.8377 115.065C2.72265 114.679 2.58497 114.502 2.70393 114.214C3.9677 113.786 15.0861 114.214 17.5254 113.956C17.8451 113.733 17.7758 113.646 17.9251 113.166Z" fill="white"/>
<path d="M31.4698 117.825C39.9163 117.74 48.4529 117.861 56.9047 117.865C59.0987 117.867 61.2818 118.053 63.5663 118.055H146.35L169.624 118.07C173.921 118.074 178.228 118.086 182.526 118.043C183.961 118.028 185.409 117.864 186.835 117.861C196.166 117.849 205.503 117.817 214.833 117.851C215.789 117.855 223.102 117.742 223.56 118.023C223.581 118.14 223.682 118.768 223.818 118.773C228.746 118.974 233.781 118.643 238.68 118.931C238.787 118.936 238.809 119.417 238.822 119.521C238.701 119.734 238.655 119.758 238.398 119.812C237.591 119.979 236.504 119.852 235.671 119.854C233.955 119.859 223.877 119.625 223.276 120.041C223.015 120.223 222.83 120.362 222.512 120.406C221.3 120.578 219.946 120.463 218.716 120.464L211.119 120.472L191.048 120.473C190.283 120.471 184.656 120.511 184.2 120.417C184.136 120.25 184.093 120.158 184.01 119.998C178.936 120.173 173.352 120.057 168.25 120.053L142.393 120.064L130.687 120.046C129.728 120.042 126.908 120.123 126.205 119.937C126.101 119.77 126.033 119.609 125.975 119.423C124.272 119.063 120.474 119.587 118.583 119.355C118.089 119.295 117.826 119.924 117.008 119.983C115.633 120.081 114.297 120.065 112.921 120.066H105.853L74.9591 120.064L64.4693 120.068C62.9529 120.072 61.4366 120.057 59.921 120.066C59.3425 120.071 59.3412 120.469 58.643 120.472C50.926 120.504 43.2089 120.475 35.4918 120.471H26.3127C25.0375 120.472 23.2824 120.526 22.0676 120.489C20.9463 120.457 20.5456 119.856 18.8693 119.864C15.8219 119.881 12.743 119.844 9.69491 119.858C8.65261 119.862 5.65733 119.912 4.75446 119.673L4.64062 119.363L4.78208 119.107C6.07131 118.477 17.1932 119.024 19.8993 118.73C20.4357 118.313 19.8786 118.481 20.3112 117.906C23.0876 117.655 28.4625 117.821 31.4698 117.825Z" fill="white"/>
<path d="M23.3131 122.589L218.755 122.583C219.189 122.586 220.136 122.544 220.438 122.781C220.454 122.958 220.485 123.357 220.574 123.375C222.739 123.813 234.248 123.268 235.701 123.637C236.15 124.452 235.439 124.589 234.908 124.66C232.919 124.927 220.581 124.181 219.659 125.008C218.435 125.248 214.566 125.16 213.092 125.155L202.199 125.151L187.94 125.155C186.97 125.155 182.527 125.198 181.869 125.058L181.79 124.753C181.277 124.654 179.348 124.718 178.739 124.725C176.91 124.749 175.079 124.757 173.248 124.749L146.836 124.737L63.3106 124.708C62.3741 124.71 61.6714 125.149 60.6997 125.151C49.4346 125.175 38.1695 125.16 26.9044 125.156C25.8959 125.156 24.8706 125.175 23.8648 125.121C23.7208 124.931 23.7658 125.004 23.6569 124.811C23.3298 124.233 9.06459 125.151 7.93715 124.496C7.77509 124.1 7.79274 124.116 7.86238 123.684C9.1531 123.16 20.445 123.751 22.9662 123.46C23.2987 123.171 23.2032 123.142 23.3131 122.589Z" fill="white"/>
<path d="M216.479 129.321C215.568 129.334 215.103 129.761 214.423 129.791C212.145 129.891 209.836 129.866 207.554 129.87L194.3 129.889L183.251 129.895C181.642 129.892 179.93 129.901 178.316 129.866C177.799 129.856 178.276 129.721 177.793 129.338L100.305 129.354L77.1873 129.353L69.7068 129.35C68.5939 129.35 67.4449 129.314 66.3364 129.337C65.3119 129.358 65.9024 129.509 65.4433 129.866C63.7126 129.97 61.5564 129.896 59.7961 129.891H50.5555C43.9624 129.893 37.3186 129.918 30.7222 129.869C29.784 129.862 26.3385 129.357 25.1385 129.322C23.4184 129.272 12.3868 129.501 11.792 129.063C11.6988 128.643 11.6813 128.847 11.8823 128.436C12.6186 127.908 25.0333 128.538 27.3596 128.033C27.8664 127.448 28.2774 127.128 29.0999 127.136C30.5044 127.151 31.9064 127.166 33.3116 127.17L42.531 127.179C57.2281 127.184 71.8582 127.446 86.5483 127.551C93.3817 127.599 100.24 127.481 107.076 127.469C130.054 127.587 153.031 127.566 176.008 127.404L204.012 127.18L211.295 127.174C212.564 127.172 214.439 127.113 215.662 127.245C215.914 127.47 215.929 127.855 215.992 128.208C216.593 128.36 216.522 128.24 216.844 128.627C216.811 128.985 216.791 129.068 216.479 129.321Z" fill="white"/>
<path d="M63.8467 131.967C64.6223 131.948 68.5858 131.794 68.9724 132.022L68.5673 132.375L68.6014 132.53C69.9459 132.652 71.7942 132.567 73.1796 132.589C74.7485 132.486 76.6666 132.748 78.2057 132.566C82.2759 132.086 86.3738 132.276 90.482 132.279L146.98 132.284C151.975 132.283 157.125 132.237 162.104 132.291C164.02 132.313 173.764 132.928 175.04 132.492C174.926 132.224 174.912 132.253 174.701 132.028C175.231 131.781 182.281 131.98 183.415 131.988L203.081 131.999C204.043 132.002 209.752 131.801 210.231 132.154L210.262 132.779C210.863 133.314 224.428 132.792 226.445 133.054C226.671 133.376 226.594 133.319 226.598 133.8L226.395 133.963C224.724 134.302 213.271 133.984 211.39 134.073C208.208 134.221 182.151 135.233 180.64 134.348C179.252 133.345 167.564 133.738 165.096 133.696C164.367 133.683 162.616 134.108 161.677 134.118L106.408 134.142L82.6006 134.135C81.2599 134.123 79.8727 133.708 78.5433 133.699C72.8825 133.653 67.4524 133.481 61.8485 134.496C59.3817 134.694 56.9101 134.547 54.4307 134.592C42.4586 134.803 30.5667 133.695 18.582 134.103C18.0412 134.12 17.2498 133.873 16.8232 133.543L16.9763 133.2C18.4742 132.67 30.7366 133.019 33.3086 132.946C33.7719 132.648 33.2764 132.71 33.695 132.095C34.2994 131.917 40.7618 131.984 41.9752 131.985L63.8467 131.967Z" fill="white"/>
<path d="M43.2621 47.2388C47.4241 47.0401 52.2777 47.2559 56.5094 47.1905C61.9751 47.1062 67.5681 47.2337 73.0463 47.1988C74.2088 47.1912 75.531 47.5405 76.7163 47.5359C80.1787 47.5226 83.6478 47.5258 87.11 47.5249L105.439 47.5291C106.731 47.5245 117.351 47.3743 117.699 47.6004C117.747 47.8709 117.791 48.142 117.834 48.4132C118.049 48.5388 125.358 48.4937 125.831 48.3807C125.906 48.033 125.887 48.0316 126.126 47.7445C126.501 47.5464 126.93 47.4364 127.358 47.4391C140.352 47.5196 153.348 47.5012 166.342 47.5537C168.017 47.5604 169.694 47.2048 171.365 47.1973C178.418 47.1655 185.473 47.1997 192.527 47.2138C193.93 47.2182 199.368 47.0352 200.393 47.2761C200.42 47.3663 200.474 47.5565 200.516 47.6356C200.919 48.3846 211.026 47.4187 212.681 48.0148C212.794 48.3309 212.739 48.4945 212.693 48.8256C211.988 49.2336 202.666 48.862 201.102 49.0856L201.111 49.3512C201.012 49.5546 200.966 49.6098 200.838 49.7972C200.292 49.9956 169.849 50.0778 169.12 49.8402L168.921 49.4231C160.628 49.6483 151.591 49.4964 143.253 49.4889L100.743 49.4792L82.7887 49.4902C80.988 49.4901 76.2355 49.3275 74.7929 49.4852L74.6249 49.7739C74.3434 49.928 73.8258 49.8841 73.4992 49.8864C63.3337 49.9586 53.1675 49.8732 43.0021 49.9466C42.2755 49.9518 43.7047 48.976 41.6486 48.9945C39.2136 49.0165 36.7126 48.9608 34.271 49.001C33.387 48.9992 31.5578 49.1648 30.9722 48.5925L30.9871 48.0691C31.9169 47.4927 41.1381 48.2582 43.0943 47.7638L43.2621 47.2388Z" fill="white"/>
<path d="M174.087 37.6749C178.208 37.635 182.425 37.7303 186.556 37.7125C187.805 37.7071 192.018 37.6585 193.051 37.8111C193.118 37.9223 193.382 38.2952 193.508 38.3062C198.004 38.7051 203.011 38.0721 207.466 38.501C207.758 38.7663 207.687 38.6108 207.753 38.9439C206.792 40.1855 195.522 38.9645 194.455 39.6496L194.36 40.1167C193.813 40.503 188.704 40.33 187.688 40.3307L174.728 40.3263L69.4745 40.3222C62.9259 40.3263 56.3291 40.3442 49.7787 40.288C49.1593 40.4511 49.4976 39.5447 49.1947 39.5316C45.012 39.3511 40.7717 39.5509 36.5857 39.4532C36.2001 39.4442 36.127 39.2936 35.9941 39.1639L36.0095 38.6439C36.7756 38.0347 48.4204 38.7628 50.5605 38.2549C51.0646 37.5929 51.0821 37.7309 51.9268 37.7354C61.7975 37.7864 71.725 37.493 81.5813 37.8297C82.5527 37.8629 83.4049 38.0997 84.4602 38.0997L174.087 37.6749Z" fill="white"/>
<path d="M162.854 42.3802C165.141 42.3014 168.009 42.4034 170.342 42.4163L184.169 42.4362L193.034 42.4252C193.775 42.4269 196.595 42.4059 197.198 42.5344C197.231 42.6306 197.351 42.9729 197.4 42.9827C199.555 43.4223 208.655 42.8739 210.219 43.181C210.628 43.504 210.512 43.3262 210.665 43.8226L210.537 44.0528C209.431 44.4522 200.152 44.071 198.045 44.3183C197.932 44.5299 197.925 44.5635 197.881 44.7919L197.844 44.991C197.46 45.2866 191.312 45.1572 190.23 45.1568L175.314 45.162L80.383 44.7251C78.061 44.8109 72.4222 45.3064 70.3503 45.1643C67.5781 44.9741 46.3906 45.4699 45.764 45.0328C45.7573 44.9328 45.7116 44.3263 45.6153 44.319C41.6173 44.0208 37.5442 44.3923 33.5367 44.1806C33.4347 44.1039 33.3328 44.0271 33.2309 43.9503C33.0825 43.4939 33.065 43.7042 33.2369 43.2962C34.3777 42.8205 44.1252 43.407 46.2116 43.0103C46.4807 42.7632 46.7833 42.4416 47.1518 42.4372C48.5636 42.4199 50.0037 42.4337 51.4144 42.4339L60.3069 42.4335L71.3437 42.4187C73.2125 42.4127 75.0847 42.3992 76.9529 42.3981C77.7626 42.3236 78.7182 42.7302 79.4473 42.7792C84.4608 43.1164 90.217 42.9847 95.193 42.9868L123.298 42.9616L147.44 42.9812C151.509 42.9842 155.669 43.0244 159.74 42.9396C160.54 42.9229 161.513 42.4769 162.665 42.393L162.854 42.3802Z" fill="white"/>
<path d="M58.8243 32.9063C63.7453 32.9585 69.6409 32.7403 74.4131 32.969C74.7185 33.1745 74.7593 33.2972 74.9141 33.6124C76.071 33.7575 77.4106 33.579 78.5839 33.633C81.1145 33.7498 83.6599 33.3458 86.1645 33.3244L114.999 33.335L153.267 33.3303C155.108 33.3329 157.083 33.6219 158.836 33.5792C161.978 33.5027 165.739 33.82 168.816 33.52C169.105 33.2366 169.158 33.1906 169.489 32.9618C170.505 32.8316 184.51 32.8431 185.058 32.9821L185.267 33.4752C186.348 34.0877 201.055 32.9592 203.378 33.7794L203.416 34.1573C202.636 35.4011 189.722 34.2282 188.18 34.8538C188.096 35.1215 188.076 35.2605 188.028 35.5333C187.583 35.8206 185.409 35.7074 184.742 35.7011C182.638 35.6952 162.341 35.7954 161.895 35.5743L161.812 34.915C161.033 34.3329 156.522 35.2407 155.499 35.2673C153.519 35.3189 151.471 35.2948 149.488 35.2963L95.8816 35.3115C92.1617 35.3123 88.4075 35.3259 84.6856 35.2966C83.9459 35.2906 83.0986 34.9923 82.4128 34.9049C81.3298 34.7667 79.6384 34.7085 78.5668 34.8095C78.0383 35.1423 78.5718 35.0739 78.1345 35.6518C73.5824 35.7135 69.0299 35.7275 64.4776 35.6938C61.8899 35.6918 59.2722 35.7055 56.6947 35.69C55.9125 35.9042 55.3313 34.836 55.3693 34.8442C52.9087 34.3122 42.0052 35.1481 40.3729 34.4976C40.2711 34.1721 40.3148 34.1131 40.3808 33.7787C41.8496 33.0643 54.7015 33.9132 57.2571 33.5966C57.686 33.5435 58.0424 33.6473 58.5951 33.4816L58.8243 32.9063Z" fill="white"/>
<path d="M87.0817 28.3788C90.3515 28.222 94.447 28.3342 97.8056 28.3345L117.46 28.3388L141.521 28.3381C145.062 28.3367 148.607 28.3482 152.148 28.2893C153.003 28.2751 153.828 28.8396 155.443 28.8323C158.955 28.8163 162.484 28.8137 165.997 28.8078L186.806 28.7923C189.929 28.7911 193.068 28.8108 196.192 28.7779C196.593 28.7736 196.875 28.8494 197.178 29.1027C197.282 29.4428 197.29 29.4183 197.178 29.7537C196.102 30.1408 185.679 29.9322 183.616 29.9334L155.727 29.9642C154.302 29.9258 154.872 30.1046 153.799 30.4164C153.553 30.4881 151.523 30.5083 151.189 30.5102L125.681 30.5342C113.389 30.5513 101.085 30.5571 88.7918 30.4842C86.986 30.4735 85.7723 29.9982 84.2909 29.9777C80.4023 29.9236 76.4605 29.9397 72.5714 29.9376L54.1848 29.9277C52.3019 29.9257 50.4093 29.9568 48.5261 29.9494C47.8576 29.9467 46.8218 29.9786 46.4824 29.3323C46.6915 28.8268 47.2166 28.8523 47.738 28.8405C49.9947 28.7899 52.3063 28.8054 54.5596 28.8031L75.4006 28.817C78.8839 28.8233 82.3774 28.8673 85.8583 28.7853C86.3296 28.7741 86.6827 28.6084 87.0817 28.3788Z" fill="white"/>
<path d="M226.101 108.285C226.621 108.264 226.403 108.193 226.8 108.42C226.865 108.601 227.033 109.133 227.231 109.149C228.192 109.23 229.316 109.214 230.266 109.212L237.996 109.216C239.025 109.214 241.488 108.997 242.224 109.485C242.481 109.926 242.461 109.708 242.352 110.152C241.739 110.587 229.324 110.295 227.644 110.413C226.751 110.475 227.106 110.378 226.297 110.947C226.288 110.953 224.849 111.002 224.693 111.003C219.18 111.03 213.66 111.023 208.147 111.027C201.773 111.032 195.394 111.034 189.019 111.018C187.27 111.014 185.53 110.646 183.852 110.651C170.197 110.698 156.535 110.718 142.881 110.714C141.25 110.718 129.698 110.889 129.091 110.534L128.978 110.013C127.949 109.993 126.749 110.024 125.809 109.577L125.737 109.241C127.359 108.134 137.765 108.492 140.343 108.496L158.547 108.505L195.655 108.314C205.693 108.301 216.1 108.47 226.101 108.285Z" fill="white"/>
<path d="M19.6847 108.489C31.1283 108.688 43.624 108.492 55.1534 108.494L100.062 108.671L120.612 108.661C123.403 108.659 135.603 108.435 137.131 109.217C137.349 109.6 137.301 109.402 137.247 109.839C136.237 110.28 134.6 109.836 133.582 110.135C133.492 110.265 133.199 110.687 132.993 110.689C128.381 110.737 123.756 110.681 119.136 110.693L72.8248 110.671C71.8689 110.674 70.8236 110.645 69.8792 110.689C58.808 111.209 47.6124 110.982 36.5013 110.979L25.9011 110.979C24.8018 110.982 20.6786 111.148 19.9102 110.793C18.3091 110.053 16.6318 110.555 15.1782 110.419C13.0628 110.222 2.38289 110.681 1.29334 110.239C1.15097 109.865 1.14456 110.051 1.36378 109.666C2.45482 109.106 5.27234 109.298 6.64037 109.3C9.51188 109.3 12.3832 109.313 15.2544 109.34C16.3864 109.351 17.9269 109.41 19.0427 109.267C19.384 109.223 19.5135 108.796 19.6847 108.489Z" fill="white"/>
<path d="M157.006 103.774C158.856 103.525 218.017 103.676 218.425 103.754C218.483 103.902 218.528 104.114 218.649 104.247C219.35 105.015 240.672 103.966 243.139 104.663C243.303 105.074 243.31 105.056 243.213 105.471C241.577 106.173 222.029 105.195 218.431 105.782C218.277 106.066 218.306 106.078 217.985 106.303C207.225 106.509 195.16 106.353 184.301 106.352L163.903 106.36C162.437 106.361 156.372 106.412 155.525 106.281C154.918 105.534 152.809 105.92 151.385 105.881C145.468 105.716 99.5957 106.412 97.9663 105.551C97.9237 105.091 97.8834 105.018 98.1008 104.589C99.329 104.465 104.643 103.881 105.58 103.882C108.657 103.885 112.084 103.926 115.244 103.908C124.651 103.862 134.058 103.854 143.465 103.886C147.021 103.89 153.443 104.01 156.684 103.797L157.006 103.774Z" fill="white"/>
<path d="M20.0546 103.681C20.5778 103.614 23.5241 103.643 24.206 103.644L33.1711 103.655L70.9595 103.88L99.9523 103.859C102.721 103.87 109.136 103.607 111.528 104.153C112.468 104.368 114.662 104.356 115.19 104.716C115.287 105.201 115.332 104.979 115.095 105.408C113.622 106.283 98.6033 105.929 95.5534 105.924C87.3904 105.916 79.1919 105.935 71.0278 105.877C69.9034 105.869 69.7007 106.339 68.8923 106.341C66.709 106.345 64.5006 106.345 62.319 106.346L48.4813 106.344C39.4408 106.347 29.3607 106.517 20.3936 106.296C20.2246 106.188 20.1287 106.09 20.0228 105.945C19.4245 105.129 2.20606 106.232 0.542316 105.476C0.388601 105.055 0.400833 105.076 0.501892 104.64C1.71318 104.131 15.9888 104.722 18.4462 104.472C19.6856 104.347 19.3383 104.696 20.0546 103.681Z" fill="white"/>
<path d="M166.644 51.9442C172.571 51.7909 178.739 51.955 184.7 51.9038C189.339 51.8637 194.094 51.9245 198.739 51.9545C199.793 51.9612 200.881 52.5752 202.211 52.6182C204.649 52.6971 211.608 52.3819 213.644 52.7366C213.924 53.0194 213.83 52.9885 213.862 53.4473C212.936 54.2015 201.934 53.3846 200.818 53.9174C200.758 54.2457 200.783 54.3041 200.543 54.5714C197.678 54.7264 193.464 54.6014 190.513 54.6146C183.397 54.6465 176.248 54.589 169.13 54.5904C167.662 54.5906 166.219 54.3816 164.773 54.3275C163.244 54.2704 161.615 54.2926 160.08 54.3002L131.964 54.316C126.482 54.3184 120.983 54.3459 115.504 54.2691C114.647 54.2572 113.574 54.2804 112.976 53.7496C112.858 53.2963 112.83 53.507 113.036 53.0937C113.737 52.8608 115.29 53 115.533 52.8923C117.671 51.9418 119.882 52.2125 122.379 52.2218L130.257 52.2469L156.748 52.284C158.789 52.2941 164.976 52.5116 166.548 51.9776L166.644 51.9442Z" fill="white"/>
<path d="M43.1956 51.9264C44.0941 51.8785 45.1018 51.8935 46.0055 51.8934C55.0587 51.8963 64.1164 51.8538 73.1693 51.8951C74.7905 51.9024 76.3682 52.2642 78.086 52.2723L104.676 52.2453L115.613 52.2274C118.364 52.22 120.561 51.9422 123.131 52.8085C123.446 52.9149 125.008 53.0297 125.587 53.1489L125.698 53.6491C123.885 54.6767 114.318 54.2998 111.597 54.2936L77.7653 54.2896C75.9114 54.3002 74.0977 54.5761 72.3443 54.5847C66.2116 54.6144 60.061 54.5962 53.9284 54.595L46.7746 54.5965C45.748 54.6 43.3569 54.7941 42.5348 54.4191C42.5424 54.4328 42.3923 54.1552 42.3912 54.1655C42.3973 54.1087 42.0871 53.8635 42.0597 53.8596C39.6204 53.5044 31.8893 54.0554 29.9678 53.5771C29.7388 53.2297 29.8182 53.2696 29.8128 52.8038C31.2321 52.1846 38.5103 52.8009 40.441 52.6126C41.6058 52.4988 42.2612 52.8254 43.1956 51.9264Z" fill="white"/>
<path d="M174.594 99.1023C178.153 98.9352 222.831 99.0315 223.325 99.1865C223.39 99.5021 223.355 99.5581 223.652 99.7964C229.467 100.077 236.094 99.7391 241.962 99.7874C242.687 99.7935 242.892 99.7638 243.431 100.116C243.627 100.586 243.647 100.369 243.457 100.789C242.706 101.052 239.523 100.962 238.475 100.969C233.965 101.002 229.441 100.925 224.929 100.941C223.838 100.945 223.506 101.598 222.483 101.629C220.198 101.697 217.917 101.684 215.631 101.684L203.264 101.676L181.906 101.676C179.586 101.677 175.589 101.914 173.474 101.694C173.055 101.651 172.745 101.464 172.433 101.271C171.65 100.786 135.553 101.685 134.061 100.958C133.829 100.843 133.879 100.76 133.831 100.572C134.128 100.051 134.645 99.8208 135.261 99.4526C138.324 99.3092 142.27 99.3893 145.386 99.3953L162.566 99.423C166.985 99.4234 170.212 99.5132 174.594 99.1023Z" fill="white"/>
<path d="M26.1327 99.0146L137.852 99.3904C138.749 99.8737 139.749 100.241 139.539 100.996C138.348 101.367 115.288 101.213 112.423 101.211C105.719 101.209 98.9336 101.046 92.2404 101.206C90.6868 101.244 89.4465 101.736 87.9518 101.749C78.5102 101.831 69.0238 101.72 59.5769 101.721C49.3568 101.722 39.1078 101.829 28.8923 101.77C27.7844 101.763 26.4867 101.741 25.678 101.247C24.0702 100.264 4.1334 101.767 0.416308 100.678C-0.106188 100.279 -0.0219221 100.491 0.0642217 100.035C2.1927 99.3608 21.0765 100.312 25.5149 99.6396L26.1327 99.0146Z" fill="white"/>
<path d="M147.654 94.483C152.85 94.3264 159.759 94.4229 165.088 94.4238L196.387 94.4257C201.737 94.425 209.08 94.3911 214.632 94.4563C215.059 94.4612 215.21 94.7365 215.415 94.9442C217.392 95.6333 241.302 94.4583 243.27 95.5626C243.372 96.0095 243.497 95.8362 243.065 96.129C240.957 96.5273 220.286 96.195 216.61 96.3213C215.225 96.3688 216.192 96.5268 215.259 97.0473C209.208 97.2651 200.235 97.1186 193.971 97.1135C180.603 97.0418 167.189 97.1759 153.818 97.1183C151.561 97.1086 149.327 97.1349 147.071 97.0769C146.904 96.9598 146.792 96.8629 146.682 96.7276C146.15 96.0788 100.766 97.1068 98.3353 96.3233C97.8978 95.878 98.013 96.05 98.1434 95.4847C98.5963 95.0928 99.0057 94.9418 99.8807 94.8477C101.654 94.6572 103.846 94.8616 105.681 94.8453C111.489 94.7937 144.901 95.2016 147.47 94.5346C147.531 94.5183 147.593 94.5001 147.654 94.483Z" fill="white"/>
<path d="M21.5642 94.2683C37.3569 93.9491 53.4817 94.4714 69.3005 94.2638C71.6944 94.2324 74.223 94.6672 76.7002 94.6834L97.7376 94.6805C100.953 94.672 106.089 94.5495 109.191 94.7722L109.443 95.0065C109.623 95.6537 109.627 95.7462 109.517 96.4021C108.917 96.6635 90.3062 96.554 87.905 96.5548C84.2377 96.5602 76.9178 96.3658 73.6122 96.6387C73.4618 96.7652 73.0343 97.1172 72.8172 97.1186C58.8504 97.2112 44.6324 97.1365 30.6793 97.1537C28.6834 97.1562 21.9209 97.2173 21.2623 96.999L21.1155 96.4879C21.0333 96.4245 20.9514 96.3611 20.8694 96.2977C15.7681 96.045 5.06203 96.6239 0.530865 96.1728C0.199491 95.8066 0.315299 95.8413 0.306985 95.3086C1.23789 94.3631 18.2776 95.5751 21.055 94.8992C21.3206 94.8347 21.4502 94.4553 21.5642 94.2683Z" fill="white"/>
<path d="M91.1864 23.6335C93.3279 23.529 96.0176 23.5946 98.201 23.5939L110.708 23.5946C122.807 23.5966 134.929 23.5821 147.029 23.6151C148.118 23.618 150.588 23.9349 151.786 24.0096C153.613 24.1237 159.965 23.8274 161.278 24.2362C161.542 24.6249 161.467 24.4137 161.492 24.8997C160.846 25.5238 152.244 24.9862 150.831 25.2489C150.046 25.395 150.809 25.6981 149.327 25.8238L107.839 25.7877L95.8547 25.8016C94.7117 25.8056 90.9497 25.8955 90.0054 25.7744C89.9332 25.5968 89.8655 25.4175 89.8028 25.2365C87.7417 24.9243 80.5705 25.5001 79.2488 24.9699C78.9041 24.6142 78.9817 24.817 78.9648 24.3589C79.5517 23.5402 89.0847 24.6177 91.1864 23.6335Z" fill="white"/>
<path d="M42.557 56.7726C52.0108 56.7306 61.4797 56.7194 70.9337 56.7386C73.3053 56.7433 75.0925 57.1705 77.4238 57.1679L105.455 57.1521C108.141 57.1478 124.194 56.8904 125.56 57.7295C125.792 58.1838 125.775 57.9818 125.641 58.4675C125.522 58.5531 125.403 58.6385 125.284 58.7239C121.905 58.9912 114.879 58.8701 111.804 58.8634C99.9549 58.8365 88.079 58.8308 76.2294 58.8404C74.3955 58.8418 72.5952 59.2298 70.817 59.239C63.7678 59.2755 56.6956 59.2531 49.648 59.25C48.337 59.2494 43.1229 59.3361 42.2243 59.1637C42.1249 58.951 42.0311 58.7651 41.9185 58.5562C40.7388 58.1915 31.1919 58.8124 29.0964 58.3298C28.8421 58.0233 28.9371 58.0149 28.9408 57.5774C29.9248 57.1536 39.3346 57.5922 41.0576 57.3838C42.0642 57.2619 41.913 57.4823 42.557 56.7726Z" fill="white"/>
<path d="M171.709 56.6179C177.05 56.4014 182.485 56.5694 187.834 56.5719C192.156 56.574 196.655 56.3668 200.96 56.6373C201.346 56.6617 201.638 56.718 201.985 56.8836C203.952 57.8256 211.773 57.1603 214.642 57.4209C214.971 57.7873 214.873 57.5768 214.872 58.096C214.799 58.1863 214.727 58.2765 214.655 58.3668C210.707 58.708 206.491 58.2415 202.549 58.5454C202.352 58.5606 202.249 58.9488 202.145 59.1793C200.567 59.9533 171.348 59.1218 167.38 58.8886C166.853 58.8575 165.808 58.8939 165.247 58.8971L137.227 58.9093L128.029 58.9278C126.96 58.9287 122.924 59.1101 122.251 58.5835C122.237 58.3314 122.189 58.0152 122.289 57.776C122.504 57.2648 125.366 57.1995 126.048 57.1451C131.195 56.7333 170.634 57.2917 171.163 57.0229C171.383 56.9115 171.383 56.7344 171.709 56.6179Z" fill="white"/>
<path d="M30.204 89.5825C32.1975 89.4898 37.8834 89.5809 40.2005 89.5846L60.3204 89.5841C70.5268 89.5799 80.7652 89.5745 90.9716 89.6052C94.1034 89.6147 97.2421 89.9731 100.396 89.9759C114.405 89.988 128.424 89.9362 142.432 89.9821L142.447 91.7074C133.425 91.9206 122.133 91.7451 112.973 91.7361C110.216 91.7369 97.6666 91.4501 96.1304 91.9659C95.9352 92.0313 95.7589 92.0938 95.5434 92.1411C94.2405 92.4262 36.564 92.2944 30.579 92.197C29.9655 92.187 29.5025 92.1667 28.9399 92.0316L28.7784 91.5714C27.8418 91.1658 5.24398 91.7415 1.51309 91.3408C1.17046 90.9819 1.25097 90.8887 1.33972 90.4938C2.68787 89.9999 24.8643 90.4999 28.1487 90.3011C29.7471 90.2042 29.2674 90.4267 30.204 89.5825Z" fill="white"/>
<path d="M29.0552 75.5646C42.9443 75.2337 57.2123 75.7222 71.138 75.5333C72.4866 75.515 73.8554 75.9216 75.3143 75.9274C86.0121 75.9698 96.7121 75.9061 107.409 75.9317C107.972 75.9331 108.946 75.9846 109.381 76.2563C109.592 76.3884 109.511 76.4918 109.517 76.7043C109.158 77.2289 108.73 77.3737 108.051 77.7169C101.49 77.8646 93.9041 77.7387 87.2619 77.7366C81.6373 77.7342 29.094 78.5922 27.9325 78.0256L27.889 77.5942C27.0289 76.7894 10.9554 77.7627 8.30898 77.2546C7.80979 77.1587 7.61545 76.9866 7.39404 76.6755L7.52024 76.4345C9.18472 75.6656 26.2685 76.7811 28.7772 76.0769L29.0552 75.5646Z" fill="white"/>
<path d="M152.008 75.5262C156.509 75.3958 161.789 75.4642 166.339 75.4641L190.391 75.4609C192.651 75.4607 206.996 75.3961 208.36 75.5786C208.516 75.6851 209.134 76.1053 209.365 76.1281C213.993 76.585 232.542 75.5731 235.728 76.3964C236.305 76.7744 236.184 76.5652 236.172 77.0321C234.472 77.8367 212.231 76.8106 209.819 77.4645C209.752 77.7766 209.793 77.8766 209.451 78.1208C203.305 78.3149 194.63 78.1621 188.294 78.1603L165.774 78.1695C161.631 78.1702 156.444 78.2469 152.378 78.0979C152.284 78.0316 151.852 77.7327 151.796 77.7317C142.503 77.5748 113.606 77.9835 106.315 77.6806C106.058 77.553 105.803 77.4227 105.553 77.2898C104.877 76.9245 104.733 76.8016 104.711 76.3442C106.005 75.6024 115.839 75.8819 118.114 75.8862L141.418 75.9139C143.686 75.9154 150.373 76.1254 152.008 75.5262Z" fill="white"/>
<path d="M90.1003 141.779C91.3439 141.593 96.5958 141.681 98.0791 141.68L115.099 141.701L140.689 141.681C146.295 141.682 151.947 141.474 157.497 142.146C159.362 142.371 163.794 141.853 165.336 142.272C165.588 142.713 165.602 142.577 165.526 142.965C164.582 143.53 156.267 143.133 154.448 143.306L154.244 143.327C153.729 143.707 152.585 143.723 151.932 143.72C141.986 143.681 132.041 143.808 122.098 143.529C119.981 143.47 117.735 143.675 115.596 143.68C107.986 143.696 100.374 143.696 92.7649 143.739C91.4511 143.747 89.9593 143.141 88.6046 143.219C87.0055 143.134 80.208 143.386 79.1007 143.116C78.8665 142.773 78.9051 142.955 78.975 142.551C79.1977 142.319 79.3347 142.152 79.6952 142.147C83.242 142.09 86.5839 142.406 90.1003 141.779Z" fill="white"/>
<path d="M174.98 89.5934C188.897 89.4585 202.86 89.6344 216.78 89.5687C218.287 89.5616 219.889 89.5451 221.387 89.6251C222.286 90.6414 224.386 90.3033 225.978 90.3057L236.945 90.3436C238.37 90.3434 241.148 90.0484 242.242 90.6511C242.472 91.0954 242.453 90.8743 242.295 91.3378C240.651 91.9074 225.875 91.1215 222.475 91.5505C222.335 91.7464 222.199 91.9436 222.066 92.1426C220.662 92.3875 209.588 92.2986 207.451 92.2962L173.85 92.2737C173.613 92.1262 173.525 92.0106 173.381 91.8086C171.556 91.6554 165.798 91.8025 163.659 91.7843C155.735 91.7168 147.627 91.9236 139.713 91.7534L139.588 90.0308C142.253 89.8935 145.68 89.9612 148.395 89.9624L163.25 89.9685C166.35 89.969 169.592 90.0187 172.682 89.8912C173.089 89.8744 174.348 89.6574 174.98 89.5934Z" fill="white"/>
<path d="M83.2819 137.473C84.5287 137.219 84.0213 136.994 85.6346 136.979L138.087 137.015L152.045 137.006C154.102 137.003 158.77 136.835 160.542 137.285C161.18 137.485 161.124 137.356 161.442 137.788C161.159 138.264 160.759 138.254 160.234 138.338C159.792 138.707 159.625 138.905 159.027 138.923C154.944 139.037 150.856 138.991 146.772 138.984L99.5523 138.989L89.4118 139.017C88.0282 139.021 86.2958 139.063 84.9027 138.94C84.6261 138.916 84.5722 138.637 84.4257 138.347C83.8357 138.157 83.6515 138.33 83.2695 137.976L83.2819 137.473Z" fill="white"/>
<path d="M173.682 70.9204C175.177 70.7938 178.047 70.844 179.642 70.843L190.189 70.8408L203.747 70.8334C206.116 70.8336 209.834 70.781 212.141 70.9395C212.375 71.06 213.001 71.3925 213.298 71.3983C219.547 71.5218 225.972 71.275 232.193 71.5953C232.385 71.7013 232.549 71.7906 232.679 71.863C232.411 72.3245 231.298 72.5416 230.678 72.5523C229.303 72.5762 227.92 72.5317 226.538 72.5392C222.693 72.5606 218.844 72.5111 215.001 72.525C214.665 72.5262 213.182 72.5262 212.972 72.7112C212.86 72.8092 213.05 72.9621 212.599 73.308C210.448 73.4152 207.463 73.344 205.256 73.3413L192.307 73.3384C186.714 73.338 181.099 73.3423 175.503 73.3166C173.915 73.3095 172.558 72.8374 170.892 72.8394L146.545 72.916C142.594 72.922 137.768 73.0224 133.876 72.8628C133.811 72.3487 133.802 71.8322 133.781 71.3158C136.338 71.0601 140.616 71.1677 143.373 71.1769L160.952 71.1713C164.807 71.1754 169.947 71.3225 173.682 70.9204Z" fill="white"/>
<path d="M37.2074 70.8547C43.5022 70.697 136.688 71.217 137.063 71.3344C137.497 71.735 137.319 72.3328 137.281 72.8445C129.056 73.0197 119.702 72.9024 111.412 72.9081C104.65 72.9001 97.8769 72.869 91.1137 72.8749C88.4082 72.8582 85.7631 73.2984 83.0601 73.3092C74.7126 73.343 66.3537 73.3339 58.0069 73.3333L44.81 73.3133C43.3983 73.3162 36.875 73.5008 36.12 73.1683L36.0278 72.6816C35.0711 72.2139 15.6674 72.6747 12.3656 72.4888C11.7506 72.4542 11.5688 72.4051 11.1846 72.1292L11.2637 71.7317C12.5417 71.0617 32.4328 71.6282 35.3711 71.4178C36.6243 71.328 36.318 71.4416 37.2074 70.8547Z" fill="white"/>
<path d="M174.242 80.3804C176.279 80.2698 179.417 80.3235 181.537 80.3219L194.505 80.3166L209.805 80.3175C212.454 80.3185 215.792 80.2558 218.4 80.3548C219.177 81.2857 221.305 80.7603 222.616 80.8816C225.077 81.1089 237.235 80.5297 238.648 81.0105C238.76 81.3706 238.784 81.3651 238.672 81.7437C238.13 82.0533 234.456 81.9204 233.504 81.9217L223.132 81.9443C222.107 81.9475 220.286 81.9059 219.277 82.0479C219.072 82.0767 219.024 82.4002 218.948 82.599C218.473 82.9192 216.825 82.8036 216.084 82.8044C212.053 82.8085 208.021 82.806 203.988 82.8054L183.915 82.8084C180.988 82.81 177.986 82.8208 175.074 82.8406C174.264 82.8462 173.938 82.3244 171.387 82.3197L151.223 82.3915C147.651 82.3997 143.508 82.4641 139.984 82.3023C139.806 81.8281 139.714 81.2267 139.616 80.7323C148.474 80.6005 157.384 80.7332 166.247 80.6742C169.017 80.6557 171.502 80.7986 174.242 80.3804Z" fill="white"/>
<path d="M33.9967 80.3689C35.0977 80.2432 47.7366 80.3242 50.0505 80.328L102.525 80.6606C106.965 80.6748 142.23 80.5479 143.178 80.7765C143.721 80.9076 143.724 80.9993 143.922 81.2676C143.781 81.7529 143.682 81.801 143 82.1577C140.992 82.5924 117.77 82.3689 114.074 82.3593C108.431 82.332 100.959 82.0719 95.6977 82.6855C93.7139 82.9168 89.3356 82.8208 87.0799 82.821L72.4087 82.8223L46.891 82.8236C42.655 82.8249 38.373 82.8407 34.1371 82.8231C33.1976 82.8191 33.3385 82.8262 32.6118 82.6001C32.5581 82.4814 32.3582 81.972 32.0457 81.9664C30.4965 81.9382 28.9457 81.929 27.3959 81.9307L12.4683 81.9553C10.8718 81.9544 6.47665 81.9892 5.10442 81.8546C4.67928 81.5499 4.84046 81.5666 4.88173 81.0917C6.37828 80.5686 28.391 81.1075 32.0984 80.8809C33.4133 80.8005 33.183 80.9271 33.9967 80.3689Z" fill="white"/>
<path d="M145.874 85.0501C158.24 84.7816 173.338 85.0123 186.03 85.0079L202.02 84.9989C204.386 84.9962 208.595 84.9261 210.851 85.0477C211.028 85.3305 211.055 85.3688 211.333 85.6276C213.613 85.7232 217.027 85.6554 219.419 85.6495L232.768 85.6485C235.166 85.6465 238.472 85.5623 240.744 85.7522C241.16 86.0475 241.012 86.0281 241.012 86.4897C239.882 86.9837 234.153 86.8104 232.363 86.812L217.372 86.825C216.1 86.8262 213.721 86.7777 212.461 86.9084C212.209 86.9346 212.116 87.2666 212.011 87.4493C211.172 87.7962 194.336 87.6712 191.868 87.6694C176.995 87.6678 162.087 87.6622 147.214 87.6728C145.245 87.6742 143.702 87.1613 140.982 87.1433C126.243 87.0461 111.169 87.3045 96.4649 87.1116L96.3872 85.4046L125.351 85.3887C131.998 85.3946 139.399 85.5617 145.874 85.0501Z" fill="white"/>
<path d="M36.4941 66.6436C36.5907 66.4783 36.7424 66.1999 36.9498 66.111C38.3149 65.5253 44.084 65.7675 45.3243 65.9368L71.0706 65.9469C72.4835 65.9467 77.1795 65.9269 78.8918 65.9792C79.0024 65.9826 79.4194 66.3418 79.5259 66.4338C80.3026 66.557 81.1808 66.4747 81.7165 66.5213C86.2281 66.9139 117.552 65.932 119.574 66.7125C119.748 67.1363 119.736 67.1136 119.569 67.5447C118.952 68.0388 118.058 68.214 117.145 68.2114C105.584 68.1775 94.0207 68.1919 82.4587 68.1995C79.6435 68.2013 77.0233 68.6474 74.2258 68.7128C64.8215 68.7663 55.3825 68.7367 45.9782 68.7295C44.7433 68.7285 37.6628 68.7409 36.8276 68.5862C36.5761 68.2714 36.5891 68.2461 36.4807 67.9056C35.7881 67.5776 22.2638 67.9787 20.5882 67.8078C19.1626 67.6623 16.9132 68.2267 15.9487 67.2559L16.0063 66.9711C17.5379 66.4637 33.5911 66.6619 36.4941 66.6436Z" fill="white"/>
<path d="M30.1919 66.7118C30.2588 66.5509 30.3641 66.2797 30.5078 66.1931C31.4542 65.6227 35.4536 65.8586 36.3135 66.0235C35.0351 67.1858 32.1256 66.6384 30.1919 66.7118Z" fill="white"/>
<path d="M45.9837 61.3537C56.4547 61.3509 66.9258 61.3462 77.3967 61.3595C78.9108 61.3574 80.4119 61.5056 81.9139 61.6153C84.319 61.7909 86.7533 61.7439 89.1676 61.7475L111.077 61.7474C114.883 61.7414 118.747 61.7197 122.556 61.7444C123.496 61.7506 123.578 61.8084 124.126 62.1549C124.179 62.808 123.071 63.6658 122.047 63.6905C119.558 63.7508 117.055 63.7136 114.563 63.7023C109.926 63.6784 105.289 63.6812 100.653 63.7106C94.9079 63.7143 89.1431 63.6812 83.3993 63.7035C81.619 63.7104 79.4258 64.0408 77.6701 64.0506C71.3871 64.0858 64.8139 64.1088 58.5628 64.1099C56.4067 64.1102 47.1328 64.1943 45.783 63.94C44.9534 63.0191 44.891 63.0971 43.4675 63.0558C40.8466 62.9797 24.2384 63.4108 23.2333 62.8783L23.1494 62.3288C24.3107 61.4678 43.189 62.6079 45.7148 61.8989L45.9837 61.3537Z" fill="white"/>
<path d="M23.0356 85.1504L100.555 85.5197L100.441 87.14C93.4381 87.179 86.4348 87.1864 79.4317 87.1621C76.2345 87.1505 72.9349 87.1042 69.7421 87.2017C68.5504 87.2406 67.2957 87.6687 66.1085 87.6696C52.1981 87.6792 38.2831 87.6204 24.3734 87.692C21.8323 87.7051 22.7547 86.7597 20.2004 86.8206C17.0277 86.8961 13.825 86.8718 10.6512 86.8535C8.85352 86.796 4.08848 87.085 2.69936 86.715C2.54785 86.3626 2.54368 86.389 2.67305 86.0331C4.23109 85.1764 18.7643 86.2166 22.1531 85.6854C22.7183 85.5968 22.723 85.4961 23.0356 85.1504Z" fill="white"/>
<path d="M164.508 61.409C166.85 61.3237 169.296 61.3527 171.875 61.3736C180.448 61.4429 189.224 61.2005 197.787 61.5228C198.154 62.0025 198.229 61.9562 198.879 62.0074C202.204 62.2697 218.97 61.5644 220.723 62.4589C220.274 62.8628 219.168 63.0938 218.446 63.0947C212.153 63.1019 205.843 63.0224 199.552 63.0961C197.689 63.118 198.792 63.4565 197.999 64.0006C191.959 64.2538 182.444 64.0391 176.168 64.0269C173.11 64.0223 168.95 64.1674 165.984 63.9719C159.247 63.5282 152.769 63.6574 145.993 63.6588L130.583 63.6818C127.866 63.6881 123.842 63.774 121.249 63.5956C120.617 63.1627 119.663 62.6651 119.751 62.0402C121.914 61.5229 129.566 61.7863 132.308 61.7526C143.066 61.6203 153.8 62.0868 164.508 61.409Z" fill="white"/>
<path d="M95.4999 18.7806C97.2414 18.624 100.824 18.7384 102.708 18.7406L116.917 18.7473L135.523 18.7442C138.377 18.7437 142.484 18.6223 145.261 18.7856C145.35 18.8889 145.421 18.9853 145.494 19.1018C145.923 19.7883 156.54 18.6277 158.234 19.4775C158.515 19.6195 158.517 19.6918 158.61 19.974C158.047 20.9156 147.867 19.8772 146.293 20.6132C145.941 20.7773 146.22 20.803 145.556 20.8863C135.111 21.0955 124.052 20.9163 113.551 20.9144L101.802 20.9163C99.8798 20.9214 97.891 20.9515 95.9732 20.9276C95.3545 20.9199 94.0526 20.4147 93.2218 20.3648C90.0403 20.1737 85.1839 20.6427 82.1252 20.2775C81.8846 19.9823 81.9664 19.9595 81.9385 19.4826C82.557 18.8272 93.9425 19.7448 95.0631 19.1649C95.2021 19.0929 95.3768 18.8889 95.4999 18.7806Z" fill="white"/>
<path d="M97.517 146.497C98.3795 146.295 101.49 146.424 102.559 146.428L113.039 146.451L135.576 146.439C139.266 146.439 142.978 146.436 146.671 146.442C148.068 146.444 146.058 146.873 148.002 147.055C149.377 147.183 158.925 146.796 159.531 147.28C159.58 147.711 159.628 147.522 159.399 147.871C158.387 148.39 148.852 148.15 146.988 148.177C146.263 148.17 145.616 148.383 144.831 148.427C143.38 148.507 141.951 148.489 140.5 148.488L114.221 148.474C109.828 148.473 105.406 148.492 101.015 148.472C99.2969 148.433 97.5857 148.177 95.8673 148.148C93.3729 148.109 90.8744 148.158 88.3799 148.147C87.3635 148.142 86.0542 148.217 85.0815 147.944C84.9414 147.597 84.967 147.592 85.0251 147.234C86.1037 146.805 95.0059 147.278 96.7627 147.013C97.2923 146.933 97.1972 146.932 97.517 146.497Z" fill="white"/>
<path d="M202.249 65.9229C204.71 65.7896 210.463 65.5389 212.621 66.0351C213.027 66.283 213.038 66.2656 213.259 66.5819L212.304 66.6714C212.846 66.733 213.385 66.7981 213.925 66.8671C213.364 67.1483 213.38 67.0459 213.314 67.371C213.656 67.6042 213.496 67.5485 213.939 67.6692C212.605 67.8441 213.638 68.0903 212.682 68.5312C209.718 68.7255 205.809 68.677 202.744 68.687L186.648 68.7052C179.768 68.7024 170.742 68.9054 164.021 68.4109C159.834 68.1028 157.431 68.1604 153.276 68.1554L130.295 68.1813C127.005 68.1971 117.757 68.6464 115.317 67.4799L115.271 67.1182C116.019 66.7429 116.895 66.6109 117.842 66.5396C123.31 66.1279 161.223 66.943 162.61 66.3341C163.048 66.1416 163.438 65.9892 163.992 65.9495C167.604 65.6912 171.992 65.9221 175.675 65.9231L202.249 65.9229Z" fill="white"/>
<path d="M207.033 66.0248C208.487 65.8941 211.886 65.6484 213.16 66.1347C213.4 66.3777 213.407 66.3606 213.537 66.6707L212.973 66.7584C210.6 66.3533 210.165 67.3146 207.033 66.0248Z" fill="white"/>
<path d="M101.465 13.9223C110.174 13.8072 119.048 13.9278 127.773 13.9143L135.373 13.8956C136.189 13.8937 138.571 13.8462 139.226 13.9756L139.374 14.3428C140.464 14.9855 153.681 13.6872 154.477 14.9629C154.454 14.9972 154.435 15.0353 154.407 15.0658C153.57 15.973 143.056 15.5083 141.113 15.6267C140.373 15.6718 140.051 16.0659 139.359 16.1497C126.758 16.2939 114.126 16.0581 101.521 16.2073C100.957 16.2139 100.202 15.6703 99.2338 15.5755C96.7419 15.3314 87.4394 16.1765 85.7508 15.0984L85.7314 14.7919C86.9126 14.0523 98.455 14.6468 100.549 14.4284C101.167 14.3638 101.047 14.3951 101.465 13.9223Z" fill="white"/>
<path d="M116.19 9.59903C117.185 8.61205 123.732 8.55319 124.687 9.61681C127.16 9.55228 148.591 9.41664 149.177 9.75299C149.367 9.86278 149.367 10.0974 149.421 10.3023L149.216 10.5333C148.77 10.707 148.247 10.7906 147.768 10.7883C142.76 10.7641 137.749 10.7386 132.743 10.7903C131.22 10.806 129.647 11.2184 128.098 11.221C122.733 11.2302 117.37 11.1916 112.006 11.2718C110.849 11.1967 109.697 10.8088 108.533 10.7978C103.166 10.7463 97.7958 10.7777 92.4291 10.766C91.7636 10.7645 90.8653 10.6903 90.9344 9.88433C91.5936 9.41516 113.831 9.59606 116.19 9.59903Z" fill="white"/>
<path d="M116.19 9.59903C117.185 8.61205 123.732 8.55319 124.687 9.61681L116.19 9.59903Z" fill="white"/>
<path d="M74.8392 138.41C74.3697 138.971 71.8243 138.79 71.0251 138.791L63.4843 138.795L34.8638 138.802C33.638 138.801 24.2839 138.923 23.7695 138.575L23.7835 138.22C24.1431 137.809 24.8013 137.703 25.3313 137.71C32.6854 137.795 40.0447 137.668 47.3998 137.699C48.8095 137.826 50.5247 136.985 51.8725 137.074C53.0343 137.151 54.434 137.479 55.638 137.609C56.5224 137.501 59.5457 137.566 60.5298 137.566L71.1497 137.579C74.2404 137.566 77.2985 137.261 80.4018 137.361C81.2312 137.388 82.5105 137.308 83.2824 137.473L83.27 137.975C83.6519 138.329 83.8362 138.157 84.4262 138.347C82.6947 138.406 76.0162 138.184 74.8392 138.41Z" fill="white"/>
<path d="M55.6377 137.61C56.5221 137.502 59.5454 137.567 60.5295 137.567L71.1494 137.58C74.2401 137.567 77.2982 137.262 80.4015 137.362C81.2309 137.389 82.5102 137.309 83.2821 137.474L83.2697 137.976C83.6516 138.33 83.8359 138.158 84.4259 138.348C82.6944 138.407 76.0159 138.185 74.8389 138.411L74.5183 137.829C74.0829 137.598 71.4927 137.736 70.7697 137.739L60.0452 137.732C59.0589 137.732 56.4358 137.787 55.6377 137.61Z" fill="white"/>
<path d="M92.4195 151.902C96.864 151.735 102.187 151.86 106.725 151.856L134.412 151.862C136.846 151.863 151.327 151.668 152.239 151.976C152.487 152.341 152.411 152.213 152.355 152.772L152.124 152.916L107.399 152.945C105.787 152.945 92.9931 153.083 92.2795 152.827C92.0148 152.472 92.0948 152.6 92.1057 152.055L92.4195 151.902Z" fill="white"/>
<path d="M169.263 137.492L169.438 137.508C170.605 137.613 171.836 137.59 173.012 137.592C178.196 137.594 183.38 137.585 188.564 137.512C189.775 137.495 191.161 137.002 192.392 136.981C194.012 136.977 193.524 137.689 195.399 137.699C201.429 137.734 207.46 137.693 213.49 137.752C215.204 137.768 216.882 137.703 218.592 137.687C218.954 137.685 219.348 137.795 219.675 137.954C219.986 138.345 219.919 138.133 219.927 138.595C219.414 138.944 210.59 138.796 209.128 138.796L180.457 138.804L173.055 138.805C172.406 138.805 169.71 138.867 169.282 138.667C169.186 138.156 169.212 138.015 169.263 137.492Z" fill="white"/>
<path d="M97.9836 4.91105C107.14 4.6508 117.244 4.86512 126.46 4.8666L136.941 4.86889C138.317 4.8697 141 4.78766 142.223 4.92062C142.544 5.24485 142.44 5.36271 142.46 5.93278C132.676 6.09833 122.459 5.96093 112.656 5.95918L102.988 5.95487C101.873 5.95339 99.1108 6.01279 98.1832 5.88577C97.8966 5.58551 97.9937 5.43007 97.9836 4.91105Z" fill="white"/>
<path d="M105.147 156.609C107.483 156.51 110.325 156.574 112.704 156.574L126.872 156.577C130.528 156.577 134.185 156.573 137.843 156.584C138.53 156.585 139.303 156.458 139.632 157.12C139.552 157.422 139.546 157.4 139.33 157.633C128.188 157.806 116.999 157.513 105.853 157.687C105.324 157.695 104.979 157.632 104.819 157.116C104.932 156.815 104.914 156.826 105.147 156.609Z" fill="white"/>
<path d="M39.5632 142.337C47.3057 142.17 55.1384 142.361 62.8869 142.335C63.1803 142.335 63.4447 142.399 63.659 142.602C63.634 143.098 63.7132 143.016 63.4672 143.351C62.671 143.548 61.0594 143.467 60.1795 143.456L43.6324 143.457C42.4528 143.457 36.9271 143.534 36.002 143.299C35.8775 142.947 35.8833 143.129 36.0572 142.735C36.887 142.178 38.5019 142.337 39.5632 142.337Z" fill="white"/>
<path d="M184.858 142.342C189.922 142.302 194.984 142.292 200.048 142.315C201.126 142.317 207.355 142.158 207.742 142.709L207.615 143.057C206.745 143.707 204.146 143.471 202.978 143.455L187.195 143.459C186.016 143.459 180.885 143.541 180.071 143.307L179.943 143.052L180.061 142.723C180.87 142.116 183.733 142.333 184.858 142.342Z" fill="white"/>
<path d="M110.33 0.08713C116.147 -0.157896 122.162 0.26238 127.998 0.0300162C128.732 0.0007855 130.164 -0.105496 130.752 0.387385C130.876 0.869355 130.873 0.629582 130.725 1.13257L130.333 1.20504C128.152 1.23251 110.132 1.46367 109.592 0.958932C109.586 0.592942 109.664 0.515218 109.844 0.200955L110.33 0.08713Z" fill="white"/>
<path d="M169.094 24.0646C174.34 23.8738 179.705 24.2053 184.961 24.0119C185.681 23.9854 187.664 23.8209 188.045 24.444C188.005 24.8423 187.968 24.8456 187.743 25.1658L187.183 25.2249L174.064 25.2514C173.062 25.2528 168.952 25.3259 168.153 25.1425C167.97 24.7696 168.002 24.7107 168.044 24.2774C168.316 24.052 168.721 24.0848 169.094 24.0646Z" fill="white"/>
<path d="M55.8578 24.0638C60.007 23.9865 64.272 24.0842 68.4319 24.0318C69.6368 24.0168 74.7031 23.9444 75.5709 24.1569C75.7803 24.5397 75.6925 24.7343 75.6739 25.2214C70.4129 25.2432 61.5443 25.3055 55.9582 25.1954C55.8969 25.1352 55.8357 25.075 55.7744 25.0148C55.7279 24.5616 55.7355 24.503 55.8578 24.0638Z" fill="white"/>
<path d="M215.992 128.208C219.227 128.134 222.619 128.223 225.868 128.216C227.203 128.212 230.334 128.148 231.547 128.284C231.812 128.568 231.722 128.393 231.73 128.867C231.231 129.458 230.392 129.379 229.655 129.33C225.424 129.054 220.676 129.611 216.479 129.321C216.791 129.068 216.811 128.986 216.844 128.627C216.522 128.241 216.593 128.361 215.992 128.208Z" fill="white"/>
<path d="M213.538 66.6699C217.828 67.0013 223.321 66.4143 227.514 66.8456C227.765 67.1442 227.684 66.9656 227.671 67.434C227.064 67.9958 225.763 67.9413 224.963 67.8806C221.571 67.6238 217.232 68.2664 213.939 67.7356C213.678 67.6173 213.772 67.6719 213.57 67.4433C213.609 67.1247 213.6 67.225 213.931 66.9494C213.612 66.8818 213.294 66.818 212.973 66.7576L213.538 66.6699Z" fill="white"/>
<path d="M160.543 137.284C162.168 137.378 168.351 137.224 169.263 137.492C169.212 138.014 169.186 138.156 169.282 138.666C168.533 138.06 161.862 138.409 160.234 138.338C160.76 138.254 161.16 138.263 161.443 137.788C161.125 137.356 161.18 137.485 160.543 137.284Z" fill="white"/>
</svg>
