<svg width="200" height="200" viewBox="0 0 200 200" fill="none" xmlns="http://www.w3.org/2000/svg">
<path d="M29.167 130.565C32.917 131.015 35.6948 132.732 37.5003 135.715C40.217 140.19 50.3087 156.765 61.7753 156.765H79.167M126.434 127.49C131.006 133.479 133.292 138.857 133.292 143.624V174.999M86.417 128.257C81.5837 133.557 79.1698 138.593 79.1753 143.365V174.999" stroke="white" stroke-width="2.5" stroke-linecap="square"/>
<path d="M126.433 127.492C136.45 125.409 145.542 121.809 152.6 116.526C164.667 107.492 170.833 93.5424 170.833 79.7674C170.833 70.1008 167.167 61.0758 160.8 53.4341C157.258 49.1758 167.625 21.1674 158.417 25.4424C149.208 29.7258 135.708 35.4258 128.633 33.3341C121.058 31.1008 112.8 29.8674 104.167 29.8674C96.6667 29.8674 89.45 30.7924 82.7167 32.5091C72.9333 34.9924 63.5833 29.4841 54.1667 25.4424C44.75 21.4091 49.8917 50.5091 47.0917 53.9591C41.0083 61.5008 37.5 70.3341 37.5 79.7674C37.5 93.5424 44.9583 107.492 57.025 116.517C65.0667 122.534 75.1417 126.376 86.4167 128.267" stroke="white" stroke-width="2.5" stroke-linecap="square"/>
</svg>
