<svg width="200" height="200" viewBox="0 0 200 200" fill="none" xmlns="http://www.w3.org/2000/svg">
<circle cx="100" cy="100" r="98.5" stroke="white" stroke-width="3" stroke-linecap="square"/>
<path d="M99.999 1.5C103.512 1.50003 107.147 3.83087 110.699 8.73828C114.226 13.6117 117.466 20.7601 120.211 29.7285C125.696 47.647 129.111 72.492 129.111 100C129.111 127.508 125.696 152.353 120.211 170.271C117.466 179.24 114.226 186.388 110.699 191.262C107.147 196.169 103.512 198.5 99.999 198.5C96.4857 198.5 92.8506 196.169 89.2988 191.262C85.7717 186.388 82.5326 179.24 79.7871 170.271C74.3019 152.353 70.8867 127.508 70.8867 100C70.8867 72.492 74.3019 47.647 79.7871 29.7285C82.5326 20.7601 85.7717 13.6117 89.2988 8.73828C92.8506 3.83084 96.4857 1.5 99.999 1.5Z" stroke="white" stroke-width="3" stroke-linecap="square"/>
<path d="M198.5 99.6875C198.5 103.201 196.169 106.836 191.262 110.388C186.388 113.915 179.24 117.154 170.271 119.899C152.353 125.385 127.508 128.8 100 128.8C72.492 128.8 47.647 125.385 29.7285 119.899C20.7601 117.154 13.6117 113.915 8.73828 110.388C3.83087 106.836 1.50003 103.201 1.5 99.6875C1.5 96.1742 3.83084 92.5391 8.73828 88.9873C13.6117 85.4602 20.7601 82.221 29.7285 79.4756C47.647 73.9904 72.492 70.5752 100 70.5752C127.508 70.5752 152.353 73.9904 170.271 79.4756C179.24 82.221 186.388 85.4602 191.262 88.9873C196.169 92.5391 198.5 96.1742 198.5 99.6875Z" stroke="white" stroke-width="3" stroke-linecap="square"/>
</svg>
