<svg width="203" height="200" viewBox="0 0 203 200" fill="none" xmlns="http://www.w3.org/2000/svg">
<path d="M201.5 123.53C201.5 154.72 175.92 180 144.36 180H91.5M125.31 70.27C131.436 68.1426 137.875 67.0575 144.36 67.06C150.9 67.06 157.19 68.15 163.06 70.15M163.06 70.15C159.87 41.94 135.66 20 106.26 20C74.7 20 49.12 45.28 49.12 76.47C49.117 83.1691 50.316 89.8144 52.66 96.09M163.06 70.15C169.807 72.4529 176.062 76.0009 181.5 80.61M52.66 96.09C49.9249 95.5612 47.1458 95.2933 44.36 95.29C20.69 95.3 1.5 114.26 1.5 137.65C1.5 161.04 20.69 180 44.36 180H51.5M52.66 96.09C58.1922 97.1671 63.4588 99.3213 68.16 102.43" stroke="white" stroke-width="3" stroke-linecap="square"/>
</svg>
