<svg width="203" height="203" viewBox="0 0 203 203" fill="none" xmlns="http://www.w3.org/2000/svg">
<path d="M101.497 38.7484C100.663 57.3149 95.4448 69.1545 82.304 82.2972C69.1607 95.4423 57.3184 100.662 38.7484 101.497M101.497 38.7484C102.335 57.3158 107.559 69.1625 120.703 82.304C133.846 95.4455 145.684 100.665 164.252 101.503M101.497 38.7484C101.497 24.202 101.497 1.5 101.497 1.5M38.7484 101.497C57.3185 102.331 69.1608 107.551 82.304 120.696C95.4481 133.842 100.667 145.687 101.497 164.258M38.7484 101.497C24.202 101.497 1.5 101.497 1.5 101.497M101.497 164.258C102.336 145.688 107.557 133.847 120.703 120.703C133.846 107.561 145.684 102.342 164.252 101.503M101.497 164.258C101.497 178.805 101.497 201.507 101.497 201.507M164.252 101.503C178.798 101.503 201.5 101.503 201.5 101.503" stroke="white" stroke-width="3" stroke-linecap="square"/>
</svg>
