<svg width="203" height="200" viewBox="0 0 203 200" fill="none" xmlns="http://www.w3.org/2000/svg">
<path d="M33.7565 82.6617C34.2427 82.1689 34.5453 81.5243 34.6137 80.8354C35.906 66.0299 48.4038 54.4142 63.6298 54.4142C67.4213 54.3749 71.1818 55.1005 74.6865 56.5476C75.9583 57.081 77.3942 56.5886 78.2558 55.5117C87.1124 44.4806 100.764 37.542 116.088 37.542C139.652 37.542 159.586 54.2142 163.909 76.3943C164.044 77.093 164.408 77.7271 164.943 78.1969C165.477 78.6666 166.153 78.9453 166.863 78.9892C186.207 80.4508 201.5 98.5589 201.5 120.677C201.5 143.75 184.859 162.458 164.325 162.458H35.3368C16.6491 162.458 1.5 144.755 1.5 122.919C1.5 102.313 14.7362 85.3791 31.9418 83.5432C32.6297 83.4656 33.2702 83.1545 33.7565 82.6617Z" stroke="white" stroke-width="3" stroke-linecap="square"/>
</svg>
