<?xml version="1.0" encoding="UTF-8"?>
<svg width="140px" height="140px" viewBox="0 0 140 140" version="1.1" xmlns="http://www.w3.org/2000/svg" xmlns:xlink="http://www.w3.org/1999/xlink">
    <title>AI</title>
    <g id="AI" stroke="none" stroke-width="1" fill="none" fill-rule="evenodd">
        <rect fill="#424242" x="0" y="0" width="140" height="140"></rect>
        <g id="Group" transform="translate(24.000000, 23.000000)" fill="#FFFFFF" fill-rule="nonzero">
            <path d="M58.5590447,65.7791776 C61.7540915,67.9572317 63.6899139,71.4590171 63.5677504,75.1673421 C63.407998,79.9740823 59.912241,84.0391575 53.8228577,86.1139418 C53.7570773,90.4794383 50.1955399,94 45.8070491,94 C41.3809696,94 37.7912406,90.4137212 37.7912406,85.9918957 C37.7912406,81.5700702 41.3809696,77.9837914 45.8070491,77.9837914 C48.861138,77.9837914 51.5205445,79.6924373 52.8737408,82.2084654 C55.0163016,81.4386359 56.6514138,80.3965497 57.7790774,79.1667001 C58.9255353,77.9180742 59.5175587,76.5004614 59.5645447,75.0359077 C59.6679139,72.1255768 57.619325,69.2903511 54.3772923,68.1074424 L54.414881,68.0135607 C53.4375726,68.4735808 52.4320726,68.8960482 51.398381,69.2809629 C45.4781472,71.5247342 38.9940817,72.538656 33.2148059,72.2288466 C27.3133665,71.909649 22.5113992,70.2291675 19.9365674,67.3188365 C17.3711327,64.4272819 17.2207776,60.7189569 19.4479131,56.7477633 C17.5872682,56.2783551 15.9709505,55.3958677 14.6647402,54.1472418 C10.7555064,54.8982949 7.23155778,53.4055768 4.60034278,50.1948245 C2.28863246,47.368987 0.747492242,43.3133 0.211852045,38.919639 C-0.333185347,34.5165898 0.17426326,30.075988 1.72480067,26.4990974 C3.30352967,22.8564896 5.88775869,20.2465798 9.32713258,19.0918356 C10.0977027,13.9001806 12.0053336,9.80694093 14.8902729,6.91538627 C17.7376234,4.07077244 21.4119272,2.53111346 25.3681469,2.34335017 C28.5913853,2.19313954 31.7582405,2.9441927 34.4364414,4.35241737 C37.1710256,1.42331005 41.6440911,-0.332276705 46.088965,0.0526380389 C49.9981987,0.400000125 53.5597362,2.28702119 56.4728671,5.6667604 C60.344512,4.3711937 64.9115495,4.11771326 68.7644,5.38511546 C72.2413627,6.53047153 74.9665496,8.8117955 76.705031,12.2384755 C81.9110778,13.7030292 86.5063069,16.9607223 88.4703209,21.0727383 C90.4249378,25.1847544 90.6316761,29.9070011 88.8650032,34.4227082 C92.4829238,39.0229088 93.0467556,45.5476831 90.1524191,50.4952458 C88.5079097,53.302307 85.8860919,55.3770913 82.5218956,56.4191776 C78.9227693,57.526981 74.5906618,57.4330993 69.6853252,56.043651 C69.4503953,55.9779339 69.2342598,55.874664 69.0463159,55.7338416 C68.5670589,56.4285657 68.0596103,57.1232899 67.5239701,57.8180141 C65.1182878,60.9442729 62.0735961,63.6011234 58.5590447,65.7791776 Z M23.986759,57.1045136 C22.6805487,58.841324 22.0133478,60.380983 21.9005814,61.6765497 C21.8066094,62.8125176 22.1449085,63.7794985 22.9248758,64.661986 C24.6633572,66.6241124 28.4880161,67.9572317 33.4215442,68.2294885 C38.6463854,68.5111334 44.5666192,67.5817052 49.9700071,65.5350853 C55.9090353,63.2819258 60.917741,59.8270813 64.3571149,55.3864795 C67.6461336,51.133641 69.4879841,47.2375527 69.9390495,43.6982147 C66.4338953,42.8345036 63.8402691,39.6800803 63.8402691,35.9154264 C63.8402691,31.4936009 67.4299981,27.9073221 71.8560776,27.9073221 C76.2821571,27.9073221 79.8718862,31.4936009 79.8718862,35.9154264 C79.8718862,39.604975 77.3722319,42.7124574 73.9704468,43.6418857 C73.6979281,46.4301706 72.7582085,49.3217252 71.1606851,52.2977734 C75.1920824,53.3868005 78.6126619,53.4337413 81.3378488,52.5888065 C83.7529283,51.8471415 85.55719,50.4107523 86.6942508,48.4767904 C88.9025919,44.7027483 88.2541854,39.5017052 85.077933,36.1689068 C84.504704,35.5680643 84.3637461,34.6855768 84.7208395,33.9345237 C86.5063069,30.1510934 86.4781153,26.2080643 84.8524003,22.8001606 C83.7059423,20.3967905 81.347246,18.312618 78.3495404,17.0076631 C78.4717039,17.570953 78.5656759,18.143631 78.6502506,18.7444735 C78.8006058,19.8428888 78.0300357,20.8474224 76.9399609,20.997633 C75.8404889,21.1478436 74.8349889,20.3780141 74.6846337,19.2889871 C73.9140636,13.637312 71.3768206,10.4735006 67.5145729,9.19671024 C64.9209467,8.34238728 61.7540915,8.39871626 58.9161381,9.12160493 C59.5269559,10.1636912 60.0907877,11.2996591 60.6076335,12.5201205 C61.0399045,13.5434304 60.5606475,14.716951 59.5363531,15.1394184 C58.5120587,15.5712739 57.3374091,15.0924775 56.9145353,14.0691676 C55.4767642,10.6612639 53.6631053,8.13584766 51.5863249,6.46475438 C49.7820632,5.00958888 47.7992548,4.2115949 45.7412687,4.03321978 C42.7341659,3.77035117 39.6988714,4.87815458 37.7724462,6.671294 C39.6988714,8.44565708 41.0708621,10.6706521 41.5501191,13.1585157 C41.7662547,14.2475427 41.0520677,15.2990172 39.9619929,15.5055568 C38.8719182,15.7214846 37.8194322,15.0079841 37.6126938,13.918957 C36.757549,9.525296 31.307175,6.05167514 25.5560908,6.32393191 C22.5677824,6.46475438 19.8425954,7.61011045 17.7282262,9.72244745 C15.2755579,12.1727584 13.6686373,15.8810834 13.1329971,20.8568105 C13.0390252,21.7205217 12.4000158,22.4340222 11.5448709,22.6030091 C8.7633008,23.1756872 6.69591758,25.0627082 5.39910447,28.0669209 C4.14927735,30.9490873 3.72640351,34.6855768 4.17746894,38.4220663 C4.62853437,42.1116149 5.89715589,45.4538015 7.6920204,47.6412438 C9.0076279,49.2466199 10.5205765,50.1478837 12.2026747,50.2980943 C10.8588756,45.9795387 12.8980672,40.5437914 17.3523383,36.7321967 C16.3280439,35.4084655 15.7266234,33.727984 15.7266234,31.9160683 C15.7266234,27.4942428 19.3163524,23.907964 23.7424319,23.907964 C28.1685114,23.907964 31.7582405,27.4942428 31.7582405,31.9160683 C31.7582405,36.3378938 28.1779086,39.9241726 23.7424319,39.9241726 C22.5207964,39.9241726 21.355544,39.6519158 20.3124552,39.1543431 C15.5950626,42.8814444 14.467399,47.4159278 16.6757402,50.4107523 C17.7846094,51.9222468 19.4573103,52.8516751 21.6562543,53.0863792 C24.2498805,53.358636 27.4731189,52.6545236 31.1944087,50.8613842 C33.1584227,49.9131796 35.0284648,49.424995 36.9360957,49.2841726 C38.3550724,49.1809028 39.4357499,49.2560081 41.5031332,49.5001004 C42.6307967,49.6315347 43.025479,49.6784755 43.5705164,49.70664 C45.8164463,49.8380743 47.4233669,49.3686661 49.4437641,47.7257373 C51.4077782,46.1297493 51.9434184,43.4353461 50.825152,39.3233301 C49.8854324,39.7082448 48.861138,39.9241726 47.7804604,39.9241726 C43.3543809,39.9241726 39.7646518,36.3378938 39.7646518,31.9160683 C39.7646518,27.4942428 43.3543809,23.907964 47.7804604,23.907964 C52.2065399,23.907964 55.7962689,27.4942428 55.7962689,31.9160683 C55.7962689,33.7092077 55.2042455,35.3615247 54.2081427,36.694644 C54.2175399,36.7228085 54.2269371,36.750973 54.2363343,36.7697493 C56.2943203,43.031655 55.6365166,47.8477834 51.9622128,50.8332197 C49.1336567,53.13332 46.5400304,53.8843732 43.3355865,53.705998 C42.6777827,53.6684454 42.2361145,53.6215046 41.0144789,53.4806821 C39.1914228,53.2647543 38.3080864,53.2084253 37.2086144,53.2835306 C35.7990349,53.3868005 34.417647,53.7435507 32.9140956,54.4758275 C29.728446,56.0248747 26.711946,56.897974 23.986759,57.1045136 Z M47.7992548,35.9154264 C50.0169931,35.9154264 51.8118576,34.1222869 51.8118576,31.9066801 C51.8118576,29.6910733 50.0169931,27.9073221 47.7992548,27.9073221 C45.5815164,27.9073221 43.7866519,29.7004615 43.7866519,31.9160683 C43.7866519,34.1316751 45.5909136,35.9154264 47.7992548,35.9154264 Z M23.7424319,35.9154264 C25.9601703,35.9154264 27.7550348,34.1222869 27.7550348,31.9066801 C27.7550348,29.6910733 25.9601703,27.9073221 23.7424319,27.9073221 C21.5246935,27.9073221 19.729829,29.7004615 19.729829,31.9160683 C19.729829,34.1316751 21.5340907,35.9154264 23.7424319,35.9154264 L23.7424319,35.9154264 Z M71.8560776,39.9241726 C74.073816,39.9241726 75.8686805,38.1310332 75.8686805,35.9154264 C75.8686805,33.6998195 74.073816,31.9066801 71.8560776,31.9066801 C69.6383393,31.9066801 67.8434747,33.6998195 67.8434747,35.9154264 C67.8434747,38.1310332 69.6477365,39.9241726 71.8560776,39.9241726 Z M45.7976519,89.9912538 C48.0153903,89.9912538 49.8102548,88.1981144 49.8102548,85.9825075 C49.8102548,83.7669007 48.0153903,81.9831495 45.7976519,81.9831495 C43.5799136,81.9831495 41.785049,83.7762889 41.785049,85.9918957 C41.785049,88.2075025 43.5799136,89.9912538 45.7976519,89.9912538 L45.7976519,89.9912538 Z" id="Shape"></path>
        </g>
    </g>
</svg>