<?xml version="1.0" encoding="UTF-8" standalone="no"?>
<!-- Generator: Adobe Illustrator 16.0.0, SVG Export Plug-In . SVG Version: 6.00 Build 0)  -->

<svg
   version="1.1"
   id="Layer_1"
   x="0px"
   y="0px"
   width="116.375"
   height="116.375"
   viewBox="0 0 116.375 116.375"
   enable-background="new 0 0 155 2356"
   xml:space="preserve"
   xmlns="http://www.w3.org/2000/svg"
   xmlns:svg="http://www.w3.org/2000/svg"><defs
   id="defs954" />








<g
   id="g885"
   transform="translate(-48.278,-1821.777)">
	
	<g
   opacity="0.4"
   id="g861">
		<g
   id="g857">
			<path
   fill="#ffffff"
   d="m 106.465,1938.152 c -32.083,0 -58.187,-26.105 -58.187,-58.188 0,-32.085 26.102,-58.187 58.187,-58.187 32.086,0 58.188,26.102 58.188,58.187 -0.001,32.083 -26.102,58.188 -58.188,58.188 z m 0,-112.219 c -29.792,0 -54.03,24.239 -54.03,54.031 0,29.791 24.237,54.03 54.03,54.03 29.795,0 54.031,-24.239 54.031,-54.03 0,-29.792 -24.238,-54.031 -54.031,-54.031 z"
   id="path855" />
		</g>
		<path
   fill="#ffffff"
   d="M 120.146,1845.676 H 92.785 c -2.294,0 -4.156,1.859 -4.156,4.156 v 60.266 c 0,2.298 1.861,4.155 4.156,4.155 h 27.361 c 2.293,0 4.156,-1.857 4.156,-4.155 v -60.266 c -0.001,-2.297 -1.863,-4.156 -4.156,-4.156 z m -20.091,62.687 h -4.846 v -4.849 h 4.846 z m 0,-8.311 h -4.846 v -4.846 h 4.846 z m 0,-8.313 h -4.846 v -4.846 h 4.846 z m 8.832,16.624 h -4.846 v -4.849 h 4.846 z m 0,-8.311 h -4.846 v -4.846 h 4.846 z m 0,-8.313 h -4.846 v -4.846 h 4.846 z m 8.836,16.624 h -4.848 v -4.849 h 4.848 z m 0,-8.311 h -4.848 v -4.846 h 4.848 z m 0,-8.313 h -4.848 v -4.846 h 4.848 z m 0,-9.35 H 95.209 v -30.82 h 22.514 z"
   id="path859" />
	</g>
	
	
</g>






</svg>
