<?xml version="1.0" encoding="UTF-8" standalone="no"?>
<!-- Generator: Adobe Illustrator 16.0.0, SVG Export Plug-In . SVG Version: 6.00 Build 0)  -->

<svg
   version="1.1"
   id="Layer_1"
   x="0px"
   y="0px"
   width="47.713005"
   height="44.733032"
   viewBox="0 0 47.713005 44.733032"
   enable-background="new 0 0 155 2356"
   xml:space="preserve"
   xmlns="http://www.w3.org/2000/svg"
   xmlns:svg="http://www.w3.org/2000/svg"><defs
   id="defs954" />












<g
   id="g917"
   transform="translate(-53.641998,-868.33398)">
	<path
   fill="#ffffff"
   d="m 96.835,886.053 c -0.315,0 -0.628,0.033 -0.924,0.099 -1.149,-2.948 -3.396,-5.343 -6.24,-6.688 0.021,-0.187 0.038,-0.378 0.038,-0.57 0,-2.497 -2.025,-4.521 -4.521,-4.521 -1.059,0 -2.029,0.366 -2.801,0.978 v 3.098 2.159 1.841 c 0.771,0.604 1.742,0.977 2.801,0.977 1.543,0 2.903,-0.775 3.723,-1.955 2.331,1.148 4.152,3.153 5.068,5.611 -1.016,0.826 -1.668,2.09 -1.668,3.502 0,1.434 0.666,2.707 1.701,3.531 -0.9,2.501 -2.744,4.547 -5.104,5.711 -0.82,-1.184 -2.178,-1.952 -3.723,-1.952 -1.059,0 -2.031,0.368 -2.802,0.977 v 1.843 2.154 3.098 c 0.771,0.609 1.743,0.978 2.802,0.978 2.496,0 4.521,-2.025 4.521,-4.521 0,-0.191 -0.017,-0.385 -0.037,-0.566 2.882,-1.366 5.146,-3.807 6.285,-6.808 0.28,0.056 0.575,0.082 0.878,0.082 2.499,0 4.523,-2.023 4.523,-4.521 0.002,-2.512 -2.022,-4.537 -4.52,-4.537 z"
   id="path913" />
	<path
   fill="#ffffff"
   d="m 53.699,873.111 -0.057,35.181 26.26,4.775 v -44.733 z m 14.797,26.379 c -2.141,1.557 -4.944,0.896 -7.199,-0.029 -0.028,-1.313 -0.062,-2.623 -0.104,-3.94 1.446,1.069 3.587,2.646 5.315,1.185 1.333,-2.239 -1.291,-3.665 -2.809,-4.751 -3.257,-1.969 -3.376,-7.352 -0.217,-9.451 1.847,-1.17 4.102,-0.8 6.137,-0.514 0.031,1.236 0.063,2.479 0.09,3.717 -1.693,-0.537 -3.856,-1.614 -5.253,0.113 -0.973,2.541 2.104,3.498 3.59,4.818 2.902,1.883 3.15,6.706 0.45,8.852 z"
   id="path915" />
</g>


</svg>
