<?xml version="1.0" encoding="UTF-8" standalone="no"?>
<!-- Generator: Adobe Illustrator 16.0.0, SVG Export Plug-In . SVG Version: 6.00 Build 0)  -->

<svg
   version="1.1"
   id="Layer_1"
   x="0px"
   y="0px"
   width="47.568275"
   height="44.394989"
   viewBox="0 0 47.568275 44.394989"
   enable-background="new 0 0 155 2356"
   xml:space="preserve"
   xmlns="http://www.w3.org/2000/svg"
   xmlns:svg="http://www.w3.org/2000/svg"><defs
   id="defs954" />









<path
   fill="#ffffff"
   d="m 8.1271345,25.366989 h -3.322 c -2.475,0 -4.80500003955,-1.188 -4.80500003955,-3.938 0,-2.009 -0.0710000005,-8.749 3.07200003955,-8.749 0.52,0 3.097,2.107 6.444,2.107 1.1359995,0 2.2279995,-0.199 3.2939995,-0.571 -0.077,0.544 -0.124,1.09 -0.124,1.636 0,2.252 0.718,4.483 2.004,6.345 -2.574,0.076 -4.9049995,1.19 -6.5629995,3.17 z m 1.389,-12.684 c -3.495,0 -6.344,-2.8489997 -6.344,-6.3389997 0,-3.494 2.85,-6.344000042187 6.344,-6.344000042187 3.4899995,0 6.3369995,2.850000042187 6.3369995,6.344000042187 10e-4,3.491 -2.847,6.3389997 -6.3369995,6.3389997 z m 25.0929995,31.712 h -21.651 c -3.9619995,0 -6.6139995,-2.402 -6.6139995,-6.417 0,-5.599 1.313,-14.192 8.5699995,-14.192 0.843,0 3.916,3.441 8.869,3.441 4.956,0 8.025,-3.441 8.87,-3.441 7.261,0 8.571,8.597 8.571,14.192 0,4.012 -2.654,6.417 -6.615,6.417 z m -10.826,-19.028 c -5.25,0 -9.512,-4.263 -9.512,-9.515 0,-5.253 4.262,-9.5119997 9.512,-9.5119997 5.251,0 9.514,4.2589997 9.514,9.5119997 0,5.253 -4.263,9.515 -9.514,9.515 z m 14.27,-12.684 c -3.492,0 -6.34,-2.8489997 -6.34,-6.3389997 0,-3.494 2.848,-6.344000042187 6.34,-6.344000042187 3.494,0 6.344,2.850000042187 6.344,6.344000042187 -10e-4,3.491 -2.85,6.3389997 -6.344,6.3389997 z m 4.709,12.684 h -3.32 c -1.658,-1.98 -3.988,-3.098 -6.563,-3.17 1.285,-1.858 2.008,-4.093 2.008,-6.345 0,-0.546 -0.052,-1.092 -0.127,-1.636 1.064,0.372 2.154,0.571 3.295,0.571 3.344,0 5.924,-2.107 6.44,-2.107 3.146,0 3.073,6.74 3.073,8.749 0,2.751 -2.332,3.938 -4.806,3.938 z"
   id="path887" />





</svg>
