<?xml version="1.0" encoding="UTF-8"?>
<svg width="90px" height="60px" viewBox="0 0 90 60" version="1.1" xmlns="http://www.w3.org/2000/svg" xmlns:xlink="http://www.w3.org/1999/xlink">
    <title>SSWLogo-xmas</title>
    <g id="Page-1" stroke="none" stroke-width="1" fill="none" fill-rule="evenodd">
        <g id="SSWLogo-xmas">
            <rect id="Rectangle" x="0" y="0" width="90" height="60"></rect>
            <path d="M23.5833207,21.7026679 C18.9692081,18.703414 14.5189462,17.3517741 13.6515142,18.6862284 C12.7840822,20.0206827 15.8258595,23.5391767 20.4399721,26.5384307 C25.0540847,29.5376847 29.5044201,30.8893246 30.3718521,29.5548703 C31.2392841,28.2204159 28.1974333,24.7019954 23.5833207,21.7026679 Z" id="Path" fill="#D2E2EA" fill-rule="nonzero"></path>
            <path d="M81.3086411,20.4000143 C77.7326414,16.2957411 72.222601,13.665904 66.0398987,13.665904 C59.95583,13.665904 54.5210684,16.2122367 50.945289,20.2023065 C54.5096848,14.7758439 60.5595292,11.123831 67.4837092,10.8689848 C67.6737056,10.8766228 67.8787576,10.8805887 68.0990858,10.8918989 C68.3613498,10.9032091 68.642562,10.941179 68.9470555,10.9677652 C69.5507547,11.0323948 70.2273825,11.1541629 70.9492511,11.3288831 C71.6674475,11.5302631 72.4392571,11.7658673 73.2067335,12.1306573 C73.97421,12.4880296 74.7532904,12.9363975 75.5057846,13.4722356 C76.2582787,14.0080002 76.9841132,14.623744 77.6983437,15.2963325 C78.4055237,15.9536449 79.0362498,16.6911567 79.6099843,17.4888916 C79.8948687,17.8843072 80.1650644,18.2946317 80.4157245,18.7089956 C80.666311,19.1269581 80.8906786,19.533684 81.1149726,19.9856505 C81.1795288,20.1224008 81.244085,20.2595184 81.3086411,20.4000143" id="Path" fill="#CB4542" fill-rule="nonzero"></path>
            <path d="M83.7109526,45.2646362 C79.9222628,49.5093319 74.4042906,52.1813986 68.2635241,52.1813986 C61.0125973,52.1813986 54.6319669,48.4572649 50.9380916,42.8214171 C54.5141648,46.8188311 59.9522313,49.368836 66.0400456,49.368836 C70.7712993,49.368836 75.1075047,47.8296234 78.48587,45.2646362 L83.7109526,45.2646362 L83.7109526,45.2646362 Z" id="Path" fill="#CB4542" fill-rule="nonzero"></path>
            <path d="M88.9547631,31.5193897 L88.9547631,31.60686 L84.8125935,31.60686 C84.8045882,31.439484 84.7932781,31.2494877 84.7859338,31.0367975 C84.7363599,30.1512252 84.6757697,28.8821349 84.4894455,27.3505603 C84.2993757,25.8266238 83.9841596,24.0291131 83.3115711,22.1971578 C82.9771129,21.2776549 82.5624553,20.3693887 82.0535707,19.4687606 C81.8142943,19.050798 81.5366808,18.5984643 81.2475368,18.1768296 C80.9592741,17.7511556 80.6550743,17.3367917 80.3282542,16.9377774 C79.6899635,16.1396753 78.9640556,15.3875484 78.1883535,14.7412524 C77.4288089,14.1028882 76.6343789,13.4988218 75.8250401,12.9933156 C75.0156278,12.4800978 74.1833014,12.0661012 73.370217,11.7429532 C72.5608048,11.4124609 71.7550646,11.2147531 71.0138807,11.051343 C70.8957848,11.0287227 70.7785702,11.009701 70.6641464,10.9944249 C80.9592741,12.1799374 88.9547631,20.916537 88.9547631,31.5193897" id="Path" fill="#CB4542" fill-rule="nonzero"></path>
            <path d="M29.5694169,32.0514822 C29.0262345,31.1511479 28.1559382,30.3946878 26.958528,29.7869493 C25.7653775,29.1746573 23.7855085,28.574263 21.0228136,27.9781284 C19.9056029,27.7459025 19.1986432,27.4912766 18.8984828,27.2256342 C18.5946502,26.9634437 18.4385844,26.6702604 18.4385844,26.343734 C18.4385844,25.8991118 18.6249086,25.5190457 18.9976305,25.2075016 C19.3697647,24.8956638 19.9245511,24.7399652 20.6577298,24.7399652 C21.5510137,24.7399652 22.2501884,24.949277 22.7594402,25.3669458 C23.2649465,25.7849818 23.5994047,26.4581578 23.7551767,27.3777341 L29.7178446,27.0279999 C29.4555806,24.907635 28.6382366,23.3606374 27.2666937,22.3875213 C25.8944898,21.4144052 23.8996385,20.9284347 21.2850776,20.9284347 C19.1570746,20.9284347 17.4773661,21.198704 16.2572621,21.7335873 C15.0298873,22.2657533 14.1139831,23.0035589 13.5062445,23.938191 C12.8979184,24.8733372 12.5903403,25.8651078 12.5903403,26.917542 C12.5903403,28.5176387 13.1870624,29.8322634 14.3802129,30.8662635 C15.5580873,31.8993823 17.5379563,32.7283304 20.3082893,33.3511247 C22.003274,33.7238465 23.0825882,34.1191887 23.5461587,34.5372247 C24.0134748,34.9548934 24.2454069,35.4301413 24.2454069,35.9623073 C24.2454069,36.5167999 24.0024584,37.010996 23.5122282,37.4327041 C23.0256701,37.8549997 22.341698,37.975813 21.4408496,37.975813 C20.2327168,37.975813 19.2861869,37.6530323 18.6365126,36.8245983 C18.2335324,36.3154199 17.9712684,35.57027 17.8381167,34.5944366 L11.8225701,34.9698758 C12.0012562,37.0339101 12.7613884,38.7359452 14.098707,40.0778172 C15.440579,41.4154296 17.8497941,42.0877243 21.3270133,42.0877243 C23.3105544,42.0877243 24.9522931,41.80284 26.2556077,41.2290319 C27.5552501,40.6552974 28.5699348,39.8195926 29.2958427,38.7099465 C30.0216772,37.604046 30.3864672,36.3949584 30.3864672,35.0800398 C30.3864672,33.9634167 30.1131868,32.95637 29.5694169,32.0514822" id="Path" fill="#333333" fill-rule="nonzero"></path>
            <path d="M49.8827197,35.1050104 C49.8827197,36.3895971 49.5363638,37.5705561 48.839833,38.6617681 C48.8251444,38.6838009 48.8101621,38.7097996 48.7951798,38.73242 C48.6834734,38.9038353 48.5644228,39.0672454 48.4340619,39.2241925 C47.748621,40.0917714 46.8510775,40.7695743 45.7525212,41.2500366 C44.452585,41.8237711 42.8101853,42.1068194 40.8251019,42.1068194 C37.3430355,42.1068194 34.9371253,41.4397391 33.596208,40.0954435 C32.2555845,38.7581249 31.4994182,37.056457 31.3207321,34.9896319 L37.3356912,34.6132379 C37.466052,35.5890714 37.734118,36.3339275 38.1325448,36.8477328 C38.7843489,37.674551 39.7155292,37.9946878 40.929464,37.9946878 C41.8270076,37.9946878 42.5197928,37.8759309 43.0112715,37.4512116 C43.4956997,37.0303848 43.7450378,36.5389796 43.7450378,35.9798601 C43.7450378,35.4474004 43.5103882,34.9743558 43.0449083,34.5575683 C42.5795017,34.1367415 41.5029048,33.7419869 39.8085077,33.369265 C37.033915,32.7474989 35.0561759,31.9169352 33.8755841,30.8850649 C32.6876481,29.8538556 32.0878413,28.5352649 32.0878413,26.9375184 C32.0878413,25.8869937 32.3932896,24.8925058 33.0040393,23.9582409 C33.6148625,23.0233884 34.5273883,22.2896222 35.7526333,21.7534903 C36.9779517,21.2170646 38.6539881,20.9523036 40.7841209,20.9523036 C43.3986819,20.9523036 45.3950754,21.4364381 46.7653698,22.4089666 C47.3875031,22.8483744 47.8976363,23.4107988 48.2887188,24.0886017 C48.430096,24.3269968 48.5567847,24.5836791 48.664819,24.8557844 C48.9331787,25.4998771 49.115537,26.2337168 49.212261,27.0492248 L48.0393073,27.116278 L47.108127,27.1722414 L43.2536325,27.3956542 C43.0932336,26.475784 42.76186,25.8089975 42.2590711,25.3842048 C41.7489379,24.9710895 41.0488085,24.7584728 40.1586092,24.7584728 C39.4210974,24.7584728 38.8699832,24.9151261 38.4976285,25.228139 C38.1252005,25.5369657 37.9388028,25.9170318 37.9388028,26.3677498 C37.9388028,26.6881804 38.0878181,26.9822451 38.3969386,27.2429667 C38.6949691,27.5149986 39.3987708,27.7644101 40.5197271,27.9950937 C43.2796312,28.5949004 45.2607487,29.1983793 46.4563228,29.8051631 C46.5086875,29.831529 46.5570128,29.8575277 46.6053381,29.8835264 C46.966456,30.0771949 47.2981968,30.2819532 47.5959336,30.5016939 C48.221739,30.9634283 48.7131443,31.4845778 49.0672117,32.069696 C49.6109816,32.9745104 49.8827197,33.9840541 49.8827197,35.1050104" id="Path" fill="#333333" fill-rule="nonzero"></path>
            <polygon id="Path" fill="#333333" fill-rule="nonzero" points="78.4370306 21.3024051 73.9307319 41.7562773 67.7259968 41.7562773 64.1392744 28.8778018 60.5678282 41.7562773 54.367059 41.7562773 49.9461742 21.901918 49.9461742 21.8982459 49.8641387 21.52949 49.8121412 21.3024051 55.8197561 21.3024051 57.9792659 32.7510242 61.1449411 21.3024051 67.1262635 21.3024051 70.299283 32.7360419 72.4670184 21.3024051"></polygon>
            <rect id="Rectangle" fill="#333333" fill-rule="nonzero" x="84.7861541" y="32.6822818" width="5.21384589" height="5.21384589"></rect>
            <rect id="Rectangle" fill="#797979" fill-rule="nonzero" x="78.4935815" y="32.6822818" width="5.21347868" height="5.21384589"></rect>
            <rect id="Rectangle" fill="#CB4542" fill-rule="nonzero" x="84.7861541" y="38.9753685" width="5.21384589" height="5.21384589"></rect>
            <rect id="Rectangle" fill="#AAAAAA" fill-rule="nonzero" x="78.4935815" y="38.9753685" width="5.21347868" height="5.21384589"></rect>
            <path d="M31.8690554,20.8914196 C32.5435534,21.7675179 32.7592547,22.932246 32.4051873,24.0089898 C32.2784986,24.3962533 32.1732552,24.8083404 32.1711254,25.3609235 L32.1704644,25.3609235 C32.1236814,25.2296813 32.0676446,25.0998346 32.0037494,24.97366 C31.9046017,24.7757318 31.7840088,24.5841932 31.6429253,24.401174 C31.4066601,24.0962398 31.1988906,23.7833738 31.0278425,23.4634572 C31.9278096,23.4628697 32.2721091,22.3455855 31.8684679,20.8920806 L31.8690554,20.8914196 L31.8690554,20.8914196 Z" id="Path" fill="#AECEDD" fill-rule="nonzero"></path>
            <path d="M30.1850872,29.8537821 C30.1425639,29.555825 30.1847935,23.0990344 14.4566668,21.1744679 C14.7077675,20.9376151 14.9518177,20.693418 15.1886704,20.4397468 C15.4901528,20.4011894 15.7867145,20.3516156 16.0774743,20.2913191 C17.2592412,20.2913191 18.42889,20.365129 19.5744496,20.524867 C23.971539,21.1334868 28.0117701,22.9940114 30.9803985,26.727766 C31.1958794,26.9994307 31.6236833,26.9788667 31.7947314,26.6773843 C32.0746951,26.1850977 32.1429234,25.4148304 32.0037494,24.97366 C32.0676446,25.099908 32.1236814,25.2296813 32.1704644,25.3609235 C32.7862082,27.0647212 30.2007305,29.8466582 30.1850872,29.8537821 L30.1850872,29.8537821 Z" id="Path" fill="#AECEDD" fill-rule="nonzero"></path>
            <path d="M31.0278425,23.4634572 C31.1988906,23.7833738 31.4066601,24.0962398 31.6429253,24.401174 C31.7840088,24.5841932 31.9046017,24.7757318 32.0037494,24.97366 C32.1429234,25.4148304 32.0746951,26.1850977 31.7947314,26.6773843 C31.6236833,26.9788667 31.1958794,26.9994307 30.9803985,26.727766 C28.0117701,22.9940114 23.971539,21.1334868 19.5744496,20.524867 L19.5744496,20.5239122 C21.6775555,19.8020437 22.6763031,17.39158 22.5479252,15.9120029 C25.7008948,16.2247954 28.6955953,18.0137133 31.4207611,20.4134543 C31.541354,20.5199463 31.6533542,20.633195 31.756174,20.7531269 L31.756174,20.7537145 C31.795319,20.7987349 31.8323341,20.8446366 31.8690554,20.8914196 L31.8684679,20.8920806 C32.2721091,22.3455855 31.9278096,23.4628697 31.0278425,23.4634572" id="Path" fill="#F3FAFC" fill-rule="nonzero"></path>
            <path d="M22.2627471,15.3786618 C21.457007,16.1390878 20.6362845,16.8027897 19.7900775,17.2979405 C19.2432229,17.6180039 18.5878201,17.1122039 18.7395527,16.4971211 C18.9445314,15.6644275 19.0403007,14.796922 19.0268607,13.8954126 C18.8345876,14.4493176 18.6260837,14.9820711 18.4005411,15.4943341 C16.4647378,18.4990228 13.3700083,21.3391264 9.22541499,22.6421473 C8.60548496,22.8370643 7.92951812,22.6442771 7.49965786,22.1577191 C7.05349331,21.6518456 6.50663878,21.3354543 5.89023399,21.1497177 C7.55569466,19.1481096 8.57926591,16.4205937 9.20698087,13.2441959 C9.97093209,9.3762614 13.5061711,6.66527011 17.4316112,7.03343849 C25.4688892,7.78681396 31.7717438,13.1059033 31.7565231,20.7531269 C31.6533542,20.633195 31.541354,20.5199463 31.4207611,20.4134543 C28.6955953,18.0137133 25.7008948,16.2247954 22.5479252,15.9120029 C22.3918594,15.896433 22.2358671,15.8844619 22.0790668,15.87653 L22.0783324,15.87653 C22.1464138,15.7140013 22.2081792,15.5481676 22.2627471,15.3786618" id="Path" fill="#CB4542" fill-rule="nonzero"></path>
            <path d="M22.5479252,15.9120029 C22.6763031,17.39158 21.6775555,19.8020437 19.5744496,20.5239122 L19.5744496,20.524867 C18.42889,20.365129 17.2592412,20.2913191 16.0774743,20.2913191 C18.8438414,19.7191268 21.1165265,18.1777109 22.0783324,15.87653 L22.0790668,15.87653 C22.2358671,15.8844619 22.3918594,15.896433 22.5479252,15.9120029" id="Path" fill="#AECEDD" fill-rule="nonzero"></path>
            <path d="M18.4005411,15.4943341 C18.6260837,14.9820711 18.8345876,14.4493176 19.0268607,13.8954126 C19.0403007,14.796922 18.9445314,15.6644275 18.7395527,16.4971211 C18.5878201,17.1122039 19.2432229,17.6180039 19.7900775,17.2979405 C20.6362845,16.8027897 21.457007,16.1390878 22.2627471,15.3786618 C22.2081792,15.5481676 22.1464138,15.7140013 22.0783324,15.87653 C21.1164531,18.1777109 18.8438414,19.7191268 16.0775477,20.2913191 C15.7866411,20.3516156 15.4901528,20.4011894 15.1887439,20.4397468 C16.4761214,19.0615207 17.554995,17.4227932 18.4005411,15.4943341" id="Path" fill="#A81D2B" fill-rule="nonzero"></path>
            <path d="M18.4005411,15.4943341 C17.554995,17.4227932 16.4761214,19.0615207 15.1887439,20.4397468 C14.9518177,20.6934915 14.7078409,20.9376151 14.4566668,21.1744679 C12.3407819,23.1654267 9.73121504,24.5430653 6.71448169,25.4119662 C6.6144527,25.2431948 6.63075698,25.0317532 6.74143517,24.8700323 C7.5451189,23.6968582 6.57472019,22.1497872 5.3511644,21.7492306 C5.53770892,21.5576185 5.71712949,21.3574871 5.89023399,21.1497177 C6.50663878,21.3354543 7.05349331,21.6518456 7.49965786,22.1577191 C7.92951812,22.6442771 8.60548496,22.8370643 9.22548844,22.6421473 C13.3700083,21.3391264 16.4647378,18.4990228 18.4005411,15.4943341" id="Path" fill="#A81D2B" fill-rule="nonzero"></path>
            <path d="M5.3511644,21.7492306 C6.57472019,22.1497872 7.5451189,23.6968582 6.74143517,24.8701057 C6.63075698,25.0317532 6.6144527,25.2431948 6.71448169,25.4119662 C6.8173015,25.5858051 6.87260388,25.774406 6.88611734,25.9695433 C6.91806492,26.4306168 6.72226662,26.927824 6.4009547,27.3583452 C5.7625171,28.2152015 4.62760668,28.8082515 3.80695767,28.3272751 C3.64237253,28.2308448 3.43526405,28.2301104 3.27354317,28.3308004 C2.01025487,29.1195752 0.0929591018,27.4959769 0.151125739,26.0880064 C0.898038246,27.3001786 1.84853399,27.9215775 3.08839406,27.7030854 C3.35227377,27.6563024 3.58780459,27.4895874 3.69840933,27.2456107 C3.81408162,26.9916457 3.79065339,26.7001516 3.59558951,26.3610665 C3.55372716,26.2893864 3.46934147,26.2567778 3.3877466,26.274551 C3.21324669,26.3135491 3.02670217,26.3099504 2.84654717,26.287991 C2.77060739,26.2787372 2.75650639,26.1737875 2.82737862,26.1454387 C3.48351592,25.880898 3.9218221,25.3112762 3.64237253,24.4926836 C3.62327742,24.4366468 3.68922899,24.3877339 3.73674643,24.4232068 C3.96654871,24.594108 4.12121909,24.8565923 4.16513784,25.2531096 C4.17578704,25.3446192 4.2523878,25.4155649 4.34463186,25.413435 C6.5094296,25.3715727 6.54211162,22.8272964 5.04968201,21.6760817 C5.15110642,21.6922391 5.25253082,21.7170627 5.3511644,21.7492306" id="Path" fill="#AECEDD" fill-rule="nonzero"></path>
            <path d="M5.04968201,21.6760817 C6.54211162,22.8272964 6.50950305,25.3715727 4.34463186,25.413435 C4.2523878,25.4155649 4.17578704,25.3446192 4.16513784,25.2531096 C4.12121909,24.8565923 3.96654871,24.5941814 3.73674643,24.4232068 C3.68922899,24.3877339 3.62327742,24.4366468 3.64237253,24.4926836 C3.92189554,25.3112762 3.48351592,25.880898 2.82737862,26.1454387 C2.75643294,26.1737875 2.77060739,26.2787372 2.84654717,26.287991 C3.02670217,26.3099504 3.21324669,26.3135491 3.3877466,26.274551 C3.46934147,26.2567778 3.55372716,26.2893864 3.59558951,26.3610665 C3.79065339,26.7001516 3.81408162,26.9916457 3.69840933,27.2456107 C3.58780459,27.4895874 3.35227377,27.6563024 3.0884675,27.7030854 C1.84853399,27.9215775 0.898038246,27.3001786 0.151125739,26.0880064 C0.160379522,25.8581307 0.222071411,25.6339835 0.348319454,25.426875 C0.45334255,25.254505 0.447614017,25.0324876 0.330546315,24.8679025 C-0.750383703,23.3364748 1.0292804,21.2611303 2.65008788,21.6604384 C2.98344441,22.6442771 2.76921198,23.7684649 1.94856298,24.4608094 C1.86483827,24.5317551 1.94709412,24.6643927 2.04646213,24.6182706 C3.05725434,24.1422883 3.7920488,22.9542788 3.5175199,22.0270644 L3.5175199,22.0264035 C3.62680267,22.0307366 3.73814184,21.9985687 3.83317673,21.9349673 C4.21691496,21.6782115 4.64038571,21.6093222 5.04968201,21.6760817" id="Path" fill="#F3FAFC" fill-rule="nonzero"></path>
            <path d="M3.5175199,22.0270644 C3.7920488,22.9542788 3.0571809,24.1422883 2.04646213,24.6182706 C1.94709412,24.6643192 1.86483827,24.5316817 1.94856298,24.4608094 C2.76921198,23.7684649 2.98344441,22.6442771 2.65001444,21.6604384 C2.85719636,21.7105997 3.06217501,21.8021094 3.25797331,21.9404755 C3.33596948,21.9958513 3.42601026,22.0236861 3.5175199,22.0264035 L3.5175199,22.0270644 L3.5175199,22.0270644 Z" id="Path" fill="#AECEDD" fill-rule="nonzero"></path>
        </g>
    </g>
</svg>