<svg xmlns="http://www.w3.org/2000/svg" viewBox="0 0 24 24" fill="none" stroke="#CC4141" stroke-width="1" stroke-linecap="round" stroke-linejoin="round">
  <path d="M3 12a9 9 0 0 1 9-9 9.75 9.75 0 0 1 6.74 2.74L21 8" />
  <path d="M21 3v5h-5" />
  <path d="M21 12a9 9 0 0 1-9 9 9.75 9.75 0 0 1-6.74-2.74L3 16" />
  <path d="M3 21v-5h5" />
  <path d="M9.4 14.6 V12.6 M8.5 13.5 9.4 12.6 10.3 13.5" />
  <path d="M12 14.6 V10.8 M11.1 11.7 12 10.8 12.9 11.7" />
  <path d="M14.6 14.6 V9 M13.7 9.9 14.6 9 15.5 9.9" />
</svg>
