
<!-- <svg xmlns="http://www.w3.org/2000/svg" viewBox="0 -960 960 960" width="48" height="48" fill="#cc4141"><path d="M480.089-490Q509-490 529.5-510.589q20.5-20.588 20.5-49.5Q550-589 529.411-609.5q-20.588-20.5-49.5-20.5Q451-630 430.5-609.411q-20.5 20.588-20.5 49.5Q410-531 430.589-510.5q20.588 20.5 49.5 20.5ZM480-159q133-121 196.5-219.5T740-552q0-117.79-75.292-192.895Q589.417-820 480-820t-184.708 75.105Q220-669.79 220-552q0 75 65 173.5T480-159Zm0 79Q319-217 239.5-334.5T160-552q0-150 96.5-239T480-880q127 0 223.5 89T800-552q0 100-79.5 217.5T480-80Zm0-472Z"/></svg> -->
<svg xmlns="http://www.w3.org/2000/svg" fill="#cc4141" viewBox="0 0 384 512"><!--! Font Awesome Free 6.1.1 by @fontawesome - https://fontawesome.com License - https://fontawesome.com/license/free (Icons: CC BY 4.0, Fonts: SIL OFL 1.1, Code: MIT License) Copyright 2022 Fonticons, Inc. --><path d="M168.3 499.2C116.1 435 0 279.4 0 192C0 85.96 85.96 0 192 0C298 0 384 85.96 384 192C384 279.4 267 435 215.7 499.2C203.4 514.5 180.6 514.5 168.3 499.2H168.3zM192 256C227.3 256 256 227.3 256 192C256 156.7 227.3 128 192 128C156.7 128 128 156.7 128 192C128 227.3 156.7 256 192 256z"/></svg>
