<?xml version="1.0" encoding="UTF-8" standalone="no"?>
<!-- Generator: Adobe Illustrator 16.0.0, SVG Export Plug-In . SVG Version: 6.00 Build 0)  -->

<svg
   version="1.1"
   id="Layer_1"
   x="0px"
   y="0px"
   width="116.37499"
   height="116.37598"
   viewBox="0 0 116.37499 116.37598"
   enable-background="new 0 0 155 2356"
   xml:space="preserve"
   xmlns="http://www.w3.org/2000/svg"
   xmlns:svg="http://www.w3.org/2000/svg"><defs
   id="defs954" />








<g
   id="g885"
   transform="translate(-47.93,-1458.972)">
	<g
   opacity="0.4"
   id="g853">
		<g
   id="g845">
			<path
   fill="#ffffff"
   d="m 106.118,1575.348 c -32.084,0 -58.188,-26.102 -58.188,-58.188 0,-32.084 26.103,-58.188 58.188,-58.188 32.085,0 58.187,26.104 58.187,58.188 0,32.086 -26.102,58.188 -58.187,58.188 z m 0,-112.22 c -29.793,0 -54.031,24.241 -54.031,54.03 0,29.793 24.237,54.031 54.031,54.031 29.794,0 54.03,-24.238 54.03,-54.031 0,-29.789 -24.236,-54.03 -54.03,-54.03 z"
   id="path843" />
		</g>
		<g
   id="g851">
			<polygon
   fill="#ffffff"
   points="100.578,1518.779 111.658,1518.779 106.118,1505.896 "
   id="polygon847" />
			<path
   fill="#ffffff"
   d="m 106.118,1483.979 -30.751,10.824 4.479,40.974 26.272,14.563 26.271,-14.563 4.48,-40.974 z m 12.124,50.11 -4.092,-9.521 H 98.086 l -4.092,9.521 H 86.77 l 19.351,-42.39 19.351,42.39 z"
   id="path849" />
		</g>
	</g>
	
	
	
</g>






</svg>
