<?xml version="1.0" encoding="UTF-8" standalone="no"?>
<!-- Generator: Adobe Illustrator 16.0.0, SVG Export Plug-In . SVG Version: 6.00 Build 0)  -->

<svg
   version="1.1"
   id="Layer_1"
   x="0px"
   y="0px"
   width="154.27222"
   height="154.271"
   viewBox="0 0 154.27222 154.271"
   enable-background="new 0 0 155 2356"
   xml:space="preserve"
   sodipodi:docname="svg-sprite-sheet.svg"
   xmlns:inkscape="http://www.inkscape.org/namespaces/inkscape"
   xmlns:sodipodi="http://sodipodi.sourceforge.net/DTD/sodipodi-0.dtd"
   xmlns="http://www.w3.org/2000/svg"
   xmlns:svg="http://www.w3.org/2000/svg"><defs
   id="defs954" /><sodipodi:namedview
   id="namedview952"
   pagecolor="#505050"
   bordercolor="#eeeeee"
   borderopacity="1"
   inkscape:showpageshadow="0"
   inkscape:pageopacity="0"
   inkscape:pagecheckerboard="0"
   inkscape:deskcolor="#505050"
   showgrid="false"
   showguides="true"><sodipodi:guide
     position="-0.79265616,58.094822"
     orientation="1,0"
     id="guide956"
     inkscape:locked="false" /><sodipodi:guide
     position="-9.011261,-0.80517953"
     orientation="0,-1"
     id="guide958"
     inkscape:locked="false" /></sodipodi:namedview>








<g
   id="g885"
   transform="translate(-0.33606699,-2200.9238)">
	
	
	<g
   inkscape:groupmode="layer"
   id="layer1"
   inkscape:label="Layer 1"><g
     opacity="0.4"
     id="g869"
     transform="matrix(1.3256475,0,0,1.3256475,-63.663543,-697.35645)">
		<g
   id="g865">
			<path
   fill="#ffffff"
   d="m 106.465,2302.687 c -32.083,0 -58.187,-26.099 -58.187,-58.186 0,-32.082 26.102,-58.188 58.187,-58.188 32.086,0 58.188,26.104 58.188,58.188 -0.001,32.087 -26.102,58.186 -58.188,58.186 z m 0,-112.218 c -29.792,0 -54.03,24.239 -54.03,54.032 0,29.79 24.237,54.03 54.03,54.03 29.795,0 54.031,-24.24 54.031,-54.03 0,-29.793 -24.238,-54.032 -54.031,-54.032 z"
   id="path863" />
		</g>
		<path
   fill="#ffffff"
   d="m 133.652,2248.655 c -0.441,0 -0.873,0.063 -1.295,0.132 0.455,-1.705 0.775,-3.466 0.775,-5.326 0,-11.479 -9.303,-20.78 -20.779,-20.78 -9.137,0 -16.807,5.935 -19.592,14.123 -1.564,-0.592 -3.234,-0.955 -5,-0.955 -7.844,0 -14.2,6.355 -14.2,14.197 0,7.842 6.356,14.195 14.2,14.195 4.424,0 42.412,0 45.893,0 4.305,0 7.791,-3.49 7.791,-7.793 0,-4.303 -3.488,-7.793 -7.793,-7.793 z"
   id="path867" />
	</g></g>
	
</g>






</svg>
