<?xml version="1.0" encoding="UTF-8" standalone="no"?>
<!-- Generator: Adobe Illustrator 16.0.0, SVG Export Plug-In . SVG Version: 6.00 Build 0)  -->

<svg
   version="1.1"
   id="Layer_1"
   x="0px"
   y="0px"
   width="116.37601"
   height="116.375"
   viewBox="0 0 116.37601 116.375"
   enable-background="new 0 0 155 2356"
   xml:space="preserve"
   sodipodi:docname="svg-sprite-sheet.svg"
   xmlns:inkscape="http://www.inkscape.org/namespaces/inkscape"
   xmlns:sodipodi="http://sodipodi.sourceforge.net/DTD/sodipodi-0.dtd"
   xmlns="http://www.w3.org/2000/svg"
   xmlns:svg="http://www.w3.org/2000/svg"><defs
   id="defs954" /><sodipodi:namedview
   id="namedview952"
   pagecolor="#505050"
   bordercolor="#eeeeee"
   borderopacity="1"
   inkscape:showpageshadow="0"
   inkscape:pageopacity="0"
   inkscape:pagecheckerboard="0"
   inkscape:deskcolor="#505050"
   showgrid="false"
   showguides="true"><sodipodi:guide
     position="-49.08159,-1088.194"
     orientation="1,0"
     id="guide956"
     inkscape:locked="false" /><sodipodi:guide
     position="-57.300195,-1147.094"
     orientation="0,-1"
     id="guide958"
     inkscape:locked="false" /></sodipodi:namedview>








<g
   id="g885"
   transform="translate(-48.625,-1092.531)">
	
	
	
	<g
   opacity="0.4"
   id="g883">
		<g
   id="g873">
			<path
   fill="#ffffff"
   d="m 106.813,1208.906 c -32.083,0 -58.188,-26.104 -58.188,-58.188 0,-32.086 26.103,-58.187 58.188,-58.187 32.084,0 58.188,26.101 58.188,58.187 -0.001,32.087 -26.105,58.188 -58.188,58.188 z m 0,-112.218 c -29.792,0 -54.029,24.235 -54.029,54.029 0,29.793 24.237,54.029 54.029,54.029 29.795,0 54.029,-24.236 54.029,-54.029 0,-29.793 -24.237,-54.029 -54.029,-54.029 z"
   id="path871" />
		</g>
		<path
   fill="#ffffff"
   d="m 104.041,1119.202 v 40.521 c 0,0 -13.506,0 -25.283,9.699 0,0 0.086,-2.079 0,-4.156 9.349,-8.486 21.558,-26.495 25.283,-46.064 z"
   id="path875" />
		<path
   fill="#ffffff"
   d="m 104.906,1148.532 v 11.887 c 0,0 -12.902,0.087 -23.801,8.126 18.348,-8.299 38.434,-5.443 38.434,-5.443 v -35.065 c -4.119,8.502 -9.35,15.223 -14.633,20.495 z"
   id="path877" />
		<g
   id="g881">
			<path
   fill="#ffffff"
   d="m 120.23,1147.297 v 16.759 c 0,0 -22.6,-2.684 -38.617,5.354 v 0.101 c 30.652,-8.832 49.789,0.868 49.789,0.868 V 1136 c -2.904,4.315 -6.83,8.045 -11.172,11.297 z"
   id="path879" />
		</g>
	</g>
</g>






</svg>
