<?xml version="1.0" encoding="UTF-8" standalone="no"?>
<!-- Generator: Adobe Illustrator 16.0.0, SVG Export Plug-In . SVG Version: 6.00 Build 0)  -->

<svg
   version="1.1"
   id="Layer_1"
   x="0px"
   y="0px"
   width="42.775002"
   height="36.005005"
   viewBox="0 0 42.775002 36.005005"
   enable-background="new 0 0 155 2356"
   xml:space="preserve"
   xmlns="http://www.w3.org/2000/svg"
   xmlns:svg="http://www.w3.org/2000/svg"><defs
   id="defs954" />











<g
   id="g911"
   transform="translate(-56.113998,-569.05499)">
	<g
   id="g899">
		<path
   fill="#ffffff"
   d="m 56.114,578.494 c 0,-5.213 4.224,-9.438 9.437,-9.439 5.213,0.004 9.437,4.229 9.437,9.439 0,5.21 -4.224,9.434 -9.437,9.436 -5.215,-0.002 -9.437,-4.223 -9.437,-9.436 m 3.367,0 c 0.006,3.352 2.716,6.061 6.068,6.067 3.351,-0.01 6.064,-2.719 6.07,-6.067 -0.006,-3.355 -2.72,-6.064 -6.07,-6.07 -3.351,0.006 -6.061,2.715 -6.068,6.07"
   id="path891" />
		<rect
   x="63.868"
   y="586.55701"
   fill="#ffffff"
   width="3.3659999"
   height="11.163"
   id="rect893" />
		<rect
   x="56.402"
   y="589.52301"
   fill="#ffffff"
   width="18.299"
   height="3.3659999"
   id="rect895" />
		<path
   fill="#ffffff"
   d="m 56.116,604.713 c 0,-5.209 4.222,-9.433 9.435,-9.436 5.213,0.003 9.437,4.227 9.437,9.436 -0.002,0.229 -0.018,0.331 -0.015,0.331 v 0.003 l -3.365,-0.104 c 0.007,-0.194 0.018,-0.229 0.013,-0.229 -0.006,-3.35 -2.72,-6.062 -6.07,-6.07 -3.354,0.012 -6.063,2.724 -6.068,6.07 -0.002,0 0.004,0.043 0.012,0.211 l -3.367,0.135 c 0.002,-0.016 -0.011,-0.132 -0.012,-0.347"
   id="path897" />
	</g>
	<g
   id="g909">
		<path
   fill="#ffffff"
   d="m 80.012,578.494 c 0,-5.213 4.223,-9.438 9.438,-9.439 5.213,0.004 9.437,4.229 9.437,9.439 0,5.21 -4.224,9.434 -9.437,9.436 -5.216,-0.002 -9.438,-4.223 -9.438,-9.436 m 3.37,0 c 0.005,3.352 2.716,6.061 6.067,6.067 3.352,-0.01 6.063,-2.719 6.066,-6.067 -0.004,-3.355 -2.718,-6.064 -6.066,-6.07 -3.351,0.006 -6.062,2.715 -6.067,6.07"
   id="path901" />
		<rect
   x="87.765999"
   y="586.55701"
   fill="#ffffff"
   width="3.3640001"
   height="11.163"
   id="rect903" />
		<rect
   x="80.301003"
   y="589.52301"
   fill="#ffffff"
   width="18.297001"
   height="3.3659999"
   id="rect905" />
		<path
   fill="#ffffff"
   d="m 80.014,604.713 c 0,-5.209 4.223,-9.433 9.438,-9.436 5.211,0.003 9.437,4.227 9.437,9.436 -0.005,0.229 -0.021,0.331 -0.017,0.331 v 0.003 l -3.364,-0.104 c 0.008,-0.194 0.016,-0.229 0.012,-0.229 -0.004,-3.35 -2.718,-6.062 -6.065,-6.07 -3.354,0.012 -6.065,2.724 -6.067,6.07 -0.004,0 0.002,0.043 0.01,0.211 l -3.365,0.135 c -0.006,-0.016 -0.017,-0.132 -0.019,-0.347"
   id="path907" />
	</g>
</g>



</svg>
