<?xml version="1.0" encoding="UTF-8" standalone="no"?>
<!-- Generator: Adobe Illustrator 16.0.0, SVG Export Plug-In . SVG Version: 6.00 Build 0)  -->

<svg
   version="1.1"
   id="Layer_1"
   x="0px"
   y="0px"
   width="45.514004"
   height="45.514038"
   viewBox="0 0 45.514004 45.514038"
   enable-background="new 0 0 155 2356"
   xml:space="preserve"
   sodipodi:docname="svg-sprite-sheet.svg"
   xmlns:inkscape="http://www.inkscape.org/namespaces/inkscape"
   xmlns:sodipodi="http://sodipodi.sourceforge.net/DTD/sodipodi-0.dtd"
   xmlns="http://www.w3.org/2000/svg"
   xmlns:svg="http://www.w3.org/2000/svg"><defs
   id="defs954" /><sodipodi:namedview
   id="namedview952"
   pagecolor="#505050"
   bordercolor="#eeeeee"
   borderopacity="1"
   inkscape:showpageshadow="0"
   inkscape:pageopacity="0"
   inkscape:pagecheckerboard="0"
   inkscape:deskcolor="#505050"
   showgrid="false"
   showguides="true"><sodipodi:guide
     position="-55.199589,-1535.463"
     orientation="1,0"
     id="guide956"
     inkscape:locked="false" /><sodipodi:guide
     position="-63.418194,-1594.363"
     orientation="0,-1"
     id="guide958"
     inkscape:locked="false" /></sodipodi:namedview>










<path
   fill="#ffffff"
   d="m 44.543,41.703014 -2.813,2.836 c -0.631,0.604 -1.498,0.975 -2.393,0.975 -0.893,0 -1.762,-0.367 -2.367,-0.975 l -9.546,-9.568 c -0.628,-0.604 -0.998,-1.475 -0.998,-2.367 0,-1 0.421,-1.813 1.13,-2.522 l -6.729,-6.729 -3.313,3.313 c -0.238,0.236 -0.552,0.369 -0.893,0.369 -0.343,0 -0.658,-0.133 -0.895,-0.369 0.789,0.787 1.524,1.366 1.524,2.576 0,0.684 -0.262,1.288 -0.735,1.787 -0.895,0.945 -1.84,2.209 -3.261,2.209 -0.658,0 -1.315,-0.266 -1.787,-0.737 l -10.73000003,-10.729 c -0.473,-0.473 -0.737000000517583,-1.131 -0.737000000517583,-1.785 0,-1.423 1.262000030517583,-2.365 2.208000030517583,-3.262 0.502,-0.475 1.104,-0.735 1.788,-0.735 1.21,0 1.791,0.735 2.577,1.522 -0.234,-0.232 -0.369,-0.553 -0.369,-0.893 0,-0.342 0.134,-0.658 0.369,-0.896 l 9.151,-9.1499998 c 0.237,-0.235 0.552,-0.367 0.895,-0.367 0.341,0 0.655,0.132 0.893,0.367 -0.79,-0.786 -1.524,-1.365 -1.524,-2.575 0,-0.688 0.261,-1.288 0.734,-1.79 0.895,-0.945 1.841,-2.208000039844 3.261,-2.208000039844 0.658,0 1.315,0.263999999844 1.788,0.733999999844 L 32.499,11.463014 c 0.473,0.473 0.736,1.13 0.736,1.787 0,1.42 -1.264,2.369 -2.209,3.262 -0.5,0.476 -1.104,0.734 -1.787,0.734 -1.211,0 -1.791,-0.734 -2.578,-1.521 0.236,0.234 0.369,0.554 0.369,0.896 0,0.34 -0.133,0.658 -0.369,0.893 l -3.314,3.314 6.73,6.729 c 0.711,-0.709 1.527,-1.132 2.525,-1.132 0.893,0 1.762,0.37 2.393,0.976 l 9.545,9.545 c 0.604,0.632 0.974,1.5 0.974,2.394 0,0.888 -0.364,1.756 -0.971,2.363 z"
   id="path889" />




</svg>
