<svg width="180" height="108" viewBox="0 0 180 108" fill="none" xmlns="http://www.w3.org/2000/svg">
<g id="EagleEye-Horizontal-White">
<g id="EagleEye-Horizontal-White_2">
<g id="Group 3" clip-path="url(#clip0_169_245)">
<path id="Vector" d="M43.1451 59.3821C42.9327 57.9451 43.0259 56.5502 43.3692 55.1659C43.7308 53.6973 44.1856 52.2508 44.9536 50.9061C45.4095 50.1111 45.9152 49.3398 46.4467 48.5855C46.8587 47.9999 47.3193 47.4446 47.8086 46.9102C48.1868 46.497 48.6254 46.1295 49.0498 45.7602C49.4061 45.4516 49.7794 45.1487 50.1661 44.8717C50.6227 44.5446 51.101 44.2375 51.5916 43.9632C52.1221 43.6661 52.6685 43.3815 53.2276 43.147C54.0928 42.7881 54.9771 42.5045 55.8854 42.2688C57.2875 41.9048 58.7032 41.792 60.128 41.7911C60.5206 41.7886 60.9102 41.8238 61.3103 41.8811C58.1586 42.3956 55.4464 43.7277 53.1639 45.8727C53.1849 45.9169 53.2101 45.9582 53.2311 46.0024C53.5724 45.8409 53.9148 45.6727 54.262 45.5189C54.5551 45.386 54.8499 45.2638 55.1477 45.1453C55.476 45.0169 55.8043 44.8884 56.1385 44.7676C56.7222 44.557 57.2984 44.3281 57.8961 44.1608C58.5884 43.9673 59.2946 43.8171 60.0056 43.6814C60.7165 43.5457 61.4338 43.435 62.1523 43.3591C63.4213 43.2209 64.6764 43.3061 65.9088 43.5617C67.0367 43.7972 68.1116 44.1716 69.1305 44.681C69.1674 44.696 69.202 44.7246 69.2295 44.7523C69.257 44.7801 69.2763 44.8137 69.3348 44.8903C69.042 44.8985 68.7885 44.9082 68.5391 44.9149C66.9193 44.9605 65.3093 45.1355 63.7119 45.4437C62.58 45.6616 61.4527 45.9355 60.3301 46.2238C59.5733 46.4161 58.8222 46.6577 58.0841 46.9078C57.5291 47.0978 56.987 47.3379 56.4431 47.5674C55.891 47.8028 55.3418 48.0421 54.7973 48.2958C54.5582 48.4077 54.3267 48.538 54.0994 48.6653C53.7357 48.8724 53.3691 49.0757 53.023 49.3059C52.1685 49.8705 51.31 50.4381 50.4761 51.0295C49.9988 51.3714 49.5409 51.7469 49.0988 52.1347C48.5668 52.6048 48.0476 53.0834 47.5589 53.5936C47.0066 54.1789 46.4848 54.7958 45.973 55.4174C45.5082 55.9756 45.0493 56.5415 44.6362 57.134C44.1547 57.8287 43.7289 58.5547 43.2803 59.2674C43.2549 59.3093 43.208 59.3311 43.1451 59.3821Z" fill="white"/>
<path id="Subtract" d="M45.9907 58.6485C47.3069 61.2268 50.0497 63 53.22 63C57.6714 63 61.28 59.5044 61.28 55.1923C61.28 52.5931 59.9688 50.2905 57.9522 48.8713C57.9471 48.8735 57.9421 48.8756 57.937 48.8777C57.3849 49.1131 56.8358 49.3524 56.2912 49.6061C56.0588 49.7149 55.8335 49.8411 55.6123 49.965L55.5933 49.9756C55.5479 50.0015 55.5024 50.0273 55.4569 50.0531C55.1383 50.234 54.8198 50.4148 54.5169 50.6162C54.1158 50.8813 53.7138 51.147 53.3138 51.4155C55.4244 51.4638 57.12 53.1362 57.12 55.1923C57.12 57.2788 55.3739 58.9702 53.22 58.9702C51.0661 58.9702 49.32 57.2788 49.32 55.1923C49.32 54.9839 49.3375 54.7794 49.371 54.5801C49.2637 54.6867 49.1576 54.7946 49.0528 54.9039C48.5006 55.4892 47.9788 56.1061 47.467 56.7277C47.0022 57.2859 46.5433 57.8518 46.1301 58.4443C46.0832 58.5121 46.0367 58.5802 45.9907 58.6485Z" fill="white"/>
<path id="Path" d="M38.504 59.3229L28 54.6383V53.5805L38.504 48.8959V50.0041L29.3 54.1346L38.504 58.265V59.3229Z" fill="white"/>
<path id="Path_2" d="M78.336 54.1346L69.08 50.0041V48.8959L79.584 53.5805V54.6886L69.08 59.3732V58.265L78.336 54.1346Z" fill="white"/>
</g>
<g id="CodeAuditor">
<path id="Vector_2" d="M145.808 53.9231H151.313C151.264 52.3571 150.275 50.8901 148.61 50.8901C146.896 50.8901 145.989 52.3736 145.808 53.9231ZM152.352 54.7967H145.808C145.808 56.3132 146.632 58.1429 148.61 58.1429C150.127 58.1429 150.951 57.2692 151.28 55.967H152.319C151.874 57.8956 150.769 59.0165 148.61 59.0165C145.907 59.0165 144.769 56.9396 144.769 54.5165C144.769 52.2747 145.907 50.0165 148.61 50.0165C151.33 50.0165 152.434 52.4066 152.352 54.7967Z" fill="white"/>
<path id="Vector_3" d="M140.008 58.7363L136.612 50.2638H137.716L140.519 57.5165L143.139 50.2638H144.178L140.486 60.0715C139.876 61.5056 139.546 61.9176 138.244 61.9176C137.832 61.9012 137.634 61.9012 137.453 61.8352V60.9616C137.7 61.0111 137.914 61.044 138.161 61.044C139.084 61.044 139.299 60.5001 139.645 59.7089L140.008 58.7363Z" fill="white"/>
<path id="Vector_4" d="M127.995 58.7692V47H136.121V47.956H129.116V52.2088H135.676V53.1648H129.116V57.8132H136.204V58.7692H127.995Z" fill="white"/>
<path id="Vector_5" d="M120.161 53.5934H123.969C123.755 52.4066 123.244 51.7802 122.107 51.7802C120.59 51.7802 120.211 52.9341 120.161 53.5934ZM126.31 55.0769H120.161C120.227 56.5769 120.936 57.2363 122.255 57.2363C123.194 57.2363 123.953 56.6593 124.101 56.1319H126.161C125.502 58.1593 124.101 59 122.172 59C119.486 59 117.821 57.1538 117.821 54.5165C117.821 51.9615 119.585 50.0165 122.172 50.0165C125.074 50.0165 126.491 52.456 126.31 55.0769Z" fill="white"/>
<path id="Vector_6" d="M114.049 58.7692V47H116.39V58.7692H114.049Z" fill="white"/>
<path id="Vector_7" d="M107.879 56.7582C109.214 56.7582 109.873 55.6209 109.873 54.4011C109.873 53.0165 109.395 51.7802 107.879 51.7802C106.56 51.7802 105.983 52.9341 105.983 54.2033C105.983 55.4231 106.428 56.7582 107.879 56.7582ZM112.099 50.2472V58.2253C112.099 59.6264 111.588 62 107.681 62C106 62 104.055 61.1923 103.923 59.2637H106.247C106.461 60.1374 107.154 60.4341 107.994 60.4341C109.297 60.4341 109.89 59.5604 109.873 58.3242V57.2033H109.841C109.33 58.1099 108.324 58.522 107.286 58.522C104.714 58.522 103.643 56.5769 103.643 54.2363C103.643 52.0275 104.928 50.0165 107.302 50.0165C108.423 50.0165 109.264 50.3956 109.841 51.3846H109.873V50.2472H112.099Z" fill="white"/>
<path id="Vector_8" d="M96.683 52.8681H94.3423C94.4742 50.6923 96.4358 50.0165 98.3478 50.0165C100.046 50.0165 102.09 50.3956 102.09 52.4396V56.8736C102.09 57.6483 102.172 58.4231 102.386 58.7692H100.013C99.9303 58.5055 99.8643 58.2253 99.8478 57.9451C99.1061 58.7198 98.0347 59 96.9797 59C95.3478 59 94.0786 58.1923 94.0786 56.4451C94.1116 52.5714 99.8478 54.6483 99.7489 52.7363C99.7489 51.7472 99.0566 51.5824 98.2325 51.5824C97.3259 51.5824 96.7654 51.9451 96.683 52.8681ZM99.7489 55.4725V54.5989C99.3533 54.9451 98.5292 54.9615 97.8039 55.0934C97.0786 55.2253 96.4193 55.489 96.4193 56.3462C96.4193 57.2033 97.0951 57.4341 97.8533 57.4341C99.683 57.4341 99.7489 56 99.7489 55.4725Z" fill="white"/>
<path id="Vector_9" d="M84 58.7692V47H92.8022V49.1758H86.5879V51.6978H92.2912V53.7088H86.5879V56.5934H92.9341V58.7692H84Z" fill="white"/>
</g>
</g>
</g>
<defs>
<clipPath id="clip0_169_245">
<rect width="52" height="22" fill="white" transform="translate(28 41)"/>
</clipPath>
</defs>
</svg>
