<svg width="180" height="108" viewBox="0 0 180 108" fill="none" xmlns="http://www.w3.org/2000/svg">
<g id="EagleEye-Vertical-Darkmode">
<g id="EagleEye-Vertical-White">
<g id="Group 3" clip-path="url(#clip0_990_333)">
<path id="Vector" d="M69.125 51.4189C68.7166 48.5663 68.896 45.797 69.556 43.0488C70.2514 40.1333 71.1261 37.2617 72.6031 34.5922C73.4797 33.014 74.4522 31.4826 75.4743 29.9853C76.2666 28.8226 77.1524 27.7202 78.0935 26.6594C78.8208 25.8391 79.6641 25.1095 80.4804 24.3764C81.1655 23.7638 81.8833 23.1623 82.627 22.6124C83.5051 21.963 84.425 21.3534 85.3684 20.8088C86.3886 20.2191 87.4393 19.6541 88.5146 19.1885C90.1783 18.4761 91.879 17.9129 93.6258 17.4452C96.3221 16.7225 99.0446 16.4985 101.785 16.4968C102.54 16.4918 103.289 16.5616 104.058 16.6753C97.9971 17.6968 92.7815 20.3413 88.392 24.5996C88.4324 24.6874 88.4808 24.7694 88.5212 24.8572C89.1776 24.5366 89.8362 24.2026 90.5037 23.8973C91.0674 23.6335 91.6344 23.3908 92.207 23.1557C92.8384 22.9006 93.4697 22.6456 94.1123 22.4059C95.2349 21.9877 96.3429 21.5332 97.4924 21.2011C98.8237 20.817 100.182 20.5188 101.549 20.2494C102.916 19.9799 104.296 19.7602 105.677 19.6096C108.118 19.3352 110.531 19.5044 112.901 20.0118C115.071 20.4794 117.138 21.2226 119.097 22.2338C119.168 22.2637 119.235 22.3205 119.287 22.3755C119.34 22.4305 119.377 22.4973 119.49 22.6495C118.927 22.6657 118.439 22.6849 117.96 22.6982C114.845 22.7887 111.749 23.1361 108.677 23.7481C106.5 24.1806 104.332 24.7243 102.173 25.2967C100.718 25.6785 99.2734 26.158 97.8539 26.6546C96.7867 27.0318 95.7441 27.5085 94.6982 27.9641C93.6364 28.4314 92.5803 28.9064 91.5331 29.41C91.0734 29.6323 90.6282 29.8909 90.191 30.1436C89.4916 30.5548 88.7866 30.9585 88.121 31.4154C86.4779 32.5363 84.8268 33.663 83.2231 34.8372C82.3054 35.5159 81.4248 36.2612 80.5746 37.0312C79.5514 37.9644 78.553 38.9146 77.6132 39.9274C76.5511 41.0894 75.5477 42.3141 74.5634 43.5481C73.6696 44.6564 72.7871 45.7798 71.9926 46.956C71.0667 48.3352 70.2478 49.7764 69.3851 51.1913C69.3364 51.2744 69.246 51.3177 69.125 51.4189Z" fill="#CC4141"/>
<path id="Subtract" d="M74.5975 49.9626C77.1286 55.0812 82.4032 58.6013 88.5 58.6013C97.0605 58.6013 104 51.6617 104 43.1013C104 37.9412 101.478 33.37 97.6004 30.5527C97.5907 30.5569 97.5809 30.5611 97.5712 30.5654C96.5095 31.0327 95.4534 31.5077 94.4062 32.0113C93.9592 32.2274 93.526 32.4778 93.1005 32.7238L93.0641 32.7448C92.9767 32.7962 92.8891 32.8475 92.8016 32.8988C92.1891 33.2578 91.5765 33.6168 90.9941 34.0166C90.2227 34.5428 89.4496 35.0703 88.6804 35.6034C92.7392 35.6992 96 39.0195 96 43.1013C96 47.2434 92.6422 50.6013 88.5 50.6013C84.3579 50.6013 81 47.2434 81 43.1013C81 42.6875 81.0336 42.2815 81.098 41.8859C80.8916 42.0976 80.6876 42.3117 80.4862 42.5287C79.4242 43.6907 78.4208 44.9154 77.4365 46.1494C76.5427 47.2576 75.6602 48.3811 74.8656 49.5572C74.7753 49.6918 74.686 49.8269 74.5975 49.9626Z" fill="white"/>
<path id="Path" d="M60.2 51.3013L40 42.0013V39.9013L60.2 30.6013V32.8013L42.5 41.0013L60.2 49.2013V51.3013Z" fill="white"/>
<path id="Path_2" d="M136.8 41.0013L119 32.8013V30.6013L139.2 39.9013V42.1013L119 51.4013V49.2013L136.8 41.0013Z" fill="white"/>
</g>
<g id="CodeAuditor">
<path id="Vector_2" d="M130.516 79.0267H138.49C138.418 76.7587 136.986 74.634 134.575 74.634C132.092 74.634 130.779 76.7826 130.516 79.0267ZM139.994 80.292H130.516C130.516 82.4883 131.71 85.1382 134.575 85.1382C136.771 85.1382 137.965 83.8729 138.442 81.9869H139.946C139.301 84.7801 137.702 86.4035 134.575 86.4035C130.659 86.4035 129.012 83.3954 129.012 79.8861C129.012 76.6394 130.659 73.3688 134.575 73.3688C138.514 73.3688 140.113 76.8304 139.994 80.292Z" fill="white"/>
<path id="Vector_3" d="M122.115 85.9977L117.198 73.7269H118.797L122.856 84.2311L126.651 73.7269H128.155L122.808 87.9314C121.924 90.0083 121.447 90.6052 119.561 90.6052C118.964 90.5813 118.678 90.5813 118.415 90.4858V89.2205C118.773 89.2921 119.084 89.3399 119.442 89.3399C120.779 89.3399 121.089 88.5521 121.59 87.4062L122.115 85.9977Z" fill="white"/>
<path id="Vector_4" d="M104.718 86.0453V69H116.487V70.3846H106.341V76.5439H115.842V77.9285H106.341V84.6607H116.606V86.0453H104.718Z" fill="white"/>
<path id="Vector_5" d="M93.3726 78.5492H98.8873C98.577 76.8304 97.8369 75.9232 96.1897 75.9232C93.9933 75.9232 93.4443 77.5943 93.3726 78.5492ZM102.277 80.6978H93.3726C93.4681 82.8702 94.4947 83.8252 96.4045 83.8252C97.7653 83.8252 98.8634 82.9896 99.0783 82.2257H102.062C101.108 85.1621 99.0783 86.3796 96.2851 86.3796C92.3938 86.3796 89.9827 83.7058 89.9827 79.8861C89.9827 76.1858 92.5371 73.3688 96.2851 73.3688C100.487 73.3688 102.54 76.902 102.277 80.6978Z" fill="#CC4141"/>
<path id="Vector_6" d="M84.5201 86.0453V69H87.9101V86.0453H84.5201Z" fill="#CC4141"/>
<path id="Vector_7" d="M75.5839 83.1328C77.5176 83.1328 78.4725 81.4856 78.4725 79.719C78.4725 77.7137 77.7802 75.9232 75.5839 75.9232C73.674 75.9232 72.8385 77.5943 72.8385 79.4325C72.8385 81.1991 73.483 83.1328 75.5839 83.1328ZM81.6954 73.703V85.2575C81.6954 87.2868 80.9553 90.7245 75.2974 90.7245C72.8623 90.7245 70.0453 89.5547 69.8543 86.7615H73.2204C73.5308 88.0268 74.5334 88.4565 75.751 88.4565C77.6369 88.4565 78.4964 87.1913 78.4725 85.4008V83.7774H78.4247C77.6847 85.0904 76.2284 85.6873 74.7244 85.6873C71.0002 85.6873 69.4485 82.8702 69.4485 79.4803C69.4485 76.2813 71.3106 73.3688 74.7483 73.3688C76.3717 73.3688 77.5892 73.9179 78.4247 75.3502H78.4725V73.703H81.6954Z" fill="#CC4141"/>
<path id="Vector_8" d="M59.3687 77.4988H55.9788C56.1698 74.3476 59.0106 73.3688 61.7799 73.3688C64.2388 73.3688 67.1991 73.9179 67.1991 76.8781V83.3C67.1991 84.422 67.3185 85.544 67.6288 86.0454H64.1911C64.0717 85.6634 63.9762 85.2575 63.9524 84.8517C62.8781 85.9737 61.3263 86.3796 59.7985 86.3796C57.435 86.3796 55.5968 85.2098 55.5968 82.6793C55.6445 77.0691 63.9524 80.0771 63.8091 77.3078C63.8091 75.8754 62.8065 75.6367 61.6128 75.6367C60.2998 75.6367 59.4881 76.1619 59.3687 77.4988ZM63.8091 81.2707V80.0055C63.2362 80.5068 62.0425 80.5307 60.9921 80.7217C59.9417 80.9127 58.9868 81.2946 58.9868 82.536C58.9868 83.7774 59.9656 84.1116 61.0637 84.1116C63.7136 84.1116 63.8091 82.0347 63.8091 81.2707Z" fill="#CC4141"/>
<path id="Vector_9" d="M41 86.0453V69H53.7482V72.1512H44.7481V75.8038H53.0081V78.7163H44.7481V82.8941H53.9392V86.0453H41Z" fill="#CC4141"/>
</g>
</g>
</g>
<defs>
<clipPath id="clip0_990_333">
<rect width="100" height="43" fill="white" transform="translate(40 16)"/>
</clipPath>
</defs>
</svg>
