<svg width="180" height="108" viewBox="0 0 180 108" fill="none" xmlns="http://www.w3.org/2000/svg">
<g id="SophieHub-Vertical-White">
<g id="Frame" clip-path="url(#clip0_999_499)">
<g id="Logos-for-Export">
<g id="SophieHub_BW">
<g id="Group-11">
<g id="Group-13">
<path id="Path" d="M60.2 50.7L40 41.4V39.3L60.2 30V32.2L42.5 40.4L60.2 48.6V50.7Z" fill="white"/>
<path id="Path_2" d="M136.8 40.4L119 32.2V30L139.2 39.3V41.5L119 50.8V48.6L136.8 40.4Z" fill="white"/>
<path id="Combined-Shape" d="M101 19C103.209 19 105 20.7909 105 23V56C105 58.2091 103.209 60 101 60H79C76.7909 60 75 58.2091 75 56V23C75 20.7909 76.7909 19 79 19H101ZM102 54H78V56C78 56.5128 78.386 56.9355 78.8834 56.9933L79 57H101C101.513 57 101.936 56.614 101.993 56.1166L102 56V54ZM101 22H79C78.4872 22 78.0645 22.386 78.0067 22.8834L78 23V51H102V23C102 22.4872 101.614 22.0645 101.117 22.0067L101 22Z" fill="white"/>
<g id="Sophie">
<path id="Combined-Shape_2" fill-rule="evenodd" clip-rule="evenodd" d="M90 31C90.7495 31 91.398 31.1706 91.7088 31.4188L91.8573 31.4183C93.8076 31.4183 95.518 32.4449 96.4777 33.9873L96.476 32.6984C96.2156 32.5583 96.0381 32.2792 96.0381 31.9577C96.0381 31.4956 96.4048 31.1211 96.8571 31.1211C97.3095 31.1211 97.6762 31.4956 97.6762 31.9577C97.6762 32.2792 97.4987 32.5583 97.2383 32.6984L97.2386 34.6099C97.6935 35.0084 98 35.758 98 36.617C98 37.661 97.5473 38.5433 96.9256 38.8303C96.1355 40.8577 94.1642 42.2941 91.8573 42.2941H88.257C85.9691 42.2941 84.0113 40.8813 83.2083 38.8805C82.5193 38.6679 82 37.7351 82 36.617C82 35.758 82.3065 35.0084 82.7614 34.6099L82.7617 32.6984C82.5013 32.5583 82.3238 32.2792 82.3238 31.9577C82.3238 31.4956 82.6905 31.1211 83.1429 31.1211C83.5952 31.1211 83.9619 31.4956 83.9619 31.9577C83.9619 32.2792 83.7844 32.5583 83.524 32.6984L83.5231 34.1781C84.4574 32.5302 86.2273 31.4183 88.257 31.4183L88.2912 31.4188C88.602 31.1706 89.2505 31 90 31ZM91.8615 33.0475H88.1385C86.0107 33.0475 84.2857 34.7724 84.2857 36.9002C84.2857 39.0281 86.0107 40.753 88.1385 40.753H91.8615C93.9893 40.753 95.7143 39.0281 95.7143 36.9002C95.7143 34.7724 93.9893 33.0475 91.8615 33.0475Z" fill="white"/>
<g id="Group">
<path id="Oval" fill-rule="evenodd" clip-rule="evenodd" d="M90.033 39.4809C90.9622 39.4809 91.7155 38.884 91.7155 38.1477C91.7155 37.4114 90.9622 37.5686 90.033 37.5686C89.1038 37.5686 88.3505 37.4114 88.3505 38.1477C88.3505 38.884 89.1038 39.4809 90.033 39.4809Z" fill="white"/>
<path id="Oval_2" d="M87.25 36.6442C87.6642 36.6442 88 36.3084 88 35.8942C88 35.48 87.6642 35.1442 87.25 35.1442C86.8358 35.1442 86.5 35.48 86.5 35.8942C86.5 36.3084 86.8358 36.6442 87.25 36.6442Z" fill="white"/>
<path id="Oval_3" d="M92.7976 36.6442C93.2118 36.6442 93.5476 36.3084 93.5476 35.8942C93.5476 35.48 93.2118 35.1442 92.7976 35.1442C92.3834 35.1442 92.0476 35.48 92.0476 35.8942C92.0476 36.3084 92.3834 36.6442 92.7976 36.6442Z" fill="white"/>
</g>
</g>
</g>
<g id="SophieHub">
<path id="Sophie_2" d="M36.2971 85.952C40.9771 85.952 43.4251 83.6 43.4251 80.456C43.4251 76.592 39.6091 75.752 38.3371 75.464C34.0411 74.384 33.2251 74.192 33.2251 72.872C33.2251 71.432 34.6171 70.928 35.8171 70.928C37.6411 70.928 39.0811 71.48 39.2011 73.52H42.8491C42.8491 69.56 39.5611 68 35.9851 68C32.8891 68 29.5771 69.656 29.5771 73.184C29.5771 76.352 32.1451 77.432 34.6891 78.056C37.1851 78.752 39.7771 79.016 39.7771 80.888C39.7771 82.64 37.7611 83.024 36.4411 83.024C34.4251 83.024 32.6491 82.136 32.6491 79.856H29.0011C28.9291 84.08 32.5051 85.952 36.2971 85.952ZM51.3211 85.88C55.2331 85.88 57.7531 83.288 57.7531 79.352C57.7531 75.392 55.2331 72.8 51.3211 72.8C47.4331 72.8 44.9131 75.392 44.9131 79.352C44.9131 83.288 47.4331 85.88 51.3211 85.88ZM51.3211 83.312C49.0171 83.312 48.3211 81.344 48.3211 79.352C48.3211 77.36 49.0171 75.368 51.3211 75.368C53.6491 75.368 54.3451 77.36 54.3451 79.352C54.3451 81.344 53.6491 83.312 51.3211 83.312ZM63.3691 89.912V84.008H63.4171C64.2571 85.232 65.6251 85.88 67.1371 85.88C70.7851 85.88 72.5851 82.784 72.5851 79.472C72.5851 75.944 70.8331 72.8 66.9451 72.8C65.4091 72.8 64.0891 73.376 63.2491 74.72H63.2011V73.136H59.9611V89.912H63.3691ZM66.2251 83.312C64.0171 83.312 63.2491 81.392 63.2491 79.376C63.2491 77.36 63.9691 75.368 66.2011 75.368C68.3851 75.368 69.1771 77.384 69.1771 79.376C69.1771 81.392 68.4571 83.312 66.2251 83.312ZM78.0331 85.544V79.04C78.0331 76.52 78.8251 75.488 80.6731 75.488C82.2811 75.488 82.8571 76.496 82.8571 78.536V85.544H86.2651V77.912C86.2651 74.84 85.3531 72.8 81.7291 72.8C80.4571 72.8 78.9691 73.448 78.1051 74.864H78.0331V68.408H74.6251V85.544H78.0331ZM92.3611 71.216V68.408H88.9531V71.216H92.3611ZM92.3611 85.544V73.136H88.9531V85.544H92.3611ZM100.785 85.88C103.593 85.88 105.633 84.656 106.593 81.704H103.593C103.377 82.472 102.273 83.312 100.905 83.312C98.9851 83.312 97.9531 82.352 97.8571 80.168H106.809C107.073 76.352 105.009 72.8 100.785 72.8C97.0171 72.8 94.4491 75.632 94.4491 79.352C94.4491 83.192 96.8731 85.88 100.785 85.88ZM103.401 78.008H97.8571C97.9291 77.048 98.4811 75.368 100.689 75.368C102.345 75.368 103.089 76.28 103.401 78.008Z" fill="white"/>
<path id="Hub" d="M110.889 85.544V77.24H121.065V85.544H122.697V68.408H121.065V75.848H110.889V68.408H109.257V85.544H110.889ZM130.185 85.904C132.033 85.904 133.665 84.968 134.457 83.312H134.505V85.544H135.897V73.16H134.385V79.664C134.385 82.184 133.257 84.632 130.665 84.632C128.265 84.632 127.425 83.456 127.353 81.224V73.16H125.841V81.2C125.841 84.104 127.041 85.904 130.185 85.904ZM144.609 85.904C148.377 85.904 150.177 82.88 150.177 79.352C150.177 75.824 148.377 72.8 144.609 72.8C142.785 72.8 140.937 73.736 140.313 75.512H140.265V68.408H138.753V85.544H140.145V83.192H140.193C140.889 84.896 142.593 85.904 144.609 85.904ZM144.609 84.632C141.417 84.632 140.265 81.92 140.265 79.352C140.265 76.784 141.417 74.072 144.609 74.072C147.489 74.072 148.665 76.784 148.665 79.352C148.665 81.92 147.489 84.632 144.609 84.632Z" fill="white"/>
</g>
</g>
</g>
</g>
</g>
</g>
<defs>
<clipPath id="clip0_999_499">
<rect width="122" height="71" fill="white" transform="translate(29 19)"/>
</clipPath>
</defs>
</svg>
