<svg width="180" height="108" viewBox="0 0 180 108" fill="none" xmlns="http://www.w3.org/2000/svg">
<g id="SophieBot-Horizotal-White">
<g id="Frame" clip-path="url(#clip0_999_423)">
<g id="Logos-for-Export">
<g id="SophieBot_horizontal_BW">
<g id="Group">
<g id="Group-2">
<path id="Path" d="M34.6325 58.7553L24 53.9099V52.8158L34.6325 47.9704V49.1166L25.3159 53.3889L34.6325 57.6612V58.7553Z" fill="white"/>
<path id="Path_2" d="M74.9516 53.3889L65.5824 49.1166V47.9704L76.2148 52.8158V53.962L65.5824 58.8074V57.6612L74.9516 53.3889Z" fill="white"/>
</g>
<g id="SophieBot">
<path id="Path_3" d="M81.1415 54.9811C81.0936 57.8298 83.4682 59.0923 85.9862 59.0923C89.0939 59.0923 90.7194 57.5061 90.7194 55.3857C90.7194 52.7798 88.1855 52.2133 87.3408 52.019C84.4882 51.2907 83.9463 51.1612 83.9463 50.2709C83.9463 49.2998 84.8706 48.9599 85.6675 48.9599C86.8787 48.9599 87.8349 49.3322 87.9145 50.708H90.3369C90.3369 48.0373 88.1536 46.9852 85.779 46.9852C83.7232 46.9852 81.5239 48.102 81.5239 50.4814C81.5239 52.6179 83.2292 53.3463 84.9184 53.7671C86.5759 54.2365 88.297 54.4146 88.297 55.6771C88.297 56.8586 86.9583 57.1176 86.0818 57.1176C84.7431 57.1176 83.5638 56.5187 83.5638 54.9811H81.1415Z" fill="white"/>
<path id="Shape" d="M93.9705 54.6411C93.9705 53.2977 94.4327 51.9543 95.9626 51.9543C97.5085 51.9543 97.9706 53.2977 97.9706 54.6411C97.9706 55.9846 97.5085 57.3118 95.9626 57.3118C94.4327 57.3118 93.9705 55.9846 93.9705 54.6411ZM91.7075 54.6411C91.7075 57.2956 93.3809 59.0437 95.9626 59.0437C98.5603 59.0437 100.234 57.2956 100.234 54.6411C100.234 51.9705 98.5603 50.2224 95.9626 50.2224C93.3809 50.2224 91.7075 51.9705 91.7075 54.6411Z" fill="white"/>
<path id="Shape_2" d="M105.859 57.3118C104.393 57.3118 103.883 56.017 103.883 54.6573C103.883 53.2977 104.361 51.9543 105.843 51.9543C107.293 51.9543 107.819 53.3139 107.819 54.6573C107.819 56.017 107.341 57.3118 105.859 57.3118ZM101.7 61.763H103.963V57.7812H103.995C104.552 58.6067 105.461 59.0437 106.465 59.0437C108.887 59.0437 110.082 56.9557 110.082 54.7221C110.082 52.3427 108.919 50.2224 106.337 50.2224C105.317 50.2224 104.441 50.6108 103.883 51.5173H103.851V50.449H101.7V61.763Z" fill="white"/>
<path id="Path_4" d="M111.437 58.8171H113.7V54.4307C113.7 52.7312 114.226 52.0352 115.453 52.0352C116.521 52.0352 116.903 52.715 116.903 54.0908V58.8171H119.166V53.67C119.166 51.5982 118.561 50.2224 116.154 50.2224C115.31 50.2224 114.322 50.6594 113.748 51.6144H113.7V47.2603H111.437V58.8171Z" fill="white"/>
<path id="Shape_3" d="M123.214 47.2603H120.951V49.1541H123.214V47.2603ZM120.951 58.8171H123.214V50.449H120.951V58.8171Z" fill="white"/>
<path id="Shape_4" d="M126.864 53.7347C126.912 53.0873 127.278 51.9543 128.744 51.9543C129.844 51.9543 130.338 52.5693 130.545 53.7347H126.864ZM132.808 55.1915C132.983 52.6179 131.613 50.2224 128.808 50.2224C126.306 50.2224 124.601 52.1323 124.601 54.6411C124.601 57.2309 126.21 59.0437 128.808 59.0437C130.673 59.0437 132.027 58.2182 132.665 56.2274H130.673C130.529 56.7453 129.796 57.3118 128.888 57.3118C127.613 57.3118 126.927 56.6644 126.864 55.1915H132.808Z" fill="white"/>
<path id="Shape_5" d="M135.517 48.1991H139.247C140.952 48.1991 141.812 48.9275 141.812 50.368C141.812 51.4525 140.968 52.3265 139.247 52.3265H135.517V48.1991ZM134.434 58.8171H139.247C142.944 58.8171 143.326 56.632 143.326 55.5314C143.326 54.0261 142.386 52.9092 140.92 52.715V52.6826C142.099 52.4237 142.896 51.3068 142.896 50.0929C142.896 47.9402 141.159 47.2603 139.247 47.2603H134.434V58.8171ZM135.517 53.2653H139.247C141.159 53.2653 142.243 54.0099 142.243 55.499C142.243 57.3766 140.856 57.8783 139.247 57.8783H135.517V53.2653Z" fill="white"/>
<path id="Shape_6" d="M148.346 51.0802C150.259 51.0802 151.231 52.8769 151.231 54.6411C151.231 56.4054 150.259 58.2021 148.346 58.2021C146.434 58.2021 145.462 56.4054 145.462 54.6411C145.462 52.8769 146.434 51.0802 148.346 51.0802ZM148.346 50.2224C145.844 50.2224 144.458 52.2456 144.458 54.6411C144.458 57.0367 145.844 59.0599 148.346 59.0599C150.848 59.0599 152.235 57.0367 152.235 54.6411C152.235 52.2456 150.848 50.2224 148.346 50.2224Z" fill="white"/>
<path id="Path_5" d="M155.327 47.9564H154.323V50.4652H152.888V51.323H154.323V57.0367C154.307 58.461 154.769 58.9143 156.108 58.9143C156.41 58.9143 156.697 58.8819 157 58.8819V58.0078C156.713 58.0402 156.426 58.0564 156.139 58.0564C155.422 58.0078 155.327 57.6194 155.327 56.9558V51.323H157V50.4652H155.327V47.9564Z" fill="white"/>
</g>
<g id="shutterstock_1025440408">
<path id="Combined-Shape" d="M50.1075 46C51.1673 46 52.0844 46.2374 52.5255 46.5829L52.8494 46.5838C55.5591 46.5838 57.9371 48.0038 59.2799 50.1403L59.2785 48.3702C58.9099 48.1747 58.6586 47.7852 58.6586 47.3366C58.6586 46.6918 59.178 46.169 59.8186 46.169C60.4592 46.169 60.9785 46.6918 60.9785 47.3366C60.9785 47.785 60.7274 48.1744 60.3591 48.37L60.3586 51.038C61.003 51.5942 61.4371 52.6405 61.4371 53.8395C61.4371 55.2919 60.8001 56.5202 59.924 56.9247C58.8231 59.7562 56.0706 61.763 52.8494 61.763H47.5273C44.3335 61.763 41.6005 59.7902 40.4803 56.9967C39.5086 56.6936 38.7778 55.3951 38.7778 53.8395C38.7778 52.6399 39.2123 51.5933 39.8571 51.0373L39.8563 48.3702C39.4877 48.1747 39.2364 47.7852 39.2364 47.3366C39.2364 46.6918 39.7557 46.169 40.3964 46.169C41.037 46.169 41.5563 46.6918 41.5563 47.3366C41.5563 47.7848 41.3055 48.174 40.9374 48.3697L40.9356 50.4091C42.2434 48.1238 44.7055 46.5838 47.5273 46.5838L47.6891 46.5831C48.13 46.2376 49.0473 46 50.1075 46ZM52.8228 48.8576H47.3921C44.4223 48.8576 42.0149 51.2651 42.0149 54.2348C42.0149 57.2046 44.4223 59.6121 47.3921 59.6121H52.8228C55.7926 59.6121 58.2001 57.2046 58.2001 54.2348C58.2001 51.2651 55.7926 48.8576 52.8228 48.8576Z" fill="white"/>
<g id="Group_2">
<path id="Oval" d="M50.1542 57.8366C51.4702 57.8366 52.537 57.0035 52.537 55.9759C52.537 54.9482 51.4702 55.1676 50.1542 55.1676C48.8382 55.1676 47.7714 54.9482 47.7714 55.9759C47.7714 57.0035 48.8382 57.8366 50.1542 57.8366Z" fill="white"/>
<path id="Oval_2" d="M45.7914 54.2551C46.3873 54.2551 46.8704 53.7736 46.8704 53.1797C46.8704 52.5857 46.3873 52.1042 45.7914 52.1042C45.1955 52.1042 44.7124 52.5857 44.7124 53.1797C44.7124 53.7736 45.1955 54.2551 45.7914 54.2551Z" fill="white"/>
<path id="Oval_3" d="M54.4235 54.2551C55.0194 54.2551 55.5025 53.7736 55.5025 53.1797C55.5025 52.5857 55.0194 52.1042 54.4235 52.1042C53.8276 52.1042 53.3445 52.5857 53.3445 53.1797C53.3445 53.7736 53.8276 54.2551 54.4235 54.2551Z" fill="white"/>
</g>
</g>
</g>
</g>
</g>
</g>
</g>
<defs>
<clipPath id="clip0_999_423">
<rect width="133" height="16" fill="white" transform="translate(24 46)"/>
</clipPath>
</defs>
</svg>
