<svg width="180" height="108" viewBox="0 0 180 108" fill="none" xmlns="http://www.w3.org/2000/svg">
<g id="SophieBot-Vertical-Darkmode">
<g id="Frame" clip-path="url(#clip0_999_398)">
<g id="Logos-for-Export">
<g id="SophieBot">
<g id="Group-11">
<g id="Group-36">
<g id="Group-2">
<path id="Path" d="M60.2 47.0143L40 37.7143V35.6143L60.2 26.3143V28.5143L42.5 36.7143L60.2 44.9143V47.0143Z" fill="white"/>
<path id="Path_2" d="M136.8 36.7143L119 28.5143V26.3143L139.2 35.6143V37.8143L119 47.1143V44.9143L136.8 36.7143Z" fill="white"/>
</g>
<g id="shutterstock_1025440408">
<path id="Combined-Shape" fill-rule="evenodd" clip-rule="evenodd" d="M89 23C90.9659 23 92.6669 23.4422 93.4837 24.0853L94.0357 24.0857C99.0793 24.0857 103.505 26.7311 106.001 30.71L106 27.4085C105.316 27.045 104.85 26.3204 104.85 25.4857C104.85 24.2865 105.813 23.3143 107 23.3143C108.187 23.3143 109.15 24.2865 109.15 25.4857C109.15 26.32 108.684 27.0443 108.001 27.408L108.001 32.3688C109.195 33.403 110 35.3489 110 37.579C110 40.2812 108.818 42.5661 107.193 43.3175C105.145 48.5826 100.026 52.3143 94.0357 52.3143H84.2643C78.3261 52.3143 73.2444 48.6472 71.1603 43.4541C69.3561 42.8896 68 40.4737 68 37.579C68 35.3483 68.8053 33.4019 70.0004 32.368L70.0001 27.4085C69.3163 27.045 68.85 26.3204 68.85 25.4857C68.85 24.2865 69.8126 23.3143 71 23.3143C72.1874 23.3143 73.15 24.2865 73.15 25.4857C73.15 26.32 72.6842 27.0443 72.0009 27.408L72.0006 31.2083C74.4316 26.9535 79.013 24.0857 84.2643 24.0857L84.5163 24.0853C85.3331 23.4422 87.0341 23 89 23ZM94 28.3143H84C78.4772 28.3143 74 32.7914 74 38.3143C74 43.8371 78.4772 48.3143 84 48.3143H94C99.5228 48.3143 104 43.8371 104 38.3143C104 32.7914 99.5228 28.3143 94 28.3143Z" fill="white"/>
<g id="Group">
<path id="Oval" fill-rule="evenodd" clip-rule="evenodd" d="M89.0866 45.0124C91.5259 45.0124 93.5033 43.4631 93.5033 41.552C93.5033 39.6409 91.5259 40.0489 89.0866 40.0489C86.6474 40.0489 84.67 39.6409 84.67 41.552C84.67 43.4631 86.6474 45.0124 89.0866 45.0124Z" fill="#CC4141"/>
<path id="Oval_2" d="M81 38.352C82.1046 38.352 83 37.4566 83 36.352C83 35.2475 82.1046 34.352 81 34.352C79.8954 34.352 79 35.2475 79 36.352C79 37.4566 79.8954 38.352 81 38.352Z" fill="white"/>
<path id="Oval_3" d="M97 38.352C98.1046 38.352 99 37.4566 99 36.352C99 35.2475 98.1046 34.352 97 34.352C95.8954 34.352 95 35.2475 95 36.352C95 37.4566 95.8954 38.352 97 38.352Z" fill="white"/>
</g>
</g>
</g>
<g id="SophieBot_2">
<path id="Path_3" d="M32.576 75.6263C32.504 79.8503 36.08 81.7223 39.872 81.7223C44.552 81.7223 47 79.3703 47 76.2263C47 72.3623 43.184 71.5223 41.912 71.2343C37.616 70.1543 36.8 69.9623 36.8 68.6423C36.8 67.2023 38.192 66.6983 39.392 66.6983C41.216 66.6983 42.656 67.2503 42.776 69.2903H46.424C46.424 65.3303 43.136 63.7703 39.56 63.7703C36.464 63.7703 33.152 65.4263 33.152 68.9543C33.152 72.1223 35.72 73.2023 38.264 73.8263C40.76 74.5223 43.352 74.7863 43.352 76.6583C43.352 78.4103 41.336 78.7943 40.016 78.7943C38 78.7943 36.224 77.9063 36.224 75.6263H32.576Z" fill="#CC4141"/>
<path id="Shape" d="M51.896 75.1223C51.896 73.1303 52.592 71.1383 54.896 71.1383C57.224 71.1383 57.92 73.1303 57.92 75.1223C57.92 77.1143 57.224 79.0823 54.896 79.0823C52.592 79.0823 51.896 77.1143 51.896 75.1223ZM48.488 75.1223C48.488 79.0583 51.008 81.6503 54.896 81.6503C58.808 81.6503 61.328 79.0583 61.328 75.1223C61.328 71.1623 58.808 68.5703 54.896 68.5703C51.008 68.5703 48.488 71.1623 48.488 75.1223Z" fill="#CC4141"/>
<path id="Shape_2" d="M69.8 79.0823C67.592 79.0823 66.824 77.1623 66.824 75.1463C66.824 73.1303 67.544 71.1383 69.776 71.1383C71.96 71.1383 72.752 73.1543 72.752 75.1463C72.752 77.1623 72.032 79.0823 69.8 79.0823ZM63.536 85.6823H66.944V79.7783H66.992C67.832 81.0023 69.2 81.6503 70.712 81.6503C74.36 81.6503 76.16 78.5543 76.16 75.2423C76.16 71.7143 74.408 68.5703 70.52 68.5703C68.984 68.5703 67.664 69.1463 66.824 70.4903H66.776V68.9063H63.536V85.6823Z" fill="#CC4141"/>
<path id="Path_4" d="M78.2 81.3143H81.608V74.8103C81.608 72.2903 82.4 71.2583 84.248 71.2583C85.856 71.2583 86.432 72.2663 86.432 74.3063V81.3143H89.84V73.6823C89.84 70.6103 88.928 68.5703 85.304 68.5703C84.032 68.5703 82.544 69.2183 81.68 70.6343H81.608V64.1783H78.2V81.3143Z" fill="#CC4141"/>
<path id="Shape_3" d="M95.936 64.1783H92.528V66.9863H95.936V64.1783ZM92.528 81.3143H95.936V68.9063H92.528V81.3143Z" fill="#CC4141"/>
<path id="Shape_4" d="M101.432 73.7783C101.504 72.8183 102.056 71.1383 104.264 71.1383C105.92 71.1383 106.664 72.0503 106.976 73.7783H101.432ZM110.384 75.9383C110.648 72.1223 108.584 68.5703 104.36 68.5703C100.592 68.5703 98.024 71.4023 98.024 75.1223C98.024 78.9623 100.448 81.6503 104.36 81.6503C107.168 81.6503 109.208 80.4263 110.168 77.4743H107.168C106.952 78.2423 105.848 79.0823 104.48 79.0823C102.56 79.0823 101.528 78.1223 101.432 75.9383H110.384Z" fill="#CC4141"/>
<path id="Shape_5" d="M114.464 65.5703H120.08C122.648 65.5703 123.944 66.6503 123.944 68.7863C123.944 70.3943 122.672 71.6903 120.08 71.6903H114.464V65.5703ZM112.832 81.3143H120.08C125.648 81.3143 126.224 78.0743 126.224 76.4423C126.224 74.2103 124.808 72.5543 122.6 72.2663V72.2183C124.376 71.8343 125.576 70.1783 125.576 68.3783C125.576 65.1863 122.96 64.1783 120.08 64.1783H112.832V81.3143ZM114.464 73.0823H120.08C122.96 73.0823 124.592 74.1863 124.592 76.3943C124.592 79.1783 122.504 79.9223 120.08 79.9223H114.464V73.0823Z" fill="white"/>
<path id="Shape_6" d="M133.784 69.8423C136.664 69.8423 138.128 72.5063 138.128 75.1223C138.128 77.7383 136.664 80.4023 133.784 80.4023C130.904 80.4023 129.44 77.7383 129.44 75.1223C129.44 72.5063 130.904 69.8423 133.784 69.8423ZM133.784 68.5703C130.016 68.5703 127.928 71.5703 127.928 75.1223C127.928 78.6743 130.016 81.6743 133.784 81.6743C137.552 81.6743 139.64 78.6743 139.64 75.1223C139.64 71.5703 137.552 68.5703 133.784 68.5703Z" fill="white"/>
<path id="Path_5" d="M144.296 65.2103H142.784V68.9303H140.624V70.2023H142.784V78.6743C142.76 80.7863 143.456 81.4583 145.472 81.4583C145.928 81.4583 146.36 81.4103 146.816 81.4103V80.1143C146.384 80.1623 145.952 80.1863 145.52 80.1863C144.44 80.1143 144.296 79.5383 144.296 78.5543V70.2023H146.816V68.9303H144.296V65.2103Z" fill="white"/>
</g>
</g>
</g>
</g>
</g>
</g>
<defs>
<clipPath id="clip0_999_398">
<rect width="115" height="63" fill="white" transform="translate(32 23)"/>
</clipPath>
</defs>
</svg>
