<svg width="180" height="108" viewBox="0 0 180 108" fill="none" xmlns="http://www.w3.org/2000/svg">
<g id="SophieHub-Horizontal-White">
<g id="Frame" clip-path="url(#clip0_999_536)">
<g id="Logos-for-Export">
<g id="SophieHub_horizontal_BW">
<g id="Group-13">
<path id="Sophie" d="M82.9644 59.24C86.1483 59.24 87.8138 57.6364 87.8138 55.4927C87.8138 52.8582 85.2176 52.2855 84.3523 52.0891C81.4296 51.3527 80.8744 51.2218 80.8744 50.3218C80.8744 49.34 81.8214 48.9964 82.6378 48.9964C83.8788 48.9964 84.8584 49.3727 84.9401 50.7636H87.4219C87.4219 48.0636 85.185 47 82.7521 47C80.6458 47 78.3926 48.1291 78.3926 50.5345C78.3926 52.6945 80.1397 53.4309 81.8704 53.8564C83.5685 54.3309 85.3319 54.5109 85.3319 55.7873C85.3319 56.9818 83.9604 57.2436 83.0624 57.2436C81.6908 57.2436 80.4826 56.6382 80.4826 55.0836H78.0007C77.9517 57.9636 80.3846 59.24 82.9644 59.24ZM93.1856 59.1909C95.8471 59.1909 97.5615 57.4236 97.5615 54.74C97.5615 52.04 95.8471 50.2727 93.1856 50.2727C90.5405 50.2727 88.8261 52.04 88.8261 54.74C88.8261 57.4236 90.5405 59.1909 93.1856 59.1909ZM93.1856 57.44C91.6182 57.44 91.1447 56.0982 91.1447 54.74C91.1447 53.3818 91.6182 52.0236 93.1856 52.0236C94.7694 52.0236 95.243 53.3818 95.243 54.74C95.243 56.0982 94.7694 57.44 93.1856 57.44ZM101.382 61.94V57.9145H101.415C101.986 58.7491 102.917 59.1909 103.946 59.1909C106.428 59.1909 107.652 57.08 107.652 54.8218C107.652 52.4164 106.46 50.2727 103.815 50.2727C102.77 50.2727 101.872 50.6655 101.301 51.5818H101.268V50.5018H99.0637V61.94H101.382ZM103.325 57.44C101.823 57.44 101.301 56.1309 101.301 54.7564C101.301 53.3818 101.79 52.0236 103.309 52.0236C104.795 52.0236 105.334 53.3982 105.334 54.7564C105.334 56.1309 104.844 57.44 103.325 57.44ZM111.359 58.9618V54.5273C111.359 52.8091 111.897 52.1055 113.155 52.1055C114.249 52.1055 114.64 52.7927 114.64 54.1836V58.9618H116.959V53.7582C116.959 51.6636 116.339 50.2727 113.873 50.2727C113.008 50.2727 111.995 50.7145 111.408 51.68H111.359V47.2782H109.04V58.9618H111.359ZM121.106 49.1927V47.2782H118.788V49.1927H121.106ZM121.106 58.9618V50.5018H118.788V58.9618H121.106ZM126.837 59.1909C128.748 59.1909 130.136 58.3564 130.789 56.3436H128.748C128.601 56.8673 127.85 57.44 126.919 57.44C125.613 57.44 124.911 56.7855 124.845 55.2964H130.936C131.115 52.6945 129.711 50.2727 126.837 50.2727C124.274 50.2727 122.527 52.2036 122.527 54.74C122.527 57.3582 124.176 59.1909 126.837 59.1909ZM128.617 53.8236H124.845C124.894 53.1691 125.27 52.0236 126.772 52.0236C127.899 52.0236 128.405 52.6455 128.617 53.8236Z" fill="white"/>
<path id="Hub" d="M133.711 58.9618V53.3H140.634V58.9618H141.745V47.2782H140.634V52.3509H133.711V47.2782H132.601V58.9618H133.711ZM146.839 59.2073C148.096 59.2073 149.207 58.5691 149.745 57.44H149.778V58.9618H150.725V50.5182H149.696V54.9527C149.696 56.6709 148.929 58.34 147.166 58.34C145.533 58.34 144.961 57.5382 144.912 56.0163V50.5182H143.884V56C143.884 57.98 144.7 59.2073 146.839 59.2073ZM156.652 59.2073C159.215 59.2073 160.44 57.1454 160.44 54.74C160.44 52.3345 159.215 50.2727 156.652 50.2727C155.411 50.2727 154.154 50.9109 153.729 52.1218H153.697V47.2782H152.668V58.9618H153.615V57.3582H153.648C154.121 58.52 155.28 59.2073 156.652 59.2073ZM156.652 58.34C154.48 58.34 153.697 56.4909 153.697 54.74C153.697 52.9891 154.48 51.14 156.652 51.14C158.611 51.14 159.411 52.9891 159.411 54.74C159.411 56.4909 158.611 58.34 156.652 58.34Z" fill="white"/>
<path id="Path" d="M30.302 59.2366L20 54.4732V53.3976L30.302 48.6342V49.761L21.275 53.961L30.302 58.161V59.2366Z" fill="white"/>
<path id="Path_2" d="M69.368 53.961L60.29 49.761V48.6342L70.592 53.3976V54.5244L60.29 59.2878V58.161L69.368 53.961Z" fill="white"/>
<g id="Group-13_2">
<path id="Combined-Shape" d="M51 44C52.1046 44 53 44.9173 53 46.0488V62.9512C53 64.0827 52.1046 65 51 65H40C38.8954 65 38 64.0827 38 62.9512V46.0488C38 44.9173 38.8954 44 40 44H51ZM51.5 61.926H39.5V62.9512C39.5 63.2139 39.693 63.4304 39.9417 63.46L40 63.4634H51C51.2564 63.4634 51.4678 63.2657 51.4966 63.011L51.5 62.9512V61.926ZM51 45.5366H40C39.7436 45.5366 39.5322 45.7343 39.5034 45.989L39.5 46.0488V60.39H51.5V46.0488C51.5 45.7861 51.307 45.5696 51.0583 45.54L51 45.5366Z" fill="white"/>
<g id="shutterstock_1025440408">
<path id="Combined-Shape_2" fill-rule="evenodd" clip-rule="evenodd" d="M45.5 50.1463C45.8746 50.1463 46.1986 50.2336 46.3542 50.3606L46.3623 50.3606C47.368 50.3606 48.2492 50.8936 48.7388 51.6925L48.7382 51.0164C48.6079 50.9446 48.519 50.8016 48.519 50.6369C48.519 50.4002 48.7024 50.2084 48.9286 50.2084C49.1547 50.2084 49.3381 50.4002 49.3381 50.6369C49.3381 50.8012 49.2497 50.9439 49.1199 51.0158L49.1199 51.9958C49.347 52.2001 49.5 52.5837 49.5 53.0233C49.5 53.5607 49.2714 54.0145 48.9581 54.1592C48.5536 55.1954 47.5439 55.9311 46.3623 55.9311H44.6948C43.5236 55.9311 42.5213 55.2082 42.1096 54.1843C41.7625 54.0791 41.5 53.5992 41.5 53.0233C41.5 52.5837 41.653 52.2001 41.8801 51.9958L41.8801 51.0158C41.7503 50.9439 41.6619 50.8012 41.6619 50.6369C41.6619 50.4002 41.8453 50.2084 42.0714 50.2084C42.2976 50.2084 42.481 50.4002 42.481 50.6369C42.481 50.8016 42.3921 50.9446 42.2618 51.0164L42.2604 51.7915C42.7288 50.9514 43.6194 50.3789 44.6453 50.361C44.7986 50.2344 45.1238 50.1463 45.5 50.1463ZM46.3838 51.195H44.6162C43.5264 51.195 42.6429 52.0785 42.6429 53.1684C42.6429 54.2583 43.5264 55.1418 44.6162 55.1418H46.3838C47.4736 55.1418 48.3571 54.2583 48.3571 53.1684C48.3571 52.0785 47.4736 51.195 46.3838 51.195Z" fill="white"/>
<g id="Group">
<path id="Oval" fill-rule="evenodd" clip-rule="evenodd" d="M45.5164 54.4902C45.9811 54.4902 46.3577 54.1845 46.3577 53.8073C46.3577 53.4302 45.9811 53.5107 45.5164 53.5107C45.0518 53.5107 44.6752 53.4302 44.6752 53.8073C44.6752 54.1845 45.0518 54.4902 45.5164 54.4902Z" fill="white"/>
<path id="Oval_2" d="M44.075 52.95C44.2821 52.95 44.45 52.7821 44.45 52.575C44.45 52.3679 44.2821 52.2 44.075 52.2C43.8678 52.2 43.7 52.3679 43.7 52.575C43.7 52.7821 43.8678 52.95 44.075 52.95Z" fill="white"/>
<path id="Oval_3" d="M46.875 52.95C47.0821 52.95 47.25 52.7821 47.25 52.575C47.25 52.3679 47.0821 52.2 46.875 52.2C46.6679 52.2 46.5 52.3679 46.5 52.575C46.5 52.7821 46.6679 52.95 46.875 52.95Z" fill="white"/>
</g>
</g>
</g>
</g>
</g>
</g>
</g>
</g>
<defs>
<clipPath id="clip0_999_536">
<rect width="141" height="21" fill="white" transform="translate(20 44)"/>
</clipPath>
</defs>
</svg>
