<svg width="180" height="108" viewBox="0 0 180 108" fill="none" xmlns="http://www.w3.org/2000/svg">
<g id="SophieHub-Horizontal-Darkmode">
<g id="Frame" clip-path="url(#clip0_999_517)">
<g id="Logos-for-Export">
<g id="SophieHub_horizontal">
<g id="Group">
<g id="Group-2">
<path id="Path" d="M29.302 59.8429L19 54.9714V53.8714L29.302 49V50.1524L20.275 54.4476L29.302 58.7429V59.8429Z" fill="white"/>
<path id="Path_2" d="M68.368 54.4476L59.29 50.1524V49L69.592 53.8714V55.0238L59.29 59.8952V58.7429L68.368 54.4476Z" fill="white"/>
</g>
<g id="SophieHub">
<path id="Sophie" d="M82.9644 59.24C86.1483 59.24 87.8138 57.6364 87.8138 55.4927C87.8138 52.8582 85.2176 52.2855 84.3523 52.0891C81.4296 51.3527 80.8744 51.2218 80.8744 50.3218C80.8744 49.34 81.8214 48.9964 82.6378 48.9964C83.8788 48.9964 84.8584 49.3727 84.9401 50.7636H87.4219C87.4219 48.0636 85.185 47 82.7521 47C80.6458 47 78.3926 48.1291 78.3926 50.5345C78.3926 52.6945 80.1397 53.4309 81.8704 53.8564C83.5685 54.3309 85.3319 54.5109 85.3319 55.7873C85.3319 56.9818 83.9604 57.2436 83.0624 57.2436C81.6908 57.2436 80.4826 56.6382 80.4826 55.0836H78.0007C77.9517 57.9636 80.3846 59.24 82.9644 59.24ZM93.1856 59.1909C95.8471 59.1909 97.5615 57.4236 97.5615 54.74C97.5615 52.04 95.8471 50.2727 93.1856 50.2727C90.5405 50.2727 88.8261 52.04 88.8261 54.74C88.8261 57.4236 90.5405 59.1909 93.1856 59.1909ZM93.1856 57.44C91.6182 57.44 91.1447 56.0982 91.1447 54.74C91.1447 53.3818 91.6182 52.0236 93.1856 52.0236C94.7694 52.0236 95.243 53.3818 95.243 54.74C95.243 56.0982 94.7694 57.44 93.1856 57.44ZM101.382 61.94V57.9145H101.415C101.986 58.7491 102.917 59.1909 103.946 59.1909C106.428 59.1909 107.652 57.08 107.652 54.8218C107.652 52.4164 106.46 50.2727 103.815 50.2727C102.77 50.2727 101.872 50.6655 101.301 51.5818H101.268V50.5018H99.0637V61.94H101.382ZM103.325 57.44C101.823 57.44 101.301 56.1309 101.301 54.7564C101.301 53.3818 101.79 52.0236 103.309 52.0236C104.795 52.0236 105.334 53.3982 105.334 54.7564C105.334 56.1309 104.844 57.44 103.325 57.44ZM111.359 58.9618V54.5273C111.359 52.8091 111.897 52.1055 113.155 52.1055C114.249 52.1055 114.64 52.7927 114.64 54.1836V58.9618H116.959V53.7582C116.959 51.6636 116.339 50.2727 113.873 50.2727C113.008 50.2727 111.995 50.7145 111.408 51.68H111.359V47.2782H109.04V58.9618H111.359ZM121.106 49.1927V47.2782H118.788V49.1927H121.106ZM121.106 58.9618V50.5018H118.788V58.9618H121.106ZM126.837 59.1909C128.748 59.1909 130.136 58.3564 130.789 56.3436H128.748C128.601 56.8673 127.85 57.44 126.919 57.44C125.613 57.44 124.911 56.7855 124.845 55.2964H130.936C131.115 52.6945 129.711 50.2727 126.837 50.2727C124.274 50.2727 122.527 52.2036 122.527 54.74C122.527 57.3582 124.176 59.1909 126.837 59.1909ZM128.617 53.8236H124.845C124.894 53.1691 125.27 52.0236 126.772 52.0236C127.899 52.0236 128.405 52.6455 128.617 53.8236Z" fill="#CC4141"/>
<path id="Hub" d="M133.711 58.9618V53.3H140.634V58.9618H141.745V47.2782H140.634V52.3509H133.711V47.2782H132.601V58.9618H133.711ZM146.839 59.2073C148.096 59.2073 149.207 58.5691 149.745 57.44H149.778V58.9618H150.725V50.5182H149.696V54.9527C149.696 56.6709 148.929 58.34 147.166 58.34C145.533 58.34 144.961 57.5382 144.912 56.0163V50.5182H143.884V56C143.884 57.98 144.7 59.2073 146.839 59.2073ZM156.652 59.2073C159.215 59.2073 160.44 57.1454 160.44 54.74C160.44 52.3345 159.215 50.2727 156.652 50.2727C155.411 50.2727 154.154 50.9109 153.729 52.1218H153.697V47.2782H152.668V58.9618H153.615V57.3582H153.648C154.121 58.52 155.28 59.2073 156.652 59.2073ZM156.652 58.34C154.48 58.34 153.697 56.4909 153.697 54.74C153.697 52.9891 154.48 51.14 156.652 51.14C158.611 51.14 159.411 52.9891 159.411 54.74C159.411 56.4909 158.611 58.34 156.652 58.34Z" fill="white"/>
</g>
</g>
<g id="Group-13">
<path id="Combined-Shape" d="M50 43C51.1046 43 52 43.9173 52 45.0488V61.9512C52 63.0827 51.1046 64 50 64H39C37.8954 64 37 63.0827 37 61.9512V45.0488C37 43.9173 37.8954 43 39 43H50ZM50.5 60.926H38.5V61.9512C38.5 62.2139 38.693 62.4304 38.9417 62.46L39 62.4634H50C50.2564 62.4634 50.4678 62.2657 50.4966 62.011L50.5 61.9512V60.926ZM50 44.5366H39C38.7436 44.5366 38.5322 44.7343 38.5034 44.989L38.5 45.0488V59.39H50.5V45.0488C50.5 44.7861 50.307 44.5696 50.0583 44.54L50 44.5366Z" fill="white"/>
<g id="shutterstock_1025440408">
<path id="Combined-Shape_2" fill-rule="evenodd" clip-rule="evenodd" d="M44.5 49.1463C44.8746 49.1463 45.1986 49.2336 45.3542 49.3606L45.3623 49.3606C46.368 49.3606 47.2492 49.8936 47.7388 50.6925L47.7382 50.0164C47.6079 49.9446 47.519 49.8016 47.519 49.6369C47.519 49.4002 47.7024 49.2084 47.9286 49.2084C48.1547 49.2084 48.3381 49.4002 48.3381 49.6369C48.3381 49.8012 48.2497 49.9439 48.1199 50.0158L48.1199 50.9958C48.347 51.2001 48.5 51.5837 48.5 52.0233C48.5 52.5607 48.2714 53.0145 47.9581 53.1592C47.5536 54.1954 46.5439 54.9311 45.3623 54.9311H43.6948C42.5236 54.9311 41.5213 54.2082 41.1096 53.1843C40.7625 53.0791 40.5 52.5992 40.5 52.0233C40.5 51.5837 40.653 51.2001 40.8801 50.9958L40.8801 50.0158C40.7503 49.9439 40.6619 49.8012 40.6619 49.6369C40.6619 49.4002 40.8453 49.2084 41.0714 49.2084C41.2976 49.2084 41.481 49.4002 41.481 49.6369C41.481 49.8016 41.3921 49.9446 41.2618 50.0164L41.2604 50.7915C41.7288 49.9514 42.6194 49.3789 43.6453 49.361C43.7986 49.2344 44.1238 49.1463 44.5 49.1463ZM45.3838 50.195H43.6162C42.5264 50.195 41.6429 51.0785 41.6429 52.1684C41.6429 53.2583 42.5264 54.1418 43.6162 54.1418H45.3838C46.4736 54.1418 47.3571 53.2583 47.3571 52.1684C47.3571 51.0785 46.4736 50.195 45.3838 50.195Z" fill="white"/>
<g id="Group_2">
<path id="Oval" fill-rule="evenodd" clip-rule="evenodd" d="M44.5164 53.4902C44.9811 53.4902 45.3577 53.1845 45.3577 52.8073C45.3577 52.4302 44.9811 52.5107 44.5164 52.5107C44.0518 52.5107 43.6752 52.4302 43.6752 52.8073C43.6752 53.1845 44.0518 53.4902 44.5164 53.4902Z" fill="#CC4141"/>
<path id="Oval_2" d="M43.075 51.95C43.2821 51.95 43.45 51.7821 43.45 51.575C43.45 51.3679 43.2821 51.2 43.075 51.2C42.8678 51.2 42.7 51.3679 42.7 51.575C42.7 51.7821 42.8678 51.95 43.075 51.95Z" fill="white"/>
<path id="Oval_3" d="M45.875 51.95C46.0821 51.95 46.25 51.7821 46.25 51.575C46.25 51.3679 46.0821 51.2 45.875 51.2C45.6679 51.2 45.5 51.3679 45.5 51.575C45.5 51.7821 45.6679 51.95 45.875 51.95Z" fill="white"/>
</g>
</g>
</g>
</g>
</g>
</g>
</g>
<defs>
<clipPath id="clip0_999_517">
<rect width="142" height="21" fill="white" transform="translate(19 43)"/>
</clipPath>
</defs>
</svg>
