<svg width="180" height="108" viewBox="0 0 180 108" fill="none" xmlns="http://www.w3.org/2000/svg">
<g id="SophieBot-Horizotal-Darkmode">
<g id="Frame" clip-path="url(#clip0_999_447)">
<g id="Logos-for-Export">
<g id="SophieBot_horizontal">
<g id="Group-11">
<g id="Group-2">
<path id="Path" d="M34.6325 58.7553L24 53.9099V52.8158L34.6325 47.9704V49.1166L25.3159 53.3889L34.6325 57.6612V58.7553Z" fill="white"/>
<path id="Path_2" d="M74.9516 53.3889L65.5824 49.1166V47.9704L76.2148 52.8158V53.962L65.5824 58.8074V57.6612L74.9516 53.3889Z" fill="white"/>
</g>
<g id="SophieBot">
<g id="SophieBot_2">
<path id="Path_3" d="M81.0007 54.9959C80.9529 57.8446 83.3275 59.1071 85.8455 59.1071C88.9531 59.1071 90.5786 57.5209 90.5786 55.4005C90.5786 52.7946 88.0447 52.2281 87.2001 52.0338C84.3474 51.3055 83.8056 51.176 83.8056 50.2857C83.8056 49.3146 84.7299 48.9747 85.5267 48.9747C86.7379 48.9747 87.6941 49.347 87.7738 50.7228H90.1962C90.1962 48.0521 88.0128 47 85.6383 47C83.5825 47 81.3832 48.1168 81.3832 50.4962C81.3832 52.6327 83.0884 53.3611 84.7777 53.7819C86.4351 54.2513 88.1563 54.4294 88.1563 55.6919C88.1563 56.8734 86.8176 57.1324 85.9411 57.1324C84.6024 57.1324 83.4231 56.5335 83.4231 54.9959H81.0007Z" fill="#CC4141"/>
<path id="Shape" d="M93.8298 54.6559C93.8298 53.3125 94.2919 51.9691 95.8219 51.9691C97.3677 51.9691 97.8299 53.3125 97.8299 54.6559C97.8299 55.9994 97.3677 57.3266 95.8219 57.3266C94.2919 57.3266 93.8298 55.9994 93.8298 54.6559ZM91.5668 54.6559C91.5668 57.3104 93.2401 59.0585 95.8219 59.0585C98.4195 59.0585 100.093 57.3104 100.093 54.6559C100.093 51.9853 98.4195 50.2372 95.8219 50.2372C93.2401 50.2372 91.5668 51.9853 91.5668 54.6559Z" fill="#CC4141"/>
<path id="Shape_2" d="M105.718 57.3266C104.252 57.3266 103.742 56.0318 103.742 54.6721C103.742 53.3125 104.22 51.9691 105.702 51.9691C107.153 51.9691 107.679 53.3287 107.679 54.6721C107.679 56.0318 107.201 57.3266 105.718 57.3266ZM101.559 61.7778H103.822V57.796H103.854C104.412 58.6215 105.32 59.0585 106.324 59.0585C108.746 59.0585 109.942 56.9705 109.942 54.7369C109.942 52.3575 108.778 50.2372 106.197 50.2372C105.177 50.2372 104.3 50.6256 103.742 51.5321H103.71V50.4638H101.559V61.7778Z" fill="#CC4141"/>
<path id="Path_4" d="M111.296 58.8319H113.559V54.4455C113.559 52.746 114.085 52.05 115.312 52.05C116.38 52.05 116.763 52.7298 116.763 54.1056V58.8319H119.026V53.6848C119.026 51.613 118.42 50.2372 116.014 50.2372C115.169 50.2372 114.181 50.6742 113.607 51.6292H113.559V47.2751H111.296V58.8319Z" fill="#CC4141"/>
<path id="Shape_3" d="M123.074 47.2751H120.811V49.1689H123.074V47.2751ZM120.811 58.8319H123.074V50.4638H120.811V58.8319Z" fill="#CC4141"/>
<path id="Shape_4" d="M126.723 53.7495C126.771 53.1021 127.137 51.9691 128.603 51.9691C129.703 51.9691 130.197 52.5841 130.404 53.7495H126.723ZM132.667 55.2063C132.843 52.6327 131.472 50.2372 128.667 50.2372C126.165 50.2372 124.46 52.1471 124.46 54.6559C124.46 57.2457 126.07 59.0585 128.667 59.0585C130.532 59.0585 131.886 58.233 132.524 56.2422H130.532C130.388 56.7601 129.655 57.3266 128.747 57.3266C127.472 57.3266 126.787 56.6792 126.723 55.2063H132.667Z" fill="#CC4141"/>
<path id="Shape_5" d="M135.377 48.2139H139.106C140.811 48.2139 141.672 48.9423 141.672 50.3828C141.672 51.4673 140.827 52.3414 139.106 52.3414H135.377V48.2139ZM134.293 58.8319H139.106C142.803 58.8319 143.186 56.6468 143.186 55.5462C143.186 54.0409 142.245 52.924 140.779 52.7298V52.6974C141.959 52.4385 142.755 51.3216 142.755 50.1077C142.755 47.955 141.018 47.2751 139.106 47.2751H134.293V58.8319ZM135.377 53.2801H139.106C141.018 53.2801 142.102 54.0247 142.102 55.5138C142.102 57.3914 140.715 57.8931 139.106 57.8931H135.377V53.2801Z" fill="white"/>
<path id="Shape_6" d="M148.206 51.095C150.118 51.095 151.09 52.8917 151.09 54.6559C151.09 56.4202 150.118 58.2169 148.206 58.2169C146.293 58.2169 145.321 56.4202 145.321 54.6559C145.321 52.8917 146.293 51.095 148.206 51.095ZM148.206 50.2372C145.704 50.2372 144.317 52.2604 144.317 54.6559C144.317 57.0515 145.704 59.0747 148.206 59.0747C150.708 59.0747 152.094 57.0515 152.094 54.6559C152.094 52.2604 150.708 50.2372 148.206 50.2372Z" fill="white"/>
<path id="Path_5" d="M155.186 47.9712H154.182V50.48H152.748V51.3378H154.182V57.0515C154.166 58.4758 154.628 58.9291 155.967 58.9291C156.27 58.9291 156.556 58.8967 156.859 58.8967V58.0226C156.572 58.055 156.286 58.0712 155.999 58.0712C155.281 58.0226 155.186 57.6342 155.186 56.9706V51.3378H156.859V50.48H155.186V47.9712Z" fill="white"/>
</g>
</g>
<g id="shutterstock_1025440408">
<g id="Group 39">
<path id="Subtract" d="M49.6147 46C50.6283 46 51.5053 46.2377 51.9272 46.583L51.9077 46.584C54.6508 46.584 57.0538 48.0392 58.3872 50.2197V48.3701C58.0349 48.1746 57.7945 47.7852 57.7944 47.3369C57.7944 46.6921 58.291 46.1689 58.9038 46.1689C59.5165 46.169 60.0132 46.6921 60.0132 47.3369C60.0131 47.7853 59.7728 48.1746 59.4204 48.3701L59.4194 51.0371C60.036 51.5932 60.4517 52.6405 60.4517 53.8398C60.4516 55.3068 59.83 56.5449 58.979 56.9365C57.8746 59.761 55.1247 61.7627 51.9077 61.7627H47.4771C44.2867 61.7627 41.5556 59.7945 40.4331 57.0059C39.4898 56.7177 38.7779 55.4096 38.7778 53.8398C38.7778 52.6405 39.1935 51.5932 39.8101 51.0371L39.8091 48.3701C39.4567 48.1746 39.2164 47.7852 39.2163 47.3369C39.2163 46.6922 39.7131 46.1691 40.3257 46.1689C40.9384 46.1689 41.4351 46.6921 41.4351 47.3369C41.435 47.7851 41.1954 48.1745 40.8433 48.3701L40.8413 50.4863C42.1104 48.2077 44.5196 46.6504 47.2974 46.5859C47.7169 46.2393 48.5971 46 49.6147 46ZM47.2515 48.8574C44.2819 48.8574 41.8748 51.2648 41.8745 54.2344C41.8745 57.2041 44.2817 59.6123 47.2515 59.6123H51.978C54.9478 59.6123 57.356 57.2041 57.356 54.2344C57.3557 51.2648 54.9476 48.8574 51.978 48.8574H47.2515Z" fill="white"/>
</g>
<g id="Group">
<path id="Oval" fill-rule="evenodd" clip-rule="evenodd" d="M49.6596 57.8366C50.9184 57.8366 51.9388 57.0035 51.9388 55.9759C51.9388 54.9482 50.9184 55.1676 49.6596 55.1676C48.4008 55.1676 47.3804 54.9482 47.3804 55.9759C47.3804 57.0035 48.4008 57.8366 49.6596 57.8366Z" fill="#CC4141"/>
<path id="Oval_2" d="M45.4864 54.2551C46.0565 54.2551 46.5185 53.7736 46.5185 53.1797C46.5185 52.5857 46.0565 52.1042 45.4864 52.1042C44.9164 52.1042 44.4543 52.5857 44.4543 53.1797C44.4543 53.7736 44.9164 54.2551 45.4864 54.2551Z" fill="white"/>
<path id="Oval_3" d="M53.7433 54.2551C54.3133 54.2551 54.7754 53.7736 54.7754 53.1797C54.7754 52.5857 54.3133 52.1042 53.7433 52.1042C53.1733 52.1042 52.7112 52.5857 52.7112 53.1797C52.7112 53.7736 53.1733 54.2551 53.7433 54.2551Z" fill="white"/>
</g>
</g>
</g>
</g>
</g>
</g>
</g>
<defs>
<clipPath id="clip0_999_447">
<rect width="133" height="16" fill="white" transform="translate(24 46)"/>
</clipPath>
</defs>
</svg>
