<svg width="180" height="108" viewBox="0 0 180 108" fill="none" xmlns="http://www.w3.org/2000/svg">
<g id="SugarLearning-Horizontal-Darkmode">
<g id="Group 15">
<g id="logo">
<g id="Group">
<g id="Group_2">
<path id="Path" d="M21.0303 61.15L10.4202 56.2094V55.0937L21.0303 50.1531V51.3219L11.7334 55.6781L21.0303 60.0344V61.15Z" fill="white"/>
<path id="Shape" fill-rule="evenodd" clip-rule="evenodd" d="M24.0242 49.7281L35.9475 53.5H36.0525H36.1576L47.9758 49.7281C48.0808 49.675 48.1859 49.5687 48.1859 49.4094C48.1859 49.25 48.1333 49.1437 47.9758 49.0906L36.1051 45.3187H36H35.895L24.0242 49.0906C23.9192 49.1437 23.8141 49.25 23.8141 49.4094C23.8141 49.5687 23.8667 49.675 24.0242 49.7281ZM35.5273 54.8281L29.4344 52.8625L29.3293 56.2625C29.2242 57.8031 32.3758 59.025 36.1051 59.025C39.8344 59.025 42.9859 57.8031 42.8808 56.2625L42.6707 52.8625L36.5778 54.8281C36.3677 54.8812 36.2101 54.8812 36.0525 54.8812C35.8424 54.8812 35.6849 54.8812 35.5273 54.8281Z" fill="white"/>
<path id="Path_2" d="M60.4768 55.6781L51.1273 51.3219V50.1531L61.7374 55.0937V56.2625L51.1273 61.2031V60.0344L60.4768 55.6781Z" fill="white"/>
</g>
<path id="Path_3" d="M43.0909 51.3219L35.2122 48.6656L36.4728 48.2938L44.5091 50.8438L43.0909 51.3219Z" fill="#CC4141"/>
<path id="Path_4" d="M44.4041 50.7906C45.0869 51.7469 45.402 53.075 45.4546 54.35C45.8748 54.5625 46.1374 55.0406 46.1374 55.5188C46.1374 55.9969 45.8748 56.4219 45.5071 56.6875L46.1374 61.3625C46.1374 61.4688 46.1374 61.575 46.0323 61.6281C45.9798 61.6813 45.8748 61.7344 45.7697 61.7344H43.7212C43.6162 61.7344 43.5111 61.6813 43.4586 61.6281C43.4061 61.575 43.3536 61.4688 43.3536 61.3625L43.9839 56.6875C43.6162 56.4219 43.3536 55.9969 43.3536 55.5188C43.3536 55.0406 43.6162 54.5625 44.0364 54.35C43.9313 52.9156 43.5111 51.6938 42.9333 51.2156L44.4041 50.7906Z" fill="#CC4141"/>
<path id="Path_5" d="M36.5253 49.675V49.675C36 49.675 35.4748 49.4625 35.2647 49.0906V49.0906C34.9495 48.5062 35.4748 47.8156 36.5253 47.8156V47.8156C37.5758 47.8156 38.101 48.5062 37.7859 49.0906V49.0906C37.5758 49.4625 37.0505 49.675 36.5253 49.675Z" fill="#CC4141"/>
</g>
</g>
<g id="SugarLearning">
<path id="Sugar" fill-rule="evenodd" clip-rule="evenodd" d="M73.7958 59.6069C76.8715 59.6069 78.4804 58.0862 78.4804 56.0534C78.4804 53.5703 76.0028 53.0187 75.1519 52.8293L75.1365 52.8259L75.0538 52.8054C72.3026 52.1251 71.7768 51.9951 71.7768 51.15C71.7768 50.219 72.6916 49.8931 73.4803 49.8931C74.6791 49.8931 75.6254 50.25 75.7043 51.569H78.1018C78.1018 49.0086 75.9409 48 73.5907 48C71.556 48 69.3793 49.0707 69.3793 51.3517C69.3793 53.4 71.067 54.0983 72.739 54.5017C73.0152 54.5775 73.2932 54.6454 73.5646 54.7116C74.9048 55.0387 76.0829 55.3262 76.0829 56.3328C76.0829 57.4655 74.7579 57.7138 73.8904 57.7138C72.5654 57.7138 71.3982 57.1397 71.3982 55.6655H69.0007C68.9534 58.3966 71.3036 59.6069 73.7958 59.6069ZM82.6918 59.5603C83.6382 59.5603 84.6162 59.1414 85.184 58.2259H85.2313V59.3431H87.3607V51.3207H85.1209V55.5259C85.1209 57.1552 84.6004 57.8224 83.3859 57.8224C82.3291 57.8224 81.9505 57.1707 81.9505 55.8517V51.3207H79.7107V56.2552C79.7107 58.2414 80.3101 59.5603 82.6918 59.5603ZM96.9035 58.831C96.9035 60.15 96.4145 62.3845 92.6763 62.3845C91.0674 62.3845 89.2062 61.6241 89.08 59.8086H91.304C91.5091 60.631 92.1715 60.9103 92.976 60.9103C94.222 60.9103 94.7899 60.0879 94.7741 58.9241V57.869H94.7426C94.2536 58.7224 93.2914 59.1103 92.2977 59.1103C89.8371 59.1103 88.8118 57.2793 88.8118 55.0759C88.8118 52.9966 90.0421 51.1034 92.3135 51.1034C93.3861 51.1034 94.1905 51.4603 94.7426 52.3914H94.7741V51.3207H96.9035V58.831ZM92.8655 57.45C91.4775 57.45 91.0516 56.1931 91.0516 55.0448C91.0516 53.85 91.6037 52.7638 92.8655 52.7638C94.3167 52.7638 94.7741 53.9276 94.7741 55.231C94.7741 56.3793 94.1432 57.45 92.8655 57.45ZM103.875 58.5672C103.165 59.2966 102.14 59.5603 101.131 59.5603C99.5692 59.5603 98.3546 58.8 98.3546 57.1552C98.3731 55.0164 100.269 54.8046 101.815 54.632C102.904 54.5103 103.82 54.4081 103.781 53.6638C103.781 52.7328 103.118 52.5776 102.329 52.5776C101.462 52.5776 100.926 52.919 100.847 53.7879H98.607C98.7332 51.7397 100.61 51.1034 102.44 51.1034C104.065 51.1034 106.02 51.4603 106.02 53.3845V57.5586C106.02 58.2879 106.099 59.0172 106.304 59.3431H104.033C103.954 59.0948 103.891 58.831 103.875 58.5672ZM101.967 58.0862C101.241 58.0862 100.594 57.869 100.594 57.0621C100.594 56.2552 101.225 56.0069 101.919 55.8828C102.092 55.8518 102.271 55.8276 102.448 55.8037C102.981 55.7316 103.496 55.6619 103.781 55.4172V56.2397C103.781 56.7362 103.718 58.0862 101.967 58.0862ZM109.995 55.7276V59.3431H107.755V51.3207H109.885V52.8103H109.916C110.342 51.8017 111.399 51.1034 112.519 51.1034C112.692 51.1034 112.85 51.1345 113.008 51.181V53.2293C112.803 53.1828 112.472 53.1517 112.203 53.1517C110.547 53.1517 109.995 54.3 109.995 55.7276Z" fill="#CC4141"/>
<path id="Learning" fill-rule="evenodd" clip-rule="evenodd" d="M121.557 58.4431V59.3431H114.175V48.2638H115.248V58.4431H121.557ZM129.27 56.7052C128.844 58.5207 127.787 59.5759 125.721 59.5759C123.134 59.5759 122.046 57.6207 122.046 55.3397C122.046 53.2293 123.134 51.1034 125.721 51.1034C128.324 51.1034 129.38 53.3534 129.302 55.6034H123.04C123.04 57.031 123.828 58.7534 125.721 58.7534C127.172 58.7534 127.961 57.931 128.276 56.7052H129.27ZM128.308 54.781H123.04C123.213 53.3224 124.081 51.9259 125.721 51.9259C127.314 51.9259 128.261 53.3069 128.308 54.781ZM135.895 57.9466C135.185 58.9862 134.507 59.5759 132.929 59.5759C131.415 59.5759 130.201 58.8466 130.201 57.2328C130.201 55.1418 132.148 54.926 134.156 54.7034C134.294 54.6882 134.432 54.6728 134.57 54.6569C135.39 54.5793 135.847 54.4397 135.847 53.5707C135.847 52.2517 134.901 51.9259 133.718 51.9259C132.472 51.9259 131.589 52.4845 131.541 53.7879H130.548C130.658 51.9103 131.967 51.1034 133.844 51.1034C135.28 51.1034 136.841 51.5224 136.841 53.6793V57.931C136.841 58.319 137.03 58.5207 137.425 58.5207C137.535 58.5207 137.63 58.5052 137.74 58.4586V59.281C137.504 59.3276 137.362 59.3431 137.094 59.3431C136.084 59.3431 135.926 58.769 135.926 57.9466H135.895ZM133.008 58.7534C132.062 58.7534 131.194 58.1483 131.194 57.1707C131.194 55.8677 132.674 55.6588 134.147 55.4508C134.428 55.4111 134.709 55.3714 134.98 55.3241C135.248 55.2776 135.69 55.2 135.816 54.9672H135.847V56.2397C135.847 57.8069 134.538 58.7534 133.008 58.7534ZM139.822 55.0759V59.3431H138.829V51.3362H139.743V53.2138H139.775C140.28 51.9103 141.384 51.1655 142.851 51.2276V52.2052C141.053 52.1276 139.822 53.4 139.822 55.0759ZM144.775 59.3431V54.6724C144.822 53.1052 145.737 51.9259 147.33 51.9259C148.939 51.9259 149.397 52.981 149.397 54.3466V59.3431H150.39V54.1914C150.39 52.2828 149.696 51.1034 147.409 51.1034C146.258 51.1034 145.185 51.7552 144.807 52.7172H144.775V51.3362H143.781V59.3431H144.775ZM153.277 48.2638V49.831H152.283V48.2638H153.277ZM153.277 51.3362H152.283V59.3431H153.277V51.3362ZM156.163 54.6724V59.3431H155.17V51.3362H156.163V52.7172H156.195C156.573 51.7552 157.646 51.1034 158.797 51.1034C161.085 51.1034 161.779 52.2828 161.779 54.1914V59.3431H160.785V54.3466C160.785 52.981 160.327 51.9259 158.719 51.9259C157.126 51.9259 156.211 53.1052 156.163 54.6724ZM166.921 62.5397C169.555 62.5397 170.533 61.0966 170.533 58.6914V51.3362H169.539V52.7172H169.507C169.113 51.8328 168.119 51.1034 166.921 51.1034C164.57 51.1034 163.246 52.9345 163.246 55.1379C163.246 57.4345 164.318 59.25 166.921 59.25C168.104 59.25 169.05 58.5983 169.507 57.6052H169.539V58.6914C169.539 60.6621 168.766 61.7172 166.921 61.7172C165.832 61.7172 164.744 61.2983 164.539 60.119H163.545C163.671 61.8103 165.296 62.5397 166.921 62.5397ZM164.239 55.2466C164.239 56.8603 165.075 58.4276 166.921 58.4276C168.64 58.4276 169.539 56.8603 169.539 55.2466C169.539 53.6793 168.813 51.9259 166.921 51.9259C165.028 51.9259 164.239 53.5862 164.239 55.2466Z" fill="white"/>
</g>
</g>
</g>
</svg>
