<svg width="180" height="108" viewBox="0 0 180 108" fill="none" xmlns="http://www.w3.org/2000/svg">
<g id="SugarLearning-Vertical-Darkmode">
<g id="Group 16">
<g id="logo">
<g id="Group">
<g id="Group_2">
<path id="Path" d="M62 49.4L41.8 40.1V38L62 28.7V30.9L44.3 39.1L62 47.3V49.4Z" fill="white"/>
<path id="Shape" fill-rule="evenodd" clip-rule="evenodd" d="M67.7 27.9L90.4 35H90.6H90.8L113.3 27.9C113.5 27.8 113.7 27.6 113.7 27.3C113.7 27 113.6 26.8 113.3 26.7L90.7 19.6H90.5H90.3L67.7 26.7C67.5 26.8 67.3 27 67.3 27.3C67.3 27.6 67.4 27.8 67.7 27.9ZM89.6 37.5L78 33.8L77.8 40.2C77.6 43.1 83.6 45.4 90.7001 45.4C97.8 45.4 103.8 43.1 103.6 40.2L103.2 33.8L91.6 37.5C91.2 37.6 90.9 37.6 90.6 37.6C90.2 37.6 89.9 37.6 89.6 37.5Z" fill="white"/>
<path id="Path_2" d="M137.1 39.1L119.3 30.9V28.7L139.5 38V40.2L119.3 49.5V47.3L137.1 39.1Z" fill="white"/>
</g>
<path id="Path_3" d="M104 30.9L89.0001 25.9L91.4001 25.2L106.7 30L104 30.9Z" fill="#CC4141"/>
<path id="Path_4" d="M106.5 29.9C107.8 31.7 108.4 34.2 108.5 36.6C109.3 37 109.8 37.9 109.8 38.8C109.8 39.7 109.3 40.5 108.6 41L109.8 49.8C109.8 50 109.8 50.2 109.6 50.3C109.5 50.4 109.3 50.5 109.1 50.5H105.2C105 50.5 104.8 50.4 104.7 50.3C104.6 50.2 104.5 50 104.5 49.8L105.7 41C105 40.5 104.5 39.7 104.5 38.8C104.5 37.9 105 37 105.8 36.6C105.6 33.9 104.8 31.6 103.7 30.7L106.5 29.9Z" fill="#CC4141"/>
<path id="Path_5" d="M91.5001 27.8V27.8C90.5001 27.8 89.5001 27.4 89.1001 26.7V26.7C88.5001 25.6 89.5001 24.3 91.5001 24.3V24.3C93.5001 24.3 94.5001 25.6 93.9001 26.7V26.7C93.5001 27.4 92.5001 27.8 91.5001 27.8Z" fill="#CC4141"/>
</g>
</g>
<g id="SugarLearning">
<path id="Sugar" fill-rule="evenodd" clip-rule="evenodd" d="M19.872 83.408C24.552 83.408 27 81.056 27 77.912C27 74.0714 23.2302 73.2183 21.9354 72.9253L21.912 72.92L21.7862 72.8884C17.6 71.8361 16.8 71.635 16.8 70.328C16.8 68.888 18.192 68.384 19.392 68.384C21.216 68.384 22.656 68.936 22.776 70.976H26.424C26.424 67.016 23.136 65.456 19.56 65.456C16.464 65.456 13.152 67.112 13.152 70.64C13.152 73.808 15.72 74.888 18.264 75.512C18.6842 75.6292 19.1071 75.7341 19.5199 75.8365L19.5202 75.8366L19.5203 75.8366C21.5595 76.3425 23.352 76.7872 23.352 78.344C23.352 80.096 21.336 80.48 20.016 80.48C18 80.48 16.224 79.592 16.224 77.312H12.576C12.504 81.536 16.08 83.408 19.872 83.408ZM33.408 83.336C34.848 83.336 36.336 82.688 37.2 81.272H37.272V83H40.512V70.592H37.104V77.096C37.104 79.616 36.312 80.648 34.464 80.648C32.856 80.648 32.28 79.64 32.28 77.6V70.592H28.872V78.224C28.872 81.296 29.784 83.336 33.408 83.336ZM55.032 82.208C55.032 84.248 54.288 87.704 48.6 87.704C46.152 87.704 43.32 86.528 43.128 83.72H46.512C46.824 84.992 47.832 85.424 49.056 85.424C50.952 85.424 51.816 84.152 51.792 82.352V80.72H51.744C51 82.04 49.536 82.64 48.024 82.64C44.28 82.64 42.72 79.808 42.72 76.4C42.72 73.184 44.592 70.256 48.048 70.256C49.68 70.256 50.904 70.808 51.744 72.248H51.792V70.592H55.032V82.208ZM48.888 80.072C46.776 80.072 46.128 78.128 46.128 76.352C46.128 74.504 46.968 72.824 48.888 72.824C51.096 72.824 51.792 74.624 51.792 76.64C51.792 78.416 50.832 80.072 48.888 80.072ZM65.64 81.8C64.56 82.928 63 83.336 61.464 83.336C59.088 83.336 57.24 82.16 57.24 79.616C57.2682 76.308 60.1529 75.9805 62.5046 75.7135C64.1626 75.5253 65.5556 75.3671 65.496 74.216C65.496 72.776 64.488 72.536 63.288 72.536C61.968 72.536 61.152 73.064 61.032 74.408H57.624C57.816 71.24 60.672 70.256 63.456 70.256C65.928 70.256 68.904 70.808 68.904 73.784V80.24C68.904 81.368 69.024 82.496 69.336 83H65.88C65.76 82.616 65.664 82.208 65.64 81.8ZM62.736 81.056C61.632 81.056 60.648 80.72 60.648 79.472C60.648 78.224 61.608 77.84 62.664 77.648C62.9272 77.6002 63.1993 77.5627 63.4684 77.5257L63.4684 77.5257C64.2794 77.4142 65.0636 77.3064 65.496 76.928V78.2C65.496 78.968 65.4 81.056 62.736 81.056ZM74.952 77.408V83H71.544V70.592H74.784V72.896H74.832C75.48 71.336 77.088 70.256 78.792 70.256C79.056 70.256 79.296 70.304 79.536 70.376V73.544C79.224 73.472 78.72 73.424 78.312 73.424C75.792 73.424 74.952 75.2 74.952 77.408Z" fill="#CC4141"/>
<path id="Learning" fill-rule="evenodd" clip-rule="evenodd" d="M92.544 81.608V83H81.312V65.864H82.944V81.608H92.544ZM104.28 78.92C103.632 81.728 102.024 83.36 98.88 83.36C94.944 83.36 93.288 80.336 93.288 76.808C93.288 73.544 94.944 70.256 98.88 70.256C102.84 70.256 104.448 73.736 104.328 77.216H94.8C94.8 79.424 96 82.088 98.88 82.088C101.088 82.088 102.288 80.816 102.768 78.92H104.28ZM102.816 75.944H94.8C95.064 73.688 96.384 71.528 98.88 71.528C101.304 71.528 102.744 73.664 102.816 75.944ZM114.36 80.84C113.28 82.448 112.248 83.36 109.848 83.36C107.544 83.36 105.696 82.232 105.696 79.736C105.696 76.502 108.659 76.1682 111.714 75.824L111.715 75.824L111.715 75.824L111.715 75.8239C111.924 75.8003 112.134 75.7767 112.344 75.752C113.592 75.632 114.288 75.416 114.288 74.072C114.288 72.032 112.848 71.528 111.048 71.528C109.152 71.528 107.808 72.392 107.736 74.408H106.224C106.392 71.504 108.384 70.256 111.24 70.256C113.424 70.256 115.8 70.904 115.8 74.24V80.816C115.8 81.416 116.088 81.728 116.688 81.728C116.856 81.728 117 81.704 117.168 81.632V82.904C116.808 82.976 116.592 83 116.184 83C114.648 83 114.408 82.112 114.408 80.84H114.36ZM109.968 82.088C108.528 82.088 107.208 81.152 107.208 79.64C107.208 77.6247 109.459 77.3017 111.701 76.9799L111.701 76.9799L111.701 76.9799L111.701 76.9799L111.701 76.9799L111.701 76.9799L111.701 76.9799L111.701 76.9798C112.129 76.9184 112.556 76.8571 112.968 76.784C113.376 76.712 114.048 76.592 114.24 76.232H114.288V78.2C114.288 80.624 112.296 82.088 109.968 82.088ZM120.336 76.4V83H118.824V70.616H120.216V73.52H120.264C121.032 71.504 122.712 70.352 124.944 70.448V71.96C122.208 71.84 120.336 73.808 120.336 76.4ZM127.872 83V75.776C127.944 73.352 129.336 71.528 131.76 71.528C134.208 71.528 134.904 73.16 134.904 75.272V83H136.416V75.032C136.416 72.08 135.36 70.256 131.88 70.256C130.128 70.256 128.496 71.264 127.92 72.752H127.872V70.616H126.36V83H127.872ZM140.808 65.864V68.288H139.296V65.864H140.808ZM140.808 70.616H139.296V83H140.808V70.616ZM145.2 75.776V83H143.688V70.616H145.2V72.752H145.248C145.824 71.264 147.456 70.256 149.208 70.256C152.688 70.256 153.744 72.08 153.744 75.032V83H152.232V75.272C152.232 73.16 151.536 71.528 149.088 71.528C146.664 71.528 145.272 73.352 145.2 75.776ZM161.568 87.944C165.576 87.944 167.064 85.712 167.064 81.992V70.616H165.552V72.752H165.504C164.904 71.384 163.392 70.256 161.568 70.256C157.992 70.256 155.976 73.088 155.976 76.496C155.976 80.048 157.608 82.856 161.568 82.856C163.368 82.856 164.808 81.848 165.504 80.312H165.552V81.992C165.552 85.04 164.376 86.672 161.568 86.672C159.912 86.672 158.256 86.024 157.944 84.2H156.432C156.624 86.816 159.096 87.944 161.568 87.944ZM157.488 76.664C157.488 79.16 158.76 81.584 161.568 81.584C164.184 81.584 165.552 79.16 165.552 76.664C165.552 74.24 164.448 71.528 161.568 71.528C158.688 71.528 157.488 74.096 157.488 76.664Z" fill="white"/>
</g>
</g>
</g>
</svg>
