<svg width="180" height="108" viewBox="0 0 180 108" fill="none" xmlns="http://www.w3.org/2000/svg">
<g id="TimePro-Vertical-Darkmode">
<g id="Group 18">
<g id="TimePro">
<path id="Time" fill-rule="evenodd" clip-rule="evenodd" d="M52.516 72.032V86H48.748V72.032H43.612V68.864H57.652V72.032H52.516ZM62.764 68.864V71.672H59.356V68.864H62.764ZM62.764 86V73.592H59.356V86H62.764ZM68.956 78.8V86H65.548V73.592H68.764V75.272H68.812C69.7 74 70.972 73.256 72.604 73.256C74.164 73.256 75.556 73.808 76.228 75.32C76.972 74.24 78.244 73.256 79.972 73.256C82.612 73.256 84.508 74.48 84.508 77.696V86H81.1L81.0995 78.8034C81.0884 77.2223 80.8912 75.944 79.012 75.944C77.092 75.944 76.732 77.552 76.732 79.088V86H73.324V79.04C73.324 78.9815 73.3242 78.9226 73.3243 78.8634C73.3281 77.4681 73.3322 75.944 71.26 75.944C70.588 75.944 68.956 76.376 68.956 78.8ZM92.932 86.336C95.74 86.336 97.78 85.112 98.74 82.16H95.74C95.524 82.928 94.42 83.768 93.052 83.768C91.132 83.768 90.1 82.808 90.004 80.624H98.956C99.22 76.808 97.156 73.256 92.932 73.256C89.164 73.256 86.596 76.088 86.596 79.808C86.596 83.648 89.02 86.336 92.932 86.336ZM90.004 78.464H95.548C95.236 76.736 94.492 75.824 92.836 75.824C90.628 75.824 90.076 77.504 90.004 78.464Z" fill="#CC4141"/>
<path id="Pro" fill-rule="evenodd" clip-rule="evenodd" d="M103.036 86V78.656H109.012C112.084 78.656 114.1 76.856 114.1 73.76C114.1 70.664 112.084 68.864 109.012 68.864H101.404V86H103.036ZM108.652 77.264H103.036V70.256H108.652C110.932 70.256 112.468 71.384 112.468 73.76C112.468 76.136 110.932 77.264 108.652 77.264ZM117.748 79.4V86H116.236V73.616H117.628V76.52H117.676C118.444 74.504 120.124 73.352 122.356 73.448V74.96C119.62 74.84 117.748 76.808 117.748 79.4ZM129.028 86.36C132.796 86.36 134.884 83.36 134.884 79.808C134.884 76.256 132.796 73.256 129.028 73.256C125.26 73.256 123.172 76.256 123.172 79.808C123.172 83.36 125.26 86.36 129.028 86.36ZM124.684 79.808C124.684 82.424 126.148 85.088 129.028 85.088C131.908 85.088 133.372 82.424 133.372 79.808C133.372 77.192 131.908 74.528 129.028 74.528C126.148 74.528 124.684 77.192 124.684 79.808Z" fill="white"/>
</g>
<g id="timepro-logo">
<g id="Group">
<g id="Group_2">
<g id="Group_3">
<rect id="Rectangle" x="75.6316" y="39.6" width="3" height="3" rx="1.5" fill="white"/>
<rect id="Rectangle_2" x="99.6316" y="39.6" width="3" height="3" rx="1.5" fill="white"/>
<rect id="Rectangle_3" x="87.6316" y="51.6" width="3" height="3" rx="1.5" fill="white"/>
<rect id="Rectangle_4" x="87.6316" y="27.6" width="3" height="3" rx="1.5" fill="white"/>
<path id="Path" d="M107.497 26.29L104.915 23.7071L88.7903 39.8197L83.2915 34.3214L80.7071 36.9072L88.7903 44.9854L107.497 26.29Z" fill="#CC4141"/>
<path id="Path_2" d="M103.091 34.8607C103.98 36.7957 104.493 38.94 104.493 41.2104C104.493 49.6183 97.6722 56.4381 89.2534 56.4381C80.8403 56.4381 74.0163 49.6183 74.0163 41.2104C74.0163 32.7996 80.8403 25.9827 89.2534 25.9827C92.0013 25.9827 94.5714 26.7194 96.7916 27.9893L99.2556 25.5269C96.3642 23.6807 92.9393 22.6 89.2591 22.6C78.973 22.6 70.6316 30.9334 70.6316 41.2104C70.6316 51.4874 78.973 59.8208 89.2591 59.8208C99.5395 59.8208 107.878 51.4903 107.878 41.2104C107.878 37.994 107.061 34.9697 105.623 32.3295L103.091 34.8607Z" fill="white"/>
</g>
</g>
</g>
<path id="Path_3" d="M61 51.4L40.8 42.1V40L61 30.7V32.9L43.3 41.1L61 49.3V51.4Z" fill="white"/>
<path id="Path_4" d="M136.1 41.1L118.3 32.9V30.7L138.5 40V42.2L118.3 51.5V49.3L136.1 41.1Z" fill="white"/>
</g>
</g>
</g>
</svg>
