<svg width="180" height="108" viewBox="0 0 180 108" fill="none" xmlns="http://www.w3.org/2000/svg">
<g id="TimePro-Horizontal-Darkmode">
<g id="Group 30">
<g id="timepro-logo">
<g id="Group">
<g id="Group_2">
<g id="Group_3">
<rect id="Rectangle" x="49.7156" y="52.765" width="1.57576" height="1.575" rx="0.7875" fill="white"/>
<rect id="Rectangle_2" x="62.3216" y="52.765" width="1.57576" height="1.575" rx="0.7875" fill="white"/>
<rect id="Rectangle_3" x="56.0186" y="59.065" width="1.57576" height="1.575" rx="0.7875" fill="white"/>
<rect id="Rectangle_4" x="56.0186" y="46.465" width="1.57576" height="1.575" rx="0.7875" fill="white"/>
<path id="Path" d="M66.4527 45.7772L65.0967 44.4212L56.6272 52.8803L53.739 49.9938L52.3815 51.3513L56.6272 55.5924L66.4527 45.7772Z" fill="#CC4141"/>
<path id="Path_2" d="M64.1385 50.2769C64.6056 51.2928 64.8752 52.4185 64.8752 53.6105C64.8752 58.0246 61.2924 61.605 56.8704 61.605C52.4514 61.605 48.8671 58.0246 48.8671 53.6105C48.8671 49.1948 52.4514 45.6159 56.8704 45.6159C58.3138 45.6159 59.6638 46.0027 60.8299 46.6694L62.1241 45.3766C60.6054 44.4074 58.8065 43.84 56.8734 43.84C51.4706 43.84 47.0893 48.215 47.0893 53.6105C47.0893 59.0059 51.4706 63.3809 56.8734 63.3809C62.2733 63.3809 66.6531 59.0074 66.6531 53.6105C66.6531 51.9218 66.2237 50.3341 65.4689 48.948L64.1385 50.2769Z" fill="white"/>
</g>
</g>
</g>
<path id="Path_3" d="M42.0303 58.96L31.4202 54.0775V52.975L42.0303 48.0925V49.2475L32.7334 53.5525L42.0303 57.8575V58.96Z" fill="white"/>
<path id="Path_4" d="M81.4768 53.5525L72.1273 49.2475V48.0925L82.7374 52.975V54.13L72.1273 59.0125V57.8575L81.4768 53.5525Z" fill="white"/>
</g>
<g id="TimePro">
<path id="Time" fill-rule="evenodd" clip-rule="evenodd" d="M93.9037 49.16V58.6836H91.4054V49.16H88V47H97.3091V49.16H93.9037ZM100.699 47V48.9145H98.439V47H100.699ZM100.699 58.6836V50.2236H98.439V58.6836H100.699ZM104.804 53.7745V58.6836H102.545V50.2236H104.677V51.3691H104.709C105.297 50.5018 106.141 49.9945 107.223 49.9945C108.257 49.9945 109.18 50.3709 109.626 51.4018C110.119 50.6655 110.963 49.9945 112.108 49.9945C113.859 49.9945 115.116 50.8291 115.116 53.0218V58.6836H112.856V53.8891C112.856 52.76 112.761 51.8273 111.472 51.8273C110.199 51.8273 109.96 52.9236 109.96 53.9709V58.6836H107.7V53.9382L107.701 53.8178C107.703 52.8664 107.706 51.8273 106.332 51.8273C105.886 51.8273 104.804 52.1218 104.804 53.7745ZM120.701 58.9127C122.563 58.9127 123.916 58.0782 124.552 56.0655H122.563C122.42 56.5891 121.688 57.1618 120.781 57.1618C119.508 57.1618 118.824 56.5073 118.76 55.0182H124.695C124.871 52.4164 123.502 49.9945 120.701 49.9945C118.203 49.9945 116.5 51.9255 116.5 54.4618C116.5 57.08 118.107 58.9127 120.701 58.9127ZM118.76 53.5455H122.436C122.229 52.3673 121.736 51.7455 120.638 51.7455C119.174 51.7455 118.808 52.8909 118.76 53.5455Z" fill="#CC4141"/>
<path id="Pro" fill-rule="evenodd" clip-rule="evenodd" d="M127.401 58.6836V53.6764H131.363C133.4 53.6764 134.737 52.4491 134.737 50.3382C134.737 48.2273 133.4 47 131.363 47H126.319V58.6836H127.401ZM131.124 52.7273H127.401V47.9491H131.124C132.636 47.9491 133.655 48.7182 133.655 50.3382C133.655 51.9582 132.636 52.7273 131.124 52.7273ZM137.155 54.1836V58.6836H136.153V50.24H137.076V52.22H137.108C137.617 50.8455 138.731 50.06 140.211 50.1255V51.1564C138.397 51.0745 137.155 52.4164 137.155 54.1836ZM144.635 58.9291C147.133 58.9291 148.517 56.8836 148.517 54.4618C148.517 52.04 147.133 49.9945 144.635 49.9945C142.136 49.9945 140.752 52.04 140.752 54.4618C140.752 56.8836 142.136 58.9291 144.635 58.9291ZM141.754 54.4618C141.754 56.2455 142.725 58.0618 144.635 58.0618C146.544 58.0618 147.515 56.2455 147.515 54.4618C147.515 52.6782 146.544 50.8618 144.635 50.8618C142.725 50.8618 141.754 52.6782 141.754 54.4618Z" fill="white"/>
</g>
</g>
</g>
</svg>
