<svg width="180" height="108" viewBox="0 0 180 108" fill="none" xmlns="http://www.w3.org/2000/svg">
<g id="YakShaver-Horizontal-White">
<g id="YakShaver-horizontal-Color 1" clip-path="url(#clip0_992_127)">
<g id="Page-1">
<g id="YakShaver-horizontal-Color">
<g id="Group-3">
<path id="Vector" fill-rule="evenodd" clip-rule="evenodd" d="M43.4699 48.3217C43.3326 48.3414 43.1951 48.3602 43.0578 48.3791L42.9465 48.3943C42.6489 48.436 42.3505 48.4763 42.0507 48.4886C41.7528 48.5024 41.4541 48.4999 41.1555 48.4973C41.0636 48.4965 40.9715 48.4958 40.8797 48.4954C40.169 48.4918 39.4708 48.3872 38.7891 48.1547C38.1897 47.9506 37.6423 47.6474 37.1353 47.2383C36.6957 46.8829 36.3347 46.4561 36.0328 45.9908C35.5124 45.1864 35.1616 44.2972 34.9832 43.3433C34.9684 43.2672 34.941 43.1934 34.9137 43.1193C34.9001 43.0825 34.8864 43.0456 34.8743 43.0083C34.8593 43.0051 34.843 43.0026 34.8266 43C34.8016 43.0514 34.7761 43.1025 34.7505 43.1536C34.6892 43.2759 34.628 43.3981 34.5753 43.524C34.0538 44.7619 33.8971 46.0709 34.0637 47.4238C34.112 47.8291 34.2383 48.2297 34.3632 48.6256C34.3806 48.681 34.3981 48.7362 34.4152 48.7913C34.5465 49.2184 34.7839 49.5876 35.0242 49.9611L35.0613 50.0187C35.466 50.647 35.962 51.1742 36.5197 51.633C36.9358 51.9743 37.3923 52.2635 37.846 52.5509C37.8967 52.5831 37.9479 52.6155 37.9985 52.6477C38.5946 53.0284 39.2357 53.3098 39.885 53.5692C39.9738 53.6047 40.0627 53.6396 40.1519 53.6737L40.1583 57.5993L42.3908 55.8964L44.5533 62.8614C44.6114 63.0484 44.7663 63.1907 44.9597 63.2346L48.332 64L51.7018 63.2346C51.8952 63.1907 52.0501 63.0484 52.1082 62.8615L54.2622 55.9238L56.4573 57.5993L56.4641 53.4267C56.9933 53.2054 57.5125 52.96 58.0015 52.6477C58.0521 52.6154 58.103 52.5833 58.1538 52.5511C58.6075 52.2636 59.0643 51.9743 59.4803 51.633C60.0379 51.1742 60.534 50.647 60.9387 50.0187L60.9757 49.9611C61.216 49.5876 61.4535 49.2184 61.5848 48.7913C61.6019 48.7366 61.6191 48.6817 61.6365 48.6267L61.6368 48.6256C61.7616 48.2297 61.888 47.8291 61.9364 47.4238C62.1029 46.0709 61.9462 44.7619 61.4246 43.524C61.3719 43.3981 61.3108 43.2759 61.2495 43.1536C61.2239 43.1025 61.1983 43.0514 61.1733 43C61.157 43.0026 61.1407 43.0051 61.1257 43.0083C61.1136 43.0456 61.0999 43.0824 61.0863 43.1192C61.0589 43.1933 61.0316 43.2672 61.0168 43.3433C60.8384 44.2972 60.4876 45.1864 59.9672 45.9908C59.6652 46.4561 59.3043 46.8829 58.8648 47.2383C58.3577 47.6474 57.8102 47.9506 57.2109 48.1547C56.5292 48.3872 55.8309 48.4918 55.1203 48.4954C55.0285 48.4958 54.9366 48.4965 54.8447 48.4973C54.546 48.4999 54.2472 48.5024 53.9493 48.4886C53.8961 48.4864 53.8428 48.4833 53.7897 48.4796L48.332 47.0363L43.4699 48.3217Z" fill="white"/>
</g>
<g id="CodeAuditor">
<path id="Vector_2" d="M141.098 59.5286V51.0146H142.055V53.0111H142.088C142.616 51.6251 143.771 50.8331 145.306 50.8991V51.9386C143.425 51.8561 142.138 53.2091 142.138 54.9911V59.5286H141.098Z" fill="white"/>
<path id="Vector_3" d="M133.153 54.6776H138.664C138.614 53.1101 137.624 51.6416 135.958 51.6416C134.242 51.6416 133.334 53.1266 133.153 54.6776ZM139.703 55.5521H133.153C133.153 57.0701 133.978 58.9016 135.958 58.9016C137.476 58.9016 138.301 58.0271 138.631 56.7236H139.67C139.225 58.6541 138.119 59.7761 135.958 59.7761C133.252 59.7761 132.113 57.6971 132.113 55.2716C132.113 53.0276 133.252 50.7671 135.958 50.7671C138.68 50.7671 139.786 53.1596 139.703 55.5521Z" fill="white"/>
<path id="Vector_4" d="M127.231 59.5284L123.948 51.0144H125.103L127.776 58.4889H127.809L130.449 51.0144H131.521L128.337 59.5284H127.231Z" fill="white"/>
<path id="Vector_5" d="M117.289 53.6216H116.249C116.365 51.6251 117.734 50.7671 119.698 50.7671C121.199 50.7671 122.833 51.2126 122.833 53.5061V58.0271C122.833 58.4396 123.031 58.6541 123.443 58.6541C123.559 58.6541 123.658 58.6376 123.773 58.5881V59.4626C123.526 59.5121 123.377 59.5286 123.097 59.5286C122.041 59.5286 121.876 58.9181 121.876 58.0436H121.843C121.1 59.1491 120.391 59.7761 118.741 59.7761C117.157 59.7761 115.886 59.0006 115.886 57.2846C115.886 54.9086 118.213 54.8096 120.457 54.5456C121.315 54.4631 121.793 54.3146 121.793 53.3906C121.793 51.9881 120.803 51.6416 119.566 51.6416C118.262 51.6416 117.338 52.2356 117.289 53.6216ZM121.793 56.2286V54.8756H121.76C121.628 55.1231 121.166 55.2056 120.886 55.2551C119.12 55.5686 116.926 55.5686 116.926 57.2186C116.926 58.2581 117.833 58.9016 118.823 58.9016C120.424 58.9016 121.793 57.8951 121.793 56.2286Z" fill="white"/>
<path id="Vector_6" d="M107.47 59.5286V47.7476H108.509V52.4831H108.542C108.938 51.4601 110.06 50.7671 111.265 50.7671C113.657 50.7671 114.383 52.0211 114.383 54.0506V59.5286H113.344V54.2156C113.344 52.7636 112.865 51.6416 111.182 51.6416C109.516 51.6416 108.559 52.8956 108.509 54.5621V59.5286H107.47Z" fill="white"/>
<path id="Vector_7" d="M96.697 55.651H97.819C97.77 58.0765 99.502 58.819 101.664 58.819C102.901 58.819 104.782 58.1425 104.782 56.4265C104.782 55.09 103.462 54.562 102.357 54.298L99.733 53.6545C98.347 53.308 97.077 52.6645 97.077 50.8165C97.077 49.6615 97.819 47.5 101.136 47.5C103.479 47.5 105.492 48.7375 105.492 51.163H104.37C104.287 49.381 102.835 48.457 101.152 48.457C99.618 48.457 98.199 49.051 98.199 50.8C98.199 51.9055 99.007 52.384 99.981 52.5985L102.852 53.308C104.518 53.7535 105.904 54.496 105.904 56.41C105.904 57.2185 105.574 59.776 101.4 59.776C98.611 59.776 96.565 58.522 96.697 55.651Z" fill="white"/>
<path id="Vector_8" d="M87.734 59.5286V47.7476H90.077V54.0671L93.03 50.9981H95.802L92.585 54.1331L96.165 59.5286H93.327L90.984 55.7171L90.077 56.5916V59.5286H87.734Z" fill="white"/>
<path id="Vector_9" d="M80.2889 53.6216H77.9459C78.0779 51.4436 80.0414 50.7671 81.9554 50.7671C83.6549 50.7671 85.701 51.1466 85.701 53.1926V57.6311C85.701 58.4066 85.783 59.1821 85.998 59.5286H83.6219C83.5394 59.2646 83.4734 58.9841 83.4569 58.7036C82.7144 59.4791 81.6419 59.7596 80.5859 59.7596C78.9524 59.7596 77.6819 58.9511 77.6819 57.2021C77.7149 53.3246 83.4569 55.4036 83.3579 53.4896C83.3579 52.4996 82.6649 52.3346 81.8399 52.3346C80.9324 52.3346 80.3714 52.6976 80.2889 53.6216ZM83.3579 56.2286V55.3541C82.9619 55.7006 82.1369 55.7171 81.4109 55.8491C80.6849 55.9811 80.0249 56.2451 80.0249 57.1031C80.0249 57.9611 80.7014 58.1921 81.4604 58.1921C83.2919 58.1921 83.3579 56.7566 83.3579 56.2286Z" fill="white"/>
<path id="Vector_10" d="M72.3395 59.781V55.194L68 48H70.9205L73.676 52.653L76.415 48H79.3025L74.93 55.26V59.781H72.3395Z" fill="white"/>
</g>
</g>
</g>
</g>
</g>
<defs>
<clipPath id="clip0_992_127">
<rect width="112" height="21" fill="white" transform="translate(34 43)"/>
</clipPath>
</defs>
</svg>
