<svg width="180" height="108" viewBox="0 0 180 108" fill="none" xmlns="http://www.w3.org/2000/svg">
<g id="YakShaver-Vertical-White">
<g id="YakShaver-Vertical 1" clip-path="url(#clip0_992_110)">
<g id="Page-1">
<g id="YakShaver-Vertical">
<g id="Group-3">
<path id="Vector" fill-rule="evenodd" clip-rule="evenodd" d="M80.9251 30.1365C80.6653 30.1741 80.4051 30.21 80.1452 30.2458L79.9345 30.2749C79.3711 30.3544 78.8064 30.431 78.2388 30.4545C77.6749 30.4807 77.1095 30.4759 76.5443 30.471C76.3703 30.4696 76.1961 30.4681 76.0223 30.4675C74.6771 30.4605 73.3555 30.2613 72.0651 29.8184C70.9306 29.4298 69.8944 28.8523 68.9346 28.0729C68.1025 27.396 67.4193 26.583 66.8478 25.6968C65.8627 24.1647 65.1987 22.471 64.8611 20.6538C64.833 20.5089 64.7813 20.3683 64.7295 20.2272C64.7037 20.1571 64.6779 20.0868 64.6549 20.0159C64.6266 20.0097 64.5956 20.0049 64.5647 20C64.5174 20.0979 64.469 20.1953 64.4206 20.2925C64.3046 20.5256 64.1888 20.7583 64.089 20.9981C63.1019 23.3559 62.8052 25.8494 63.1205 28.4263C63.212 29.1983 63.4511 29.9614 63.6874 30.7155C63.7205 30.8209 63.7535 30.9262 63.7859 31.0311C64.0344 31.8446 64.4839 32.5477 64.9387 33.2593L65.0088 33.369C65.7749 34.5657 66.7139 35.5699 67.7694 36.4439C68.557 37.0939 69.4211 37.6447 70.28 38.1922C70.3759 38.2535 70.4728 38.3152 70.5686 38.3765C71.6968 39.1017 72.9105 39.6376 74.1394 40.1319C74.3075 40.1995 74.4759 40.2659 74.6446 40.3309L74.6567 47.8081L78.8826 44.5646L82.9759 57.8312C83.0858 58.1874 83.3791 58.4585 83.7452 58.5421L90.1285 60L96.507 58.5421C96.873 58.4585 97.1662 58.1874 97.2762 57.8313L101.353 44.6167L105.509 47.8081L105.521 39.8604C106.523 39.4388 107.506 38.9714 108.431 38.3765C108.527 38.3151 108.623 38.2538 108.72 38.1925C109.578 37.645 110.443 37.0939 111.231 36.4439C112.286 35.5699 113.225 34.5657 113.991 33.369L114.061 33.2593C114.516 32.5477 114.966 31.8446 115.214 31.0311C115.246 30.9268 115.279 30.8222 115.312 30.7176V30.7155C115.549 29.9614 115.788 29.1983 115.88 28.4263C116.195 25.8494 115.898 23.3559 114.911 20.9981C114.811 20.7583 114.695 20.5256 114.579 20.2925C114.531 20.1953 114.483 20.098 114.435 20C114.404 20.0049 114.373 20.0097 114.345 20.0159C114.322 20.0868 114.296 20.157 114.271 20.2271C114.219 20.3682 114.167 20.509 114.139 20.6538C113.801 22.471 113.137 24.1647 112.152 25.6968C111.581 26.583 110.897 27.396 110.065 28.0729C109.106 28.8523 108.069 29.4298 106.935 29.8184C105.644 30.2613 104.323 30.4605 102.978 30.4675C102.804 30.4681 102.63 30.4696 102.456 30.471C101.891 30.4759 101.325 30.4807 100.761 30.4545C100.66 30.4504 100.56 30.4444 100.459 30.4372L90.1285 27.6882L80.9251 30.1365Z" fill="white"/>
</g>
<g id="EagleEye-Horizontal-Color">
<g id="CodeAuditor">
<path id="Vector_2" d="M141.115 87.6371V75.1532H142.518V78.0806H142.567C143.341 76.0484 145.034 74.8871 147.284 74.9839V76.5081C144.526 76.3871 142.639 78.371 142.639 80.9839V87.6371H141.115Z" fill="white"/>
<path id="Vector_3" d="M129.465 80.5244H137.545C137.473 78.226 136.021 76.0728 133.577 76.0728C131.061 76.0728 129.731 78.2502 129.465 80.5244ZM139.069 81.8067H129.465C129.465 84.0325 130.674 86.7179 133.577 86.7179C135.803 86.7179 137.013 85.4357 137.497 83.5244H139.021C138.368 86.355 136.747 88.0002 133.577 88.0002C129.61 88.0002 127.94 84.9518 127.94 81.3954C127.94 78.105 129.61 74.7905 133.577 74.7905C137.569 74.7905 139.19 78.2986 139.069 81.8067Z" fill="white"/>
<path id="Vector_4" d="M120.782 87.6369L115.967 75.1531H117.661L121.58 86.1128H121.628L125.499 75.1531H127.072L122.403 87.6369H120.782Z" fill="white"/>
<path id="Vector_5" d="M106.204 78.976H104.68C104.849 76.0486 106.857 74.7905 109.736 74.7905C111.938 74.7905 114.333 75.4438 114.333 78.8067V85.4357C114.333 86.0405 114.623 86.355 115.228 86.355C115.397 86.355 115.542 86.3308 115.712 86.2583V87.5405C115.349 87.6131 115.131 87.6373 114.72 87.6373C113.172 87.6373 112.93 86.7421 112.93 85.4599H112.881C111.792 87.0809 110.752 88.0002 108.333 88.0002C106.01 88.0002 104.147 86.8631 104.147 84.347C104.147 80.8631 107.559 80.7179 110.849 80.3309C112.107 80.2099 112.809 79.9921 112.809 78.6373C112.809 76.5809 111.357 76.0728 109.542 76.0728C107.631 76.0728 106.276 76.9438 106.204 78.976ZM112.809 82.7986V80.8147H112.76C112.567 81.1776 111.889 81.2986 111.478 81.3712C108.889 81.8308 105.672 81.8308 105.672 84.2502C105.672 85.7744 107.002 86.7179 108.454 86.7179C110.801 86.7179 112.809 85.2421 112.809 82.7986Z" fill="white"/>
<path id="Vector_6" d="M91.806 87.6372V70.363H93.3302V77.3066H93.3786C93.9592 75.8066 95.6044 74.7905 97.3705 74.7905C100.879 74.7905 101.943 76.6292 101.943 79.605V87.6372H100.419V79.8469C100.419 77.7179 99.717 76.0727 97.2495 76.0727C94.806 76.0727 93.4027 77.9114 93.3302 80.355V87.6372H91.806Z" fill="white"/>
<path id="Vector_7" d="M76.0104 81.9516H77.6555C77.583 85.5081 80.1233 86.5968 83.2926 86.5968C85.1072 86.5968 87.8652 85.6048 87.8652 83.0887C87.8652 81.129 85.9297 80.3548 84.3088 79.9677L80.4621 79.0242C78.4298 78.5161 76.5668 77.5726 76.5668 74.8629C76.5668 73.1694 77.6555 70 82.5184 70C85.9539 70 88.9055 71.8145 88.9055 75.371H87.2604C87.1394 72.7581 85.0104 71.4032 82.5426 71.4032C80.2926 71.4032 78.2121 72.2742 78.2121 74.8387C78.2121 76.4597 79.3976 77.1613 80.825 77.4758L85.0346 78.5161C87.4781 79.1694 89.5104 80.2581 89.5104 83.0645C89.5104 84.25 89.0265 88 82.9055 88C78.8168 88 75.8168 86.1613 76.0104 81.9516Z" fill="white"/>
<path id="Vector_8" d="M62.868 87.6372V70.363H66.3035V79.6292L70.6341 75.1292H74.6987L69.9809 79.7259L75.2309 87.6372H71.0696L67.6341 82.0485L66.3035 83.3308V87.6372H62.868Z" fill="white"/>
<path id="Vector_9" d="M51.9515 78.976H48.516C48.7095 75.7825 51.5886 74.7905 54.395 74.7905C56.8869 74.7905 59.8869 75.347 59.8869 78.347V84.855C59.8869 85.9921 60.0079 87.1292 60.3224 87.6373H56.8386C56.7176 87.2502 56.6208 86.8389 56.5966 86.4276C55.5079 87.5647 53.9353 87.976 52.3869 87.976C49.9918 87.976 48.1289 86.7905 48.1289 84.226C48.1773 78.5405 56.5966 81.5889 56.4515 78.7825C56.4515 77.3308 55.4353 77.0889 54.2256 77.0889C52.895 77.0889 52.0724 77.6212 51.9515 78.976ZM56.4515 82.7986V81.5163C55.8708 82.0244 54.6611 82.0486 53.5966 82.2421C52.5321 82.4357 51.5644 82.8228 51.5644 84.0808C51.5644 85.3389 52.5563 85.6776 53.6692 85.6776C56.3547 85.6776 56.4515 83.5728 56.4515 82.7986Z" fill="white"/>
<path id="Vector_10" d="M39.3629 87.6372V80.9114L33 70.363H37.2823L41.3226 77.1856L45.3387 70.363H49.5726L43.1613 81.0082V87.6372H39.3629Z" fill="white"/>
</g>
</g>
</g>
</g>
</g>
</g>
<defs>
<clipPath id="clip0_992_110">
<rect width="115" height="68" fill="white" transform="translate(33 20)"/>
</clipPath>
</defs>
</svg>
