<svg xmlns="http://www.w3.org/2000/svg" viewBox="0 0 166.94 184.14"><defs><style>.cls-1{fill:none;stroke:#000;stroke-miterlimit:10;stroke-width:2px;}</style></defs><title>communication_challenge</title><g id="Layer_2" data-name="Layer 2"><g id="Layer_1-2" data-name="Layer 1"><g id="Shape_4" data-name="Shape 4"><path class="cls-1 geQWOUfV_0" d="M77.87,4A67.22,67.22,0,0,0,34.34,14C23.43,21,14.16,32.45,14.55,45.39c.2,6.53,2.75,13.45-.1,19.32L2.94,88.35c-.53,1.09-1.05,2.4-.43,3.44a3.61,3.61,0,0,0,2.84,1.3,58,58,0,0,0,12.44.1c-.42,4.63-.83,9.33-.07,13.91s2.86,9.14,6.59,11.91c5.39,4,12.77,3.54,19.45,2.89l38-3.69c-.15,1.08-1.5,1.45-2.57,1.57L53.6,122.85c-1.89.23-2.51,2.63-2.67,4.52L46.82,176c-1.24-7.63-.46-15.42.33-23.11l3-29.74-8.31.46c-6.3.35-13.14.54-18.29-3.1-3.79-2.68-6-7.11-7-11.64S15.7,99.6,15.84,95l-10.2-.33c-1.55-.05-3.34-.23-4.19-1.52a4.52,4.52,0,0,1-.19-3.55C3.83,79.13,12.5,70.7,13.71,60c.56-5-.57-10-.5-15,.18-12.52,8.07-24,18.41-31.11S54.49,3.67,66.9,2C70.72,1.51,75.1,1.3,77.87,4Z"></path><path class="cls-1 geQWOUfV_1" d="M128.6,84.34c1.63-11.06.88-22.35-.68-33.43a42.35,42.35,0,0,0-2.84-11.48,23.39,23.39,0,0,0-7.32-9.14,20.92,20.92,0,0,0-17.07-3.82,17.16,17.16,0,0,0-12.52,11.8c-.28,1.06-1.13,2.48-2.06,1.9,1.55-9.61,11.74-16.56,21.42-15.58s17.91,9,20.35,18.38a103.7,103.7,0,0,1-4.84,66c-4.33,10.23-10.3,19.7-14.6,29.93s-6.92,21.71-4.11,32.46c-1.74-1.32-2.31-3.67-2.55-5.85-.93-8.27,1-16.63,4.11-24.36s7.23-15,11-22.41C122.28,107.83,126.82,96.37,128.6,84.34Z"></path><path class="cls-1 geQWOUfV_2" d="M111.3,2.42C98.09,1.75,84.2,4.36,73.8,12.55a41.16,41.16,0,0,0-15,37.28c1,7.05,3.81,13.7,6.61,20.25A31.05,31.05,0,0,0,94.94,88.38a11.75,11.75,0,0,1,23.42.2A12,12,0,0,1,95,92.88c-.39-1.29-.88-3-2.23-3.07C82.7,88.94,72.44,84.6,66.84,76.19a49.52,49.52,0,0,1-4.4-9.06,81.3,81.3,0,0,1-4.83-14.69,42.94,42.94,0,0,1,16.64-42C84.71,2.85,98.17.51,111.05,1.08a38.09,38.09,0,0,1,10.22,1.58c9.56,3.14,16.1,11.85,21.26,20.49a85.57,85.57,0,0,1,8,16.72,180.46,180.46,0,0,0,15.25,33.81c.5.86-.8,1.62-1.78,1.78l-8.61,1.41,5,24.54c1,4.63,1.26,10.69-3,12.79a93.43,93.43,0,0,1-30.14,9,262.21,262.21,0,0,1,1.08,45.18c-2.22-8.45-1.06-17.35-1.08-26.09a96,96,0,0,0-2.07-19.69,4.23,4.23,0,0,1-4.73-1.19,79.65,79.65,0,0,0,35.18-7.82c4.39-2.11,4-8.37,3-13.13L154,78.22c-.12-.57-.41-1.28-1-1.27-3.43.06-5.74-4.74-3.56-7.39-.55,3,2.47,5.79,5.55,6.14s6.06-1,8.87-2.29a190.17,190.17,0,0,1-10.2-20.91C146.88,36.1,141.53,17.56,127,7.34a26.25,26.25,0,0,0-6-3.25,32.74,32.74,0,0,0-9.73-1.67M96.41,90.69c.22,4.59,4.16,8.45,8.62,9.55a8.28,8.28,0,0,0,3,.24A8.51,8.51,0,0,0,113,97.61c3.13-3.38,4.49-8.53,2.74-12.79s-6.88-7-11.24-5.55A11.06,11.06,0,0,0,101,81.37C98.27,83.69,96.24,87.1,96.41,90.69Z"></path><path class="cls-1 geQWOUfV_3" d="M85.33,55.66c.12-.8-.47-1.57-.39-2.37.14-1.35,1.88-1.77,3.24-1.85.83,0,1.82,0,2.28.67a2.41,2.41,0,0,1,.21,1.54l-.17,2c-.06.74-.21,1.59-.86,1.94a2.24,2.24,0,0,1-1.09.17,5.13,5.13,0,0,1-2.13-.34,1.75,1.75,0,0,1-1.08-1.72m1.47-.75a2.38,2.38,0,0,0,1.47,1.59,4.69,4.69,0,0,0,1.11-3.22,1.61,1.61,0,0,0-2.65,1.64Z"></path><path class="cls-1 geQWOUfV_4" d="M86.36,43.56a3.55,3.55,0,0,1,3.7,2.6c.31,1.62-1.28,3.4-2.87,3a3.8,3.8,0,0,1-1.88-1.46c-.77-1-1.42-2.4-.65-3.37a2.29,2.29,0,0,1,1.71-.75m-.19,2c.15,1,.73,2.23,1.67,2,.73-.21.83-1.29.36-1.88a3.49,3.49,0,0,0-2-1l-.23.87Z"></path><path class="cls-1 geQWOUfV_5" d="M110.44,57.2c-5.63,1.69-12.48-.59-15.18-5.81a11.11,11.11,0,0,1,17.2-13.45,19.61,19.61,0,0,1,2.6,2.95,10.15,10.15,0,0,1,1.62,2.72,9.2,9.2,0,0,1,0,4.81c-.75,3.71-2.64,7.69-6.27,8.78m-14.64-9a10.82,10.82,0,0,0,7.13,7.78c2.9,1,6.37.8,8.72-1.16,1.85-1.55,2.78-3.92,3.47-6.24.43-1.47.65-3.39-.63-4.23-.79-.52-.92-1.6-1.2-2.51-.89-2.94-4-4.84-7-5.07a10.13,10.13,0,0,0-8.08,3.13A9.66,9.66,0,0,0,95.8,48.16Z"></path><path class="cls-1 geQWOUfV_6" d="M102,87.73c.38-2.14,3.55-3,5.13-1.48a3.93,3.93,0,0,1-.52,5.71,2,2,0,0,1-1,.43,2.28,2.28,0,0,1-1.53-.61c-1.27-1-2.39-2.48-2.11-4.05m1.84,2.14a1.77,1.77,0,1,0,1.28-2.79A1.86,1.86,0,0,0,103.85,89.87Z"></path></g></g></g><style>.geQWOUfV_0{stroke-dasharray:580 582;stroke-dashoffset:581;animation:geQWOUfV_draw 1500ms ease-in-out 0ms forwards;}.geQWOUfV_1{stroke-dasharray:382 384;stroke-dashoffset:383;animation:geQWOUfV_draw 1500ms ease-in-out 0ms forwards;}.geQWOUfV_2{stroke-dasharray:893 895;stroke-dashoffset:894;animation:geQWOUfV_draw 1500ms ease-in-out 0ms forwards;}.geQWOUfV_3{stroke-dasharray:31 33;stroke-dashoffset:32;animation:geQWOUfV_draw 1500ms ease-in-out 0ms forwards;}.geQWOUfV_4{stroke-dasharray:27 29;stroke-dashoffset:28;animation:geQWOUfV_draw 1500ms ease-in-out 0ms forwards;}.geQWOUfV_5{stroke-dasharray:134 136;stroke-dashoffset:135;animation:geQWOUfV_draw 1500ms ease-in-out 0ms forwards;}.geQWOUfV_6{stroke-dasharray:32 34;stroke-dashoffset:33;animation:geQWOUfV_draw 1500ms ease-in-out 0ms forwards;}@keyframes geQWOUfV_draw{100%{stroke-dashoffset:0;}}@keyframes geQWOUfV_fade{0%{stroke-opacity:1;}92.98245614035088%{stroke-opacity:1;}100%{stroke-opacity:0;}}</style></svg>