<svg xmlns="http://www.w3.org/2000/svg" viewBox="0 0 152.23 156.37"><defs><style>.cls-1{fill:none;stroke:#000;stroke-miterlimit:10;stroke-width:2px;}</style></defs><title>Communcation_challengev2</title><g id="Layer_2" data-name="Layer 2"><g id="Layer_1-2" data-name="Layer 1"><g id="Shape_5" data-name="Shape 5"><path class="cls-1" d="M75.61,136.84c-3.77,4.2-8.27,7.34-12.78,10.49-2.66,1.86-5.18,3.94-7.87,5.77a30.29,30.29,0,0,1-4.54,2.25,1.1,1.1,0,0,1-.83-.26,2.3,2.3,0,0,1,.32-1.18c1.15-1.65,2.39-3.24,3.54-4.89a18.79,18.79,0,0,0,3.13-7.78c.58-3.61.88-7.27,1.18-10.91a3.33,3.33,0,0,0-2.46-3.53c-5.41-2-10.91-3.87-16.19-6.2S29,115.54,24,112.95a7.86,7.86,0,0,1-1.64-1.26c-4.31-4-8.33-8.23-11.07-13.45a46.38,46.38,0,0,1-3.07-8C6.7,85.5,5.48,80.64,4,75.84c-.76-2.56-1.84-5-2.59-7.58-.39-1.32-.84-2.63.13-4.16a10,10,0,0,0,1-4.44c.31-3.9,2.13-7.18,3.93-10.5a66.27,66.27,0,0,1,8-12c3-3.5,5.81-7.27,9.14-10.46A69.38,69.38,0,0,1,38,16c3.64-2,7.14-4.33,10.87-6.16,4.5-2.21,9.12-4.24,13.81-6a41.5,41.5,0,0,1,8.55-2c2.87-.42,5.79-.46,8.7-.62C82.49,1.14,85.1,1,87.71,1a49.59,49.59,0,0,1,12.58,2c3.45.93,7,1.76,10,3.65,3.46,2.14,6.82,4.45,10.21,6.71s7,4.53,10.35,7a14.76,14.76,0,0,1,3.37,4c1.89,3,3.58,6.11,5.36,9.17,2,3.49,4.21,6.9,6.07,10.47a41.1,41.1,0,0,1,3,7.55,59.54,59.54,0,0,1,1.75,8.65,60.66,60.66,0,0,1,.81,10.45,39.12,39.12,0,0,1-1.75,11.21,27.41,27.41,0,0,1-3.7,7.85A32.25,32.25,0,0,1,138,97.41c-1.58,1.06-2.88,2.52-4.42,3.64a27.57,27.57,0,0,1-9.71,4.39c-3.25.79-6.55,1.4-9.84,2a24.16,24.16,0,0,1-3.2.3c-2.12.12-4.25.18-6.37.3-.92.05-2.06-.11-2.71.36a3.76,3.76,0,0,0-1.22,2.48,61.36,61.36,0,0,0-.29,7.52,27.4,27.4,0,0,0,.81,4.26,12.47,12.47,0,0,1,.27,2,3.93,3.93,0,0,1-.34,1.15c-.33-.19-.68-.37-1-.58-.16-.1-.25-.3-.42-.4-.77-.45-4.45.46-5.09,1.09-2.06,2-4.18,4-6.28,6a.87.87,0,0,1-.59.28c-2-.32-3.45,1-5.18,1.45a38.85,38.85,0,0,1-4.26.86c-1.36.19-2,1.12-2.58,2.26m22.73-13.2c1.33-.09,1.41-.91,1.21-2a24.78,24.78,0,0,1-.73-5c.09-2.92.5-5.83.84-8.73a1.12,1.12,0,0,1,.8-.7c1.44-.16,2.9-.24,4.35-.32,2-.11,4.06-.18,6.08-.3a25,25,0,0,0,3.33-.32c2.61-.51,5.19-1.26,7.81-1.66a28.6,28.6,0,0,0,10.39-4.18c1.62-1,2.89-2.49,4.43-3.63C142,93,146.1,88.53,148.13,82.28a46.34,46.34,0,0,0,1.93-12.73c.11-2.9-.53-5.82-.78-8.73A43.77,43.77,0,0,0,147,50.09c-1.84-5.26-4.17-10.21-8.68-13.82-4.12-3.3-8.79-5.7-13.27-8.41a18.06,18.06,0,0,0-7.58-3c-1.83-.18-3.62-.8-5.44-1.1a50,50,0,0,1-5.27-.66,51.93,51.93,0,0,0-10.44-1.38A54.62,54.62,0,0,0,82.47,23a41.37,41.37,0,0,0-7.84,2.3c-4.89,2-8.91,5.36-12.77,8.82a61.7,61.7,0,0,0-6.05,6.84,40,40,0,0,0-8,14.87A29.18,29.18,0,0,0,48,71.65c1.38,5,3.92,9.56,6.4,14.09,2.88,5.26,6,10.36,10.94,14a35.33,35.33,0,0,0,5.77,3.46,12.22,12.22,0,0,0,6.52,1.12c1-.09,1.5.75,1,1.73a4.86,4.86,0,0,0-.11,4.2,27,27,0,0,0,3,5.66,18.63,18.63,0,0,0,10.28,7.12c2.07.62,4.12,1.34,6.59.57M58.37,36a28,28,0,0,1,2.26-2.51,48.33,48.33,0,0,1,4.12-3.27,96.83,96.83,0,0,1,8.13-5.47,26.21,26.21,0,0,1,7.88-2.58,62.18,62.18,0,0,1,11.87-1.59c2.75,0,5.5.1,8.25.29,1.63.11,3.25.5,4.88.75,2.17.33,4.36.61,6.53,1a56.42,56.42,0,0,1,7.63,1.45,25.69,25.69,0,0,1,6.23,3c3.9,2.54,8.44,4.11,11.74,7.59.19.2.64.16,1,.23a3.64,3.64,0,0,0-.22-.88,62.35,62.35,0,0,0-3.53-6.32c-1.68-2.39-3.37-4.95-5.61-6.72-4.52-3.58-9.36-6.77-14.18-9.95a77.21,77.21,0,0,0-8.65-4.88,37.83,37.83,0,0,0-6-2A47.84,47.84,0,0,0,88,2.16c-2.7,0-5.4.13-8.1.27s-5.64.19-8.41.62a58.7,58.7,0,0,0-8.68,2c-2.53.8-4.91,2.06-7.39,3a101.35,101.35,0,0,0-18.64,10c-2.85,1.89-5.6,3.94-8.33,6A64.37,64.37,0,0,0,23,28.75,46.89,46.89,0,0,0,19.31,33c-1.44,1.75-2.87,3.5-4.22,5.32-1.7,2.31-3.47,4.59-4.93,7A71.65,71.65,0,0,0,5,55.19C3.91,57.92,3.56,61,3,63.87a12.86,12.86,0,0,0,.58,7.45c1.36,3.48,2.62,7,3.7,10.58s1.51,7.16,2.84,10.51a75.51,75.51,0,0,0,5.34,10,30.33,30.33,0,0,0,8.49,8.91,76,76,0,0,0,12.27,6.88c3.56,1.7,7.38,2.84,11.08,4.25,3.16,1.2,6.28,2.51,9.46,3.62.78.27,1.54.37,1.76,1.25a12,12,0,0,1,.69,3.58c-.21,2.84-.78,5.64-1.08,8.47a22.85,22.85,0,0,1-2.37,8.11,44.07,44.07,0,0,1-3,4.39,5.73,5.73,0,0,0-.43,1,3.13,3.13,0,0,0,1.06-.2c1.65-1,3.32-2,4.89-3.16q4.68-3.39,9.25-6.93c3-2.3,6.06-4.45,8-7.87a2.62,2.62,0,0,1,1.88-1.23c2.4,0,4.54-.85,6.77-1.48a19.92,19.92,0,0,0,7.59-4.67,14.47,14.47,0,0,0,1.58-1.77c.52-.64.3-1-.48-1.09a17.48,17.48,0,0,1-11.93-7.22c-2.21-3.17-4.76-6.47-4.07-10.86,0-.19-.4-.59-.67-.66a32.32,32.32,0,0,0-3.22-.59c-4-.53-6.83-3.13-9.67-5.5A29,29,0,0,1,55.18,89.5c-.9-2-2.26-3.15-4.67-2.26a15.72,15.72,0,0,1-3.21.6c-2.77.4-5.57.67-8.32,1.19-3.55.66-7.08,1.45-10.58,2.34A1.14,1.14,0,0,1,27,91c.38-.28.73-.71,1.16-.81,3.13-.72,6.26-1.41,9.4-2,2.72-.54,5.46-1,8.2-1.45,1.85-.31,3.7-.58,5.56-.87,1.4-.22,1.48-.53.85-1.73-1.42-2.68-2.9-5.34-4.06-8.13a29.46,29.46,0,0,1-2.47-14,8.22,8.22,0,0,0,0-1.87A.86.86,0,0,0,45,59.6c-2.68.34-5.36.76-8,1.12-1.65.22-3.3.39-5,.58-3.26.38-6.51.79-9.77,1.13-.34,0-.72-.27-1.09-.41.37-.24.73-.64,1.13-.69,3.25-.43,6.51-.79,9.76-1.18,4-.48,8-.92,11.95-1.48.81-.11,1.92,0,2.27-1.18.58-1.93,1-3.91,1.76-5.76a40.81,40.81,0,0,1,7.46-12.21C56.42,38.45,57.3,37.3,58.37,36Z"/><path class="cls-1" d="M98.12,95c-.84,1.19-1.44,1-2.42.11-2.06-1.83-4.38-3.37-6.49-5.16-1.87-1.59-3.61-3.36-5.38-5.06-1-1-1.92-2-3-2.93a1.15,1.15,0,0,1-.09-1.9,22.33,22.33,0,0,1,2.36-2.32,1.2,1.2,0,0,1,1.12.12c1,2.16,3.13,3.06,4.75,4.51,2.06,1.84,4.14,3.66,6.19,5.52.5.45.87.87,1.51.18,2.53-2.76,5-5.63,7.67-8.2,4.2-4,8.6-7.72,12.94-11.55,3.09-2.73,6.25-5.39,9.3-8.17,2.68-2.44,5.26-5,7.84-7.54.89-.88,1.6-1,2.53,0a10.52,10.52,0,0,0,2.42,1.79.8.8,0,0,1,.31,1.33c-1.81,1.92-3.62,3.84-5.58,5.61-2.28,2.06-4.76,3.88-7,5.94-3.35,3-6.59,6.17-9.87,9.26l-5.49,5.2c-3.63,3.43-7.27,6.85-10.87,10.31-.95.91-1.78,2-2.73,3m25.61-30.81c-.44.44-.85.92-1.33,1.32-3.46,2.9-7,5.7-10.38,8.7-3,2.63-5.77,5.43-8.56,8.25-2.06,2.08-3.92,4.35-5.95,6.47-1.72,1.8-2.22,1.71-3.7-.39a3.22,3.22,0,0,0-.51-.51c-2.63-2.34-5.25-4.69-7.89-7a5,5,0,0,0-1.71-1.08,1.58,1.58,0,0,0-1.41.37,1.54,1.54,0,0,0,.13,1.41,13.65,13.65,0,0,0,2.23,2.54Q90.33,89,96.1,93.62a1.8,1.8,0,0,0,1.7-.11,29.24,29.24,0,0,0,2.08-2.27c1.94-1.9,3.92-3.76,5.89-5.62,3-2.86,6.1-5.71,9.14-8.57,3.67-3.46,7.28-7,11-10.39,2.27-2.07,4.75-3.9,7-6,1.82-1.63,3.5-3.42,5.18-5.18.35-.36.42-.87-.42-.87a2,2,0,0,1-1.28-.32c-.83-.86-1.4-.57-2.13.14q-3.82,3.76-7.72,7.43C125.75,62.68,124.79,63.33,123.74,64.19Z"/><path class="cls-1" d="M34.41,35c-1.11.1-2.08.23-3,.26-.32,0-.65-.26-1-.4.27-.24.51-.6.83-.71a6.87,6.87,0,0,1,1.74-.3c1.93-.12,3.86-.14,5.78-.31,3.78-.34,7.55-.78,11.33-1.13,1-.09,2,0,3,0s2.22-.22,3.34-.25c.34,0,.68.29,1,.44-.34.23-.66.61-1,.66-1.3.17-2.61.2-3.91.32-4.16.38-8.32.79-12.49,1.14-1.1.09-2.21,0-3.31,0C36,34.79,35.28,34.94,34.41,35Z"/><path class="cls-1" d="M64.72,104.59c-3.06.38-6,.77-8.89,1.16-1.36.18-2.72.46-4.09.53-.46,0-1-.43-1.44-.66a7.15,7.15,0,0,1,1.23-.44c3-.5,6-1,9.06-1.43,1.86-.24,3.76-.23,5.64-.31a3.5,3.5,0,0,1,.79.15c-.17.26-.29.68-.53.76A8.57,8.57,0,0,1,64.72,104.59Z"/></g></g></g></svg>