<svg xmlns="http://www.w3.org/2000/svg" viewBox="0 0 224.33 152.87"><defs><style>.cls-1{fill:none;stroke:#000;stroke-miterlimit:10;stroke-width:1.5px;}</style></defs><title>Meet_face_to_face</title><g id="Layer_2" data-name="Layer 2"><g id="Layer_1-2" data-name="Layer 1"><g id="Shape_3" data-name="Shape 3"><path class="cls-1" d="M160.27,68.4a4.63,4.63,0,0,1-.49-1.49c0-2.51,0-5,0-7.54a10,10,0,0,0-.32-2.62,1.44,1.44,0,0,0-1.09-.85c-2.08.23-3.69-.41-4.29-2.47s.43-3.68,1.8-5.14a9.71,9.71,0,0,0,1.57-2c.91-1.7-.08-3.18-1-4.37a11.18,11.18,0,0,1-2.12-8.41,10.18,10.18,0,0,1,.46-1.25,6.43,6.43,0,0,0,.36-2.16,22.78,22.78,0,0,1,.31-9.22,27.57,27.57,0,0,1,1-3.66c.16-.37,1.31-.56,1.9-.42,1.16.28,2.25,1.22,3.37,1.22a80.37,80.37,0,0,0,9-.55,14.84,14.84,0,0,0,5-1.19c2.9-1.46,5.61-3.29,8.4-5a9.44,9.44,0,0,1,1.09-.48,4.28,4.28,0,0,1-.19,1.27c-.29.61-.75,1.14-1.09,1.73a2.56,2.56,0,0,0-.16.8c.33,0,.72.19,1,.07.73-.34,1.39-.85,2.12-1.19a3.56,3.56,0,0,1,1.19-.11c-.13.34-.25.67-.38,1-.2.5-.4,1-.61,1.49.47,0,1-.06,1.42-.15a5.62,5.62,0,0,1,5.83,3.77,11.23,11.23,0,0,1,.29,2.2c0,1.83.95,2.41,2.69,1.66.21-.09.4-.21.6-.31A3.85,3.85,0,0,1,203,24.54c2.48,3.53,5,7,7.5,10.54a16.76,16.76,0,0,1,2.59,13.59c-.62,2.8-2.32,5.16-4.09,7.44a31.83,31.83,0,0,1-8.18,7.84c-2.09,1.3-4.27,2.43-6.86,2.36-1.07,0-1.54,1-1,2.27a24.83,24.83,0,0,0,1.65,3.37,2.9,2.9,0,0,0,2.63,1.32c2.11,0,4.23-.08,6.34,0,3.77.17,7.55.5,11,2.18a10,10,0,0,1,5.52,6.77c.55,2.22.81,4.51,1.19,6.77,0,.09,0,.23,0,.29,1.69,2.1-.14,4.46.49,6.71.42,1.49,0,3.21.11,4.81.22,2.34.63,4.66,1,7,.22,1.45.52,2.89.7,4.34,0,.25-.3.55-.47.83-.22-.29-.59-.55-.64-.86-.25-1.56-.39-3.13-.62-4.69a3.78,3.78,0,0,0-.48-1.1s-.35,0-.36.07a8.55,8.55,0,0,0-.29,1.62c-.12,3.88-.21,7.75-.3,11.63-.1,4.12,0,8.26-.36,12.35a42.48,42.48,0,0,1-1.75,7.09,15,15,0,0,1-.71,1.88,2.71,2.71,0,0,1-3.05,1.68c-1.41-.12-2.82-.24-4.23-.29-3.85-.12-7.72.07-11.53-.38-3.44-.41-6.79-1.54-10.2-2.29-2.36-.52-4.73-1-7.11-1.39-3.61-.55-7.32-.66-10.84-1.55-4-1-7.75-2.75-11.67-4-2-.65-4.15-1-6.24-1.41-.14,0-.34-.07-.43,0-2,1.69-4.62,1.13-6.91,1.6s-4.5-.17-6.77-.26c-2.63-.1-5.27-.16-7.91-.15-.28,0-.66.51-.82.86a3.58,3.58,0,0,1-4.57,2.21c-1-.3-1.6-.38-2.36.61a2.87,2.87,0,0,1-2.54.49c-.65-.2-1.09-1.18-1.56-1.86a6.43,6.43,0,0,1-.52-1.19c-.23.25-.47.49-.68.75a2.84,2.84,0,0,1-3.93.29,2,2,0,0,0-2.62-.44c-1.12.62-1.89-.08-2.77-.5-.32-.16-.76-.46-1-.36-1.68.76-3.05-.11-4.1-1.07a8.82,8.82,0,0,0-3.52-1.73c-1.64-.55-3.13-1.62-4.8-2a8.47,8.47,0,0,0-4.34-.05,66.55,66.55,0,0,0-10.32,3.77c-4.88,2.41-9.52,5.28-14.28,7.94-4.44,2.48-8.79,5.13-13.37,7.31a42.38,42.38,0,0,1-11.1,3.93c-4.07.66-8.33,1.2-12.52-.05a3.62,3.62,0,0,1-2.41-2.62c-1.32-3.86-2.43-7.79-3.71-11.67q-2.6-7.91-5.34-15.78c-1.4-4-2.78-8-4.38-12-1.32-3.27-3.1-6.36-4.39-9.64A67,67,0,0,1,6.56,91.9a27.06,27.06,0,0,1-.33-2.77c0-.18-.3-.33-.45-.49-.13.19-.36.36-.38.56-.5,4.2-1,8.4-1.47,12.6-.58,5-1,10-1.81,14.94-.42,2.52,1.29,3.79,2.22,5.55a8.06,8.06,0,0,1,.4,1.09,3.22,3.22,0,0,1-1-.56c-1.41-1.74-3.21-3.39-3-5.85.31-3.15,1-6.27,1.4-9.42.26-1.89.35-3.81.61-5.71.33-2.41.75-4.81,1.12-7.22.22-1.46.35-2.94.63-4.39.39-2,.89-4,1.31-6a5.68,5.68,0,0,0,0-1.07,6.08,6.08,0,0,0-1,.63c-.26.24-.36.7-.64.87a6,6,0,0,1-1.37.43c.18-.34.34-.69.54-1,1.05-1.65,2.09-3.3,3.18-4.92a95.12,95.12,0,0,0,8.18-13.74c1.18-2.6,1.82-5.47,3.18-8a14.62,14.62,0,0,0,2.2-7.93A36.61,36.61,0,0,0,19,42.64c-1-3.68-2-7.31-1.71-11.19.41-4.85,1.14-9.55,3.58-13.91,2.83-5,6.51-9.3,11.68-11.79a67.48,67.48,0,0,1,13-4.63A16.84,16.84,0,0,1,54,1.54c2.32.65,4.76.85,7.06,1.54a32.93,32.93,0,0,1,4.45,2.19,4.29,4.29,0,0,0,1.9.62c5.18-.31,9,2.7,10.41,7.67.74,2.57,2,5,1.82,7.81-.09,1.27-.16,2.54-.31,3.79,0,.28-.4.52-.61.79-.18-.3-.51-.6-.5-.89a28.3,28.3,0,0,0,.23-3.21,22.09,22.09,0,0,0-.88-5,36.9,36.9,0,0,0-2.86-6.64C73.53,8.13,71.25,7.47,69,7.11c-1.66-.26-1.59-.19-1.24,1.41a38.9,38.9,0,0,1,.6,4.83c.06.7.05,1.11,1,1.34,2.77.68,4.23,3,5.36,5.31a94.16,94.16,0,0,1,4.47,10.62,29.63,29.63,0,0,1,1,6.81,4,4,0,0,0,1.06,2.49,29.68,29.68,0,0,1,3.58,4.47c1.17,2,.1,3.54-2.22,3.62-1,0-2,0-3,0A2.28,2.28,0,0,0,77,50.17a45.71,45.71,0,0,0-1.2,10.26A6.49,6.49,0,0,1,75,63.8c-.79,1.32-2.47,1-3.76,1.35a3.7,3.7,0,0,0-1.79.87c-2.48,3.11-2,5.89-.44,8.82.77,1.48,2.51,1.62,4,1.87,1.94.33,3.94.37,5.89.66a1.44,1.44,0,0,1,.8,1.12c0,2.77-.23,5.53-.23,8.3s.17,5.34.27,8c0,.29.1.63,0,.86s-.47.36-.72.54c-.14-.23-.4-.46-.39-.69.05-1.27.3-2.54.24-3.8-.11-2.63-.42-5.26-.53-7.89a23.83,23.83,0,0,1,.27-3.51c.14-1.36-.44-1.78-1.79-1.87a30.37,30.37,0,0,1-6-1c-2.8-.77-3.56-3.15-4.18-5.71-.52-2.16.26-3.81,1.34-5.48a7.05,7.05,0,0,0,.45-1,4.41,4.41,0,0,0-1.06-.18c-2.19.17-4.38.41-6.58.55-1.27.08-2.55,0-3.82,0-.35,0-.93.38-1,.66a21.63,21.63,0,0,0-.32,3.65c0,3.38-2.16,4.76-4.67,5.2a38.47,38.47,0,0,1-5,.32c-2.67.11-5.34.11-8,.31-4.1.31-8.19.76-12.29,1.14-2.1.2-4.2.33-6.29.59-3.94.5-7.74,1.46-11,3.87a3.51,3.51,0,0,0-1.52,2.85A40.44,40.44,0,0,0,8.27,94.62c.84,3.7,2.95,6.82,4.32,10.26,1.61,4,2.89,8.19,4.4,12.25,1.63,4.35,3.48,8.63,5,13,1.37,3.89,2.4,7.9,3.69,11.82.83,2.5,1.84,4.94,2.82,7.39.48,1.21,1.73,1.32,2.73,1.35,5,.15,9.93.17,14.66-1.71s9.52-3.67,13.85-6.54c3.85-2.56,8-4.64,12.06-6.93,2.66-1.51,5.28-3.12,8-4.48a53.15,53.15,0,0,1,6.6-2.62c1.34-.45,2.06-1.05,2-2.59-.27-4.12.83-8,1.87-12,.16-.62.91-1.58-1-1.21C82.54,114,76,116.15,69.39,117.9,63.28,119.52,57.15,121,51,122.57a3.74,3.74,0,0,1-1.24-.13c.17-.27.49-.53.49-.8a20.63,20.63,0,0,0-.12-4.29,93.32,93.32,0,0,0-2.46-10,38.52,38.52,0,0,0-3.06-6.27,10.4,10.4,0,0,0-4.33-4A22,22,0,0,0,38,96.18c-.19-.08-.3-.33-.45-.5.2-.12.43-.37.59-.34a13.79,13.79,0,0,1,3.65,1c1.16.63,1.46.38,1.76-.73A29.53,29.53,0,0,1,44.82,92c.15-.37.59-.61.9-.91a3.38,3.38,0,0,1,.13,1.27c-.49,1.53-1.1,3-1.59,4.56a1.72,1.72,0,0,0,0,1.34,27.49,27.49,0,0,1,5.15,10.79c.87,3.62,1.57,7.28,2.38,10.92.15.66.24,1.21,1.34.9,4.22-1.17,8.5-2.15,12.74-3.25,3.18-.83,6.35-1.72,9.51-2.61,4.12-1.15,8.2-2.42,12.35-3.44,2.14-.53,4.39-.61,6.59-.92a5.06,5.06,0,0,0,1.56-.43c2.44-1.24,4.78-3,7.54-3.09s4.48-1.93,6.48-3.35a7.17,7.17,0,0,1,4.73-1.54c2.63.17,5.36-.48,7.87.63s5.06,2.51,7.56,3.82c1.32.69,2.56,1.53,3.87,2.23,1.62.87,3.25,1.72,4.93,2.47,2.45,1.09,4.92,2.14,7.44,3a2.83,2.83,0,0,0,2.22-.31,5.94,5.94,0,0,1,5.88-.06c.81.46,2.12.18,3.18,0,2.27-.3,4.52-1,6.79-1.07q8.42-.36,16.85-.3c3.6,0,7.19.34,10.79.55,1.21.07,1.79-.41,1.68-1.65-.39-4.29-.91-8.57-1.11-12.87-.13-2.63-1.47-5.33,0-7.92a24.73,24.73,0,0,1,2.64-3.54c.15-.18.69,0,1-.05a2.63,2.63,0,0,1-.25.86A13.29,13.29,0,0,1,195,89.29a5.7,5.7,0,0,0-1.57,5.38,66.74,66.74,0,0,1,.9,7.47c.26,3.15.39,6.32.61,9.48a3.9,3.9,0,0,0,.43,1.12c.2.47.4.93.61,1.4a9.59,9.59,0,0,1-2.12.58c-.92,0-1.85-.2-2.78-.25-4-.21-8-.52-11.95-.55-5.1,0-10.21,0-15.31.3-3,.15-6,.69-8.95,1.14-.86.13-1.07.84-1.19,1.71-.55,4-1.12,7.93-1.87,11.85-.17.91,0,1.12.68.89,1.14-.39,1.92.24,2.88.58,4,1.44,8.1,2.62,12.08,4.13A41.77,41.77,0,0,0,180,136.86a48.28,48.28,0,0,1,11.65,2.3,32.48,32.48,0,0,0,9.74,1.73c4.31,0,8.63.16,12.94.28,1.47,0,2.12-.67,2.7-2a30.06,30.06,0,0,0,2-12.38c0-4.6,0-9.21.3-13.81.16-2.9.74-5.78,1.11-8.66a6.91,6.91,0,0,0,0-1c-.1-5.09,0-10.18-.35-15.26-.24-3.71-1.18-7.34-4.08-10a11.79,11.79,0,0,0-6.28-2.64c-2.73-.46-5.54-.45-8.31-.65-1-.07-2.18-.57-2.86-.17-1.12.67-2,.19-3,.06-1.87-.24-2-2.08-2.65-3.33s-1-2.51-1.57-3.69a1.55,1.55,0,0,0-1.35-.53c-2.12.45-4.2,1.09-6.31,1.55a41.73,41.73,0,0,1-10.54,1.18c-1.37-.06-2.74,0-4.11,0a5,5,0,0,0-.81.14,3.13,3.13,0,0,0,.32.88c1.65,2.17,3.33,4.32,5,6.47.06.08.18.14.19.21.09,1.42.63,2.19,2.19,1.6.1,0,.28.14.43.22-.09.16-.14.41-.27.46-1,.37-2,.73-3,1.05-2.48.79-5,1.52-7.44,2.36-.28.1-.52.73-.53,1.12-.05,2,0,4.06,0,6.09-.07,3.06-.17,6.11-.3,9.17a3.16,3.16,0,0,1-.41,1c-.24-.33-.69-.65-.7-1,0-1,.23-2,.24-2.93,0-4.3,0-8.61,0-12.91,0-1.17.37-1.54,1.59-1.81a54.39,54.39,0,0,0,6.9-2.23,1.3,1.3,0,0,0,.29-1.21c-1-1.72-2.15-3.38-3.25-5a8.56,8.56,0,0,0-.93-1.21c-1.14-1.19-2.18-2.47-4.2-2.18a4.65,4.65,0,0,1-3.95-1.63m-107.16-52a11.43,11.43,0,0,0,1.48-.63,14.84,14.84,0,0,1,10.26-2c.54.09,1.08.22,1.62.28s1.2.15,1-.81c-.35-1.75-.63-3.51-1-5.24a2,2,0,0,0-.81-1.1C63.59,5.53,61.55,4.07,59,3.62,56.69,3.19,54.29,3,52,2.4a13.33,13.33,0,0,0-6.59-.14A83.21,83.21,0,0,0,34.5,6a24.94,24.94,0,0,0-9,6.75c-2.42,2.65-3.82,5.79-5.27,8.89s-1.51,6.49-1.84,9.83c-.36,3.75.8,7.23,1.66,10.78A46.21,46.21,0,0,1,21.29,49a16,16,0,0,1-2.21,8.94c-1.74,3.31-2.86,6.94-4.46,10.33A53.73,53.73,0,0,1,11,74.46c-1.29,2-2.72,3.9-4.08,5.86a3.48,3.48,0,0,0-.29.7A2.72,2.72,0,0,0,7.38,81a5.13,5.13,0,0,0,.81-.5,20,20,0,0,1,3.26-1.93c2-.73,4-1.24,6.09-1.77a31.72,31.72,0,0,1,4.14-.86,39.24,39.24,0,0,0,4-.17,40.24,40.24,0,0,1,9.73-1c1.32,0,2.65.08,4,0,1.71-.12,3.42-.45,5.13-.54s3.48,0,5.22,0c2.37,0,4.06-1,4.61-3A28,28,0,0,0,54.44,68c.32-2,.14-2.38-1.82-2.9a10.09,10.09,0,0,1-2-.76c-3.93-2-6.25-7.45-5.12-12.31.68-2.92.61-4-2.11-5.53a5.82,5.82,0,0,1-2-1.82c-1.46-2.25-2.44-4.59-1.82-7.44.51-2.33,2.13-3.79,4.41-3.49a1.12,1.12,0,0,0,.89-.23c.12-.16,0-.61-.15-.87-1.47-3-1.14-8.24,1.67-10.72,2.13-1.87,4.38-3.63,6.71-5.58m19.15,2a13.74,13.74,0,0,0-1.76-1.72,5.84,5.84,0,0,0-2.1-.83c-.13,0-.41.84-.68,1.26-.11.18-.36.28-.54.41-.1-.17-.29-.36-.27-.52.16-1.49-.39-1.92-2-2.17a15.17,15.17,0,0,0-10.48,2.24c-1.69,1-3.21,2.26-4.85,3.35-4.32,2.86-6.2,8.63-3,13.3.5.72.21,1.17-.62,1.2a5.22,5.22,0,0,1-1.52-.17c-1.4-.37-3.55.86-3.72,2.3a10.06,10.06,0,0,0,0,3.51c.6,2.36,1.6,4.46,4.16,5.5a3.53,3.53,0,0,1,1.81,2.2,16.08,16.08,0,0,1,0,4c-.05,1.53-.5,3.16-.14,4.58.81,3.24,2.62,5.95,6,6.91a21,21,0,0,0,5.78.73c3.21,0,6.41-.33,9.62-.54a21.55,21.55,0,0,0,3.64-.33c.94-.22,2.32.2,2.68-1.19a9.81,9.81,0,0,0,.3-2.77,31.51,31.51,0,0,1,1.45-10.14,1.15,1.15,0,0,0-1-1.53,3.59,3.59,0,0,1-.77-.24c-2.5-1.08-3.14-2.57-2.5-5.91a6.9,6.9,0,0,1,.59-1.39c.18.58.38,1.15.54,1.74,0,.09-.15.22-.18.35-.46,1.61.39,4,2.2,4.2a42.92,42.92,0,0,0,8.11-.06c1-.07,1.31-1.13.6-2-1.27-1.57-2.66-3.06-4-4.6-.35-.41-.84-.88-.89-1.36-.13-1.21.13-2.47-.08-3.66a33.4,33.4,0,0,0-1.6-7c-1.33-3.27-3.14-6.34-4.89-9.63m121.45,30c.51-.9,1.06-1.78,1.53-2.7,1.7-3.34-1.62-6.87-4.32-6.36a17.23,17.23,0,0,0-5.31,2.18c-.79.46-1.05.19-1.34-.26a32.87,32.87,0,0,1-2.16-3.75c-2.37-5.14-5.65-9.18-11.6-10.29a9.39,9.39,0,0,0-8.74,3.13A9.64,9.64,0,0,0,159.16,37c0,.28-.27.56-.41.84-.24-.18-.58-.31-.71-.55-.62-1.14-1.16-2.32-1.77-3.47a2.93,2.93,0,0,0-.64-.62c-.07.15-.21.3-.21.45,0,1.9-.33,3.86.85,5.59.58.86,1,1.8,1.62,2.66a4.94,4.94,0,0,1-.65,6.74c-.56.57-1,1.22-1.55,1.82a2.44,2.44,0,0,0,.07,3.38,3,3,0,0,0,2.47.75,1.69,1.69,0,0,1,2.26,1.3,12.72,12.72,0,0,1,.68,3.77c0,2.13-.18,4.27-.24,6.41a2.56,2.56,0,0,0,2.32,2.51c3.44,0,6.89-.3,10.33-.24,4.14.07,8.12-.91,12.17-1.43,3.37-.43,5.78-1.92,6.3-5.3a27.81,27.81,0,0,0-.29-6.69,13.59,13.59,0,0,0-.82-3.14c-.15-.43-.59-.75-.9-1.12a4.32,4.32,0,0,0,1.18-.08,3.24,3.24,0,0,0,1-.68c.47-.42.9-.88,1.49-1.47M207.65,56c.48-.67.95-1.35,1.44-2,4.2-5.7,4.2-11.49,1.09-17.08-2.17-3.9-5.07-7.41-7.73-11-1.38-1.87-2.49-2-4.88-1.34-1.33.39-2.88.88-3.87-.56a4.15,4.15,0,0,1-.53-2.51c.24-3.29-2.25-4.45-4.81-4.25a3.44,3.44,0,0,1-2.21-.52c-.6-.47-.9-.94-1.85-.67-.66.19-2,.61-1.9-1,0-.31.07-.63.1-.94a3.5,3.5,0,0,0-1.15.35,21.08,21.08,0,0,1-10.26,4.38,34.63,34.63,0,0,1-12.57-.17c-.83-.19-1.15.14-1.31.5-1.45,3.27-1.38,6.75-1.12,10.21.05.69.72,1.33,1.07,2a2.34,2.34,0,0,1,.24.88c0,.65,0,1.31.07,1.94,0,.29.4.52.61.78a3.68,3.68,0,0,0,.51-.9,10.8,10.8,0,0,1,14-7.63,17.24,17.24,0,0,1,10.15,9.35,44.52,44.52,0,0,0,2.22,3.86c.29.47.55.54,1.23.2,2.51-1.27,5-3,8-.86,1.59,1.16,2.77,2.51,2.72,4.51a8.89,8.89,0,0,1-3.45,7,2.44,2.44,0,0,0-.75,2.78,22.31,22.31,0,0,1,.94,5.66c-.09,1.94,0,4.08-1.35,5.79a2.88,2.88,0,0,0-.28.6c.22,0,.47.17.67.12a37.09,37.09,0,0,0,6-1.65c3.67-1.64,6.36-4.55,9-7.77m-82.13,78.36c1.22.26,2.43.44,3.05-1a2.91,2.91,0,0,0-1.37-3.37c-1-.65-2.07-1.15-3-1.87-1.54-1.22-3-2.54-4.46-3.88-.3-.28-.34-.84-.5-1.28a4.69,4.69,0,0,1,1.37.48c1.92,1.47,3.76,3,5.7,4.48,1.56,1.16,3.28,1.65,5.09.52a2.22,2.22,0,0,0,1-2.69c-.2-.58-1-1-1.67-1.34s-1.66-.45-2.4-.85c-2.76-1.52-5.48-3.12-8.2-4.72-.13-.07,0-.52,0-.8.45,0,1-.2,1.32,0,1.66.93,3.24,2,4.89,2.93a39.7,39.7,0,0,0,4.2,2.12,1.63,1.63,0,0,0,1.42-.42,1.35,1.35,0,0,0-.07-1.31,11.29,11.29,0,0,0-2.42-2.16c-2.19-1.34-4.47-2.51-6.68-3.83-.44-.26-.68-.85-1-1.29.49,0,1.07-.14,1.45.07,2.4,1.34,4.76,2.76,7.14,4.15a2.85,2.85,0,0,0,1.08.51,4.31,4.31,0,0,0,1.28-.3,3.74,3.74,0,0,0-.6-1,11.06,11.06,0,0,0-1.28-.74c-3.05-2-6-4.15-9.18-5.89a7.66,7.66,0,0,0-8.65.59,15.74,15.74,0,0,1-3.79,2,2.93,2.93,0,0,1-4-3c0-2.64,0-2.73-2.63-2.1-3,.73-5.63,1.87-6.12,5.6a92.17,92.17,0,0,1-2,10.18c-.35,1.39-.18,2.41.92,3.17,1.76,1.23,3.63,2.3,5.9,2.18a1.14,1.14,0,0,0,.87-.55c.74-2.55,2.82-3.05,5-3.52,1.33-.28,2,.22,2.11,1.43.1.92.42.73,1,.42s1.47-.66,2.18-1a1.47,1.47,0,0,1,2.16.65c.63,1.21,1.11,1,2,.23a6.25,6.25,0,0,1,2.12-.78c.06.55.13,1.1.17,1.65.12,1.58.26,1.56,1.75,1.17a3.92,3.92,0,0,1,2.78.22c1,.65,2.15,1.6,1.33,3.26a1.1,1.1,0,0,0,.82,1.68m20.75-6.82c.34-1.75.68-3.49,1-5.24.3-1.57.64-3.14.84-4.72.07-.59.4-1.38-.73-1.69a35.08,35.08,0,0,1-6.76-2.21c-5.6-2.85-11-6-16.61-8.94a14.37,14.37,0,0,0-9.93-1,15.45,15.45,0,0,0-4.44,1.84c-1.51.89-3,2-3.15,4a3.34,3.34,0,0,0,.46,2.29,2.69,2.69,0,0,0,2.17.49,5.38,5.38,0,0,0,2.38-1.19c3.89-3.33,8-3.19,12.17-.76a51,51,0,0,1,5,3.21c2,1.54,4,3.23,5.91,4.93.3.26.28.89.4,1.36a8,8,0,0,0-1.09-.35c-.45-.08-1.32-.62-1.12.44.24,1.27,1.22,2.42.47,3.82-.07.13,0,.36.08.54.86,2.57.48,3.69-1.7,5.33-.29.22-.42.67-.62,1,.37.2.73.56,1.11.58,4,.14,7.94.27,11.92.26a2.28,2.28,0,0,0,1.71-1.11,18.35,18.35,0,0,0,.5-2.9M93.16,112.44c-.53.44-1.37.78-1.55,1.33a35.75,35.75,0,0,0-2.1,11.73c0,.81.07,1.77,1,1.67s2.13-.6,2.39-1.26a26.22,26.22,0,0,0,1-4.8c.47-2.5,1-5,1.44-7.5.11-.56.12-1.14.18-1.71-.53.09-1.07.16-1.6.27a5.06,5.06,0,0,1-.75.28m54,16.83c-.08.77-.73,1.8.63,2,1,.14,2.84-1.7,3-2.72.1-.68.18-1.37.29-2.06.38-2.4.78-4.8,1.15-7.21a12.47,12.47,0,0,0,.26-2.63c0-.63-.88-1.23,0-1.84-.26-.2-.56-.6-.76-.56-1,.23-1.95.59-2.17,1.9-.4,2.38-1,4.72-1.41,7.09-.35,1.95-.59,3.92-1,6M104,131.44c1.67,1.23,3.11,1.29,3.67.07a8.85,8.85,0,0,0,.67-2.47c.3-2.18-.19-2.59-2.37-2.09a4.37,4.37,0,0,0-1,.3c-1.91,1-2.28,2.41-.93,4.2m5.37,1.6a7.47,7.47,0,0,0,1.77-.05c2.11-.57,2-2.78,3-4.23.08-.12-.69-1.13-1.12-1.18-2.72-.29-4.79,2.72-3.6,5.46m5.22.87c.39.09.86.37,1.16.25,1.89-.75,3.27-2.41,2.46-4.73-.55-1.57-1.26-1.78-2.35-.5a25.92,25.92,0,0,0-1.73,3c-.49.76-.34,1.3.45,2m7.4,1.6a10.91,10.91,0,0,0,1.27-2.5,3.57,3.57,0,0,0-.31-2.47c-.22-.34-1.42-.25-2.1-.06s-1.51,3.05-1.09,3.67c.21.31.75.57.73.82C120.4,136.46,121.22,135.87,122,135.51Z"/><path class="cls-1" d="M46.51,38.8A10.76,10.76,0,0,1,48,41.6c.27,1.31-.54,2.06-1.93,2a16.35,16.35,0,0,1-2.3-.35,17.78,17.78,0,0,0,2-.52c.85-.32,1.63-.64.93-1.9C46.32,40.32,45.35,39.52,46.51,38.8Z"/><path class="cls-1" d="M187.7,44.45a4.91,4.91,0,0,1,.16-1.09c.31.21.74.35.91.64.79,1.32,1.61,2.43,3.38,1.42.12-.07.45.25.68.39a3.4,3.4,0,0,1-.64.74c-1.71,1.07-2.9.71-4-1.19C188.05,45.09,187.91,44.81,187.7,44.45Z"/></g></g></g></svg>