<svg xmlns="http://www.w3.org/2000/svg" viewBox="0 0 207.99 190.29"><defs><style>.cls-1{fill:none;stroke:#000;stroke-miterlimit:10;stroke-width:2px;}</style></defs><title>Penny_will_Call</title><g id="Layer_2" data-name="Layer 2"><g id="Layer_1-2" data-name="Layer 1"><g id="Shape_7" data-name="Shape 7"><path class="cls-1 ZuqQdAhF_0" d="M162.39,160.47a2.69,2.69,0,0,1-1.91,3.18,5,5,0,0,1-4-.76c-.77-.46-1.55-1.22-1.42-2.11s1.74-1.17,1.82-.27a2,2,0,0,0,4,.45,8.61,8.61,0,0,0-4-2.88,8.69,8.69,0,0,1-3.57-3,7.78,7.78,0,0,0-3.65-2.89c-1.52-.41-3.49.49-3.58,2.06,1.26,2.35,5.27,1.47,6.89,3.58,1.39,1.8-.06,4.59-2.12,5.56a4.51,4.51,0,0,1-3.72.2,2.84,2.84,0,0,1-1.68-3.12,6.29,6.29,0,0,0,3.11,1.67,3,3,0,0,0,3.07-1.35,2,2,0,0,0-1.25-2.8,11.05,11.05,0,0,1-3.74-1,3.75,3.75,0,0,1-2.13-3c0-1.93,2-3.38,4-3.38s3.71,1,5.35,2a5.91,5.91,0,0,1,7.94-1.89c.78.5,1.33,1.87.45,2.17a7.36,7.36,0,0,0-3.51-1.47,3.44,3.44,0,0,0-3.3,1.55,2.28,2.28,0,0,0,1.06,3.2,13.17,13.17,0,0,1,4.87,2.86A3.61,3.61,0,0,1,162.39,160.47Z"></path><path class="cls-1 ZuqQdAhF_1" d="M179.59,156.7a4.46,4.46,0,0,1-.48,2.73,3.38,3.38,0,0,1-3.93,1,9.89,9.89,0,0,1-3.48-2.59c-.66-.66-1.68.37-1.89,1.28s-.51,2.13-1.45,2.13a17.48,17.48,0,0,1-3.21-11.15,8,8,0,0,1,2.36,6,3.08,3.08,0,0,0,.12,1.46c.21.45.83.74,1.21.42-.48-1.27,1.25-2.42,2.56-2.09s2.24,1.46,3.26,2.35c.75.64,1.88,1.18,2.67.59a2.19,2.19,0,0,0,.69-1.53,9.12,9.12,0,0,0-.79-5,5.88,5.88,0,0,1-.74-2,1.42,1.42,0,0,1,1.07-1.58A21.68,21.68,0,0,1,179.59,156.7Z"></path><path class="cls-1 ZuqQdAhF_2" d="M33.73,124.08c-2.76,2.55-3.86,6.41-4.57,10.1a77,77,0,0,0-.67,24.8,252.9,252.9,0,0,0,47.1-40.05c1.44,1.64-.31,4.09-2,5.53q-35.4,30.73-73,58.86l25.74-22.74a95.76,95.76,0,0,1,.23-23.65c.62-4.62,1.7-9.44,4.84-12.88,4.22-4.63,11-5.62,17.23-6.34l22-2.55a41.44,41.44,0,0,1-.06-19c.82-3.54,2.12-7,2.62-10.59.55-3.91.15-7.88,0-11.83A95.3,95.3,0,0,1,74,58.22c.3-2.42.74-4.94,2.21-6.9s4.25-3.13,6.43-2c-1.08-9.57-2.12-19.57,1.32-28.57S96.83,4.24,106.2,6.44c4.2,1,8.31-1.5,12.3-3.12C130.18-1.4,144.12,1.39,154.18,9s16.44,19.35,19.07,31.66,1.76,25.14-.64,37.5c-2.23,11.43-5.78,22.86-4.86,34.47.19,2.38,1.5,5.46,3.83,5a29.63,29.63,0,0,1,35,34c-1.26-6.65-2.55-13.42-5.72-19.41s-8.55-11.18-15.21-12.41c-5.91-1.09-12.37.94-17.82-1.59-1.93-.89-3.59-2.31-5.55-3.11s-4.53-.8-5.9.82l-40.45,47.9c-.44.52-1,1.09-1.68,1a2,2,0,0,1-1.15-.93l-12.51-17.11c-2.16,1.24-2.75,4.13-2.43,6.6s1.32,4.83,1.44,7.31c.15,3-1,5.86-2.05,8.64L91.15,185.6c-.8,2-2.73,4.53-4.62,3.42-1.56-.91-1.09-3.28-.29-4.9,3.65-7.44,10-14.1,10.11-22.39,0-3.43-1.06-6.81-.94-10.24.11-3.13,1.23-6.17,1.3-9.31s-1.41-6.71-4.45-7.49c-4.07-1-7.31,3.32-9.25,7l-17.88,34.4A125.78,125.78,0,0,1,94,126.76c3.05-3.21.47-8.33-.38-12.68-1.6-8.16,5.05-17,13.34-17.64a7.26,7.26,0,0,0-2.09-5.35A15.09,15.09,0,0,1,95,96.6c2.16-1,4.44-2.06,5.74-4.05s1.05-5.17-1.09-6.2A13.44,13.44,0,0,1,92,88.11a18.2,18.2,0,0,0,7.77-4.93l-9.6,2.17a16,16,0,0,1,7.15-3.68c.57-2.73-3-4.8-5.66-4s-4.44,3.24-6.08,5.49S82,87.78,79.25,88.25l2.88-4.87A17.66,17.66,0,0,1,81.21,61c-2.23-1.28-5.15.73-5.91,3.18s-.12,5.09.22,7.64c2.08,16-8.31,32.81-2.08,47.65-9.43-3-19.62-1.2-29.35.61-3.7.69-7.61,1.48-10.37,4m123.91-69.5c-.59-7.64-.2-16.2-5.35-21.88-3.08-3.4-7.6-5-11.92-6.56l-9.87-3.47c-3.39-1.19-7.31-2.35-10.41-.53a30.07,30.07,0,0,1-14.35,4.09c-2.74.07-3.83,3.48-4.52,6.13A32.31,32.31,0,0,1,90.84,48.8c-2.42,2-2.69,5.79-1.64,8.77s3.13,5.47,4.88,8.11a9.26,9.26,0,0,1,1.86,4.63,3.73,3.73,0,0,1-2.6,3.86,22.3,22.3,0,0,1,8.53,11.19,7,7,0,0,0,1.72,3.31c1,.81,2.78.7,3.16-.5l2.06,8.23c3.9-1.61,7.42,3,11.4,4.35,4.23,1.48,8.79-.81,12.59-3.19,4.78-3,9.46-6.31,13.06-10.66A64.54,64.54,0,0,0,153,75.37l7.3-14c.4-.76.62-2-.2-2.23-1.78-.52-2.31-2.75-2.45-4.6M97.73,8.37C93,9.31,89.11,13.08,87,17.44s-2.78,9.3-3.11,14.15a121.31,121.31,0,0,0,0,15.75c.11,1.72.73,3.93,2.45,4C92.67,45.05,99.44,38,100.22,29c.22-2.55,2.95-4.15,5.48-4.54s5.17,0,7.62-.76c2.85-.85,5.15-3.11,8.06-3.72a15.13,15.13,0,0,1,6.38.51c6.16,1.39,12.4,2.82,18,5.79S156.23,34,158,40.1s.28,13.2,3.8,18.48c1.31,2,.13,4.58-1.06,6.62L148.45,86.32A8.59,8.59,0,0,0,147,90a8.59,8.59,0,0,0,1,3.82c1.92,4.44,3.87,8.92,6.75,12.81s6.82,7.18,11.51,8.36a69.44,69.44,0,0,1,3.39-30.17A75.8,75.8,0,0,0,168,31.44c-4.25-10.21-11.09-19.71-20.75-25.08s-22.42-5.9-31.45.48c-5,3.55-12,.32-18.07,1.52m46.53,82a36.29,36.29,0,0,1-17.17,11.67,15.72,15.72,0,0,0-4.23,1.7c-3.38,2.3-3.89,7.17-6.72,10.12-2.32,2.41-5.82,3.17-8.69,4.89s-5.19,5.56-3.25,8.29a12.18,12.18,0,0,1-1.74,15.55c-1.29,1.16-.31,3.27.72,4.67l10,13.68a2.14,2.14,0,0,0,1.29,1c.7.09,1.28-.5,1.73-1l39.67-46.83a2.73,2.73,0,0,0,.85-1.69c0-1.86-3.11-1.51-4.26,0s-2.12,3.6-4,3.57a14.67,14.67,0,0,1,4.7-6.45c1.21-.95-.75-2.91-2.17-2.31s-2,2.22-2.87,3.5-2.66,2.36-3.83,1.37L150,106a2.23,2.23,0,0,0,.46-3.17l-6.16-12.38M96,108.11a7,7,0,0,0,1.88,3.52,20.36,20.36,0,0,0,4.94,4.12c-.16-1.54-.14-3.45,1.22-4.19a3.85,3.85,0,0,1,3.26.3c1,.41,2.08,1.17,1.84,2.19-.34.5-1-.11-1.46-.55a2.23,2.23,0,0,0-3-.22,1.8,1.8,0,0,0,.21,2.79,2.16,2.16,0,0,1,3.41-.74c.62.65,1.7.44,2.53.09a12.56,12.56,0,0,0,6.18-5.67,2.71,2.71,0,0,0,.42-1.66,3.06,3.06,0,0,0-1.55-1.8l-9.4-6.31a3.25,3.25,0,0,0-1.05-.53c-1.33-.31-2.43,1.09-2.86,2.39a10,10,0,0,0-.51,3.3.8.8,0,0,1-1.21-.1,1.9,1.9,0,0,1-.28-1.34,6.86,6.86,0,0,1,1.25-3.43c-1.18-.36-2.28.69-3.07,1.64-1.51,1.8-3.11,3.9-2.79,6.22M75.66,59.81c1.13.17,2-1,3.11-1.31,1.81-.55,3.59,1.41,3.59,3.29s-1.17,3.55-2.35,5c-1.63,2-.71,5.3,1.38,6.85S86.3,75.38,88.87,75c1-.15,2.27-1,1.7-1.85a61.29,61.29,0,0,1-9-20.76c-.35-1.53-2.65-1.79-3.83-.76s-1.5,2.71-1.68,4.26q-.24,2-.36,3.93m26.22,72.68c-.62-2.41-2.1-4.58-2.37-7.05a7.44,7.44,0,0,1,1.52-5.3,5.38,5.38,0,0,0,1.17-1.8c.18-.7-.21-1.61-.94-1.63-1.52,0-2.77-1.21-3.66-2.44a15.27,15.27,0,0,0-2.83-3.54c-.44,4,2.69,7.49,3,11.46a8.41,8.41,0,0,1-3.56,7.42c-.71.48-1.57,1-1.67,1.83a2.58,2.58,0,0,0,.71,1.73l5.38,7.21a1.66,1.66,0,0,0,.73.65c.67.23,1.29-.45,1.63-1.08a10.48,10.48,0,0,0,.89-7.46M83.34,51.75a3.59,3.59,0,0,0,.16,2.79A87.78,87.78,0,0,0,90.58,70c.58,1,1.57,2.12,2.64,1.71a1.71,1.71,0,0,0,.86-1.93,5.22,5.22,0,0,0-1.07-2,26.78,26.78,0,0,1-4.17-7.56,24,24,0,0,0-1.61-4.75,11.67,11.67,0,0,0-3.89-3.73m25.73,47.6a82.64,82.64,0,0,0,8.8,6.37,1.72,1.72,0,0,0,.7.3c.69.08,1.19-.66,1.38-1.33a3.31,3.31,0,0,1,.86-1.86l-9.64-5.19a5.3,5.3,0,0,0-2.09,1.71M89.75,76a11.94,11.94,0,0,1-9.49-.77,7.76,7.76,0,0,0,1.91,5.25,2.41,2.41,0,0,0,2.16,1,2.74,2.74,0,0,0,1.27-.86q2.19-2.21,4.15-4.64m11.51,47c-1.13,3.49,1.51,7,2.21,10.59a20.42,20.42,0,0,1,.17,4.79c1.72-1.26,1.25-3.9.61-5.93l-3-9.46m2.92-5.05a1.82,1.82,0,0,0-.7,1.59,8.32,8.32,0,0,0,3.91-3.34,3.29,3.29,0,0,0-3.26,1.71m-5.76,40.2a6.92,6.92,0,0,0-1.69-4.83,6.94,6.94,0,0,0,1.69,4.83m-1.45-8.39c-.77-.08-.85,1.12-.51,1.82a1.34,1.34,0,0,0,.43-1.73m1.62,12.23c-.23.31.42.63.69.35a1.13,1.13,0,0,0-.59-1.29l-.19.92m10.24-63.78a.57.57,0,0,0-.92-.2c.09.38.24.81.61.91s.68-.59.29-.65Z"></path></g></g></g><style>.ZuqQdAhF_0{stroke-dasharray:122 124;stroke-dashoffset:123;animation:ZuqQdAhF_draw 1500ms ease-in-out 0ms forwards;}.ZuqQdAhF_1{stroke-dasharray:69 71;stroke-dashoffset:70;animation:ZuqQdAhF_draw 1500ms ease-in-out 0ms forwards;}.ZuqQdAhF_2{stroke-dasharray:2566 2568;stroke-dashoffset:2567;animation:ZuqQdAhF_draw 1500ms ease-in-out 0ms forwards;}@keyframes ZuqQdAhF_draw{100%{stroke-dashoffset:0;}}@keyframes ZuqQdAhF_fade{0%{stroke-opacity:1;}92.98245614035088%{stroke-opacity:1;}100%{stroke-opacity:0;}}</style></svg>