<svg xmlns="http://www.w3.org/2000/svg" viewBox="0 0 175.24 188.18"><defs><style>.cls-1{fill:none;stroke:#000;stroke-miterlimit:10;stroke-width:2px;}</style></defs><title>Send_CV</title><g id="Layer_2" data-name="Layer 2"><g id="Layer_1-2" data-name="Layer 1"><path class="cls-1 iWBEfpuR_0" d="M53,54.41c.24.7-.94,1.16-1.49.66A2.58,2.58,0,0,1,51,53l.25-6.76a13.42,13.42,0,0,0-.53-5.36,4.57,4.57,0,0,0-4-3.13c-1.19,0-2.3.68-3.48.77s-2.64-.86-2.28-2a2.43,2.43,0,0,0-1.61-2.75,7.06,7.06,0,0,0-3.47-.15c-1.15.14-2.66.72-2.48,1.86.27,1.75-1.75,3-3.52,3.14s-3.6-.38-5.29.16a6.05,6.05,0,0,0-3.67,4.28,17.87,17.87,0,0,0-.29,5.84L20.89,54a2.26,2.26,0,0,0,.67,1.79,2.23,2.23,0,0,0,1.24.29l30.38,1c-.09,1-1.44,1.27-2.46,1.26q-14.9-.23-29.78-1a2,2,0,0,1-1.07-.26,2.08,2.08,0,0,1-.6-1.76l-.12-8.44c0-3.44.39-7.67,3.55-9a10.42,10.42,0,0,1,4.22-.45,6.07,6.07,0,0,0,4-1.06c1.08-.93,1.34-2.89.16-3.69A9.78,9.78,0,0,1,28.29,20a9.78,9.78,0,0,1,12.42-3.59A9.78,9.78,0,0,1,45,28.6c-1.2,2.74-3.75,5.53-2.52,8.25a11.84,11.84,0,0,1,4.08-.5,7,7,0,0,1,3.26.88c2.61,1.56,3.23,5.08,3,8.12s-.89,6.18.1,9.05M41.73,18.9a5.83,5.83,0,0,0-2-.94,15.12,15.12,0,0,0-4.08-.59,7.2,7.2,0,0,0-4,1,6.39,6.39,0,0,0-2,2.39c-1.88,3.55-1,8.64,2.49,10.6,2.07,1.15,4.59,1.07,7,1a6.06,6.06,0,0,0,5.21-4.48,9.61,9.61,0,0,0-1-7.07A5.72,5.72,0,0,0,41.73,18.9Z"></path><path class="cls-1 iWBEfpuR_1" d="M112.27,82.27c-.14,1.23-1.76,1.54-3,1.55L23.82,84c.3-1.18,1.85-1.42,3.07-1.42Z"></path><path class="cls-1 iWBEfpuR_2" d="M168.4,178.67c1,0,2.09-.07,2.57-.9a2.69,2.69,0,0,0,.23-1.34l.18-60.94-44.3,27.87c-1.12.7-2.51,1.43-3.69.83q-23.31-11.7-45.69-25.12l-1.34,62c-1.72-6.45-1.54-13.24-1.34-19.91l1.2-41a4,4,0,0,1,.52-2.28c.66-.92,1.93-1.11,3.06-1.22Q108,114,136.32,113.86L133.89,27a63.82,63.82,0,0,0-21.91.31c-1.73.33-2.48-2.09-2.49-3.85l-.12-19.56L9.79,2.36c-.95,0-2.23.29-2.21,1.24,1.51,51-9.51,102.29-3,152.92q34.86-1.56,69.78-.43c0,.87-1.17,1.14-2,1.15l-69.24.38C-3.73,105.77,8.48,53.24,6,1L108.95,2.4c2.86,0,5.22,2.14,7.3,4.11l17.05,16.24c1.18,1.12,2.44,2.43,2.44,4.06q0,43.68,2.56,87.3l32.92-1.4c1.18-.05,2.83.35,2.71,1.53a286.57,286.57,0,0,0,.19,62.41c.21,1.9.33,4.12-1.11,5.38-.27-1.56-2.32-1.9-3.9-1.88l-91.8,1.28q45.46-3.4,91.11-2.75m-44.7-36.36c.39.18.81.59,1.18.36l46-28.45-79.49,2.86-12.72.46a335.24,335.24,0,0,0,45,24.78M113.37,25.69a50,50,0,0,1,11.94-.89l8.12,0L112.75,5.23c-.4-.38-1.06-.76-1.43-.35a1,1,0,0,0-.18.7L111,22.06a5.58,5.58,0,0,0,.35,2.47A1.91,1.91,0,0,0,113.37,25.69Z"></path><path class="cls-1 iWBEfpuR_3" d="M109.1,96.63c1.21,0,2.82.32,2.92,1.53l-87,.4c-.41-.83.9-1.4,1.82-1.4Z"></path><path class="cls-1 iWBEfpuR_4" d="M114.62,70.92c-21.49,2.66-43.25.84-64.9.5q-13.13-.21-26.26.31c.51-1.42,2.38-1.64,3.88-1.63Z"></path><path class="cls-1 iWBEfpuR_5" d="M60,53.31c0-1,1.33-1.4,2.36-1.43q28.73-.89,57.47-1.46c-.86,1.33-2.7,1.5-4.27,1.54Z"></path><path class="cls-1 iWBEfpuR_6" d="M25,134.14A273.79,273.79,0,0,1,65.15,134c.83.06,1.83.25,2.11,1-1,.93-2.58.87-4,.77a251.24,251.24,0,0,0-40.49.35,1.19,1.19,0,0,1,.42-1.56A3.42,3.42,0,0,1,25,134.14Z"></path><path class="cls-1 iWBEfpuR_7" d="M65.3,32.15c-1.18.06-2.68-.07-3.1-1.18q7.84-.58,15.7-.85c.48.76-.77,1.41-1.68,1.46Z"></path><path class="cls-1 iWBEfpuR_8" d="M68.62,40.08l-7.91.31c-.87,0-2.13-.44-1.79-1.24a77,77,0,0,1,14.46-.37c-1.26,1.11-3.08,1.23-4.76,1.3Z"></path><path class="cls-1 iWBEfpuR_9" d="M22.92,119.31c-.64-.67.71-1.43,1.64-1.38l42.31,2.14c1.22.06,2.61.22,3.3,1.22a5.73,5.73,0,0,1-3.68.61Z"></path><path class="cls-1 iWBEfpuR_10" d="M96.34,30,88,30.43a2.57,2.57,0,0,1-1.43-.2A.89.89,0,0,1,86.23,29l9.7-.41c.67,0,1.65.32,1.4.95C97.19,29.89,96.72,30,96.34,30Z"></path><path class="cls-1 iWBEfpuR_11" d="M82.64,38.29l10.17-1.15c.42,0,1,0,1.14.35.27.58-.59,1-1.23,1.09l-8.87,1a1.83,1.83,0,0,1-1.36-.2C82.12,39.09,82.17,38.34,82.64,38.29Z"></path></g></g><style>.iWBEfpuR_0{stroke-dasharray:295 297;stroke-dashoffset:296;animation:iWBEfpuR_draw 1500ms ease-in-out 0ms forwards;}.iWBEfpuR_1{stroke-dasharray:179 181;stroke-dashoffset:180;animation:iWBEfpuR_draw 1500ms ease-in-out 0ms forwards;}.iWBEfpuR_2{stroke-dasharray:1839 1841;stroke-dashoffset:1840;animation:iWBEfpuR_draw 1500ms ease-in-out 0ms forwards;}.iWBEfpuR_3{stroke-dasharray:176 178;stroke-dashoffset:177;animation:iWBEfpuR_draw 1500ms ease-in-out 0ms forwards;}.iWBEfpuR_4{stroke-dasharray:184 186;stroke-dashoffset:185;animation:iWBEfpuR_draw 1500ms ease-in-out 0ms forwards;}.iWBEfpuR_5{stroke-dasharray:121 123;stroke-dashoffset:122;animation:iWBEfpuR_draw 1500ms ease-in-out 0ms forwards;}.iWBEfpuR_6{stroke-dasharray:92 94;stroke-dashoffset:93;animation:iWBEfpuR_draw 1500ms ease-in-out 0ms forwards;}.iWBEfpuR_7{stroke-dasharray:33 35;stroke-dashoffset:34;animation:iWBEfpuR_draw 1500ms ease-in-out 0ms forwards;}.iWBEfpuR_8{stroke-dasharray:30 32;stroke-dashoffset:31;animation:iWBEfpuR_draw 1500ms ease-in-out 0ms forwards;}.iWBEfpuR_9{stroke-dasharray:97 99;stroke-dashoffset:98;animation:iWBEfpuR_draw 1500ms ease-in-out 0ms forwards;}.iWBEfpuR_10{stroke-dasharray:25 27;stroke-dashoffset:26;animation:iWBEfpuR_draw 1500ms ease-in-out 0ms forwards;}.iWBEfpuR_11{stroke-dasharray:26 28;stroke-dashoffset:27;animation:iWBEfpuR_draw 1500ms ease-in-out 0ms forwards;}@keyframes iWBEfpuR_draw{100%{stroke-dashoffset:0;}}@keyframes iWBEfpuR_fade{0%{stroke-opacity:1;}92.98245614035088%{stroke-opacity:1;}100%{stroke-opacity:0;}}</style></svg>