<svg xmlns="http://www.w3.org/2000/svg" viewBox="0 0 169.31 162.8"><defs><style>.cls-1{fill:none;stroke:#000;stroke-miterlimit:10;stroke-width:2px;}</style></defs><title>Talk_to_Adam</title><g id="Layer_2" data-name="Layer 2"><g id="Layer_1-2" data-name="Layer 1"><g id="Shape_6" data-name="Shape 6"><path class="cls-1 uTYgjwmG_0" d="M96.77,94c-.94-1.22,0-3.16,1.45-3.71a6.19,6.19,0,0,1,4.48.47,22.92,22.92,0,0,1,13.86,21c1.85-2.39,3.83-4.88,6.62-6s6.63-.37,7.8,2.41c.69,1.63,3.85.56,4.53,2.2.81,2,3,2.84,4.77,4.08s3.05,3.88,1.53,5.37c-.91.88-.51,2.46.28,3.44a29.73,29.73,0,0,1,2.59,2.76c.67,1.07.6,2.8-.57,3.28A77,77,0,0,0,115.29,150a3.07,3.07,0,0,1-3.43.56,9,9,0,0,1-2.9-2.28L94,132.72a14.27,14.27,0,0,0,7.7-14.34c-.21-1.57-.68-3.21-.08-4.68.73-1.79,2.83-2.72,3.61-4.49,1-2.32-.6-4.89-2.14-6.9L96.77,94m5.59-2.14a4.47,4.47,0,0,0-3.16-.46c-1,.35-1.74,1.73-1.05,2.58l5,6.23c2.42,3,4.93,7.15,2.81,10.35-1.32,2-4.34,3.55-3.56,5.82a13.38,13.38,0,0,1-5.37,15.24c-1.17.73-.26,2.53.72,3.51l11.44,11.54a8.68,8.68,0,0,0,2.82,2.15,3,3,0,0,0,3.29-.58A69,69,0,0,1,141,129.53c1.2-.5,2.65-1.36,2.44-2.64a12.14,12.14,0,0,0-5.36-5.13c2-.74,3.49-3.12,2.78-5.18s-3.84-2.9-5.22-1.22c-.24.29-.43.64-.78.78s-.85-.15-.73-.5a3,3,0,1,0-4.76-3c-.26.29-.78-.11-.74-.5a2.33,2.33,0,0,1,.57-1c1.29-1.88-.8-4.6-3.08-4.68s-4.26,1.5-5.81,3.17-3,3.57-5.1,4.47A22.46,22.46,0,0,0,102.35,91.9Z"></path><path class="cls-1 uTYgjwmG_1" d="M64.83,89a25.41,25.41,0,0,0-2.41-22.62c-2.39-3.65-.16-9.88-4-12C54.23,52,51.51,47.59,50.18,43s-1.42-9.53-1.51-14.36a20.67,20.67,0,0,1,.48-6C50.16,19,53,16.25,56,14a50.14,50.14,0,0,1,16.9-8.18,30,30,0,0,1-6.87-3.45A16.59,16.59,0,0,1,75.93,7a36.35,36.35,0,0,0-21.6,9.94,14.7,14.7,0,0,0-3.75,5.19,18.45,18.45,0,0,0-.68,7.33c.2,4.79.41,9.65,1.9,14.21s4.43,8.86,8.78,10.88L59.34,40.84c-.44-4.88-.86-9.94.79-14.55,3.28-9.19,15.5-13.87,24.08-9.22,7,3.78,15.52,2.15,23.26.43a8.73,8.73,0,0,0-2.94-10.74C102.4,5.34,99.75,5,97.21,4.65L68.85,1A147.69,147.69,0,0,1,97.67,3.62c4.17.8,8.71,2,11,5.58,3.56-3.4,9.79-2.74,13.37.64s4.78,8.71,4.22,13.6-2.64,9.46-4.79,13.89a8.11,8.11,0,0,0-1.2,4.51,34.77,34.77,0,0,1-7.69,26.73c-3.24,3.86-1.6,9.66.18,14.37a3.22,3.22,0,0,0,3.73,2.71l19.93.34c9.15.16,19.53.87,25.34,7.94,3.62,4.4,4.61,10.36,5.23,16a212.3,212.3,0,0,1,.74,38.21L166,112.86c-.31-6.1-.76-12.61-4.46-17.46-5.58-7.33-16.14-8.1-25.35-8.23l-20.93-.29a2.76,2.76,0,0,1-3.36-2.59l-3-12C104.53,78,99.67,84.1,92.74,86.13,83.43,88.85,73.29,83,68.18,74.72a59.75,59.75,0,0,0-1.65,15.72q-19.94.15-39.85,1.15c-3.65.18-7.4.41-10.7,2-4.37,2.08-7.42,6.3-9.11,10.83s-2.2,9.4-2.69,14.21L1,149.35a206.1,206.1,0,0,1,2.3-34.23c1.28-8.43,3.77-17.78,11.19-22,4.2-2.38,9.24-2.61,14.07-2.79L64.83,89m45.92-68.13a6.86,6.86,0,0,0-3.08-1.26,22.69,22.69,0,0,0-12.18.92C90.36,22.41,85.22,18.15,80,16.69a15.89,15.89,0,0,0-18,8.27c-2.34,5-1.87,10.74-1.35,16.21l1.85,19.36A23.57,23.57,0,0,0,63,64.4a21.55,21.55,0,0,0,3.55,6.7c2.88,4.07,6.07,8,10.17,10.85S86,86.41,90.87,85.42c5.84-1.18,10.32-5.74,14.41-10.08,4.95-5.26,10.08-10.85,11.8-17.86a33.08,33.08,0,0,0,.66-9.38,76.94,76.94,0,0,0-5-23.92,7.69,7.69,0,0,0-2-3.32m-1.78-7-.23,3c0,.54,0,1.21.47,1.45,4.36,2.21,5.88,7.57,7,12.34l2.41,10.71,2.51-5.76a50.45,50.45,0,0,0,3.79-10.93,17,17,0,0,0-1.43-11.27c-1.89-3.37-5.64-5.84-9.49-5.49a5.35,5.35,0,0,0-4,2,7.74,7.74,0,0,0-1,3.89m9.84,29.47.1,8.78c0,.27.32.64.44.39a11.65,11.65,0,0,0,.7-7.67C119.88,44.21,119.5,43.43,118.81,43.38Z"></path><path class="cls-1 uTYgjwmG_2" d="M107.44,161.86q-11.19-10-21.52-20.81A3.08,3.08,0,0,1,84.8,139a2.77,2.77,0,0,1,.54-1.34,14.73,14.73,0,0,1,5.06-4.78,106.15,106.15,0,0,0,20.93,21.47,2.76,2.76,0,0,1,1,1.14.94.94,0,0,1-.54,1.25c-2.29.45-2.15,4.38-4.36,5.17m2.39-5.33c.31-.57.55-1.38,0-1.78a105.59,105.59,0,0,1-18.78-19.15,1.79,1.79,0,0,0-2.23-.3,5.22,5.22,0,0,0-1.67,1.76,2.8,2.8,0,0,0,.65,4.39q9.33,9.65,19.4,18.55A16.19,16.19,0,0,0,109.82,156.53Z"></path><path class="cls-1 uTYgjwmG_3" d="M91.25,141.27c-.31.31-.8.56-1.18.33a3.41,3.41,0,0,1-1.61-2,2.06,2.06,0,0,1,.95-2.28A2,2,0,0,1,92,138.38a2.75,2.75,0,0,1-.74,2.88m-1-.89a1.27,1.27,0,0,0,.26-2.3,1.43,1.43,0,0,0-.29,2.23Z"></path></g></g></g><style>.uTYgjwmG_0{stroke-dasharray:392 394;stroke-dashoffset:393;animation:uTYgjwmG_draw 1500ms ease-in-out 0ms forwards;}.uTYgjwmG_1{stroke-dasharray:1275 1277;stroke-dashoffset:1276;animation:uTYgjwmG_draw 1500ms ease-in-out 0ms forwards;}.uTYgjwmG_2{stroke-dasharray:152 154;stroke-dashoffset:153;animation:uTYgjwmG_draw 1500ms ease-in-out 0ms forwards;}.uTYgjwmG_3{stroke-dasharray:19 21;stroke-dashoffset:20;animation:uTYgjwmG_draw 1500ms ease-in-out 0ms forwards;}@keyframes uTYgjwmG_draw{100%{stroke-dashoffset:0;}}@keyframes uTYgjwmG_fade{0%{stroke-opacity:1;}92.98245614035088%{stroke-opacity:1;}100%{stroke-opacity:0;}}</style></svg>