<?xml version="1.0" encoding="utf-8"?>
<!-- Generator: Adobe Illustrator 21.0.2, SVG Export Plug-In . SVG Version: 6.00 Build 0)  -->
<svg version="1.1" id="Layer_1" xmlns="http://www.w3.org/2000/svg" xmlns:xlink="http://www.w3.org/1999/xlink" x="0px" y="0px"
	 viewBox="0 0 241 206" style="enable-background:new 0 0 241 206;" xml:space="preserve">
<style type="text/css">
	.st0{fill:none;stroke:#000000;stroke-width:2;stroke-miterlimit:10;}
	.st1{fill:none;stroke:#000000;stroke-width:1.5;stroke-miterlimit:10;}
</style>
<g id="Shape_6">
	<path class="st0" d="M655.8-30.6c-0.9-1.2,0-3.2,1.5-3.7c1.4-0.6,3.1-0.1,4.5,0.5c8.2,3.4,14,12.1,13.9,21c1.9-2.4,3.8-4.9,6.6-6
		s6.6-0.4,7.8,2.4c0.7,1.6,3.9,0.6,4.5,2.2c0.8,2,3,2.8,4.8,4.1s3.1,3.9,1.5,5.4c-0.9,0.9-0.5,2.5,0.3,3.4s1.9,1.7,2.6,2.8
		c0.7,1.1,0.6,2.8-0.6,3.3c-11,4.5-21,11.6-28.8,20.6c-0.8,0.9-2.3,1-3.4,0.6c-1.1-0.5-2-1.4-2.9-2.3c-5-5.2-10-10.4-15-15.5
		c5.2-2.5,8.5-8.6,7.7-14.3c-0.2-1.6-0.7-3.2-0.1-4.7c0.7-1.8,2.8-2.7,3.6-4.5c1-2.3-0.6-4.9-2.1-6.9
		C660-25.1,657.9-27.8,655.8-30.6 M661.4-32.7c-1-0.4-2.1-0.8-3.2-0.5c-1,0.3-1.7,1.7-1.1,2.6c1.7,2.1,3.4,4.2,5,6.2
		c2.4,3,4.9,7.1,2.8,10.3c-1.3,2-4.3,3.6-3.6,5.8c1.9,5.5-0.4,12.2-5.4,15.2c-1.2,0.7-0.3,2.5,0.7,3.5c3.8,3.8,7.6,7.7,11.4,11.5
		c0.8,0.8,1.7,1.7,2.8,2.2c1.1,0.4,2.5,0.3,3.3-0.6c7-8.1,15.8-14.6,25.7-18.7c1.2-0.5,2.7-1.4,2.4-2.6c-1.2-2.2-3.1-4-5.4-5.1
		c2-0.7,3.5-3.1,2.8-5.2c-0.7-2.1-3.8-2.9-5.2-1.2c-0.2,0.3-0.4,0.6-0.8,0.8s-0.9-0.1-0.7-0.5c1.4-1.2,1.3-3.8-0.3-4.8s-4,0-4.5,1.8
		c-0.3,0.3-0.8-0.1-0.7-0.5c0-0.4,0.3-0.7,0.6-1c1.3-1.9-0.8-4.6-3.1-4.7c-2.3-0.1-4.3,1.5-5.8,3.2c-1.6,1.7-3,3.6-5.1,4.5
		C675.2-19.6,669.7-29,661.4-32.7z"/>
	<path class="st0" d="M623.9-35.6c2.8-7.3,1.9-16-2.4-22.6c-2.4-3.7-0.2-9.9-4-12c-4.2-2.3-6.9-6.8-8.3-11.4
		c-1.3-4.6-1.4-9.5-1.5-14.4c0-2-0.1-4.1,0.5-6c1-3.6,3.9-6.4,6.9-8.6c5.1-3.8,10.8-6.6,16.9-8.2c-2.4-0.8-4.7-2-6.9-3.5
		c3.7,0.4,7.2,2,9.9,4.6c-8,0.8-15.8,4.3-21.6,9.9c-1.5,1.5-3,3.2-3.8,5.2c-0.9,2.3-0.8,4.9-0.7,7.3c0.2,4.8,0.4,9.7,1.9,14.2
		c1.5,4.6,4.4,8.9,8.8,10.9c-0.4-4.6-0.8-9.1-1.2-13.7c-0.4-4.9-0.9-9.9,0.8-14.5c3.3-9.2,15.5-13.9,24.1-9.2
		c7,3.8,15.5,2.2,23.3,0.4c1.8-3.6,0.4-8.5-2.9-10.7c-2.1-1.4-4.8-1.8-7.3-2.1c-9.5-1.2-18.9-2.4-28.4-3.6
		c9.7-0.1,19.3,0.8,28.8,2.6c4.2,0.8,8.7,2,11,5.6c3.6-3.4,9.8-2.7,13.4,0.6c3.6,3.4,4.8,8.7,4.2,13.6s-2.6,9.5-4.8,13.9
		c-0.7,1.4-1.4,2.9-1.2,4.5c1.3,9.5-1.6,19.4-7.7,26.7c-3.2,3.9-1.6,9.7,0.2,14.4c0.3,0.8,0.7,1.8,1.5,2.2c0.7,0.4,1.5,0.4,2.3,0.5
		c6.6,0.1,13.3,0.2,19.9,0.3c9.2,0.2,19.5,0.9,25.3,7.9c3.6,4.4,4.6,10.4,5.2,16c1.4,12.7,1.6,25.5,0.7,38.2
		c-0.6-11.8-1.2-23.5-1.8-35.3c-0.3-6.1-0.8-12.6-4.5-17.5c-5.6-7.3-16.1-8.1-25.4-8.2c-7-0.1-14-0.2-20.9-0.3
		c-0.8,0-1.8-0.1-2.4-0.6c-0.6-0.5-0.8-1.3-1-2c-1-4-2-8-3-12c-4.4,5.7-9.2,11.8-16.2,13.9c-9.3,2.7-19.4-3.2-24.6-11.4
		c-1.2,5.1-1.8,10.4-1.7,15.7c-13.3,0.1-26.6,0.5-39.9,1.1c-3.6,0.2-7.4,0.4-10.7,2c-4.4,2.1-7.4,6.3-9.1,10.8
		c-1.7,4.5-2.2,9.4-2.7,14.2c-1,10.2-2.1,20.5-3.1,30.7c-0.2-11.4,0.6-22.9,2.3-34.2c1.3-8.4,3.8-17.8,11.2-22
		c4.2-2.4,9.2-2.6,14.1-2.8C599.7-34.7,611.8-35.2,623.9-35.6 M669.8-103.7c-0.9-0.7-2-1-3.1-1.3c-4-0.8-8.3-0.5-12.2,0.9
		c-5.1,1.9-10.3-2.4-15.5-3.8c-6.9-1.9-15,1.8-18,8.3c-2.3,5-1.9,10.7-1.3,16.2c0.6,6.5,1.2,12.9,1.8,19.4c0.1,1.3,0.2,2.6,0.6,3.9
		c0.7,2.5,2.1,4.6,3.6,6.7c2.9,4.1,6.1,8,10.2,10.8s9.2,4.5,14.1,3.5c5.8-1.2,10.3-5.7,14.4-10.1c4.9-5.3,10.1-10.8,11.8-17.9
		c0.7-3.1,0.8-6.2,0.7-9.4c-0.4-8.2-2.1-16.3-5-23.9C671.3-101.7,670.8-102.9,669.8-103.7 M668-110.7c-0.1,1-0.2,2-0.2,3
		c0,0.5,0,1.2,0.5,1.5c4.4,2.2,5.9,7.6,7,12.3c0.8,3.6,1.6,7.1,2.4,10.7c0.8-1.9,1.7-3.8,2.5-5.8c1.5-3.5,3.1-7.1,3.8-10.9
		c0.7-3.8,0.5-7.9-1.4-11.3c-1.9-3.4-5.6-5.8-9.5-5.5c-1.5,0.1-3.1,0.8-4,2C668.2-113.5,668.1-112.1,668-110.7 M677.8-81.2
		c0,2.9,0.1,5.9,0.1,8.8c0,0.3,0.3,0.6,0.4,0.4c1.1-2.4,1.3-5.1,0.7-7.7C678.9-80.4,678.5-81.2,677.8-81.2z"/>
	<path class="st0" d="M666.5,37.2c-7.5-6.6-14.6-13.6-21.5-20.8c-0.6-0.6-1.2-1.3-1.1-2.1c0-0.5,0.3-0.9,0.5-1.3
		c1.3-2,3-3.6,5.1-4.8c5.9,8.1,13,15.4,20.9,21.5c0.4,0.3,0.8,0.7,1,1.1c0.2,0.5,0,1.1-0.5,1.2C668.5,32.5,668.7,36.5,666.5,37.2
		 M668.8,31.9c0.3-0.6,0.6-1.4,0-1.8c-7-5.5-13.4-12-18.8-19.1c-0.5-0.7-1.5-0.7-2.2-0.3c-0.7,0.4-1.2,1.1-1.7,1.8
		c-0.3,0.5-0.7,1-0.8,1.6c-0.1,1.1,0.7,2,1.4,2.7c6.2,6.4,12.7,12.6,19.4,18.5C667.3,34.4,668.1,33.2,668.8,31.9z"/>
	<path class="st0" d="M650.3,16.6c-0.3,0.3-0.8,0.6-1.2,0.3c-0.8-0.5-1.4-1.2-1.6-2c-0.2-0.9,0.2-1.9,0.9-2.3
		c0.9-0.5,2.2,0.1,2.6,1.1C651.4,14.7,651,15.9,650.3,16.6 M649.3,15.8c1-0.2,1.2-1.9,0.3-2.3C648.8,13.9,648.6,15.1,649.3,15.8
		L649.3,15.8z"/>
</g>
<g id="Shape_5">
	<path class="st0" d="M442.2,310.5c-3.8,4.2-8.3,7.3-12.8,10.5c-2.7,1.9-5.2,3.9-7.9,5.8c-1.4,0.9-3,1.6-4.5,2.3
		c-0.2,0.1-0.8-0.2-0.8-0.3c0-0.4,0.1-0.9,0.3-1.2c1.2-1.6,2.4-3.2,3.5-4.9c1.6-2.3,2.7-5,3.1-7.8c0.6-3.6,0.9-7.3,1.2-10.9
		c0.1-1.8-0.9-2.9-2.5-3.5c-5.4-2-10.9-3.9-16.2-6.2c-5.2-2.3-10.1-5.1-15.1-7.7c-0.6-0.3-1.1-0.8-1.6-1.3c-4.3-4-8.3-8.2-11.1-13.4
		c-1.3-2.5-2.2-5.2-3.1-8c-1.5-4.8-2.7-9.7-4.1-14.5c-0.8-2.6-1.8-5-2.6-7.6c-0.4-1.3-0.8-2.6,0.1-4.2c0.8-1.2,0.9-2.9,1-4.4
		c0.3-3.9,2.1-7.2,3.9-10.5c2.3-4.2,4.8-8.3,8-12c3-3.5,5.8-7.3,9.1-10.5c4.3-4.1,9-7.8,14.3-10.7c3.6-2,7.1-4.3,10.9-6.2
		c4.5-2.2,9.1-4.2,13.8-6c2.7-1,5.7-1.5,8.6-2c2.9-0.4,5.8-0.5,8.7-0.6c2.6-0.1,5.2-0.3,7.8-0.3c4.3,0,8.5,0.9,12.6,2
		c3.5,0.9,7,1.8,10,3.7c3.5,2.1,6.8,4.5,10.2,6.7c3.5,2.3,7,4.5,10.3,7c1.4,1,2.4,2.6,3.4,4c1.9,3,3.6,6.1,5.4,9.2
		c2,3.5,4.2,6.9,6.1,10.5c1.2,2.4,2.2,5,3,7.6c0.8,2.8,1.4,5.7,1.7,8.7c0.5,3.5,1,7,0.8,10.5c-0.2,3.8-0.5,7.5-1.8,11.2
		c-1,2.8-1.9,5.5-3.7,7.8c-2.2,2.9-4.6,5.6-7.7,7.6c-1.6,1.1-2.9,2.5-4.4,3.6c-2.9,2.1-6.2,3.5-9.7,4.4c-3.3,0.8-6.5,1.4-9.8,2
		c-1,0.2-2.1,0.2-3.2,0.3c-2.1,0.1-4.2,0.2-6.4,0.3c-0.9,0.1-2.1-0.1-2.7,0.4c-0.7,0.5-1.1,1.6-1.2,2.5c-0.2,2.5-0.4,5-0.3,7.5
		c0,1.4,0.5,2.8,0.8,4.3c0.1,0.7,0.3,1.4,0.3,2c0,0.4-0.2,0.8-0.3,1.1c-0.3-0.2-0.7-0.4-1-0.6c-0.2-0.1-0.3-0.3-0.4-0.4
		c-0.8-0.5-4.5,0.5-5.1,1.1c-2.1,2-4.2,4-6.3,6c-0.2,0.1-0.4,0.3-0.6,0.3c-2-0.3-3.4,1-5.2,1.4c-1.4,0.4-2.8,0.7-4.3,0.9
		C443.4,308.4,442.8,309.3,442.2,310.5 M464.9,297.3c1.3-0.1,1.4-0.9,1.2-2c-0.3-1.7-0.8-3.4-0.7-5c0.1-2.9,0.5-5.8,0.8-8.7
		c0-0.3,0.5-0.7,0.8-0.7c1.4-0.2,2.9-0.2,4.4-0.3c2-0.1,4.1-0.2,6.1-0.3c1.1-0.1,2.2-0.1,3.3-0.3c2.6-0.5,5.2-1.3,7.8-1.7
		c3.8-0.6,7.2-2.2,10.4-4.2c1.6-1,2.9-2.5,4.4-3.6c5.1-3.8,9.2-8.3,11.3-14.5c1.4-4.2,1.8-8.4,1.9-12.7c0.1-2.9-0.5-5.8-0.8-8.7
		c-0.3-3.7-1.1-7.3-2.3-10.7c-1.8-5.3-4.2-10.2-8.7-13.8c-4.1-3.3-8.8-5.7-13.3-8.4c-2.3-1.4-4.7-2.7-7.6-3
		c-1.8-0.2-3.6-0.8-5.4-1.1c-1.7-0.3-3.6-0.2-5.3-0.7c-3.4-1-6.9-1.1-10.4-1.4c-4.7-0.3-9.3,0.4-13.8,1.2c-2.7,0.5-5.3,1.3-7.8,2.3
		c-4.9,2-8.9,5.4-12.8,8.8c-2.3,2-4.1,4.5-6.1,6.8c-3.7,4.4-6.4,9.3-8,14.9c-1.5,5.3-1.3,10.6,0.1,15.8c1.4,5,3.9,9.6,6.4,14.1
		c2.9,5.3,6,10.4,10.9,14c1.8,1.3,3.8,2.5,5.8,3.5c2,1,4.2,1.3,6.5,1.1c1-0.1,1.5,0.8,1,1.7c-0.8,1.4-0.6,2.9-0.1,4.2
		c0.8,2,1.8,3.9,3,5.7c2.5,3.6,6.1,5.9,10.3,7.1C460.4,297.3,462.4,298,464.9,297.3 M424.9,209.7c0.7-0.8,1.4-1.8,2.3-2.5
		c1.3-1.2,2.7-2.3,4.1-3.3c2.7-1.9,5.3-3.9,8.1-5.5c2.4-1.4,5.1-2,7.9-2.6c3.9-0.8,7.8-1.6,11.9-1.6c2.7,0,5.5,0.1,8.2,0.3
		c1.6,0.1,3.2,0.5,4.9,0.7c2.2,0.3,4.4,0.6,6.5,1c2.6,0.4,5.2,0.7,7.6,1.4c2.2,0.7,4.3,1.8,6.2,3c3.9,2.5,8.4,4.1,11.7,7.6
		c0.2,0.2,0.6,0.2,1,0.2c-0.1-0.3-0.1-0.6-0.2-0.9c-1.1-2.1-2.1-4.4-3.5-6.3c-1.7-2.4-3.4-4.9-5.6-6.7c-4.5-3.6-9.4-6.8-14.2-9.9
		c-2.8-1.8-5.7-3.4-8.7-4.9c-1.9-0.9-3.9-1.4-6-2c-4.1-1.2-8.4-2-12.7-2.1c-2.7,0-5.4,0.1-8.1,0.3c-2.8,0.1-5.6,0.2-8.4,0.6
		c-2.9,0.5-5.9,1.1-8.7,2c-2.5,0.8-4.9,2.1-7.4,3c-6.6,2.6-12.7,6.1-18.6,10c-2.9,1.9-5.6,3.9-8.3,6c-1.9,1.4-3.7,3-5.4,4.6
		c-1.3,1.3-2.5,2.8-3.7,4.2c-1.4,1.7-2.9,3.5-4.2,5.3c-1.7,2.3-3.5,4.6-4.9,7c-1.9,3.2-3.8,6.4-5.2,9.8c-1.1,2.7-1.4,5.8-2,8.7
		c-0.5,2.5-0.4,5,0.6,7.4c1.4,3.5,2.6,7,3.7,10.6c1.1,3.5,1.5,7.2,2.8,10.5c1.4,3.5,3.4,6.8,5.3,10c2.1,3.6,5.2,6.5,8.5,8.9
		c3.8,2.7,8,4.9,12.3,6.9c3.6,1.7,7.4,2.8,11.1,4.2c3.2,1.2,6.3,2.5,9.5,3.6c0.8,0.3,1.5,0.4,1.8,1.3c0.3,1.2,0.8,2.4,0.7,3.6
		c-0.2,2.8-0.8,5.6-1.1,8.5c-0.3,2.9-1.1,5.6-2.4,8.1c-0.8,1.6-2,2.9-3,4.4c-0.2,0.3-0.3,0.6-0.4,1c0.4-0.1,0.8,0,1.1-0.2
		c1.7-1,3.3-2,4.9-3.2c3.1-2.3,6.2-4.6,9.2-6.9c3-2.3,6.1-4.5,8-7.9c0.3-0.6,1.2-1.2,1.9-1.2c2.4,0,4.5-0.9,6.8-1.5
		c3-0.8,5.3-2.7,7.6-4.7c0.6-0.5,1.1-1.2,1.6-1.8c0.5-0.6,0.3-1-0.5-1.1c-4.9-0.8-9.1-3.2-11.9-7.2c-2.2-3.2-4.8-6.5-4.1-10.9
		c0-0.2-0.4-0.6-0.7-0.7c-1.1-0.3-2.1-0.5-3.2-0.6c-4-0.5-6.8-3.1-9.7-5.5c-3.3-2.8-6.2-6.1-8.1-10.2c-0.9-2-2.3-3.2-4.7-2.3
		c-1,0.4-2.1,0.4-3.2,0.6c-2.8,0.4-5.6,0.7-8.3,1.2c-3.5,0.7-7.1,1.5-10.6,2.3c-0.7,0.2-1,0.1-1.4-0.4c0.4-0.3,0.7-0.7,1.2-0.8
		c3.1-0.7,6.3-1.4,9.4-2c2.7-0.5,5.5-1,8.2-1.5c1.8-0.3,3.7-0.6,5.6-0.9c1.4-0.2,1.5-0.5,0.8-1.7c-1.4-2.7-2.9-5.3-4.1-8.1
		c-1.9-4.5-2.9-9.1-2.5-14c0.1-0.6,0.1-1.3,0-1.9c0-0.2-0.5-0.6-0.7-0.5c-2.7,0.3-5.4,0.8-8,1.1c-1.6,0.2-3.3,0.4-5,0.6
		c-3.3,0.4-6.5,0.8-9.8,1.1c-0.3,0-0.7-0.3-1.1-0.4c0.4-0.2,0.7-0.6,1.1-0.7c3.2-0.4,6.5-0.8,9.8-1.2c4-0.5,8-0.9,11.9-1.5
		c0.8-0.1,1.9,0,2.3-1.2c0.6-1.9,1-3.9,1.8-5.8c1.8-4.5,4.2-8.6,7.5-12.2C423,212.1,423.9,210.9,424.9,209.7z"/>
	<path class="st0" d="M464.7,268.6c-0.8,1.2-1.4,1-2.4,0.1c-2.1-1.8-4.4-3.4-6.5-5.2c-1.9-1.6-3.6-3.4-5.4-5.1c-1-1-1.9-2-3-2.9
		c-0.8-0.7-0.6-1.3-0.1-1.9c0.7-0.8,1.5-1.6,2.4-2.3c0.2-0.2,1-0.1,1.1,0.1c1,2.2,3.1,3.1,4.7,4.5c2.1,1.8,4.1,3.7,6.2,5.5
		c0.5,0.5,0.9,0.9,1.5,0.2c2.5-2.8,5-5.6,7.7-8.2c4.2-4,8.6-7.7,12.9-11.6c3.1-2.7,6.3-5.4,9.3-8.2c2.7-2.4,5.3-5,7.8-7.5
		c0.9-0.9,1.6-1,2.5,0c0.7,0.7,1.5,1.3,2.4,1.8c0.8,0.4,0.6,1,0.3,1.3c-1.8,1.9-3.6,3.8-5.6,5.6c-2.3,2.1-4.8,3.9-7,5.9
		c-3.3,3-6.6,6.2-9.9,9.3c-1.8,1.7-3.7,3.5-5.5,5.2c-3.6,3.4-7.3,6.9-10.9,10.3C466.5,266.5,465.6,267.6,464.7,268.6 M490.3,237.8
		c-0.4,0.4-0.9,0.9-1.3,1.3c-3.5,2.9-7,5.7-10.4,8.7c-3,2.6-5.8,5.4-8.6,8.3c-2.1,2.1-3.9,4.4-5.9,6.5c-1.7,1.8-2.2,1.7-3.7-0.4
		c-0.1-0.2-0.3-0.4-0.5-0.5c-2.6-2.3-5.2-4.7-7.9-7c-0.5-0.4-1.1-0.9-1.7-1.1c-0.4-0.1-1.2,0.1-1.4,0.4c-0.2,0.3-0.1,1.1,0.1,1.4
		c0.7,0.9,1.4,1.8,2.2,2.5c3.8,3.2,7.6,6.3,11.4,9.4c0.3,0.3,1.3,0.2,1.7-0.1c0.8-0.6,1.3-1.6,2.1-2.3c1.9-1.9,3.9-3.8,5.9-5.6
		c3-2.9,6.1-5.7,9.1-8.6c3.7-3.5,7.3-7,11-10.4c2.3-2.1,4.8-3.9,7-6c1.8-1.6,3.5-3.4,5.2-5.2c0.3-0.4,0.4-0.9-0.4-0.9
		c-0.4,0-1-0.1-1.3-0.3c-0.8-0.9-1.4-0.6-2.1,0.1c-2.5,2.5-5.1,5-7.7,7.4C492.3,236.3,491.3,237,490.3,237.8z"/>
	<path class="st0" d="M401,208.7c-1.1,0.1-2.1,0.2-3,0.3c-0.3,0-0.7-0.3-1-0.4c0.3-0.2,0.5-0.6,0.8-0.7c0.6-0.2,1.2-0.3,1.7-0.3
		c1.9-0.1,3.9-0.1,5.8-0.3c3.8-0.3,7.6-0.8,11.3-1.1c1-0.1,2,0,3,0c1.1-0.1,2.2-0.2,3.3-0.3c0.3,0,0.7,0.3,1,0.4
		c-0.3,0.2-0.7,0.6-1,0.7c-1.3,0.2-2.6,0.2-3.9,0.3c-4.2,0.4-8.3,0.8-12.5,1.1c-1.1,0.1-2.2,0-3.3,0
		C402.6,208.4,401.8,208.6,401,208.7z"/>
	<path class="st0" d="M431.3,278.2c-3.1,0.4-6,0.8-8.9,1.2c-1.4,0.2-2.7,0.5-4.1,0.5c-0.5,0-1-0.4-1.4-0.7c0.4-0.1,0.8-0.4,1.2-0.4
		c3-0.5,6-1,9.1-1.4c1.9-0.2,3.8-0.2,5.6-0.3c0.3,0,0.5,0.1,0.8,0.1c-0.2,0.3-0.3,0.7-0.5,0.8C432.5,278.2,432,278.2,431.3,278.2z"
		/>
</g>
<g id="Shape_3">
	<path class="st1" d="M745.8,141.8c-0.2-0.5-0.5-1-0.5-1.5c0-2.5,0-5,0-7.5c0-0.9-0.1-1.8-0.3-2.6c-0.1-0.4-0.7-0.9-1.1-0.8
		c-2.1,0.2-3.7-0.4-4.3-2.5c-0.6-2,0.4-3.7,1.8-5.1c0.6-0.6,1.2-1.2,1.6-2c0.9-1.7-0.1-3.2-1-4.4c-2-2.5-2.4-5.4-2.1-8.4
		c0-0.4,0.4-0.8,0.5-1.3c0.2-0.7,0.4-1.5,0.4-2.2c-0.4-3.1-0.6-6.2,0.3-9.2c0.3-1.2,0.5-2.5,1-3.7c0.2-0.4,1.3-0.6,1.9-0.4
		c1.2,0.3,2.3,1.2,3.4,1.2c3,0,6-0.2,9-0.5c1.7-0.2,3.5-0.4,5-1.2c2.9-1.5,5.6-3.3,8.4-5c0.3-0.2,0.7-0.3,1.1-0.5
		c-0.1,0.4,0,0.9-0.2,1.3c-0.3,0.6-0.8,1.1-1.1,1.7c-0.1,0.2-0.1,0.5-0.2,0.8c0.3,0,0.7,0.2,1,0.1c0.7-0.3,1.4-0.8,2.1-1.2
		c0.3-0.2,0.8-0.1,1.2-0.1c-0.1,0.3-0.2,0.7-0.4,1c-0.2,0.5-0.4,1-0.6,1.5c0.5,0,1-0.1,1.4-0.2c2.2-0.4,5.3,1.5,5.8,3.8
		c0.2,0.7,0.3,1.5,0.3,2.2c0,1.8,0.9,2.4,2.7,1.7c0.2-0.1,0.4-0.2,0.6-0.3c1.9-1,3.9-0.4,5.2,1.4c2.5,3.5,5,7,7.5,10.5
		c2.9,4.1,3.7,8.8,2.6,13.6c-0.6,2.8-2.3,5.2-4.1,7.4c-2.3,3-4.9,5.8-8.2,7.8c-2.1,1.3-4.3,2.4-6.9,2.4c-1.1,0-1.5,1-1,2.3
		c0.5,1.2,1,2.3,1.7,3.4c0.6,0.9,1.5,1.3,2.6,1.3c2.1,0,4.2-0.1,6.3,0c3.8,0.2,7.6,0.5,11,2.2c2.8,1.4,4.8,3.7,5.5,6.8
		c0.5,2.2,0.8,4.5,1.2,6.8c0,0.1,0,0.2,0,0.3c1.7,2.1-0.1,4.5,0.5,6.7c0.4,1.5,0,3.2,0.1,4.8c0.2,2.3,0.6,4.7,1,7
		c0.2,1.4,0.5,2.9,0.7,4.3c0,0.3-0.3,0.6-0.5,0.8c-0.2-0.3-0.6-0.5-0.6-0.9c-0.2-1.6-0.4-3.1-0.6-4.7c-0.1-0.4-0.3-0.7-0.5-1.1
		c0,0-0.3,0-0.4,0.1c-0.1,0.5-0.3,1.1-0.3,1.6c-0.1,3.9-0.2,7.8-0.3,11.6c-0.1,4.1,0,8.3-0.4,12.4c-0.2,2.4-1.1,4.7-1.8,7.1
		c-0.2,0.6-0.5,1.3-0.7,1.9c-0.6,1.4-1.7,1.8-3.1,1.7c-1.4-0.1-2.8-0.2-4.2-0.3c-3.8-0.1-7.7,0.1-11.5-0.4
		c-3.4-0.4-6.8-1.5-10.2-2.3c-2.4-0.5-4.7-1-7.1-1.4c-3.6-0.6-7.3-0.7-10.8-1.6c-4-1-7.8-2.8-11.7-4c-2-0.7-4.2-1-6.2-1.4
		c-0.1,0-0.3-0.1-0.4,0c-2,1.7-4.6,1.1-6.9,1.6c-2.1,0.4-4.5-0.2-6.8-0.3c-2.6-0.1-5.3-0.2-7.9-0.1c-0.3,0-0.7,0.5-0.8,0.9
		c-0.9,2-2.6,2.8-4.6,2.2c-1-0.3-1.6-0.4-2.4,0.6c-0.4,0.5-1.8,0.7-2.5,0.5c-0.7-0.2-1.1-1.2-1.6-1.9c-0.2-0.3-0.4-0.8-0.5-1.2
		c-0.2,0.3-0.5,0.5-0.7,0.8c-0.8,1-2.8,1.3-3.9,0.3c-0.9-0.8-1.7-1-2.6-0.4c-1.1,0.6-1.9-0.1-2.8-0.5c-0.3-0.2-0.8-0.5-1-0.4
		c-1.7,0.8-3.1-0.1-4.1-1.1c-1.1-1-2.3-1.3-3.5-1.7c-1.6-0.6-3.1-1.6-4.8-2c-1.4-0.4-3-0.5-4.3-0.1c-3.5,1.1-7.1,2.2-10.3,3.8
		c-4.9,2.4-9.5,5.3-14.3,7.9c-4.4,2.5-8.8,5.1-13.4,7.3c-3.5,1.7-7.3,3.3-11.1,3.9c-4.1,0.7-8.3,1.2-12.5-0.1
		c-1.4-0.4-2-1.5-2.4-2.6c-1.3-3.9-2.4-7.8-3.7-11.7c-1.7-5.3-3.5-10.5-5.3-15.8c-1.4-4-2.8-8-4.4-12c-1.3-3.3-3.1-6.4-4.4-9.6
		c-1-2.5-1.6-5.2-2.2-7.8c-0.2-0.9-0.2-1.9-0.3-2.8c0-0.2-0.3-0.3-0.5-0.5c-0.1,0.2-0.4,0.4-0.4,0.6c-0.5,4.2-1,8.4-1.5,12.6
		c-0.6,5-1,10-1.8,14.9c-0.4,2.5,1.3,3.8,2.2,5.6c0.2,0.3,0.3,0.7,0.4,1.1c-0.3-0.2-0.8-0.3-1-0.6c-1.4-1.7-3.2-3.4-3-5.9
		c0.3-3.2,1-6.3,1.4-9.4c0.3-1.9,0.4-3.8,0.6-5.7c0.3-2.4,0.8-4.8,1.1-7.2c0.2-1.5,0.3-2.9,0.6-4.4c0.4-2,0.9-4,1.3-6
		c0.1-0.3,0-0.7,0-1.1c-0.3,0.2-0.7,0.4-1,0.6c-0.3,0.2-0.4,0.7-0.6,0.9c-0.4,0.2-0.9,0.3-1.4,0.4c0.2-0.3,0.3-0.7,0.5-1
		c1.1-1.6,2.1-3.3,3.2-4.9c3-4.4,6-8.9,8.2-13.7c1.2-2.6,1.8-5.5,3.2-8c1.4-2.5,2.4-5.1,2.2-7.9c-0.1-2.3-0.6-4.7-1.2-6.9
		c-1-3.7-2-7.3-1.7-11.2c0.4-4.8,1.1-9.5,3.6-13.9c2.8-5,6.5-9.3,11.7-11.8c4.1-2,8.6-3.5,13-4.6c2.7-0.7,5.7-0.4,8.5,0.4
		c2.3,0.7,4.8,0.8,7.1,1.5c1.6,0.5,3,1.5,4.5,2.2c0.6,0.3,1.3,0.7,1.9,0.6c5.2-0.3,9,2.7,10.4,7.7c0.7,2.6,2,5,1.8,7.8
		c-0.1,1.3-0.2,2.5-0.3,3.8c0,0.3-0.4,0.5-0.6,0.8c-0.2-0.3-0.5-0.6-0.5-0.9c0-1.1,0.3-2.2,0.2-3.2c-0.2-1.7-0.3-3.4-0.9-5
		c-0.8-2.3-1.7-4.6-2.9-6.6c-1.2-2.1-3.5-2.8-5.8-3.1c-1.7-0.3-1.6-0.2-1.2,1.4c0.3,1.6,0.5,3.2,0.6,4.8c0.1,0.7,0.1,1.1,1,1.3
		c2.8,0.7,4.2,3,5.4,5.3c1.7,3.5,3.2,7,4.5,10.6c0.7,2.1,0.8,4.5,1,6.8c0.1,1,0.4,1.7,1.1,2.5c1.3,1.4,2.6,2.8,3.6,4.5
		c1.2,2,0.1,3.5-2.2,3.6c-1,0-2,0-3,0c-1.6,0-2.2,0.7-2.5,2.2c-0.7,3.4-1.3,6.8-1.2,10.3c0,1.1-0.3,2.4-0.9,3.4
		c-0.8,1.3-2.5,1-3.8,1.3c-0.6,0.2-1.4,0.4-1.8,0.9c-2.5,3.1-2,5.9-0.4,8.8c0.8,1.5,2.5,1.6,4,1.9c1.9,0.3,3.9,0.4,5.9,0.7
		c0.3,0,0.8,0.7,0.8,1.1c0,2.8-0.2,5.5-0.2,8.3c0,2.7,0.2,5.3,0.3,8c0,0.3,0.1,0.6,0,0.9c-0.1,0.2-0.5,0.4-0.7,0.5
		c-0.1-0.2-0.4-0.5-0.4-0.7c0.1-1.3,0.3-2.5,0.2-3.8c-0.1-2.6-0.4-5.3-0.5-7.9c-0.1-1.2,0.1-2.3,0.3-3.5c0.1-1.4-0.4-1.8-1.8-1.9
		c-2-0.1-4-0.4-6-1c-2.8-0.8-3.6-3.2-4.2-5.7c-0.5-2.2,0.3-3.8,1.3-5.5c0.2-0.3,0.3-0.6,0.4-1c-0.4-0.1-0.7-0.2-1.1-0.2
		c-2.2,0.2-4.4,0.4-6.6,0.6c-1.3,0.1-2.6,0-3.8,0c-0.4,0-0.9,0.4-1,0.7c-0.2,1.2-0.3,2.4-0.3,3.6c0,3.4-2.2,4.8-4.7,5.2
		c-1.6,0.3-3.3,0.2-5,0.3c-2.7,0.1-5.3,0.1-8,0.3c-4.1,0.3-8.2,0.8-12.3,1.1c-2.1,0.2-4.2,0.3-6.3,0.6c-3.9,0.5-7.7,1.5-11,3.9
		c-0.9,0.7-1.5,1.6-1.5,2.9c-0.1,3.5,0.7,6.9,1.5,10.3c0.8,3.7,2.9,6.8,4.3,10.3c1.6,4,2.9,8.2,4.4,12.3c1.6,4.4,3.5,8.6,5,13
		c1.4,3.9,2.4,7.9,3.7,11.8c0.8,2.5,1.8,4.9,2.8,7.4c0.5,1.2,1.7,1.3,2.7,1.3c5,0.2,9.9,0.2,14.7-1.7c4.7-1.9,9.5-3.7,13.8-6.5
		c3.9-2.6,8-4.6,12.1-6.9c2.7-1.5,5.3-3.1,8-4.5c2.1-1,4.4-1.9,6.6-2.6c1.3-0.5,2.1-1.1,2-2.6c-0.3-4.1,0.8-8,1.9-12
		c0.2-0.6,0.9-1.6-1-1.2c-6.7,1.3-13.3,3.5-19.9,5.3c-6.1,1.6-12.2,3.1-18.4,4.7c-0.4,0.1-0.8-0.1-1.2-0.1c0.2-0.3,0.5-0.5,0.5-0.8
		c0-1.4,0.2-2.9-0.1-4.3c-0.7-3.4-1.4-6.7-2.5-10c-0.7-2.2-2-4.2-3.1-6.3c-1-1.8-2.6-3.1-4.3-4c-0.7-0.4-1.5-0.5-2.3-0.9
		c-0.2-0.1-0.3-0.3-0.4-0.5c0.2-0.1,0.4-0.4,0.6-0.3c1.2,0.3,2.6,0.4,3.6,1c1.2,0.6,1.5,0.4,1.8-0.7c0.3-1.2,0.8-2.4,1.2-3.5
		c0.2-0.4,0.6-0.6,0.9-0.9c0.1,0.4,0.2,0.9,0.1,1.3c-0.5,1.5-1.1,3-1.6,4.6c-0.1,0.4-0.2,1.1,0,1.3c2.5,3.2,4.2,6.8,5.1,10.8
		c0.9,3.6,1.6,7.3,2.4,10.9c0.1,0.7,0.2,1.2,1.3,0.9c4.2-1.2,8.5-2.1,12.7-3.2c3.2-0.8,6.3-1.7,9.5-2.6c4.1-1.1,8.2-2.4,12.4-3.4
		c2.1-0.5,4.4-0.6,6.6-0.9c0.5-0.1,1.1-0.2,1.6-0.4c2.4-1.2,4.8-3,7.5-3.1c2.8-0.1,4.5-1.9,6.5-3.4c1.4-1,2.9-1.7,4.7-1.5
		c2.6,0.2,5.4-0.5,7.9,0.6c2.6,1.1,5.1,2.5,7.6,3.8c1.3,0.7,2.6,1.5,3.9,2.2c1.6,0.9,3.2,1.7,4.9,2.5c2.5,1.1,4.9,2.1,7.4,3
		c0.6,0.2,1.7,0.1,2.2-0.3c1.6-1.1,4.2-1,5.9-0.1c0.8,0.5,2.1,0.2,3.2,0c2.3-0.3,4.5-1,6.8-1.1c5.6-0.2,11.2-0.3,16.9-0.3
		c3.6,0,7.2,0.3,10.8,0.6c1.2,0.1,1.8-0.4,1.7-1.7c-0.4-4.3-0.9-8.6-1.1-12.9c-0.1-2.6-1.5-5.3,0-7.9c0.7-1.3,1.7-2.4,2.6-3.5
		c0.2-0.2,0.7,0,1-0.1c-0.1,0.3-0.1,0.6-0.2,0.9c-0.3,0.4-0.7,0.8-1.1,1.2c-1.4,1.5-2,3.2-1.6,5.4c0.5,2.5,0.7,5,0.9,7.5
		c0.3,3.2,0.4,6.3,0.6,9.5c0,0.4,0.3,0.8,0.4,1.1c0.2,0.5,0.4,0.9,0.6,1.4c-0.7,0.2-1.4,0.6-2.1,0.6c-0.9,0-1.9-0.2-2.8-0.2
		c-4-0.2-8-0.5-11.9-0.6c-5.1,0-10.2,0-15.3,0.3c-3,0.1-6,0.7-8.9,1.1c-0.9,0.1-1.1,0.8-1.2,1.7c-0.5,4-1.1,7.9-1.9,11.9
		c-0.2,0.9,0,1.1,0.7,0.9c1.1-0.4,1.9,0.2,2.9,0.6c4,1.4,8.1,2.6,12.1,4.1c4.1,1.5,8.2,2.1,12.5,2.3c4,0.2,7.8,1.1,11.7,2.3
		c3.2,1,6.4,1.7,9.7,1.7c4.3,0,8.6,0.2,12.9,0.3c1.5,0,2.1-0.7,2.7-2c1.7-4,2.1-8.1,2-12.4c0-4.6,0-9.2,0.3-13.8
		c0.2-2.9,0.7-5.8,1.1-8.7c0-0.3,0-0.7,0-1c-0.1-5.1,0-10.2-0.3-15.3c-0.2-3.7-1.2-7.3-4.1-10c-1.7-1.6-4-2.3-6.3-2.6
		c-2.7-0.5-5.5-0.4-8.3-0.6c-1-0.1-2.2-0.6-2.9-0.2c-1.1,0.7-2,0.2-3,0.1c-1.9-0.2-2-2.1-2.6-3.3c-0.6-1.2-1-2.5-1.6-3.7
		c-0.2-0.3-0.9-0.6-1.3-0.5c-2.1,0.5-4.2,1.1-6.3,1.5c-3.5,0.8-7,1.3-10.5,1.2c-1.4-0.1-2.7,0-4.1,0c-0.3,0-0.5,0.1-0.8,0.1
		c0.1,0.3,0.1,0.6,0.3,0.9c1.7,2.2,3.3,4.3,5,6.5c0.1,0.1,0.2,0.1,0.2,0.2c0.1,1.4,0.6,2.2,2.2,1.6c0.1,0,0.3,0.1,0.4,0.2
		c-0.1,0.2-0.1,0.4-0.3,0.5c-1,0.4-2,0.7-3,1.1c-2.5,0.8-5,1.5-7.4,2.4c-0.3,0.1-0.5,0.7-0.5,1.1c-0.1,2,0,4.1,0,6.1
		c-0.1,3.1-0.2,6.1-0.3,9.2c0,0.3-0.3,0.7-0.4,1c-0.2-0.3-0.7-0.7-0.7-1c0-1,0.2-2,0.2-2.9c0-4.3,0-8.6,0-12.9
		c0-1.2,0.4-1.5,1.6-1.8c2.4-0.5,4.6-1.4,6.9-2.2c0.2-0.1,0.5-0.9,0.3-1.2c-1-1.7-2.1-3.4-3.3-5c-0.3-0.4-0.6-0.8-0.9-1.2
		c-1.1-1.2-2.2-2.5-4.2-2.2C748.2,143.6,746.9,142.9,745.8,141.8 M638.6,89.8c0.5-0.2,1-0.4,1.5-0.6c3.2-1.9,6.6-2.6,10.3-2
		c0.5,0.1,1.1,0.2,1.6,0.3c0.6,0.1,1.2,0.2,1-0.8c-0.3-1.7-0.6-3.5-1-5.2c-0.1-0.4-0.4-0.9-0.8-1.1c-2.1-1.4-4.1-2.8-6.6-3.3
		c-2.3-0.4-4.8-0.6-7-1.2c-2.2-0.6-4.5-0.7-6.6-0.1c-3.7,0.9-7.3,2.3-10.9,3.8c-3.6,1.4-6.4,3.9-9,6.8c-2.4,2.7-3.8,5.8-5.3,8.9
		c-1.4,3-1.5,6.5-1.8,9.8c-0.4,3.8,0.8,7.2,1.7,10.8c0.5,2.2,1,4.5,1.2,6.7c0.3,3.2-0.7,6.1-2.2,8.9c-1.7,3.3-2.9,6.9-4.5,10.3
		c-1,2.2-2.4,4.2-3.7,6.2c-1.3,2-2.7,3.9-4.1,5.9c-0.1,0.2-0.2,0.5-0.3,0.7c0.3,0,0.5,0,0.8-0.1c0.3-0.1,0.5-0.3,0.8-0.5
		c1.1-0.7,2.1-1.5,3.3-1.9c2-0.7,4-1.2,6.1-1.8c1.4-0.4,2.7-0.7,4.1-0.9c1.3-0.2,2.7,0.1,4-0.2c3.2-0.7,6.4-1.1,9.7-1
		c1.3,0,2.6,0.1,4,0c1.7-0.1,3.4-0.4,5.1-0.5c1.7-0.1,3.5,0,5.2,0c2.4,0,4.1-1,4.6-3c0.3-1,0-2.1,0.2-3.1c0.3-2,0.1-2.4-1.8-2.9
		c-0.7-0.2-1.4-0.4-2-0.8c-3.9-2-6.2-7.5-5.1-12.3c0.7-2.9,0.6-4-2.1-5.5c-0.8-0.4-1.5-1.1-2-1.8c-1.5-2.2-2.4-4.6-1.8-7.4
		c0.5-2.3,2.1-3.8,4.4-3.5c0.3,0,0.7,0,0.9-0.2c0.1-0.2,0-0.6-0.1-0.9c-1.5-3-1.1-8.2,1.7-10.7C634,93.5,636.3,91.7,638.6,89.8
		 M657.8,91.8c-0.6-0.6-1.1-1.3-1.8-1.7c-0.6-0.4-1.4-0.7-2.1-0.8c-0.1,0-0.4,0.8-0.7,1.3c-0.1,0.2-0.4,0.3-0.5,0.4
		c-0.1-0.2-0.3-0.4-0.3-0.5c0.2-1.5-0.4-1.9-2-2.2c-3.9-0.6-7.3,0.3-10.5,2.2c-1.7,1-3.2,2.3-4.9,3.3c-4.3,2.9-6.2,8.6-3,13.3
		c0.5,0.7,0.2,1.2-0.6,1.2c-0.5,0-1,0-1.5-0.2c-1.4-0.4-3.6,0.9-3.7,2.3c-0.1,1.2-0.3,2.4,0,3.5c0.6,2.4,1.6,4.5,4.2,5.5
		c0.8,0.3,1.6,1.4,1.8,2.2c0.3,1.3,0.1,2.7,0,4c-0.1,1.5-0.5,3.2-0.1,4.6c0.8,3.2,2.6,5.9,6,6.9c1.9,0.5,3.8,0.7,5.8,0.7
		c3.2,0,6.4-0.3,9.6-0.5c1.2-0.1,2.5-0.1,3.6-0.3c0.9-0.2,2.3,0.2,2.7-1.2c0.2-0.9,0.3-1.8,0.3-2.8c-0.1-3.5,0.5-6.8,1.4-10.1
		c0.2-0.8-0.2-1.4-1-1.5c-0.3,0-0.5-0.1-0.8-0.2c-2.5-1.1-3.1-2.6-2.5-5.9c0.1-0.5,0.4-0.9,0.6-1.4c0.2,0.6,0.4,1.2,0.5,1.7
		c0,0.1-0.1,0.2-0.2,0.3c-0.5,1.6,0.4,4,2.2,4.2c2.7,0.3,5.4,0.1,8.1-0.1c1-0.1,1.3-1.1,0.6-2c-1.3-1.6-2.7-3.1-4-4.6
		c-0.4-0.4-0.8-0.9-0.9-1.4c-0.1-1.2,0.1-2.5-0.1-3.7c-0.4-2.4-0.7-4.8-1.6-7C661.3,98.2,659.5,95.1,657.8,91.8 M779.2,121.8
		c0.5-0.9,1.1-1.8,1.5-2.7c1.7-3.3-1.6-6.9-4.3-6.4c-1.8,0.3-3.7,1.2-5.3,2.2c-0.8,0.5-1.1,0.2-1.3-0.3c-0.8-1.2-1.6-2.4-2.2-3.7
		c-2.4-5.1-5.6-9.2-11.6-10.3c-3.4-0.6-6.7,0.7-8.7,3.1c-1.7,1.9-2.7,4-2.6,6.6c0,0.3-0.3,0.6-0.4,0.8c-0.2-0.2-0.6-0.3-0.7-0.5
		c-0.6-1.1-1.2-2.3-1.8-3.5c-0.1-0.3-0.4-0.4-0.6-0.6c-0.1,0.1-0.2,0.3-0.2,0.4c0,1.9-0.3,3.9,0.9,5.6c0.6,0.9,1,1.8,1.6,2.7
		c1.6,2.4,1.3,4.7-0.6,6.7c-0.6,0.6-1,1.2-1.5,1.8c-1,1.1-0.8,2.4,0.1,3.4c0.5,0.6,1.7,0.9,2.5,0.7c1.4-0.3,1.9,0.4,2.3,1.3
		c0.4,1.2,0.7,2.5,0.7,3.8c0,2.1-0.2,4.3-0.2,6.4c0,1.2,1.1,2.5,2.3,2.5c3.4,0,6.9-0.3,10.3-0.2c4.1,0.1,8.1-0.9,12.2-1.4
		c3.4-0.4,5.8-1.9,6.3-5.3c0.3-2.2-0.1-4.5-0.3-6.7c-0.1-1.1-0.5-2.1-0.8-3.1c-0.1-0.4-0.6-0.8-0.9-1.1c0.4,0,0.8,0,1.2-0.1
		c0.4-0.1,0.7-0.4,1-0.7C778.2,122.9,778.6,122.4,779.2,121.8 M793.2,129.4c0.5-0.7,0.9-1.4,1.4-2c4.2-5.7,4.2-11.5,1.1-17.1
		c-2.2-3.9-5.1-7.4-7.7-11c-1.4-1.9-2.5-2-4.9-1.3c-1.3,0.4-2.9,0.9-3.9-0.6c-0.5-0.7-0.6-1.7-0.5-2.5c0.2-3.3-2.3-4.4-4.8-4.3
		c-0.7,0.1-1.7-0.1-2.2-0.5c-0.6-0.5-0.9-0.9-1.8-0.7c-0.7,0.2-2,0.6-1.9-1c0-0.3,0.1-0.6,0.1-0.9c-0.4,0.1-0.9,0.1-1.2,0.4
		c-3,2.4-6.3,3.8-10.3,4.4c-4.2,0.6-8.4,0.8-12.6-0.2c-0.8-0.2-1.2,0.1-1.3,0.5c-1.5,3.3-1.4,6.7-1.1,10.2c0.1,0.7,0.7,1.3,1.1,2
		c0.1,0.3,0.2,0.6,0.2,0.9c0,0.6,0,1.3,0.1,1.9c0,0.3,0.4,0.5,0.6,0.8c0.2-0.3,0.4-0.6,0.5-0.9c1.4-6.1,7.9-9.7,14-7.6
		c4.7,1.6,8,4.9,10.1,9.3c0.6,1.3,1.4,2.6,2.2,3.9c0.3,0.5,0.6,0.5,1.2,0.2c2.5-1.3,5-3,8-0.9c1.6,1.2,2.8,2.5,2.7,4.5
		c-0.1,2.8-1.2,5.2-3.5,7c-1,0.8-1,1.7-0.7,2.8c0.4,1.9,1,3.8,0.9,5.7c-0.1,1.9,0,4.1-1.4,5.8c-0.1,0.2-0.2,0.4-0.3,0.6
		c0.2,0,0.5,0.2,0.7,0.1c2-0.5,4.1-0.8,6-1.6C787.8,135.5,790.5,132.6,793.2,129.4 M711,207.7c1.2,0.3,2.4,0.4,3.1-1
		c0.5-1.1-0.1-2.5-1.4-3.4c-1-0.7-2.1-1.1-3-1.9c-1.5-1.2-3-2.5-4.5-3.9c-0.3-0.3-0.3-0.8-0.5-1.3c0.5,0.2,1,0.2,1.4,0.5
		c1.9,1.5,3.8,3,5.7,4.5c1.6,1.2,3.3,1.6,5.1,0.5c1-0.6,1.4-1.7,1-2.7c-0.2-0.6-1-1-1.7-1.3c-0.8-0.4-1.7-0.4-2.4-0.9
		c-2.8-1.5-5.5-3.1-8.2-4.7c-0.1-0.1,0-0.5,0-0.8c0.4,0,1-0.2,1.3,0c1.7,0.9,3.2,2,4.9,2.9c1.4,0.8,2.8,1.5,4.2,2.1
		c0.4,0.2,1.1-0.1,1.4-0.4c0.2-0.2,0.2-1-0.1-1.3c-0.7-0.8-1.5-1.6-2.4-2.2c-2.2-1.3-4.5-2.5-6.7-3.8c-0.4-0.3-0.7-0.9-1-1.3
		c0.5,0,1.1-0.1,1.5,0.1c2.4,1.3,4.8,2.8,7.1,4.1c0.3,0.2,0.7,0.5,1.1,0.5c0.4,0,0.9-0.2,1.3-0.3c-0.2-0.3-0.3-0.7-0.6-1
		c-0.4-0.3-0.9-0.5-1.3-0.7c-3.1-2-6-4.1-9.2-5.9c-2.9-1.6-5.8-1.4-8.6,0.6c-1.2,0.8-2.5,1.6-3.8,2c-2.1,0.8-4-0.7-4-3
		c0-2.6,0-2.7-2.6-2.1c-3,0.7-5.6,1.9-6.1,5.6c-0.5,3.4-1.2,6.8-2,10.2c-0.3,1.4-0.2,2.4,0.9,3.2c1.8,1.2,3.6,2.3,5.9,2.2
		c0.3,0,0.8-0.3,0.9-0.5c0.7-2.6,2.8-3.1,5-3.5c1.3-0.3,2,0.2,2.1,1.4c0.1,0.9,0.4,0.7,1,0.4c0.7-0.4,1.5-0.7,2.2-1
		c1-0.5,1.7-0.1,2.2,0.7c0.6,1.2,1.1,1,2,0.2c0.5-0.5,1.4-0.5,2.1-0.8c0.1,0.5,0.1,1.1,0.2,1.6c0.1,1.6,0.3,1.6,1.7,1.2
		c0.9-0.2,2.1-0.2,2.8,0.2c1,0.7,2.1,1.6,1.3,3.3C710,206.5,709.8,207.5,711,207.7 M731.8,200.9c0.3-1.7,0.7-3.5,1-5.2
		c0.3-1.6,0.6-3.1,0.8-4.7c0.1-0.6,0.4-1.4-0.7-1.7c-2.3-0.6-4.7-1.1-6.8-2.2c-5.6-2.8-11-6-16.6-8.9c-3.1-1.6-6.6-1.7-9.9-1
		c-1.5,0.3-3.1,1-4.4,1.8c-1.5,0.9-3,2-3.2,4c-0.1,0.8,0,1.8,0.5,2.3c0.4,0.5,1.5,0.6,2.2,0.5c0.8-0.2,1.7-0.6,2.4-1.2
		c3.9-3.3,8-3.2,12.2-0.8c1.7,1,3.5,2,5,3.2c2,1.5,4,3.2,5.9,4.9c0.3,0.3,0.3,0.9,0.4,1.4c-0.4-0.1-0.7-0.3-1.1-0.3
		c-0.5-0.1-1.3-0.6-1.1,0.4c0.2,1.3,1.2,2.4,0.5,3.8c-0.1,0.1,0,0.4,0.1,0.5c0.9,2.6,0.5,3.7-1.7,5.3c-0.3,0.2-0.4,0.7-0.6,1
		c0.4,0.2,0.7,0.6,1.1,0.6c4,0.1,7.9,0.3,11.9,0.3c0.6,0,1.5-0.6,1.7-1.1C731.6,203,731.5,202,731.8,200.9 M678.7,185.8
		c-0.5,0.4-1.4,0.8-1.5,1.3c-1.2,3.8-2.2,7.7-2.1,11.7c0,0.8,0.1,1.8,1,1.7c0.9-0.1,2.1-0.6,2.4-1.3c0.6-1.5,0.7-3.2,1-4.8
		c0.5-2.5,1-5,1.4-7.5c0.1-0.6,0.1-1.1,0.2-1.7c-0.5,0.1-1.1,0.2-1.6,0.3C679.3,185.6,679.1,185.7,678.7,185.8 M732.7,202.6
		c-0.1,0.8-0.7,1.8,0.6,2c1,0.1,2.8-1.7,3-2.7c0.1-0.7,0.2-1.4,0.3-2.1c0.4-2.4,0.8-4.8,1.2-7.2c0.1-0.9,0.3-1.8,0.3-2.6
		c0-0.6-0.9-1.2,0-1.8c-0.3-0.2-0.6-0.6-0.8-0.6c-1,0.2-1.9,0.6-2.2,1.9c-0.4,2.4-1,4.7-1.4,7.1
		C733.3,198.6,733.1,200.5,732.7,202.6 M689.6,204.8c1.7,1.2,3.1,1.3,3.7,0.1c0.4-0.8,0.6-1.6,0.7-2.5c0.3-2.2-0.2-2.6-2.4-2.1
		c-0.4,0.1-0.7,0.1-1,0.3C688.6,201.6,688.2,203,689.6,204.8 M694.9,206.4c0.6,0,1.2,0.1,1.8-0.1c2.1-0.6,2-2.8,3-4.2
		c0.1-0.1-0.7-1.1-1.1-1.2C695.8,200.7,693.7,203.7,694.9,206.4 M700.1,207.3c0.4,0.1,0.9,0.4,1.2,0.2c1.9-0.8,3.3-2.4,2.5-4.7
		c-0.6-1.6-1.3-1.8-2.3-0.5c-0.7,0.9-1.1,2-1.7,3C699.2,206.1,699.4,206.6,700.1,207.3 M707.5,208.9c0.4-0.8,1.1-1.6,1.3-2.5
		c0.2-0.8,0.1-1.8-0.3-2.5c-0.2-0.3-1.4-0.2-2.1-0.1c-0.7,0.2-1.5,3.1-1.1,3.7c0.2,0.3,0.8,0.6,0.7,0.8
		C705.9,209.8,706.7,209.2,707.5,208.9z"/>
	<path class="st1" d="M632,112.2c0.6,1,1.3,1.8,1.5,2.8c0.3,1.3-0.5,2.1-1.9,2c-0.8,0-1.5-0.2-2.3-0.3c0.7-0.2,1.3-0.3,2-0.5
		c0.8-0.3,1.6-0.6,0.9-1.9C631.8,113.7,630.9,112.9,632,112.2z"/>
	<path class="st1" d="M773.2,117.8c0-0.4,0.1-0.7,0.2-1.1c0.3,0.2,0.7,0.3,0.9,0.6c0.8,1.3,1.6,2.4,3.4,1.4c0.1-0.1,0.5,0.2,0.7,0.4
		c-0.2,0.2-0.4,0.6-0.6,0.7c-1.7,1.1-2.9,0.7-4-1.2C773.6,118.5,773.4,118.2,773.2,117.8z"/>
</g>
<g id="Shape_2_1_">
	<path class="st0" d="M472.3-115.7c0,4.2,0.1,8.1,0,12.1c-0.1,5-0.4,9.9-0.4,14.9c0,3.4,0.3,6.8,0.4,10.2c0.1,4.3-0.2,8.5,0.1,12.8
		c0.3,4.5,1.1,9,1.6,13.5c0.3,2.6,0.4,5.3,0.9,7.9c0.2,1.1,1,2.2,1.6,3.3c0.2,0.3,0.3,0.6,0.5,0.9c-0.3,0.1-0.6,0.3-0.8,0.3
		c-5.2-0.1-10.3-0.2-15.5-0.4c-4.7-0.3-9.4-0.9-14.1-1.2c-5-0.3-10-0.4-15.1-0.4c-5.4,0-10.7,0.3-16.1,0.4c-3.9,0-7.8-0.4-11.7-0.4
		c-16.2,0-32.4,0.1-48.5-0.1c-7.5-0.1-15-0.5-22.5-0.8c-3-0.1-6.1-0.4-9.1-0.4c-10.5-0.2-20.9-0.3-31.4-0.4c-3.5,0-7.1,0.5-10.6,0.3
		c-6.6-0.3-13.2-0.8-19.8-1.2c-3.7-0.2-7.4-0.3-11-0.4c-0.6,0-1.2,0.4-1.9,0.5c-0.5,0.1-1.1,0.1-1.4-0.1c-0.4-0.4-0.7-1-0.7-1.6
		c0-0.8,0.3-1.6,0.3-2.4c0.6-5.8,1.1-11.5,1.7-17.3c0-0.5,0-1,0-1.5c0.3-8.5,0.5-17,0.9-25.5c0.2-5.6,0.8-11.2,0.8-16.8
		c0-6-0.5-12-0.8-18.1c-0.1-2.6-0.3-5.2-0.4-7.9c-0.2-6.4-0.3-12.9-0.5-19.3c0-1.2-0.4-2.4-0.4-3.6c0-1.2,0.5-1.7,1.8-1
		c1,0.5,2.1,0.9,3.2,0.9c2.6,0.1,5.2,0,7.8,0c7.8,0.1,15.6,0.3,23.4,0.4c4.2,0,8.3-0.4,12.5-0.4c6.1,0,12.2,0.2,18.2,0.4
		c3.5,0.1,6.9,0.3,10.4,0.4c8.2,0.3,16.4,0.5,24.6,0.9c3.3,0.1,6.5,0.7,9.8,0.8c4.9,0,9.9-0.5,14.8-0.3c5.9,0.3,11.8,1.2,17.7,1.6
		c6.1,0.4,12.2,0.3,18.2,0.5c3.4,0.1,6.9,0.6,10.3,0.8c4.5,0.3,9.1,0.7,13.6,0.8c6.3,0.2,12.6,0.3,18.9,0.4
		c4.8,0.1,9.6,0.3,14.4,0.4c1.2,0,2.1-0.2,2.4-1.7c0.1-0.5,0.9-0.9,1.4-1.3c0.2,0.7,0.5,1.3,0.6,2c0,0.6-0.3,1.3-0.3,2
		c0,2.7-0.1,5.4,0,8c0.1,6,0.3,12,0.4,18C472.8-121.7,472.5-118.8,472.3-115.7 M470.7-86.3c-0.1-1.4-0.4-2.7-0.4-4.1
		c0.1-3.1,0.3-6.2,0.4-9.3c0.2-5.2,0.4-10.5,0.4-15.7c0-10.8-0.3-21.6-0.4-32.4c0-0.2,0-0.4,0-0.6c-0.1-1.1-0.5-1.6-1.8-1.6
		c-4.7,0-9.5-0.3-14.2-0.4c-8.3-0.2-16.7-0.3-25-0.4c-1.7,0-3.4-0.1-5.1-0.4c-5.4-1.1-10.8-1.8-16.2-1.7c-3.2,0.1-6.4,0.2-9.6,0
		c-4.8-0.3-9.7-0.9-14.5-1.2c-4-0.3-7.9-0.3-11.9-0.4c-7.1-0.2-14.3-0.3-21.4-0.4c-4-0.1-8.1-0.3-12.1-0.4
		c-4.4-0.1-8.8-0.3-13.2-0.4c-6.9-0.3-13.7-0.8-20.6-0.8c-17.6-0.1-35.1,0-52.7-0.1c-1.3,0-1.9,0.4-1.8,1.8
		c0.2,3.5,0.3,7.1,0.4,10.6c0.4,9.2,1.1,18.4,1.2,27.6c0.1,8,0.2,16-0.7,24c-0.8,6.9-0.7,14-1,21c-0.1,3.4-0.2,6.8-0.4,10.2
		c-0.1,1.5-0.6,2.9-0.7,4.4c-0.3,2.9-0.5,5.8-0.5,8.7c0,1,0.6,1.9,2.1,1.9c3.5,0,6.9,0.2,10.4,0.4c7.2,0.4,14.3,1,21.5,1.2
		c3.7,0.1,7.5-0.4,11.3-0.3c8.8,0.1,17.7,0.2,26.5,0.4c3.5,0.1,6.9,0.3,10.4,0.4c7.6,0.3,15.1,0.8,22.7,0.8
		c10.2,0.1,20.5-0.3,30.7-0.3c3.2,0,6.4,0.3,9.6,0.4c11.1,0.2,22.2,0.4,33.3,0.4c3.7,0,7.4-0.9,11.1-0.7c5.1,0.2,10.2,1.2,15.4,1.6
		c6,0.4,12,0.6,18.1,0.9c1.1,0.1,1.3-0.3,1.2-1.3c-0.3-3.1-0.5-6.3-0.9-9.4c-0.5-5-1.4-10-1.6-15C470.4-73.4,470.7-79.6,470.7-86.3z
		"/>
	<path class="st0" d="M346.5-47c-6.5-1.7-10-6.1-11.7-12.1c-0.7-2.4-1.4-5-1.2-7.5c0.2-3,0.9-6.1,2.1-8.8c1.3-3.1,3-6.3,5.3-8.8
		c2.7-3,6.5-5,10.5-6.1c5.4-1.4,10.6-0.7,16,0.6c4.2,1,7.8,2.6,10.8,5.8c2.7,3,4.8,6.2,5.6,10.2c2,8.9-0.8,16.4-6.7,23
		c-2.6,2.9-6.1,4-9.7,4.5c-3.4,0.5-7,0.9-10.4,0.8C353.5-45.6,350.1-46.4,346.5-47 M381.8-62.1c0.8-3.6,1.8-7.2,0.5-11
		c-1.1-3.4-2.2-6.8-5-9.1c-3.2-2.5-6.2-5.2-10.7-5.9c-4.1-0.6-8.1-2-12.3-0.9c-5.7,1.4-10.8,3.6-14.1,8.8c-2.7,4.2-4.4,8.8-4.5,13.8
		c0,1.8,0.4,3.6,0.8,5.4c0.9,3.9,2.3,7.5,5.9,9.7c2.1,1.3,4.5,2.2,6.9,2.8c3.3,0.8,6.8,1.3,10.2,1.4c2.4,0.1,4.9-0.3,7.3-0.8
		c4.1-0.9,8.2-1.9,10.7-5.6C379.1-56.1,380.3-59,381.8-62.1z"/>
	<path class="st0" d="M369-101.2c0.4,0.5,0.8,0.8,1.1,1.2c0.2-0.4,0.5-0.8,0.7-1.2c0.3-0.8,0.4-1.7,0.9-2.4c1.1-1.8,2.2-2,3.9-0.8
		c2.8,2,5.6,4.1,8.5,5.9c2,1.3,3.1,0.5,3.3-1.9c0.3-3.6,1-7.3,1.2-10.9c0.1-2.3-0.3-4.5-0.3-6.8c0-0.3,0.4-0.7,0.6-1
		c0.3,0.3,0.6,0.6,0.9,0.8c0.1,0.1,0.2,0.2,0.2,0.3c-0.3,3.7,1.1,7.4-0.2,11.2c-0.6,1.9-0.4,4.1-0.7,6.1c-0.1,1.1-0.3,2.3-0.9,3.2
		c-0.8,1.4-2.1,2.1-3.7,1c-2.9-1.9-5.9-3.9-8.8-5.8c-1.8-1.2-2.8-0.9-3.6,1.2c-0.4,1.1-0.8,2.2-1.3,3.3c-0.2,0.4-0.7,1-1,1
		c-0.4,0-0.9-0.6-1-1c-1.5-3.9-3.2-7.7-4.4-11.7c-0.7-2.3-0.8-4.8-1-7.2c0-0.7,0.7-1.4,1-2c0.2,0.6,0.5,1.1,0.6,1.7
		c0.7,3.5,1.3,7.1,2.2,10.5C367.4-104.7,368.2-103,369-101.2z"/>
	<path class="st0" d="M346.2-129.6c-1.7-1.4-2.7-3.2-5.7-2.3c-2.9,0.8-6.3,0.7-8.7-2.1c-1.7-1.9-2.1-4.3-0.8-6.3
		c1.3-2.1,2.9-4,5.4-4.6c1.1-0.2,2.4-0.1,3.4,0.4c0.7,0.4,0.9,1.6,1.3,2.5c-0.7-0.3-1.4-0.8-2.2-1c-0.9-0.2-2.1-0.4-2.7,0
		c-1.4,1.1-2.7,2.4-3.5,4c-1,1.9-0.3,3.7,1.5,4.7c2,1.1,4.2,1.7,6.4,1.3c1-0.2,2.5-0.2,2.3-2.1c-0.2-2.9,1.3-5.1,4-6.3
		c2.2-1,4.4-0.9,6.3,0.8c0.9,0.8,1.9,1.6,2.7,2.6c1.5,1.9,1.4,3.3-0.3,5.8C353.7-129.4,349-128.1,346.2-129.6 M354.9-136.4
		c-1-1-2-2.1-3.1-3.1c-1.8-1.6-3.6-0.7-5.2,0.2c-2.2,1.2-1.9,3.6-1.4,5.4c0.3,1.3,1.7,2.9,2.9,3.4
		C351.3-129.4,355.1-132.6,354.9-136.4z"/>
	<path class="st0" d="M323.8-100c0-3.5-1.6-5.6-4.6-6.8c-2.2-0.8-4.5-1.7-6.3-3c-1.4-1-2.8-2.7-3.2-4.4c-0.3-1.2,0.8-3.2,1.9-4.1
		c3.5-2.9,9.2-3.1,12.5,1c0.3,0.4,0.2,1.1,0.4,1.7c-0.5-0.2-1.3-0.2-1.6-0.5c-1.7-1.9-3.6-2.7-6.2-2.5c-2.4,0.2-4.8,1.7-5.1,3.5
		c-0.3,1.8,1.5,4,3.8,5c2.6,1.1,5.3,2,7.6,3.7c3.7,2.7,2.9,7,1,10.3c-2.6,4.5-6.1,4.7-10.7,2.9c-1.4-0.5-2.7-1.3-4-2.1
		c-1.9-1.2-2.5-3.2-1.5-4.9c0.2-0.4,0.7-0.7,1-1c0.1,0.4,0.2,0.8,0.2,1.1c-0.1,1.9,0.7,3.3,2.5,4c1.9,0.8,3.8,1.9,5.8,2.4
		c2.3,0.6,5.2-2.3,6.2-5.2C323.4-99.2,323.6-99.5,323.8-100z"/>
	<path class="st0" d="M346.6-95.8c-4.4,1.9-8.2,1.2-10.9-1.8c-0.4-0.4-0.4-1.2-0.6-1.7c0.5,0.2,1.1,0.3,1.5,0.6
		c3.9,3.2,7.6,3.4,10.6,0.5c1.5-1.4,1.6-4.2,0.3-5.8c-1.4-1.7-3.3-2.5-5.4-3.3c-1.3-0.5-2.8-1.3-3.5-2.4c-2.2-3.6-0.8-6.9,3.5-9.4
		c3.5-2,8-1.1,9.6,1.9c0.2,0.4,0.2,1.1,0.2,1.6c-0.4-0.2-1-0.3-1.3-0.6c-4.3-4.6-10.3-1.3-11.1,2.9c-0.3,1.5-0.2,2.9,1.5,3.6
		c1.7,0.7,3.5,1.2,5,2.1c1.8,1.1,3.6,2.4,4.1,4.8c0.6,3.3,0.1,4.5-2.6,6.4C347.2-96.2,347-96,346.6-95.8z"/>
	<path class="st0" d="M380.9-136.4c0.1-0.9,0.4-1.6,0.4-2.4c0-0.5-0.4-1-0.6-1.4c-0.3,0.2-0.8,0.3-1,0.6c-2.7,4.4-5.2,3.4-8.5,2.5
		c-2.1-0.5-4-1.6-5.9-2.5c-1-0.4-1.9-0.6-1.7,1c0.3,2.4,0.6,4.9,0.7,7.3c0,0.7-0.7,1.3-1.1,2c-0.3-0.5-0.7-1.1-0.8-1.6
		c-0.3-3.2-0.7-6.4-0.9-9.6c-0.1-2,0.6-2.3,2.5-1.5c2.9,1.2,5.8,2.4,8.7,3.4c3.8,1.3,4.7-0.1,7-2.9c0.5-0.6,1.1-1.1,1.6-1.6
		c0.3,0.6,0.8,1.2,1,1.9c0.2,0.6,0.3,1.2,0.3,1.8c0.2,2.6,0.4,5.2,0.4,7.8c0,0.6-0.5,1.3-0.8,1.9c-0.3-0.6-0.7-1.1-0.8-1.7
		C381.1-132.9,381-134.6,380.9-136.4z"/>
	<path class="st0" d="M277.6-134.7c-0.8-3.1-1.7-6-2.5-8.9c-0.1-0.5,0.1-1.1,0.2-1.7c0.5,0.4,1.3,0.7,1.4,1.2
		c0.8,2.4,1.5,4.8,2.2,7.1c0.1,0.3,0,0.6,0.1,0.8c0.5,0.9,1,1.8,1.5,2.7c0.4-0.8,0.9-1.5,1.3-2.3c0.9-1.8,1.6-2,3.2-0.7
		c1.6,1.3,3.3,2.5,5,3.8c1.2,0.9,1.9,0.6,2-0.9c0.2-3.1,0.3-6.2,0.4-9.3c0-0.4-0.1-0.9,0-1.3c0.3-0.6,0.9-1.1,1.3-1.6
		c0.1,0.6,0.3,1.1,0.3,1.7c-0.2,4.3-0.5,8.5-0.8,12.8c-0.1,1.4-1.2,1.9-2.4,1.1c-1.9-1.3-3.7-2.6-5.6-3.9c-1.3-0.9-2.3-1.1-3,0.7
		c-0.3,0.7-0.5,1.5-0.9,2.2c-0.3,0.5-0.9,1.1-1.4,1.1c-0.4,0-0.9-0.8-1.1-1.3C278.4-132.4,278-133.5,277.6-134.7z"/>
	<path class="st0" d="M389.4-128.8c-3.1-0.6-2.2-3.2-2.4-4.9c-0.4-2.6-0.1-5.3-0.1-8c0-1.5,0.8-2.3,2.3-2.3c2.4,0,4.8-0.1,7.2,0
		c0.6,0,1.3,0.6,1.9,1c-0.6,0.2-1.2,0.6-1.8,0.6c-1.9,0.1-3.8-0.1-5.7,0.1c-0.7,0.1-1.9,0.5-2,1c-0.2,1.2,0,2.4,0.2,3.6
		c0,0.1,1.4,0,2.1,0c1.7,0,3.4-0.1,5.1,0.1c0.5,0,0.9,0.7,1.3,1.1c-0.5,0.2-1,0.5-1.5,0.6c-2.1,0.2-4.1,0.2-6.2,0.5
		c-0.4,0.1-1.1,0.8-1.2,1.2c-0.4,3.1,1.3,4.5,4.4,3.8c1.4-0.3,2.8-0.4,4.3-0.4c0.3,0,0.7,0.4,1,0.6c-0.3,0.2-0.5,0.5-0.8,0.6
		c-0.3,0.2-0.7,0.4-1.1,0.4C394.1-129.1,391.9-128.9,389.4-128.8z"/>
	<path class="st0" d="M298.4-138.5c-0.1-1.4-0.2-2.6-0.4-3.8c-0.3-1.6,0.7-2.8,2.3-3c1.8-0.2,3.6-0.6,5.4-0.8c0.7-0.1,1.4,0.4,2,0.6
		c-0.5,0.3-0.9,0.9-1.5,1c-1.6,0.4-3.3,0.6-4.9,0.9c-2.4,0.5-1,2.4-1.1,3.6c-0.1,0.4,1.1,1.3,1.8,1.4c1.4,0.2,3,0,4.4,0.1
		c0.5,0,0.9,0.6,1.3,0.9c-0.4,0.2-0.9,0.7-1.3,0.7c-1.3,0.1-2.7,0.2-4,0c-1.4-0.2-2.1,0.6-2.2,1.6c-0.3,1.8,0.8,3.1,2.3,3.1
		c1.5,0,3,0,4.5,0c0.3,0,0.5,0.3,0.7,0.4c-0.2,0.3-0.4,0.8-0.6,0.8c-2.4,0.2-4.8,0.4-7.2,0.4c-0.4,0-1-0.9-1-1.4
		C298.6-134.1,298.5-136.2,298.4-138.5z"/>
	<path class="st0" d="M433.5-128.5c-3.8-1.6-4.4-7.3-0.7-9.7c3.1-2,4.5-1.7,6.3,1.7c0.4,0.8,0.7,1.7,1.2,2.5
		c1.1,1.8,0.6,3.4-0.7,4.6c-1.5,1.3-3.4,1.9-5.4,1.1C434-128.3,433.8-128.3,433.5-128.5 M438.9-133.2c-0.4-0.9-0.8-1.8-1.4-2.6
		c-1.2-1.7-2.3-1.8-3.9-0.6c-2.8,2.2-1.8,5.2,0.8,6.6c1,0.5,2.7,0.1,3.9-0.4C438.9-130.5,438.9-132.1,438.9-133.2z"/>
	<path class="st0" d="M426.6-140.7c0.4,0,0.5,0,0.6,0c0.8,0.2,1.6,0.4,2.3,0.5c-0.7,0.4-1.4,1-2.2,1.1c-1.2,0.2-2.5,0.2-3.8,0
		c-1.4-0.2-1.4,0.6-1.2,1.5c0.4,2.2,1,4.4,1.4,6.6c0.1,0.5,0.3,1.1,0.2,1.6c-0.2,0.6-0.7,1.2-1.1,1.8c-0.2-0.6-0.4-1.1-0.6-1.7
		c-0.6-2.6-1.1-5.3-1.9-7.9c-0.2-0.6-1.3-1.2-2.1-1.4c-1.2-0.2-2.5,0-3.8-0.1c-0.6-0.1-1.1-0.6-1.6-0.9c0.6-0.3,1.1-0.7,1.7-0.8
		c1-0.1,2,0,3,0C420.6-140.4,423.5-140.5,426.6-140.7z"/>
	<path class="st0" d="M314.4-138.1c-0.3,3.8,0.8,4.9,4.5,4.7c2.1-0.2,4.3-0.4,6.4-0.4c0.6,0,1.2,0.5,1.9,0.8
		c-0.5,0.3-1.1,0.8-1.6,0.8c-3,0.2-6.1,0.4-9.1,0.4c-2.5,0.1-3.4-0.7-3.6-3.2c-0.2-2.9-0.3-5.8-0.4-8.7c0-0.2-0.1-0.5,0-0.6
		c0.3-0.6,0.7-1.2,1.1-1.9c0.2,0.6,0.5,1.2,0.6,1.9C314.2-142.3,314.3-140.3,314.4-138.1z"/>
	<path class="st0" d="M402.5-118.6c0.3-1.5,0.5-2.8,0.9-4.1c0.1-0.4,0.7-0.7,1-1c0.2,0.5,0.6,1,0.6,1.4c-0.5,5-1.1,10.1-1.7,15.1
		c-0.1,0.6-0.7,1.1-1,1.6c-0.2-0.5-0.6-1.1-0.6-1.6C401.9-110.9,402.2-114.7,402.5-118.6z"/>
	<path class="st0" d="M400.3-98.4c1.6-0.9,2.4,0.2,2.9,1.2c0.4,0.7,0.4,1.9,0,2.7c-0.3,0.6-1.4,1.4-2,1.2c-1-0.3-2-1-2.5-1.9
		c-0.3-0.4,0.2-1.5,0.5-2.2C399.4-97.8,399.9-98,400.3-98.4 M402.1-96.4c-0.3-0.2-0.6-0.4-1-0.6c-0.1,0.6-0.3,1.1-0.3,1.7
		c0,0.1,0.7,0.4,0.7,0.4C401.8-95.3,402.1-95.8,402.1-96.4z"/>
	<path class="st0" d="M375.1-59.3c1-1.7,1.9-3.3,2.8-4.9c0.1-0.2,0.7-0.2,1.1-0.3c0.1,0.3,0.3,0.7,0.2,1c-2.2,3.8-3.3,8.5-8.2,10
		c-2.8,0.9-5.7,1.6-8.6,2.1c-5.5,1-10.6-0.8-15.7-2.6c-3.4-1.2-5.3-4.1-6.7-7.3c-0.1-0.3,0.6-1,0.9-1.4c0.4,0.3,1,0.5,1.1,0.8
		c1.7,5.6,6.4,7,11.3,7.9c2.7,0.5,5.5,0.8,8.3,0.9c4.1,0.2,7.9-1,11.2-3.4C373.7-57.1,374.3-58.2,375.1-59.3z"/>
	<path class="st0" d="M365.4-70.1c-0.8-0.5-1.6-0.8-2.1-1.3c-1.1-1.1-2.1-2.3-1.7-4c0.5-2,2-3,3.8-3.4c3.4-0.8,6.5,2.1,6.2,5.6
		c-0.1,1.5-2,3.1-3.8,3.2C367-69.9,366.2-70,365.4-70.1 M363.8-75.9c-0.6,1.9,0.2,3.2,1.9,4c1.7,0.8,4.4-0.2,4.2-1.5
		c-0.2-0.8-0.9-1.7-1.6-2.2C367-76.3,365.6-77.7,363.8-75.9z"/>
	<path class="st0" d="M343.2-73.3c0.2-4,3.9-5.8,7-3.8c0.8,0.5,1.7,0.9,2.3,1.5c0.6,0.7,1.4,2,1.1,2.5c-0.7,1.1-1.8,2.1-3,2.7
		C348.5-69.5,344.7-71.1,343.2-73.3 M347-72.3c1.2,0.1,2.3,0.3,3.5,0.2c1.3-0.1,1.7-1.5,0.7-2.3c-1-0.7-2.2-1.2-3.4-1.4
		c-0.8-0.1-2.1,0.4-2.4,1.1C345-73.8,345.6-72.8,347-72.3z"/>
</g>
<g id="Shape_2">
	<path class="st0" d="M-153.1,112.5c-1.6,0.3-3,0.6-4.4,0.9c-3.7,0.6-7.4,1.3-11.1,1.8c-2.8,0.4-5.7,0.7-8.5,0.9
		c-4.7,0.4-9.5,0.6-14.2,0.9c-1.7,0.1-3.4,0-5.2,0c-1.7,0.1-2.1-1.1-2.6-2.3c-0.8-2.1-1.8-4.1-3.5-5.6c-0.8-0.7-1.2-0.6-1.4,0.3
		c-0.3,1.5-0.6,3.1-0.8,4.6c0,0.4,0.4,0.8,0.6,1.2c0.2,0.4,0.5,1,0.4,1.2c-0.3,0.4-0.9,0.8-1.4,0.9c-3.4,0.3-6.8,0.4-10.3,0.6
		c-1.8,0.1-3.5,0.1-5.3,0.3c-3.7,0.4-7.4,0.8-11.1,1.2c-1.5,0.2-3,0.2-4.5,0.3c-2.6,0.1-5.2,0.2-7.8,0.3c-3.1,0.1-6.1,0.2-9.2,0.3
		c-2.8,0.1-5.5,0.4-8.3,0.6c-0.8,0.1-1.6,0.2-2.4,0.3c-0.2,0-0.5-0.3-0.7-0.4c0.2-0.3,0.3-0.6,0.5-0.8c0.1-0.1,0.3-0.2,0.5-0.3
		c2.6-0.5,2.6-0.5,2.6-3.1c0-2.5-0.1-4.9,0-7.4c0.2-4.9,0.5-9.9,0.9-14.8c0.3-3.4,0.8-6.8,1.2-10.2c0.3-3.2,0.5-6.4,0.9-9.5
		c0.7-4.5,1.3-9.2,3.3-13.3c2.2-4.4,5.7-7.1,10.7-7.8c2.3-0.3,4.5-0.3,6.7,0.3c0.4,0.1,1.2-0.4,1.4-0.8c1-2.4,0.4-3.5-2.2-4.6
		c-2.6-1.1-4.1-3.2-4.7-5.9c-0.2-1.2-1-1.3-1.9-1.3c-0.3,0-0.5,0.2-0.8,0.3c-2.3,0.3-2.8-0.1-3.3-2.7c-0.5-2.7-1-5.4-1.2-8.1
		c-0.2-3.5-0.3-7.1,0-10.6c0.4-3.6,1.7-7,3.5-10.2c2.1-3.7,5.3-5.8,8.8-7.7c1.4-0.8,2.9-1.6,4.2-2.5c0.3-0.2,0.4-0.8,0.4-1.2
		c-0.1-0.7-0.6-1.4-0.7-2.1c-0.1-0.4,0.1-0.8,0.2-1.3c0.5,0.1,1,0,1.4,0.3c0.6,0.3,1,0.9,1.6,1.2c0.3,0.2,0.7,0.3,1.1,0.3
		c0.1,0,0.3-0.6,0.2-0.8c-0.2-1.1-0.4-2.2-0.6-3.4c0-0.3,0.2-0.6,0.2-0.9c0.4,0.1,0.9,0.1,1.2,0.4c1.2,1.5,2.3,3.1,3.5,4.7
		c0.5,0.6,1,1.2,2,0.8c3.9-1.8,7.8-1.8,11.8-0.3c3.6,1.3,6.9,3.2,9.9,5.5c1,0.8,1.7,2.4,2,3.8c0.3,1.5,0.1,3.2,0.1,4.8
		c0,0.9-1,1.4-1.8,0.9c-0.6-0.3-1.3-0.6-1.8-1c-1.1-1-1-0.2-1.2,0.7c-0.6,2.3-0.2,4.6,0.7,6.7c0.8,1.9,2,3.6,3,5.4
		c0.9,1.5,2.2,3.1,1.2,4.9c-0.7,1.2-1.6,2.4-2.7,3.3c-1.1,1-1.9,1.8-1.8,3.4c0.1,2.6-1.1,4.7-2.7,6.7c-0.9,1.2-1.8,2.4-2.7,3.5
		c-0.5,0.5-1.2,0.9-1.9,1.2c-0.7,0.3-1.3,0.5-1,1.5c0.4,1.4,0.6,2.8,1.1,4.2c0.2,0.7,0.8,1.5,1.4,1.7c3.5,1.2,7.1,2.1,10.6,3.4
		c1.6,0.6,3,1.9,4.2,3.2c1.5,1.5,2.7,3.2,3.9,5c0.7,1,1.2,2.2,1.6,3.4c1.1,3.3,3.1,6.1,5,8.9c1.7,2.5,3.4,5,5.2,7.5
		c0.2,0.2,0.5,0.4,0.7,0.6c0-0.3,0.2-0.6,0.1-0.9c-0.2-2.5-0.4-5-0.6-7.6c-0.3-2.9-0.7-5.9-0.9-8.8c-0.1-2.3,0.2-4.5,0.2-6.8
		c0-2.8-0.3-5.6-0.3-8.3c0.1-6.8,0.5-13.7,0.5-20.5c0-6.3-0.3-12.6-0.6-18.8c-0.1-1.6-0.2-3.2-0.3-4.8c0-1.6,0.3-1.9,1.9-1.6
		c0.3,0.1,0.7,0,1.1,0c6.4,0,12.7,0,19.1,0c5.4,0,10.8-0.2,16.3-0.3c3.1-0.1,6.2-0.3,9.3-0.3c3.6,0,7.1,0.3,10.7,0.3
		c3.3,0,6.5-0.2,9.8-0.3c3.2-0.1,6.4-0.2,9.6-0.3c5-0.1,9.9-0.2,14.9-0.3c7.2-0.2,14.5-0.2,21.7-0.7c2.6-0.2,5.4,0.1,8-1
		c0.7-0.3,1.9,0.3,2.8,0.8c0.6,0.4,0.4,1.2-0.4,1.2c-1.2,0.1-1.1,0.8-1.2,1.7c0,1.6-0.4,3.2-0.2,4.8c0.4,5,1,9.9,1.5,14.9
		c0.2,2,0.4,3.9,0.6,5.9c0.3,4.3,0.7,8.7,0.9,13c0.1,2.2-0.4,4.3-0.5,6.5c-0.1,1.7-0.1,3.4,0,5.2c0.1,2.1,0.4,4.1,0.6,6.2
		c0.4,3.4,0.8,6.9,1.2,10.3c0.3,2.2,0.5,4.5,0.9,6.7c0.1,0.6,0.6,1.6,1.1,1.7c1,0.2,1.2,0.8,0.9,1.4c-0.2,0.5-1.1,1.1-1.6,1
		c-4.2-1.2-8.5-0.4-12.7-0.5c-2.8,0-5.6,0.5-8.3,0.8c-0.5,0-1.1-0.3-1.7-0.2c-3.2,0.1-6.4,0.1-9.6,0.3c-3.4,0.2-6.8,0.6-10.1,0.9
		c-2.4,0.2-2.8,0.6-2.7,3c0.1,3.4,0.4,6.8,0.6,10.3c0.1,1.3,0.9,1.7,2.3,1.5c1.6-0.2,3.2-0.2,4.8-0.3c3.2-0.3,6.4-0.6,9.5-0.9
		c0.4,0,0.9,0.4,1.3,0.7c-0.4,0.4-0.8,1-1.2,1c-2.1,0.2-4.2,0.2-6.2,0.4c-2.8,0.2-5.7,0.5-8.5,0.9c-2.5,0.4-3.5-0.3-3.6-2.9
		c-0.2-3.6-0.4-7.2-0.6-10.9c-0.1-2.3-0.4-2.4-2.9-1.9c-1.3,0.3-2.7,0.2-4.1,0.3c-2.2,0.1-4.4,0.1-6.6,0.3
		c-4.1,0.5-8.4-0.2-12.3,1.5c-1.2,0.5-2.1,1.5-3.1,2.4c-0.1,0.1,0,0.4,0,0.6c0.2,0,0.5,0,0.7,0c1.6-0.5,3.2-1.3,4.9-1.6
		c2-0.4,4.1-0.4,6.1-0.5c1.1,0,1.5,1.1,0.7,2c-0.8,0.9-1.9,1.5-2.8,2.2c-0.3,0.3-0.6,0.6-0.8,0.9c0.4,0,0.8,0.1,1.1,0.1
		c0.9-0.1,1.8-0.2,2.7-0.4c1.3-0.2,2.3,0.5,2.6,1.5c0.3,1.2-0.4,2.2-1.6,2.7c-0.9,0.4-1.8,0.8-2.7,1.2c-0.3,0.1-0.5,0.3-0.8,0.5
		c0.3,0.1,0.5,0.3,0.8,0.4c0.5,0.1,1,0.3,1.5,0.3c1.2-0.1,1.8,0.7,2.2,1.5c0.4,0.9-0.1,1.7-1,2.2c-1,0.5-2.1,1-3.2,1.5
		c-0.7,0.3-1.3,0.3-0.9,1.4c0.6,1.5-1.2,3.7-2.4,4.2c-1.1,0.5-2.3,0.9-3.5,0.9c-2.9,0-5.8,0.1-8.6-0.3c-1.8-0.2-3.5-1.1-5.2-1.9
		c-3.1-1.4-6.2-2.2-9.6-1.4C-149,112-151,112.2-153.1,112.5 M-174,10c-0.8,0-1.5,0-2.3,0c-1.7,0-2.2,0.5-2.1,2.1
		c0.3,8.5,0.5,17,0.6,25.4c0.1,3.1,0,6.2,0,9.3c0,1.6-0.3,3.2-0.3,4.8c-0.1,3-0.2,5.9-0.2,8.9c0,2.1,0.2,4.1,0.3,6.2
		c0,2.9-0.3,5.9,0.1,8.8c0.6,4,1.3,7.9,1.1,12c0,0.5,0.2,1.2,0.5,1.6c1.2,1.3,2.4,2.8,3.8,3.8c1.7,1.2,3.6,2.4,5.6,3
		c3.8,1.2,7.7,0.7,11.6,0.4c3.9-0.4,7.8-1.1,11.7-1.1c2.5,0,4.3-1.4,6.5-1.9c0.3-0.1,0.6-0.7,0.8-1c-0.4-0.1-0.9-0.4-1.3-0.4
		c-1.6,0.1-3.1,0.5-4.7,0.6c-3.2,0.2-6.3,0.2-9.5,0.3c-1.3,0.1-2.6,0.2-3.9,0.3c-2.9,0.2-5.8,0.5-8.8,0.5c-0.5,0-1.5-0.7-1.6-1.1
		c-0.1-0.9,0.8-1,1.6-0.9c1.3,0.2,2.6,0.6,4,0.6c2.5-0.1,4.9-0.4,7.4-0.6c1.8-0.1,3.6-0.2,5.4-0.3c3.7-0.3,7.5-0.6,11.2-0.9
		c0.3,0,0.7,0,0.8,0.2c0.6,1.1,1.4,0.4,2,0.1c2.6-1.5,5.3-1.9,8.2-1c0.3,0.1,0.7,0.2,1,0.2c2.4-0.4,4.8-1,7.2-1.2
		c5.3-0.4,10.6-0.6,15.8-0.9c2.2-0.1,4.4-0.4,6.7-0.6c3.8-0.4,7.7-0.8,11.5-1.2c2.3-0.2,4.5-0.2,6.8-0.3c4.1-0.2,8.2-0.4,12.4-0.6
		c3.1-0.1,6.1-0.2,9.2-0.3c0.9,0,1.4-0.3,1.3-1.4c-0.2-2.1-0.4-4.2-0.7-6.3c-0.3-2.7-0.9-5.4-1.1-8.1c-0.3-3-0.4-6-0.6-9.1
		c-0.1-1.9-0.4-3.7-0.3-5.6c0.1-2.3,0.8-4.7,0.8-7c0-3.3-0.5-6.6-0.8-9.8c-0.3-3-0.6-6.1-0.9-9.1c-0.4-5.4-0.8-10.9-1.2-16.3
		c-0.1-1-0.1-2,0-3c0.1-1.1-0.6-1.3-1.4-1.2c-2.8,0.2-5.6,0.5-8.5,0.6c-6.5,0.2-13.1,0.4-19.6,0.6c-5.4,0.1-10.8,0.2-16.2,0.3
		c-3.1,0.1-6.1,0.2-9.2,0.3c-3.4,0.1-6.7,0.3-10.1,0.3c-5.9,0-11.8-0.2-17.8-0.3c-2.5,0-4.9,0.2-7.4,0.3c-1.1,0-2.2,0-3.4,0
		c-3.8,0.1-7.5,0.2-11.3,0.3c-2.1,0-4.1,0-6.2,0C-170.8,10-172.2,10-174,10 M-235,118.2c1.7-0.2,3.4-0.4,5.2-0.6
		c4.2-0.4,8.4-0.8,12.6-1.2c3.2-0.3,6.4-0.4,9.7-0.6c0.9-0.1,1.3-0.3,0.8-1.3c-0.2-0.4-0.4-0.9-0.3-1.3c0.6-1.9,1.3-3.9,2.1-5.7
		c0.7-1.7,1.6-1.8,2.8-0.4c1.6,2,3.5,3.9,4.4,6.4c0.6,1.6,1.9,2.4,3.6,2.3c1.3-0.1,2.6-0.2,3.9-0.3c0.7,0,1.4,0.3,2.1,0.3
		c2.2-0.1,4.3-0.4,6.5-0.6c2.1-0.2,4.2-0.3,6.4-0.6c3.4-0.4,6.7-1,10-1.5c3.3-0.5,6.6-0.8,9.9-1.6c4.8-1.1,9.6-2.1,14.6-1.7
		c0.3,0,0.6,0,0.8,0.1c1.9,0.9,3.8,2,5.8,2.7c1.3,0.5,2.7,0.6,4,0.7c0.9,0.1,1.8-0.1,2.6,0c2.3,0.3,4.6,0.9,6.7-0.6
		c0.6-0.4,1-1.4,1-2.1c0-0.5-0.8-1.4-1.3-1.4c-1.6-0.1-3.3,0.1-4.9,0.1c-0.6,0-1.1-0.7-1.7-1.1c0.3-0.4,0.6-1.1,0.9-1.1
		c1.6,0,3.2,0.2,4.8,0.2c2.3,0.1,4.6,0.4,6.7-0.9c0.3-0.2,0.6-0.7,0.6-1c0-0.3-0.5-0.7-0.8-0.8c-1.2-0.2-2.5-0.4-3.8-0.3
		c-2.7,0.2-5.5,0.6-8.2,0.8c-0.5,0-1.1-0.5-1.6-0.7c0.4-0.4,0.9-0.9,1.4-1c1.8-0.4,3.6-0.7,5.5-0.9c2.7-0.4,5.3-1.2,7.6-2.6
		c0.4-0.2,0.6-0.7,0.9-1.1c-0.4-0.2-0.9-0.5-1.3-0.5c-2,0.3-4,0.6-6,1.1c-2.1,0.6-4.2,1.5-6.4,2c-0.5,0.1-1.1-0.4-1.7-0.6
		c0.3-0.4,0.5-0.9,0.9-1.1c1.3-0.6,2.7-1.2,4.1-1.7c2.5-0.8,4.9-2,6.9-3.6c0.3-0.2,0.5-0.5,0.7-0.8c-0.1,0-0.3-0.1-0.4-0.1
		c-1.2,0-2.4,0-3.5,0.2c-4.1,0.8-7.8,2.3-11.4,4.4c-0.6,0.4-1.2,0.6-1.7-0.1c-0.5-0.9,0.3-1.1,0.8-1.5c1.7-1.5,3.4-3.1,5.1-4.7
		c0.6-0.6,0.3-1.3-0.5-1.3c-2.8,0.1-5.4,0.5-7.1,3.2c-0.3,0.5-0.8,1.1-1.3,1.2c-1.9,0.6-3.8,1.3-5.8,1.5c-4,0.5-8.1,0.6-12.1,1
		c-1.3,0.1-2.5,0.1-3.8,0.3c-4,0.7-7.9,0.4-11.5-1.4c-4-1.9-7.3-4.6-9.9-8.3c-2.2-3.1-4.6-6.1-6.7-9.2c-1.7-2.5-3.3-5-4.4-7.8
		c-1.1-2.8-2.5-5.2-4.4-7.5c-0.9-1.2-2-2.3-3.2-3.1c-4.3-2.6-8.9-4.4-14-4.2c-1.3,0.1-1.3-0.9-1-1.3c0.8-0.8,0.5-1.5,0.2-2.2
		c-0.3-1.1-0.7-2.1-0.9-3.2c-0.2-1.1-0.7-1.3-1.8-1c-3.6,0.9-7.1,1.8-10.8,2.2c-2.1,0.2-4.4-0.3-6.5-0.9c-1.1-0.3-1.3,0.2-1.4,0.8
		c-0.2,1.3-0.2,2.7-0.3,4.1c-0.1,0.5-0.2,1.3-0.4,1.4c-0.5,0.1-1.2,0-1.8-0.2c-0.7-0.2-1.4-0.8-2.2-0.8c-1.9-0.1-3.7-0.1-5.6,0
		c-2.5,0.2-4.7,1.3-6.4,3.1c-2.4,2.5-3.7,5.8-4.3,9.2c-0.5,2.9-0.9,5.8-1.2,8.7c-0.5,4.1-0.8,8.3-1.2,12.4c-0.2,2.3-0.6,4.5-0.9,6.8
		c-0.3,2.5-0.7,5.1-0.8,7.6c-0.1,2.4,0.2,4.9,0.2,7.3c0,2.5-0.2,4.9-0.3,7.4c-0.1,1.1,0.5,1.6,1.6,1.6c2.4-0.1,4.8-0.2,7.2-0.3
		C-245.6,118.6-240.4,118.4-235,118.2 M-238.3,46.4c0.3,0.2,0.6,0.5,1,0.6c2.2,0.6,4.5,1.3,6.8,1.8c1.3,0.3,2.8,0.7,4.1,0.6
		c2.5-0.2,5-0.6,7.5-1.2c2.5-0.6,5.2-1.2,7.4-2.5c1.7-1,2.9-2.9,4.1-4.5c1.1-1.4,2.1-2.9,1.8-4.8c-0.2-2.2,0.9-3.5,2.5-4.8
		c2.6-2,3-3.7,1.5-6.2c-0.8-1.3-1.7-2.6-2.5-3.9c-1.9-3.1-2.5-6.4-1.5-9.8c0.5-1.5-0.1-1.7-1.3-1.6c-4,0.4-7.8,1.3-11.4,3
		c-1.9,0.9-3.9,2-5.2,3.5c-1.1,1.3-1.9,2-3.6,2c-2.2-0.1-3.5,2.1-2.9,4.1c0.5,1.5,1.3,2.5,2.9,2.8c0.3,0.1,0.5,0.3,0.7,0.4
		c-0.2,0.2-0.5,0.3-0.7,0.5c-0.6,0.5-1.3,1-1.9,1.5c-0.5,0.4-0.8,1.1-1.3,1.4c-1.1,0.8-1.8,1.8-1.8,3.3c0,1.5,0.2,3.1,0,4.6
		c-0.4,2.7-0.3,3.8-3.9,3.6c-1.2,0-2.4,0-3.6,0c-1.5,0-2,0.7-1.3,2C-240.4,44-239.4,45.1-238.3,46.4 M-220.6,12.4
		c2.4-0.8,4.7-1.8,7.1-2.5c3.5-1,7.1-2,10.8-0.3c0.4,0.2,1.8,0.7,1.8-0.5c-0.1-1.6-0.2-3.4-1.6-4.5c-1.3-1.1-2.7-2.1-4.2-3
		c-4.1-2.6-8.4-4.3-13.4-3.3c-1,0.2-2.1,0.4-2.6,1.6c-0.1,0.3-0.6,0.8-0.8,0.8c-0.7-0.1-1.6-0.3-1.9-0.7c-0.7-1.1-1-2.4-1.6-3.5
		c-0.2-0.4-0.5-0.7-0.8-1c-0.1,0.4-0.2,0.9-0.4,1.3c-0.2,0.7-0.3,1.6-0.8,2c-0.2,0.2-1.2-0.3-1.9-0.6c-0.4-0.1-0.8-0.3-1.2-0.4
		c0.2,0.5,0.3,1,0.5,1.4c0.1,0.2,0.5,0.2,0.6,0.3c0.2,0.3,0.4,0.6,0.4,0.9c0,0.2-0.3,0.4-0.6,0.5c-1.9,0.8-3.8,1.5-5.6,2.4
		c-2,1.1-4.1,2.1-5.6,3.7c-3.9,4.1-5.9,9.1-6.1,14.7c-0.2,4,0.2,7.9,0.6,11.9c0.2,1.9,0.9,3.7,1.4,5.6c0.2,0.9,0.8,0.9,1.5,0.7
		c0.9-0.3,1.8-0.7,2.7-0.7c2.3-0.1,4.6,0,7-0.1c0.5,0,1.3-0.8,1.4-1.3c0.3-1.3,0.5-2.7,0.3-4.1c-0.3-2.4,0.5-4.3,2.4-5.8
		c0.2-0.1,0.4-0.3,0.4-0.4c0.1-0.8,0.3-1.6,0.2-2.4c-0.1-0.6-0.7-1.1-0.8-1.7c-0.1-1.2-0.4-2.6,0-3.6c0.8-1.8,2.6-2.5,4.4-2.9
		c0.7-0.2,1.3-0.4,1.9-0.9C-223.6,14.9-222.2,13.7-220.6,12.4z"/>
	<path class="st0" d="M-136,124.2c-3.6,0.1-7,0.2-10.4,0.3c-3.3,0.1-6.5,0.1-9.8,0.3c-4,0.3-8,0.8-12,1.2c-1.9,0.2-3.8,0.5-5.8,0.6
		c-0.4,0-0.8-0.6-1.2-0.9c0.3-0.3,0.6-0.6,0.9-0.9c2.1-1.3,4.2-2.5,6.3-3.7c3.8-2.1,7.4-4.5,11.6-5.6c0.2,0,0.3-0.2,0.5-0.3
		c0.5-0.1,0.9-0.1,1.4-0.2c-0.3,0.5-0.6,1.2-1.1,1.4c-1.2,0.5-2.6,0.6-3.7,1.2c-3.7,1.9-7.3,4-10.9,6c-0.3,0.2-0.5,0.6-0.7,0.9
		c0.4,0.1,0.7,0.3,1.1,0.3c2-0.3,4.1-0.7,6.1-0.9c3.1-0.2,6.1-0.3,9.2-0.3c4.9-0.1,9.8-0.2,14.7-0.3c7.1-0.1,14.1-0.2,21.2-0.3
		c5.6-0.1,11.3-0.4,16.9-0.6c2.9-0.1,5.9-0.3,8.8-0.6c5.8-0.7,11.5-1,17.4-0.9c0.7,0,1.4-0.3,2.1-0.2c0.5,0.1,0.9,0.7,1.3,1
		c-0.4,0.2-0.8,0.7-1.2,0.7c-2.2,0-4.4-0.3-6.5-0.2c-2.5,0.1-5,0.4-7.6,0.6c-1.6,0.1-3.2,0.2-4.8,0.3c-2.3,0.1-4.6,0.2-6.9,0.3
		c-3.6,0.1-7.1,0.2-10.7,0.3c-3.8,0.2-7.6,0.5-11.5,0.6C-126.1,124.3-131,124.2-136,124.2z"/>
	<path class="st0" d="M-89.1,112.2c5,0,9.8,0.1,14.6,0c2.6-0.1,5.3-0.6,7.9-0.8c0.5,0,1,0.4,1.5,0.6c-0.2,0.4-0.4,0.9-0.8,1.1
		c-0.5,0.2-1.1,0.3-1.7,0.3c-6.6,0-13.1,0-19.7,0c-3.1,0-6.1,0.1-9.2,0.3c-3,0.1-6,0.4-9.1,0.6c-3.9,0.3-7.9,0.6-11.8,0.9
		c-0.2,0-0.4,0.1-0.6,0c-0.4-0.2-0.9-0.5-1.3-0.8c0.4-0.2,0.8-0.6,1.2-0.7c1.3-0.2,2.6-0.3,3.9-0.3c2.6-0.1,5.2-0.2,7.8-0.3
		c3.9-0.2,7.7-0.4,11.6-0.6C-92.8,112.4-91,112.3-89.1,112.2z"/>
	<path class="st0" d="M-100.2,28.1c0.3-1,0.4-1.9,0.7-2.8c0.1-0.3,0.6-0.5,0.9-0.8c0.2,0.3,0.7,0.7,0.6,1c-0.1,0.9-0.3,1.7-0.6,2.6
		c-1.2,4.3-2.4,8.6-3.6,12.9c-1.5,5.4-3,10.9-4.5,16.3c-1.2,4.6-2.4,9.3-3.6,14c-0.2,0.9,0.3,2.1-0.8,2.6c-0.3,0.1-0.8,0.1-1.1,0
		c-0.1,0-0.1-0.6-0.1-0.8c0.9-3.8,1.9-7.5,2.9-11.3c0.9-3.4,1.9-6.7,2.8-10.1c1.8-6.4,3.5-12.8,5.2-19.2
		C-100.7,31.2-100.5,29.7-100.2,28.1z"/>
	<path class="st0" d="M-138.6,47.3c1.7-2.1,3.4-4.2,5.1-6.3c0.2-0.3,0.5-0.6,0.7-0.7c0.3-0.1,0.8-0.1,1.1,0c0.1,0.1,0.2,0.7,0,0.9
		c-1.4,1.7-2.8,3.5-4.2,5.1c-1.7,1.9-3.4,3.7-5.2,5.5c-1.3,1.4-1.2,1.8,0.6,2.2c3.4,0.8,6.9,1.4,10.4,2.1c1.1,0.2,2.3,0.3,3.3,0.6
		c0.3,0.1,0.5,0.7,0.8,1c-0.5,0.3-1,0.8-1.5,0.7c-2.6-0.4-5.2-0.9-7.8-1.5c-2.7-0.6-5.5-1.3-8.2-2c-0.5-0.1-1.2-0.6-1.4-1.1
		c-0.1-0.2,0.5-0.9,0.9-1.3C-142.2,50.9-140.5,49.2-138.6,47.3z"/>
	<path class="st0" d="M-84.8,51.8c-2,2.5-3.9,4.9-5.8,7.3c-0.2,0.3-0.4,0.7-0.7,0.9c-0.6,0.3-1.3,0.4-1.9,0.7
		c0.3-0.5,0.4-1.1,0.8-1.5c2.2-2.9,4.4-5.7,6.7-8.5c1.6-1.9,3.2-3.7,4.9-5.5c0.8-0.8,0.4-1.4-0.2-1.8c-3.2-2-6.5-4.1-10.3-4.9
		c-0.4-0.1-0.7-0.8-1-1.3c0.6-0.1,1.2-0.5,1.7-0.4c4.6,1.2,8.3,3.9,12.2,6.5c0.9,0.6,0.5,1.2,0,1.8c-1.2,1.3-2.4,2.6-3.6,3.9
		C-83.1,49.9-83.9,50.8-84.8,51.8z"/>
	<path class="st0" d="M-222.6,22.1c0.3,1.4-0.8,1.6-1.6,2c-0.3,0.1-0.8-0.2-1.2-0.3c0.2-0.3,0.4-0.6,0.6-0.8
		c0.1-0.2,0.2-0.4,0.4-0.6c-0.3-0.1-0.5-0.2-0.8-0.3c-0.4-0.2-0.8-0.5-1.2-0.7c0.5-0.2,1-0.6,1.4-0.4
		C-224.2,21.1-223.5,21.6-222.6,22.1z"/>
</g>
<g id="Shape_4">
	<path class="st0" d="M31.9-218.1c-15.1-1.8-30.7,1.8-43.5,10c-10.9,7-20.2,18.5-19.8,31.4c0.2,6.5,2.8,13.4-0.1,19.3
		c-3.8,7.9-7.7,15.8-11.5,23.6c-0.5,1.1-1.1,2.4-0.4,3.4c0.6,0.9,1.8,1.2,2.8,1.3c4.1,0.5,8.3,0.5,12.4,0.1
		c-0.4,4.6-0.8,9.3-0.1,13.9c0.8,4.6,2.9,9.1,6.6,11.9c5.4,4,12.8,3.5,19.5,2.9c12.7-1.2,25.4-2.5,38-3.7c-0.2,1.1-1.5,1.4-2.6,1.6
		c-8.5,1-17.1,2-25.6,3.1C5.8-99,5.1-96.6,5-94.7C3.6-78.5,2.2-62.3,0.9-46.1c-1.2-7.6-0.5-15.4,0.3-23.1c1-9.9,2-19.8,3-29.7
		c-2.8,0.2-5.5,0.3-8.3,0.5c-6.3,0.3-13.1,0.5-18.3-3.1c-3.8-2.7-6-7.1-7-11.6c-1-4.5-0.9-9.2-0.7-13.9c-3.4-0.1-6.8-0.2-10.2-0.3
		c-1.5-0.1-3.3-0.2-4.2-1.5c-0.7-1-0.5-2.4-0.2-3.6c2.6-10.4,11.2-18.9,12.4-29.5c0.6-5-0.6-10-0.5-15c0.2-12.5,8.1-24,18.4-31.1
		C-4-215.3,8.5-218.4,21-220.1C24.8-220.6,29.2-220.8,31.9-218.1z"/>
	<path class="st0" d="M82.7-137.8c1.6-11.1,0.9-22.4-0.7-33.4c-0.6-3.9-1.2-7.9-2.8-11.5c-1.6-3.6-4.2-6.8-7.3-9.1
		c-4.8-3.6-11.2-5.2-17.1-3.8c-5.9,1.4-11,6-12.5,11.8c-0.3,1.1-1.1,2.5-2.1,1.9c1.6-9.6,11.7-16.6,21.4-15.6
		c9.7,1,17.9,9,20.4,18.4c5.6,21.7,3.9,45.3-4.8,66c-4.3,10.2-10.3,19.7-14.6,29.9c-4.3,10.2-6.9,21.7-4.1,32.5
		c-1.7-1.3-2.3-3.7-2.5-5.8c-0.9-8.3,1-16.6,4.1-24.4c3.1-7.7,7.2-15,11-22.4C76.3-114.3,80.9-125.7,82.7-137.8z"/>
	<path class="st0" d="M65.4-219.7c-13.2-0.7-27.1,1.9-37.5,10.1c-11,8.7-16.9,23.4-15,37.3c1,7.1,3.8,13.7,6.6,20.2
		c4.8,11.3,17.2,19,29.5,18.3c0.5-5.8,6-10.7,11.8-10.7c5.8,0.1,11.2,5.1,11.6,10.9c0.5,5.8-4,11.6-9.7,12.6
		c-5.7,1-11.9-2.8-13.6-8.3c-0.4-1.3-0.9-3-2.2-3.1c-10.1-0.9-20.3-5.2-25.9-13.6c-1.9-2.8-3.1-5.9-4.4-9.1
		c-1.9-4.8-3.8-9.6-4.8-14.7c-3-15.6,3.7-32.7,16.6-42c10.5-7.5,23.9-9.9,36.8-9.3c3.5,0.2,6.9,0.5,10.2,1.6
		c9.6,3.1,16.1,11.8,21.3,20.5c3.2,5.3,6.1,10.8,8,16.7c3.9,11.8,9,23.1,15.3,33.8c0.5,0.9-0.8,1.6-1.8,1.8
		c-2.9,0.5-5.7,0.9-8.6,1.4c1.7,8.2,3.4,16.4,5,24.5c1,4.6,1.3,10.7-3,12.8c-9.4,4.7-19.7,7.7-30.1,9c1.7,15,2,30.1,1.1,45.2
		c-2.2-8.4-1.1-17.4-1.1-26.1c0-6.6-0.7-13.2-2.1-19.7c-1.6,0.7-3.6,0.2-4.7-1.2c12.1,0.1,24.3-2.6,35.2-7.8c4.4-2.1,4-8.4,3-13.1
		c-1.6-7.4-3.2-14.8-4.8-22.2c-0.1-0.6-0.4-1.3-1-1.3c-3.4,0.1-5.7-4.7-3.6-7.4c-0.6,3,2.5,5.8,5.5,6.1c3.1,0.3,6.1-1,8.9-2.3
		c-3.8-6.8-7.2-13.7-10.2-20.9c-6.8-16.4-12.2-34.9-26.7-45.2c-1.9-1.3-3.9-2.5-6-3.2C72-219.2,68.7-219.5,65.4-219.7 M50.5-131.4
		c0.2,4.6,4.2,8.4,8.6,9.5c1,0.2,2,0.4,3,0.2c1.9-0.3,3.6-1.4,4.9-2.9c3.1-3.4,4.5-8.5,2.7-12.8c-1.7-4.3-6.9-7-11.2-5.5
		c-1.3,0.4-2.5,1.2-3.5,2.1C52.3-138.4,50.3-135,50.5-131.4z"/>
	<path class="st0" d="M39.4-166.5c0.1-0.8-0.5-1.6-0.4-2.4c0.1-1.4,1.9-1.8,3.2-1.9c0.8,0,1.8,0,2.3,0.7c0.3,0.4,0.3,1,0.2,1.5
		c-0.1,0.7-0.1,1.3-0.2,2c-0.1,0.7-0.2,1.6-0.9,1.9c-0.3,0.2-0.7,0.2-1.1,0.2c-0.7,0-1.5,0-2.1-0.3C39.8-165,39.3-165.7,39.4-166.5
		 M40.9-167.2c0.2,0.7,0.8,1.3,1.5,1.6c0.8-0.9,1.2-2.1,1.1-3.2c-0.5-0.5-1.4-0.6-2-0.2C40.9-168.7,40.6-167.9,40.9-167.2
		L40.9-167.2z"/>
	<path class="st0" d="M40.4-178.6c1.6-0.1,3.4,1,3.7,2.6c0.3,1.6-1.3,3.4-2.9,3c-0.8-0.2-1.4-0.8-1.9-1.5c-0.8-1-1.4-2.4-0.7-3.4
		C39.1-178.3,39.8-178.5,40.4-178.6 M40.2-176.6c0.2,1,0.7,2.2,1.7,2c0.7-0.2,0.8-1.3,0.4-1.9c-0.5-0.6-1.3-0.8-2-1
		c-0.1,0.3-0.2,0.6-0.2,0.9L40.2-176.6z"/>
	<path class="st0" d="M64.5-164.9c-5.6,1.7-12.5-0.6-15.2-5.8c-2.4-4.6-1-10.7,3-13.9c4-3.2,10.3-3,14.2,0.4c1,0.9,1.8,1.9,2.6,2.9
		c0.6,0.8,1.3,1.7,1.6,2.7c0.5,1.5,0.3,3.2,0,4.8C70-170,68.1-166,64.5-164.9 M49.9-173.9c0.7,3.6,3.7,6.6,7.1,7.8
		c2.9,1,6.4,0.8,8.7-1.2c1.9-1.5,2.8-3.9,3.5-6.2c0.4-1.5,0.7-3.4-0.6-4.2c-0.8-0.5-0.9-1.6-1.2-2.5c-0.9-2.9-4-4.8-7-5.1
		c-3-0.2-6,0.9-8.1,3.1C50.2-180.1,49.3-176.9,49.9-173.9z"/>
	<path class="st0" d="M56.1-134.4c0.4-2.1,3.5-3,5.1-1.5c1.6,1.5,1.2,4.4-0.5,5.7c-0.3,0.2-0.6,0.4-1,0.4c-0.6,0.1-1.1-0.3-1.5-0.6
		C56.9-131.3,55.8-132.8,56.1-134.4 M57.9-132.2c0.7,1,2.5,0.8,3.1-0.3c0.5-1.1-0.5-2.6-1.8-2.5C58-134.9,57.2-133.2,57.9-132.2z"/>
</g>
<g>
	<path class="st0" d="M-293.2-171.6c0.2,0.7-0.9,1.2-1.5,0.7s-0.6-1.3-0.5-2.1c0.1-2.3,0.2-4.5,0.3-6.8c0.1-1.8,0.1-3.7-0.5-5.4
		s-2.2-3.2-4-3.1c-1.2,0-2.3,0.7-3.5,0.8c-1.2,0.1-2.6-0.9-2.3-2c0.4-1.1-0.5-2.3-1.6-2.8c-1.1-0.4-2.3-0.3-3.5-0.1
		c-1.2,0.1-2.7,0.7-2.5,1.9c0.3,1.8-1.8,3-3.5,3.1c-1.8,0.1-3.6-0.4-5.3,0.2c-1.9,0.6-3.1,2.4-3.7,4.3c-0.5,1.9-0.4,3.9-0.3,5.8
		c0.1,1.7,0.2,3.4,0.3,5.1c0,0.7,0.1,1.4,0.7,1.8c0.4,0.2,0.8,0.3,1.2,0.3c10.1,0.3,20.3,0.7,30.4,1c-0.1,1-1.4,1.3-2.5,1.3
		c-9.9-0.2-19.9-0.5-29.8-1c-0.4,0-0.8,0-1.1-0.3c-0.5-0.4-0.6-1.1-0.6-1.8c0-2.8-0.1-5.6-0.1-8.4c0-3.4,0.4-7.7,3.5-9
		c1.3-0.6,2.8-0.5,4.2-0.4s3-0.1,4-1.1c1.1-0.9,1.3-2.9,0.2-3.7c-3.9-2.7-5.3-8.5-2.8-12.6c2.4-4.1,8.2-5.8,12.4-3.6
		s6.2,7.8,4.3,12.2c-1.2,2.7-3.7,5.5-2.5,8.3c1.3-0.4,2.7-0.6,4.1-0.5c1.1,0.1,2.3,0.3,3.3,0.9c2.6,1.6,3.2,5.1,3,8.1
		C-293.5-177.6-294.2-174.4-293.2-171.6 M-304.5-207.1c-0.6-0.5-1.3-0.7-2-0.9c-1.3-0.4-2.7-0.6-4.1-0.6c-1.4,0-2.9,0.2-4,1
		c-0.9,0.6-1.5,1.5-2,2.4c-1.9,3.6-1,8.6,2.5,10.6c2.1,1.2,4.6,1.1,7,1c2.4-0.1,4.5-2.1,5.2-4.5s0.1-4.9-1-7.1
		C-303.5-205.9-303.9-206.6-304.5-207.1z"/>
	<path class="st0" d="M-234-143.7c-0.1,1.2-1.8,1.5-3,1.5c-28.5,0.1-57,0.1-85.5,0.2c0.3-1.2,1.8-1.4,3.1-1.4
		C-290.9-143.5-262.4-143.6-234-143.7z"/>
	<path class="st0" d="M-177.8-47.3c1,0,2.1-0.1,2.6-0.9c0.2-0.4,0.2-0.9,0.2-1.3c0.1-20.3,0.1-40.6,0.2-60.9
		c-14.8,9.3-29.5,18.6-44.3,27.9c-1.1,0.7-2.5,1.4-3.7,0.8c-15.5-7.8-30.8-16.2-45.7-25.1c-0.4,20.7-0.9,41.4-1.3,62
		c-1.7-6.5-1.5-13.2-1.3-19.9c0.4-13.7,0.8-27.3,1.2-41c0-0.8,0.1-1.6,0.5-2.3c0.7-0.9,1.9-1.1,3.1-1.2c18.8-1.8,37.6-2.8,56.5-2.8
		c-0.8-29-1.6-57.9-2.4-86.9c-7.2-1.2-14.7-1.1-21.9,0.3c-1.7,0.3-2.5-2.1-2.5-3.9c0-6.5-0.1-13-0.1-19.6c-33.2-0.5-66.4-1-99.6-1.5
		c-0.9,0-2.2,0.3-2.2,1.2c1.5,51-9.5,102.3-3,152.9c23.2-1,46.5-1.2,69.8-0.4c0,0.9-1.2,1.1-2,1.1c-23.1,0.1-46.2,0.3-69.2,0.4
		c-6.8-51.8,5.4-104.4,2.9-156.6c34.3,0.5,68.6,0.9,102.9,1.4c2.9,0,5.2,2.1,7.3,4.1c5.7,5.4,11.4,10.8,17.1,16.2
		c1.2,1.1,2.4,2.4,2.4,4.1c0,29.1,0.9,58.2,2.6,87.3c11-0.5,21.9-0.9,32.9-1.4c1.2-0.1,2.8,0.4,2.7,1.5c-2.2,20.7-2.1,41.7,0.2,62.4
		c0.2,1.9,0.3,4.1-1.1,5.4c-0.3-1.6-2.3-1.9-3.9-1.9c-30.6,0.4-61.2,0.9-91.8,1.3C-238.6-46.8-208.2-47.7-177.8-47.3 M-222.5-83.7
		c0.4,0.2,0.8,0.6,1.2,0.4c15.3-9.5,30.7-19,46-28.5c-26.5,1-53,1.9-79.5,2.9c-4.2,0.2-8.5,0.3-12.7,0.5
		C-253.2-99-238.1-90.8-222.5-83.7 M-232.9-200.3c3.9-0.9,7.9-0.9,11.9-0.9c2.7,0,5.4,0,8.1,0c-6.9-6.5-13.8-13.1-20.7-19.6
		c-0.4-0.4-1.1-0.8-1.4-0.3c-0.2,0.2-0.2,0.5-0.2,0.7c0,5.5-0.1,11-0.1,16.5c0,0.8,0,1.7,0.4,2.5
		C-234.5-200.7-233.7-200.1-232.9-200.3z"/>
	<path class="st0" d="M-237.1-129.3c1.2,0,2.8,0.3,2.9,1.5c-29,0.1-58,0.3-87,0.4c-0.4-0.8,0.9-1.4,1.8-1.4
		C-292-129-264.6-129.2-237.1-129.3z"/>
	<path class="st0" d="M-231.6-155.1c-21.5,2.7-43.2,0.8-64.9,0.5c-8.8-0.1-17.5,0-26.3,0.3c0.5-1.4,2.4-1.6,3.9-1.6
		C-289.8-155.6-260.7-155.3-231.6-155.1z"/>
	<path class="st0" d="M-286.2-172.7c0-1,1.3-1.4,2.4-1.4c19.2-0.6,38.3-1.1,57.5-1.5c-0.9,1.3-2.7,1.5-4.3,1.5
		C-249.2-173.6-267.7-173.1-286.2-172.7z"/>
	<path class="st0" d="M-321.3-91.8c13.4-1,26.8-1.1,40.2-0.1c0.8,0.1,1.8,0.2,2.1,1c-1,0.9-2.6,0.9-4,0.8c-13.5-1-27-0.9-40.5,0.4
		c-0.3-0.5-0.1-1.2,0.4-1.6S-321.9-91.8-321.3-91.8z"/>
	<path class="st0" d="M-280.9-193.8c-1.2,0.1-2.7-0.1-3.1-1.2c5.2-0.4,10.5-0.7,15.7-0.8c0.5,0.8-0.8,1.4-1.7,1.5
		C-273.7-194.2-277.3-194-280.9-193.8z"/>
	<path class="st0" d="M-277.6-185.9c-2.6,0.1-5.3,0.2-7.9,0.3c-0.9,0-2.1-0.4-1.8-1.2c4.8-0.6,9.6-0.7,14.5-0.4
		C-274.1-186.1-275.9-186-277.6-185.9L-277.6-185.9z"/>
	<path class="st0" d="M-323.3-106.7c-0.6-0.7,0.7-1.4,1.6-1.4c14.1,0.7,28.2,1.4,42.3,2.1c1.2,0.1,2.6,0.2,3.3,1.2
		c-1,0.7-2.4,0.7-3.7,0.6C-294.3-104.9-308.8-105.8-323.3-106.7z"/>
	<path class="st0" d="M-249.9-196c-2.8,0.1-5.5,0.3-8.3,0.4c-0.5,0-1,0-1.4-0.2c-0.4-0.2-0.7-0.9-0.4-1.2c3.2-0.1,6.5-0.3,9.7-0.4
		c0.7,0,1.6,0.3,1.4,0.9C-249-196.1-249.5-196-249.9-196z"/>
	<path class="st0" d="M-263.6-187.7c3.4-0.4,6.8-0.8,10.2-1.2c0.4,0,1,0,1.1,0.3c0.3,0.6-0.6,1-1.2,1.1c-3,0.3-5.9,0.7-8.9,1
		c-0.5,0.1-1,0.1-1.4-0.2S-264.1-187.6-263.6-187.7z"/>
</g>
<g id="Shape_7">
	<path class="st0" d="M172.7,165.2c0.4,1.3-0.6,2.8-1.9,3.2c-1.3,0.4-2.8,0-4-0.8c-0.8-0.5-1.5-1.2-1.4-2.1c0.1-0.9,1.7-1.2,1.8-0.3
		c0.1,0.9,0.9,1.7,1.8,1.8s1.9-0.5,2.2-1.4c-1-1.3-2.4-2.3-4-2.9c-1.5-0.5-2.6-1.8-3.6-3s-2.1-2.5-3.7-2.9c-1.5-0.4-3.5,0.5-3.6,2.1
		c1.3,2.3,5.3,1.5,6.9,3.6c1.4,1.8-0.1,4.6-2.1,5.6c-1.2,0.5-2.6,0.7-3.7,0.2s-2-1.9-1.7-3.1c0.9,0.8,1.9,1.5,3.1,1.7
		s2.5-0.3,3.1-1.4c0.5-1.1-0.1-2.6-1.2-2.8c-1.3-0.2-2.6-0.4-3.7-1s-2.1-1.7-2.1-3c0-1.9,2-3.4,4-3.4c1.9,0,3.7,1,5.3,2
		c1.5-2.6,5.4-3.5,7.9-1.9c0.8,0.5,1.3,1.9,0.5,2.2c-1.1-0.7-2.2-1.4-3.5-1.5c-1.3-0.1-2.7,0.4-3.3,1.5c-0.6,1.1-0.2,2.8,1.1,3.2
		c1.8,0.6,3.5,1.6,4.9,2.9C172.1,164.2,172.5,164.6,172.7,165.2z"/>
	<path class="st0" d="M189.9,161.4c0.1,0.9,0,1.9-0.5,2.7c-0.8,1.2-2.6,1.5-3.9,1s-2.4-1.6-3.5-2.6c-0.7-0.7-1.7,0.4-1.9,1.3
		c-0.2,0.9-0.5,2.1-1.4,2.1c-2.3-3.2-3.5-7.2-3.2-11.1c1.6,1.6,2.5,3.8,2.4,6c0,0.5-0.1,1,0.1,1.5c0.2,0.4,0.8,0.7,1.2,0.4
		c-0.5-1.3,1.2-2.4,2.6-2.1s2.2,1.5,3.3,2.3c0.7,0.6,1.9,1.2,2.7,0.6c0.5-0.3,0.6-1,0.7-1.5c0.2-1.7-0.1-3.5-0.8-5
		c-0.3-0.6-0.7-1.3-0.7-2c-0.1-0.7,0.4-1.5,1.1-1.6C189.1,156,189.8,158.7,189.9,161.4z"/>
	<path class="st0" d="M44.1,128.8c-2.8,2.6-3.9,6.4-4.6,10.1c-1.6,8.2-1.8,16.6-0.7,24.8c17.3-11.4,33.1-24.8,47.1-40.1
		c1.4,1.6-0.3,4.1-2,5.5C60.4,149.7,36,169.3,11,188c8.6-7.6,17.2-15.2,25.7-22.7c-0.9-7.9-0.8-15.8,0.2-23.6
		c0.6-4.6,1.7-9.4,4.8-12.9c4.2-4.6,11-5.6,17.2-6.3c7.3-0.8,14.7-1.7,22-2.5c-1.5-6.2-1.5-12.7-0.1-19c0.8-3.5,2.1-7,2.6-10.6
		c0.5-3.9,0.1-7.9,0-11.8c-0.2-5.2,0-10.4,0.7-15.6c0.3-2.4,0.7-4.9,2.2-6.9s4.2-3.1,6.4-2c-1.1-9.6-2.1-19.6,1.3-28.6
		c3.4-9,12.9-16.5,22.3-14.3c4.2,1,8.3-1.5,12.3-3.1c11.7-4.7,25.6-1.9,35.7,5.6c10.1,7.6,16.4,19.3,19.1,31.7
		c2.6,12.3,1.8,25.1-0.6,37.5c-2.2,11.4-5.8,22.9-4.9,34.5c0.2,2.4,1.5,5.5,3.8,5c9.4-1.9,19.6,1.1,26.5,7.8
		c6.9,6.7,10.2,16.8,8.6,26.2c-1.3-6.7-2.6-13.4-5.7-19.4c-3.2-6-8.6-11.2-15.2-12.4c-5.9-1.1-12.4,0.9-17.8-1.6
		c-1.9-0.9-3.6-2.3-5.6-3.1c-2-0.8-4.5-0.8-5.9,0.8c-13.5,16-27,31.9-40.4,47.9c-0.4,0.5-1,1.1-1.7,1c-0.5-0.1-0.8-0.5-1.1-0.9
		c-4.2-5.7-8.3-11.4-12.5-17.1c-2.2,1.2-2.8,4.1-2.4,6.6c0.3,2.5,1.3,4.8,1.4,7.3c0.2,3-1,5.9-2.1,8.6c-2.1,5.4-4.3,10.9-6.4,16.3
		c-0.8,2-2.7,4.5-4.6,3.4c-1.6-0.9-1.1-3.3-0.3-4.9c3.7-7.4,10-14.1,10.1-22.4c0-3.4-1.1-6.8-0.9-10.2c0.1-3.1,1.2-6.2,1.3-9.3
		c0.1-3.1-1.4-6.7-4.4-7.5c-4.1-1-7.3,3.3-9.3,7c-6,11.5-11.9,22.9-17.9,34.4c5.7-18.4,15.6-35.4,28.9-49.4
		c3.1-3.2,0.5-8.3-0.4-12.7c-1.6-8.2,5.1-17,13.3-17.6c0.1-2-0.7-4-2.1-5.4c-2.4,3-6,5.1-9.9,5.5c2.2-1,4.4-2.1,5.7-4.1
		c1.3-2,1.1-5.2-1.1-6.2c-2.3,1.3-5,1.9-7.6,1.8c3-0.9,5.7-2.7,7.8-4.9c-3.2,0.7-6.4,1.4-9.6,2.2c2-1.8,4.5-3.1,7.1-3.7
		c0.6-2.7-3-4.8-5.7-4c-2.7,0.8-4.4,3.2-6.1,5.5c-1.6,2.2-3.6,4.6-6.4,5.1c1-1.6,1.9-3.2,2.9-4.9c-5.6-5.9-6-16-0.9-22.4
		c-2.2-1.3-5.1,0.7-5.9,3.2c-0.8,2.5-0.1,5.1,0.2,7.6c2.1,16-8.3,32.8-2.1,47.6c-9.4-3-19.6-1.2-29.3,0.6
		C50.7,125.5,46.8,126.2,44.1,128.8 M168,59.3c-0.6-7.6-0.2-16.2-5.4-21.9c-3.1-3.4-7.6-5-11.9-6.6c-3.3-1.2-6.6-2.3-9.9-3.5
		c-3.4-1.2-7.3-2.3-10.4-0.5c-4.3,2.5-9.3,4-14.4,4.1c-2.7,0.1-3.8,3.5-4.5,6.1c-1.7,6.4-5.3,12.2-10.4,16.4c-2.4,2-2.7,5.8-1.6,8.8
		c1,3,3.1,5.5,4.9,8.1c0.9,1.4,1.8,2.9,1.9,4.6c0.1,1.7-0.9,3.5-2.6,3.9c4,2.7,7,6.7,8.5,11.2c0.4,1.2,0.8,2.5,1.7,3.3
		c1,0.8,2.8,0.7,3.2-0.5c0.7,2.7,1.4,5.5,2.1,8.2c3.9-1.6,7.4,3,11.4,4.3c4.2,1.5,8.8-0.8,12.6-3.2c4.8-3,9.5-6.3,13.1-10.7
		c2.9-3.5,5-7.5,7.1-11.5c2.4-4.7,4.9-9.3,7.3-14c0.4-0.8,0.6-2-0.2-2.2C168.7,63.4,168.1,61.1,168,59.3 M108.1,13.1
		c-4.8,0.9-8.6,4.7-10.7,9.1s-2.8,9.3-3.1,14.1c-0.4,5.2-0.4,10.5,0,15.8c0.1,1.7,0.7,3.9,2.4,4c6.4-6.3,13.2-13.4,13.9-22.3
		c0.2-2.5,2.9-4.1,5.5-4.5c2.5-0.4,5.2,0,7.6-0.8c2.8-0.9,5.2-3.1,8.1-3.7c2.1-0.4,4.3,0,6.4,0.5c6.2,1.4,12.4,2.8,18,5.8
		c5.6,3,10.5,7.7,12.2,13.8c1.8,6.1,0.3,13.2,3.8,18.5c1.3,2,0.1,4.6-1.1,6.6C167,77,162.9,84,158.8,91c-0.7,1.1-1.4,2.4-1.4,3.7
		c-0.1,1.3,0.5,2.6,1,3.8c1.9,4.4,3.9,8.9,6.7,12.8c2.9,3.9,6.8,7.2,11.5,8.4c-1.1-10.1,0.1-20.5,3.4-30.2c6-17.2,5.4-36.6-1.7-53.4
		c-4.3-10.2-11.1-19.7-20.8-25.1c-9.7-5.4-22.4-5.9-31.4,0.5C121.1,15.1,114.1,11.9,108.1,13.1 M154.6,95.1
		c-4.4,5.5-10.5,9.6-17.2,11.7c-1.5,0.5-3,0.8-4.2,1.7c-3.4,2.3-3.9,7.2-6.7,10.1c-2.3,2.4-5.8,3.2-8.7,4.9
		c-2.9,1.7-5.2,5.6-3.3,8.3c3.3,4.7,2.5,11.7-1.7,15.6c-1.3,1.2-0.3,3.3,0.7,4.7c3.3,4.6,6.7,9.1,10,13.7c0.3,0.5,0.7,1,1.3,1
		c0.7,0.1,1.3-0.5,1.7-1c13.2-15.6,26.4-31.2,39.7-46.8c0.4-0.5,0.9-1,0.8-1.7c0-1.9-3.1-1.5-4.3,0s-2.1,3.6-4,3.6
		c0.9-2.5,2.6-4.8,4.7-6.4c1.2-0.9-0.8-2.9-2.2-2.3s-2,2.2-2.9,3.5c-0.8,1.3-2.7,2.4-3.8,1.4c1.9-2,3.7-4.1,5.6-6.1
		c0.4-0.4,0.8-0.9,0.9-1.5c0.1-0.6-0.2-1.1-0.4-1.7C158.7,103.4,156.7,99.3,154.6,95.1 M106.3,112.8c0.2,1.3,1,2.5,1.9,3.5
		c1.4,1.6,3.1,3,4.9,4.1c-0.2-1.5-0.1-3.4,1.2-4.2c1-0.5,2.2-0.1,3.3,0.3c1,0.4,2.1,1.2,1.8,2.2c-0.3,0.5-1-0.1-1.5-0.5
		c-0.8-0.8-2.1-0.9-3-0.2s-0.7,2.3,0.2,2.8c0.5-1.3,2.4-1.7,3.4-0.7c0.6,0.6,1.7,0.4,2.5,0.1c2.6-1.1,4.9-3.1,6.2-5.7
		c0.3-0.5,0.5-1.1,0.4-1.7c-0.1-0.8-0.9-1.3-1.5-1.8c-3.1-2.1-6.3-4.2-9.4-6.3c-0.3-0.2-0.7-0.4-1.1-0.5c-1.3-0.3-2.4,1.1-2.9,2.4
		c-0.4,1.1-0.5,2.2-0.5,3.3c-0.3,0.4-0.9,0.3-1.2-0.1s-0.3-0.9-0.3-1.3c0.1-1.2,0.5-2.4,1.2-3.4c-1.2-0.4-2.3,0.7-3.1,1.6
		C107.6,108.4,106,110.5,106.3,112.8 M86,64.5c1.1,0.2,2-1,3.1-1.3c1.8-0.5,3.6,1.4,3.6,3.3c0,1.9-1.2,3.6-2.4,5
		c-1.6,2-0.7,5.3,1.4,6.8c2.1,1.6,4.9,1.7,7.5,1.3c1-0.2,2.3-1,1.7-1.8c-4.3-6.3-7.3-13.4-9-20.8c-0.3-1.5-2.6-1.8-3.8-0.8
		c-1.2,1-1.5,2.7-1.7,4.3C86.2,61.9,86.1,63.2,86,64.5 M112.2,137.2c-0.6-2.4-2.1-4.6-2.4-7.1c-0.2-1.9,0.4-3.8,1.5-5.3
		c0.4-0.6,1-1.1,1.2-1.8s-0.2-1.6-0.9-1.6c-1.5,0-2.8-1.2-3.7-2.4c-0.9-1.2-1.6-2.6-2.8-3.5c-0.4,4,2.7,7.5,3,11.5
		c0.2,2.9-1.2,5.8-3.6,7.4c-0.7,0.5-1.6,1-1.7,1.8c-0.1,0.6,0.3,1.2,0.7,1.7c1.8,2.4,3.6,4.8,5.4,7.2c0.2,0.3,0.4,0.5,0.7,0.7
		c0.7,0.2,1.3-0.5,1.6-1.1C112.6,142.4,112.9,139.7,112.2,137.2 M93.7,56.5c-0.4,0.8-0.2,1.9,0.2,2.8c1.9,5.4,4.2,10.6,7.1,15.5
		c0.6,1,1.6,2.1,2.6,1.7c0.7-0.3,1-1.2,0.9-1.9c-0.1-0.8-0.6-1.4-1.1-2c-1.7-2.3-3.3-4.8-4.2-7.6c-0.5-1.6-0.8-3.3-1.6-4.8
		C96.7,58.6,95.2,57.5,93.7,56.5 M119.4,104.1c2.8,2.3,5.7,4.4,8.8,6.4c0.2,0.1,0.4,0.3,0.7,0.3c0.7,0.1,1.2-0.7,1.4-1.3
		c0.2-0.7,0.3-1.4,0.9-1.9c-3.2-1.7-6.4-3.5-9.6-5.2C120.7,102.7,119.9,103.3,119.4,104.1 M100.1,80.7c-3.1,1.1-6.6,0.8-9.5-0.8
		c0,1.9,0.7,3.8,1.9,5.2c0.6,0.6,1.3,1.2,2.2,1c0.5-0.1,0.9-0.5,1.3-0.9C97.4,83.9,98.8,82.3,100.1,80.7 M111.6,127.7
		c-1.1,3.5,1.5,7,2.2,10.6c0.3,1.6,0.2,3.2,0.2,4.8c1.7-1.3,1.3-3.9,0.6-5.9C113.6,134,112.6,130.9,111.6,127.7 M114.5,122.7
		c-0.5,0.4-0.8,1-0.7,1.6c1.6-0.7,3-1.8,3.9-3.3C116.4,120.8,115.1,121.5,114.5,122.7 M108.7,162.9c0.1-1.7-0.5-3.5-1.7-4.8
		C106.9,159.8,107.6,161.5,108.7,162.9 M107.3,154.5c-0.8-0.1-0.8,1.1-0.5,1.8C107.3,155.9,107.5,155.1,107.3,154.5 M108.8,166.8
		c-0.2,0.3,0.4,0.6,0.7,0.3c0.2-0.5-0.1-1-0.6-1.3C108.8,166.1,108.8,166.4,108.8,166.8 M118.9,103c-0.1-0.4-0.7-0.5-0.9-0.2
		c0.1,0.4,0.2,0.8,0.6,0.9C119,103.8,119.3,103.1,118.9,103L118.9,103z"/>
</g>
</svg>
