<svg xmlns="http://www.w3.org/2000/svg" viewBox="0 0 232.59 121.78"><defs><style>.cls-1{fill:none;stroke:#000;stroke-miterlimit:10;stroke-width:2px;}</style></defs><title>You_are_hired</title><g id="Layer_2" data-name="Layer 2"><g id="Layer_1-2" data-name="Layer 1"><g id="Shape_2" data-name="Shape 2"><path class="cls-1 liazvISE_0" d="M226.55,45c0,4.16.05,8.11,0,12.06-.08,5-.36,9.9-.38,14.85,0,3.4.32,6.8.38,10.2.07,4.26-.2,8.53.08,12.77.3,4.51,1.09,9,1.63,13.48.32,2.63.44,5.29.91,7.89a13,13,0,0,0,1.59,3.25l.47.93a2.43,2.43,0,0,1-.84.33c-5.16-.12-10.33-.15-15.48-.44-4.7-.26-9.38-.93-14.08-1.2q-7.52-.43-15.06-.43c-5.37,0-10.75.34-16.12.36-3.89,0-7.78-.36-11.68-.37-16.18,0-32.36.07-48.54-.06-7.5-.06-15-.52-22.51-.81-3-.12-6.09-.35-9.14-.41-10.45-.18-20.91-.34-31.36-.41-3.54,0-7.09.48-10.62.35-6.6-.25-13.19-.83-19.79-1.21-3.68-.21-7.36-.33-11-.41-.62,0-1.24.43-1.87.54-.46.08-1.13.14-1.4-.11A2.42,2.42,0,0,1,1,114.62a18.66,18.66,0,0,1,.34-2.38Q2.21,103.6,3,95c0-.49,0-1,0-1.48C3.33,85,3.57,76.5,3.9,68c.22-5.6.78-11.2.77-16.79,0-6-.5-12-.79-18.06-.13-2.62-.34-5.24-.41-7.87C3.3,18.86,3.2,12.42,3,6c0-1.21-.37-2.42-.38-3.63s.48-1.74,1.82-1a8,8,0,0,0,3.2.92c2.6.13,5.22,0,7.83,0,7.8.12,15.59.35,23.39.39,4.17,0,8.35-.38,12.52-.36,6.08,0,12.16.23,18.24.4,3.47.1,6.94.29,10.41.41,8.21.29,16.42.52,24.62.87,3.28.14,6.54.75,9.81.78,4.95,0,9.91-.52,14.85-.3,5.92.26,11.8,1.23,17.72,1.57,6.07.36,12.16.26,18.23.5,3.44.13,6.87.57,10.31.81,4.54.32,9.07.67,13.62.83,6.29.23,12.58.29,18.87.45q7.21.18,14.43.43c1.25,0,2.11-.2,2.41-1.65.1-.51.89-.88,1.37-1.32a9.27,9.27,0,0,1,.58,2c0,.65-.29,1.31-.3,2,0,2.68-.06,5.36,0,8,.11,6,.34,12,.39,18,0,2.9-.25,5.81-.4,8.92m-1.69,29.42a33.9,33.9,0,0,1-.4-4.06c.05-3.12.29-6.23.39-9.35.17-5.23.43-10.47.4-15.7,0-10.81-.25-21.61-.39-32.42,0-.21,0-.42,0-.63-.09-1.09-.53-1.58-1.78-1.59-4.74,0-9.48-.28-14.22-.38-8.34-.17-16.67-.27-25-.45a27.64,27.64,0,0,1-5.11-.44A72.73,72.73,0,0,0,162.5,7.76c-3.2.05-6.41.16-9.59,0-4.84-.29-9.66-.89-14.51-1.21-4-.26-7.92-.34-11.89-.44-7.14-.17-14.28-.27-21.41-.44-4-.1-8.07-.28-12.1-.41C88.61,5.09,84.22,5,79.84,4.8,73,4.54,66.1,4,59.23,4,41.67,3.89,24.1,4,6.53,3.94c-1.35,0-1.89.37-1.81,1.78.2,3.54.29,7.08.45,10.62C5.58,25.54,6.22,34.75,6.37,44a183,183,0,0,1-.68,24c-.8,6.95-.67,14-1,21-.14,3.4-.23,6.8-.45,10.19-.09,1.46-.55,2.9-.68,4.36-.25,2.88-.5,5.77-.51,8.66,0,1,.62,1.89,2.12,1.88,3.47,0,6.94.19,10.41.38,7.16.39,14.32,1,21.49,1.21,3.74.13,7.5-.37,11.25-.35,8.83.06,17.66.23,26.49.41,3.47.07,6.94.28,10.41.41,7.57.29,15.15.76,22.72.8,10.24.05,20.48-.28,30.73-.35,3.21,0,6.42.33,9.63.38,11.11.18,22.23.38,33.34.39,3.69,0,7.4-.88,11.07-.72,5.14.22,10.25,1.19,15.39,1.57,6,.44,12,.57,18.06.91,1.11.06,1.3-.33,1.2-1.29-.31-3.13-.54-6.26-.87-9.38-.53-5-1.39-10-1.62-15C224.64,87.29,224.86,81.08,224.86,74.44Z"></path><path class="cls-1 liazvISE_1" d="M100.72,113.71c-6.49-1.69-10-6.1-11.7-12.14a23,23,0,0,1-1.19-7.49,27.61,27.61,0,0,1,2.09-8.82,31.4,31.4,0,0,1,5.25-8.77,21.31,21.31,0,0,1,10.54-6.08c5.4-1.43,10.59-.7,16,.58,4.24,1,7.8,2.59,10.75,5.79a22.14,22.14,0,0,1,5.64,10.15c2,8.87-.78,16.4-6.68,23-2.57,2.85-6.1,4-9.74,4.51a60.11,60.11,0,0,1-10.43.81,78.91,78.91,0,0,1-10.49-1.5M136,98.57c.76-3.63,1.76-7.16.5-11-1.11-3.42-2.25-6.84-5-9.08-3.16-2.53-6.23-5.22-10.68-5.88-4.12-.61-8.09-2-12.35-.94-5.68,1.39-10.76,3.61-14.05,8.81a26.44,26.44,0,0,0-4.47,13.78,22.38,22.38,0,0,0,.82,5.35c.89,3.85,2.34,7.52,5.86,9.68a23.47,23.47,0,0,0,6.86,2.77,58.52,58.52,0,0,0,10.17,1.45,28.58,28.58,0,0,0,7.25-.81c4.08-.86,8.24-1.88,10.75-5.61A60.93,60.93,0,0,0,136,98.57Z"></path><path class="cls-1 liazvISE_2" d="M123.16,59.52l1.11,1.16a8.94,8.94,0,0,0,.68-1.17,16.32,16.32,0,0,1,.86-2.39c1.07-1.78,2.2-2,3.88-.8,2.85,2,5.61,4.1,8.55,5.94,2,1.28,3.06.47,3.26-1.91.3-3.64,1-7.26,1.18-10.91.14-2.25-.26-4.53-.34-6.8,0-.33.37-.67.57-1,.29.28.59.56.88.85.09.09.21.23.21.33-.32,3.72,1.09,7.42-.2,11.2-.64,1.88-.39,4.06-.66,6.08a8.89,8.89,0,0,1-.87,3.22c-.8,1.38-2.06,2.12-3.67,1-2.94-1.94-5.88-3.87-8.8-5.84-1.84-1.23-2.77-.92-3.57,1.24-.41,1.1-.81,2.21-1.32,3.26-.2.41-.69,1-1,1s-.86-.56-1-1c-1.54-3.88-3.2-7.72-4.45-11.69a32.06,32.06,0,0,1-1-7.18c0-.65.66-1.36,1-2a11.81,11.81,0,0,1,.6,1.65c.73,3.51,1.33,7.05,2.17,10.54A37.46,37.46,0,0,0,123.16,59.52Z"></path><path class="cls-1 liazvISE_3" d="M100.4,31.05c-1.72-1.43-2.67-3.17-5.66-2.3s-6.28.69-8.73-2.1c-1.66-1.89-2.14-4.29-.83-6.34s2.92-4,5.42-4.57A5.17,5.17,0,0,1,94,16.1c.69.37.89,1.64,1.31,2.51a10.21,10.21,0,0,0-2.2-1c-.88-.17-2.12-.4-2.67,0a13.73,13.73,0,0,0-3.54,4,3.38,3.38,0,0,0,1.46,4.72,9.31,9.31,0,0,0,6.42,1.26c1-.19,2.46-.17,2.32-2.11a6.08,6.08,0,0,1,4-6.27,5.48,5.48,0,0,1,6.25.82,20.57,20.57,0,0,1,2.7,2.64c1.49,1.94,1.36,3.31-.27,5.81-1.83,2.81-6.48,4.11-9.31,2.55m8.68-6.77c-1-1-2-2.13-3.12-3.1-1.76-1.57-3.61-.74-5.25.17-2.18,1.21-1.89,3.57-1.44,5.37a5.46,5.46,0,0,0,2.93,3.37C105.53,31.29,109.29,28.12,109.08,24.28Z"></path><path class="cls-1 liazvISE_4" d="M78,60.69a6.62,6.62,0,0,0-4.63-6.8,27.6,27.6,0,0,1-6.33-3,8.34,8.34,0,0,1-3.22-4.38c-.27-1.19.84-3.17,1.93-4.09a8.76,8.76,0,0,1,12.46,1c.33.41.25,1.14.36,1.72-.54-.16-1.27-.16-1.59-.52A7,7,0,0,0,70.77,42c-2.39.19-4.78,1.73-5.08,3.54s1.54,4,3.83,5a37.14,37.14,0,0,1,7.56,3.66c3.75,2.68,2.92,7,1,10.3C75.52,69,72,69.18,67.43,67.43a23.54,23.54,0,0,1-4-2.11c-1.9-1.19-2.52-3.25-1.54-4.87a5.94,5.94,0,0,1,1-1,4.62,4.62,0,0,1,.21,1.14,3.77,3.77,0,0,0,2.45,4A40.44,40.44,0,0,0,71.37,67c2.34.6,5.24-2.28,6.18-5.19C77.65,61.47,77.83,61.19,78,60.69Z"></path><path class="cls-1 liazvISE_5" d="M100.83,64.92C96.48,66.77,92.62,66.15,90,63.1a5,5,0,0,1-.59-1.75,5.3,5.3,0,0,1,1.46.58c3.94,3.18,7.6,3.38,10.58.51a4.51,4.51,0,0,0,.3-5.76,11.2,11.2,0,0,0-5.43-3.26A7,7,0,0,1,92.73,51c-2.23-3.62-.83-6.85,3.53-9.36,3.47-2,8-1.05,9.56,1.88a4.82,4.82,0,0,1,.24,1.58,4,4,0,0,1-1.33-.62c-4.25-4.61-10.26-1.27-11.09,2.9-.3,1.5-.2,2.93,1.51,3.63a36.66,36.66,0,0,1,5,2.14c1.83,1.11,3.64,2.35,4.06,4.81.56,3.26.13,4.5-2.6,6.38A4.55,4.55,0,0,1,100.83,64.92Z"></path><path class="cls-1 liazvISE_6" d="M135.12,24.28a17,17,0,0,0,.38-2.36,4.28,4.28,0,0,0-.58-1.43c-.34.19-.82.29-1,.58-2.69,4.43-5.2,3.37-8.51,2.54a43.33,43.33,0,0,1-5.94-2.47c-1-.43-1.9-.62-1.72,1,.27,2.43.6,4.86.68,7.3,0,.66-.74,1.34-1.13,2a5.59,5.59,0,0,1-.78-1.64c-.34-3.19-.67-6.38-.85-9.57-.12-2,.57-2.29,2.49-1.5,2.89,1.19,5.78,2.38,8.74,3.38,3.84,1.3,4.68-.12,7-2.9a21.16,21.16,0,0,1,1.61-1.6,15.49,15.49,0,0,1,1,1.9,6.11,6.11,0,0,1,.31,1.77c.17,2.61.36,5.23.4,7.85,0,.63-.55,1.26-.84,1.89a6.24,6.24,0,0,1-.79-1.67C135.34,27.76,135.26,26.12,135.12,24.28Z"></path><path class="cls-1 liazvISE_7" d="M31.83,26c-.85-3.11-1.72-6-2.51-8.9a4.81,4.81,0,0,1,.17-1.67c.5.41,1.27.73,1.44,1.25.81,2.35,1.46,4.76,2.16,7.15.07.26,0,.57.12.79.48.9,1,1.77,1.53,2.65.42-.76.87-1.51,1.27-2.29.93-1.84,1.58-2,3.23-.68s3.35,2.48,5,3.75c1.23.94,1.89.59,2-.87.18-3.11.3-6.23.43-9.34,0-.42-.15-.94,0-1.25A11.13,11.13,0,0,1,48,15a7.52,7.52,0,0,1,.3,1.71q-.37,6.39-.84,12.77c-.11,1.43-1.21,1.91-2.39,1.1-1.87-1.28-3.74-2.57-5.58-3.89-1.28-.92-2.34-1.08-3,.65a12.79,12.79,0,0,1-.88,2.17c-.3.48-.92,1.1-1.35,1.06s-.87-.77-1.14-1.29A25.7,25.7,0,0,1,31.83,26Z"></path><path class="cls-1 liazvISE_8" d="M143.58,31.9c-3.15-.6-2.17-3.21-2.43-4.9a51,51,0,0,1-.1-8,2.07,2.07,0,0,1,2.32-2.31c2.4,0,4.8-.07,7.19,0,.65,0,1.27.65,1.9,1a6.8,6.8,0,0,1-1.82.62c-1.9.08-3.81-.06-5.71.08-.73.05-1.93.51-2,1a9.81,9.81,0,0,0,.17,3.65,11.68,11.68,0,0,0,2.1,0c1.69,0,3.39-.08,5.07.05.47,0,.88.7,1.32,1.07a5.81,5.81,0,0,1-1.46.55c-2.05.19-4.12.23-6.16.5a1.8,1.8,0,0,0-1.16,1.24c-.4,3.1,1.31,4.49,4.4,3.81a25.51,25.51,0,0,1,4.26-.42c.33,0,.67.38,1,.59a5.35,5.35,0,0,1-.77.64,2.81,2.81,0,0,1-1.09.42C148.33,31.63,146.06,31.76,143.58,31.9Z"></path><path class="cls-1 liazvISE_9" d="M52.57,22.16c-.14-1.42-.24-2.64-.43-3.84a2.42,2.42,0,0,1,2.35-3c1.79-.21,3.57-.63,5.36-.79a5.93,5.93,0,0,1,2,.61c-.48.35-.92.88-1.45,1-1.62.38-3.29.56-4.92.89-2.37.48-1,2.37-1.13,3.58-.06.4,1.08,1.32,1.76,1.42,1.44.22,3,0,4.42.11.46,0,.89.59,1.33.91-.44.25-.87.67-1.32.71a17.87,17.87,0,0,1-4,0,1.77,1.77,0,0,0-2.21,1.55,2.48,2.48,0,0,0,2.29,3.14c1.5,0,3,0,4.51,0,.25,0,.49.27.74.42-.2.27-.39.75-.61.77-2.4.2-4.8.39-7.21.41-.35,0-1-.87-1-1.39C52.79,26.63,52.71,24.5,52.57,22.16Z"></path><path class="cls-1 liazvISE_10" d="M187.71,32.22a5.53,5.53,0,0,1-.68-9.65c3.15-2,4.45-1.7,6.3,1.73.43.8.74,1.67,1.21,2.45a3.37,3.37,0,0,1-.75,4.59,5.21,5.21,0,0,1-5.41,1.13,4,4,0,0,1-.68-.26m5.4-4.76a25.21,25.21,0,0,0-1.36-2.61c-1.17-1.73-2.33-1.85-3.9-.61-2.76,2.18-1.8,5.2.78,6.6,1,.53,2.74.14,3.87-.41C193.08,30.16,193.06,28.63,193.11,27.46Z"></path><path class="cls-1 liazvISE_11" d="M180.83,20a4,4,0,0,1,.63,0l2.33.54a7.75,7.75,0,0,1-2.18,1.1,14.22,14.22,0,0,1-3.79,0c-1.35-.17-1.38.61-1.21,1.47.43,2.2,1,4.39,1.43,6.58a3.48,3.48,0,0,1,.2,1.58,8.36,8.36,0,0,1-1.06,1.79,15.7,15.7,0,0,1-.58-1.66c-.62-2.63-1.09-5.31-1.87-7.89-.19-.62-1.3-1.21-2.07-1.35-1.23-.22-2.53,0-3.79-.1-.56-.06-1.06-.55-1.6-.85a6.3,6.3,0,0,1,1.69-.77c1-.13,2,0,3,0C174.83,20.34,177.72,20.19,180.83,20Z"></path><path class="cls-1 liazvISE_12" d="M68.66,22.59c-.29,3.79.75,4.95,4.46,4.66,2.13-.16,4.25-.36,6.38-.38.61,0,1.23.52,1.85.8a5,5,0,0,1-1.64.81q-4.56.32-9.13.44c-2.45.07-3.38-.71-3.59-3.16-.25-2.89-.31-5.81-.45-8.71a1.38,1.38,0,0,1,0-.63c.32-.64.7-1.25,1.06-1.87a9.1,9.1,0,0,1,.6,1.86C68.41,18.4,68.52,20.39,68.66,22.59Z"></path><path class="cls-1 liazvISE_13" d="M156.71,42.06a39.13,39.13,0,0,1,.88-4.07c.12-.4.67-.68,1-1,.21.48.64,1,.6,1.42-.51,5-1.07,10.09-1.7,15.12-.07.58-.68,1.1-1,1.64a4.65,4.65,0,0,1-.59-1.64C156.11,49.77,156.42,46,156.71,42.06Z"></path><path class="cls-1 liazvISE_14" d="M154.48,62.27c1.58-.91,2.42.24,2.93,1.15a3.44,3.44,0,0,1,0,2.71c-.26.61-1.43,1.37-2,1.23A4.9,4.9,0,0,1,153,65.5c-.29-.43.24-1.49.53-2.22.14-.36.57-.61,1-1m1.8,2-1-.63a11.58,11.58,0,0,0-.27,1.72c0,.13.68.41.71.37A2.47,2.47,0,0,0,156.28,64.28Z"></path><path class="cls-1 liazvISE_15" d="M129.3,101.43c1-1.71,1.87-3.33,2.83-4.89.14-.23.73-.19,1.11-.27.06.33.29.75.16,1-2.19,3.77-3.32,8.49-8.2,10a73.23,73.23,0,0,1-8.63,2.11c-5.49,1-10.64-.79-15.7-2.55-3.44-1.2-5.34-4.11-6.7-7.33-.13-.3.56-1,.87-1.44.38.28,1,.49,1.09.85,1.74,5.55,6.42,7,11.3,7.93a53.55,53.55,0,0,0,8.31.86A17.73,17.73,0,0,0,127,104.25,15,15,0,0,0,129.3,101.43Z"></path><path class="cls-1 liazvISE_16" d="M119.56,90.64a13,13,0,0,1-2.11-1.32c-1.08-1.08-2.07-2.26-1.66-4a4.57,4.57,0,0,1,3.78-3.4,5.24,5.24,0,0,1,6.24,5.62c-.11,1.49-2,3.08-3.82,3.21a12.47,12.47,0,0,1-2.42-.1M118,84.81c-.64,1.94.17,3.23,1.91,4s4.43-.19,4.16-1.5a3.72,3.72,0,0,0-1.59-2.18C121.18,84.39,119.82,83,118,84.81Z"></path><path class="cls-1 liazvISE_17" d="M97.44,87.35c.25-4,3.87-5.85,7-3.81a10.1,10.1,0,0,1,2.29,1.53c.6.7,1.4,2,1.13,2.5a7.08,7.08,0,0,1-3,2.65c-2.17.94-6-.59-7.41-2.87m3.81,1.06a20.61,20.61,0,0,0,3.48.17,1.24,1.24,0,0,0,.66-2.29A7.61,7.61,0,0,0,102,84.9,2.81,2.81,0,0,0,99.65,86C99.17,86.94,99.78,87.93,101.25,88.41Z"></path></g></g></g><style>.liazvISE_0{stroke-dasharray:1348 1350;stroke-dashoffset:1349;animation:liazvISE_draw 1500ms ease-in-out 0ms forwards;}.liazvISE_1{stroke-dasharray:297 299;stroke-dashoffset:298;animation:liazvISE_draw 1500ms ease-in-out 0ms forwards;}.liazvISE_2{stroke-dasharray:134 136;stroke-dashoffset:135;animation:liazvISE_draw 1500ms ease-in-out 0ms forwards;}.liazvISE_3{stroke-dasharray:130 132;stroke-dashoffset:131;animation:liazvISE_draw 1500ms ease-in-out 0ms forwards;}.liazvISE_4{stroke-dasharray:131 133;stroke-dashoffset:132;animation:liazvISE_draw 1500ms ease-in-out 0ms forwards;}.liazvISE_5{stroke-dasharray:109 111;stroke-dashoffset:110;animation:liazvISE_draw 1500ms ease-in-out 0ms forwards;}.liazvISE_6{stroke-dasharray:91 93;stroke-dashoffset:92;animation:liazvISE_draw 1500ms ease-in-out 0ms forwards;}.liazvISE_7{stroke-dasharray:92 94;stroke-dashoffset:93;animation:liazvISE_draw 1500ms ease-in-out 0ms forwards;}.liazvISE_8{stroke-dasharray:82 84;stroke-dashoffset:83;animation:liazvISE_draw 1500ms ease-in-out 0ms forwards;}.liazvISE_9{stroke-dasharray:71 73;stroke-dashoffset:72;animation:liazvISE_draw 1500ms ease-in-out 0ms forwards;}.liazvISE_10{stroke-dasharray:58 60;stroke-dashoffset:59;animation:liazvISE_draw 1500ms ease-in-out 0ms forwards;}.liazvISE_11{stroke-dasharray:54 56;stroke-dashoffset:55;animation:liazvISE_draw 1500ms ease-in-out 0ms forwards;}.liazvISE_12{stroke-dasharray:53 55;stroke-dashoffset:54;animation:liazvISE_draw 1500ms ease-in-out 0ms forwards;}.liazvISE_13{stroke-dasharray:38 40;stroke-dashoffset:39;animation:liazvISE_draw 1500ms ease-in-out 0ms forwards;}.liazvISE_14{stroke-dasharray:22 24;stroke-dashoffset:23;animation:liazvISE_draw 1500ms ease-in-out 0ms forwards;}.liazvISE_15{stroke-dasharray:99 101;stroke-dashoffset:100;animation:liazvISE_draw 1500ms ease-in-out 0ms forwards;}.liazvISE_16{stroke-dasharray:48 50;stroke-dashoffset:49;animation:liazvISE_draw 1500ms ease-in-out 0ms forwards;}.liazvISE_17{stroke-dasharray:45 47;stroke-dashoffset:46;animation:liazvISE_draw 1500ms ease-in-out 0ms forwards;}@keyframes liazvISE_draw{100%{stroke-dashoffset:0;}}@keyframes liazvISE_fade{0%{stroke-opacity:1;}92.98245614035088%{stroke-opacity:1;}100%{stroke-opacity:0;}}</style></svg>